G04 #@! TF.GenerationSoftware,KiCad,Pcbnew,6.0.9-8da3e8f707~116~ubuntu20.04.1*
G04 #@! TF.CreationDate,2022-11-15T09:37:26-05:00*
G04 #@! TF.ProjectId,dynamixel_control,64796e61-6d69-4786-956c-5f636f6e7472,rev?*
G04 #@! TF.SameCoordinates,Original*
G04 #@! TF.FileFunction,Legend,Top*
G04 #@! TF.FilePolarity,Positive*
%FSLAX46Y46*%
G04 Gerber Fmt 4.6, Leading zero omitted, Abs format (unit mm)*
G04 Created by KiCad (PCBNEW 6.0.9-8da3e8f707~116~ubuntu20.04.1) date 2022-11-15 09:37:26*
%MOMM*%
%LPD*%
G01*
G04 APERTURE LIST*
G04 Aperture macros list*
%AMRoundRect*
0 Rectangle with rounded corners*
0 $1 Rounding radius*
0 $2 $3 $4 $5 $6 $7 $8 $9 X,Y pos of 4 corners*
0 Add a 4 corners polygon primitive as box body*
4,1,4,$2,$3,$4,$5,$6,$7,$8,$9,$2,$3,0*
0 Add four circle primitives for the rounded corners*
1,1,$1+$1,$2,$3*
1,1,$1+$1,$4,$5*
1,1,$1+$1,$6,$7*
1,1,$1+$1,$8,$9*
0 Add four rect primitives between the rounded corners*
20,1,$1+$1,$2,$3,$4,$5,0*
20,1,$1+$1,$4,$5,$6,$7,0*
20,1,$1+$1,$6,$7,$8,$9,0*
20,1,$1+$1,$8,$9,$2,$3,0*%
G04 Aperture macros list end*
%ADD10C,0.150000*%
%ADD11C,0.120000*%
%ADD12C,0.200000*%
%ADD13C,0.413553*%
%ADD14O,1.750000X1.200000*%
%ADD15RoundRect,0.250000X-0.625000X0.350000X-0.625000X-0.350000X0.625000X-0.350000X0.625000X0.350000X0*%
%ADD16RoundRect,0.250000X-0.450000X0.262500X-0.450000X-0.262500X0.450000X-0.262500X0.450000X0.262500X0*%
%ADD17RoundRect,0.250000X-0.475000X0.250000X-0.475000X-0.250000X0.475000X-0.250000X0.475000X0.250000X0*%
%ADD18C,3.200000*%
%ADD19RoundRect,0.250000X-0.250000X-0.475000X0.250000X-0.475000X0.250000X0.475000X-0.250000X0.475000X0*%
%ADD20RoundRect,0.250000X-0.350000X-0.625000X0.350000X-0.625000X0.350000X0.625000X-0.350000X0.625000X0*%
%ADD21O,1.200000X1.750000*%
%ADD22RoundRect,0.250000X0.625000X-0.350000X0.625000X0.350000X-0.625000X0.350000X-0.625000X-0.350000X0*%
%ADD23RoundRect,0.250000X0.350000X0.625000X-0.350000X0.625000X-0.350000X-0.625000X0.350000X-0.625000X0*%
%ADD24RoundRect,0.250000X0.262500X0.450000X-0.262500X0.450000X-0.262500X-0.450000X0.262500X-0.450000X0*%
%ADD25RoundRect,0.250000X-0.262500X-0.450000X0.262500X-0.450000X0.262500X0.450000X-0.262500X0.450000X0*%
%ADD26RoundRect,0.750000X0.750000X2.250000X-0.750000X2.250000X-0.750000X-2.250000X0.750000X-2.250000X0*%
%ADD27RoundRect,0.750000X-2.250000X0.750000X-2.250000X-0.750000X2.250000X-0.750000X2.250000X0.750000X0*%
%ADD28O,1.651000X1.270000*%
%ADD29RoundRect,0.250000X0.475000X-0.250000X0.475000X0.250000X-0.475000X0.250000X-0.475000X-0.250000X0*%
%ADD30RoundRect,0.150000X0.587500X0.150000X-0.587500X0.150000X-0.587500X-0.150000X0.587500X-0.150000X0*%
%ADD31RoundRect,0.250000X0.450000X-0.262500X0.450000X0.262500X-0.450000X0.262500X-0.450000X-0.262500X0*%
%ADD32RoundRect,0.150000X-0.587500X-0.150000X0.587500X-0.150000X0.587500X0.150000X-0.587500X0.150000X0*%
%ADD33R,1.750000X1.750000*%
%ADD34C,1.750000*%
%ADD35R,1.500000X0.300000*%
%ADD36R,0.300000X1.500000*%
%ADD37RoundRect,0.150000X-0.512500X-0.150000X0.512500X-0.150000X0.512500X0.150000X-0.512500X0.150000X0*%
%ADD38RoundRect,0.100000X0.637500X0.100000X-0.637500X0.100000X-0.637500X-0.100000X0.637500X-0.100000X0*%
%ADD39RoundRect,0.250000X-1.450000X0.312500X-1.450000X-0.312500X1.450000X-0.312500X1.450000X0.312500X0*%
%ADD40R,0.800000X0.300000*%
%ADD41RoundRect,0.250000X0.250000X0.475000X-0.250000X0.475000X-0.250000X-0.475000X0.250000X-0.475000X0*%
G04 APERTURE END LIST*
D10*
X29935714Y-51525000D02*
X29864285Y-51489285D01*
X29757142Y-51489285D01*
X29650000Y-51525000D01*
X29578571Y-51596428D01*
X29542857Y-51667857D01*
X29507142Y-51810714D01*
X29507142Y-51917857D01*
X29542857Y-52060714D01*
X29578571Y-52132142D01*
X29650000Y-52203571D01*
X29757142Y-52239285D01*
X29828571Y-52239285D01*
X29935714Y-52203571D01*
X29971428Y-52167857D01*
X29971428Y-51917857D01*
X29828571Y-51917857D01*
X30828571Y-52203571D02*
X30935714Y-52239285D01*
X31114285Y-52239285D01*
X31185714Y-52203571D01*
X31221428Y-52167857D01*
X31257142Y-52096428D01*
X31257142Y-52025000D01*
X31221428Y-51953571D01*
X31185714Y-51917857D01*
X31114285Y-51882142D01*
X30971428Y-51846428D01*
X30900000Y-51810714D01*
X30864285Y-51775000D01*
X30828571Y-51703571D01*
X30828571Y-51632142D01*
X30864285Y-51560714D01*
X30900000Y-51525000D01*
X30971428Y-51489285D01*
X31150000Y-51489285D01*
X31257142Y-51525000D01*
X32007142Y-52167857D02*
X31971428Y-52203571D01*
X31864285Y-52239285D01*
X31792857Y-52239285D01*
X31685714Y-52203571D01*
X31614285Y-52132142D01*
X31578571Y-52060714D01*
X31542857Y-51917857D01*
X31542857Y-51810714D01*
X31578571Y-51667857D01*
X31614285Y-51596428D01*
X31685714Y-51525000D01*
X31792857Y-51489285D01*
X31864285Y-51489285D01*
X31971428Y-51525000D01*
X32007142Y-51560714D01*
X32685714Y-52239285D02*
X32328571Y-52239285D01*
X32328571Y-51489285D01*
X33471428Y-52203571D02*
X33578571Y-52239285D01*
X33757142Y-52239285D01*
X33828571Y-52203571D01*
X33864285Y-52167857D01*
X33900000Y-52096428D01*
X33900000Y-52025000D01*
X33864285Y-51953571D01*
X33828571Y-51917857D01*
X33757142Y-51882142D01*
X33614285Y-51846428D01*
X33542857Y-51810714D01*
X33507142Y-51775000D01*
X33471428Y-51703571D01*
X33471428Y-51632142D01*
X33507142Y-51560714D01*
X33542857Y-51525000D01*
X33614285Y-51489285D01*
X33792857Y-51489285D01*
X33900000Y-51525000D01*
X34221428Y-52239285D02*
X34221428Y-51489285D01*
X34400000Y-51489285D01*
X34507142Y-51525000D01*
X34578571Y-51596428D01*
X34614285Y-51667857D01*
X34650000Y-51810714D01*
X34650000Y-51917857D01*
X34614285Y-52060714D01*
X34578571Y-52132142D01*
X34507142Y-52203571D01*
X34400000Y-52239285D01*
X34221428Y-52239285D01*
X34935714Y-52025000D02*
X35292857Y-52025000D01*
X34864285Y-52239285D02*
X35114285Y-51489285D01*
X35364285Y-52239285D01*
X39100000Y-28052380D02*
X39671428Y-28052380D01*
X39385714Y-29052380D02*
X39385714Y-28052380D01*
X39909523Y-28052380D02*
X40576190Y-29052380D01*
X40576190Y-28052380D02*
X39909523Y-29052380D01*
X42290476Y-29052380D02*
X41957142Y-28576190D01*
X41719047Y-29052380D02*
X41719047Y-28052380D01*
X42100000Y-28052380D01*
X42195238Y-28100000D01*
X42242857Y-28147619D01*
X42290476Y-28242857D01*
X42290476Y-28385714D01*
X42242857Y-28480952D01*
X42195238Y-28528571D01*
X42100000Y-28576190D01*
X41719047Y-28576190D01*
X42623809Y-28052380D02*
X43290476Y-29052380D01*
X43290476Y-28052380D02*
X42623809Y-29052380D01*
X44957142Y-28100000D02*
X44861904Y-28052380D01*
X44719047Y-28052380D01*
X44576190Y-28100000D01*
X44480952Y-28195238D01*
X44433333Y-28290476D01*
X44385714Y-28480952D01*
X44385714Y-28623809D01*
X44433333Y-28814285D01*
X44480952Y-28909523D01*
X44576190Y-29004761D01*
X44719047Y-29052380D01*
X44814285Y-29052380D01*
X44957142Y-29004761D01*
X45004761Y-28957142D01*
X45004761Y-28623809D01*
X44814285Y-28623809D01*
X20154761Y-50952380D02*
X20773809Y-50952380D01*
X20440476Y-51333333D01*
X20583333Y-51333333D01*
X20678571Y-51380952D01*
X20726190Y-51428571D01*
X20773809Y-51523809D01*
X20773809Y-51761904D01*
X20726190Y-51857142D01*
X20678571Y-51904761D01*
X20583333Y-51952380D01*
X20297619Y-51952380D01*
X20202380Y-51904761D01*
X20154761Y-51857142D01*
X21202380Y-51857142D02*
X21250000Y-51904761D01*
X21202380Y-51952380D01*
X21154761Y-51904761D01*
X21202380Y-51857142D01*
X21202380Y-51952380D01*
X21583333Y-50952380D02*
X22202380Y-50952380D01*
X21869047Y-51333333D01*
X22011904Y-51333333D01*
X22107142Y-51380952D01*
X22154761Y-51428571D01*
X22202380Y-51523809D01*
X22202380Y-51761904D01*
X22154761Y-51857142D01*
X22107142Y-51904761D01*
X22011904Y-51952380D01*
X21726190Y-51952380D01*
X21630952Y-51904761D01*
X21583333Y-51857142D01*
X22488095Y-50952380D02*
X22821428Y-51952380D01*
X23154761Y-50952380D01*
X24250000Y-51571428D02*
X25011904Y-51571428D01*
X25488095Y-51571428D02*
X26250000Y-51571428D01*
X25869047Y-51952380D02*
X25869047Y-51190476D01*
X22416666Y-58702380D02*
X22416666Y-57702380D01*
X22654761Y-57702380D01*
X22797619Y-57750000D01*
X22892857Y-57845238D01*
X22940476Y-57940476D01*
X22988095Y-58130952D01*
X22988095Y-58273809D01*
X22940476Y-58464285D01*
X22892857Y-58559523D01*
X22797619Y-58654761D01*
X22654761Y-58702380D01*
X22416666Y-58702380D01*
X24797619Y-57702380D02*
X25130952Y-58702380D01*
X25464285Y-57702380D01*
X25797619Y-58321428D02*
X26559523Y-58321428D01*
X26178571Y-58702380D02*
X26178571Y-57940476D01*
X29083333Y-57750000D02*
X28988095Y-57702380D01*
X28845238Y-57702380D01*
X28702380Y-57750000D01*
X28607142Y-57845238D01*
X28559523Y-57940476D01*
X28511904Y-58130952D01*
X28511904Y-58273809D01*
X28559523Y-58464285D01*
X28607142Y-58559523D01*
X28702380Y-58654761D01*
X28845238Y-58702380D01*
X28940476Y-58702380D01*
X29083333Y-58654761D01*
X29130952Y-58607142D01*
X29130952Y-58273809D01*
X28940476Y-58273809D01*
X27250000Y-50571428D02*
X28011904Y-50571428D01*
X28488095Y-50571428D02*
X29250000Y-50571428D01*
X28869047Y-50952380D02*
X28869047Y-50190476D01*
X31809523Y-45202380D02*
X31333333Y-45202380D01*
X31285714Y-45678571D01*
X31333333Y-45630952D01*
X31428571Y-45583333D01*
X31666666Y-45583333D01*
X31761904Y-45630952D01*
X31809523Y-45678571D01*
X31857142Y-45773809D01*
X31857142Y-46011904D01*
X31809523Y-46107142D01*
X31761904Y-46154761D01*
X31666666Y-46202380D01*
X31428571Y-46202380D01*
X31333333Y-46154761D01*
X31285714Y-46107142D01*
X32142857Y-45202380D02*
X32476190Y-46202380D01*
X32809523Y-45202380D01*
X32702380Y-39666666D02*
X32226190Y-40000000D01*
X32702380Y-40238095D02*
X31702380Y-40238095D01*
X31702380Y-39857142D01*
X31750000Y-39761904D01*
X31797619Y-39714285D01*
X31892857Y-39666666D01*
X32035714Y-39666666D01*
X32130952Y-39714285D01*
X32178571Y-39761904D01*
X32226190Y-39857142D01*
X32226190Y-40238095D01*
X31702380Y-38761904D02*
X31702380Y-39238095D01*
X32178571Y-39285714D01*
X32130952Y-39238095D01*
X32083333Y-39142857D01*
X32083333Y-38904761D01*
X32130952Y-38809523D01*
X32178571Y-38761904D01*
X32273809Y-38714285D01*
X32511904Y-38714285D01*
X32607142Y-38761904D01*
X32654761Y-38809523D01*
X32702380Y-38904761D01*
X32702380Y-39142857D01*
X32654761Y-39238095D01*
X32607142Y-39285714D01*
X47857142Y-38292857D02*
X47904761Y-38340476D01*
X47952380Y-38483333D01*
X47952380Y-38578571D01*
X47904761Y-38721428D01*
X47809523Y-38816666D01*
X47714285Y-38864285D01*
X47523809Y-38911904D01*
X47380952Y-38911904D01*
X47190476Y-38864285D01*
X47095238Y-38816666D01*
X47000000Y-38721428D01*
X46952380Y-38578571D01*
X46952380Y-38483333D01*
X47000000Y-38340476D01*
X47047619Y-38292857D01*
X47952380Y-37340476D02*
X47952380Y-37911904D01*
X47952380Y-37626190D02*
X46952380Y-37626190D01*
X47095238Y-37721428D01*
X47190476Y-37816666D01*
X47238095Y-37911904D01*
X46952380Y-36721428D02*
X46952380Y-36626190D01*
X47000000Y-36530952D01*
X47047619Y-36483333D01*
X47142857Y-36435714D01*
X47333333Y-36388095D01*
X47571428Y-36388095D01*
X47761904Y-36435714D01*
X47857142Y-36483333D01*
X47904761Y-36530952D01*
X47952380Y-36626190D01*
X47952380Y-36721428D01*
X47904761Y-36816666D01*
X47857142Y-36864285D01*
X47761904Y-36911904D01*
X47571428Y-36959523D01*
X47333333Y-36959523D01*
X47142857Y-36911904D01*
X47047619Y-36864285D01*
X47000000Y-36816666D01*
X46952380Y-36721428D01*
X50857142Y-29357142D02*
X50809523Y-29404761D01*
X50666666Y-29452380D01*
X50571428Y-29452380D01*
X50428571Y-29404761D01*
X50333333Y-29309523D01*
X50285714Y-29214285D01*
X50238095Y-29023809D01*
X50238095Y-28880952D01*
X50285714Y-28690476D01*
X50333333Y-28595238D01*
X50428571Y-28500000D01*
X50571428Y-28452380D01*
X50666666Y-28452380D01*
X50809523Y-28500000D01*
X50857142Y-28547619D01*
X51809523Y-29452380D02*
X51238095Y-29452380D01*
X51523809Y-29452380D02*
X51523809Y-28452380D01*
X51428571Y-28595238D01*
X51333333Y-28690476D01*
X51238095Y-28738095D01*
X52761904Y-29452380D02*
X52190476Y-29452380D01*
X52476190Y-29452380D02*
X52476190Y-28452380D01*
X52380952Y-28595238D01*
X52285714Y-28690476D01*
X52190476Y-28738095D01*
X29416666Y-44952380D02*
X29416666Y-45666666D01*
X29369047Y-45809523D01*
X29273809Y-45904761D01*
X29130952Y-45952380D01*
X29035714Y-45952380D01*
X29797619Y-44952380D02*
X30416666Y-44952380D01*
X30083333Y-45333333D01*
X30226190Y-45333333D01*
X30321428Y-45380952D01*
X30369047Y-45428571D01*
X30416666Y-45523809D01*
X30416666Y-45761904D01*
X30369047Y-45857142D01*
X30321428Y-45904761D01*
X30226190Y-45952380D01*
X29940476Y-45952380D01*
X29845238Y-45904761D01*
X29797619Y-45857142D01*
X52916666Y-31904761D02*
X53059523Y-31952380D01*
X53297619Y-31952380D01*
X53392857Y-31904761D01*
X53440476Y-31857142D01*
X53488095Y-31761904D01*
X53488095Y-31666666D01*
X53440476Y-31571428D01*
X53392857Y-31523809D01*
X53297619Y-31476190D01*
X53107142Y-31428571D01*
X53011904Y-31380952D01*
X52964285Y-31333333D01*
X52916666Y-31238095D01*
X52916666Y-31142857D01*
X52964285Y-31047619D01*
X53011904Y-31000000D01*
X53107142Y-30952380D01*
X53345238Y-30952380D01*
X53488095Y-31000000D01*
X53821428Y-30952380D02*
X54059523Y-31952380D01*
X54250000Y-31238095D01*
X54440476Y-31952380D01*
X54678571Y-30952380D01*
X55583333Y-31952380D02*
X55011904Y-31952380D01*
X55297619Y-31952380D02*
X55297619Y-30952380D01*
X55202380Y-31095238D01*
X55107142Y-31190476D01*
X55011904Y-31238095D01*
X43357142Y-72416666D02*
X43404761Y-72464285D01*
X43452380Y-72607142D01*
X43452380Y-72702380D01*
X43404761Y-72845238D01*
X43309523Y-72940476D01*
X43214285Y-72988095D01*
X43023809Y-73035714D01*
X42880952Y-73035714D01*
X42690476Y-72988095D01*
X42595238Y-72940476D01*
X42500000Y-72845238D01*
X42452380Y-72702380D01*
X42452380Y-72607142D01*
X42500000Y-72464285D01*
X42547619Y-72416666D01*
X42452380Y-71559523D02*
X42452380Y-71750000D01*
X42500000Y-71845238D01*
X42547619Y-71892857D01*
X42690476Y-71988095D01*
X42880952Y-72035714D01*
X43261904Y-72035714D01*
X43357142Y-71988095D01*
X43404761Y-71940476D01*
X43452380Y-71845238D01*
X43452380Y-71654761D01*
X43404761Y-71559523D01*
X43357142Y-71511904D01*
X43261904Y-71464285D01*
X43023809Y-71464285D01*
X42928571Y-71511904D01*
X42880952Y-71559523D01*
X42833333Y-71654761D01*
X42833333Y-71845238D01*
X42880952Y-71940476D01*
X42928571Y-71988095D01*
X43023809Y-72035714D01*
X51357142Y-71392857D02*
X51404761Y-71440476D01*
X51452380Y-71583333D01*
X51452380Y-71678571D01*
X51404761Y-71821428D01*
X51309523Y-71916666D01*
X51214285Y-71964285D01*
X51023809Y-72011904D01*
X50880952Y-72011904D01*
X50690476Y-71964285D01*
X50595238Y-71916666D01*
X50500000Y-71821428D01*
X50452380Y-71678571D01*
X50452380Y-71583333D01*
X50500000Y-71440476D01*
X50547619Y-71392857D01*
X51452380Y-70440476D02*
X51452380Y-71011904D01*
X51452380Y-70726190D02*
X50452380Y-70726190D01*
X50595238Y-70821428D01*
X50690476Y-70916666D01*
X50738095Y-71011904D01*
X50452380Y-70107142D02*
X50452380Y-69488095D01*
X50833333Y-69821428D01*
X50833333Y-69678571D01*
X50880952Y-69583333D01*
X50928571Y-69535714D01*
X51023809Y-69488095D01*
X51261904Y-69488095D01*
X51357142Y-69535714D01*
X51404761Y-69583333D01*
X51452380Y-69678571D01*
X51452380Y-69964285D01*
X51404761Y-70059523D01*
X51357142Y-70107142D01*
X46916666Y-20452380D02*
X46916666Y-21166666D01*
X46869047Y-21309523D01*
X46773809Y-21404761D01*
X46630952Y-21452380D01*
X46535714Y-21452380D01*
X47345238Y-20547619D02*
X47392857Y-20500000D01*
X47488095Y-20452380D01*
X47726190Y-20452380D01*
X47821428Y-20500000D01*
X47869047Y-20547619D01*
X47916666Y-20642857D01*
X47916666Y-20738095D01*
X47869047Y-20880952D01*
X47297619Y-21452380D01*
X47916666Y-21452380D01*
X30333333Y-44607142D02*
X30285714Y-44654761D01*
X30142857Y-44702380D01*
X30047619Y-44702380D01*
X29904761Y-44654761D01*
X29809523Y-44559523D01*
X29761904Y-44464285D01*
X29714285Y-44273809D01*
X29714285Y-44130952D01*
X29761904Y-43940476D01*
X29809523Y-43845238D01*
X29904761Y-43750000D01*
X30047619Y-43702380D01*
X30142857Y-43702380D01*
X30285714Y-43750000D01*
X30333333Y-43797619D01*
X30666666Y-43702380D02*
X31285714Y-43702380D01*
X30952380Y-44083333D01*
X31095238Y-44083333D01*
X31190476Y-44130952D01*
X31238095Y-44178571D01*
X31285714Y-44273809D01*
X31285714Y-44511904D01*
X31238095Y-44607142D01*
X31190476Y-44654761D01*
X31095238Y-44702380D01*
X30809523Y-44702380D01*
X30714285Y-44654761D01*
X30666666Y-44607142D01*
X33952380Y-40091666D02*
X33476190Y-40425000D01*
X33952380Y-40663095D02*
X32952380Y-40663095D01*
X32952380Y-40282142D01*
X33000000Y-40186904D01*
X33047619Y-40139285D01*
X33142857Y-40091666D01*
X33285714Y-40091666D01*
X33380952Y-40139285D01*
X33428571Y-40186904D01*
X33476190Y-40282142D01*
X33476190Y-40663095D01*
X32952380Y-39234523D02*
X32952380Y-39425000D01*
X33000000Y-39520238D01*
X33047619Y-39567857D01*
X33190476Y-39663095D01*
X33380952Y-39710714D01*
X33761904Y-39710714D01*
X33857142Y-39663095D01*
X33904761Y-39615476D01*
X33952380Y-39520238D01*
X33952380Y-39329761D01*
X33904761Y-39234523D01*
X33857142Y-39186904D01*
X33761904Y-39139285D01*
X33523809Y-39139285D01*
X33428571Y-39186904D01*
X33380952Y-39234523D01*
X33333333Y-39329761D01*
X33333333Y-39520238D01*
X33380952Y-39615476D01*
X33428571Y-39663095D01*
X33523809Y-39710714D01*
X27166666Y-50952380D02*
X27166666Y-51666666D01*
X27119047Y-51809523D01*
X27023809Y-51904761D01*
X26880952Y-51952380D01*
X26785714Y-51952380D01*
X28119047Y-50952380D02*
X27642857Y-50952380D01*
X27595238Y-51428571D01*
X27642857Y-51380952D01*
X27738095Y-51333333D01*
X27976190Y-51333333D01*
X28071428Y-51380952D01*
X28119047Y-51428571D01*
X28166666Y-51523809D01*
X28166666Y-51761904D01*
X28119047Y-51857142D01*
X28071428Y-51904761D01*
X27976190Y-51952380D01*
X27738095Y-51952380D01*
X27642857Y-51904761D01*
X27595238Y-51857142D01*
X36202380Y-75142857D02*
X35726190Y-75476190D01*
X36202380Y-75714285D02*
X35202380Y-75714285D01*
X35202380Y-75333333D01*
X35250000Y-75238095D01*
X35297619Y-75190476D01*
X35392857Y-75142857D01*
X35535714Y-75142857D01*
X35630952Y-75190476D01*
X35678571Y-75238095D01*
X35726190Y-75333333D01*
X35726190Y-75714285D01*
X36202380Y-74190476D02*
X36202380Y-74761904D01*
X36202380Y-74476190D02*
X35202380Y-74476190D01*
X35345238Y-74571428D01*
X35440476Y-74666666D01*
X35488095Y-74761904D01*
X35535714Y-73333333D02*
X36202380Y-73333333D01*
X35154761Y-73571428D02*
X35869047Y-73809523D01*
X35869047Y-73190476D01*
X46833333Y-61952380D02*
X46500000Y-61476190D01*
X46261904Y-61952380D02*
X46261904Y-60952380D01*
X46642857Y-60952380D01*
X46738095Y-61000000D01*
X46785714Y-61047619D01*
X46833333Y-61142857D01*
X46833333Y-61285714D01*
X46785714Y-61380952D01*
X46738095Y-61428571D01*
X46642857Y-61476190D01*
X46261904Y-61476190D01*
X47404761Y-61380952D02*
X47309523Y-61333333D01*
X47261904Y-61285714D01*
X47214285Y-61190476D01*
X47214285Y-61142857D01*
X47261904Y-61047619D01*
X47309523Y-61000000D01*
X47404761Y-60952380D01*
X47595238Y-60952380D01*
X47690476Y-61000000D01*
X47738095Y-61047619D01*
X47785714Y-61142857D01*
X47785714Y-61190476D01*
X47738095Y-61285714D01*
X47690476Y-61333333D01*
X47595238Y-61380952D01*
X47404761Y-61380952D01*
X47309523Y-61428571D01*
X47261904Y-61476190D01*
X47214285Y-61571428D01*
X47214285Y-61761904D01*
X47261904Y-61857142D01*
X47309523Y-61904761D01*
X47404761Y-61952380D01*
X47595238Y-61952380D01*
X47690476Y-61904761D01*
X47738095Y-61857142D01*
X47785714Y-61761904D01*
X47785714Y-61571428D01*
X47738095Y-61476190D01*
X47690476Y-61428571D01*
X47595238Y-61380952D01*
X50833333Y-31857142D02*
X50785714Y-31904761D01*
X50642857Y-31952380D01*
X50547619Y-31952380D01*
X50404761Y-31904761D01*
X50309523Y-31809523D01*
X50261904Y-31714285D01*
X50214285Y-31523809D01*
X50214285Y-31380952D01*
X50261904Y-31190476D01*
X50309523Y-31095238D01*
X50404761Y-31000000D01*
X50547619Y-30952380D01*
X50642857Y-30952380D01*
X50785714Y-31000000D01*
X50833333Y-31047619D01*
X51309523Y-31952380D02*
X51500000Y-31952380D01*
X51595238Y-31904761D01*
X51642857Y-31857142D01*
X51738095Y-31714285D01*
X51785714Y-31523809D01*
X51785714Y-31142857D01*
X51738095Y-31047619D01*
X51690476Y-31000000D01*
X51595238Y-30952380D01*
X51404761Y-30952380D01*
X51309523Y-31000000D01*
X51261904Y-31047619D01*
X51214285Y-31142857D01*
X51214285Y-31380952D01*
X51261904Y-31476190D01*
X51309523Y-31523809D01*
X51404761Y-31571428D01*
X51595238Y-31571428D01*
X51690476Y-31523809D01*
X51738095Y-31476190D01*
X51785714Y-31380952D01*
X28166666Y-20452380D02*
X28166666Y-21166666D01*
X28119047Y-21309523D01*
X28023809Y-21404761D01*
X27880952Y-21452380D01*
X27785714Y-21452380D01*
X29166666Y-21452380D02*
X28595238Y-21452380D01*
X28880952Y-21452380D02*
X28880952Y-20452380D01*
X28785714Y-20595238D01*
X28690476Y-20690476D01*
X28595238Y-20738095D01*
X27880952Y-26178571D02*
X27119047Y-26178571D01*
X27880952Y-29178571D02*
X27119047Y-29178571D01*
X27500000Y-28797619D02*
X27500000Y-29559523D01*
X24666666Y-50202380D02*
X24666666Y-50916666D01*
X24619047Y-51059523D01*
X24523809Y-51154761D01*
X24380952Y-51202380D01*
X24285714Y-51202380D01*
X25571428Y-50535714D02*
X25571428Y-51202380D01*
X25333333Y-50154761D02*
X25095238Y-50869047D01*
X25714285Y-50869047D01*
X44452380Y-59041904D02*
X45261904Y-59041904D01*
X45357142Y-58994285D01*
X45404761Y-58946666D01*
X45452380Y-58851428D01*
X45452380Y-58660952D01*
X45404761Y-58565714D01*
X45357142Y-58518095D01*
X45261904Y-58470476D01*
X44452380Y-58470476D01*
X44785714Y-57565714D02*
X45452380Y-57565714D01*
X44404761Y-57803809D02*
X45119047Y-58041904D01*
X45119047Y-57422857D01*
X44238095Y-39952380D02*
X44238095Y-40761904D01*
X44285714Y-40857142D01*
X44333333Y-40904761D01*
X44428571Y-40952380D01*
X44619047Y-40952380D01*
X44714285Y-40904761D01*
X44761904Y-40857142D01*
X44809523Y-40761904D01*
X44809523Y-39952380D01*
X45238095Y-40904761D02*
X45380952Y-40952380D01*
X45619047Y-40952380D01*
X45714285Y-40904761D01*
X45761904Y-40857142D01*
X45809523Y-40761904D01*
X45809523Y-40666666D01*
X45761904Y-40571428D01*
X45714285Y-40523809D01*
X45619047Y-40476190D01*
X45428571Y-40428571D01*
X45333333Y-40380952D01*
X45285714Y-40333333D01*
X45238095Y-40238095D01*
X45238095Y-40142857D01*
X45285714Y-40047619D01*
X45333333Y-40000000D01*
X45428571Y-39952380D01*
X45666666Y-39952380D01*
X45809523Y-40000000D01*
X46571428Y-40428571D02*
X46714285Y-40476190D01*
X46761904Y-40523809D01*
X46809523Y-40619047D01*
X46809523Y-40761904D01*
X46761904Y-40857142D01*
X46714285Y-40904761D01*
X46619047Y-40952380D01*
X46238095Y-40952380D01*
X46238095Y-39952380D01*
X46571428Y-39952380D01*
X46666666Y-40000000D01*
X46714285Y-40047619D01*
X46761904Y-40142857D01*
X46761904Y-40238095D01*
X46714285Y-40333333D01*
X46666666Y-40380952D01*
X46571428Y-40428571D01*
X46238095Y-40428571D01*
X49857142Y-37316666D02*
X49904761Y-37364285D01*
X49952380Y-37507142D01*
X49952380Y-37602380D01*
X49904761Y-37745238D01*
X49809523Y-37840476D01*
X49714285Y-37888095D01*
X49523809Y-37935714D01*
X49380952Y-37935714D01*
X49190476Y-37888095D01*
X49095238Y-37840476D01*
X49000000Y-37745238D01*
X48952380Y-37602380D01*
X48952380Y-37507142D01*
X49000000Y-37364285D01*
X49047619Y-37316666D01*
X49380952Y-36745238D02*
X49333333Y-36840476D01*
X49285714Y-36888095D01*
X49190476Y-36935714D01*
X49142857Y-36935714D01*
X49047619Y-36888095D01*
X49000000Y-36840476D01*
X48952380Y-36745238D01*
X48952380Y-36554761D01*
X49000000Y-36459523D01*
X49047619Y-36411904D01*
X49142857Y-36364285D01*
X49190476Y-36364285D01*
X49285714Y-36411904D01*
X49333333Y-36459523D01*
X49380952Y-36554761D01*
X49380952Y-36745238D01*
X49428571Y-36840476D01*
X49476190Y-36888095D01*
X49571428Y-36935714D01*
X49761904Y-36935714D01*
X49857142Y-36888095D01*
X49904761Y-36840476D01*
X49952380Y-36745238D01*
X49952380Y-36554761D01*
X49904761Y-36459523D01*
X49857142Y-36411904D01*
X49761904Y-36364285D01*
X49571428Y-36364285D01*
X49476190Y-36411904D01*
X49428571Y-36459523D01*
X49380952Y-36554761D01*
X33507142Y-64857142D02*
X33459523Y-64904761D01*
X33316666Y-64952380D01*
X33221428Y-64952380D01*
X33078571Y-64904761D01*
X32983333Y-64809523D01*
X32935714Y-64714285D01*
X32888095Y-64523809D01*
X32888095Y-64380952D01*
X32935714Y-64190476D01*
X32983333Y-64095238D01*
X33078571Y-64000000D01*
X33221428Y-63952380D01*
X33316666Y-63952380D01*
X33459523Y-64000000D01*
X33507142Y-64047619D01*
X34459523Y-64952380D02*
X33888095Y-64952380D01*
X34173809Y-64952380D02*
X34173809Y-63952380D01*
X34078571Y-64095238D01*
X33983333Y-64190476D01*
X33888095Y-64238095D01*
X35364285Y-63952380D02*
X34888095Y-63952380D01*
X34840476Y-64428571D01*
X34888095Y-64380952D01*
X34983333Y-64333333D01*
X35221428Y-64333333D01*
X35316666Y-64380952D01*
X35364285Y-64428571D01*
X35411904Y-64523809D01*
X35411904Y-64761904D01*
X35364285Y-64857142D01*
X35316666Y-64904761D01*
X35221428Y-64952380D01*
X34983333Y-64952380D01*
X34888095Y-64904761D01*
X34840476Y-64857142D01*
X31988095Y-41702380D02*
X31988095Y-42511904D01*
X32035714Y-42607142D01*
X32083333Y-42654761D01*
X32178571Y-42702380D01*
X32369047Y-42702380D01*
X32464285Y-42654761D01*
X32511904Y-42607142D01*
X32559523Y-42511904D01*
X32559523Y-41702380D01*
X32940476Y-41702380D02*
X33559523Y-41702380D01*
X33226190Y-42083333D01*
X33369047Y-42083333D01*
X33464285Y-42130952D01*
X33511904Y-42178571D01*
X33559523Y-42273809D01*
X33559523Y-42511904D01*
X33511904Y-42607142D01*
X33464285Y-42654761D01*
X33369047Y-42702380D01*
X33083333Y-42702380D01*
X32988095Y-42654761D01*
X32940476Y-42607142D01*
X40452380Y-67480357D02*
X39976190Y-67813690D01*
X40452380Y-68051785D02*
X39452380Y-68051785D01*
X39452380Y-67670833D01*
X39500000Y-67575595D01*
X39547619Y-67527976D01*
X39642857Y-67480357D01*
X39785714Y-67480357D01*
X39880952Y-67527976D01*
X39928571Y-67575595D01*
X39976190Y-67670833D01*
X39976190Y-68051785D01*
X40452380Y-66527976D02*
X40452380Y-67099404D01*
X40452380Y-66813690D02*
X39452380Y-66813690D01*
X39595238Y-66908928D01*
X39690476Y-67004166D01*
X39738095Y-67099404D01*
X39452380Y-65908928D02*
X39452380Y-65813690D01*
X39500000Y-65718452D01*
X39547619Y-65670833D01*
X39642857Y-65623214D01*
X39833333Y-65575595D01*
X40071428Y-65575595D01*
X40261904Y-65623214D01*
X40357142Y-65670833D01*
X40404761Y-65718452D01*
X40452380Y-65813690D01*
X40452380Y-65908928D01*
X40404761Y-66004166D01*
X40357142Y-66051785D01*
X40261904Y-66099404D01*
X40071428Y-66147023D01*
X39833333Y-66147023D01*
X39642857Y-66099404D01*
X39547619Y-66051785D01*
X39500000Y-66004166D01*
X39452380Y-65908928D01*
X23357142Y-28716666D02*
X23404761Y-28764285D01*
X23452380Y-28907142D01*
X23452380Y-29002380D01*
X23404761Y-29145238D01*
X23309523Y-29240476D01*
X23214285Y-29288095D01*
X23023809Y-29335714D01*
X22880952Y-29335714D01*
X22690476Y-29288095D01*
X22595238Y-29240476D01*
X22500000Y-29145238D01*
X22452380Y-29002380D01*
X22452380Y-28907142D01*
X22500000Y-28764285D01*
X22547619Y-28716666D01*
X23452380Y-27764285D02*
X23452380Y-28335714D01*
X23452380Y-28050000D02*
X22452380Y-28050000D01*
X22595238Y-28145238D01*
X22690476Y-28240476D01*
X22738095Y-28335714D01*
X30904761Y-36547619D02*
X30809523Y-36500000D01*
X30714285Y-36404761D01*
X30571428Y-36261904D01*
X30476190Y-36214285D01*
X30380952Y-36214285D01*
X30428571Y-36452380D02*
X30333333Y-36404761D01*
X30238095Y-36309523D01*
X30190476Y-36119047D01*
X30190476Y-35785714D01*
X30238095Y-35595238D01*
X30333333Y-35500000D01*
X30428571Y-35452380D01*
X30619047Y-35452380D01*
X30714285Y-35500000D01*
X30809523Y-35595238D01*
X30857142Y-35785714D01*
X30857142Y-36119047D01*
X30809523Y-36309523D01*
X30714285Y-36404761D01*
X30619047Y-36452380D01*
X30428571Y-36452380D01*
X31809523Y-36452380D02*
X31238095Y-36452380D01*
X31523809Y-36452380D02*
X31523809Y-35452380D01*
X31428571Y-35595238D01*
X31333333Y-35690476D01*
X31238095Y-35738095D01*
X31940476Y-70202380D02*
X31940476Y-70916666D01*
X31892857Y-71059523D01*
X31797619Y-71154761D01*
X31654761Y-71202380D01*
X31559523Y-71202380D01*
X32940476Y-71202380D02*
X32369047Y-71202380D01*
X32654761Y-71202380D02*
X32654761Y-70202380D01*
X32559523Y-70345238D01*
X32464285Y-70440476D01*
X32369047Y-70488095D01*
X33321428Y-70297619D02*
X33369047Y-70250000D01*
X33464285Y-70202380D01*
X33702380Y-70202380D01*
X33797619Y-70250000D01*
X33845238Y-70297619D01*
X33892857Y-70392857D01*
X33892857Y-70488095D01*
X33845238Y-70630952D01*
X33273809Y-71202380D01*
X33892857Y-71202380D01*
X28833333Y-36357142D02*
X28785714Y-36404761D01*
X28642857Y-36452380D01*
X28547619Y-36452380D01*
X28404761Y-36404761D01*
X28309523Y-36309523D01*
X28261904Y-36214285D01*
X28214285Y-36023809D01*
X28214285Y-35880952D01*
X28261904Y-35690476D01*
X28309523Y-35595238D01*
X28404761Y-35500000D01*
X28547619Y-35452380D01*
X28642857Y-35452380D01*
X28785714Y-35500000D01*
X28833333Y-35547619D01*
X29214285Y-35547619D02*
X29261904Y-35500000D01*
X29357142Y-35452380D01*
X29595238Y-35452380D01*
X29690476Y-35500000D01*
X29738095Y-35547619D01*
X29785714Y-35642857D01*
X29785714Y-35738095D01*
X29738095Y-35880952D01*
X29166666Y-36452380D01*
X29785714Y-36452380D01*
X25337619Y-43238095D02*
X24528095Y-43238095D01*
X24432857Y-43285714D01*
X24385238Y-43333333D01*
X24337619Y-43428571D01*
X24337619Y-43619047D01*
X24385238Y-43714285D01*
X24432857Y-43761904D01*
X24528095Y-43809523D01*
X25337619Y-43809523D01*
X24337619Y-44809523D02*
X24337619Y-44238095D01*
X24337619Y-44523809D02*
X25337619Y-44523809D01*
X25194761Y-44428571D01*
X25099523Y-44333333D01*
X25051904Y-44238095D01*
X44738095Y-64702380D02*
X44738095Y-65511904D01*
X44785714Y-65607142D01*
X44833333Y-65654761D01*
X44928571Y-65702380D01*
X45119047Y-65702380D01*
X45214285Y-65654761D01*
X45261904Y-65607142D01*
X45309523Y-65511904D01*
X45309523Y-64702380D01*
X46214285Y-64702380D02*
X46023809Y-64702380D01*
X45928571Y-64750000D01*
X45880952Y-64797619D01*
X45785714Y-64940476D01*
X45738095Y-65130952D01*
X45738095Y-65511904D01*
X45785714Y-65607142D01*
X45833333Y-65654761D01*
X45928571Y-65702380D01*
X46119047Y-65702380D01*
X46214285Y-65654761D01*
X46261904Y-65607142D01*
X46309523Y-65511904D01*
X46309523Y-65273809D01*
X46261904Y-65178571D01*
X46214285Y-65130952D01*
X46119047Y-65083333D01*
X45928571Y-65083333D01*
X45833333Y-65130952D01*
X45785714Y-65178571D01*
X45738095Y-65273809D01*
X46261904Y-72035714D02*
X46500000Y-72702380D01*
X46738095Y-72035714D02*
X46500000Y-72702380D01*
X46404761Y-72940476D01*
X46357142Y-72988095D01*
X46261904Y-73035714D01*
X45988095Y-73535714D02*
X46511904Y-73535714D01*
X45988095Y-74202380D01*
X46511904Y-74202380D01*
X47738095Y-74202380D02*
X48261904Y-73535714D01*
X47738095Y-73535714D02*
X48261904Y-74202380D01*
X42783333Y-36357142D02*
X42735714Y-36404761D01*
X42592857Y-36452380D01*
X42497619Y-36452380D01*
X42354761Y-36404761D01*
X42259523Y-36309523D01*
X42211904Y-36214285D01*
X42164285Y-36023809D01*
X42164285Y-35880952D01*
X42211904Y-35690476D01*
X42259523Y-35595238D01*
X42354761Y-35500000D01*
X42497619Y-35452380D01*
X42592857Y-35452380D01*
X42735714Y-35500000D01*
X42783333Y-35547619D01*
X43116666Y-35452380D02*
X43783333Y-35452380D01*
X43354761Y-36452380D01*
X51357142Y-67642857D02*
X51404761Y-67690476D01*
X51452380Y-67833333D01*
X51452380Y-67928571D01*
X51404761Y-68071428D01*
X51309523Y-68166666D01*
X51214285Y-68214285D01*
X51023809Y-68261904D01*
X50880952Y-68261904D01*
X50690476Y-68214285D01*
X50595238Y-68166666D01*
X50500000Y-68071428D01*
X50452380Y-67928571D01*
X50452380Y-67833333D01*
X50500000Y-67690476D01*
X50547619Y-67642857D01*
X51452380Y-66690476D02*
X51452380Y-67261904D01*
X51452380Y-66976190D02*
X50452380Y-66976190D01*
X50595238Y-67071428D01*
X50690476Y-67166666D01*
X50738095Y-67261904D01*
X50547619Y-66309523D02*
X50500000Y-66261904D01*
X50452380Y-66166666D01*
X50452380Y-65928571D01*
X50500000Y-65833333D01*
X50547619Y-65785714D01*
X50642857Y-65738095D01*
X50738095Y-65738095D01*
X50880952Y-65785714D01*
X51452380Y-66357142D01*
X51452380Y-65738095D01*
X20666666Y-57702380D02*
X20666666Y-58416666D01*
X20619047Y-58559523D01*
X20523809Y-58654761D01*
X20380952Y-58702380D01*
X20285714Y-58702380D01*
X21285714Y-58130952D02*
X21190476Y-58083333D01*
X21142857Y-58035714D01*
X21095238Y-57940476D01*
X21095238Y-57892857D01*
X21142857Y-57797619D01*
X21190476Y-57750000D01*
X21285714Y-57702380D01*
X21476190Y-57702380D01*
X21571428Y-57750000D01*
X21619047Y-57797619D01*
X21666666Y-57892857D01*
X21666666Y-57940476D01*
X21619047Y-58035714D01*
X21571428Y-58083333D01*
X21476190Y-58130952D01*
X21285714Y-58130952D01*
X21190476Y-58178571D01*
X21142857Y-58226190D01*
X21095238Y-58321428D01*
X21095238Y-58511904D01*
X21142857Y-58607142D01*
X21190476Y-58654761D01*
X21285714Y-58702380D01*
X21476190Y-58702380D01*
X21571428Y-58654761D01*
X21619047Y-58607142D01*
X21666666Y-58511904D01*
X21666666Y-58321428D01*
X21619047Y-58226190D01*
X21571428Y-58178571D01*
X21476190Y-58130952D01*
X34238095Y-61452380D02*
X34238095Y-62261904D01*
X34285714Y-62357142D01*
X34333333Y-62404761D01*
X34428571Y-62452380D01*
X34619047Y-62452380D01*
X34714285Y-62404761D01*
X34761904Y-62357142D01*
X34809523Y-62261904D01*
X34809523Y-61452380D01*
X35190476Y-61452380D02*
X35857142Y-61452380D01*
X35428571Y-62452380D01*
X36202380Y-72392857D02*
X35726190Y-72726190D01*
X36202380Y-72964285D02*
X35202380Y-72964285D01*
X35202380Y-72583333D01*
X35250000Y-72488095D01*
X35297619Y-72440476D01*
X35392857Y-72392857D01*
X35535714Y-72392857D01*
X35630952Y-72440476D01*
X35678571Y-72488095D01*
X35726190Y-72583333D01*
X35726190Y-72964285D01*
X36202380Y-71440476D02*
X36202380Y-72011904D01*
X36202380Y-71726190D02*
X35202380Y-71726190D01*
X35345238Y-71821428D01*
X35440476Y-71916666D01*
X35488095Y-72011904D01*
X35297619Y-71059523D02*
X35250000Y-71011904D01*
X35202380Y-70916666D01*
X35202380Y-70678571D01*
X35250000Y-70583333D01*
X35297619Y-70535714D01*
X35392857Y-70488095D01*
X35488095Y-70488095D01*
X35630952Y-70535714D01*
X36202380Y-71107142D01*
X36202380Y-70488095D01*
X46833333Y-59452380D02*
X46500000Y-58976190D01*
X46261904Y-59452380D02*
X46261904Y-58452380D01*
X46642857Y-58452380D01*
X46738095Y-58500000D01*
X46785714Y-58547619D01*
X46833333Y-58642857D01*
X46833333Y-58785714D01*
X46785714Y-58880952D01*
X46738095Y-58928571D01*
X46642857Y-58976190D01*
X46261904Y-58976190D01*
X47166666Y-58452380D02*
X47833333Y-58452380D01*
X47404761Y-59452380D01*
X44738095Y-34952380D02*
X44738095Y-35761904D01*
X44785714Y-35857142D01*
X44833333Y-35904761D01*
X44928571Y-35952380D01*
X45119047Y-35952380D01*
X45214285Y-35904761D01*
X45261904Y-35857142D01*
X45309523Y-35761904D01*
X45309523Y-34952380D01*
X46261904Y-34952380D02*
X45785714Y-34952380D01*
X45738095Y-35428571D01*
X45785714Y-35380952D01*
X45880952Y-35333333D01*
X46119047Y-35333333D01*
X46214285Y-35380952D01*
X46261904Y-35428571D01*
X46309523Y-35523809D01*
X46309523Y-35761904D01*
X46261904Y-35857142D01*
X46214285Y-35904761D01*
X46119047Y-35952380D01*
X45880952Y-35952380D01*
X45785714Y-35904761D01*
X45738095Y-35857142D01*
X40452380Y-71254166D02*
X39976190Y-71587500D01*
X40452380Y-71825595D02*
X39452380Y-71825595D01*
X39452380Y-71444642D01*
X39500000Y-71349404D01*
X39547619Y-71301785D01*
X39642857Y-71254166D01*
X39785714Y-71254166D01*
X39880952Y-71301785D01*
X39928571Y-71349404D01*
X39976190Y-71444642D01*
X39976190Y-71825595D01*
X40452380Y-70777976D02*
X40452380Y-70587500D01*
X40404761Y-70492261D01*
X40357142Y-70444642D01*
X40214285Y-70349404D01*
X40023809Y-70301785D01*
X39642857Y-70301785D01*
X39547619Y-70349404D01*
X39500000Y-70397023D01*
X39452380Y-70492261D01*
X39452380Y-70682738D01*
X39500000Y-70777976D01*
X39547619Y-70825595D01*
X39642857Y-70873214D01*
X39880952Y-70873214D01*
X39976190Y-70825595D01*
X40023809Y-70777976D01*
X40071428Y-70682738D01*
X40071428Y-70492261D01*
X40023809Y-70397023D01*
X39976190Y-70349404D01*
X39880952Y-70301785D01*
X25952380Y-31754166D02*
X25952380Y-32230357D01*
X24952380Y-32230357D01*
X25952380Y-30897023D02*
X25952380Y-31468452D01*
X25952380Y-31182738D02*
X24952380Y-31182738D01*
X25095238Y-31277976D01*
X25190476Y-31373214D01*
X25238095Y-31468452D01*
X32838095Y-68202380D02*
X32838095Y-69011904D01*
X32885714Y-69107142D01*
X32933333Y-69154761D01*
X33028571Y-69202380D01*
X33219047Y-69202380D01*
X33314285Y-69154761D01*
X33361904Y-69107142D01*
X33409523Y-69011904D01*
X33409523Y-68202380D01*
X34028571Y-68630952D02*
X33933333Y-68583333D01*
X33885714Y-68535714D01*
X33838095Y-68440476D01*
X33838095Y-68392857D01*
X33885714Y-68297619D01*
X33933333Y-68250000D01*
X34028571Y-68202380D01*
X34219047Y-68202380D01*
X34314285Y-68250000D01*
X34361904Y-68297619D01*
X34409523Y-68392857D01*
X34409523Y-68440476D01*
X34361904Y-68535714D01*
X34314285Y-68583333D01*
X34219047Y-68630952D01*
X34028571Y-68630952D01*
X33933333Y-68678571D01*
X33885714Y-68726190D01*
X33838095Y-68821428D01*
X33838095Y-69011904D01*
X33885714Y-69107142D01*
X33933333Y-69154761D01*
X34028571Y-69202380D01*
X34219047Y-69202380D01*
X34314285Y-69154761D01*
X34361904Y-69107142D01*
X34409523Y-69011904D01*
X34409523Y-68821428D01*
X34361904Y-68726190D01*
X34314285Y-68678571D01*
X34219047Y-68630952D01*
X31452380Y-66559523D02*
X32166666Y-66559523D01*
X32309523Y-66607142D01*
X32404761Y-66702380D01*
X32452380Y-66845238D01*
X32452380Y-66940476D01*
X32452380Y-65559523D02*
X32452380Y-66130952D01*
X32452380Y-65845238D02*
X31452380Y-65845238D01*
X31595238Y-65940476D01*
X31690476Y-66035714D01*
X31738095Y-66130952D01*
X32452380Y-64607142D02*
X32452380Y-65178571D01*
X32452380Y-64892857D02*
X31452380Y-64892857D01*
X31595238Y-64988095D01*
X31690476Y-65083333D01*
X31738095Y-65178571D01*
X36107142Y-59642857D02*
X36154761Y-59690476D01*
X36202380Y-59833333D01*
X36202380Y-59928571D01*
X36154761Y-60071428D01*
X36059523Y-60166666D01*
X35964285Y-60214285D01*
X35773809Y-60261904D01*
X35630952Y-60261904D01*
X35440476Y-60214285D01*
X35345238Y-60166666D01*
X35250000Y-60071428D01*
X35202380Y-59928571D01*
X35202380Y-59833333D01*
X35250000Y-59690476D01*
X35297619Y-59642857D01*
X36202380Y-58690476D02*
X36202380Y-59261904D01*
X36202380Y-58976190D02*
X35202380Y-58976190D01*
X35345238Y-59071428D01*
X35440476Y-59166666D01*
X35488095Y-59261904D01*
X35630952Y-58119047D02*
X35583333Y-58214285D01*
X35535714Y-58261904D01*
X35440476Y-58309523D01*
X35392857Y-58309523D01*
X35297619Y-58261904D01*
X35250000Y-58214285D01*
X35202380Y-58119047D01*
X35202380Y-57928571D01*
X35250000Y-57833333D01*
X35297619Y-57785714D01*
X35392857Y-57738095D01*
X35440476Y-57738095D01*
X35535714Y-57785714D01*
X35583333Y-57833333D01*
X35630952Y-57928571D01*
X35630952Y-58119047D01*
X35678571Y-58214285D01*
X35726190Y-58261904D01*
X35821428Y-58309523D01*
X36011904Y-58309523D01*
X36107142Y-58261904D01*
X36154761Y-58214285D01*
X36202380Y-58119047D01*
X36202380Y-57928571D01*
X36154761Y-57833333D01*
X36107142Y-57785714D01*
X36011904Y-57738095D01*
X35821428Y-57738095D01*
X35726190Y-57785714D01*
X35678571Y-57833333D01*
X35630952Y-57928571D01*
D11*
X31235000Y-37860436D02*
X31235000Y-38314564D01*
X29765000Y-37860436D02*
X29765000Y-38314564D01*
X46765000Y-34438748D02*
X46765000Y-34961252D01*
X48235000Y-34438748D02*
X48235000Y-34961252D01*
X48188748Y-29735000D02*
X48711252Y-29735000D01*
X48188748Y-28265000D02*
X48711252Y-28265000D01*
X32000000Y-46640000D02*
X32000000Y-47250000D01*
X32600000Y-50250000D02*
X32600000Y-50750000D01*
X30050000Y-50750000D02*
X34950000Y-50750000D01*
X32000000Y-47250000D02*
X30050000Y-47250000D01*
X31200000Y-46640000D02*
X31200000Y-46440000D01*
X29440000Y-49250000D02*
X30050000Y-49250000D01*
X33000000Y-47250000D02*
X33000000Y-46640000D01*
X35560000Y-51360000D02*
X35560000Y-46640000D01*
X29440000Y-51360000D02*
X35560000Y-51360000D01*
X34950000Y-47250000D02*
X33000000Y-47250000D01*
X31200000Y-46540000D02*
X30900000Y-46540000D01*
X32400000Y-50750000D02*
X32400000Y-50250000D01*
X29440000Y-46640000D02*
X29440000Y-51360000D01*
X30050000Y-47250000D02*
X30050000Y-50750000D01*
X35560000Y-49250000D02*
X34950000Y-49250000D01*
X35560000Y-46640000D02*
X29440000Y-46640000D01*
X30900000Y-46440000D02*
X30900000Y-46640000D01*
X35560000Y-47950000D02*
X34950000Y-47950000D01*
X31200000Y-46440000D02*
X30900000Y-46440000D01*
X29140000Y-46340000D02*
X29140000Y-47590000D01*
X32500000Y-50750000D02*
X32500000Y-50250000D01*
X29440000Y-47950000D02*
X30050000Y-47950000D01*
X34950000Y-50750000D02*
X34950000Y-47250000D01*
X30390000Y-46340000D02*
X29140000Y-46340000D01*
X32400000Y-50250000D02*
X32600000Y-50250000D01*
X55000000Y-35500000D02*
X54500000Y-35500000D01*
X55000000Y-35600000D02*
X54500000Y-35600000D01*
X51500000Y-33050000D02*
X51500000Y-35000000D01*
X51500000Y-36000000D02*
X51500000Y-37950000D01*
X50690000Y-37100000D02*
X50890000Y-37100000D01*
X50890000Y-36000000D02*
X51500000Y-36000000D01*
X52200000Y-32440000D02*
X52200000Y-33050000D01*
X52200000Y-38560000D02*
X52200000Y-37950000D01*
X50590000Y-37610000D02*
X50590000Y-38860000D01*
X50890000Y-38560000D02*
X55610000Y-38560000D01*
X55610000Y-32440000D02*
X50890000Y-32440000D01*
X55000000Y-33050000D02*
X51500000Y-33050000D01*
X50890000Y-36800000D02*
X50690000Y-36800000D01*
X50890000Y-32440000D02*
X50890000Y-38560000D01*
X51500000Y-35000000D02*
X50890000Y-35000000D01*
X53500000Y-32440000D02*
X53500000Y-33050000D01*
X51500000Y-37950000D02*
X55000000Y-37950000D01*
X54500000Y-35400000D02*
X55000000Y-35400000D01*
X53500000Y-38560000D02*
X53500000Y-37950000D01*
X55000000Y-37950000D02*
X55000000Y-33050000D01*
X54500000Y-35600000D02*
X54500000Y-35400000D01*
X50690000Y-36800000D02*
X50690000Y-37100000D01*
X50790000Y-36800000D02*
X50790000Y-37100000D01*
X55610000Y-38560000D02*
X55610000Y-32440000D01*
X50590000Y-38860000D02*
X51840000Y-38860000D01*
X44985000Y-72038748D02*
X44985000Y-72561252D01*
X43515000Y-72038748D02*
X43515000Y-72561252D01*
X50235000Y-70288748D02*
X50235000Y-70811252D01*
X48765000Y-70288748D02*
X48765000Y-70811252D01*
X43500000Y-20390000D02*
X43500000Y-24750000D01*
X44860000Y-26610000D02*
X44860000Y-27825000D01*
X39700000Y-24250000D02*
X38700000Y-24250000D01*
X44300000Y-22650000D02*
X44300000Y-24250000D01*
X46060000Y-20390000D02*
X37940000Y-20390000D01*
X38700000Y-22650000D02*
X39700000Y-22650000D01*
X37940000Y-20390000D02*
X37940000Y-28210000D01*
X37940000Y-26610000D02*
X38860000Y-26610000D01*
X45140000Y-28210000D02*
X46060000Y-28210000D01*
X44860000Y-26610000D02*
X45140000Y-26610000D01*
X44300000Y-22650000D02*
X44300000Y-20390000D01*
X38700000Y-24250000D02*
X38700000Y-22650000D01*
X39700000Y-22650000D02*
X39700000Y-24250000D01*
X37940000Y-28210000D02*
X38860000Y-28210000D01*
X43500000Y-24750000D02*
X40500000Y-24750000D01*
X45300000Y-22650000D02*
X44300000Y-22650000D01*
X44800000Y-22650000D02*
X44800000Y-20390000D01*
X45140000Y-26610000D02*
X45140000Y-28210000D01*
X46060000Y-26610000D02*
X45140000Y-26610000D01*
X40500000Y-24750000D02*
X40500000Y-20390000D01*
X38860000Y-26610000D02*
X39140000Y-26610000D01*
X44300000Y-24250000D02*
X45300000Y-24250000D01*
X38860000Y-28210000D02*
X38860000Y-26610000D01*
X45300000Y-24250000D02*
X45300000Y-22650000D01*
X46060000Y-28210000D02*
X46060000Y-20390000D01*
X29765000Y-41438748D02*
X29765000Y-41961252D01*
X31235000Y-41438748D02*
X31235000Y-41961252D01*
X35735000Y-40360436D02*
X35735000Y-40814564D01*
X34265000Y-40360436D02*
X34265000Y-40814564D01*
X32500000Y-56500000D02*
X32500000Y-56000000D01*
X27440000Y-57110000D02*
X35560000Y-57110000D01*
X30400000Y-56500000D02*
X30400000Y-56000000D01*
X30000000Y-53000000D02*
X28050000Y-53000000D01*
X27440000Y-52390000D02*
X27440000Y-57110000D01*
X30400000Y-56000000D02*
X30600000Y-56000000D01*
X35560000Y-55000000D02*
X34950000Y-55000000D01*
X30500000Y-56500000D02*
X30500000Y-56000000D01*
X28900000Y-52190000D02*
X28900000Y-52390000D01*
X34950000Y-53000000D02*
X33000000Y-53000000D01*
X29200000Y-52190000D02*
X28900000Y-52190000D01*
X30600000Y-56000000D02*
X30600000Y-56500000D01*
X29200000Y-52290000D02*
X28900000Y-52290000D01*
X35560000Y-52390000D02*
X27440000Y-52390000D01*
X28050000Y-53000000D02*
X28050000Y-56500000D01*
X27440000Y-55000000D02*
X28050000Y-55000000D01*
X32400000Y-56000000D02*
X32600000Y-56000000D01*
X29200000Y-52390000D02*
X29200000Y-52190000D01*
X30000000Y-52390000D02*
X30000000Y-53000000D01*
X28050000Y-56500000D02*
X34950000Y-56500000D01*
X32400000Y-56500000D02*
X32400000Y-56000000D01*
X32600000Y-56000000D02*
X32600000Y-56500000D01*
X35560000Y-57110000D02*
X35560000Y-52390000D01*
X27140000Y-52090000D02*
X27140000Y-53340000D01*
X33000000Y-53000000D02*
X33000000Y-52390000D01*
X27440000Y-53700000D02*
X28050000Y-53700000D01*
X28390000Y-52090000D02*
X27140000Y-52090000D01*
X35560000Y-53700000D02*
X34950000Y-53700000D01*
X34950000Y-56500000D02*
X34950000Y-53000000D01*
X33564564Y-75485000D02*
X33110436Y-75485000D01*
X33564564Y-74015000D02*
X33110436Y-74015000D01*
X49185436Y-62235000D02*
X49639564Y-62235000D01*
X49185436Y-60765000D02*
X49639564Y-60765000D01*
X48188748Y-30765000D02*
X48711252Y-30765000D01*
X48188748Y-32235000D02*
X48711252Y-32235000D01*
D12*
X36500000Y-34000000D02*
X36500000Y-27500000D01*
X29500000Y-20500000D02*
X29500000Y-27500000D01*
X29500000Y-27500000D02*
X28500000Y-27500000D01*
X36500000Y-27500000D02*
X35500000Y-27500000D01*
X35500000Y-27500000D02*
X35500000Y-20500000D01*
X35500000Y-20500000D02*
X29500000Y-20500000D01*
X28500000Y-34000000D02*
X36500000Y-34000000D01*
X28500000Y-27500000D02*
X28500000Y-34000000D01*
D11*
X25950000Y-53000000D02*
X24000000Y-53000000D01*
X20140000Y-52090000D02*
X20140000Y-53340000D01*
X23000000Y-53000000D02*
X21050000Y-53000000D01*
X26560000Y-55000000D02*
X25950000Y-55000000D01*
X22200000Y-52290000D02*
X21900000Y-52290000D01*
X23400000Y-56500000D02*
X23400000Y-56000000D01*
X23400000Y-56000000D02*
X23600000Y-56000000D01*
X20440000Y-57110000D02*
X26560000Y-57110000D01*
X21900000Y-52190000D02*
X21900000Y-52390000D01*
X21050000Y-56500000D02*
X25950000Y-56500000D01*
X24000000Y-53000000D02*
X24000000Y-52390000D01*
X23500000Y-56500000D02*
X23500000Y-56000000D01*
X21390000Y-52090000D02*
X20140000Y-52090000D01*
X21050000Y-53000000D02*
X21050000Y-56500000D01*
X22200000Y-52390000D02*
X22200000Y-52190000D01*
X20440000Y-55000000D02*
X21050000Y-55000000D01*
X26560000Y-52390000D02*
X20440000Y-52390000D01*
X23000000Y-52390000D02*
X23000000Y-53000000D01*
X23600000Y-56000000D02*
X23600000Y-56500000D01*
X26560000Y-53700000D02*
X25950000Y-53700000D01*
X20440000Y-52390000D02*
X20440000Y-57110000D01*
X20440000Y-53700000D02*
X21050000Y-53700000D01*
X25950000Y-56500000D02*
X25950000Y-53000000D01*
X22200000Y-52190000D02*
X21900000Y-52190000D01*
X26560000Y-57110000D02*
X26560000Y-52390000D01*
X48040000Y-41770000D02*
X42960000Y-41770000D01*
X36610000Y-39230000D02*
X54390000Y-39230000D01*
X48040000Y-39230000D02*
X48040000Y-41770000D01*
X42960000Y-41770000D02*
X42960000Y-39230000D01*
X54390000Y-74790000D02*
X36610000Y-74790000D01*
X54390000Y-39230000D02*
X54390000Y-74790000D01*
X36610000Y-74790000D02*
X36610000Y-39230000D01*
X50235000Y-34961252D02*
X50235000Y-34438748D01*
X48765000Y-34961252D02*
X48765000Y-34438748D01*
X33938748Y-65265000D02*
X34461252Y-65265000D01*
X33938748Y-66735000D02*
X34461252Y-66735000D01*
X34000000Y-42940000D02*
X34650000Y-42940000D01*
X34000000Y-46060000D02*
X33350000Y-46060000D01*
X34000000Y-46060000D02*
X35675000Y-46060000D01*
X34000000Y-42940000D02*
X33350000Y-42940000D01*
X42235000Y-67064564D02*
X42235000Y-66610436D01*
X40765000Y-67064564D02*
X40765000Y-66610436D01*
X20765000Y-28811252D02*
X20765000Y-28288748D01*
X22235000Y-28811252D02*
X22235000Y-28288748D01*
X34000000Y-38560000D02*
X33350000Y-38560000D01*
X34000000Y-38560000D02*
X34650000Y-38560000D01*
X34000000Y-35440000D02*
X34650000Y-35440000D01*
X34000000Y-35440000D02*
X32325000Y-35440000D01*
X20250000Y-75500000D02*
X31250000Y-75500000D01*
X20750000Y-75000000D02*
X30750000Y-75000000D01*
X20750000Y-71000000D02*
X20750000Y-71500000D01*
X20750000Y-71500000D02*
X20250000Y-71500000D01*
X20250000Y-73000000D02*
X20750000Y-73000000D01*
X30750000Y-71500000D02*
X30750000Y-71000000D01*
X30750000Y-71000000D02*
X20750000Y-71000000D01*
X31250000Y-75500000D02*
X31250000Y-73000000D01*
X20250000Y-75500000D02*
X20250000Y-73000000D01*
X20250000Y-70500000D02*
X31250000Y-70500000D01*
X20750000Y-73000000D02*
X20750000Y-75000000D01*
X30750000Y-75000000D02*
X30750000Y-73000000D01*
X31250000Y-71500000D02*
X30750000Y-71500000D01*
X31250000Y-70500000D02*
X31250000Y-71500000D01*
X20250000Y-71500000D02*
X20250000Y-70500000D01*
X30750000Y-73000000D02*
X31250000Y-73000000D01*
X26288748Y-35765000D02*
X26811252Y-35765000D01*
X26288748Y-37235000D02*
X26811252Y-37235000D01*
X28750000Y-38000000D02*
X28750000Y-50000000D01*
X20250000Y-38000000D02*
X20250000Y-50000000D01*
X28750000Y-50000000D02*
X20250000Y-50000000D01*
X20250000Y-38000000D02*
X28750000Y-38000000D01*
X47000000Y-71250000D02*
X46500000Y-71750000D01*
X47000000Y-69500000D02*
X44000000Y-69500000D01*
X49000000Y-73250000D02*
X48500000Y-72750000D01*
X47000000Y-71250000D02*
X47500000Y-71750000D01*
X47000000Y-73250000D02*
X49000000Y-73250000D01*
X47000000Y-73250000D02*
X47000000Y-71250000D01*
X49000000Y-73250000D02*
X48500000Y-73750000D01*
X44000000Y-69500000D02*
X44000000Y-67000000D01*
X47000000Y-73250000D02*
X46750000Y-73500000D01*
X44000000Y-67000000D02*
X47000000Y-67000000D01*
X47000000Y-67000000D02*
X47000000Y-69500000D01*
D13*
X47206776Y-73250000D02*
G75*
G03*
X47206776Y-73250000I-206776J0D01*
G01*
D11*
X40188748Y-35265000D02*
X40711252Y-35265000D01*
X40188748Y-36735000D02*
X40711252Y-36735000D01*
X50235000Y-67211252D02*
X50235000Y-66688748D01*
X48765000Y-67211252D02*
X48765000Y-66688748D01*
X20250000Y-64000000D02*
X31250000Y-64000000D01*
X30750000Y-60000000D02*
X30750000Y-59500000D01*
X20750000Y-60000000D02*
X20250000Y-60000000D01*
X31250000Y-60000000D02*
X30750000Y-60000000D01*
X20250000Y-60000000D02*
X20250000Y-59000000D01*
X20750000Y-59500000D02*
X20750000Y-60000000D01*
X31250000Y-59000000D02*
X31250000Y-60000000D01*
X30750000Y-59500000D02*
X20750000Y-59500000D01*
X30750000Y-61500000D02*
X31250000Y-61500000D01*
X20250000Y-59000000D02*
X31250000Y-59000000D01*
X20750000Y-63500000D02*
X30750000Y-63500000D01*
X20250000Y-64000000D02*
X20250000Y-61500000D01*
X20750000Y-61500000D02*
X20750000Y-63500000D01*
X30750000Y-63500000D02*
X30750000Y-61500000D01*
X31250000Y-64000000D02*
X31250000Y-61500000D01*
X20250000Y-61500000D02*
X20750000Y-61500000D01*
X33750000Y-60440000D02*
X34550000Y-60440000D01*
X33750000Y-63560000D02*
X34550000Y-63560000D01*
X33750000Y-60440000D02*
X31950000Y-60440000D01*
X33750000Y-63560000D02*
X32950000Y-63560000D01*
X33110436Y-71765000D02*
X33564564Y-71765000D01*
X33110436Y-73235000D02*
X33564564Y-73235000D01*
X49185436Y-59735000D02*
X49639564Y-59735000D01*
X49185436Y-58265000D02*
X49639564Y-58265000D01*
X42500000Y-34735000D02*
X40300000Y-34735000D01*
X42500000Y-29265000D02*
X44700000Y-29265000D01*
X42500000Y-29265000D02*
X40300000Y-29265000D01*
X42500000Y-34735000D02*
X46100000Y-34735000D01*
X42235000Y-71314564D02*
X42235000Y-70860436D01*
X40765000Y-71314564D02*
X40765000Y-70860436D01*
X20790000Y-32251248D02*
X20790000Y-35023752D01*
X24210000Y-32251248D02*
X24210000Y-35023752D01*
X34850000Y-69850000D02*
X32650000Y-69850000D01*
X34850000Y-67650000D02*
X31850000Y-67650000D01*
X20750000Y-67250000D02*
X20750000Y-69250000D01*
X30750000Y-69250000D02*
X30750000Y-67250000D01*
X30750000Y-65250000D02*
X20750000Y-65250000D01*
X20750000Y-65250000D02*
X20750000Y-65750000D01*
X20250000Y-65750000D02*
X20250000Y-64750000D01*
X20750000Y-69250000D02*
X30750000Y-69250000D01*
X20250000Y-67250000D02*
X20750000Y-67250000D01*
X31250000Y-65750000D02*
X30750000Y-65750000D01*
X30750000Y-65750000D02*
X30750000Y-65250000D01*
X20250000Y-64750000D02*
X31250000Y-64750000D01*
X20250000Y-69750000D02*
X20250000Y-67250000D01*
X20250000Y-69750000D02*
X31250000Y-69750000D01*
X31250000Y-64750000D02*
X31250000Y-65750000D01*
X20750000Y-65750000D02*
X20250000Y-65750000D01*
X30750000Y-67250000D02*
X31250000Y-67250000D01*
X31250000Y-69750000D02*
X31250000Y-67250000D01*
X33761252Y-58265000D02*
X33238748Y-58265000D01*
X33761252Y-59735000D02*
X33238748Y-59735000D01*
%LPC*%
D14*
X41000000Y-46500000D03*
X41000000Y-44500000D03*
D15*
X41000000Y-42500000D03*
D16*
X30500000Y-37175000D03*
X30500000Y-39000000D03*
D17*
X47500000Y-33750000D03*
X47500000Y-35650000D03*
D18*
X24500000Y-24000000D03*
D19*
X47500000Y-29000000D03*
X49400000Y-29000000D03*
D20*
X31500000Y-48450000D03*
D21*
X33500000Y-48450000D03*
D18*
X51500000Y-24000000D03*
D22*
X52700000Y-36500000D03*
D14*
X52700000Y-34500000D03*
D17*
X44250000Y-71350000D03*
X44250000Y-73250000D03*
X49500000Y-69600000D03*
X49500000Y-71500000D03*
D23*
X44000000Y-26750000D03*
D21*
X42000000Y-26750000D03*
X40000000Y-26750000D03*
D17*
X30500000Y-40750000D03*
X30500000Y-42650000D03*
D16*
X35000000Y-39675000D03*
X35000000Y-41500000D03*
D20*
X29500000Y-54200000D03*
D21*
X31500000Y-54200000D03*
X33500000Y-54200000D03*
D24*
X34250000Y-74750000D03*
X32425000Y-74750000D03*
D25*
X48500000Y-61500000D03*
X50325000Y-61500000D03*
D19*
X47500000Y-31500000D03*
X49400000Y-31500000D03*
D26*
X31900000Y-25150000D03*
D27*
X32500000Y-30750000D03*
D20*
X22500000Y-54200000D03*
D21*
X24500000Y-54200000D03*
D28*
X37880000Y-43040000D03*
X37880000Y-45580000D03*
X37880000Y-48120000D03*
X37880000Y-50660000D03*
X53120000Y-45580000D03*
X37880000Y-53200000D03*
X37880000Y-55740000D03*
X37880000Y-58280000D03*
X37880000Y-60820000D03*
X37880000Y-63360000D03*
X37880000Y-65900000D03*
X37880000Y-68440000D03*
X37880000Y-70980000D03*
X37880000Y-73520000D03*
X53120000Y-73520000D03*
X53120000Y-70980000D03*
X53120000Y-68440000D03*
X53120000Y-65900000D03*
X53120000Y-63360000D03*
X53120000Y-60820000D03*
X53120000Y-58280000D03*
X53120000Y-55740000D03*
X53120000Y-53200000D03*
X53120000Y-50660000D03*
X53120000Y-48120000D03*
X37880000Y-40500000D03*
X53120000Y-43040000D03*
X53120000Y-40500000D03*
D29*
X49500000Y-35650000D03*
X49500000Y-33750000D03*
D19*
X33250000Y-66000000D03*
X35150000Y-66000000D03*
D30*
X34937500Y-45450000D03*
X34937500Y-43550000D03*
X33062500Y-44500000D03*
D31*
X41500000Y-67750000D03*
X41500000Y-65925000D03*
D29*
X21500000Y-29500000D03*
X21500000Y-27600000D03*
D32*
X33062500Y-36050000D03*
X33062500Y-37950000D03*
X34937500Y-37000000D03*
D33*
X28250000Y-73000000D03*
D34*
X25750000Y-73000000D03*
X23250000Y-73000000D03*
D19*
X25600000Y-36500000D03*
X27500000Y-36500000D03*
D34*
X22250000Y-41460000D03*
X22250000Y-44000000D03*
X22250000Y-46540000D03*
D35*
X43825000Y-67500000D03*
X43825000Y-69000000D03*
D36*
X45000000Y-69675000D03*
D35*
X47175000Y-67500000D03*
X47175000Y-68000000D03*
X43825000Y-68500000D03*
X43825000Y-68000000D03*
D36*
X46000000Y-69675000D03*
X45500000Y-69675000D03*
D35*
X47175000Y-69000000D03*
X47175000Y-68500000D03*
D36*
X46000000Y-66825000D03*
X45500000Y-66825000D03*
X45000000Y-66825000D03*
D19*
X39500000Y-36000000D03*
X41400000Y-36000000D03*
D29*
X49500000Y-67900000D03*
X49500000Y-66000000D03*
D33*
X28250000Y-61500000D03*
D34*
X25750000Y-61500000D03*
X23250000Y-61500000D03*
D37*
X32612500Y-61050000D03*
X32612500Y-62000000D03*
X32612500Y-62950000D03*
X34887500Y-62950000D03*
X34887500Y-61050000D03*
D25*
X32425000Y-72500000D03*
X34250000Y-72500000D03*
X48500000Y-59000000D03*
X50325000Y-59000000D03*
D38*
X45362500Y-34275000D03*
X45362500Y-33625000D03*
X45362500Y-32975000D03*
X45362500Y-32325000D03*
X45362500Y-31675000D03*
X45362500Y-31025000D03*
X45362500Y-30375000D03*
X45362500Y-29725000D03*
X39637500Y-29725000D03*
X39637500Y-30375000D03*
X39637500Y-31025000D03*
X39637500Y-31675000D03*
X39637500Y-32325000D03*
X39637500Y-32975000D03*
X39637500Y-33625000D03*
X39637500Y-34275000D03*
D31*
X41500000Y-72000000D03*
X41500000Y-70175000D03*
D39*
X22500000Y-31500000D03*
X22500000Y-35775000D03*
D40*
X32200000Y-68000000D03*
X32200000Y-68500000D03*
X32200000Y-69000000D03*
X32200000Y-69500000D03*
X35300000Y-69500000D03*
X35300000Y-69000000D03*
X35300000Y-68500000D03*
X35300000Y-68000000D03*
D33*
X28250000Y-67250000D03*
D34*
X25750000Y-67250000D03*
X23250000Y-67250000D03*
D41*
X34450000Y-59000000D03*
X32550000Y-59000000D03*
M02*
