M48
; DRILL file {KiCad 6.0.9-8da3e8f707~116~ubuntu20.04.1} date lun 21 nov 2022 15:42:09
; FORMAT={-:-/ absolute / metric / decimal}
; #@! TF.CreationDate,2022-11-21T15:42:09-05:00
; #@! TF.GenerationSoftware,Kicad,Pcbnew,6.0.9-8da3e8f707~116~ubuntu20.04.1
; #@! TF.FileFunction,Plated,1,4,PTH
FMAT,2
METRIC
; #@! TA.AperFunction,Plated,PTH,ViaDrill
T1C0.330
; #@! TA.AperFunction,Plated,PTH,ViaDrill
T2C0.381
; #@! TA.AperFunction,Plated,PTH,ComponentDrill
T3C0.650
; #@! TA.AperFunction,Plated,PTH,ComponentDrill
T4C0.750
; #@! TA.AperFunction,Plated,PTH,ComponentDrill
T5C0.900
; #@! TA.AperFunction,Plated,PTH,ComponentDrill
T6C1.000
; #@! TA.AperFunction,Plated,PTH,ComponentDrill
T7C2.000
%
G90
G05
T1
X32.0Y-42.5
X33.0Y-60.0
X33.75Y-62.0
X34.0Y-69.5
X35.0Y-46.5
X35.5Y-59.0
X37.864Y-33.218
X41.0Y-31.75
X41.4Y-33.15
X41.4Y-34.1
X41.5Y-65.0
X41.5Y-73.0
X42.258Y-68.992
X46.5Y-65.25
X47.0Y-42.5
X47.25Y-59.0
X47.25Y-61.5
X48.25Y-66.75
T2
X21.5Y-26.5
X22.5Y-27.5
X24.5Y-28.0
X25.5Y-28.0
X26.5Y-28.0
X27.5Y-27.0
X27.5Y-28.0
X28.0Y-38.0
X28.0Y-39.0
X28.5Y-22.0
X28.5Y-23.0
X28.5Y-24.0
X28.5Y-25.0
X28.5Y-26.0
X28.5Y-27.0
X28.5Y-28.0
X28.5Y-50.25
X32.25Y-48.0
X32.251Y-70.944
X32.5Y-63.75
X35.25Y-64.75
X36.25Y-37.0
X37.25Y-37.0
X38.5Y-36.0
X45.5Y-72.0
X45.75Y-73.25
X46.25Y-35.5
X46.5Y-71.0
X47.0Y-56.75
X48.5Y-69.5
X49.25Y-27.75
X50.0Y-65.0
X50.0Y-72.5
X50.5Y-51.0
X51.25Y-57.0
X51.25Y-69.75
T3
X42.25Y-44.25
X42.25Y-45.52
X42.25Y-46.79
T4
X40.0Y-26.75
X42.0Y-26.75
X44.0Y-26.75
X52.7Y-34.5
X52.7Y-36.5
T5
X22.25Y-41.46
X22.25Y-44.0
X22.25Y-46.54
X23.25Y-61.5
X23.25Y-67.25
X23.25Y-73.0
X25.75Y-61.5
X25.75Y-67.25
X25.75Y-73.0
X28.25Y-61.5
X28.25Y-67.25
X28.25Y-73.0
T6
X37.88Y-40.5
X37.88Y-43.04
X37.88Y-45.58
X37.88Y-48.12
X37.88Y-50.66
X37.88Y-53.2
X37.88Y-55.74
X37.88Y-58.28
X37.88Y-60.82
X37.88Y-63.36
X37.88Y-65.9
X37.88Y-68.44
X37.88Y-70.98
X37.88Y-73.52
X53.12Y-40.5
X53.12Y-43.04
X53.12Y-45.58
X53.12Y-48.12
X53.12Y-50.66
X53.12Y-53.2
X53.12Y-55.74
X53.12Y-58.28
X53.12Y-60.82
X53.12Y-63.36
X53.12Y-65.9
X53.12Y-68.44
X53.12Y-70.98
X53.12Y-73.52
T7
X31.9Y-26.65G85X31.9Y-23.65
G05
X34.0Y-30.75G85X31.0Y-30.75
G05
T0
M30
