G04 #@! TF.GenerationSoftware,KiCad,Pcbnew,6.0.9-8da3e8f707~116~ubuntu20.04.1*
G04 #@! TF.CreationDate,2022-11-09T10:50:01-05:00*
G04 #@! TF.ProjectId,dynamixel_control,64796e61-6d69-4786-956c-5f636f6e7472,rev?*
G04 #@! TF.SameCoordinates,Original*
G04 #@! TF.FileFunction,Copper,L4,Bot*
G04 #@! TF.FilePolarity,Positive*
%FSLAX46Y46*%
G04 Gerber Fmt 4.6, Leading zero omitted, Abs format (unit mm)*
G04 Created by KiCad (PCBNEW 6.0.9-8da3e8f707~116~ubuntu20.04.1) date 2022-11-09 10:50:01*
%MOMM*%
%LPD*%
G01*
G04 APERTURE LIST*
G04 Aperture macros list*
%AMRoundRect*
0 Rectangle with rounded corners*
0 $1 Rounding radius*
0 $2 $3 $4 $5 $6 $7 $8 $9 X,Y pos of 4 corners*
0 Add a 4 corners polygon primitive as box body*
4,1,4,$2,$3,$4,$5,$6,$7,$8,$9,$2,$3,0*
0 Add four circle primitives for the rounded corners*
1,1,$1+$1,$2,$3*
1,1,$1+$1,$4,$5*
1,1,$1+$1,$6,$7*
1,1,$1+$1,$8,$9*
0 Add four rect primitives between the rounded corners*
20,1,$1+$1,$2,$3,$4,$5,0*
20,1,$1+$1,$4,$5,$6,$7,0*
20,1,$1+$1,$6,$7,$8,$9,0*
20,1,$1+$1,$8,$9,$2,$3,0*%
G04 Aperture macros list end*
G04 #@! TA.AperFunction,ComponentPad*
%ADD10RoundRect,0.250000X-0.350000X-0.625000X0.350000X-0.625000X0.350000X0.625000X-0.350000X0.625000X0*%
G04 #@! TD*
G04 #@! TA.AperFunction,ComponentPad*
%ADD11O,1.200000X1.750000*%
G04 #@! TD*
G04 #@! TA.AperFunction,ComponentPad*
%ADD12RoundRect,0.250000X0.625000X-0.350000X0.625000X0.350000X-0.625000X0.350000X-0.625000X-0.350000X0*%
G04 #@! TD*
G04 #@! TA.AperFunction,ComponentPad*
%ADD13O,1.750000X1.200000*%
G04 #@! TD*
G04 #@! TA.AperFunction,ComponentPad*
%ADD14RoundRect,0.250000X0.350000X0.625000X-0.350000X0.625000X-0.350000X-0.625000X0.350000X-0.625000X0*%
G04 #@! TD*
G04 #@! TA.AperFunction,ComponentPad*
%ADD15RoundRect,1.000000X1.000000X2.750000X-1.000000X2.750000X-1.000000X-2.750000X1.000000X-2.750000X0*%
G04 #@! TD*
G04 #@! TA.AperFunction,ComponentPad*
%ADD16RoundRect,1.000000X-2.750000X1.000000X-2.750000X-1.000000X2.750000X-1.000000X2.750000X1.000000X0*%
G04 #@! TD*
G04 #@! TA.AperFunction,ComponentPad*
%ADD17O,1.651000X1.270000*%
G04 #@! TD*
G04 #@! TA.AperFunction,ComponentPad*
%ADD18R,1.750000X1.750000*%
G04 #@! TD*
G04 #@! TA.AperFunction,ComponentPad*
%ADD19C,1.750000*%
G04 #@! TD*
G04 #@! TA.AperFunction,SMDPad,CuDef*
%ADD20R,1.200000X2.200000*%
G04 #@! TD*
G04 #@! TA.AperFunction,SMDPad,CuDef*
%ADD21R,5.800000X6.400000*%
G04 #@! TD*
G04 #@! TA.AperFunction,SMDPad,CuDef*
%ADD22RoundRect,0.250000X-0.262500X-0.450000X0.262500X-0.450000X0.262500X0.450000X-0.262500X0.450000X0*%
G04 #@! TD*
G04 #@! TA.AperFunction,SMDPad,CuDef*
%ADD23RoundRect,0.250000X-0.250000X-0.475000X0.250000X-0.475000X0.250000X0.475000X-0.250000X0.475000X0*%
G04 #@! TD*
G04 #@! TA.AperFunction,SMDPad,CuDef*
%ADD24RoundRect,0.250000X0.262500X0.450000X-0.262500X0.450000X-0.262500X-0.450000X0.262500X-0.450000X0*%
G04 #@! TD*
G04 #@! TA.AperFunction,SMDPad,CuDef*
%ADD25RoundRect,0.250000X-0.450000X0.262500X-0.450000X-0.262500X0.450000X-0.262500X0.450000X0.262500X0*%
G04 #@! TD*
G04 #@! TA.AperFunction,SMDPad,CuDef*
%ADD26RoundRect,0.150000X-0.587500X-0.150000X0.587500X-0.150000X0.587500X0.150000X-0.587500X0.150000X0*%
G04 #@! TD*
G04 #@! TA.AperFunction,SMDPad,CuDef*
%ADD27RoundRect,0.150000X-0.150000X0.512500X-0.150000X-0.512500X0.150000X-0.512500X0.150000X0.512500X0*%
G04 #@! TD*
G04 #@! TA.AperFunction,SMDPad,CuDef*
%ADD28RoundRect,0.250000X0.450000X-0.262500X0.450000X0.262500X-0.450000X0.262500X-0.450000X-0.262500X0*%
G04 #@! TD*
G04 #@! TA.AperFunction,ViaPad*
%ADD29C,0.889000*%
G04 #@! TD*
G04 #@! TA.AperFunction,ViaPad*
%ADD30C,0.685800*%
G04 #@! TD*
G04 #@! TA.AperFunction,Conductor*
%ADD31C,0.254000*%
G04 #@! TD*
G04 #@! TA.AperFunction,Conductor*
%ADD32C,0.508000*%
G04 #@! TD*
G04 #@! TA.AperFunction,Conductor*
%ADD33C,1.270000*%
G04 #@! TD*
G04 APERTURE END LIST*
D10*
X31500000Y-48450000D03*
D11*
X33500000Y-48450000D03*
D12*
X52700000Y-36500000D03*
D13*
X52700000Y-34500000D03*
D14*
X44000000Y-26750000D03*
D11*
X42000000Y-26750000D03*
X40000000Y-26750000D03*
D10*
X29500000Y-54200000D03*
D11*
X31500000Y-54200000D03*
X33500000Y-54200000D03*
D15*
X31763400Y-25078500D03*
D16*
X32500000Y-32000000D03*
D10*
X22500000Y-54200000D03*
D11*
X24500000Y-54200000D03*
D17*
X37880000Y-43040000D03*
X37880000Y-45580000D03*
X37880000Y-48120000D03*
X37880000Y-50660000D03*
X53120000Y-45580000D03*
X37880000Y-53200000D03*
X37880000Y-55740000D03*
X37880000Y-58280000D03*
X37880000Y-60820000D03*
X37880000Y-63360000D03*
X37880000Y-65900000D03*
X37880000Y-68440000D03*
X37880000Y-70980000D03*
X37880000Y-73520000D03*
X53120000Y-73520000D03*
X53120000Y-70980000D03*
X53120000Y-68440000D03*
X53120000Y-65900000D03*
X53120000Y-63360000D03*
X53120000Y-60820000D03*
X53120000Y-58280000D03*
X53120000Y-55740000D03*
X53120000Y-53200000D03*
X53120000Y-50660000D03*
X53120000Y-48120000D03*
X37880000Y-40500000D03*
X53120000Y-43040000D03*
X53120000Y-40500000D03*
D18*
X28250000Y-73000000D03*
D19*
X25750000Y-73000000D03*
X23250000Y-73000000D03*
X22250000Y-41460000D03*
X22250000Y-44000000D03*
X22250000Y-46540000D03*
D18*
X28250000Y-61500000D03*
D19*
X25750000Y-61500000D03*
X23250000Y-61500000D03*
D18*
X28250000Y-67250000D03*
D19*
X25750000Y-67250000D03*
X23250000Y-67250000D03*
D20*
X21720000Y-30500000D03*
D21*
X24000000Y-36800000D03*
D20*
X26280000Y-30500000D03*
D22*
X48175000Y-42500000D03*
X50000000Y-42500000D03*
D23*
X48250000Y-57000000D03*
X50150000Y-57000000D03*
X31100000Y-36000000D03*
X33000000Y-36000000D03*
D24*
X50075000Y-45750000D03*
X48250000Y-45750000D03*
D22*
X31175000Y-38500000D03*
X33000000Y-38500000D03*
D25*
X41500000Y-43425000D03*
X41500000Y-45250000D03*
D26*
X33625000Y-44950000D03*
X33625000Y-43050000D03*
X35500000Y-44000000D03*
D23*
X26500000Y-70500000D03*
X28400000Y-70500000D03*
X48300000Y-49000000D03*
X50200000Y-49000000D03*
D22*
X31175000Y-41000000D03*
X33000000Y-41000000D03*
D23*
X26500000Y-59000000D03*
X28400000Y-59000000D03*
D27*
X48250000Y-52275000D03*
X49200000Y-52275000D03*
X50150000Y-52275000D03*
X50150000Y-54550000D03*
X48250000Y-54550000D03*
D28*
X31000000Y-45000000D03*
X31000000Y-43175000D03*
D23*
X26500000Y-64750000D03*
X28400000Y-64750000D03*
D29*
X22500000Y-27500000D03*
D30*
X41400000Y-33150000D03*
D29*
X46250000Y-35500000D03*
X28000000Y-38000000D03*
X28500000Y-27000000D03*
X35250000Y-64750000D03*
X27500000Y-27000000D03*
X24500000Y-28000000D03*
D30*
X42250000Y-69000000D03*
D29*
X49500000Y-65000000D03*
X49500000Y-72500000D03*
X28500000Y-25000000D03*
X28500000Y-26000000D03*
D30*
X41400000Y-34100000D03*
D29*
X33250000Y-60000000D03*
X32251197Y-70943945D03*
X25500000Y-28000000D03*
X45750000Y-73250000D03*
X28500000Y-22000000D03*
X26500000Y-28000000D03*
X50500000Y-51000000D03*
X29750000Y-43750000D03*
X49250000Y-27750000D03*
X51250000Y-57000000D03*
X21500000Y-26500000D03*
X32500000Y-63750000D03*
D30*
X35000000Y-46500000D03*
D29*
X27500000Y-28000000D03*
X46000000Y-71000000D03*
D30*
X37864278Y-33217935D03*
D29*
X28500000Y-24000000D03*
D30*
X41500000Y-65000000D03*
D29*
X28500000Y-28000000D03*
X28000000Y-39000000D03*
D30*
X47700000Y-66900000D03*
D29*
X28500000Y-23000000D03*
X30000000Y-65750000D03*
X46750000Y-72000000D03*
D30*
X41000000Y-31750000D03*
X46500000Y-65250000D03*
X47250000Y-59000000D03*
D29*
X47000000Y-56750000D03*
D30*
X47000000Y-42500000D03*
X47250000Y-61500000D03*
D29*
X38500000Y-36000000D03*
X51000000Y-68000000D03*
D30*
X41500000Y-73000000D03*
D29*
X36000000Y-59000000D03*
X25000000Y-50500000D03*
X28000000Y-50500000D03*
X26000000Y-49500000D03*
X23000000Y-49500000D03*
X27000000Y-49500000D03*
X26000000Y-50500000D03*
X23000000Y-50500000D03*
X22000000Y-50500000D03*
X25000000Y-49500000D03*
X21000000Y-50500000D03*
X24000000Y-50500000D03*
X21000000Y-49500000D03*
X27000000Y-50500000D03*
X22000000Y-49500000D03*
X24000000Y-49500000D03*
X28000000Y-49500000D03*
X37250000Y-37000000D03*
X36250000Y-37000000D03*
D30*
X33750000Y-62000000D03*
X34000000Y-69500000D03*
D31*
X31175000Y-36075000D02*
X31100000Y-36000000D01*
X31100000Y-32900000D02*
X32500000Y-31500000D01*
X31100000Y-36000000D02*
X31100000Y-32900000D01*
X31175000Y-38500000D02*
X31175000Y-36075000D01*
X30325000Y-43175000D02*
X29750000Y-43750000D01*
X50200000Y-50700000D02*
X50500000Y-51000000D01*
X33625000Y-43050000D02*
X31125000Y-43050000D01*
D32*
X50150000Y-57000000D02*
X51250000Y-57000000D01*
D31*
X50200000Y-49000000D02*
X50200000Y-50700000D01*
X50150000Y-51350000D02*
X50500000Y-51000000D01*
X31125000Y-43050000D02*
X31000000Y-43175000D01*
X31000000Y-43175000D02*
X30325000Y-43175000D01*
X50150000Y-52275000D02*
X50150000Y-51350000D01*
D32*
X47000000Y-56750000D02*
X48000000Y-56750000D01*
X48000000Y-56750000D02*
X48250000Y-57000000D01*
D31*
X48250000Y-54550000D02*
X48250000Y-57000000D01*
X48175000Y-42500000D02*
X47000000Y-42500000D01*
X48250000Y-45750000D02*
X48250000Y-48950000D01*
X48300000Y-50300000D02*
X48300000Y-49000000D01*
X49200000Y-52275000D02*
X49200000Y-51200000D01*
X48250000Y-48950000D02*
X48300000Y-49000000D01*
X49200000Y-51200000D02*
X48300000Y-50300000D01*
X23750000Y-31250000D02*
X23750000Y-32500000D01*
X27500000Y-34500000D02*
X28000000Y-35000000D01*
X33000000Y-36000000D02*
X33000000Y-38500000D01*
X31500000Y-39750000D02*
X31175000Y-40075000D01*
X27500000Y-33500000D02*
X27500000Y-34500000D01*
X23000000Y-30500000D02*
X23750000Y-31250000D01*
X29000000Y-35000000D02*
X29250000Y-35250000D01*
X28000000Y-35000000D02*
X29000000Y-35000000D01*
X27000000Y-33000000D02*
X27500000Y-33500000D01*
X29750000Y-41000000D02*
X31175000Y-41000000D01*
X31175000Y-40075000D02*
X31175000Y-41000000D01*
X21720000Y-30500000D02*
X23000000Y-30500000D01*
X23750000Y-32500000D02*
X24250000Y-33000000D01*
X32750000Y-39750000D02*
X31500000Y-39750000D01*
X24250000Y-33000000D02*
X27000000Y-33000000D01*
X29250000Y-35250000D02*
X29250000Y-40500000D01*
X33000000Y-39500000D02*
X32750000Y-39750000D01*
X33000000Y-39500000D02*
X33000000Y-38500000D01*
X29250000Y-40500000D02*
X29750000Y-41000000D01*
D33*
X37250000Y-37000000D02*
X40750000Y-40500000D01*
X40750000Y-40500000D02*
X42500000Y-40500000D01*
X53120000Y-40500000D02*
X42500000Y-40500000D01*
D31*
X36550000Y-44950000D02*
X33625000Y-44950000D01*
X41500000Y-45250000D02*
X39750000Y-45250000D01*
X38750000Y-44250000D02*
X37250000Y-44250000D01*
X33625000Y-44950000D02*
X31050000Y-44950000D01*
X37250000Y-44250000D02*
X36550000Y-44950000D01*
X39750000Y-45250000D02*
X38750000Y-44250000D01*
X31050000Y-44950000D02*
X31000000Y-45000000D01*
X35500000Y-42000000D02*
X35500000Y-44000000D01*
X34500000Y-41000000D02*
X35500000Y-42000000D01*
X33000000Y-41000000D02*
X34500000Y-41000000D01*
X54750000Y-35250000D02*
X54000000Y-34500000D01*
X54000000Y-34500000D02*
X52700000Y-34500000D01*
X50000000Y-45675000D02*
X50075000Y-45750000D01*
X54750000Y-41250000D02*
X54750000Y-35250000D01*
X52000000Y-41750000D02*
X54250000Y-41750000D01*
X51250000Y-42500000D02*
X52000000Y-41750000D01*
X50000000Y-42500000D02*
X50000000Y-45675000D01*
X50000000Y-42500000D02*
X51250000Y-42500000D01*
X54250000Y-41750000D02*
X54750000Y-41250000D01*
X39500000Y-43500000D02*
X41425000Y-43500000D01*
X41425000Y-43500000D02*
X41500000Y-43425000D01*
X39040000Y-43040000D02*
X39500000Y-43500000D01*
X37880000Y-43040000D02*
X39040000Y-43040000D01*
X51840000Y-50660000D02*
X53120000Y-50660000D01*
X51500000Y-53750000D02*
X51500000Y-51000000D01*
X51500000Y-51000000D02*
X51840000Y-50660000D01*
X50150000Y-54550000D02*
X50700000Y-54550000D01*
X51500000Y-53750000D02*
X50700000Y-54550000D01*
X34000000Y-69500000D02*
X33750000Y-69250000D01*
X33750000Y-69250000D02*
X33750000Y-62000000D01*
G04 #@! TA.AperFunction,Conductor*
G36*
X47942121Y-20528502D02*
G01*
X47988614Y-20582158D01*
X48000000Y-20634500D01*
X48000000Y-25500000D01*
X50463095Y-27963095D01*
X50497121Y-28025407D01*
X50500000Y-28052190D01*
X50500000Y-36874000D01*
X50479998Y-36942121D01*
X50426342Y-36988614D01*
X50374000Y-37000000D01*
X39133984Y-37000000D01*
X39065863Y-36979998D01*
X39019370Y-36926342D01*
X39009266Y-36856068D01*
X39038760Y-36791488D01*
X39056410Y-36774711D01*
X39160387Y-36693475D01*
X39164413Y-36688811D01*
X39164416Y-36688808D01*
X39278480Y-36556663D01*
X39282507Y-36551998D01*
X39328664Y-36470746D01*
X39371778Y-36394852D01*
X39371779Y-36394851D01*
X39374821Y-36389495D01*
X39433814Y-36212157D01*
X39447032Y-36107527D01*
X39456796Y-36030241D01*
X39456797Y-36030232D01*
X39457238Y-36026738D01*
X39457611Y-36000000D01*
X39439373Y-35813999D01*
X39435419Y-35800901D01*
X39387136Y-35640983D01*
X39385355Y-35635083D01*
X39297615Y-35470066D01*
X39276270Y-35443894D01*
X39183388Y-35330010D01*
X39183385Y-35330007D01*
X39179493Y-35325235D01*
X39174744Y-35321306D01*
X39040239Y-35210034D01*
X39040236Y-35210032D01*
X39035489Y-35206105D01*
X38871089Y-35117214D01*
X38781821Y-35089581D01*
X38698441Y-35063770D01*
X38698438Y-35063769D01*
X38692554Y-35061948D01*
X38686429Y-35061304D01*
X38686428Y-35061304D01*
X38512813Y-35043056D01*
X38512812Y-35043056D01*
X38506685Y-35042412D01*
X38388087Y-35053206D01*
X38326703Y-35058792D01*
X38326702Y-35058792D01*
X38320562Y-35059351D01*
X38314648Y-35061092D01*
X38314646Y-35061092D01*
X38192466Y-35097052D01*
X38141273Y-35112119D01*
X37975647Y-35198705D01*
X37829995Y-35315813D01*
X37826036Y-35320531D01*
X37826029Y-35320538D01*
X37722521Y-35443894D01*
X37663412Y-35483221D01*
X37592424Y-35484347D01*
X37532097Y-35446916D01*
X37501583Y-35382811D01*
X37500000Y-35362903D01*
X37500000Y-31750000D01*
X40143910Y-31750000D01*
X40162618Y-31927991D01*
X40217923Y-32098203D01*
X40307409Y-32253197D01*
X40427164Y-32386199D01*
X40571955Y-32491396D01*
X40577983Y-32494080D01*
X40577985Y-32494081D01*
X40729423Y-32561505D01*
X40735454Y-32564190D01*
X40822984Y-32582795D01*
X40904057Y-32600028D01*
X40904061Y-32600028D01*
X40910514Y-32601400D01*
X41089486Y-32601400D01*
X41095939Y-32600028D01*
X41095943Y-32600028D01*
X41177016Y-32582795D01*
X41264546Y-32564190D01*
X41270577Y-32561505D01*
X41422015Y-32494081D01*
X41422017Y-32494080D01*
X41428045Y-32491396D01*
X41572836Y-32386199D01*
X41692591Y-32253197D01*
X41782077Y-32098203D01*
X41837382Y-31927991D01*
X41856090Y-31750000D01*
X41837382Y-31572009D01*
X41782077Y-31401797D01*
X41692591Y-31246803D01*
X41572836Y-31113801D01*
X41428045Y-31008604D01*
X41422017Y-31005920D01*
X41422015Y-31005919D01*
X41270577Y-30938495D01*
X41270576Y-30938495D01*
X41264546Y-30935810D01*
X41177016Y-30917205D01*
X41095943Y-30899972D01*
X41095939Y-30899972D01*
X41089486Y-30898600D01*
X40910514Y-30898600D01*
X40904061Y-30899972D01*
X40904057Y-30899972D01*
X40822984Y-30917205D01*
X40735454Y-30935810D01*
X40729424Y-30938495D01*
X40729423Y-30938495D01*
X40577985Y-31005919D01*
X40577983Y-31005920D01*
X40571955Y-31008604D01*
X40427164Y-31113801D01*
X40307409Y-31246803D01*
X40217923Y-31401797D01*
X40162618Y-31572009D01*
X40143910Y-31750000D01*
X37500000Y-31750000D01*
X37500000Y-27077846D01*
X38891500Y-27077846D01*
X38906548Y-27235566D01*
X38966092Y-27438534D01*
X39062942Y-27626580D01*
X39193604Y-27792920D01*
X39198135Y-27796852D01*
X39198138Y-27796855D01*
X39284058Y-27871412D01*
X39353363Y-27931552D01*
X39358549Y-27934552D01*
X39358553Y-27934555D01*
X39454957Y-27990326D01*
X39536454Y-28037473D01*
X39736271Y-28106861D01*
X39742206Y-28107722D01*
X39742208Y-28107722D01*
X39939664Y-28136352D01*
X39939667Y-28136352D01*
X39945604Y-28137213D01*
X40156899Y-28127433D01*
X40288077Y-28095819D01*
X40356701Y-28079281D01*
X40356703Y-28079280D01*
X40362534Y-28077875D01*
X40367992Y-28075393D01*
X40367996Y-28075392D01*
X40483041Y-28023084D01*
X40555087Y-27990326D01*
X40727611Y-27867946D01*
X40873881Y-27715150D01*
X40877688Y-27709255D01*
X40894746Y-27682837D01*
X40948501Y-27636460D01*
X41018797Y-27626507D01*
X41083314Y-27656139D01*
X41099681Y-27673351D01*
X41193604Y-27792920D01*
X41198135Y-27796852D01*
X41198138Y-27796855D01*
X41284058Y-27871412D01*
X41353363Y-27931552D01*
X41358549Y-27934552D01*
X41358553Y-27934555D01*
X41454957Y-27990326D01*
X41536454Y-28037473D01*
X41736271Y-28106861D01*
X41742206Y-28107722D01*
X41742208Y-28107722D01*
X41939664Y-28136352D01*
X41939667Y-28136352D01*
X41945604Y-28137213D01*
X42156899Y-28127433D01*
X42288077Y-28095819D01*
X42356701Y-28079281D01*
X42356703Y-28079280D01*
X42362534Y-28077875D01*
X42367992Y-28075393D01*
X42367996Y-28075392D01*
X42483041Y-28023084D01*
X42555087Y-27990326D01*
X42727611Y-27867946D01*
X42873881Y-27715150D01*
X42988620Y-27537452D01*
X43067686Y-27341263D01*
X43108228Y-27133663D01*
X43108500Y-27128101D01*
X43108500Y-26422154D01*
X43093452Y-26264434D01*
X43033908Y-26061466D01*
X42971147Y-25939607D01*
X42939804Y-25878751D01*
X42939802Y-25878748D01*
X42937058Y-25873420D01*
X42806396Y-25707080D01*
X42801865Y-25703148D01*
X42801862Y-25703145D01*
X42651167Y-25572379D01*
X42646637Y-25568448D01*
X42641451Y-25565448D01*
X42641447Y-25565445D01*
X42468742Y-25465533D01*
X42463546Y-25462527D01*
X42263729Y-25393139D01*
X42257794Y-25392278D01*
X42257792Y-25392278D01*
X42060336Y-25363648D01*
X42060333Y-25363648D01*
X42054396Y-25362787D01*
X41843101Y-25372567D01*
X41711923Y-25404181D01*
X41643299Y-25420719D01*
X41643297Y-25420720D01*
X41637466Y-25422125D01*
X41632008Y-25424607D01*
X41632004Y-25424608D01*
X41516959Y-25476916D01*
X41444913Y-25509674D01*
X41272389Y-25632054D01*
X41126119Y-25784850D01*
X41122868Y-25789885D01*
X41122866Y-25789888D01*
X41105254Y-25817163D01*
X41051499Y-25863540D01*
X40981203Y-25873493D01*
X40916686Y-25843861D01*
X40900317Y-25826647D01*
X40871443Y-25789888D01*
X40806396Y-25707080D01*
X40801865Y-25703148D01*
X40801862Y-25703145D01*
X40651167Y-25572379D01*
X40646637Y-25568448D01*
X40641451Y-25565448D01*
X40641447Y-25565445D01*
X40468742Y-25465533D01*
X40463546Y-25462527D01*
X40263729Y-25393139D01*
X40257794Y-25392278D01*
X40257792Y-25392278D01*
X40060336Y-25363648D01*
X40060333Y-25363648D01*
X40054396Y-25362787D01*
X39843101Y-25372567D01*
X39711923Y-25404181D01*
X39643299Y-25420719D01*
X39643297Y-25420720D01*
X39637466Y-25422125D01*
X39632008Y-25424607D01*
X39632004Y-25424608D01*
X39516959Y-25476916D01*
X39444913Y-25509674D01*
X39272389Y-25632054D01*
X39126119Y-25784850D01*
X39011380Y-25962548D01*
X38932314Y-26158737D01*
X38891772Y-26366337D01*
X38891500Y-26371899D01*
X38891500Y-27077846D01*
X37500000Y-27077846D01*
X37500000Y-20634500D01*
X37520002Y-20566379D01*
X37573658Y-20519886D01*
X37626000Y-20508500D01*
X47874000Y-20508500D01*
X47942121Y-20528502D01*
G37*
G04 #@! TD.AperFunction*
G04 #@! TA.AperFunction,Conductor*
G36*
X32607671Y-45605502D02*
G01*
X32618585Y-45614298D01*
X32618825Y-45613989D01*
X32625085Y-45618845D01*
X32630693Y-45624453D01*
X32637517Y-45628489D01*
X32637520Y-45628491D01*
X32745089Y-45692107D01*
X32773899Y-45709145D01*
X32781510Y-45711356D01*
X32781512Y-45711357D01*
X32833731Y-45726528D01*
X32933669Y-45755562D01*
X32940074Y-45756066D01*
X32940079Y-45756067D01*
X32968542Y-45758307D01*
X32968550Y-45758307D01*
X32970998Y-45758500D01*
X34279002Y-45758500D01*
X34281450Y-45758307D01*
X34281458Y-45758307D01*
X34309921Y-45756067D01*
X34309926Y-45756066D01*
X34316331Y-45755562D01*
X34416269Y-45726528D01*
X34468488Y-45711357D01*
X34468490Y-45711356D01*
X34476101Y-45709145D01*
X34504911Y-45692107D01*
X34612480Y-45628491D01*
X34612483Y-45628489D01*
X34619307Y-45624453D01*
X34624915Y-45618845D01*
X34631175Y-45613989D01*
X34632839Y-45616134D01*
X34683667Y-45588379D01*
X34710450Y-45585500D01*
X35374000Y-45585500D01*
X35442121Y-45605502D01*
X35488614Y-45659158D01*
X35500000Y-45711500D01*
X35500000Y-56874000D01*
X35479998Y-56942121D01*
X35426342Y-56988614D01*
X35374000Y-57000000D01*
X32500000Y-57000000D01*
X30500000Y-59000000D01*
X30500000Y-64736216D01*
X30479998Y-64804337D01*
X30426342Y-64850830D01*
X30356068Y-64860934D01*
X30336741Y-64856581D01*
X30198441Y-64813770D01*
X30198438Y-64813769D01*
X30192554Y-64811948D01*
X30186429Y-64811304D01*
X30186428Y-64811304D01*
X30012813Y-64793056D01*
X30012812Y-64793056D01*
X30006685Y-64792412D01*
X29888087Y-64803206D01*
X29826703Y-64808792D01*
X29826702Y-64808792D01*
X29820562Y-64809351D01*
X29814648Y-64811092D01*
X29814646Y-64811092D01*
X29692466Y-64847052D01*
X29641273Y-64862119D01*
X29475647Y-64948705D01*
X29329995Y-65065813D01*
X29209862Y-65208981D01*
X29206899Y-65214370D01*
X29206896Y-65214375D01*
X29173348Y-65275400D01*
X29119826Y-65372757D01*
X29063315Y-65550901D01*
X29042482Y-65736630D01*
X29042998Y-65742774D01*
X29057591Y-65916550D01*
X29058121Y-65922867D01*
X29109636Y-66102520D01*
X29195064Y-66268746D01*
X29198887Y-66273570D01*
X29198890Y-66273574D01*
X29221419Y-66301998D01*
X29311152Y-66415212D01*
X29453478Y-66536342D01*
X29616621Y-66627519D01*
X29794367Y-66685272D01*
X29979945Y-66707401D01*
X29986080Y-66706929D01*
X29986082Y-66706929D01*
X30042119Y-66702617D01*
X30166287Y-66693063D01*
X30172213Y-66691409D01*
X30172227Y-66691406D01*
X30340116Y-66644530D01*
X30411106Y-66645476D01*
X30470316Y-66684652D01*
X30498945Y-66749620D01*
X30500000Y-66765888D01*
X30500000Y-75365500D01*
X30479998Y-75433621D01*
X30426342Y-75480114D01*
X30374000Y-75491500D01*
X27624136Y-75491500D01*
X27556015Y-75471498D01*
X27509522Y-75417842D01*
X27498138Y-75365873D01*
X27485845Y-71186620D01*
X27492250Y-71146583D01*
X27497797Y-71129861D01*
X27508500Y-71025400D01*
X27508500Y-69974600D01*
X27497526Y-69868834D01*
X27488247Y-69841021D01*
X27481771Y-69801515D01*
X27480263Y-69288998D01*
X27469081Y-65487158D01*
X27475485Y-65447129D01*
X27497797Y-65379861D01*
X27508500Y-65275400D01*
X27508500Y-64224600D01*
X27497526Y-64118834D01*
X27471182Y-64039872D01*
X27464708Y-64000376D01*
X27452317Y-59787698D01*
X27458721Y-59747673D01*
X27497797Y-59629861D01*
X27508500Y-59525400D01*
X27508500Y-58996032D01*
X27528502Y-58927911D01*
X27546511Y-58905843D01*
X29487034Y-57012650D01*
X29487034Y-57012649D01*
X29500000Y-57000000D01*
X29500000Y-54527846D01*
X30391500Y-54527846D01*
X30406548Y-54685566D01*
X30466092Y-54888534D01*
X30562942Y-55076580D01*
X30693604Y-55242920D01*
X30698135Y-55246852D01*
X30698138Y-55246855D01*
X30784058Y-55321412D01*
X30853363Y-55381552D01*
X30858549Y-55384552D01*
X30858553Y-55384555D01*
X30954957Y-55440326D01*
X31036454Y-55487473D01*
X31236271Y-55556861D01*
X31242206Y-55557722D01*
X31242208Y-55557722D01*
X31439664Y-55586352D01*
X31439667Y-55586352D01*
X31445604Y-55587213D01*
X31656899Y-55577433D01*
X31788077Y-55545819D01*
X31856701Y-55529281D01*
X31856703Y-55529280D01*
X31862534Y-55527875D01*
X31867992Y-55525393D01*
X31867996Y-55525392D01*
X31983041Y-55473084D01*
X32055087Y-55440326D01*
X32227611Y-55317946D01*
X32373881Y-55165150D01*
X32377688Y-55159255D01*
X32394746Y-55132837D01*
X32448501Y-55086460D01*
X32518797Y-55076507D01*
X32583314Y-55106139D01*
X32599681Y-55123351D01*
X32693604Y-55242920D01*
X32698135Y-55246852D01*
X32698138Y-55246855D01*
X32784058Y-55321412D01*
X32853363Y-55381552D01*
X32858549Y-55384552D01*
X32858553Y-55384555D01*
X32954957Y-55440326D01*
X33036454Y-55487473D01*
X33236271Y-55556861D01*
X33242206Y-55557722D01*
X33242208Y-55557722D01*
X33439664Y-55586352D01*
X33439667Y-55586352D01*
X33445604Y-55587213D01*
X33656899Y-55577433D01*
X33788077Y-55545819D01*
X33856701Y-55529281D01*
X33856703Y-55529280D01*
X33862534Y-55527875D01*
X33867992Y-55525393D01*
X33867996Y-55525392D01*
X33983041Y-55473084D01*
X34055087Y-55440326D01*
X34227611Y-55317946D01*
X34373881Y-55165150D01*
X34488620Y-54987452D01*
X34567686Y-54791263D01*
X34608228Y-54583663D01*
X34608500Y-54578101D01*
X34608500Y-53872154D01*
X34593452Y-53714434D01*
X34533908Y-53511466D01*
X34437058Y-53323420D01*
X34306396Y-53157080D01*
X34301865Y-53153148D01*
X34301862Y-53153145D01*
X34151167Y-53022379D01*
X34146637Y-53018448D01*
X34141451Y-53015448D01*
X34141447Y-53015445D01*
X33968742Y-52915533D01*
X33963546Y-52912527D01*
X33763729Y-52843139D01*
X33757794Y-52842278D01*
X33757792Y-52842278D01*
X33560336Y-52813648D01*
X33560333Y-52813648D01*
X33554396Y-52812787D01*
X33343101Y-52822567D01*
X33211923Y-52854181D01*
X33143299Y-52870719D01*
X33143297Y-52870720D01*
X33137466Y-52872125D01*
X33132008Y-52874607D01*
X33132004Y-52874608D01*
X33016959Y-52926916D01*
X32944913Y-52959674D01*
X32772389Y-53082054D01*
X32626119Y-53234850D01*
X32622868Y-53239885D01*
X32622866Y-53239888D01*
X32605254Y-53267163D01*
X32551499Y-53313540D01*
X32481203Y-53323493D01*
X32416686Y-53293861D01*
X32400317Y-53276647D01*
X32371443Y-53239888D01*
X32306396Y-53157080D01*
X32301865Y-53153148D01*
X32301862Y-53153145D01*
X32151167Y-53022379D01*
X32146637Y-53018448D01*
X32141451Y-53015448D01*
X32141447Y-53015445D01*
X31968742Y-52915533D01*
X31963546Y-52912527D01*
X31763729Y-52843139D01*
X31757794Y-52842278D01*
X31757792Y-52842278D01*
X31560336Y-52813648D01*
X31560333Y-52813648D01*
X31554396Y-52812787D01*
X31343101Y-52822567D01*
X31211923Y-52854181D01*
X31143299Y-52870719D01*
X31143297Y-52870720D01*
X31137466Y-52872125D01*
X31132008Y-52874607D01*
X31132004Y-52874608D01*
X31016959Y-52926916D01*
X30944913Y-52959674D01*
X30772389Y-53082054D01*
X30626119Y-53234850D01*
X30511380Y-53412548D01*
X30432314Y-53608737D01*
X30391772Y-53816337D01*
X30391500Y-53821899D01*
X30391500Y-54527846D01*
X29500000Y-54527846D01*
X29500000Y-52051342D01*
X29520002Y-51983221D01*
X29536986Y-51962165D01*
X29987179Y-51512798D01*
X29987180Y-51512797D01*
X30000000Y-51500000D01*
X30000000Y-48777846D01*
X32391500Y-48777846D01*
X32406548Y-48935566D01*
X32466092Y-49138534D01*
X32562942Y-49326580D01*
X32693604Y-49492920D01*
X32698135Y-49496852D01*
X32698138Y-49496855D01*
X32784058Y-49571412D01*
X32853363Y-49631552D01*
X32858549Y-49634552D01*
X32858553Y-49634555D01*
X32954957Y-49690326D01*
X33036454Y-49737473D01*
X33236271Y-49806861D01*
X33242206Y-49807722D01*
X33242208Y-49807722D01*
X33439664Y-49836352D01*
X33439667Y-49836352D01*
X33445604Y-49837213D01*
X33656899Y-49827433D01*
X33788077Y-49795819D01*
X33856701Y-49779281D01*
X33856703Y-49779280D01*
X33862534Y-49777875D01*
X33867992Y-49775393D01*
X33867996Y-49775392D01*
X34007072Y-49712157D01*
X34055087Y-49690326D01*
X34227611Y-49567946D01*
X34373881Y-49415150D01*
X34488620Y-49237452D01*
X34567686Y-49041263D01*
X34608228Y-48833663D01*
X34608500Y-48828101D01*
X34608500Y-48122154D01*
X34593452Y-47964434D01*
X34533908Y-47761466D01*
X34437058Y-47573420D01*
X34306396Y-47407080D01*
X34301865Y-47403148D01*
X34301862Y-47403145D01*
X34151167Y-47272379D01*
X34146637Y-47268448D01*
X34141451Y-47265448D01*
X34141447Y-47265445D01*
X33968742Y-47165533D01*
X33963546Y-47162527D01*
X33763729Y-47093139D01*
X33757794Y-47092278D01*
X33757792Y-47092278D01*
X33560336Y-47063648D01*
X33560333Y-47063648D01*
X33554396Y-47062787D01*
X33343101Y-47072567D01*
X33211923Y-47104181D01*
X33143299Y-47120719D01*
X33143297Y-47120720D01*
X33137466Y-47122125D01*
X33132008Y-47124607D01*
X33132004Y-47124608D01*
X33016959Y-47176916D01*
X32944913Y-47209674D01*
X32772389Y-47332054D01*
X32626119Y-47484850D01*
X32511380Y-47662548D01*
X32432314Y-47858737D01*
X32391772Y-48066337D01*
X32391500Y-48071899D01*
X32391500Y-48777846D01*
X30000000Y-48777846D01*
X30000000Y-46040211D01*
X30020002Y-45972090D01*
X30073658Y-45925597D01*
X30143932Y-45915493D01*
X30192115Y-45932951D01*
X30221028Y-45950773D01*
X30221033Y-45950775D01*
X30227262Y-45954615D01*
X30279948Y-45972090D01*
X30388611Y-46008132D01*
X30388613Y-46008132D01*
X30395139Y-46010297D01*
X30401975Y-46010997D01*
X30401978Y-46010998D01*
X30445031Y-46015409D01*
X30499600Y-46021000D01*
X31500400Y-46021000D01*
X31503646Y-46020663D01*
X31503650Y-46020663D01*
X31599308Y-46010738D01*
X31599312Y-46010737D01*
X31606166Y-46010026D01*
X31612702Y-46007845D01*
X31612704Y-46007845D01*
X31744806Y-45963772D01*
X31773946Y-45954050D01*
X31924348Y-45860978D01*
X32049305Y-45735803D01*
X32064374Y-45711357D01*
X32105042Y-45645383D01*
X32157814Y-45597890D01*
X32212301Y-45585500D01*
X32539550Y-45585500D01*
X32607671Y-45605502D01*
G37*
G04 #@! TD.AperFunction*
G04 #@! TA.AperFunction,Conductor*
G36*
X34252698Y-41655502D02*
G01*
X34273673Y-41672405D01*
X34827596Y-42226329D01*
X34861621Y-42288641D01*
X34864500Y-42315424D01*
X34864500Y-43083614D01*
X34844498Y-43151735D01*
X34790842Y-43198228D01*
X34773653Y-43204611D01*
X34656512Y-43238643D01*
X34656510Y-43238644D01*
X34648899Y-43240855D01*
X34642072Y-43244892D01*
X34642073Y-43244892D01*
X34512520Y-43321509D01*
X34512517Y-43321511D01*
X34505693Y-43325547D01*
X34388047Y-43443193D01*
X34384011Y-43450017D01*
X34384009Y-43450020D01*
X34320393Y-43557589D01*
X34303355Y-43586399D01*
X34256938Y-43746169D01*
X34254000Y-43783498D01*
X34254000Y-44015500D01*
X34233998Y-44083621D01*
X34180342Y-44130114D01*
X34128000Y-44141500D01*
X32970998Y-44141500D01*
X32968550Y-44141693D01*
X32968542Y-44141693D01*
X32940079Y-44143933D01*
X32940074Y-44143934D01*
X32933669Y-44144438D01*
X32833731Y-44173472D01*
X32781512Y-44188643D01*
X32781510Y-44188644D01*
X32773899Y-44190855D01*
X32767072Y-44194892D01*
X32767073Y-44194892D01*
X32637520Y-44271509D01*
X32637517Y-44271511D01*
X32630693Y-44275547D01*
X32625085Y-44281155D01*
X32618825Y-44286011D01*
X32617161Y-44283866D01*
X32566333Y-44311621D01*
X32539550Y-44314500D01*
X32149005Y-44314500D01*
X32080884Y-44294498D01*
X32051292Y-44267700D01*
X32048478Y-44263152D01*
X31923303Y-44138195D01*
X31910193Y-44130114D01*
X31778968Y-44049225D01*
X31778966Y-44049224D01*
X31772738Y-44045385D01*
X31612254Y-43992155D01*
X31611389Y-43991868D01*
X31611387Y-43991868D01*
X31604861Y-43989703D01*
X31598025Y-43989003D01*
X31598022Y-43989002D01*
X31554969Y-43984591D01*
X31500400Y-43979000D01*
X30499600Y-43979000D01*
X30496354Y-43979337D01*
X30496350Y-43979337D01*
X30400692Y-43989262D01*
X30400688Y-43989263D01*
X30393834Y-43989974D01*
X30387298Y-43992155D01*
X30387296Y-43992155D01*
X30333593Y-44010072D01*
X30226054Y-44045950D01*
X30192302Y-44066837D01*
X30123852Y-44085674D01*
X30056082Y-44064513D01*
X30010511Y-44010072D01*
X30000000Y-43959692D01*
X30000000Y-41859954D01*
X30020002Y-41791833D01*
X30073658Y-41745340D01*
X30143932Y-41735236D01*
X30208512Y-41764730D01*
X30233144Y-41793650D01*
X30314022Y-41924348D01*
X30439197Y-42049305D01*
X30445427Y-42053145D01*
X30445428Y-42053146D01*
X30582590Y-42137694D01*
X30589762Y-42142115D01*
X30669505Y-42168564D01*
X30751111Y-42195632D01*
X30751113Y-42195632D01*
X30757639Y-42197797D01*
X30764475Y-42198497D01*
X30764478Y-42198498D01*
X30807531Y-42202909D01*
X30862100Y-42208500D01*
X31487900Y-42208500D01*
X31491146Y-42208163D01*
X31491150Y-42208163D01*
X31586808Y-42198238D01*
X31586812Y-42198237D01*
X31593666Y-42197526D01*
X31600202Y-42195345D01*
X31600204Y-42195345D01*
X31732306Y-42151272D01*
X31761446Y-42141550D01*
X31911848Y-42048478D01*
X31998284Y-41961891D01*
X32060566Y-41927812D01*
X32131386Y-41932815D01*
X32176475Y-41961736D01*
X32251931Y-42037060D01*
X32264197Y-42049305D01*
X32270427Y-42053145D01*
X32270428Y-42053146D01*
X32407590Y-42137694D01*
X32414762Y-42142115D01*
X32494505Y-42168564D01*
X32576111Y-42195632D01*
X32576113Y-42195632D01*
X32582639Y-42197797D01*
X32589475Y-42198497D01*
X32589478Y-42198498D01*
X32632531Y-42202909D01*
X32687100Y-42208500D01*
X33312900Y-42208500D01*
X33316146Y-42208163D01*
X33316150Y-42208163D01*
X33411808Y-42198238D01*
X33411812Y-42198237D01*
X33418666Y-42197526D01*
X33425202Y-42195345D01*
X33425204Y-42195345D01*
X33557306Y-42151272D01*
X33586446Y-42141550D01*
X33736848Y-42048478D01*
X33861805Y-41923303D01*
X33954615Y-41772738D01*
X33971500Y-41721832D01*
X34011932Y-41663472D01*
X34077496Y-41636236D01*
X34091093Y-41635500D01*
X34184577Y-41635500D01*
X34252698Y-41655502D01*
G37*
G04 #@! TD.AperFunction*
G04 #@! TA.AperFunction,Conductor*
G36*
X29834117Y-29020002D02*
G01*
X29847658Y-29030046D01*
X29874256Y-29052682D01*
X29874260Y-29052685D01*
X29878120Y-29055970D01*
X30085758Y-29181720D01*
X30090447Y-29183614D01*
X30090452Y-29183617D01*
X30306138Y-29270760D01*
X30306141Y-29270761D01*
X30310829Y-29272655D01*
X30315759Y-29273775D01*
X30315762Y-29273776D01*
X30408553Y-29294857D01*
X30547544Y-29326435D01*
X30552309Y-29326777D01*
X30552312Y-29326777D01*
X30692681Y-29336839D01*
X30692689Y-29336839D01*
X30694931Y-29337000D01*
X31763400Y-29337000D01*
X32831868Y-29336999D01*
X32834110Y-29336838D01*
X32834119Y-29336838D01*
X32974488Y-29326777D01*
X32974491Y-29326777D01*
X32979256Y-29326435D01*
X32983914Y-29325377D01*
X32983919Y-29325376D01*
X33211038Y-29273776D01*
X33211041Y-29273775D01*
X33215971Y-29272655D01*
X33220659Y-29270761D01*
X33220662Y-29270760D01*
X33436348Y-29183617D01*
X33436353Y-29183614D01*
X33441042Y-29181720D01*
X33648680Y-29055970D01*
X33652540Y-29052685D01*
X33652544Y-29052682D01*
X33679142Y-29030046D01*
X33743982Y-29001128D01*
X33760804Y-29000000D01*
X36374000Y-29000000D01*
X36442121Y-29020002D01*
X36488614Y-29073658D01*
X36500000Y-29126000D01*
X36500000Y-34374000D01*
X36479998Y-34442121D01*
X36426342Y-34488614D01*
X36374000Y-34500000D01*
X29440830Y-34500000D01*
X29376825Y-34481207D01*
X29376508Y-34481784D01*
X29373890Y-34480345D01*
X29373891Y-34480345D01*
X29358669Y-34471977D01*
X29342153Y-34461127D01*
X29326067Y-34448650D01*
X29285334Y-34431024D01*
X29274686Y-34425807D01*
X29263058Y-34419415D01*
X29235803Y-34404431D01*
X29228128Y-34402460D01*
X29228122Y-34402458D01*
X29216089Y-34399369D01*
X29197387Y-34392966D01*
X29178708Y-34384883D01*
X29144872Y-34379524D01*
X29134873Y-34377940D01*
X29123260Y-34375535D01*
X29080282Y-34364500D01*
X29059935Y-34364500D01*
X29040224Y-34362949D01*
X29027950Y-34361005D01*
X29020121Y-34359765D01*
X29012229Y-34360511D01*
X28975944Y-34363941D01*
X28964086Y-34364500D01*
X28416690Y-34364500D01*
X28348569Y-34344498D01*
X28327595Y-34327595D01*
X28172405Y-34172405D01*
X28138379Y-34110093D01*
X28135500Y-34083310D01*
X28135500Y-33579032D01*
X28136030Y-33567793D01*
X28137709Y-33560281D01*
X28135562Y-33491969D01*
X28135500Y-33488012D01*
X28135500Y-33460017D01*
X28134992Y-33455994D01*
X28134059Y-33444152D01*
X28132914Y-33407720D01*
X28132665Y-33399795D01*
X28126987Y-33380251D01*
X28122977Y-33360888D01*
X28121420Y-33348560D01*
X28121420Y-33348558D01*
X28120427Y-33340701D01*
X28117511Y-33333337D01*
X28117510Y-33333332D01*
X28104093Y-33299444D01*
X28100248Y-33288215D01*
X28090081Y-33253222D01*
X28087869Y-33245607D01*
X28083830Y-33238777D01*
X28077512Y-33228094D01*
X28068812Y-33210336D01*
X28064239Y-33198785D01*
X28064235Y-33198779D01*
X28061319Y-33191412D01*
X28035234Y-33155509D01*
X28028719Y-33145590D01*
X28010174Y-33114232D01*
X28010171Y-33114228D01*
X28006134Y-33107402D01*
X27991750Y-33093018D01*
X27978909Y-33077984D01*
X27971602Y-33067927D01*
X27966942Y-33061513D01*
X27932752Y-33033228D01*
X27923973Y-33025240D01*
X27505246Y-32606514D01*
X27497674Y-32598192D01*
X27493553Y-32591697D01*
X27443733Y-32544913D01*
X27440892Y-32542159D01*
X27421094Y-32522361D01*
X27417969Y-32519937D01*
X27417960Y-32519929D01*
X27417874Y-32519863D01*
X27408849Y-32512155D01*
X27382285Y-32487210D01*
X27376506Y-32481783D01*
X27358669Y-32471977D01*
X27342153Y-32461127D01*
X27326067Y-32448650D01*
X27285334Y-32431024D01*
X27274686Y-32425807D01*
X27263058Y-32419415D01*
X27235803Y-32404431D01*
X27228128Y-32402460D01*
X27228122Y-32402458D01*
X27216089Y-32399369D01*
X27197387Y-32392966D01*
X27178708Y-32384883D01*
X27144872Y-32379524D01*
X27134873Y-32377940D01*
X27123260Y-32375535D01*
X27080282Y-32364500D01*
X27059935Y-32364500D01*
X27040224Y-32362949D01*
X27027950Y-32361005D01*
X27020121Y-32359765D01*
X27012229Y-32360511D01*
X26975944Y-32363941D01*
X26964086Y-32364500D01*
X25126000Y-32364500D01*
X25057879Y-32344498D01*
X25011386Y-32290842D01*
X25000000Y-32238500D01*
X25000000Y-29126000D01*
X25020002Y-29057879D01*
X25073658Y-29011386D01*
X25126000Y-29000000D01*
X29765996Y-29000000D01*
X29834117Y-29020002D01*
G37*
G04 #@! TD.AperFunction*
G04 #@! TA.AperFunction,Conductor*
G36*
X23873175Y-33518793D02*
G01*
X23873492Y-33518216D01*
X23873494Y-33518217D01*
X23879545Y-33521544D01*
X23879547Y-33521545D01*
X23891329Y-33528022D01*
X23907847Y-33538873D01*
X23923933Y-33551350D01*
X23964666Y-33568976D01*
X23975314Y-33574193D01*
X24014197Y-33595569D01*
X24021872Y-33597540D01*
X24021878Y-33597542D01*
X24033911Y-33600631D01*
X24052613Y-33607034D01*
X24071292Y-33615117D01*
X24105128Y-33620476D01*
X24115127Y-33622060D01*
X24126740Y-33624465D01*
X24169718Y-33635500D01*
X24190065Y-33635500D01*
X24209777Y-33637051D01*
X24229879Y-33640235D01*
X24237771Y-33639489D01*
X24274056Y-33636059D01*
X24285914Y-33635500D01*
X26583310Y-33635500D01*
X26651431Y-33655502D01*
X26672405Y-33672405D01*
X26827595Y-33827595D01*
X26861621Y-33889907D01*
X26864500Y-33916690D01*
X26864500Y-34420980D01*
X26863970Y-34432214D01*
X26862292Y-34439719D01*
X26862541Y-34447638D01*
X26864438Y-34508012D01*
X26864500Y-34511969D01*
X26864500Y-34539983D01*
X26864996Y-34543908D01*
X26864996Y-34543909D01*
X26865008Y-34544004D01*
X26865941Y-34555849D01*
X26867335Y-34600205D01*
X26869547Y-34607817D01*
X26873013Y-34619748D01*
X26877023Y-34639112D01*
X26879573Y-34659299D01*
X26882489Y-34666663D01*
X26882490Y-34666668D01*
X26895907Y-34700556D01*
X26899752Y-34711785D01*
X26912131Y-34754393D01*
X26916169Y-34761220D01*
X26916170Y-34761223D01*
X26922488Y-34771906D01*
X26931188Y-34789664D01*
X26935761Y-34801215D01*
X26935765Y-34801221D01*
X26938681Y-34808588D01*
X26943339Y-34814999D01*
X26943340Y-34815001D01*
X26964764Y-34844488D01*
X26971281Y-34854410D01*
X26989826Y-34885768D01*
X26989829Y-34885772D01*
X26993866Y-34892598D01*
X27008250Y-34906982D01*
X27021091Y-34922016D01*
X27033058Y-34938487D01*
X27039167Y-34943541D01*
X27067248Y-34966772D01*
X27076027Y-34974760D01*
X27494754Y-35393486D01*
X27502326Y-35401808D01*
X27506447Y-35408303D01*
X27512225Y-35413728D01*
X27512225Y-35413729D01*
X27556266Y-35455086D01*
X27559108Y-35457841D01*
X27578906Y-35477639D01*
X27582031Y-35480063D01*
X27582040Y-35480071D01*
X27582126Y-35480137D01*
X27591151Y-35487845D01*
X27623494Y-35518217D01*
X27630438Y-35522035D01*
X27630440Y-35522036D01*
X27641329Y-35528022D01*
X27657847Y-35538873D01*
X27673933Y-35551350D01*
X27714666Y-35568976D01*
X27725314Y-35574193D01*
X27764197Y-35595569D01*
X27771872Y-35597540D01*
X27771878Y-35597542D01*
X27783911Y-35600631D01*
X27802613Y-35607034D01*
X27821292Y-35615117D01*
X27855128Y-35620476D01*
X27865127Y-35622060D01*
X27876740Y-35624465D01*
X27919718Y-35635500D01*
X27940065Y-35635500D01*
X27959777Y-35637051D01*
X27979879Y-35640235D01*
X27987771Y-35639489D01*
X28024056Y-35636059D01*
X28035914Y-35635500D01*
X28488500Y-35635500D01*
X28556621Y-35655502D01*
X28603114Y-35709158D01*
X28614500Y-35761500D01*
X28614500Y-37037458D01*
X28594498Y-37105579D01*
X28540842Y-37152072D01*
X28470568Y-37162176D01*
X28428572Y-37148294D01*
X28376512Y-37120146D01*
X28376510Y-37120145D01*
X28371089Y-37117214D01*
X28281822Y-37089581D01*
X28198441Y-37063770D01*
X28198438Y-37063769D01*
X28192554Y-37061948D01*
X28186429Y-37061304D01*
X28186428Y-37061304D01*
X28012813Y-37043056D01*
X28012812Y-37043056D01*
X28006685Y-37042412D01*
X27888087Y-37053206D01*
X27826703Y-37058792D01*
X27826702Y-37058792D01*
X27820562Y-37059351D01*
X27814648Y-37061092D01*
X27814646Y-37061092D01*
X27692466Y-37097052D01*
X27641273Y-37112119D01*
X27475647Y-37198705D01*
X27329995Y-37315813D01*
X27209862Y-37458981D01*
X27206899Y-37464370D01*
X27206896Y-37464375D01*
X27133509Y-37597868D01*
X27119826Y-37622757D01*
X27063315Y-37800901D01*
X27042482Y-37986630D01*
X27058121Y-38172867D01*
X27109636Y-38352520D01*
X27112451Y-38357997D01*
X27155716Y-38442183D01*
X27169063Y-38511914D01*
X27154064Y-38560477D01*
X27119826Y-38622757D01*
X27063315Y-38800901D01*
X27042482Y-38986630D01*
X27058121Y-39172867D01*
X27109636Y-39352520D01*
X27195064Y-39518746D01*
X27198887Y-39523570D01*
X27198890Y-39523574D01*
X27304170Y-39656402D01*
X27311152Y-39665212D01*
X27453478Y-39786342D01*
X27616621Y-39877519D01*
X27794367Y-39935272D01*
X27979945Y-39957401D01*
X27986080Y-39956929D01*
X27986082Y-39956929D01*
X28042119Y-39952617D01*
X28166287Y-39943063D01*
X28346296Y-39892804D01*
X28351789Y-39890029D01*
X28351795Y-39890027D01*
X28431690Y-39849669D01*
X28501512Y-39836809D01*
X28567203Y-39863738D01*
X28607906Y-39921908D01*
X28614500Y-39962135D01*
X28614500Y-40420980D01*
X28613970Y-40432214D01*
X28612292Y-40439719D01*
X28612541Y-40447638D01*
X28614438Y-40508012D01*
X28614500Y-40511969D01*
X28614500Y-40539983D01*
X28614996Y-40543908D01*
X28614996Y-40543909D01*
X28615008Y-40544004D01*
X28615941Y-40555849D01*
X28617335Y-40600205D01*
X28621044Y-40612971D01*
X28623013Y-40619748D01*
X28627023Y-40639112D01*
X28629573Y-40659299D01*
X28632489Y-40666663D01*
X28632490Y-40666668D01*
X28645907Y-40700556D01*
X28649752Y-40711785D01*
X28662131Y-40754393D01*
X28666169Y-40761220D01*
X28666170Y-40761223D01*
X28672488Y-40771906D01*
X28681188Y-40789664D01*
X28685761Y-40801215D01*
X28685765Y-40801221D01*
X28688681Y-40808588D01*
X28693339Y-40814999D01*
X28693340Y-40815001D01*
X28714764Y-40844488D01*
X28721281Y-40854410D01*
X28739826Y-40885768D01*
X28739829Y-40885772D01*
X28743866Y-40892598D01*
X28758250Y-40906982D01*
X28771091Y-40922016D01*
X28783058Y-40938487D01*
X28789167Y-40943541D01*
X28817254Y-40966777D01*
X28826033Y-40974766D01*
X28963095Y-41111828D01*
X28997121Y-41174140D01*
X29000000Y-41200923D01*
X29000000Y-43115286D01*
X28979998Y-43183407D01*
X28970522Y-43196277D01*
X28959862Y-43208981D01*
X28956899Y-43214370D01*
X28956896Y-43214375D01*
X28904314Y-43310023D01*
X28869826Y-43372757D01*
X28813315Y-43550901D01*
X28792482Y-43736630D01*
X28808121Y-43922867D01*
X28859636Y-44102520D01*
X28945064Y-44268746D01*
X28948890Y-44273573D01*
X28972746Y-44303672D01*
X28999383Y-44369482D01*
X29000000Y-44381936D01*
X29000000Y-50947810D01*
X28979998Y-51015931D01*
X28963095Y-51036905D01*
X28500000Y-51500000D01*
X28500000Y-53148225D01*
X28481260Y-53214341D01*
X28457885Y-53252262D01*
X28402203Y-53420139D01*
X28391500Y-53524600D01*
X28391500Y-54875400D01*
X28402474Y-54981166D01*
X28404655Y-54987702D01*
X28404655Y-54987704D01*
X28435135Y-55079064D01*
X28458450Y-55148946D01*
X28471157Y-55169480D01*
X28481144Y-55185619D01*
X28500000Y-55251922D01*
X28500000Y-56447810D01*
X28479998Y-56515931D01*
X28463095Y-56536905D01*
X26500000Y-58500000D01*
X26500000Y-75365500D01*
X26479998Y-75433621D01*
X26426342Y-75480114D01*
X26374000Y-75491500D01*
X20634500Y-75491500D01*
X20566379Y-75471498D01*
X20519886Y-75417842D01*
X20508500Y-75365500D01*
X20508500Y-72966082D01*
X21862172Y-72966082D01*
X21862469Y-72971234D01*
X21862469Y-72971238D01*
X21867845Y-73064463D01*
X21875268Y-73193206D01*
X21876405Y-73198252D01*
X21876406Y-73198258D01*
X21896686Y-73288244D01*
X21925283Y-73415141D01*
X22010875Y-73625927D01*
X22129744Y-73819904D01*
X22278698Y-73991861D01*
X22453737Y-74137181D01*
X22458189Y-74139783D01*
X22458194Y-74139786D01*
X22552199Y-74194718D01*
X22650160Y-74251962D01*
X22862693Y-74333120D01*
X22867759Y-74334151D01*
X22867760Y-74334151D01*
X22966861Y-74354313D01*
X23085627Y-74378476D01*
X23213437Y-74383163D01*
X23307811Y-74386624D01*
X23307815Y-74386624D01*
X23312975Y-74386813D01*
X23318095Y-74386157D01*
X23318097Y-74386157D01*
X23533504Y-74358563D01*
X23533505Y-74358563D01*
X23538632Y-74357906D01*
X23621248Y-74333120D01*
X23751591Y-74294015D01*
X23751592Y-74294014D01*
X23756537Y-74292531D01*
X23960839Y-74192444D01*
X23965043Y-74189446D01*
X23965047Y-74189443D01*
X24141847Y-74063333D01*
X24141849Y-74063331D01*
X24146051Y-74060334D01*
X24307199Y-73899747D01*
X24361764Y-73823812D01*
X24436938Y-73719198D01*
X24436942Y-73719192D01*
X24439956Y-73714997D01*
X24540755Y-73511046D01*
X24606890Y-73293370D01*
X24620077Y-73193206D01*
X24636148Y-73071136D01*
X24636148Y-73071132D01*
X24636585Y-73067815D01*
X24638242Y-73000000D01*
X24619601Y-72773264D01*
X24564178Y-72552617D01*
X24473462Y-72343985D01*
X24349890Y-72152971D01*
X24196779Y-71984704D01*
X24018241Y-71843704D01*
X23980537Y-71822890D01*
X23869761Y-71761739D01*
X23819072Y-71733757D01*
X23814203Y-71732033D01*
X23814199Y-71732031D01*
X23609496Y-71659541D01*
X23609492Y-71659540D01*
X23604621Y-71657815D01*
X23599528Y-71656908D01*
X23599525Y-71656907D01*
X23385734Y-71618825D01*
X23385728Y-71618824D01*
X23380645Y-71617919D01*
X23307196Y-71617022D01*
X23158331Y-71615203D01*
X23158329Y-71615203D01*
X23153161Y-71615140D01*
X22928278Y-71649552D01*
X22712035Y-71720231D01*
X22707447Y-71722619D01*
X22707443Y-71722621D01*
X22514828Y-71822890D01*
X22510239Y-71825279D01*
X22506106Y-71828382D01*
X22506103Y-71828384D01*
X22485699Y-71843704D01*
X22328310Y-71961875D01*
X22171133Y-72126351D01*
X22042931Y-72314289D01*
X22040758Y-72318971D01*
X22040756Y-72318974D01*
X22026948Y-72348722D01*
X21947145Y-72520643D01*
X21886348Y-72739869D01*
X21862172Y-72966082D01*
X20508500Y-72966082D01*
X20508500Y-67216082D01*
X21862172Y-67216082D01*
X21862469Y-67221234D01*
X21862469Y-67221238D01*
X21867845Y-67314463D01*
X21875268Y-67443206D01*
X21876405Y-67448252D01*
X21876406Y-67448258D01*
X21896686Y-67538244D01*
X21925283Y-67665141D01*
X22010875Y-67875927D01*
X22129744Y-68069904D01*
X22278698Y-68241861D01*
X22453737Y-68387181D01*
X22458189Y-68389783D01*
X22458194Y-68389786D01*
X22552199Y-68444718D01*
X22650160Y-68501962D01*
X22862693Y-68583120D01*
X22867759Y-68584151D01*
X22867760Y-68584151D01*
X22966861Y-68604313D01*
X23085627Y-68628476D01*
X23213437Y-68633163D01*
X23307811Y-68636624D01*
X23307815Y-68636624D01*
X23312975Y-68636813D01*
X23318095Y-68636157D01*
X23318097Y-68636157D01*
X23533504Y-68608563D01*
X23533505Y-68608563D01*
X23538632Y-68607906D01*
X23621248Y-68583120D01*
X23751591Y-68544015D01*
X23751592Y-68544014D01*
X23756537Y-68542531D01*
X23960839Y-68442444D01*
X23965043Y-68439446D01*
X23965047Y-68439443D01*
X24141847Y-68313333D01*
X24141849Y-68313331D01*
X24146051Y-68310334D01*
X24307199Y-68149747D01*
X24361764Y-68073812D01*
X24436938Y-67969198D01*
X24436942Y-67969192D01*
X24439956Y-67964997D01*
X24540755Y-67761046D01*
X24606890Y-67543370D01*
X24620077Y-67443206D01*
X24636148Y-67321136D01*
X24636148Y-67321132D01*
X24636585Y-67317815D01*
X24638242Y-67250000D01*
X24619601Y-67023264D01*
X24564178Y-66802617D01*
X24473462Y-66593985D01*
X24349890Y-66402971D01*
X24196779Y-66234704D01*
X24018241Y-66093704D01*
X23980537Y-66072890D01*
X23869761Y-66011739D01*
X23819072Y-65983757D01*
X23814203Y-65982033D01*
X23814199Y-65982031D01*
X23609496Y-65909541D01*
X23609492Y-65909540D01*
X23604621Y-65907815D01*
X23599528Y-65906908D01*
X23599525Y-65906907D01*
X23385734Y-65868825D01*
X23385728Y-65868824D01*
X23380645Y-65867919D01*
X23307196Y-65867022D01*
X23158331Y-65865203D01*
X23158329Y-65865203D01*
X23153161Y-65865140D01*
X22928278Y-65899552D01*
X22712035Y-65970231D01*
X22707447Y-65972619D01*
X22707443Y-65972621D01*
X22514828Y-66072890D01*
X22510239Y-66075279D01*
X22506106Y-66078382D01*
X22506103Y-66078384D01*
X22485699Y-66093704D01*
X22328310Y-66211875D01*
X22171133Y-66376351D01*
X22042931Y-66564289D01*
X22040758Y-66568971D01*
X22040756Y-66568974D01*
X22026948Y-66598722D01*
X21947145Y-66770643D01*
X21886348Y-66989869D01*
X21862172Y-67216082D01*
X20508500Y-67216082D01*
X20508500Y-61466082D01*
X21862172Y-61466082D01*
X21862469Y-61471234D01*
X21862469Y-61471238D01*
X21867845Y-61564463D01*
X21875268Y-61693206D01*
X21876405Y-61698252D01*
X21876406Y-61698258D01*
X21896686Y-61788244D01*
X21925283Y-61915141D01*
X22010875Y-62125927D01*
X22129744Y-62319904D01*
X22278698Y-62491861D01*
X22453737Y-62637181D01*
X22458189Y-62639783D01*
X22458194Y-62639786D01*
X22552199Y-62694718D01*
X22650160Y-62751962D01*
X22862693Y-62833120D01*
X22867759Y-62834151D01*
X22867760Y-62834151D01*
X22966861Y-62854313D01*
X23085627Y-62878476D01*
X23213437Y-62883163D01*
X23307811Y-62886624D01*
X23307815Y-62886624D01*
X23312975Y-62886813D01*
X23318095Y-62886157D01*
X23318097Y-62886157D01*
X23533504Y-62858563D01*
X23533505Y-62858563D01*
X23538632Y-62857906D01*
X23621248Y-62833120D01*
X23751591Y-62794015D01*
X23751592Y-62794014D01*
X23756537Y-62792531D01*
X23960839Y-62692444D01*
X23965043Y-62689446D01*
X23965047Y-62689443D01*
X24141847Y-62563333D01*
X24141849Y-62563331D01*
X24146051Y-62560334D01*
X24307199Y-62399747D01*
X24361764Y-62323812D01*
X24436938Y-62219198D01*
X24436942Y-62219192D01*
X24439956Y-62214997D01*
X24540755Y-62011046D01*
X24606890Y-61793370D01*
X24620077Y-61693206D01*
X24636148Y-61571136D01*
X24636148Y-61571132D01*
X24636585Y-61567815D01*
X24638242Y-61500000D01*
X24619601Y-61273264D01*
X24564178Y-61052617D01*
X24473462Y-60843985D01*
X24349890Y-60652971D01*
X24196779Y-60484704D01*
X24018241Y-60343704D01*
X23980537Y-60322890D01*
X23869761Y-60261739D01*
X23819072Y-60233757D01*
X23814203Y-60232033D01*
X23814199Y-60232031D01*
X23609496Y-60159541D01*
X23609492Y-60159540D01*
X23604621Y-60157815D01*
X23599528Y-60156908D01*
X23599525Y-60156907D01*
X23385734Y-60118825D01*
X23385728Y-60118824D01*
X23380645Y-60117919D01*
X23307196Y-60117022D01*
X23158331Y-60115203D01*
X23158329Y-60115203D01*
X23153161Y-60115140D01*
X22928278Y-60149552D01*
X22712035Y-60220231D01*
X22707447Y-60222619D01*
X22707443Y-60222621D01*
X22514828Y-60322890D01*
X22510239Y-60325279D01*
X22506106Y-60328382D01*
X22506103Y-60328384D01*
X22485699Y-60343704D01*
X22328310Y-60461875D01*
X22171133Y-60626351D01*
X22042931Y-60814289D01*
X22040758Y-60818971D01*
X22040756Y-60818974D01*
X22026948Y-60848722D01*
X21947145Y-61020643D01*
X21886348Y-61239869D01*
X21862172Y-61466082D01*
X20508500Y-61466082D01*
X20508500Y-54875400D01*
X21391500Y-54875400D01*
X21402474Y-54981166D01*
X21404655Y-54987702D01*
X21404655Y-54987704D01*
X21435135Y-55079064D01*
X21458450Y-55148946D01*
X21551522Y-55299348D01*
X21676697Y-55424305D01*
X21682927Y-55428145D01*
X21682928Y-55428146D01*
X21820090Y-55512694D01*
X21827262Y-55517115D01*
X21852217Y-55525392D01*
X21988611Y-55570632D01*
X21988613Y-55570632D01*
X21995139Y-55572797D01*
X22001975Y-55573497D01*
X22001978Y-55573498D01*
X22040386Y-55577433D01*
X22099600Y-55583500D01*
X22900400Y-55583500D01*
X22903646Y-55583163D01*
X22903650Y-55583163D01*
X22999308Y-55573238D01*
X22999312Y-55573237D01*
X23006166Y-55572526D01*
X23012702Y-55570345D01*
X23012704Y-55570345D01*
X23147443Y-55525392D01*
X23173946Y-55516550D01*
X23324348Y-55423478D01*
X23449305Y-55298303D01*
X23481075Y-55246764D01*
X23533846Y-55199271D01*
X23603918Y-55187847D01*
X23669042Y-55216121D01*
X23687418Y-55235045D01*
X23693604Y-55242920D01*
X23698135Y-55246852D01*
X23698138Y-55246855D01*
X23784058Y-55321412D01*
X23853363Y-55381552D01*
X23858549Y-55384552D01*
X23858553Y-55384555D01*
X23954957Y-55440326D01*
X24036454Y-55487473D01*
X24236271Y-55556861D01*
X24242206Y-55557722D01*
X24242208Y-55557722D01*
X24439664Y-55586352D01*
X24439667Y-55586352D01*
X24445604Y-55587213D01*
X24656899Y-55577433D01*
X24788077Y-55545819D01*
X24856701Y-55529281D01*
X24856703Y-55529280D01*
X24862534Y-55527875D01*
X24867992Y-55525393D01*
X24867996Y-55525392D01*
X24983041Y-55473084D01*
X25055087Y-55440326D01*
X25227611Y-55317946D01*
X25373881Y-55165150D01*
X25488620Y-54987452D01*
X25567686Y-54791263D01*
X25608228Y-54583663D01*
X25608500Y-54578101D01*
X25608500Y-53872154D01*
X25593452Y-53714434D01*
X25533908Y-53511466D01*
X25486872Y-53420139D01*
X25439804Y-53328751D01*
X25439802Y-53328748D01*
X25437058Y-53323420D01*
X25306396Y-53157080D01*
X25301865Y-53153148D01*
X25301862Y-53153145D01*
X25151167Y-53022379D01*
X25146637Y-53018448D01*
X25141451Y-53015448D01*
X25141447Y-53015445D01*
X24968742Y-52915533D01*
X24963546Y-52912527D01*
X24763729Y-52843139D01*
X24757794Y-52842278D01*
X24757792Y-52842278D01*
X24560336Y-52813648D01*
X24560333Y-52813648D01*
X24554396Y-52812787D01*
X24343101Y-52822567D01*
X24211923Y-52854181D01*
X24143299Y-52870719D01*
X24143297Y-52870720D01*
X24137466Y-52872125D01*
X24132008Y-52874607D01*
X24132004Y-52874608D01*
X24016959Y-52926916D01*
X23944913Y-52959674D01*
X23772389Y-53082054D01*
X23768247Y-53086381D01*
X23768241Y-53086386D01*
X23681194Y-53177317D01*
X23619639Y-53212694D01*
X23548730Y-53209175D01*
X23490979Y-53167879D01*
X23483032Y-53156491D01*
X23448478Y-53100652D01*
X23323303Y-52975695D01*
X23220826Y-52912527D01*
X23178968Y-52886725D01*
X23178966Y-52886724D01*
X23172738Y-52882885D01*
X23012254Y-52829655D01*
X23011389Y-52829368D01*
X23011387Y-52829368D01*
X23004861Y-52827203D01*
X22998025Y-52826503D01*
X22998022Y-52826502D01*
X22954969Y-52822091D01*
X22900400Y-52816500D01*
X22099600Y-52816500D01*
X22096354Y-52816837D01*
X22096350Y-52816837D01*
X22000692Y-52826762D01*
X22000688Y-52826763D01*
X21993834Y-52827474D01*
X21987298Y-52829655D01*
X21987296Y-52829655D01*
X21864213Y-52870719D01*
X21826054Y-52883450D01*
X21675652Y-52976522D01*
X21550695Y-53101697D01*
X21546855Y-53107927D01*
X21546854Y-53107928D01*
X21509900Y-53167879D01*
X21457885Y-53252262D01*
X21402203Y-53420139D01*
X21391500Y-53524600D01*
X21391500Y-54875400D01*
X20508500Y-54875400D01*
X20508500Y-46506082D01*
X20862172Y-46506082D01*
X20862469Y-46511234D01*
X20862469Y-46511238D01*
X20867845Y-46604463D01*
X20875268Y-46733206D01*
X20876405Y-46738252D01*
X20876406Y-46738258D01*
X20896686Y-46828244D01*
X20925283Y-46955141D01*
X21010875Y-47165927D01*
X21129744Y-47359904D01*
X21278698Y-47531861D01*
X21453737Y-47677181D01*
X21458189Y-47679783D01*
X21458194Y-47679786D01*
X21552199Y-47734718D01*
X21650160Y-47791962D01*
X21862693Y-47873120D01*
X21867759Y-47874151D01*
X21867760Y-47874151D01*
X21966861Y-47894313D01*
X22085627Y-47918476D01*
X22213437Y-47923163D01*
X22307811Y-47926624D01*
X22307815Y-47926624D01*
X22312975Y-47926813D01*
X22318095Y-47926157D01*
X22318097Y-47926157D01*
X22533504Y-47898563D01*
X22533505Y-47898563D01*
X22538632Y-47897906D01*
X22621248Y-47873120D01*
X22751591Y-47834015D01*
X22751592Y-47834014D01*
X22756537Y-47832531D01*
X22960839Y-47732444D01*
X22965043Y-47729446D01*
X22965047Y-47729443D01*
X23141847Y-47603333D01*
X23141849Y-47603331D01*
X23146051Y-47600334D01*
X23307199Y-47439747D01*
X23361764Y-47363812D01*
X23436938Y-47259198D01*
X23436942Y-47259192D01*
X23439956Y-47254997D01*
X23540755Y-47051046D01*
X23606890Y-46833370D01*
X23620077Y-46733206D01*
X23636148Y-46611136D01*
X23636148Y-46611132D01*
X23636585Y-46607815D01*
X23638242Y-46540000D01*
X23619601Y-46313264D01*
X23564178Y-46092617D01*
X23473462Y-45883985D01*
X23349890Y-45692971D01*
X23196779Y-45524704D01*
X23018241Y-45383704D01*
X23009897Y-45379098D01*
X22959925Y-45328666D01*
X22945152Y-45259224D01*
X22970267Y-45192818D01*
X22997619Y-45166210D01*
X23141845Y-45063334D01*
X23146051Y-45060334D01*
X23307199Y-44899747D01*
X23361764Y-44823812D01*
X23436938Y-44719198D01*
X23436942Y-44719192D01*
X23439956Y-44714997D01*
X23540755Y-44511046D01*
X23606890Y-44293370D01*
X23620077Y-44193206D01*
X23636148Y-44071136D01*
X23636148Y-44071132D01*
X23636585Y-44067815D01*
X23638242Y-44000000D01*
X23619601Y-43773264D01*
X23564178Y-43552617D01*
X23491332Y-43385083D01*
X23475522Y-43348722D01*
X23475520Y-43348719D01*
X23473462Y-43343985D01*
X23386124Y-43208981D01*
X23352698Y-43157311D01*
X23352696Y-43157308D01*
X23349890Y-43152971D01*
X23196779Y-42984704D01*
X23018241Y-42843704D01*
X23009897Y-42839098D01*
X22959925Y-42788666D01*
X22945152Y-42719224D01*
X22970267Y-42652818D01*
X22997619Y-42626210D01*
X23141845Y-42523334D01*
X23146051Y-42520334D01*
X23307199Y-42359747D01*
X23361764Y-42283812D01*
X23436938Y-42179198D01*
X23436942Y-42179192D01*
X23439956Y-42174997D01*
X23540755Y-41971046D01*
X23606890Y-41753370D01*
X23620077Y-41653206D01*
X23636148Y-41531136D01*
X23636148Y-41531132D01*
X23636585Y-41527815D01*
X23636667Y-41524463D01*
X23638160Y-41463365D01*
X23638160Y-41463361D01*
X23638242Y-41460000D01*
X23619601Y-41233264D01*
X23564178Y-41012617D01*
X23509022Y-40885768D01*
X23475522Y-40808722D01*
X23475520Y-40808719D01*
X23473462Y-40803985D01*
X23374777Y-40651440D01*
X23352698Y-40617311D01*
X23352696Y-40617308D01*
X23349890Y-40612971D01*
X23196779Y-40444704D01*
X23018241Y-40303704D01*
X22980537Y-40282890D01*
X22965869Y-40274793D01*
X22819072Y-40193757D01*
X22814203Y-40192033D01*
X22814199Y-40192031D01*
X22609496Y-40119541D01*
X22609492Y-40119540D01*
X22604621Y-40117815D01*
X22599528Y-40116908D01*
X22599525Y-40116907D01*
X22385734Y-40078825D01*
X22385728Y-40078824D01*
X22380645Y-40077919D01*
X22307196Y-40077022D01*
X22158331Y-40075203D01*
X22158329Y-40075203D01*
X22153161Y-40075140D01*
X21928278Y-40109552D01*
X21712035Y-40180231D01*
X21707447Y-40182619D01*
X21707443Y-40182621D01*
X21514828Y-40282890D01*
X21510239Y-40285279D01*
X21506106Y-40288382D01*
X21506103Y-40288384D01*
X21485699Y-40303704D01*
X21328310Y-40421875D01*
X21324738Y-40425613D01*
X21211692Y-40543909D01*
X21171133Y-40586351D01*
X21042931Y-40774289D01*
X21040758Y-40778971D01*
X21040756Y-40778974D01*
X20974359Y-40922016D01*
X20947145Y-40980643D01*
X20886348Y-41199869D01*
X20885799Y-41205006D01*
X20869230Y-41360043D01*
X20862172Y-41426082D01*
X20862469Y-41431234D01*
X20862469Y-41431238D01*
X20865145Y-41477639D01*
X20875268Y-41653206D01*
X20876405Y-41658252D01*
X20876406Y-41658258D01*
X20896686Y-41748244D01*
X20925283Y-41875141D01*
X21010875Y-42085927D01*
X21129744Y-42279904D01*
X21278698Y-42451861D01*
X21453737Y-42597181D01*
X21458189Y-42599783D01*
X21458194Y-42599786D01*
X21492609Y-42619896D01*
X21541332Y-42671535D01*
X21554403Y-42741318D01*
X21527671Y-42807090D01*
X21504691Y-42829444D01*
X21332445Y-42958770D01*
X21328310Y-42961875D01*
X21171133Y-43126351D01*
X21042931Y-43314289D01*
X21040758Y-43318971D01*
X21040756Y-43318974D01*
X21010070Y-43385083D01*
X20947145Y-43520643D01*
X20886348Y-43739869D01*
X20885799Y-43745006D01*
X20866158Y-43928789D01*
X20862172Y-43966082D01*
X20862469Y-43971234D01*
X20862469Y-43971238D01*
X20867845Y-44064463D01*
X20875268Y-44193206D01*
X20876405Y-44198252D01*
X20876406Y-44198258D01*
X20893379Y-44273573D01*
X20925283Y-44415141D01*
X21010875Y-44625927D01*
X21129744Y-44819904D01*
X21278698Y-44991861D01*
X21453737Y-45137181D01*
X21458189Y-45139783D01*
X21458194Y-45139786D01*
X21492609Y-45159896D01*
X21541332Y-45211535D01*
X21554403Y-45281318D01*
X21527671Y-45347090D01*
X21504691Y-45369444D01*
X21332445Y-45498770D01*
X21328310Y-45501875D01*
X21171133Y-45666351D01*
X21042931Y-45854289D01*
X21040758Y-45858971D01*
X21040756Y-45858974D01*
X21026948Y-45888722D01*
X20947145Y-46060643D01*
X20886348Y-46279869D01*
X20862172Y-46506082D01*
X20508500Y-46506082D01*
X20508500Y-33626000D01*
X20528502Y-33557879D01*
X20582158Y-33511386D01*
X20634500Y-33500000D01*
X23809170Y-33500000D01*
X23873175Y-33518793D01*
G37*
G04 #@! TD.AperFunction*
G04 #@! TA.AperFunction,Conductor*
G36*
X36708512Y-38076119D02*
G01*
X36715095Y-38082248D01*
X39911151Y-41278304D01*
X39916788Y-41284322D01*
X39959494Y-41333019D01*
X40028973Y-41387793D01*
X40031517Y-41389853D01*
X40095092Y-41442728D01*
X40095102Y-41442735D01*
X40099539Y-41446425D01*
X40104583Y-41449250D01*
X40107641Y-41451351D01*
X40116921Y-41457552D01*
X40120005Y-41459555D01*
X40124537Y-41463128D01*
X40129638Y-41465812D01*
X40129643Y-41465815D01*
X40202829Y-41504319D01*
X40205719Y-41505889D01*
X40282903Y-41549114D01*
X40288378Y-41550972D01*
X40291767Y-41552481D01*
X40302026Y-41556889D01*
X40305418Y-41558294D01*
X40310527Y-41560982D01*
X40391095Y-41585999D01*
X40394998Y-41587211D01*
X40398136Y-41588230D01*
X40476437Y-41614810D01*
X40476439Y-41614810D01*
X40481911Y-41616668D01*
X40487635Y-41617498D01*
X40491247Y-41618365D01*
X40502138Y-41620830D01*
X40505716Y-41621591D01*
X40511234Y-41623304D01*
X40516971Y-41623983D01*
X40599101Y-41633703D01*
X40602367Y-41634133D01*
X40611794Y-41635500D01*
X40684184Y-41645997D01*
X40684188Y-41645997D01*
X40689897Y-41646825D01*
X40772054Y-41643597D01*
X40777001Y-41643500D01*
X46344624Y-41643500D01*
X46412745Y-41663502D01*
X46459238Y-41717158D01*
X46469342Y-41787432D01*
X46439848Y-41852012D01*
X46431058Y-41860972D01*
X46427164Y-41863801D01*
X46422742Y-41868712D01*
X46422741Y-41868713D01*
X46320999Y-41981710D01*
X46307409Y-41996803D01*
X46217923Y-42151797D01*
X46215881Y-42158082D01*
X46165143Y-42314239D01*
X46162618Y-42322009D01*
X46161928Y-42328572D01*
X46161928Y-42328573D01*
X46151805Y-42424883D01*
X46143910Y-42500000D01*
X46144600Y-42506565D01*
X46158651Y-42640244D01*
X46162618Y-42677991D01*
X46164658Y-42684269D01*
X46164658Y-42684270D01*
X46185518Y-42748469D01*
X46217923Y-42848203D01*
X46307409Y-43003197D01*
X46311827Y-43008104D01*
X46311828Y-43008105D01*
X46421674Y-43130102D01*
X46427164Y-43136199D01*
X46432506Y-43140080D01*
X46432508Y-43140082D01*
X46566613Y-43237515D01*
X46571955Y-43241396D01*
X46577983Y-43244080D01*
X46577985Y-43244081D01*
X46729423Y-43311505D01*
X46735454Y-43314190D01*
X46817037Y-43331531D01*
X46904057Y-43350028D01*
X46904061Y-43350028D01*
X46910514Y-43351400D01*
X47089486Y-43351400D01*
X47103400Y-43348443D01*
X47161329Y-43336130D01*
X47232120Y-43341533D01*
X47288752Y-43384350D01*
X47294669Y-43393074D01*
X47314022Y-43424348D01*
X47439197Y-43549305D01*
X47445427Y-43553145D01*
X47445428Y-43553146D01*
X47582590Y-43637694D01*
X47589762Y-43642115D01*
X47669505Y-43668564D01*
X47751111Y-43695632D01*
X47751113Y-43695632D01*
X47757639Y-43697797D01*
X47764475Y-43698497D01*
X47764478Y-43698498D01*
X47807531Y-43702909D01*
X47862100Y-43708500D01*
X48487900Y-43708500D01*
X48491146Y-43708163D01*
X48491150Y-43708163D01*
X48586808Y-43698238D01*
X48586812Y-43698237D01*
X48593666Y-43697526D01*
X48600202Y-43695345D01*
X48600204Y-43695345D01*
X48732306Y-43651272D01*
X48761446Y-43641550D01*
X48911848Y-43548478D01*
X48998284Y-43461891D01*
X49060566Y-43427812D01*
X49131386Y-43432815D01*
X49176475Y-43461736D01*
X49243840Y-43528983D01*
X49264197Y-43549305D01*
X49270428Y-43553146D01*
X49270431Y-43553148D01*
X49304617Y-43574221D01*
X49352110Y-43626993D01*
X49364500Y-43681480D01*
X49364500Y-44623001D01*
X49344498Y-44691122D01*
X49327673Y-44712018D01*
X49251716Y-44788108D01*
X49189434Y-44822188D01*
X49118614Y-44817185D01*
X49073525Y-44788264D01*
X48990983Y-44705866D01*
X48985803Y-44700695D01*
X48936821Y-44670502D01*
X48841468Y-44611725D01*
X48841466Y-44611724D01*
X48835238Y-44607885D01*
X48674754Y-44554655D01*
X48673889Y-44554368D01*
X48673887Y-44554368D01*
X48667361Y-44552203D01*
X48660525Y-44551503D01*
X48660522Y-44551502D01*
X48617469Y-44547091D01*
X48562900Y-44541500D01*
X47937100Y-44541500D01*
X47933854Y-44541837D01*
X47933850Y-44541837D01*
X47838192Y-44551762D01*
X47838188Y-44551763D01*
X47831334Y-44552474D01*
X47824798Y-44554655D01*
X47824796Y-44554655D01*
X47705373Y-44594498D01*
X47663554Y-44608450D01*
X47513152Y-44701522D01*
X47388195Y-44826697D01*
X47384355Y-44832927D01*
X47384354Y-44832928D01*
X47322145Y-44933850D01*
X47295385Y-44977262D01*
X47239703Y-45145139D01*
X47229000Y-45249600D01*
X47229000Y-46250400D01*
X47229337Y-46253646D01*
X47229337Y-46253650D01*
X47230100Y-46260998D01*
X47239974Y-46356166D01*
X47295950Y-46523946D01*
X47389022Y-46674348D01*
X47514197Y-46799305D01*
X47520428Y-46803146D01*
X47520431Y-46803148D01*
X47554617Y-46824221D01*
X47602110Y-46876993D01*
X47614500Y-46931480D01*
X47614500Y-47835902D01*
X47594498Y-47904023D01*
X47574849Y-47925721D01*
X47575652Y-47926522D01*
X47450695Y-48051697D01*
X47357885Y-48202262D01*
X47302203Y-48370139D01*
X47291500Y-48474600D01*
X47291500Y-49525400D01*
X47291837Y-49528646D01*
X47291837Y-49528650D01*
X47299418Y-49601710D01*
X47302474Y-49631166D01*
X47304655Y-49637702D01*
X47304655Y-49637704D01*
X47322211Y-49690326D01*
X47358450Y-49798946D01*
X47451522Y-49949348D01*
X47576697Y-50074305D01*
X47582929Y-50078147D01*
X47582931Y-50078148D01*
X47604617Y-50091516D01*
X47652110Y-50144289D01*
X47664500Y-50198775D01*
X47664500Y-50220980D01*
X47663970Y-50232214D01*
X47662292Y-50239719D01*
X47662541Y-50247638D01*
X47664438Y-50308012D01*
X47664500Y-50311969D01*
X47664500Y-50339983D01*
X47664996Y-50343908D01*
X47664996Y-50343909D01*
X47665008Y-50344004D01*
X47665941Y-50355849D01*
X47667335Y-50400205D01*
X47669547Y-50407817D01*
X47673013Y-50419748D01*
X47677023Y-50439112D01*
X47679573Y-50459299D01*
X47682489Y-50466663D01*
X47682490Y-50466668D01*
X47695907Y-50500556D01*
X47699752Y-50511785D01*
X47712131Y-50554393D01*
X47716169Y-50561220D01*
X47716170Y-50561223D01*
X47722488Y-50571906D01*
X47731188Y-50589664D01*
X47735761Y-50601215D01*
X47735765Y-50601221D01*
X47738681Y-50608588D01*
X47743339Y-50614999D01*
X47743340Y-50615001D01*
X47764764Y-50644488D01*
X47771281Y-50654410D01*
X47789826Y-50685768D01*
X47789829Y-50685772D01*
X47793866Y-50692598D01*
X47808250Y-50706982D01*
X47821091Y-50722016D01*
X47833058Y-50738487D01*
X47855738Y-50757249D01*
X47867255Y-50766777D01*
X47876035Y-50774767D01*
X48009820Y-50908552D01*
X48043846Y-50970864D01*
X48038781Y-51041679D01*
X47996234Y-51098515D01*
X47955878Y-51118643D01*
X47836399Y-51153355D01*
X47829572Y-51157392D01*
X47829573Y-51157392D01*
X47700020Y-51234009D01*
X47700017Y-51234011D01*
X47693193Y-51238047D01*
X47575547Y-51355693D01*
X47571511Y-51362517D01*
X47571509Y-51362520D01*
X47507893Y-51470089D01*
X47490855Y-51498899D01*
X47444438Y-51658669D01*
X47443934Y-51665074D01*
X47443933Y-51665079D01*
X47441693Y-51693542D01*
X47441500Y-51695998D01*
X47441500Y-52854002D01*
X47444438Y-52891331D01*
X47446233Y-52897508D01*
X47481369Y-53018448D01*
X47490855Y-53051101D01*
X47494892Y-53057927D01*
X47571509Y-53187480D01*
X47571511Y-53187483D01*
X47575547Y-53194307D01*
X47693193Y-53311953D01*
X47697002Y-53314206D01*
X47737655Y-53370496D01*
X47741506Y-53441388D01*
X47706418Y-53503109D01*
X47698724Y-53509776D01*
X47693193Y-53513047D01*
X47575547Y-53630693D01*
X47571511Y-53637517D01*
X47571509Y-53637520D01*
X47507893Y-53745089D01*
X47490855Y-53773899D01*
X47444438Y-53933669D01*
X47441500Y-53970998D01*
X47441500Y-55129002D01*
X47444438Y-55166331D01*
X47490855Y-55326101D01*
X47494892Y-55332927D01*
X47571509Y-55462480D01*
X47571511Y-55462483D01*
X47575547Y-55469307D01*
X47581155Y-55474915D01*
X47586011Y-55481175D01*
X47583866Y-55482839D01*
X47611621Y-55533667D01*
X47614500Y-55560450D01*
X47614500Y-55787458D01*
X47594498Y-55855579D01*
X47540842Y-55902072D01*
X47470568Y-55912176D01*
X47428572Y-55898294D01*
X47376512Y-55870146D01*
X47376510Y-55870145D01*
X47371089Y-55867214D01*
X47251200Y-55830102D01*
X47198441Y-55813770D01*
X47198438Y-55813769D01*
X47192554Y-55811948D01*
X47186429Y-55811304D01*
X47186428Y-55811304D01*
X47012813Y-55793056D01*
X47012812Y-55793056D01*
X47006685Y-55792412D01*
X46888087Y-55803206D01*
X46826703Y-55808792D01*
X46826702Y-55808792D01*
X46820562Y-55809351D01*
X46814648Y-55811092D01*
X46814646Y-55811092D01*
X46692466Y-55847052D01*
X46641273Y-55862119D01*
X46635808Y-55864976D01*
X46519662Y-55925695D01*
X46475647Y-55948705D01*
X46329995Y-56065813D01*
X46209862Y-56208981D01*
X46206899Y-56214370D01*
X46206896Y-56214375D01*
X46184014Y-56255998D01*
X46119826Y-56372757D01*
X46063315Y-56550901D01*
X46042482Y-56736630D01*
X46042998Y-56742774D01*
X46054779Y-56883063D01*
X46058121Y-56922867D01*
X46109636Y-57102520D01*
X46138359Y-57158410D01*
X46168627Y-57217304D01*
X46195064Y-57268746D01*
X46198887Y-57273570D01*
X46198890Y-57273574D01*
X46233208Y-57316872D01*
X46311152Y-57415212D01*
X46453478Y-57536342D01*
X46616621Y-57627519D01*
X46794367Y-57685272D01*
X46979945Y-57707401D01*
X46986080Y-57706929D01*
X46986082Y-57706929D01*
X47166287Y-57693063D01*
X47166381Y-57694279D01*
X47230540Y-57701433D01*
X47285644Y-57746199D01*
X47301385Y-57777771D01*
X47306131Y-57791997D01*
X47306133Y-57792002D01*
X47308450Y-57798946D01*
X47399027Y-57945316D01*
X47401522Y-57949348D01*
X47400832Y-57949775D01*
X47425269Y-58010142D01*
X47412100Y-58079907D01*
X47363304Y-58131477D01*
X47299886Y-58148600D01*
X47160514Y-58148600D01*
X47154061Y-58149972D01*
X47154057Y-58149972D01*
X47073407Y-58167115D01*
X46985454Y-58185810D01*
X46979424Y-58188495D01*
X46979423Y-58188495D01*
X46827985Y-58255919D01*
X46827983Y-58255920D01*
X46821955Y-58258604D01*
X46816614Y-58262484D01*
X46816613Y-58262485D01*
X46736716Y-58320534D01*
X46677164Y-58363801D01*
X46672743Y-58368711D01*
X46672742Y-58368712D01*
X46671491Y-58370102D01*
X46557409Y-58496803D01*
X46554108Y-58502521D01*
X46491174Y-58611526D01*
X46467923Y-58651797D01*
X46465881Y-58658082D01*
X46419327Y-58801362D01*
X46412618Y-58822009D01*
X46411928Y-58828572D01*
X46411928Y-58828573D01*
X46398182Y-58959356D01*
X46393910Y-59000000D01*
X46394600Y-59006565D01*
X46399396Y-59052190D01*
X46412618Y-59177991D01*
X46467923Y-59348203D01*
X46471226Y-59353925D01*
X46471227Y-59353926D01*
X46488386Y-59383646D01*
X46557409Y-59503197D01*
X46677164Y-59636199D01*
X46682506Y-59640080D01*
X46682508Y-59640082D01*
X46761219Y-59697269D01*
X46821955Y-59741396D01*
X46827983Y-59744080D01*
X46827985Y-59744081D01*
X46964242Y-59804746D01*
X46985454Y-59814190D01*
X47072984Y-59832795D01*
X47154057Y-59850028D01*
X47154061Y-59850028D01*
X47160514Y-59851400D01*
X47339486Y-59851400D01*
X47345939Y-59850028D01*
X47345943Y-59850028D01*
X47427016Y-59832795D01*
X47514546Y-59814190D01*
X47535758Y-59804746D01*
X47672015Y-59744081D01*
X47672017Y-59744080D01*
X47678045Y-59741396D01*
X47738781Y-59697269D01*
X47817492Y-59640082D01*
X47817494Y-59640080D01*
X47822836Y-59636199D01*
X47942591Y-59503197D01*
X48011614Y-59383646D01*
X48028773Y-59353926D01*
X48028774Y-59353925D01*
X48032077Y-59348203D01*
X48087382Y-59177991D01*
X48100605Y-59052190D01*
X48105400Y-59006565D01*
X48106090Y-59000000D01*
X48101818Y-58959356D01*
X48088072Y-58828573D01*
X48088072Y-58828572D01*
X48087382Y-58822009D01*
X48080674Y-58801362D01*
X48034119Y-58658082D01*
X48032077Y-58651797D01*
X48008827Y-58611526D01*
X47945892Y-58502521D01*
X47942591Y-58496803D01*
X47894876Y-58443810D01*
X47864158Y-58379803D01*
X47865365Y-58370102D01*
X51784641Y-58370102D01*
X51820232Y-58577228D01*
X51892972Y-58774399D01*
X51895924Y-58779360D01*
X51895924Y-58779361D01*
X51912380Y-58807020D01*
X52000426Y-58955012D01*
X52138994Y-59113019D01*
X52143524Y-59116590D01*
X52294431Y-59235555D01*
X52304037Y-59243128D01*
X52309153Y-59245819D01*
X52309155Y-59245821D01*
X52484910Y-59338290D01*
X52490027Y-59340982D01*
X52690734Y-59403304D01*
X52696469Y-59403983D01*
X52696470Y-59403983D01*
X52727032Y-59407600D01*
X52861374Y-59423500D01*
X53363816Y-59423500D01*
X53519779Y-59409169D01*
X53525341Y-59407600D01*
X53525343Y-59407600D01*
X53701221Y-59357997D01*
X53722049Y-59352123D01*
X53910537Y-59259171D01*
X54019251Y-59177991D01*
X54074305Y-59136880D01*
X54074306Y-59136879D01*
X54078929Y-59133427D01*
X54101805Y-59108680D01*
X54217667Y-58983341D01*
X54217669Y-58983338D01*
X54221586Y-58979101D01*
X54333731Y-58801362D01*
X54411608Y-58606163D01*
X54412733Y-58600506D01*
X54412735Y-58600500D01*
X54451481Y-58405707D01*
X54451481Y-58405705D01*
X54452608Y-58400040D01*
X54452926Y-58375800D01*
X54454409Y-58262485D01*
X54455359Y-58189898D01*
X54450685Y-58162694D01*
X54420747Y-57988469D01*
X54420747Y-57988468D01*
X54419768Y-57982772D01*
X54347028Y-57785601D01*
X54287338Y-57685272D01*
X54242528Y-57609953D01*
X54242527Y-57609952D01*
X54239574Y-57604988D01*
X54101006Y-57446981D01*
X53935963Y-57316872D01*
X53930847Y-57314181D01*
X53930845Y-57314179D01*
X53755090Y-57221710D01*
X53755088Y-57221709D01*
X53749973Y-57219018D01*
X53549266Y-57156696D01*
X53543531Y-57156017D01*
X53543530Y-57156017D01*
X53495242Y-57150302D01*
X53378626Y-57136500D01*
X52876184Y-57136500D01*
X52720221Y-57150831D01*
X52714659Y-57152400D01*
X52714657Y-57152400D01*
X52619086Y-57179354D01*
X52517951Y-57207877D01*
X52329463Y-57300829D01*
X52161071Y-57426573D01*
X52157157Y-57430807D01*
X52157155Y-57430809D01*
X52069717Y-57525400D01*
X52018414Y-57580899D01*
X51906269Y-57758638D01*
X51828392Y-57953837D01*
X51827267Y-57959494D01*
X51827265Y-57959500D01*
X51788519Y-58154293D01*
X51787392Y-58159960D01*
X51787316Y-58165735D01*
X51787316Y-58165739D01*
X51786551Y-58224196D01*
X51784641Y-58370102D01*
X47865365Y-58370102D01*
X47872923Y-58309349D01*
X47918386Y-58254818D01*
X47988512Y-58233500D01*
X48550400Y-58233500D01*
X48553646Y-58233163D01*
X48553650Y-58233163D01*
X48649308Y-58223238D01*
X48649312Y-58223237D01*
X48656166Y-58222526D01*
X48662702Y-58220345D01*
X48662704Y-58220345D01*
X48816998Y-58168868D01*
X48823946Y-58166550D01*
X48974348Y-58073478D01*
X49099305Y-57948303D01*
X49192115Y-57797738D01*
X49247797Y-57629861D01*
X49248517Y-57622839D01*
X49258172Y-57528598D01*
X49258500Y-57525400D01*
X49258500Y-56474600D01*
X49252768Y-56419356D01*
X49248238Y-56375692D01*
X49248237Y-56375688D01*
X49247526Y-56368834D01*
X49191550Y-56201054D01*
X49098478Y-56050652D01*
X48973303Y-55925695D01*
X48967069Y-55921852D01*
X48945383Y-55908484D01*
X48897890Y-55855711D01*
X48892067Y-55830102D01*
X51784641Y-55830102D01*
X51785620Y-55835799D01*
X51785620Y-55835800D01*
X51803917Y-55942280D01*
X51820232Y-56037228D01*
X51892972Y-56234399D01*
X52000426Y-56415012D01*
X52138994Y-56573019D01*
X52304037Y-56703128D01*
X52309153Y-56705819D01*
X52309155Y-56705821D01*
X52484910Y-56798290D01*
X52490027Y-56800982D01*
X52690734Y-56863304D01*
X52696469Y-56863983D01*
X52696470Y-56863983D01*
X52727032Y-56867600D01*
X52861374Y-56883500D01*
X53363816Y-56883500D01*
X53519779Y-56869169D01*
X53525341Y-56867600D01*
X53525343Y-56867600D01*
X53620914Y-56840646D01*
X53722049Y-56812123D01*
X53910537Y-56719171D01*
X54078929Y-56593427D01*
X54112583Y-56557020D01*
X54217667Y-56443341D01*
X54217669Y-56443338D01*
X54221586Y-56439101D01*
X54333731Y-56261362D01*
X54411608Y-56066163D01*
X54412733Y-56060506D01*
X54412735Y-56060500D01*
X54451481Y-55865707D01*
X54451481Y-55865705D01*
X54452608Y-55860040D01*
X54452926Y-55835800D01*
X54455283Y-55655680D01*
X54455359Y-55649898D01*
X54434392Y-55527875D01*
X54420747Y-55448469D01*
X54420747Y-55448468D01*
X54419768Y-55442772D01*
X54347028Y-55245601D01*
X54299867Y-55166331D01*
X54242528Y-55069953D01*
X54242527Y-55069952D01*
X54239574Y-55064988D01*
X54101006Y-54906981D01*
X53935963Y-54776872D01*
X53930847Y-54774181D01*
X53930845Y-54774179D01*
X53755090Y-54681710D01*
X53755088Y-54681709D01*
X53749973Y-54679018D01*
X53549266Y-54616696D01*
X53543531Y-54616017D01*
X53543530Y-54616017D01*
X53495242Y-54610302D01*
X53378626Y-54596500D01*
X52876184Y-54596500D01*
X52720221Y-54610831D01*
X52714659Y-54612400D01*
X52714657Y-54612400D01*
X52619086Y-54639354D01*
X52517951Y-54667877D01*
X52329463Y-54760829D01*
X52161071Y-54886573D01*
X52157157Y-54890807D01*
X52157155Y-54890809D01*
X52040560Y-55016942D01*
X52018414Y-55040899D01*
X51906269Y-55218638D01*
X51828392Y-55413837D01*
X51827267Y-55419494D01*
X51827265Y-55419500D01*
X51793154Y-55590991D01*
X51787392Y-55619960D01*
X51787316Y-55625735D01*
X51787316Y-55625739D01*
X51787000Y-55649898D01*
X51784641Y-55830102D01*
X48892067Y-55830102D01*
X48885500Y-55801225D01*
X48885500Y-55560450D01*
X48905502Y-55492329D01*
X48914298Y-55481415D01*
X48913989Y-55481175D01*
X48918845Y-55474915D01*
X48924453Y-55469307D01*
X48928489Y-55462483D01*
X48928491Y-55462480D01*
X49005108Y-55332927D01*
X49009145Y-55326101D01*
X49055562Y-55166331D01*
X49058500Y-55129002D01*
X49058500Y-53970998D01*
X49055562Y-53933669D01*
X49009145Y-53773899D01*
X48927672Y-53636137D01*
X48910214Y-53567323D01*
X48932731Y-53499992D01*
X48988075Y-53455522D01*
X49036127Y-53446000D01*
X49363873Y-53446000D01*
X49431994Y-53466002D01*
X49478487Y-53519658D01*
X49488591Y-53589932D01*
X49472328Y-53636136D01*
X49390855Y-53773899D01*
X49344438Y-53933669D01*
X49341500Y-53970998D01*
X49341500Y-55129002D01*
X49344438Y-55166331D01*
X49390855Y-55326101D01*
X49394892Y-55332927D01*
X49471509Y-55462480D01*
X49471511Y-55462483D01*
X49475547Y-55469307D01*
X49593193Y-55586953D01*
X49600017Y-55590989D01*
X49600020Y-55590991D01*
X49658776Y-55625739D01*
X49736399Y-55671645D01*
X49744010Y-55673856D01*
X49744012Y-55673857D01*
X49796231Y-55689028D01*
X49896169Y-55718062D01*
X49902574Y-55718566D01*
X49902579Y-55718567D01*
X49931042Y-55720807D01*
X49931050Y-55720807D01*
X49933498Y-55721000D01*
X50366502Y-55721000D01*
X50368950Y-55720807D01*
X50368958Y-55720807D01*
X50397421Y-55718567D01*
X50397426Y-55718566D01*
X50403831Y-55718062D01*
X50503769Y-55689028D01*
X50555988Y-55673857D01*
X50555990Y-55673856D01*
X50563601Y-55671645D01*
X50641224Y-55625739D01*
X50699980Y-55590991D01*
X50699983Y-55590989D01*
X50706807Y-55586953D01*
X50824453Y-55469307D01*
X50828489Y-55462483D01*
X50828491Y-55462480D01*
X50905108Y-55332927D01*
X50909145Y-55326101D01*
X50933974Y-55240639D01*
X50950335Y-55184324D01*
X50988548Y-55124489D01*
X51005846Y-55112404D01*
X51008588Y-55111319D01*
X51044491Y-55085234D01*
X51054410Y-55078719D01*
X51085768Y-55060174D01*
X51085772Y-55060171D01*
X51092598Y-55056134D01*
X51106982Y-55041750D01*
X51122016Y-55028909D01*
X51132073Y-55021602D01*
X51138487Y-55016942D01*
X51166773Y-54982750D01*
X51174763Y-54973969D01*
X51893488Y-54255245D01*
X51901807Y-54247675D01*
X51908303Y-54243553D01*
X51955086Y-54193734D01*
X51957840Y-54190893D01*
X51977639Y-54171094D01*
X51980063Y-54167969D01*
X51980071Y-54167960D01*
X51980137Y-54167874D01*
X51987845Y-54158849D01*
X52012790Y-54132285D01*
X52018217Y-54126506D01*
X52022036Y-54119560D01*
X52026696Y-54113146D01*
X52029214Y-54114975D01*
X52069266Y-54075130D01*
X52138679Y-54060218D01*
X52207371Y-54086923D01*
X52264913Y-54132285D01*
X52304037Y-54163128D01*
X52309153Y-54165819D01*
X52309155Y-54165821D01*
X52484910Y-54258290D01*
X52490027Y-54260982D01*
X52690734Y-54323304D01*
X52696469Y-54323983D01*
X52696470Y-54323983D01*
X52727032Y-54327600D01*
X52861374Y-54343500D01*
X53363816Y-54343500D01*
X53519779Y-54329169D01*
X53525341Y-54327600D01*
X53525343Y-54327600D01*
X53620914Y-54300646D01*
X53722049Y-54272123D01*
X53910537Y-54179171D01*
X53921354Y-54171094D01*
X54074305Y-54056880D01*
X54074306Y-54056879D01*
X54078929Y-54053427D01*
X54141440Y-53985803D01*
X54217667Y-53903341D01*
X54217669Y-53903338D01*
X54221586Y-53899101D01*
X54333731Y-53721362D01*
X54411608Y-53526163D01*
X54412733Y-53520506D01*
X54412735Y-53520500D01*
X54451481Y-53325707D01*
X54451481Y-53325705D01*
X54452608Y-53320040D01*
X54452788Y-53306343D01*
X54455283Y-53115680D01*
X54455359Y-53109898D01*
X54450575Y-53082054D01*
X54420747Y-52908469D01*
X54420747Y-52908468D01*
X54419768Y-52902772D01*
X54347028Y-52705601D01*
X54285536Y-52602243D01*
X54242528Y-52529953D01*
X54242527Y-52529952D01*
X54239574Y-52524988D01*
X54101006Y-52366981D01*
X54036985Y-52316511D01*
X53940502Y-52240450D01*
X53940500Y-52240449D01*
X53935963Y-52236872D01*
X53930847Y-52234181D01*
X53930845Y-52234179D01*
X53755090Y-52141710D01*
X53755088Y-52141709D01*
X53749973Y-52139018D01*
X53549266Y-52076696D01*
X53543531Y-52076017D01*
X53543530Y-52076017D01*
X53495242Y-52070302D01*
X53378626Y-52056500D01*
X52876184Y-52056500D01*
X52720221Y-52070831D01*
X52714659Y-52072400D01*
X52714657Y-52072400D01*
X52619086Y-52099354D01*
X52517951Y-52127877D01*
X52329463Y-52220829D01*
X52326630Y-52222945D01*
X52258797Y-52241291D01*
X52191121Y-52219832D01*
X52145790Y-52165191D01*
X52135500Y-52115320D01*
X52135500Y-51743122D01*
X52155502Y-51675001D01*
X52209158Y-51628508D01*
X52279432Y-51618404D01*
X52320163Y-51631613D01*
X52490027Y-51720982D01*
X52690734Y-51783304D01*
X52696469Y-51783983D01*
X52696470Y-51783983D01*
X52727032Y-51787600D01*
X52861374Y-51803500D01*
X53363816Y-51803500D01*
X53519779Y-51789169D01*
X53525341Y-51787600D01*
X53525343Y-51787600D01*
X53683049Y-51743122D01*
X53722049Y-51732123D01*
X53910537Y-51639171D01*
X53938348Y-51618404D01*
X54074305Y-51516880D01*
X54074306Y-51516879D01*
X54078929Y-51513427D01*
X54085321Y-51506512D01*
X54217667Y-51363341D01*
X54217669Y-51363338D01*
X54221586Y-51359101D01*
X54333731Y-51181362D01*
X54411608Y-50986163D01*
X54412733Y-50980506D01*
X54412735Y-50980500D01*
X54451481Y-50785707D01*
X54451481Y-50785705D01*
X54452608Y-50780040D01*
X54452816Y-50764197D01*
X54454320Y-50649296D01*
X54455359Y-50569898D01*
X54453017Y-50556265D01*
X54420747Y-50368469D01*
X54420747Y-50368468D01*
X54419768Y-50362772D01*
X54347028Y-50165601D01*
X54340046Y-50153865D01*
X54242528Y-49989953D01*
X54242527Y-49989952D01*
X54239574Y-49984988D01*
X54101006Y-49826981D01*
X53935963Y-49696872D01*
X53930847Y-49694181D01*
X53930845Y-49694179D01*
X53755090Y-49601710D01*
X53755088Y-49601709D01*
X53749973Y-49599018D01*
X53549266Y-49536696D01*
X53543531Y-49536017D01*
X53543530Y-49536017D01*
X53495242Y-49530302D01*
X53378626Y-49516500D01*
X52876184Y-49516500D01*
X52720221Y-49530831D01*
X52714659Y-49532400D01*
X52714657Y-49532400D01*
X52619086Y-49559354D01*
X52517951Y-49587877D01*
X52329463Y-49680829D01*
X52324837Y-49684283D01*
X52324836Y-49684284D01*
X52171285Y-49798946D01*
X52161071Y-49806573D01*
X52157157Y-49810807D01*
X52157155Y-49810809D01*
X52024310Y-49954521D01*
X52018414Y-49960899D01*
X52015333Y-49965783D01*
X52011816Y-49970366D01*
X52010656Y-49969476D01*
X51962677Y-50011758D01*
X51900935Y-50022437D01*
X51900281Y-50022291D01*
X51892357Y-50022540D01*
X51831970Y-50024438D01*
X51828012Y-50024500D01*
X51800017Y-50024500D01*
X51796083Y-50024997D01*
X51796081Y-50024997D01*
X51795994Y-50025008D01*
X51784160Y-50025940D01*
X51739795Y-50027335D01*
X51732182Y-50029547D01*
X51732181Y-50029547D01*
X51720252Y-50033013D01*
X51700888Y-50037023D01*
X51688560Y-50038580D01*
X51688558Y-50038580D01*
X51680701Y-50039573D01*
X51673337Y-50042489D01*
X51673332Y-50042490D01*
X51639444Y-50055907D01*
X51628215Y-50059752D01*
X51619642Y-50062243D01*
X51585607Y-50072131D01*
X51578781Y-50076168D01*
X51568091Y-50082490D01*
X51550341Y-50091187D01*
X51531412Y-50098681D01*
X51524998Y-50103341D01*
X51495514Y-50124762D01*
X51485594Y-50131278D01*
X51454229Y-50149827D01*
X51454226Y-50149829D01*
X51447402Y-50153865D01*
X51433014Y-50168253D01*
X51417980Y-50181094D01*
X51401513Y-50193058D01*
X51396460Y-50199166D01*
X51373228Y-50227249D01*
X51365238Y-50236029D01*
X51106517Y-50494750D01*
X51098191Y-50502326D01*
X51091697Y-50506447D01*
X51086274Y-50512222D01*
X51044915Y-50556265D01*
X51042160Y-50559107D01*
X51022361Y-50578906D01*
X51019937Y-50582031D01*
X51019929Y-50582040D01*
X51019863Y-50582126D01*
X51012155Y-50591151D01*
X50981783Y-50623494D01*
X50977965Y-50630438D01*
X50977964Y-50630440D01*
X50971978Y-50641329D01*
X50961127Y-50657847D01*
X50948650Y-50673933D01*
X50931024Y-50714666D01*
X50925807Y-50725314D01*
X50904431Y-50764197D01*
X50902460Y-50771872D01*
X50902458Y-50771878D01*
X50899369Y-50783911D01*
X50892966Y-50802613D01*
X50884883Y-50821292D01*
X50883644Y-50829117D01*
X50877940Y-50865127D01*
X50875535Y-50876740D01*
X50864500Y-50919718D01*
X50864500Y-50940065D01*
X50862949Y-50959776D01*
X50859765Y-50979879D01*
X50860511Y-50987771D01*
X50863941Y-51024056D01*
X50864500Y-51035914D01*
X50864500Y-53385405D01*
X50844498Y-53453526D01*
X50790842Y-53500019D01*
X50720568Y-53510123D01*
X50674363Y-53493860D01*
X50563601Y-53428355D01*
X50555990Y-53426144D01*
X50555988Y-53426143D01*
X50454453Y-53396645D01*
X50403831Y-53381938D01*
X50397426Y-53381434D01*
X50397421Y-53381433D01*
X50368958Y-53379193D01*
X50368950Y-53379193D01*
X50366502Y-53379000D01*
X49986127Y-53379000D01*
X49918006Y-53358998D01*
X49871513Y-53305342D01*
X49861409Y-53235068D01*
X49877672Y-53188864D01*
X49959145Y-53051101D01*
X49968632Y-53018448D01*
X50003767Y-52897508D01*
X50005562Y-52891331D01*
X50008500Y-52854002D01*
X50008500Y-51695998D01*
X50008307Y-51693542D01*
X50006067Y-51665079D01*
X50006066Y-51665074D01*
X50005562Y-51658669D01*
X49959145Y-51498899D01*
X49942107Y-51470089D01*
X49878491Y-51362520D01*
X49878489Y-51362517D01*
X49874453Y-51355693D01*
X49868844Y-51350084D01*
X49863989Y-51343825D01*
X49866533Y-51341852D01*
X49839629Y-51292583D01*
X49837694Y-51260342D01*
X49837708Y-51260281D01*
X49835562Y-51191988D01*
X49835500Y-51188031D01*
X49835500Y-51160017D01*
X49834992Y-51155996D01*
X49834058Y-51144144D01*
X49832914Y-51107718D01*
X49832914Y-51107717D01*
X49832665Y-51099795D01*
X49826987Y-51080251D01*
X49822977Y-51060888D01*
X49821420Y-51048560D01*
X49821420Y-51048558D01*
X49820427Y-51040701D01*
X49817511Y-51033337D01*
X49817510Y-51033332D01*
X49804093Y-50999444D01*
X49800248Y-50988215D01*
X49790080Y-50953219D01*
X49787869Y-50945607D01*
X49777510Y-50928091D01*
X49768813Y-50910341D01*
X49761319Y-50891412D01*
X49735240Y-50855517D01*
X49728722Y-50845595D01*
X49710170Y-50814224D01*
X49710166Y-50814219D01*
X49706134Y-50807401D01*
X49691747Y-50793014D01*
X49678906Y-50777980D01*
X49671602Y-50767927D01*
X49666942Y-50761513D01*
X49632750Y-50733227D01*
X49623971Y-50725238D01*
X49087320Y-50188587D01*
X49053294Y-50126275D01*
X49058359Y-50055460D01*
X49087242Y-50010474D01*
X49107728Y-49989953D01*
X49149305Y-49948303D01*
X49223811Y-49827433D01*
X49238275Y-49803968D01*
X49238276Y-49803966D01*
X49242115Y-49797738D01*
X49297797Y-49629861D01*
X49308500Y-49525400D01*
X49308500Y-48474600D01*
X49306106Y-48451526D01*
X49298238Y-48375692D01*
X49298237Y-48375688D01*
X49297526Y-48368834D01*
X49244569Y-48210102D01*
X51784641Y-48210102D01*
X51785620Y-48215799D01*
X51785620Y-48215800D01*
X51813095Y-48375692D01*
X51820232Y-48417228D01*
X51892972Y-48614399D01*
X52000426Y-48795012D01*
X52138994Y-48953019D01*
X52304037Y-49083128D01*
X52309153Y-49085819D01*
X52309155Y-49085821D01*
X52484910Y-49178290D01*
X52490027Y-49180982D01*
X52690734Y-49243304D01*
X52696469Y-49243983D01*
X52696470Y-49243983D01*
X52727032Y-49247600D01*
X52861374Y-49263500D01*
X53363816Y-49263500D01*
X53519779Y-49249169D01*
X53525341Y-49247600D01*
X53525343Y-49247600D01*
X53620914Y-49220646D01*
X53722049Y-49192123D01*
X53910537Y-49099171D01*
X53988086Y-49041263D01*
X54074305Y-48976880D01*
X54074306Y-48976879D01*
X54078929Y-48973427D01*
X54101805Y-48948680D01*
X54217667Y-48823341D01*
X54217669Y-48823338D01*
X54221586Y-48819101D01*
X54333731Y-48641362D01*
X54411608Y-48446163D01*
X54412733Y-48440506D01*
X54412735Y-48440500D01*
X54451481Y-48245707D01*
X54451481Y-48245705D01*
X54452608Y-48240040D01*
X54452926Y-48215800D01*
X54455006Y-48056880D01*
X54455359Y-48029898D01*
X54419768Y-47822772D01*
X54347028Y-47625601D01*
X54328082Y-47593755D01*
X54242528Y-47449953D01*
X54242527Y-47449952D01*
X54239574Y-47444988D01*
X54101006Y-47286981D01*
X54002942Y-47209674D01*
X53940502Y-47160450D01*
X53940500Y-47160449D01*
X53935963Y-47156872D01*
X53930847Y-47154181D01*
X53930845Y-47154179D01*
X53755090Y-47061710D01*
X53755088Y-47061709D01*
X53749973Y-47059018D01*
X53549266Y-46996696D01*
X53543531Y-46996017D01*
X53543530Y-46996017D01*
X53495242Y-46990302D01*
X53378626Y-46976500D01*
X52876184Y-46976500D01*
X52720221Y-46990831D01*
X52714659Y-46992400D01*
X52714657Y-46992400D01*
X52619086Y-47019354D01*
X52517951Y-47047877D01*
X52329463Y-47140829D01*
X52161071Y-47266573D01*
X52018414Y-47420899D01*
X51906269Y-47598638D01*
X51828392Y-47793837D01*
X51827267Y-47799494D01*
X51827265Y-47799500D01*
X51794458Y-47964434D01*
X51787392Y-47999960D01*
X51787316Y-48005735D01*
X51787316Y-48005739D01*
X51786728Y-48050652D01*
X51784641Y-48210102D01*
X49244569Y-48210102D01*
X49241550Y-48201054D01*
X49148478Y-48050652D01*
X49023303Y-47925695D01*
X48945384Y-47877665D01*
X48897891Y-47824893D01*
X48885500Y-47770405D01*
X48885500Y-46931396D01*
X48905502Y-46863275D01*
X48945196Y-46824253D01*
X48986848Y-46798478D01*
X49073284Y-46711891D01*
X49135566Y-46677812D01*
X49206386Y-46682815D01*
X49251476Y-46711736D01*
X49339197Y-46799305D01*
X49345427Y-46803145D01*
X49345428Y-46803146D01*
X49482590Y-46887694D01*
X49489762Y-46892115D01*
X49569505Y-46918564D01*
X49651111Y-46945632D01*
X49651113Y-46945632D01*
X49657639Y-46947797D01*
X49664475Y-46948497D01*
X49664478Y-46948498D01*
X49707531Y-46952909D01*
X49762100Y-46958500D01*
X50387900Y-46958500D01*
X50391146Y-46958163D01*
X50391150Y-46958163D01*
X50486808Y-46948238D01*
X50486812Y-46948237D01*
X50493666Y-46947526D01*
X50500202Y-46945345D01*
X50500204Y-46945345D01*
X50632306Y-46901272D01*
X50661446Y-46891550D01*
X50811848Y-46798478D01*
X50936805Y-46673303D01*
X50940646Y-46667072D01*
X51025775Y-46528968D01*
X51025776Y-46528966D01*
X51029615Y-46522738D01*
X51085297Y-46354861D01*
X51096000Y-46250400D01*
X51096000Y-45670102D01*
X51784641Y-45670102D01*
X51785620Y-45675799D01*
X51785620Y-45675800D01*
X51816762Y-45857034D01*
X51820232Y-45877228D01*
X51892972Y-46074399D01*
X51895924Y-46079360D01*
X51895924Y-46079361D01*
X51971814Y-46206919D01*
X52000426Y-46255012D01*
X52138994Y-46413019D01*
X52143524Y-46416590D01*
X52279705Y-46523946D01*
X52304037Y-46543128D01*
X52309153Y-46545819D01*
X52309155Y-46545821D01*
X52395169Y-46591075D01*
X52490027Y-46640982D01*
X52690734Y-46703304D01*
X52696469Y-46703983D01*
X52696470Y-46703983D01*
X52727032Y-46707600D01*
X52861374Y-46723500D01*
X53363816Y-46723500D01*
X53519779Y-46709169D01*
X53525341Y-46707600D01*
X53525343Y-46707600D01*
X53665328Y-46668120D01*
X53722049Y-46652123D01*
X53910537Y-46559171D01*
X54078929Y-46433427D01*
X54101805Y-46408680D01*
X54217667Y-46283341D01*
X54217669Y-46283338D01*
X54221586Y-46279101D01*
X54333731Y-46101362D01*
X54411608Y-45906163D01*
X54412733Y-45900506D01*
X54412735Y-45900500D01*
X54451481Y-45705707D01*
X54451481Y-45705705D01*
X54452608Y-45700040D01*
X54452926Y-45675800D01*
X54455283Y-45495680D01*
X54455359Y-45489898D01*
X54419768Y-45282772D01*
X54347028Y-45085601D01*
X54239574Y-44904988D01*
X54101006Y-44746981D01*
X54025047Y-44687100D01*
X53940502Y-44620450D01*
X53940500Y-44620449D01*
X53935963Y-44616872D01*
X53930847Y-44614181D01*
X53930845Y-44614179D01*
X53755090Y-44521710D01*
X53755088Y-44521709D01*
X53749973Y-44519018D01*
X53549266Y-44456696D01*
X53543531Y-44456017D01*
X53543530Y-44456017D01*
X53495242Y-44450302D01*
X53378626Y-44436500D01*
X52876184Y-44436500D01*
X52720221Y-44450831D01*
X52714659Y-44452400D01*
X52714657Y-44452400D01*
X52619086Y-44479354D01*
X52517951Y-44507877D01*
X52329463Y-44600829D01*
X52324837Y-44604283D01*
X52324836Y-44604284D01*
X52165695Y-44723120D01*
X52161071Y-44726573D01*
X52157157Y-44730807D01*
X52157155Y-44730809D01*
X52057892Y-44838192D01*
X52018414Y-44880899D01*
X51906269Y-45058638D01*
X51828392Y-45253837D01*
X51827267Y-45259494D01*
X51827265Y-45259500D01*
X51795606Y-45418666D01*
X51787392Y-45459960D01*
X51787316Y-45465735D01*
X51787316Y-45465739D01*
X51786044Y-45562900D01*
X51784641Y-45670102D01*
X51096000Y-45670102D01*
X51096000Y-45249600D01*
X51085026Y-45143834D01*
X51063943Y-45080639D01*
X51031368Y-44983002D01*
X51029050Y-44976054D01*
X50935978Y-44825652D01*
X50810803Y-44700695D01*
X50785693Y-44685217D01*
X50695384Y-44629549D01*
X50647890Y-44576776D01*
X50635500Y-44522289D01*
X50635500Y-43681396D01*
X50655502Y-43613275D01*
X50695196Y-43574253D01*
X50736848Y-43548478D01*
X50750903Y-43534399D01*
X50856634Y-43428483D01*
X50861805Y-43423303D01*
X50897027Y-43366163D01*
X50950775Y-43278968D01*
X50950776Y-43278966D01*
X50954615Y-43272738D01*
X50971500Y-43221832D01*
X51011932Y-43163472D01*
X51077496Y-43136236D01*
X51091093Y-43135500D01*
X51170980Y-43135500D01*
X51182214Y-43136030D01*
X51189719Y-43137708D01*
X51258012Y-43135562D01*
X51261969Y-43135500D01*
X51289983Y-43135500D01*
X51293908Y-43135004D01*
X51293909Y-43135004D01*
X51294004Y-43134992D01*
X51305849Y-43134059D01*
X51335670Y-43133122D01*
X51342282Y-43132914D01*
X51342283Y-43132914D01*
X51350205Y-43132665D01*
X51369749Y-43126987D01*
X51389112Y-43122977D01*
X51401440Y-43121420D01*
X51401442Y-43121420D01*
X51409299Y-43120427D01*
X51416663Y-43117511D01*
X51416668Y-43117510D01*
X51450556Y-43104093D01*
X51461785Y-43100248D01*
X51478465Y-43095402D01*
X51504393Y-43087869D01*
X51511220Y-43083831D01*
X51511223Y-43083830D01*
X51521906Y-43077512D01*
X51539664Y-43068812D01*
X51551215Y-43064239D01*
X51551221Y-43064235D01*
X51558588Y-43061319D01*
X51585775Y-43041567D01*
X51652641Y-43017708D01*
X51721793Y-43033787D01*
X51771274Y-43084701D01*
X51784440Y-43130137D01*
X51784641Y-43130102D01*
X51820232Y-43337228D01*
X51892972Y-43534399D01*
X51895924Y-43539360D01*
X51895924Y-43539361D01*
X51996357Y-43708172D01*
X52000426Y-43715012D01*
X52138994Y-43873019D01*
X52143524Y-43876590D01*
X52273431Y-43979000D01*
X52304037Y-44003128D01*
X52309153Y-44005819D01*
X52309155Y-44005821D01*
X52384354Y-44045385D01*
X52490027Y-44100982D01*
X52690734Y-44163304D01*
X52696469Y-44163983D01*
X52696470Y-44163983D01*
X52713369Y-44165983D01*
X52861374Y-44183500D01*
X53363816Y-44183500D01*
X53519779Y-44169169D01*
X53525341Y-44167600D01*
X53525343Y-44167600D01*
X53639160Y-44135500D01*
X53722049Y-44112123D01*
X53910537Y-44019171D01*
X54078929Y-43893427D01*
X54114204Y-43855267D01*
X54217667Y-43743341D01*
X54217669Y-43743338D01*
X54221586Y-43739101D01*
X54333731Y-43561362D01*
X54411608Y-43366163D01*
X54412733Y-43360506D01*
X54412735Y-43360500D01*
X54451481Y-43165707D01*
X54451481Y-43165705D01*
X54452608Y-43160040D01*
X54452870Y-43140082D01*
X54454261Y-43033787D01*
X54455359Y-42949898D01*
X54437885Y-42848203D01*
X54420747Y-42748469D01*
X54420747Y-42748468D01*
X54419768Y-42742772D01*
X54347028Y-42545601D01*
X54344201Y-42540850D01*
X54332941Y-42470833D01*
X54361355Y-42405770D01*
X54411556Y-42369533D01*
X54433723Y-42360757D01*
X54450557Y-42354092D01*
X54461785Y-42350248D01*
X54478465Y-42345402D01*
X54504393Y-42337869D01*
X54511220Y-42333831D01*
X54511223Y-42333830D01*
X54521906Y-42327512D01*
X54539664Y-42318812D01*
X54551215Y-42314239D01*
X54551221Y-42314235D01*
X54558588Y-42311319D01*
X54594491Y-42285234D01*
X54604410Y-42278719D01*
X54635768Y-42260174D01*
X54635772Y-42260171D01*
X54642598Y-42256134D01*
X54656982Y-42241750D01*
X54672016Y-42228909D01*
X54682073Y-42221602D01*
X54688487Y-42216942D01*
X54716772Y-42182752D01*
X54724760Y-42173973D01*
X55143486Y-41755246D01*
X55151808Y-41747674D01*
X55158303Y-41743553D01*
X55180840Y-41719554D01*
X55205086Y-41693734D01*
X55207841Y-41690892D01*
X55227639Y-41671094D01*
X55230063Y-41667969D01*
X55230071Y-41667960D01*
X55230137Y-41667874D01*
X55237845Y-41658849D01*
X55249914Y-41645997D01*
X55268217Y-41626506D01*
X55268875Y-41627124D01*
X55319785Y-41587866D01*
X55390521Y-41581790D01*
X55453313Y-41614922D01*
X55488225Y-41676741D01*
X55491500Y-41705281D01*
X55491500Y-75365500D01*
X55471498Y-75433621D01*
X55417842Y-75480114D01*
X55365500Y-75491500D01*
X31626000Y-75491500D01*
X31557879Y-75471498D01*
X31511386Y-75417842D01*
X31500000Y-75365500D01*
X31500000Y-73610102D01*
X36544641Y-73610102D01*
X36545620Y-73615799D01*
X36545620Y-73615800D01*
X36550759Y-73645707D01*
X36580232Y-73817228D01*
X36652972Y-74014399D01*
X36760426Y-74195012D01*
X36898994Y-74353019D01*
X37064037Y-74483128D01*
X37069153Y-74485819D01*
X37069155Y-74485821D01*
X37244910Y-74578290D01*
X37250027Y-74580982D01*
X37450734Y-74643304D01*
X37456469Y-74643983D01*
X37456470Y-74643983D01*
X37487032Y-74647600D01*
X37621374Y-74663500D01*
X38123816Y-74663500D01*
X38279779Y-74649169D01*
X38285341Y-74647600D01*
X38285343Y-74647600D01*
X38380914Y-74620646D01*
X38482049Y-74592123D01*
X38670537Y-74499171D01*
X38838929Y-74373427D01*
X38981586Y-74219101D01*
X39093731Y-74041362D01*
X39171608Y-73846163D01*
X39172733Y-73840506D01*
X39172735Y-73840500D01*
X39211481Y-73645707D01*
X39211481Y-73645705D01*
X39212608Y-73640040D01*
X39212926Y-73615800D01*
X39215283Y-73435680D01*
X39215359Y-73429898D01*
X39179768Y-73222772D01*
X39107028Y-73025601D01*
X39091797Y-73000000D01*
X40643910Y-73000000D01*
X40662618Y-73177991D01*
X40717923Y-73348203D01*
X40807409Y-73503197D01*
X40927164Y-73636199D01*
X40932506Y-73640080D01*
X40932508Y-73640082D01*
X41066613Y-73737515D01*
X41071955Y-73741396D01*
X41077983Y-73744080D01*
X41077985Y-73744081D01*
X41229423Y-73811505D01*
X41235454Y-73814190D01*
X41322984Y-73832795D01*
X41404057Y-73850028D01*
X41404061Y-73850028D01*
X41410514Y-73851400D01*
X41589486Y-73851400D01*
X41595939Y-73850028D01*
X41595943Y-73850028D01*
X41677016Y-73832795D01*
X41764546Y-73814190D01*
X41770577Y-73811505D01*
X41922015Y-73744081D01*
X41922017Y-73744080D01*
X41928045Y-73741396D01*
X41933387Y-73737515D01*
X42067492Y-73640082D01*
X42067494Y-73640080D01*
X42072836Y-73636199D01*
X42096334Y-73610102D01*
X51784641Y-73610102D01*
X51785620Y-73615799D01*
X51785620Y-73615800D01*
X51790759Y-73645707D01*
X51820232Y-73817228D01*
X51892972Y-74014399D01*
X52000426Y-74195012D01*
X52138994Y-74353019D01*
X52304037Y-74483128D01*
X52309153Y-74485819D01*
X52309155Y-74485821D01*
X52484910Y-74578290D01*
X52490027Y-74580982D01*
X52690734Y-74643304D01*
X52696469Y-74643983D01*
X52696470Y-74643983D01*
X52727032Y-74647600D01*
X52861374Y-74663500D01*
X53363816Y-74663500D01*
X53519779Y-74649169D01*
X53525341Y-74647600D01*
X53525343Y-74647600D01*
X53620914Y-74620646D01*
X53722049Y-74592123D01*
X53910537Y-74499171D01*
X54078929Y-74373427D01*
X54221586Y-74219101D01*
X54333731Y-74041362D01*
X54411608Y-73846163D01*
X54412733Y-73840506D01*
X54412735Y-73840500D01*
X54451481Y-73645707D01*
X54451481Y-73645705D01*
X54452608Y-73640040D01*
X54452926Y-73615800D01*
X54455283Y-73435680D01*
X54455359Y-73429898D01*
X54419768Y-73222772D01*
X54347028Y-73025601D01*
X54239574Y-72844988D01*
X54101006Y-72686981D01*
X53935963Y-72556872D01*
X53930847Y-72554181D01*
X53930845Y-72554179D01*
X53755090Y-72461710D01*
X53755088Y-72461709D01*
X53749973Y-72459018D01*
X53549266Y-72396696D01*
X53543531Y-72396017D01*
X53543530Y-72396017D01*
X53488423Y-72389495D01*
X53378626Y-72376500D01*
X52876184Y-72376500D01*
X52720221Y-72390831D01*
X52714659Y-72392400D01*
X52714657Y-72392400D01*
X52619086Y-72419354D01*
X52517951Y-72447877D01*
X52329463Y-72540829D01*
X52324837Y-72544283D01*
X52324836Y-72544284D01*
X52172442Y-72658082D01*
X52161071Y-72666573D01*
X52157157Y-72670807D01*
X52157155Y-72670809D01*
X52033346Y-72804746D01*
X52018414Y-72820899D01*
X51906269Y-72998638D01*
X51828392Y-73193837D01*
X51827267Y-73199494D01*
X51827265Y-73199500D01*
X51788519Y-73394293D01*
X51787392Y-73399960D01*
X51787316Y-73405735D01*
X51787316Y-73405739D01*
X51785976Y-73508105D01*
X51784641Y-73610102D01*
X42096334Y-73610102D01*
X42192591Y-73503197D01*
X42282077Y-73348203D01*
X42337382Y-73177991D01*
X42356090Y-73000000D01*
X42350106Y-72943063D01*
X42338072Y-72828573D01*
X42338072Y-72828572D01*
X42337382Y-72822009D01*
X42282077Y-72651797D01*
X42192591Y-72496803D01*
X42158570Y-72459018D01*
X42077258Y-72368712D01*
X42077257Y-72368711D01*
X42072836Y-72363801D01*
X42064848Y-72357997D01*
X41933387Y-72262485D01*
X41933386Y-72262484D01*
X41928045Y-72258604D01*
X41922017Y-72255920D01*
X41922015Y-72255919D01*
X41770577Y-72188495D01*
X41770576Y-72188495D01*
X41764546Y-72185810D01*
X41674767Y-72166727D01*
X41595943Y-72149972D01*
X41595939Y-72149972D01*
X41589486Y-72148600D01*
X41410514Y-72148600D01*
X41404061Y-72149972D01*
X41404057Y-72149972D01*
X41325233Y-72166727D01*
X41235454Y-72185810D01*
X41229424Y-72188495D01*
X41229423Y-72188495D01*
X41077985Y-72255919D01*
X41077983Y-72255920D01*
X41071955Y-72258604D01*
X41066614Y-72262484D01*
X41066613Y-72262485D01*
X40935153Y-72357997D01*
X40927164Y-72363801D01*
X40922743Y-72368711D01*
X40922742Y-72368712D01*
X40841431Y-72459018D01*
X40807409Y-72496803D01*
X40717923Y-72651797D01*
X40662618Y-72822009D01*
X40661928Y-72828572D01*
X40661928Y-72828573D01*
X40649894Y-72943063D01*
X40643910Y-73000000D01*
X39091797Y-73000000D01*
X38999574Y-72844988D01*
X38861006Y-72686981D01*
X38695963Y-72556872D01*
X38690847Y-72554181D01*
X38690845Y-72554179D01*
X38515090Y-72461710D01*
X38515088Y-72461709D01*
X38509973Y-72459018D01*
X38309266Y-72396696D01*
X38303531Y-72396017D01*
X38303530Y-72396017D01*
X38248423Y-72389495D01*
X38138626Y-72376500D01*
X37636184Y-72376500D01*
X37480221Y-72390831D01*
X37474659Y-72392400D01*
X37474657Y-72392400D01*
X37379086Y-72419354D01*
X37277951Y-72447877D01*
X37089463Y-72540829D01*
X37084837Y-72544283D01*
X37084836Y-72544284D01*
X36932442Y-72658082D01*
X36921071Y-72666573D01*
X36917157Y-72670807D01*
X36917155Y-72670809D01*
X36793346Y-72804746D01*
X36778414Y-72820899D01*
X36666269Y-72998638D01*
X36588392Y-73193837D01*
X36587267Y-73199494D01*
X36587265Y-73199500D01*
X36548519Y-73394293D01*
X36547392Y-73399960D01*
X36547316Y-73405735D01*
X36547316Y-73405739D01*
X36545976Y-73508105D01*
X36544641Y-73610102D01*
X31500000Y-73610102D01*
X31500000Y-71070102D01*
X36544641Y-71070102D01*
X36545620Y-71075799D01*
X36545620Y-71075800D01*
X36551861Y-71112119D01*
X36580232Y-71277228D01*
X36652972Y-71474399D01*
X36655924Y-71479360D01*
X36655924Y-71479361D01*
X36752080Y-71640983D01*
X36760426Y-71655012D01*
X36898994Y-71813019D01*
X37064037Y-71943128D01*
X37069153Y-71945819D01*
X37069155Y-71945821D01*
X37244910Y-72038290D01*
X37250027Y-72040982D01*
X37450734Y-72103304D01*
X37456469Y-72103983D01*
X37456470Y-72103983D01*
X37487032Y-72107600D01*
X37621374Y-72123500D01*
X38123816Y-72123500D01*
X38279779Y-72109169D01*
X38285341Y-72107600D01*
X38285343Y-72107600D01*
X38380914Y-72080646D01*
X38482049Y-72052123D01*
X38614856Y-71986630D01*
X45792482Y-71986630D01*
X45792998Y-71992774D01*
X45803939Y-72123063D01*
X45808121Y-72172867D01*
X45859636Y-72352520D01*
X45881392Y-72394852D01*
X45936726Y-72502521D01*
X45945064Y-72518746D01*
X45948887Y-72523570D01*
X45948890Y-72523574D01*
X45975282Y-72556872D01*
X46061152Y-72665212D01*
X46065846Y-72669207D01*
X46098819Y-72697269D01*
X46203478Y-72786342D01*
X46366621Y-72877519D01*
X46544367Y-72935272D01*
X46729945Y-72957401D01*
X46736080Y-72956929D01*
X46736082Y-72956929D01*
X46792119Y-72952617D01*
X46916287Y-72943063D01*
X47096296Y-72892804D01*
X47101785Y-72890031D01*
X47101791Y-72890029D01*
X47199555Y-72840644D01*
X47263114Y-72808538D01*
X47291524Y-72786342D01*
X47315486Y-72767621D01*
X47410387Y-72693475D01*
X47414413Y-72688811D01*
X47414416Y-72688808D01*
X47528480Y-72556663D01*
X47532507Y-72551998D01*
X47624821Y-72389495D01*
X47629056Y-72376766D01*
X47681867Y-72218009D01*
X47683814Y-72212157D01*
X47696758Y-72109698D01*
X47706796Y-72030241D01*
X47706797Y-72030232D01*
X47707238Y-72026738D01*
X47707611Y-72000000D01*
X47689373Y-71813999D01*
X47685419Y-71800901D01*
X47637136Y-71640983D01*
X47635355Y-71635083D01*
X47547615Y-71470066D01*
X47534727Y-71454264D01*
X47433388Y-71330010D01*
X47433385Y-71330007D01*
X47429493Y-71325235D01*
X47424744Y-71321306D01*
X47290239Y-71210034D01*
X47290236Y-71210032D01*
X47285489Y-71206105D01*
X47121089Y-71117214D01*
X47031822Y-71089581D01*
X46968896Y-71070102D01*
X51784641Y-71070102D01*
X51785620Y-71075799D01*
X51785620Y-71075800D01*
X51791861Y-71112119D01*
X51820232Y-71277228D01*
X51892972Y-71474399D01*
X51895924Y-71479360D01*
X51895924Y-71479361D01*
X51992080Y-71640983D01*
X52000426Y-71655012D01*
X52138994Y-71813019D01*
X52304037Y-71943128D01*
X52309153Y-71945819D01*
X52309155Y-71945821D01*
X52484910Y-72038290D01*
X52490027Y-72040982D01*
X52690734Y-72103304D01*
X52696469Y-72103983D01*
X52696470Y-72103983D01*
X52727032Y-72107600D01*
X52861374Y-72123500D01*
X53363816Y-72123500D01*
X53519779Y-72109169D01*
X53525341Y-72107600D01*
X53525343Y-72107600D01*
X53620914Y-72080646D01*
X53722049Y-72052123D01*
X53910537Y-71959171D01*
X54078929Y-71833427D01*
X54102345Y-71808096D01*
X54217667Y-71683341D01*
X54217669Y-71683338D01*
X54221586Y-71679101D01*
X54333731Y-71501362D01*
X54411608Y-71306163D01*
X54412733Y-71300506D01*
X54412735Y-71300500D01*
X54451481Y-71105707D01*
X54451481Y-71105705D01*
X54452608Y-71100040D01*
X54452926Y-71075800D01*
X54455283Y-70895680D01*
X54455359Y-70889898D01*
X54419768Y-70682772D01*
X54347028Y-70485601D01*
X54239574Y-70304988D01*
X54101006Y-70146981D01*
X53935963Y-70016872D01*
X53930847Y-70014181D01*
X53930845Y-70014179D01*
X53755090Y-69921710D01*
X53755088Y-69921709D01*
X53749973Y-69919018D01*
X53549266Y-69856696D01*
X53543531Y-69856017D01*
X53543530Y-69856017D01*
X53495242Y-69850302D01*
X53378626Y-69836500D01*
X52876184Y-69836500D01*
X52720221Y-69850831D01*
X52714659Y-69852400D01*
X52714657Y-69852400D01*
X52619086Y-69879354D01*
X52517951Y-69907877D01*
X52329463Y-70000829D01*
X52161071Y-70126573D01*
X52157157Y-70130807D01*
X52157155Y-70130809D01*
X52058518Y-70237515D01*
X52018414Y-70280899D01*
X51906269Y-70458638D01*
X51828392Y-70653837D01*
X51827267Y-70659494D01*
X51827265Y-70659500D01*
X51821503Y-70688469D01*
X51787392Y-70859960D01*
X51787316Y-70865735D01*
X51787316Y-70865739D01*
X51787000Y-70889898D01*
X51784641Y-71070102D01*
X46968896Y-71070102D01*
X46948441Y-71063770D01*
X46948438Y-71063769D01*
X46942554Y-71061948D01*
X46936429Y-71061304D01*
X46936428Y-71061304D01*
X46762813Y-71043056D01*
X46762812Y-71043056D01*
X46756685Y-71042412D01*
X46638087Y-71053206D01*
X46576703Y-71058792D01*
X46576702Y-71058792D01*
X46570562Y-71059351D01*
X46564648Y-71061092D01*
X46564646Y-71061092D01*
X46534033Y-71070102D01*
X46391273Y-71112119D01*
X46225647Y-71198705D01*
X46079995Y-71315813D01*
X45959862Y-71458981D01*
X45956899Y-71464370D01*
X45956896Y-71464375D01*
X45883509Y-71597868D01*
X45869826Y-71622757D01*
X45867965Y-71628624D01*
X45867964Y-71628626D01*
X45850607Y-71683341D01*
X45813315Y-71800901D01*
X45792482Y-71986630D01*
X38614856Y-71986630D01*
X38670537Y-71959171D01*
X38838929Y-71833427D01*
X38862345Y-71808096D01*
X38977667Y-71683341D01*
X38977669Y-71683338D01*
X38981586Y-71679101D01*
X39093731Y-71501362D01*
X39171608Y-71306163D01*
X39172733Y-71300506D01*
X39172735Y-71300500D01*
X39211481Y-71105707D01*
X39211481Y-71105705D01*
X39212608Y-71100040D01*
X39212926Y-71075800D01*
X39215283Y-70895680D01*
X39215359Y-70889898D01*
X39179768Y-70682772D01*
X39107028Y-70485601D01*
X38999574Y-70304988D01*
X38861006Y-70146981D01*
X38695963Y-70016872D01*
X38690847Y-70014181D01*
X38690845Y-70014179D01*
X38515090Y-69921710D01*
X38515088Y-69921709D01*
X38509973Y-69919018D01*
X38309266Y-69856696D01*
X38303531Y-69856017D01*
X38303530Y-69856017D01*
X38255242Y-69850302D01*
X38138626Y-69836500D01*
X37636184Y-69836500D01*
X37480221Y-69850831D01*
X37474659Y-69852400D01*
X37474657Y-69852400D01*
X37379086Y-69879354D01*
X37277951Y-69907877D01*
X37089463Y-70000829D01*
X36921071Y-70126573D01*
X36917157Y-70130807D01*
X36917155Y-70130809D01*
X36818518Y-70237515D01*
X36778414Y-70280899D01*
X36666269Y-70458638D01*
X36588392Y-70653837D01*
X36587267Y-70659494D01*
X36587265Y-70659500D01*
X36581503Y-70688469D01*
X36547392Y-70859960D01*
X36547316Y-70865735D01*
X36547316Y-70865739D01*
X36547000Y-70889898D01*
X36544641Y-71070102D01*
X31500000Y-71070102D01*
X31500000Y-62000000D01*
X32893910Y-62000000D01*
X32894600Y-62006565D01*
X32908634Y-62140082D01*
X32912618Y-62177991D01*
X32967923Y-62348203D01*
X32971226Y-62353925D01*
X32971227Y-62353926D01*
X32986760Y-62380829D01*
X33057409Y-62503197D01*
X33082137Y-62530660D01*
X33112853Y-62594666D01*
X33114500Y-62614969D01*
X33114500Y-69170980D01*
X33113970Y-69182214D01*
X33112292Y-69189719D01*
X33112541Y-69197638D01*
X33114438Y-69258012D01*
X33114500Y-69261969D01*
X33114500Y-69289983D01*
X33114996Y-69293908D01*
X33114996Y-69293909D01*
X33115008Y-69294004D01*
X33115941Y-69305849D01*
X33117335Y-69350205D01*
X33119547Y-69357817D01*
X33123013Y-69369748D01*
X33127023Y-69389112D01*
X33128342Y-69399550D01*
X33129573Y-69409299D01*
X33132488Y-69416662D01*
X33132489Y-69416665D01*
X33137042Y-69428163D01*
X33145200Y-69487724D01*
X33144600Y-69493431D01*
X33144600Y-69493435D01*
X33143910Y-69500000D01*
X33144600Y-69506565D01*
X33150384Y-69561590D01*
X33162618Y-69677991D01*
X33217923Y-69848203D01*
X33307409Y-70003197D01*
X33311827Y-70008104D01*
X33311828Y-70008105D01*
X33415388Y-70123120D01*
X33427164Y-70136199D01*
X33571955Y-70241396D01*
X33577983Y-70244080D01*
X33577985Y-70244081D01*
X33725937Y-70309953D01*
X33735454Y-70314190D01*
X33822984Y-70332795D01*
X33904057Y-70350028D01*
X33904061Y-70350028D01*
X33910514Y-70351400D01*
X34089486Y-70351400D01*
X34095939Y-70350028D01*
X34095943Y-70350028D01*
X34177016Y-70332795D01*
X34264546Y-70314190D01*
X34274063Y-70309953D01*
X34422015Y-70244081D01*
X34422017Y-70244080D01*
X34428045Y-70241396D01*
X34572836Y-70136199D01*
X34584612Y-70123120D01*
X34688172Y-70008105D01*
X34688173Y-70008104D01*
X34692591Y-70003197D01*
X34782077Y-69848203D01*
X34837382Y-69677991D01*
X34849617Y-69561590D01*
X34855400Y-69506565D01*
X34856090Y-69500000D01*
X34851473Y-69456077D01*
X34838072Y-69328573D01*
X34838072Y-69328572D01*
X34837382Y-69322009D01*
X34820055Y-69268680D01*
X34796972Y-69197638D01*
X34782077Y-69151797D01*
X34692591Y-68996803D01*
X34657114Y-68957401D01*
X34577258Y-68868712D01*
X34577257Y-68868711D01*
X34572836Y-68863801D01*
X34470361Y-68789348D01*
X34437439Y-68765429D01*
X34394085Y-68709207D01*
X34385500Y-68663493D01*
X34385500Y-68530102D01*
X36544641Y-68530102D01*
X36545620Y-68535799D01*
X36545620Y-68535800D01*
X36572714Y-68693475D01*
X36580232Y-68737228D01*
X36652972Y-68934399D01*
X36655924Y-68939360D01*
X36655924Y-68939361D01*
X36693501Y-69002521D01*
X36760426Y-69115012D01*
X36898994Y-69273019D01*
X36929262Y-69296880D01*
X37046258Y-69389112D01*
X37064037Y-69403128D01*
X37069153Y-69405819D01*
X37069155Y-69405821D01*
X37244910Y-69498290D01*
X37250027Y-69500982D01*
X37450734Y-69563304D01*
X37456469Y-69563983D01*
X37456470Y-69563983D01*
X37487032Y-69567600D01*
X37621374Y-69583500D01*
X38123816Y-69583500D01*
X38279779Y-69569169D01*
X38285341Y-69567600D01*
X38285343Y-69567600D01*
X38380914Y-69540646D01*
X38482049Y-69512123D01*
X38670537Y-69419171D01*
X38723969Y-69379272D01*
X38834305Y-69296880D01*
X38834306Y-69296879D01*
X38838929Y-69293427D01*
X38842845Y-69289191D01*
X38977667Y-69143341D01*
X38977669Y-69143338D01*
X38981586Y-69139101D01*
X39093731Y-68961362D01*
X39171608Y-68766163D01*
X39172733Y-68760506D01*
X39172735Y-68760500D01*
X39211481Y-68565707D01*
X39211481Y-68565705D01*
X39212608Y-68560040D01*
X39212714Y-68551998D01*
X39215283Y-68355680D01*
X39215359Y-68349898D01*
X39179768Y-68142772D01*
X39122164Y-67986630D01*
X50042482Y-67986630D01*
X50042998Y-67992774D01*
X50055594Y-68142772D01*
X50058121Y-68172867D01*
X50109636Y-68352520D01*
X50195064Y-68518746D01*
X50198887Y-68523570D01*
X50198890Y-68523574D01*
X50227793Y-68560040D01*
X50311152Y-68665212D01*
X50315846Y-68669207D01*
X50428906Y-68765429D01*
X50453478Y-68786342D01*
X50616621Y-68877519D01*
X50794367Y-68935272D01*
X50979945Y-68957401D01*
X50986080Y-68956929D01*
X50986082Y-68956929D01*
X51042119Y-68952617D01*
X51166287Y-68943063D01*
X51346296Y-68892804D01*
X51351785Y-68890031D01*
X51351791Y-68890029D01*
X51429159Y-68850947D01*
X51513114Y-68808538D01*
X51541524Y-68786342D01*
X51635903Y-68712604D01*
X51701898Y-68686426D01*
X51771568Y-68700083D01*
X51822795Y-68749239D01*
X51831688Y-68768281D01*
X51892972Y-68934399D01*
X51895924Y-68939360D01*
X51895924Y-68939361D01*
X51933501Y-69002521D01*
X52000426Y-69115012D01*
X52138994Y-69273019D01*
X52169262Y-69296880D01*
X52286258Y-69389112D01*
X52304037Y-69403128D01*
X52309153Y-69405819D01*
X52309155Y-69405821D01*
X52484910Y-69498290D01*
X52490027Y-69500982D01*
X52690734Y-69563304D01*
X52696469Y-69563983D01*
X52696470Y-69563983D01*
X52727032Y-69567600D01*
X52861374Y-69583500D01*
X53363816Y-69583500D01*
X53519779Y-69569169D01*
X53525341Y-69567600D01*
X53525343Y-69567600D01*
X53620914Y-69540646D01*
X53722049Y-69512123D01*
X53910537Y-69419171D01*
X53963969Y-69379272D01*
X54074305Y-69296880D01*
X54074306Y-69296879D01*
X54078929Y-69293427D01*
X54082845Y-69289191D01*
X54217667Y-69143341D01*
X54217669Y-69143338D01*
X54221586Y-69139101D01*
X54333731Y-68961362D01*
X54411608Y-68766163D01*
X54412733Y-68760506D01*
X54412735Y-68760500D01*
X54451481Y-68565707D01*
X54451481Y-68565705D01*
X54452608Y-68560040D01*
X54452714Y-68551998D01*
X54455283Y-68355680D01*
X54455359Y-68349898D01*
X54419768Y-68142772D01*
X54347028Y-67945601D01*
X54260940Y-67800901D01*
X54242528Y-67769953D01*
X54242527Y-67769952D01*
X54239574Y-67764988D01*
X54101006Y-67606981D01*
X53935963Y-67476872D01*
X53930847Y-67474181D01*
X53930845Y-67474179D01*
X53755090Y-67381710D01*
X53755088Y-67381709D01*
X53749973Y-67379018D01*
X53549266Y-67316696D01*
X53543531Y-67316017D01*
X53543530Y-67316017D01*
X53495242Y-67310302D01*
X53378626Y-67296500D01*
X52876184Y-67296500D01*
X52720221Y-67310831D01*
X52714659Y-67312400D01*
X52714657Y-67312400D01*
X52683079Y-67321306D01*
X52517951Y-67367877D01*
X52512768Y-67370433D01*
X52342776Y-67454264D01*
X52329463Y-67460829D01*
X52161071Y-67586573D01*
X52157157Y-67590807D01*
X52157155Y-67590809D01*
X52089969Y-67663491D01*
X52029040Y-67699936D01*
X51958081Y-67697655D01*
X51899618Y-67657373D01*
X51886125Y-67634674D01*
X51885355Y-67635083D01*
X51800508Y-67475507D01*
X51797615Y-67470066D01*
X51792974Y-67464375D01*
X51683388Y-67330010D01*
X51683385Y-67330007D01*
X51679493Y-67325235D01*
X51674744Y-67321306D01*
X51540239Y-67210034D01*
X51540236Y-67210032D01*
X51535489Y-67206105D01*
X51371089Y-67117214D01*
X51281822Y-67089581D01*
X51198441Y-67063770D01*
X51198438Y-67063769D01*
X51192554Y-67061948D01*
X51186429Y-67061304D01*
X51186428Y-67061304D01*
X51012813Y-67043056D01*
X51012812Y-67043056D01*
X51006685Y-67042412D01*
X50888087Y-67053206D01*
X50826703Y-67058792D01*
X50826702Y-67058792D01*
X50820562Y-67059351D01*
X50814648Y-67061092D01*
X50814646Y-67061092D01*
X50692466Y-67097052D01*
X50641273Y-67112119D01*
X50475647Y-67198705D01*
X50329995Y-67315813D01*
X50209862Y-67458981D01*
X50206899Y-67464370D01*
X50206896Y-67464375D01*
X50200026Y-67476872D01*
X50119826Y-67622757D01*
X50117965Y-67628624D01*
X50117964Y-67628626D01*
X50115916Y-67635083D01*
X50063315Y-67800901D01*
X50042482Y-67986630D01*
X39122164Y-67986630D01*
X39107028Y-67945601D01*
X39020940Y-67800901D01*
X39002528Y-67769953D01*
X39002527Y-67769952D01*
X38999574Y-67764988D01*
X38861006Y-67606981D01*
X38695963Y-67476872D01*
X38690847Y-67474181D01*
X38690845Y-67474179D01*
X38515090Y-67381710D01*
X38515088Y-67381709D01*
X38509973Y-67379018D01*
X38309266Y-67316696D01*
X38303531Y-67316017D01*
X38303530Y-67316017D01*
X38255242Y-67310302D01*
X38138626Y-67296500D01*
X37636184Y-67296500D01*
X37480221Y-67310831D01*
X37474659Y-67312400D01*
X37474657Y-67312400D01*
X37443079Y-67321306D01*
X37277951Y-67367877D01*
X37272768Y-67370433D01*
X37102776Y-67454264D01*
X37089463Y-67460829D01*
X36921071Y-67586573D01*
X36917157Y-67590807D01*
X36917155Y-67590809D01*
X36816280Y-67699936D01*
X36778414Y-67740899D01*
X36666269Y-67918638D01*
X36588392Y-68113837D01*
X36587267Y-68119494D01*
X36587265Y-68119500D01*
X36576650Y-68172867D01*
X36547392Y-68319960D01*
X36547316Y-68325735D01*
X36547316Y-68325739D01*
X36546924Y-68355680D01*
X36544641Y-68530102D01*
X34385500Y-68530102D01*
X34385500Y-65990102D01*
X36544641Y-65990102D01*
X36580232Y-66197228D01*
X36652972Y-66394399D01*
X36760426Y-66575012D01*
X36898994Y-66733019D01*
X37064037Y-66863128D01*
X37069153Y-66865819D01*
X37069155Y-66865821D01*
X37244910Y-66958290D01*
X37250027Y-66960982D01*
X37450734Y-67023304D01*
X37456469Y-67023983D01*
X37456470Y-67023983D01*
X37487032Y-67027600D01*
X37621374Y-67043500D01*
X38123816Y-67043500D01*
X38279779Y-67029169D01*
X38285341Y-67027600D01*
X38285343Y-67027600D01*
X38380914Y-67000646D01*
X38482049Y-66972123D01*
X38670537Y-66879171D01*
X38838929Y-66753427D01*
X38981586Y-66599101D01*
X39093731Y-66421362D01*
X39171608Y-66226163D01*
X39172733Y-66220506D01*
X39172735Y-66220500D01*
X39211481Y-66025707D01*
X39211481Y-66025705D01*
X39212608Y-66020040D01*
X39212926Y-65995800D01*
X39215283Y-65815680D01*
X39215359Y-65809898D01*
X39179768Y-65602772D01*
X39107028Y-65405601D01*
X39088082Y-65373755D01*
X39014455Y-65250000D01*
X45643910Y-65250000D01*
X45662618Y-65427991D01*
X45717923Y-65598203D01*
X45807409Y-65753197D01*
X45811827Y-65758104D01*
X45811828Y-65758105D01*
X45863669Y-65815680D01*
X45927164Y-65886199D01*
X45932506Y-65890080D01*
X45932508Y-65890082D01*
X46066613Y-65987515D01*
X46071955Y-65991396D01*
X46077983Y-65994080D01*
X46077985Y-65994081D01*
X46149019Y-66025707D01*
X46235454Y-66064190D01*
X46322984Y-66082795D01*
X46404057Y-66100028D01*
X46404061Y-66100028D01*
X46410514Y-66101400D01*
X46589486Y-66101400D01*
X46595939Y-66100028D01*
X46595943Y-66100028D01*
X46677016Y-66082795D01*
X46764546Y-66064190D01*
X46850981Y-66025707D01*
X46922015Y-65994081D01*
X46922017Y-65994080D01*
X46928045Y-65991396D01*
X46929826Y-65990102D01*
X51784641Y-65990102D01*
X51820232Y-66197228D01*
X51892972Y-66394399D01*
X52000426Y-66575012D01*
X52138994Y-66733019D01*
X52304037Y-66863128D01*
X52309153Y-66865819D01*
X52309155Y-66865821D01*
X52484910Y-66958290D01*
X52490027Y-66960982D01*
X52690734Y-67023304D01*
X52696469Y-67023983D01*
X52696470Y-67023983D01*
X52727032Y-67027600D01*
X52861374Y-67043500D01*
X53363816Y-67043500D01*
X53519779Y-67029169D01*
X53525341Y-67027600D01*
X53525343Y-67027600D01*
X53620914Y-67000646D01*
X53722049Y-66972123D01*
X53910537Y-66879171D01*
X54078929Y-66753427D01*
X54221586Y-66599101D01*
X54333731Y-66421362D01*
X54411608Y-66226163D01*
X54412733Y-66220506D01*
X54412735Y-66220500D01*
X54451481Y-66025707D01*
X54451481Y-66025705D01*
X54452608Y-66020040D01*
X54452926Y-65995800D01*
X54455283Y-65815680D01*
X54455359Y-65809898D01*
X54419768Y-65602772D01*
X54347028Y-65405601D01*
X54328082Y-65373755D01*
X54242528Y-65229953D01*
X54242527Y-65229952D01*
X54239574Y-65224988D01*
X54101006Y-65066981D01*
X53935963Y-64936872D01*
X53930847Y-64934181D01*
X53930845Y-64934179D01*
X53755090Y-64841710D01*
X53755088Y-64841709D01*
X53749973Y-64839018D01*
X53549266Y-64776696D01*
X53543531Y-64776017D01*
X53543530Y-64776017D01*
X53495242Y-64770302D01*
X53378626Y-64756500D01*
X52876184Y-64756500D01*
X52720221Y-64770831D01*
X52714659Y-64772400D01*
X52714657Y-64772400D01*
X52619086Y-64799354D01*
X52517951Y-64827877D01*
X52329463Y-64920829D01*
X52161071Y-65046573D01*
X52157157Y-65050807D01*
X52157155Y-65050809D01*
X52131491Y-65078573D01*
X52018414Y-65200899D01*
X51906269Y-65378638D01*
X51828392Y-65573837D01*
X51827267Y-65579494D01*
X51827265Y-65579500D01*
X51821503Y-65608469D01*
X51787392Y-65779960D01*
X51787316Y-65785735D01*
X51787316Y-65785739D01*
X51786001Y-65886199D01*
X51784641Y-65990102D01*
X46929826Y-65990102D01*
X46933387Y-65987515D01*
X47067492Y-65890082D01*
X47067494Y-65890080D01*
X47072836Y-65886199D01*
X47136331Y-65815680D01*
X47188172Y-65758105D01*
X47188173Y-65758104D01*
X47192591Y-65753197D01*
X47282077Y-65598203D01*
X47337382Y-65427991D01*
X47356090Y-65250000D01*
X47353461Y-65224988D01*
X47338072Y-65078573D01*
X47338072Y-65078572D01*
X47337382Y-65072009D01*
X47329118Y-65046573D01*
X47294636Y-64940450D01*
X47282077Y-64901797D01*
X47192591Y-64746803D01*
X47072836Y-64613801D01*
X46928045Y-64508604D01*
X46922017Y-64505920D01*
X46922015Y-64505919D01*
X46770577Y-64438495D01*
X46770576Y-64438495D01*
X46764546Y-64435810D01*
X46677016Y-64417205D01*
X46595943Y-64399972D01*
X46595939Y-64399972D01*
X46589486Y-64398600D01*
X46410514Y-64398600D01*
X46404061Y-64399972D01*
X46404057Y-64399972D01*
X46322984Y-64417205D01*
X46235454Y-64435810D01*
X46229424Y-64438495D01*
X46229423Y-64438495D01*
X46077985Y-64505919D01*
X46077983Y-64505920D01*
X46071955Y-64508604D01*
X45927164Y-64613801D01*
X45807409Y-64746803D01*
X45717923Y-64901797D01*
X45705364Y-64940450D01*
X45670883Y-65046573D01*
X45662618Y-65072009D01*
X45661928Y-65078572D01*
X45661928Y-65078573D01*
X45646539Y-65224988D01*
X45643910Y-65250000D01*
X39014455Y-65250000D01*
X39002528Y-65229953D01*
X39002527Y-65229952D01*
X38999574Y-65224988D01*
X38861006Y-65066981D01*
X38695963Y-64936872D01*
X38690847Y-64934181D01*
X38690845Y-64934179D01*
X38515090Y-64841710D01*
X38515088Y-64841709D01*
X38509973Y-64839018D01*
X38309266Y-64776696D01*
X38303531Y-64776017D01*
X38303530Y-64776017D01*
X38255242Y-64770302D01*
X38138626Y-64756500D01*
X37636184Y-64756500D01*
X37480221Y-64770831D01*
X37474659Y-64772400D01*
X37474657Y-64772400D01*
X37379086Y-64799354D01*
X37277951Y-64827877D01*
X37089463Y-64920829D01*
X36921071Y-65046573D01*
X36917157Y-65050807D01*
X36917155Y-65050809D01*
X36891491Y-65078573D01*
X36778414Y-65200899D01*
X36666269Y-65378638D01*
X36588392Y-65573837D01*
X36587267Y-65579494D01*
X36587265Y-65579500D01*
X36581503Y-65608469D01*
X36547392Y-65779960D01*
X36547316Y-65785735D01*
X36547316Y-65785739D01*
X36546001Y-65886199D01*
X36544641Y-65990102D01*
X34385500Y-65990102D01*
X34385500Y-63450102D01*
X36544641Y-63450102D01*
X36580232Y-63657228D01*
X36652972Y-63854399D01*
X36760426Y-64035012D01*
X36898994Y-64193019D01*
X37064037Y-64323128D01*
X37069153Y-64325819D01*
X37069155Y-64325821D01*
X37244910Y-64418290D01*
X37250027Y-64420982D01*
X37450734Y-64483304D01*
X37456469Y-64483983D01*
X37456470Y-64483983D01*
X37487032Y-64487600D01*
X37621374Y-64503500D01*
X38123816Y-64503500D01*
X38279779Y-64489169D01*
X38285341Y-64487600D01*
X38285343Y-64487600D01*
X38380914Y-64460646D01*
X38482049Y-64432123D01*
X38670537Y-64339171D01*
X38838929Y-64213427D01*
X38981586Y-64059101D01*
X39093731Y-63881362D01*
X39171608Y-63686163D01*
X39172733Y-63680506D01*
X39172735Y-63680500D01*
X39211481Y-63485707D01*
X39211481Y-63485705D01*
X39212608Y-63480040D01*
X39212926Y-63455800D01*
X39213001Y-63450102D01*
X51784641Y-63450102D01*
X51820232Y-63657228D01*
X51892972Y-63854399D01*
X52000426Y-64035012D01*
X52138994Y-64193019D01*
X52304037Y-64323128D01*
X52309153Y-64325819D01*
X52309155Y-64325821D01*
X52484910Y-64418290D01*
X52490027Y-64420982D01*
X52690734Y-64483304D01*
X52696469Y-64483983D01*
X52696470Y-64483983D01*
X52727032Y-64487600D01*
X52861374Y-64503500D01*
X53363816Y-64503500D01*
X53519779Y-64489169D01*
X53525341Y-64487600D01*
X53525343Y-64487600D01*
X53620914Y-64460646D01*
X53722049Y-64432123D01*
X53910537Y-64339171D01*
X54078929Y-64213427D01*
X54221586Y-64059101D01*
X54333731Y-63881362D01*
X54411608Y-63686163D01*
X54412733Y-63680506D01*
X54412735Y-63680500D01*
X54451481Y-63485707D01*
X54451481Y-63485705D01*
X54452608Y-63480040D01*
X54452926Y-63455800D01*
X54455283Y-63275680D01*
X54455359Y-63269898D01*
X54419768Y-63062772D01*
X54347028Y-62865601D01*
X54239574Y-62684988D01*
X54101006Y-62526981D01*
X53935963Y-62396872D01*
X53930847Y-62394181D01*
X53930845Y-62394179D01*
X53755090Y-62301710D01*
X53755088Y-62301709D01*
X53749973Y-62299018D01*
X53549266Y-62236696D01*
X53543531Y-62236017D01*
X53543530Y-62236017D01*
X53495242Y-62230302D01*
X53378626Y-62216500D01*
X52876184Y-62216500D01*
X52720221Y-62230831D01*
X52714659Y-62232400D01*
X52714657Y-62232400D01*
X52682760Y-62241396D01*
X52517951Y-62287877D01*
X52329463Y-62380829D01*
X52161071Y-62506573D01*
X52018414Y-62660899D01*
X51906269Y-62838638D01*
X51828392Y-63033837D01*
X51827267Y-63039494D01*
X51827265Y-63039500D01*
X51821503Y-63068469D01*
X51787392Y-63239960D01*
X51787316Y-63245735D01*
X51787316Y-63245739D01*
X51787000Y-63269898D01*
X51784641Y-63450102D01*
X39213001Y-63450102D01*
X39215283Y-63275680D01*
X39215359Y-63269898D01*
X39179768Y-63062772D01*
X39107028Y-62865601D01*
X38999574Y-62684988D01*
X38861006Y-62526981D01*
X38695963Y-62396872D01*
X38690847Y-62394181D01*
X38690845Y-62394179D01*
X38515090Y-62301710D01*
X38515088Y-62301709D01*
X38509973Y-62299018D01*
X38309266Y-62236696D01*
X38303531Y-62236017D01*
X38303530Y-62236017D01*
X38255242Y-62230302D01*
X38138626Y-62216500D01*
X37636184Y-62216500D01*
X37480221Y-62230831D01*
X37474659Y-62232400D01*
X37474657Y-62232400D01*
X37442760Y-62241396D01*
X37277951Y-62287877D01*
X37089463Y-62380829D01*
X36921071Y-62506573D01*
X36778414Y-62660899D01*
X36666269Y-62838638D01*
X36588392Y-63033837D01*
X36587267Y-63039494D01*
X36587265Y-63039500D01*
X36581503Y-63068469D01*
X36547392Y-63239960D01*
X36547316Y-63245735D01*
X36547316Y-63245739D01*
X36547000Y-63269898D01*
X36544641Y-63450102D01*
X34385500Y-63450102D01*
X34385500Y-62614969D01*
X34405502Y-62546848D01*
X34417858Y-62530665D01*
X34442591Y-62503197D01*
X34513240Y-62380829D01*
X34528773Y-62353926D01*
X34528774Y-62353925D01*
X34532077Y-62348203D01*
X34587382Y-62177991D01*
X34591367Y-62140082D01*
X34605400Y-62006565D01*
X34606090Y-62000000D01*
X34593761Y-61882696D01*
X34588072Y-61828573D01*
X34588072Y-61828572D01*
X34587382Y-61822009D01*
X34532077Y-61651797D01*
X34442591Y-61496803D01*
X34322836Y-61363801D01*
X34298673Y-61346245D01*
X34183387Y-61262485D01*
X34183386Y-61262484D01*
X34178045Y-61258604D01*
X34172017Y-61255920D01*
X34172015Y-61255919D01*
X34020577Y-61188495D01*
X34020576Y-61188495D01*
X34014546Y-61185810D01*
X33927016Y-61167205D01*
X33845943Y-61149972D01*
X33845939Y-61149972D01*
X33839486Y-61148600D01*
X33660514Y-61148600D01*
X33654061Y-61149972D01*
X33654057Y-61149972D01*
X33572984Y-61167205D01*
X33485454Y-61185810D01*
X33479424Y-61188495D01*
X33479423Y-61188495D01*
X33327985Y-61255919D01*
X33327983Y-61255920D01*
X33321955Y-61258604D01*
X33316614Y-61262484D01*
X33316613Y-61262485D01*
X33201328Y-61346245D01*
X33177164Y-61363801D01*
X33057409Y-61496803D01*
X32967923Y-61651797D01*
X32912618Y-61822009D01*
X32911928Y-61828572D01*
X32911928Y-61828573D01*
X32906239Y-61882696D01*
X32893910Y-62000000D01*
X31500000Y-62000000D01*
X31500000Y-60910102D01*
X36544641Y-60910102D01*
X36580232Y-61117228D01*
X36652972Y-61314399D01*
X36760426Y-61495012D01*
X36898994Y-61653019D01*
X37064037Y-61783128D01*
X37069153Y-61785819D01*
X37069155Y-61785821D01*
X37175778Y-61841918D01*
X37250027Y-61880982D01*
X37450734Y-61943304D01*
X37456469Y-61943983D01*
X37456470Y-61943983D01*
X37487032Y-61947600D01*
X37621374Y-61963500D01*
X38123816Y-61963500D01*
X38279779Y-61949169D01*
X38285341Y-61947600D01*
X38285343Y-61947600D01*
X38380914Y-61920646D01*
X38482049Y-61892123D01*
X38670537Y-61799171D01*
X38824409Y-61684270D01*
X38834305Y-61676880D01*
X38834306Y-61676879D01*
X38838929Y-61673427D01*
X38857794Y-61653019D01*
X38977667Y-61523341D01*
X38977669Y-61523338D01*
X38981586Y-61519101D01*
X38993638Y-61500000D01*
X46393910Y-61500000D01*
X46412618Y-61677991D01*
X46467923Y-61848203D01*
X46471226Y-61853925D01*
X46471227Y-61853926D01*
X46493280Y-61892123D01*
X46557409Y-62003197D01*
X46677164Y-62136199D01*
X46682506Y-62140080D01*
X46682508Y-62140082D01*
X46809573Y-62232400D01*
X46821955Y-62241396D01*
X46827983Y-62244080D01*
X46827985Y-62244081D01*
X46947527Y-62297304D01*
X46985454Y-62314190D01*
X47072984Y-62332795D01*
X47154057Y-62350028D01*
X47154061Y-62350028D01*
X47160514Y-62351400D01*
X47339486Y-62351400D01*
X47345939Y-62350028D01*
X47345943Y-62350028D01*
X47427016Y-62332795D01*
X47514546Y-62314190D01*
X47552473Y-62297304D01*
X47672015Y-62244081D01*
X47672017Y-62244080D01*
X47678045Y-62241396D01*
X47690427Y-62232400D01*
X47817492Y-62140082D01*
X47817494Y-62140080D01*
X47822836Y-62136199D01*
X47942591Y-62003197D01*
X48006720Y-61892123D01*
X48028773Y-61853926D01*
X48028774Y-61853925D01*
X48032077Y-61848203D01*
X48087382Y-61677991D01*
X48106090Y-61500000D01*
X48091775Y-61363801D01*
X48088072Y-61328573D01*
X48088072Y-61328572D01*
X48087382Y-61322009D01*
X48084910Y-61314399D01*
X48034119Y-61158082D01*
X48032077Y-61151797D01*
X47942591Y-60996803D01*
X47864526Y-60910102D01*
X51784641Y-60910102D01*
X51820232Y-61117228D01*
X51892972Y-61314399D01*
X52000426Y-61495012D01*
X52138994Y-61653019D01*
X52304037Y-61783128D01*
X52309153Y-61785819D01*
X52309155Y-61785821D01*
X52415778Y-61841918D01*
X52490027Y-61880982D01*
X52690734Y-61943304D01*
X52696469Y-61943983D01*
X52696470Y-61943983D01*
X52727032Y-61947600D01*
X52861374Y-61963500D01*
X53363816Y-61963500D01*
X53519779Y-61949169D01*
X53525341Y-61947600D01*
X53525343Y-61947600D01*
X53620914Y-61920646D01*
X53722049Y-61892123D01*
X53910537Y-61799171D01*
X54064409Y-61684270D01*
X54074305Y-61676880D01*
X54074306Y-61676879D01*
X54078929Y-61673427D01*
X54097794Y-61653019D01*
X54217667Y-61523341D01*
X54217669Y-61523338D01*
X54221586Y-61519101D01*
X54333731Y-61341362D01*
X54411608Y-61146163D01*
X54412733Y-61140506D01*
X54412735Y-61140500D01*
X54451481Y-60945707D01*
X54451481Y-60945705D01*
X54452608Y-60940040D01*
X54452926Y-60915800D01*
X54455283Y-60735680D01*
X54455359Y-60729898D01*
X54447548Y-60684438D01*
X54420747Y-60528469D01*
X54420747Y-60528468D01*
X54419768Y-60522772D01*
X54347028Y-60325601D01*
X54239574Y-60144988D01*
X54101006Y-59986981D01*
X53962154Y-59877519D01*
X53940502Y-59860450D01*
X53940500Y-59860449D01*
X53935963Y-59856872D01*
X53930847Y-59854181D01*
X53930845Y-59854179D01*
X53755090Y-59761710D01*
X53755088Y-59761709D01*
X53749973Y-59759018D01*
X53549266Y-59696696D01*
X53543531Y-59696017D01*
X53543530Y-59696017D01*
X53495242Y-59690302D01*
X53378626Y-59676500D01*
X52876184Y-59676500D01*
X52720221Y-59690831D01*
X52714659Y-59692400D01*
X52714657Y-59692400D01*
X52619086Y-59719354D01*
X52517951Y-59747877D01*
X52329463Y-59840829D01*
X52324837Y-59844283D01*
X52324836Y-59844284D01*
X52205538Y-59933368D01*
X52161071Y-59966573D01*
X52018414Y-60120899D01*
X51906269Y-60298638D01*
X51828392Y-60493837D01*
X51827267Y-60499494D01*
X51827265Y-60499500D01*
X51788519Y-60694293D01*
X51787392Y-60699960D01*
X51787316Y-60705735D01*
X51787316Y-60705739D01*
X51787000Y-60729898D01*
X51784641Y-60910102D01*
X47864526Y-60910102D01*
X47827258Y-60868712D01*
X47827257Y-60868711D01*
X47822836Y-60863801D01*
X47678045Y-60758604D01*
X47672017Y-60755920D01*
X47672015Y-60755919D01*
X47520577Y-60688495D01*
X47520576Y-60688495D01*
X47514546Y-60685810D01*
X47427016Y-60667205D01*
X47345943Y-60649972D01*
X47345939Y-60649972D01*
X47339486Y-60648600D01*
X47160514Y-60648600D01*
X47154061Y-60649972D01*
X47154057Y-60649972D01*
X47072984Y-60667205D01*
X46985454Y-60685810D01*
X46979424Y-60688495D01*
X46979423Y-60688495D01*
X46827985Y-60755919D01*
X46827983Y-60755920D01*
X46821955Y-60758604D01*
X46677164Y-60863801D01*
X46672743Y-60868711D01*
X46672742Y-60868712D01*
X46635475Y-60910102D01*
X46557409Y-60996803D01*
X46467923Y-61151797D01*
X46465881Y-61158082D01*
X46415091Y-61314399D01*
X46412618Y-61322009D01*
X46411928Y-61328572D01*
X46411928Y-61328573D01*
X46408225Y-61363801D01*
X46393910Y-61500000D01*
X38993638Y-61500000D01*
X39093731Y-61341362D01*
X39171608Y-61146163D01*
X39172733Y-61140506D01*
X39172735Y-61140500D01*
X39211481Y-60945707D01*
X39211481Y-60945705D01*
X39212608Y-60940040D01*
X39212926Y-60915800D01*
X39215283Y-60735680D01*
X39215359Y-60729898D01*
X39207548Y-60684438D01*
X39180747Y-60528469D01*
X39180747Y-60528468D01*
X39179768Y-60522772D01*
X39107028Y-60325601D01*
X38999574Y-60144988D01*
X38861006Y-59986981D01*
X38722154Y-59877519D01*
X38700502Y-59860450D01*
X38700500Y-59860449D01*
X38695963Y-59856872D01*
X38690847Y-59854181D01*
X38690845Y-59854179D01*
X38515090Y-59761710D01*
X38515088Y-59761709D01*
X38509973Y-59759018D01*
X38309266Y-59696696D01*
X38303531Y-59696017D01*
X38303530Y-59696017D01*
X38255242Y-59690302D01*
X38138626Y-59676500D01*
X37636184Y-59676500D01*
X37480221Y-59690831D01*
X37474659Y-59692400D01*
X37474657Y-59692400D01*
X37379086Y-59719354D01*
X37277951Y-59747877D01*
X37089463Y-59840829D01*
X37084837Y-59844283D01*
X37084836Y-59844284D01*
X36965538Y-59933368D01*
X36921071Y-59966573D01*
X36778414Y-60120899D01*
X36666269Y-60298638D01*
X36588392Y-60493837D01*
X36587267Y-60499494D01*
X36587265Y-60499500D01*
X36548519Y-60694293D01*
X36547392Y-60699960D01*
X36547316Y-60705735D01*
X36547316Y-60705739D01*
X36547000Y-60729898D01*
X36544641Y-60910102D01*
X31500000Y-60910102D01*
X31500000Y-59052190D01*
X31520002Y-58984069D01*
X31536905Y-58963095D01*
X32463095Y-58036905D01*
X32525407Y-58002879D01*
X32552190Y-58000000D01*
X35364991Y-58000000D01*
X35433112Y-58020002D01*
X35479605Y-58073658D01*
X35489709Y-58143932D01*
X35460215Y-58208512D01*
X35443944Y-58224195D01*
X35329995Y-58315813D01*
X35209862Y-58458981D01*
X35206899Y-58464370D01*
X35206896Y-58464375D01*
X35144856Y-58577228D01*
X35119826Y-58622757D01*
X35063315Y-58800901D01*
X35046029Y-58955012D01*
X35043327Y-58979101D01*
X35042482Y-58986630D01*
X35043605Y-59000000D01*
X35055946Y-59146962D01*
X35058121Y-59172867D01*
X35109636Y-59352520D01*
X35195064Y-59518746D01*
X35198887Y-59523570D01*
X35198890Y-59523574D01*
X35284264Y-59631288D01*
X35311152Y-59665212D01*
X35315846Y-59669207D01*
X35421373Y-59759018D01*
X35453478Y-59786342D01*
X35616621Y-59877519D01*
X35794367Y-59935272D01*
X35979945Y-59957401D01*
X35986080Y-59956929D01*
X35986082Y-59956929D01*
X36042119Y-59952617D01*
X36166287Y-59943063D01*
X36346296Y-59892804D01*
X36351785Y-59890031D01*
X36351791Y-59890029D01*
X36442349Y-59844284D01*
X36513114Y-59808538D01*
X36541524Y-59786342D01*
X36578690Y-59757304D01*
X36660387Y-59693475D01*
X36664413Y-59688811D01*
X36664416Y-59688808D01*
X36778480Y-59556663D01*
X36782507Y-59551998D01*
X36866591Y-59403983D01*
X36871778Y-59394852D01*
X36871779Y-59394851D01*
X36874821Y-59389495D01*
X36886654Y-59353926D01*
X36897587Y-59321059D01*
X36938069Y-59262734D01*
X37003657Y-59235555D01*
X37075812Y-59249323D01*
X37212160Y-59321059D01*
X37250027Y-59340982D01*
X37450734Y-59403304D01*
X37456469Y-59403983D01*
X37456470Y-59403983D01*
X37487032Y-59407600D01*
X37621374Y-59423500D01*
X38123816Y-59423500D01*
X38279779Y-59409169D01*
X38285341Y-59407600D01*
X38285343Y-59407600D01*
X38461221Y-59357997D01*
X38482049Y-59352123D01*
X38670537Y-59259171D01*
X38779251Y-59177991D01*
X38834305Y-59136880D01*
X38834306Y-59136879D01*
X38838929Y-59133427D01*
X38861805Y-59108680D01*
X38977667Y-58983341D01*
X38977669Y-58983338D01*
X38981586Y-58979101D01*
X39093731Y-58801362D01*
X39171608Y-58606163D01*
X39172733Y-58600506D01*
X39172735Y-58600500D01*
X39211481Y-58405707D01*
X39211481Y-58405705D01*
X39212608Y-58400040D01*
X39212926Y-58375800D01*
X39214409Y-58262485D01*
X39215359Y-58189898D01*
X39210685Y-58162694D01*
X39180747Y-57988469D01*
X39180747Y-57988468D01*
X39179768Y-57982772D01*
X39107028Y-57785601D01*
X39047338Y-57685272D01*
X39002528Y-57609953D01*
X39002527Y-57609952D01*
X38999574Y-57604988D01*
X38861006Y-57446981D01*
X38695963Y-57316872D01*
X38690847Y-57314181D01*
X38690845Y-57314179D01*
X38515090Y-57221710D01*
X38515088Y-57221709D01*
X38509973Y-57219018D01*
X38309266Y-57156696D01*
X38303531Y-57156017D01*
X38303530Y-57156017D01*
X38255242Y-57150302D01*
X38138626Y-57136500D01*
X37636184Y-57136500D01*
X37480221Y-57150831D01*
X37474659Y-57152400D01*
X37474657Y-57152400D01*
X37379086Y-57179354D01*
X37277951Y-57207877D01*
X37089463Y-57300829D01*
X36921071Y-57426573D01*
X36917157Y-57430807D01*
X36917155Y-57430809D01*
X36829717Y-57525400D01*
X36778414Y-57580899D01*
X36775332Y-57585784D01*
X36732562Y-57653570D01*
X36679295Y-57700509D01*
X36609108Y-57711198D01*
X36544284Y-57682243D01*
X36505404Y-57622839D01*
X36500000Y-57586335D01*
X36500000Y-56435496D01*
X36520002Y-56367375D01*
X36573658Y-56320882D01*
X36643932Y-56310778D01*
X36708512Y-56340272D01*
X36734285Y-56371073D01*
X36760426Y-56415012D01*
X36898994Y-56573019D01*
X37064037Y-56703128D01*
X37069153Y-56705819D01*
X37069155Y-56705821D01*
X37244910Y-56798290D01*
X37250027Y-56800982D01*
X37450734Y-56863304D01*
X37456469Y-56863983D01*
X37456470Y-56863983D01*
X37487032Y-56867600D01*
X37621374Y-56883500D01*
X38123816Y-56883500D01*
X38279779Y-56869169D01*
X38285341Y-56867600D01*
X38285343Y-56867600D01*
X38380914Y-56840646D01*
X38482049Y-56812123D01*
X38670537Y-56719171D01*
X38838929Y-56593427D01*
X38872583Y-56557020D01*
X38977667Y-56443341D01*
X38977669Y-56443338D01*
X38981586Y-56439101D01*
X39093731Y-56261362D01*
X39171608Y-56066163D01*
X39172733Y-56060506D01*
X39172735Y-56060500D01*
X39211481Y-55865707D01*
X39211481Y-55865705D01*
X39212608Y-55860040D01*
X39212926Y-55835800D01*
X39215283Y-55655680D01*
X39215359Y-55649898D01*
X39194392Y-55527875D01*
X39180747Y-55448469D01*
X39180747Y-55448468D01*
X39179768Y-55442772D01*
X39107028Y-55245601D01*
X39059867Y-55166331D01*
X39002528Y-55069953D01*
X39002527Y-55069952D01*
X38999574Y-55064988D01*
X38861006Y-54906981D01*
X38695963Y-54776872D01*
X38690847Y-54774181D01*
X38690845Y-54774179D01*
X38515090Y-54681710D01*
X38515088Y-54681709D01*
X38509973Y-54679018D01*
X38309266Y-54616696D01*
X38303531Y-54616017D01*
X38303530Y-54616017D01*
X38255242Y-54610302D01*
X38138626Y-54596500D01*
X37636184Y-54596500D01*
X37480221Y-54610831D01*
X37474659Y-54612400D01*
X37474657Y-54612400D01*
X37379086Y-54639354D01*
X37277951Y-54667877D01*
X37089463Y-54760829D01*
X36921071Y-54886573D01*
X36917157Y-54890807D01*
X36917155Y-54890809D01*
X36800560Y-55016942D01*
X36778414Y-55040899D01*
X36736922Y-55106660D01*
X36732562Y-55113570D01*
X36679295Y-55160509D01*
X36609108Y-55171198D01*
X36544284Y-55142243D01*
X36505404Y-55082839D01*
X36500000Y-55046335D01*
X36500000Y-53895496D01*
X36520002Y-53827375D01*
X36573658Y-53780882D01*
X36643932Y-53770778D01*
X36708512Y-53800272D01*
X36734285Y-53831073D01*
X36760426Y-53875012D01*
X36898994Y-54033019D01*
X36903524Y-54036590D01*
X36983942Y-54099986D01*
X37064037Y-54163128D01*
X37069153Y-54165819D01*
X37069155Y-54165821D01*
X37244910Y-54258290D01*
X37250027Y-54260982D01*
X37450734Y-54323304D01*
X37456469Y-54323983D01*
X37456470Y-54323983D01*
X37487032Y-54327600D01*
X37621374Y-54343500D01*
X38123816Y-54343500D01*
X38279779Y-54329169D01*
X38285341Y-54327600D01*
X38285343Y-54327600D01*
X38380914Y-54300646D01*
X38482049Y-54272123D01*
X38670537Y-54179171D01*
X38681354Y-54171094D01*
X38834305Y-54056880D01*
X38834306Y-54056879D01*
X38838929Y-54053427D01*
X38901440Y-53985803D01*
X38977667Y-53903341D01*
X38977669Y-53903338D01*
X38981586Y-53899101D01*
X39093731Y-53721362D01*
X39171608Y-53526163D01*
X39172733Y-53520506D01*
X39172735Y-53520500D01*
X39211481Y-53325707D01*
X39211481Y-53325705D01*
X39212608Y-53320040D01*
X39212788Y-53306343D01*
X39215283Y-53115680D01*
X39215359Y-53109898D01*
X39210575Y-53082054D01*
X39180747Y-52908469D01*
X39180747Y-52908468D01*
X39179768Y-52902772D01*
X39107028Y-52705601D01*
X39045536Y-52602243D01*
X39002528Y-52529953D01*
X39002527Y-52529952D01*
X38999574Y-52524988D01*
X38861006Y-52366981D01*
X38796985Y-52316511D01*
X38700502Y-52240450D01*
X38700500Y-52240449D01*
X38695963Y-52236872D01*
X38690847Y-52234181D01*
X38690845Y-52234179D01*
X38515090Y-52141710D01*
X38515088Y-52141709D01*
X38509973Y-52139018D01*
X38309266Y-52076696D01*
X38303531Y-52076017D01*
X38303530Y-52076017D01*
X38255242Y-52070302D01*
X38138626Y-52056500D01*
X37636184Y-52056500D01*
X37480221Y-52070831D01*
X37474659Y-52072400D01*
X37474657Y-52072400D01*
X37379086Y-52099354D01*
X37277951Y-52127877D01*
X37089463Y-52220829D01*
X36921071Y-52346573D01*
X36917157Y-52350807D01*
X36917155Y-52350809D01*
X36895500Y-52374236D01*
X36778414Y-52500899D01*
X36775332Y-52505784D01*
X36732562Y-52573570D01*
X36679295Y-52620509D01*
X36609108Y-52631198D01*
X36544284Y-52602243D01*
X36505404Y-52542839D01*
X36500000Y-52506335D01*
X36500000Y-51355496D01*
X36520002Y-51287375D01*
X36573658Y-51240882D01*
X36643932Y-51230778D01*
X36708512Y-51260272D01*
X36734285Y-51291073D01*
X36760426Y-51335012D01*
X36898994Y-51493019D01*
X36903524Y-51496590D01*
X37058045Y-51618404D01*
X37064037Y-51623128D01*
X37069153Y-51625819D01*
X37069155Y-51625821D01*
X37162631Y-51675001D01*
X37250027Y-51720982D01*
X37450734Y-51783304D01*
X37456469Y-51783983D01*
X37456470Y-51783983D01*
X37487032Y-51787600D01*
X37621374Y-51803500D01*
X38123816Y-51803500D01*
X38279779Y-51789169D01*
X38285341Y-51787600D01*
X38285343Y-51787600D01*
X38443049Y-51743122D01*
X38482049Y-51732123D01*
X38670537Y-51639171D01*
X38698348Y-51618404D01*
X38834305Y-51516880D01*
X38834306Y-51516879D01*
X38838929Y-51513427D01*
X38845321Y-51506512D01*
X38977667Y-51363341D01*
X38977669Y-51363338D01*
X38981586Y-51359101D01*
X39093731Y-51181362D01*
X39171608Y-50986163D01*
X39172733Y-50980506D01*
X39172735Y-50980500D01*
X39211481Y-50785707D01*
X39211481Y-50785705D01*
X39212608Y-50780040D01*
X39212816Y-50764197D01*
X39214320Y-50649296D01*
X39215359Y-50569898D01*
X39213017Y-50556265D01*
X39180747Y-50368469D01*
X39180747Y-50368468D01*
X39179768Y-50362772D01*
X39107028Y-50165601D01*
X39100046Y-50153865D01*
X39002528Y-49989953D01*
X39002527Y-49989952D01*
X38999574Y-49984988D01*
X38861006Y-49826981D01*
X38695963Y-49696872D01*
X38690847Y-49694181D01*
X38690845Y-49694179D01*
X38515090Y-49601710D01*
X38515088Y-49601709D01*
X38509973Y-49599018D01*
X38309266Y-49536696D01*
X38303531Y-49536017D01*
X38303530Y-49536017D01*
X38255242Y-49530302D01*
X38138626Y-49516500D01*
X37636184Y-49516500D01*
X37480221Y-49530831D01*
X37474659Y-49532400D01*
X37474657Y-49532400D01*
X37379086Y-49559354D01*
X37277951Y-49587877D01*
X37089463Y-49680829D01*
X37084837Y-49684283D01*
X37084836Y-49684284D01*
X36931285Y-49798946D01*
X36921071Y-49806573D01*
X36917157Y-49810807D01*
X36917155Y-49810809D01*
X36784310Y-49954521D01*
X36778414Y-49960899D01*
X36746324Y-50011758D01*
X36732562Y-50033570D01*
X36679295Y-50080509D01*
X36609108Y-50091198D01*
X36544284Y-50062243D01*
X36505404Y-50002839D01*
X36500000Y-49966335D01*
X36500000Y-48815496D01*
X36520002Y-48747375D01*
X36573658Y-48700882D01*
X36643932Y-48690778D01*
X36708512Y-48720272D01*
X36734285Y-48751073D01*
X36760426Y-48795012D01*
X36898994Y-48953019D01*
X37064037Y-49083128D01*
X37069153Y-49085819D01*
X37069155Y-49085821D01*
X37244910Y-49178290D01*
X37250027Y-49180982D01*
X37450734Y-49243304D01*
X37456469Y-49243983D01*
X37456470Y-49243983D01*
X37487032Y-49247600D01*
X37621374Y-49263500D01*
X38123816Y-49263500D01*
X38279779Y-49249169D01*
X38285341Y-49247600D01*
X38285343Y-49247600D01*
X38380914Y-49220646D01*
X38482049Y-49192123D01*
X38670537Y-49099171D01*
X38748086Y-49041263D01*
X38834305Y-48976880D01*
X38834306Y-48976879D01*
X38838929Y-48973427D01*
X38861805Y-48948680D01*
X38977667Y-48823341D01*
X38977669Y-48823338D01*
X38981586Y-48819101D01*
X39093731Y-48641362D01*
X39171608Y-48446163D01*
X39172733Y-48440506D01*
X39172735Y-48440500D01*
X39211481Y-48245707D01*
X39211481Y-48245705D01*
X39212608Y-48240040D01*
X39212926Y-48215800D01*
X39215006Y-48056880D01*
X39215359Y-48029898D01*
X39179768Y-47822772D01*
X39107028Y-47625601D01*
X39088082Y-47593755D01*
X39002528Y-47449953D01*
X39002527Y-47449952D01*
X38999574Y-47444988D01*
X38861006Y-47286981D01*
X38762942Y-47209674D01*
X38700502Y-47160450D01*
X38700500Y-47160449D01*
X38695963Y-47156872D01*
X38690847Y-47154181D01*
X38690845Y-47154179D01*
X38515090Y-47061710D01*
X38515088Y-47061709D01*
X38509973Y-47059018D01*
X38309266Y-46996696D01*
X38303531Y-46996017D01*
X38303530Y-46996017D01*
X38255242Y-46990302D01*
X38138626Y-46976500D01*
X37636184Y-46976500D01*
X37480221Y-46990831D01*
X37474659Y-46992400D01*
X37474657Y-46992400D01*
X37379086Y-47019354D01*
X37277951Y-47047877D01*
X37089463Y-47140829D01*
X36921071Y-47266573D01*
X36778414Y-47420899D01*
X36775332Y-47425784D01*
X36732562Y-47493570D01*
X36679295Y-47540509D01*
X36609108Y-47551198D01*
X36544284Y-47522243D01*
X36505404Y-47462839D01*
X36500000Y-47426335D01*
X36500000Y-46275496D01*
X36520002Y-46207375D01*
X36573658Y-46160882D01*
X36643932Y-46150778D01*
X36708512Y-46180272D01*
X36734285Y-46211073D01*
X36760426Y-46255012D01*
X36898994Y-46413019D01*
X36903524Y-46416590D01*
X37039705Y-46523946D01*
X37064037Y-46543128D01*
X37069153Y-46545819D01*
X37069155Y-46545821D01*
X37155169Y-46591075D01*
X37250027Y-46640982D01*
X37450734Y-46703304D01*
X37456469Y-46703983D01*
X37456470Y-46703983D01*
X37487032Y-46707600D01*
X37621374Y-46723500D01*
X38123816Y-46723500D01*
X38279779Y-46709169D01*
X38285341Y-46707600D01*
X38285343Y-46707600D01*
X38425328Y-46668120D01*
X38482049Y-46652123D01*
X38670537Y-46559171D01*
X38838929Y-46433427D01*
X38861805Y-46408680D01*
X38977667Y-46283341D01*
X38977669Y-46283338D01*
X38981586Y-46279101D01*
X39093731Y-46101362D01*
X39171608Y-45906163D01*
X39182888Y-45849454D01*
X39215796Y-45786545D01*
X39277491Y-45751413D01*
X39348385Y-45755213D01*
X39373417Y-45768363D01*
X39373496Y-45768219D01*
X39391334Y-45778026D01*
X39407855Y-45788878D01*
X39423934Y-45801350D01*
X39464662Y-45818974D01*
X39475319Y-45824196D01*
X39507246Y-45841748D01*
X39507249Y-45841749D01*
X39514197Y-45845569D01*
X39533915Y-45850632D01*
X39552611Y-45857033D01*
X39571293Y-45865117D01*
X39579117Y-45866356D01*
X39579123Y-45866358D01*
X39615120Y-45872060D01*
X39626740Y-45874466D01*
X39658621Y-45882651D01*
X39669718Y-45885500D01*
X39690066Y-45885500D01*
X39709778Y-45887051D01*
X39729880Y-45890235D01*
X39774055Y-45886059D01*
X39785914Y-45885500D01*
X40318604Y-45885500D01*
X40386725Y-45905502D01*
X40425747Y-45945196D01*
X40451522Y-45986848D01*
X40576697Y-46111805D01*
X40582927Y-46115645D01*
X40582928Y-46115646D01*
X40720090Y-46200194D01*
X40727262Y-46204615D01*
X40807005Y-46231064D01*
X40888611Y-46258132D01*
X40888613Y-46258132D01*
X40895139Y-46260297D01*
X40901975Y-46260997D01*
X40901978Y-46260998D01*
X40945031Y-46265409D01*
X40999600Y-46271000D01*
X42000400Y-46271000D01*
X42003646Y-46270663D01*
X42003650Y-46270663D01*
X42099308Y-46260738D01*
X42099312Y-46260737D01*
X42106166Y-46260026D01*
X42112702Y-46257845D01*
X42112704Y-46257845D01*
X42263980Y-46207375D01*
X42273946Y-46204050D01*
X42424348Y-46110978D01*
X42549305Y-45985803D01*
X42568878Y-45954050D01*
X42638275Y-45841468D01*
X42638276Y-45841466D01*
X42642115Y-45835238D01*
X42697797Y-45667361D01*
X42708500Y-45562900D01*
X42708500Y-44937100D01*
X42708163Y-44933850D01*
X42698238Y-44838192D01*
X42698237Y-44838188D01*
X42697526Y-44831334D01*
X42693905Y-44820479D01*
X42643868Y-44670502D01*
X42641550Y-44663554D01*
X42548478Y-44513152D01*
X42461891Y-44426716D01*
X42427812Y-44364434D01*
X42432815Y-44293614D01*
X42461736Y-44248525D01*
X42544134Y-44165983D01*
X42549305Y-44160803D01*
X42579312Y-44112123D01*
X42638275Y-44016468D01*
X42638276Y-44016466D01*
X42642115Y-44010238D01*
X42687628Y-43873019D01*
X42695632Y-43848889D01*
X42695632Y-43848887D01*
X42697797Y-43842361D01*
X42699902Y-43821823D01*
X42704264Y-43779247D01*
X42708500Y-43737900D01*
X42708500Y-43112100D01*
X42707669Y-43104093D01*
X42698238Y-43013192D01*
X42698237Y-43013188D01*
X42697526Y-43006334D01*
X42680627Y-42955680D01*
X42650206Y-42864500D01*
X42641550Y-42838554D01*
X42548478Y-42688152D01*
X42423303Y-42563195D01*
X42417072Y-42559354D01*
X42278968Y-42474225D01*
X42278966Y-42474224D01*
X42272738Y-42470385D01*
X42179227Y-42439369D01*
X42111389Y-42416868D01*
X42111387Y-42416868D01*
X42104861Y-42414703D01*
X42098025Y-42414003D01*
X42098022Y-42414002D01*
X42054969Y-42409591D01*
X42000400Y-42404000D01*
X40999600Y-42404000D01*
X40996354Y-42404337D01*
X40996350Y-42404337D01*
X40900692Y-42414262D01*
X40900688Y-42414263D01*
X40893834Y-42414974D01*
X40887298Y-42417155D01*
X40887296Y-42417155D01*
X40805541Y-42444431D01*
X40726054Y-42470950D01*
X40575652Y-42564022D01*
X40450695Y-42689197D01*
X40446855Y-42695427D01*
X40446854Y-42695428D01*
X40379549Y-42804616D01*
X40326776Y-42852110D01*
X40272289Y-42864500D01*
X39815423Y-42864500D01*
X39747302Y-42844498D01*
X39726328Y-42827595D01*
X39545250Y-42646517D01*
X39537674Y-42638191D01*
X39533553Y-42631697D01*
X39483734Y-42584914D01*
X39480893Y-42582160D01*
X39461094Y-42562361D01*
X39457969Y-42559937D01*
X39457960Y-42559929D01*
X39457874Y-42559863D01*
X39448849Y-42552155D01*
X39422285Y-42527210D01*
X39416506Y-42521783D01*
X39398669Y-42511977D01*
X39382153Y-42501127D01*
X39366067Y-42488650D01*
X39325334Y-42471024D01*
X39314686Y-42465807D01*
X39303058Y-42459415D01*
X39275803Y-42444431D01*
X39268128Y-42442460D01*
X39268122Y-42442458D01*
X39256089Y-42439369D01*
X39237387Y-42432966D01*
X39218708Y-42424883D01*
X39184872Y-42419524D01*
X39174873Y-42417940D01*
X39163260Y-42415535D01*
X39120282Y-42404500D01*
X39099935Y-42404500D01*
X39080219Y-42402948D01*
X39070208Y-42401362D01*
X39006056Y-42370947D01*
X38995198Y-42359998D01*
X38861006Y-42206981D01*
X38695963Y-42076872D01*
X38690847Y-42074181D01*
X38690845Y-42074179D01*
X38515090Y-41981710D01*
X38515088Y-41981709D01*
X38509973Y-41979018D01*
X38309266Y-41916696D01*
X38303531Y-41916017D01*
X38303530Y-41916017D01*
X38255242Y-41910302D01*
X38138626Y-41896500D01*
X37636184Y-41896500D01*
X37480221Y-41910831D01*
X37474659Y-41912400D01*
X37474657Y-41912400D01*
X37432293Y-41924348D01*
X37277951Y-41967877D01*
X37089463Y-42060829D01*
X37084837Y-42064283D01*
X37084836Y-42064284D01*
X36975306Y-42146074D01*
X36921071Y-42186573D01*
X36917157Y-42190807D01*
X36917155Y-42190809D01*
X36790789Y-42327512D01*
X36778414Y-42340899D01*
X36775332Y-42345784D01*
X36732562Y-42413570D01*
X36679295Y-42460509D01*
X36609108Y-42471198D01*
X36544284Y-42442243D01*
X36505404Y-42382839D01*
X36500000Y-42346335D01*
X36500000Y-38171343D01*
X36520002Y-38103222D01*
X36573658Y-38056729D01*
X36643932Y-38046625D01*
X36708512Y-38076119D01*
G37*
G04 #@! TD.AperFunction*
G04 #@! TA.AperFunction,Conductor*
G36*
X53871659Y-35284731D02*
G01*
X53913847Y-35312579D01*
X54077595Y-35476327D01*
X54111621Y-35538639D01*
X54114500Y-35565422D01*
X54114500Y-39422139D01*
X54094498Y-39490260D01*
X54040842Y-39536753D01*
X53970568Y-39546857D01*
X53929833Y-39533647D01*
X53755090Y-39441710D01*
X53755088Y-39441709D01*
X53749973Y-39439018D01*
X53549266Y-39376696D01*
X53543531Y-39376017D01*
X53543530Y-39376017D01*
X53505880Y-39371561D01*
X53378626Y-39356500D01*
X41275844Y-39356500D01*
X41207723Y-39336498D01*
X41186749Y-39319595D01*
X40867554Y-39000400D01*
X40082247Y-38215094D01*
X40048223Y-38152783D01*
X40053287Y-38081968D01*
X40095834Y-38025132D01*
X40162354Y-38000321D01*
X40171343Y-38000000D01*
X51500000Y-38000000D01*
X51500000Y-35444108D01*
X51520002Y-35375987D01*
X51573658Y-35329494D01*
X51643932Y-35319390D01*
X51713131Y-35353089D01*
X51734850Y-35373881D01*
X51912548Y-35488620D01*
X51918114Y-35490863D01*
X52103168Y-35565442D01*
X52103171Y-35565443D01*
X52108737Y-35567686D01*
X52316337Y-35608228D01*
X52321899Y-35608500D01*
X53027846Y-35608500D01*
X53185566Y-35593452D01*
X53388534Y-35533908D01*
X53472111Y-35490863D01*
X53571249Y-35439804D01*
X53571252Y-35439802D01*
X53576580Y-35437058D01*
X53742920Y-35306396D01*
X53743718Y-35307412D01*
X53800988Y-35277935D01*
X53871659Y-35284731D01*
G37*
G04 #@! TD.AperFunction*
M02*
