G04 #@! TF.GenerationSoftware,KiCad,Pcbnew,6.0.9-8da3e8f707~116~ubuntu20.04.1*
G04 #@! TF.CreationDate,2022-11-21T16:14:30-05:00*
G04 #@! TF.ProjectId,dynamixel_control,64796e61-6d69-4786-956c-5f636f6e7472,rev?*
G04 #@! TF.SameCoordinates,Original*
G04 #@! TF.FileFunction,Paste,Top*
G04 #@! TF.FilePolarity,Positive*
%FSLAX46Y46*%
G04 Gerber Fmt 4.6, Leading zero omitted, Abs format (unit mm)*
G04 Created by KiCad (PCBNEW 6.0.9-8da3e8f707~116~ubuntu20.04.1) date 2022-11-21 16:14:30*
%MOMM*%
%LPD*%
G01*
G04 APERTURE LIST*
G04 Aperture macros list*
%AMRoundRect*
0 Rectangle with rounded corners*
0 $1 Rounding radius*
0 $2 $3 $4 $5 $6 $7 $8 $9 X,Y pos of 4 corners*
0 Add a 4 corners polygon primitive as box body*
4,1,4,$2,$3,$4,$5,$6,$7,$8,$9,$2,$3,0*
0 Add four circle primitives for the rounded corners*
1,1,$1+$1,$2,$3*
1,1,$1+$1,$4,$5*
1,1,$1+$1,$6,$7*
1,1,$1+$1,$8,$9*
0 Add four rect primitives between the rounded corners*
20,1,$1+$1,$2,$3,$4,$5,0*
20,1,$1+$1,$4,$5,$6,$7,0*
20,1,$1+$1,$6,$7,$8,$9,0*
20,1,$1+$1,$8,$9,$2,$3,0*%
G04 Aperture macros list end*
%ADD10RoundRect,0.250000X-0.450000X0.262500X-0.450000X-0.262500X0.450000X-0.262500X0.450000X0.262500X0*%
%ADD11RoundRect,0.250000X-0.475000X0.250000X-0.475000X-0.250000X0.475000X-0.250000X0.475000X0.250000X0*%
%ADD12RoundRect,0.250000X-0.262500X-0.450000X0.262500X-0.450000X0.262500X0.450000X-0.262500X0.450000X0*%
%ADD13RoundRect,0.250000X-0.250000X-0.475000X0.250000X-0.475000X0.250000X0.475000X-0.250000X0.475000X0*%
%ADD14RoundRect,0.250000X-0.312500X-1.450000X0.312500X-1.450000X0.312500X1.450000X-0.312500X1.450000X0*%
%ADD15RoundRect,0.250000X0.262500X0.450000X-0.262500X0.450000X-0.262500X-0.450000X0.262500X-0.450000X0*%
%ADD16RoundRect,0.250000X0.475000X-0.250000X0.475000X0.250000X-0.475000X0.250000X-0.475000X-0.250000X0*%
%ADD17RoundRect,0.150000X0.587500X0.150000X-0.587500X0.150000X-0.587500X-0.150000X0.587500X-0.150000X0*%
%ADD18RoundRect,0.250000X0.450000X-0.262500X0.450000X0.262500X-0.450000X0.262500X-0.450000X-0.262500X0*%
%ADD19RoundRect,0.150000X-0.587500X-0.150000X0.587500X-0.150000X0.587500X0.150000X-0.587500X0.150000X0*%
%ADD20RoundRect,0.250000X0.250000X0.475000X-0.250000X0.475000X-0.250000X-0.475000X0.250000X-0.475000X0*%
%ADD21R,1.000000X0.300000*%
%ADD22R,0.300000X1.000000*%
%ADD23RoundRect,0.150000X-0.512500X-0.150000X0.512500X-0.150000X0.512500X0.150000X-0.512500X0.150000X0*%
%ADD24RoundRect,0.100000X0.637500X0.100000X-0.637500X0.100000X-0.637500X-0.100000X0.637500X-0.100000X0*%
%ADD25RoundRect,0.250000X-1.450000X0.312500X-1.450000X-0.312500X1.450000X-0.312500X1.450000X0.312500X0*%
%ADD26R,0.800000X0.300000*%
G04 APERTURE END LIST*
D10*
X30500000Y-37175000D03*
X30500000Y-39000000D03*
D11*
X47500000Y-33750000D03*
X47500000Y-35650000D03*
D12*
X32175000Y-53000000D03*
X34000000Y-53000000D03*
D13*
X47500000Y-29000000D03*
X49400000Y-29000000D03*
D14*
X23225000Y-55000000D03*
X27500000Y-55000000D03*
D11*
X44250000Y-71350000D03*
X44250000Y-73250000D03*
X50000000Y-69600000D03*
X50000000Y-71500000D03*
D13*
X26750000Y-51750000D03*
X28650000Y-51750000D03*
D10*
X35000000Y-39675000D03*
X35000000Y-41500000D03*
D15*
X34250000Y-74750000D03*
X32425000Y-74750000D03*
D12*
X48500000Y-61500000D03*
X50325000Y-61500000D03*
D13*
X47500000Y-31500000D03*
X49400000Y-31500000D03*
D16*
X49500000Y-35650000D03*
X49500000Y-33750000D03*
D13*
X33250000Y-66000000D03*
X35150000Y-66000000D03*
D17*
X34937500Y-45450000D03*
X34937500Y-43550000D03*
X33062500Y-44500000D03*
D18*
X41500000Y-67750000D03*
X41500000Y-65925000D03*
D16*
X21500000Y-29500000D03*
X21500000Y-27600000D03*
D19*
X33062500Y-36050000D03*
X33062500Y-37950000D03*
X34937500Y-37000000D03*
D13*
X25600000Y-36500000D03*
X27500000Y-36500000D03*
D20*
X34000000Y-49500000D03*
X32100000Y-49500000D03*
D21*
X44075000Y-67500000D03*
X44075000Y-69000000D03*
D22*
X45000000Y-69425000D03*
D21*
X44075000Y-68500000D03*
D22*
X45500000Y-69425000D03*
D21*
X46925000Y-68000000D03*
D22*
X46000000Y-69425000D03*
D21*
X46925000Y-67500000D03*
X44075000Y-68000000D03*
X46925000Y-69000000D03*
X46925000Y-68500000D03*
D22*
X46000000Y-67075000D03*
X45500000Y-67075000D03*
X45000000Y-67075000D03*
D13*
X39500000Y-36000000D03*
X41400000Y-36000000D03*
D12*
X23175000Y-51750000D03*
X25000000Y-51750000D03*
D16*
X50000000Y-67900000D03*
X50000000Y-66000000D03*
D23*
X32612500Y-61050000D03*
X32612500Y-62000000D03*
X32612500Y-62950000D03*
X34887500Y-62950000D03*
X34887500Y-61050000D03*
D12*
X32425000Y-72500000D03*
X34250000Y-72500000D03*
X48500000Y-59000000D03*
X50325000Y-59000000D03*
X32500000Y-56500000D03*
X34325000Y-56500000D03*
D24*
X45362500Y-34275000D03*
X45362500Y-33625000D03*
X45362500Y-32975000D03*
X45362500Y-32325000D03*
X45362500Y-31675000D03*
X45362500Y-31025000D03*
X45362500Y-30375000D03*
X45362500Y-29725000D03*
X39637500Y-29725000D03*
X39637500Y-30375000D03*
X39637500Y-31025000D03*
X39637500Y-31675000D03*
X39637500Y-32325000D03*
X39637500Y-32975000D03*
X39637500Y-33625000D03*
X39637500Y-34275000D03*
D18*
X41500000Y-72000000D03*
X41500000Y-70175000D03*
D25*
X22500000Y-31500000D03*
X22500000Y-35775000D03*
D26*
X32200000Y-68000000D03*
X32200000Y-68500000D03*
X32200000Y-69000000D03*
X32200000Y-69500000D03*
X35300000Y-69500000D03*
X35300000Y-69000000D03*
X35300000Y-68500000D03*
X35300000Y-68000000D03*
D20*
X34450000Y-59000000D03*
X32550000Y-59000000D03*
M02*
