G04 #@! TF.GenerationSoftware,KiCad,Pcbnew,6.0.10-86aedd382b~118~ubuntu20.04.1*
G04 #@! TF.CreationDate,2023-01-31T09:10:59-05:00*
G04 #@! TF.ProjectId,dynamixel_control,64796e61-6d69-4786-956c-5f636f6e7472,rev?*
G04 #@! TF.SameCoordinates,Original*
G04 #@! TF.FileFunction,Copper,L2,Inr*
G04 #@! TF.FilePolarity,Positive*
%FSLAX46Y46*%
G04 Gerber Fmt 4.6, Leading zero omitted, Abs format (unit mm)*
G04 Created by KiCad (PCBNEW 6.0.10-86aedd382b~118~ubuntu20.04.1) date 2023-01-31 09:10:59*
%MOMM*%
%LPD*%
G01*
G04 APERTURE LIST*
G04 Aperture macros list*
%AMRoundRect*
0 Rectangle with rounded corners*
0 $1 Rounding radius*
0 $2 $3 $4 $5 $6 $7 $8 $9 X,Y pos of 4 corners*
0 Add a 4 corners polygon primitive as box body*
4,1,4,$2,$3,$4,$5,$6,$7,$8,$9,$2,$3,0*
0 Add four circle primitives for the rounded corners*
1,1,$1+$1,$2,$3*
1,1,$1+$1,$4,$5*
1,1,$1+$1,$6,$7*
1,1,$1+$1,$8,$9*
0 Add four rect primitives between the rounded corners*
20,1,$1+$1,$2,$3,$4,$5,0*
20,1,$1+$1,$4,$5,$6,$7,0*
20,1,$1+$1,$6,$7,$8,$9,0*
20,1,$1+$1,$8,$9,$2,$3,0*%
G04 Aperture macros list end*
G04 #@! TA.AperFunction,ComponentPad*
%ADD10RoundRect,0.250000X0.625000X-0.350000X0.625000X0.350000X-0.625000X0.350000X-0.625000X-0.350000X0*%
G04 #@! TD*
G04 #@! TA.AperFunction,ComponentPad*
%ADD11O,1.750000X1.200000*%
G04 #@! TD*
G04 #@! TA.AperFunction,ComponentPad*
%ADD12RoundRect,0.250000X0.350000X0.625000X-0.350000X0.625000X-0.350000X-0.625000X0.350000X-0.625000X0*%
G04 #@! TD*
G04 #@! TA.AperFunction,ComponentPad*
%ADD13O,1.200000X1.750000*%
G04 #@! TD*
G04 #@! TA.AperFunction,ComponentPad*
%ADD14RoundRect,0.750000X0.750000X2.250000X-0.750000X2.250000X-0.750000X-2.250000X0.750000X-2.250000X0*%
G04 #@! TD*
G04 #@! TA.AperFunction,ComponentPad*
%ADD15RoundRect,0.750000X-2.250000X0.750000X-2.250000X-0.750000X2.250000X-0.750000X2.250000X0.750000X0*%
G04 #@! TD*
G04 #@! TA.AperFunction,ComponentPad*
%ADD16O,1.651000X1.270000*%
G04 #@! TD*
G04 #@! TA.AperFunction,ComponentPad*
%ADD17R,1.750000X1.750000*%
G04 #@! TD*
G04 #@! TA.AperFunction,ComponentPad*
%ADD18C,1.750000*%
G04 #@! TD*
G04 #@! TA.AperFunction,ComponentPad*
%ADD19R,1.000000X1.000000*%
G04 #@! TD*
G04 #@! TA.AperFunction,ComponentPad*
%ADD20O,1.000000X1.000000*%
G04 #@! TD*
G04 #@! TA.AperFunction,ViaPad*
%ADD21C,0.685800*%
G04 #@! TD*
G04 #@! TA.AperFunction,ViaPad*
%ADD22C,0.889000*%
G04 #@! TD*
G04 #@! TA.AperFunction,Conductor*
%ADD23C,1.270000*%
G04 #@! TD*
G04 APERTURE END LIST*
D10*
X52700000Y-36500000D03*
D11*
X52700000Y-34500000D03*
D12*
X44000000Y-26750000D03*
D13*
X42000000Y-26750000D03*
X40000000Y-26750000D03*
D14*
X31900000Y-25150000D03*
D15*
X32500000Y-30750000D03*
D16*
X37880000Y-43040000D03*
X37880000Y-45580000D03*
X37880000Y-48120000D03*
X37880000Y-50660000D03*
X53120000Y-45580000D03*
X37880000Y-53200000D03*
X37880000Y-55740000D03*
X37880000Y-58280000D03*
X37880000Y-60820000D03*
X37880000Y-63360000D03*
X37880000Y-65900000D03*
X37880000Y-68440000D03*
X37880000Y-70980000D03*
X37880000Y-73520000D03*
X53120000Y-73520000D03*
X53120000Y-70980000D03*
X53120000Y-68440000D03*
X53120000Y-65900000D03*
X53120000Y-63360000D03*
X53120000Y-60820000D03*
X53120000Y-58280000D03*
X53120000Y-55740000D03*
X53120000Y-53200000D03*
X53120000Y-50660000D03*
X53120000Y-48120000D03*
X37880000Y-40500000D03*
X53120000Y-43040000D03*
X53120000Y-40500000D03*
D17*
X28250000Y-73000000D03*
D18*
X25750000Y-73000000D03*
X23250000Y-73000000D03*
X22250000Y-41460000D03*
X22250000Y-44000000D03*
X22250000Y-46540000D03*
D17*
X28250000Y-61500000D03*
D18*
X25750000Y-61500000D03*
X23250000Y-61500000D03*
D17*
X28250000Y-67250000D03*
D18*
X25750000Y-67250000D03*
X23250000Y-67250000D03*
D19*
X42250000Y-44250000D03*
D20*
X42250000Y-45520000D03*
X42250000Y-46790000D03*
D21*
X32000000Y-42500000D03*
D22*
X22500000Y-27500000D03*
D21*
X41400000Y-33150000D03*
D22*
X46250000Y-35500000D03*
X28000000Y-38000000D03*
X46500000Y-71000000D03*
X28500000Y-27000000D03*
X35250000Y-64750000D03*
X27500000Y-27000000D03*
X24500000Y-28000000D03*
X28500000Y-25000000D03*
D21*
X33000000Y-60000000D03*
D22*
X28500000Y-26000000D03*
D21*
X41400000Y-34100000D03*
D22*
X32251197Y-70943945D03*
X25500000Y-28000000D03*
X45750000Y-73250000D03*
X28500000Y-22000000D03*
X26500000Y-28000000D03*
X50000000Y-72500000D03*
X50500000Y-51000000D03*
X49250000Y-27750000D03*
X51250000Y-57000000D03*
X21500000Y-26500000D03*
X32500000Y-63750000D03*
D21*
X42257533Y-68992467D03*
D22*
X32250000Y-48000000D03*
X27500000Y-28000000D03*
X28500000Y-50250000D03*
D21*
X48250000Y-66750000D03*
X37864278Y-33217935D03*
D22*
X28500000Y-24000000D03*
D21*
X41500000Y-65000000D03*
D22*
X28500000Y-28000000D03*
X28000000Y-39000000D03*
X28500000Y-23000000D03*
X50000000Y-65000000D03*
D21*
X41000000Y-31750000D03*
D22*
X48500000Y-69500000D03*
D21*
X46500000Y-65250000D03*
X47250000Y-59000000D03*
D22*
X47000000Y-56750000D03*
D21*
X47000000Y-42500000D03*
X47250000Y-61500000D03*
D22*
X38500000Y-36000000D03*
D21*
X41500000Y-73000000D03*
D22*
X51250000Y-69750000D03*
X45500000Y-72000000D03*
D21*
X35500000Y-59000000D03*
D22*
X37250000Y-37000000D03*
X36250000Y-37000000D03*
D21*
X33750000Y-62000000D03*
X34000000Y-69500000D03*
D23*
X37250000Y-38750000D02*
X35000000Y-38750000D01*
X44750000Y-36500000D02*
X44750000Y-38500000D01*
G04 #@! TA.AperFunction,Conductor*
G36*
X36442121Y-20528502D02*
G01*
X36488614Y-20582158D01*
X36500000Y-20634500D01*
X36500000Y-35928048D01*
X36479998Y-35996169D01*
X36426342Y-36042662D01*
X36360829Y-36053358D01*
X36262813Y-36043056D01*
X36262812Y-36043056D01*
X36256685Y-36042412D01*
X36138087Y-36053206D01*
X36076703Y-36058792D01*
X36076702Y-36058792D01*
X36070562Y-36059351D01*
X36064648Y-36061092D01*
X36064646Y-36061092D01*
X36061738Y-36061948D01*
X35891273Y-36112119D01*
X35725647Y-36198705D01*
X35579995Y-36315813D01*
X35459862Y-36458981D01*
X35456899Y-36464370D01*
X35456896Y-36464375D01*
X35383509Y-36597868D01*
X35369826Y-36622757D01*
X35313315Y-36800901D01*
X35292482Y-36986630D01*
X35308121Y-37172867D01*
X35359636Y-37352520D01*
X35445064Y-37518746D01*
X35448890Y-37523573D01*
X35472746Y-37553672D01*
X35499383Y-37619482D01*
X35500000Y-37631936D01*
X35500000Y-56874000D01*
X35479998Y-56942121D01*
X35426342Y-56988614D01*
X35374000Y-57000000D01*
X32500000Y-57000000D01*
X30500000Y-59000000D01*
X30500000Y-75365500D01*
X30479998Y-75433621D01*
X30426342Y-75480114D01*
X30374000Y-75491500D01*
X20634500Y-75491500D01*
X20566379Y-75471498D01*
X20519886Y-75417842D01*
X20508500Y-75365500D01*
X20508500Y-72966082D01*
X21862172Y-72966082D01*
X21862469Y-72971234D01*
X21862469Y-72971238D01*
X21867845Y-73064463D01*
X21875268Y-73193206D01*
X21876405Y-73198252D01*
X21876406Y-73198258D01*
X21896686Y-73288244D01*
X21925283Y-73415141D01*
X22010875Y-73625927D01*
X22129744Y-73819904D01*
X22278698Y-73991861D01*
X22453737Y-74137181D01*
X22458189Y-74139783D01*
X22458194Y-74139786D01*
X22552199Y-74194718D01*
X22650160Y-74251962D01*
X22862693Y-74333120D01*
X22867759Y-74334151D01*
X22867760Y-74334151D01*
X22966861Y-74354313D01*
X23085627Y-74378476D01*
X23213437Y-74383163D01*
X23307811Y-74386624D01*
X23307815Y-74386624D01*
X23312975Y-74386813D01*
X23318095Y-74386157D01*
X23318097Y-74386157D01*
X23533504Y-74358563D01*
X23533505Y-74358563D01*
X23538632Y-74357906D01*
X23621248Y-74333120D01*
X23751591Y-74294015D01*
X23751592Y-74294014D01*
X23756537Y-74292531D01*
X23960839Y-74192444D01*
X23965043Y-74189446D01*
X23965047Y-74189443D01*
X24141847Y-74063333D01*
X24141849Y-74063331D01*
X24146051Y-74060334D01*
X24307199Y-73899747D01*
X24397026Y-73774740D01*
X24453020Y-73731092D01*
X24523724Y-73724646D01*
X24586688Y-73757449D01*
X24606781Y-73782432D01*
X24629744Y-73819904D01*
X24778698Y-73991861D01*
X24953737Y-74137181D01*
X24958189Y-74139783D01*
X24958194Y-74139786D01*
X25052199Y-74194718D01*
X25150160Y-74251962D01*
X25362693Y-74333120D01*
X25367759Y-74334151D01*
X25367760Y-74334151D01*
X25466861Y-74354313D01*
X25585627Y-74378476D01*
X25713437Y-74383163D01*
X25807811Y-74386624D01*
X25807815Y-74386624D01*
X25812975Y-74386813D01*
X25818095Y-74386157D01*
X25818097Y-74386157D01*
X26033504Y-74358563D01*
X26033505Y-74358563D01*
X26038632Y-74357906D01*
X26121248Y-74333120D01*
X26251591Y-74294015D01*
X26251592Y-74294014D01*
X26256537Y-74292531D01*
X26460839Y-74192444D01*
X26465043Y-74189446D01*
X26465047Y-74189443D01*
X26641847Y-74063333D01*
X26641849Y-74063331D01*
X26646051Y-74060334D01*
X26807199Y-73899747D01*
X26861764Y-73823812D01*
X26936938Y-73719198D01*
X26936942Y-73719192D01*
X26939956Y-73714997D01*
X27040755Y-73511046D01*
X27106890Y-73293370D01*
X27120077Y-73193206D01*
X27136148Y-73071136D01*
X27136148Y-73071132D01*
X27136585Y-73067815D01*
X27138242Y-73000000D01*
X27119601Y-72773264D01*
X27064178Y-72552617D01*
X26973462Y-72343985D01*
X26849890Y-72152971D01*
X26696779Y-71984704D01*
X26518241Y-71843704D01*
X26480537Y-71822890D01*
X26465869Y-71814793D01*
X26319072Y-71733757D01*
X26314203Y-71732033D01*
X26314199Y-71732031D01*
X26109496Y-71659541D01*
X26109492Y-71659540D01*
X26104621Y-71657815D01*
X26099528Y-71656908D01*
X26099525Y-71656907D01*
X25885734Y-71618825D01*
X25885728Y-71618824D01*
X25880645Y-71617919D01*
X25807196Y-71617022D01*
X25658331Y-71615203D01*
X25658329Y-71615203D01*
X25653161Y-71615140D01*
X25428278Y-71649552D01*
X25212035Y-71720231D01*
X25207447Y-71722619D01*
X25207443Y-71722621D01*
X25014828Y-71822890D01*
X25010239Y-71825279D01*
X25006106Y-71828382D01*
X25006103Y-71828384D01*
X24985699Y-71843704D01*
X24828310Y-71961875D01*
X24671133Y-72126351D01*
X24668221Y-72130620D01*
X24668215Y-72130628D01*
X24604285Y-72224345D01*
X24549374Y-72269348D01*
X24478849Y-72277519D01*
X24415102Y-72246265D01*
X24394405Y-72221781D01*
X24352698Y-72157311D01*
X24352696Y-72157308D01*
X24349890Y-72152971D01*
X24196779Y-71984704D01*
X24018241Y-71843704D01*
X23980537Y-71822890D01*
X23965869Y-71814793D01*
X23819072Y-71733757D01*
X23814203Y-71732033D01*
X23814199Y-71732031D01*
X23609496Y-71659541D01*
X23609492Y-71659540D01*
X23604621Y-71657815D01*
X23599528Y-71656908D01*
X23599525Y-71656907D01*
X23385734Y-71618825D01*
X23385728Y-71618824D01*
X23380645Y-71617919D01*
X23307196Y-71617022D01*
X23158331Y-71615203D01*
X23158329Y-71615203D01*
X23153161Y-71615140D01*
X22928278Y-71649552D01*
X22712035Y-71720231D01*
X22707447Y-71722619D01*
X22707443Y-71722621D01*
X22514828Y-71822890D01*
X22510239Y-71825279D01*
X22506106Y-71828382D01*
X22506103Y-71828384D01*
X22485699Y-71843704D01*
X22328310Y-71961875D01*
X22171133Y-72126351D01*
X22042931Y-72314289D01*
X22040758Y-72318971D01*
X22040756Y-72318974D01*
X22000395Y-72405926D01*
X21947145Y-72520643D01*
X21886348Y-72739869D01*
X21862172Y-72966082D01*
X20508500Y-72966082D01*
X20508500Y-67216082D01*
X21862172Y-67216082D01*
X21862469Y-67221234D01*
X21862469Y-67221238D01*
X21867845Y-67314463D01*
X21875268Y-67443206D01*
X21876405Y-67448252D01*
X21876406Y-67448258D01*
X21896686Y-67538244D01*
X21925283Y-67665141D01*
X22010875Y-67875927D01*
X22129744Y-68069904D01*
X22278698Y-68241861D01*
X22453737Y-68387181D01*
X22458189Y-68389783D01*
X22458194Y-68389786D01*
X22552199Y-68444718D01*
X22650160Y-68501962D01*
X22862693Y-68583120D01*
X22867759Y-68584151D01*
X22867760Y-68584151D01*
X22966861Y-68604313D01*
X23085627Y-68628476D01*
X23213437Y-68633163D01*
X23307811Y-68636624D01*
X23307815Y-68636624D01*
X23312975Y-68636813D01*
X23318095Y-68636157D01*
X23318097Y-68636157D01*
X23533504Y-68608563D01*
X23533505Y-68608563D01*
X23538632Y-68607906D01*
X23621248Y-68583120D01*
X23751591Y-68544015D01*
X23751592Y-68544014D01*
X23756537Y-68542531D01*
X23960839Y-68442444D01*
X23965043Y-68439446D01*
X23965047Y-68439443D01*
X24141847Y-68313333D01*
X24141849Y-68313331D01*
X24146051Y-68310334D01*
X24307199Y-68149747D01*
X24397026Y-68024740D01*
X24453020Y-67981092D01*
X24523724Y-67974646D01*
X24586688Y-68007449D01*
X24606781Y-68032432D01*
X24629744Y-68069904D01*
X24778698Y-68241861D01*
X24953737Y-68387181D01*
X24958189Y-68389783D01*
X24958194Y-68389786D01*
X25052199Y-68444718D01*
X25150160Y-68501962D01*
X25362693Y-68583120D01*
X25367759Y-68584151D01*
X25367760Y-68584151D01*
X25466861Y-68604313D01*
X25585627Y-68628476D01*
X25713437Y-68633163D01*
X25807811Y-68636624D01*
X25807815Y-68636624D01*
X25812975Y-68636813D01*
X25818095Y-68636157D01*
X25818097Y-68636157D01*
X26033504Y-68608563D01*
X26033505Y-68608563D01*
X26038632Y-68607906D01*
X26121248Y-68583120D01*
X26251591Y-68544015D01*
X26251592Y-68544014D01*
X26256537Y-68542531D01*
X26460839Y-68442444D01*
X26465043Y-68439446D01*
X26465047Y-68439443D01*
X26641847Y-68313333D01*
X26641849Y-68313331D01*
X26646051Y-68310334D01*
X26807199Y-68149747D01*
X26861764Y-68073812D01*
X26936938Y-67969198D01*
X26936942Y-67969192D01*
X26939956Y-67964997D01*
X27040755Y-67761046D01*
X27106890Y-67543370D01*
X27120077Y-67443206D01*
X27136148Y-67321136D01*
X27136148Y-67321132D01*
X27136585Y-67317815D01*
X27138242Y-67250000D01*
X27119601Y-67023264D01*
X27064178Y-66802617D01*
X26973462Y-66593985D01*
X26849890Y-66402971D01*
X26696779Y-66234704D01*
X26518241Y-66093704D01*
X26480537Y-66072890D01*
X26465869Y-66064793D01*
X26319072Y-65983757D01*
X26314203Y-65982033D01*
X26314199Y-65982031D01*
X26109496Y-65909541D01*
X26109492Y-65909540D01*
X26104621Y-65907815D01*
X26099528Y-65906908D01*
X26099525Y-65906907D01*
X25885734Y-65868825D01*
X25885728Y-65868824D01*
X25880645Y-65867919D01*
X25807196Y-65867022D01*
X25658331Y-65865203D01*
X25658329Y-65865203D01*
X25653161Y-65865140D01*
X25428278Y-65899552D01*
X25212035Y-65970231D01*
X25207447Y-65972619D01*
X25207443Y-65972621D01*
X25014828Y-66072890D01*
X25010239Y-66075279D01*
X25006106Y-66078382D01*
X25006103Y-66078384D01*
X24985699Y-66093704D01*
X24828310Y-66211875D01*
X24671133Y-66376351D01*
X24668221Y-66380620D01*
X24668215Y-66380628D01*
X24604285Y-66474345D01*
X24549374Y-66519348D01*
X24478849Y-66527519D01*
X24415102Y-66496265D01*
X24394405Y-66471781D01*
X24352698Y-66407311D01*
X24352696Y-66407308D01*
X24349890Y-66402971D01*
X24196779Y-66234704D01*
X24018241Y-66093704D01*
X23980537Y-66072890D01*
X23965869Y-66064793D01*
X23819072Y-65983757D01*
X23814203Y-65982033D01*
X23814199Y-65982031D01*
X23609496Y-65909541D01*
X23609492Y-65909540D01*
X23604621Y-65907815D01*
X23599528Y-65906908D01*
X23599525Y-65906907D01*
X23385734Y-65868825D01*
X23385728Y-65868824D01*
X23380645Y-65867919D01*
X23307196Y-65867022D01*
X23158331Y-65865203D01*
X23158329Y-65865203D01*
X23153161Y-65865140D01*
X22928278Y-65899552D01*
X22712035Y-65970231D01*
X22707447Y-65972619D01*
X22707443Y-65972621D01*
X22514828Y-66072890D01*
X22510239Y-66075279D01*
X22506106Y-66078382D01*
X22506103Y-66078384D01*
X22485699Y-66093704D01*
X22328310Y-66211875D01*
X22171133Y-66376351D01*
X22042931Y-66564289D01*
X22040758Y-66568971D01*
X22040756Y-66568974D01*
X22000395Y-66655926D01*
X21947145Y-66770643D01*
X21886348Y-66989869D01*
X21862172Y-67216082D01*
X20508500Y-67216082D01*
X20508500Y-61466082D01*
X21862172Y-61466082D01*
X21862469Y-61471234D01*
X21862469Y-61471238D01*
X21867845Y-61564463D01*
X21875268Y-61693206D01*
X21876405Y-61698252D01*
X21876406Y-61698258D01*
X21896686Y-61788244D01*
X21925283Y-61915141D01*
X22010875Y-62125927D01*
X22129744Y-62319904D01*
X22278698Y-62491861D01*
X22453737Y-62637181D01*
X22458189Y-62639783D01*
X22458194Y-62639786D01*
X22645702Y-62749357D01*
X22650160Y-62751962D01*
X22862693Y-62833120D01*
X22867759Y-62834151D01*
X22867760Y-62834151D01*
X22952543Y-62851400D01*
X23085627Y-62878476D01*
X23213437Y-62883163D01*
X23307811Y-62886624D01*
X23307815Y-62886624D01*
X23312975Y-62886813D01*
X23318095Y-62886157D01*
X23318097Y-62886157D01*
X23533504Y-62858563D01*
X23533505Y-62858563D01*
X23538632Y-62857906D01*
X23621248Y-62833120D01*
X23751591Y-62794015D01*
X23751592Y-62794014D01*
X23756537Y-62792531D01*
X23960839Y-62692444D01*
X23965043Y-62689446D01*
X23965047Y-62689443D01*
X24141847Y-62563333D01*
X24141849Y-62563331D01*
X24146051Y-62560334D01*
X24307199Y-62399747D01*
X24397026Y-62274740D01*
X24453020Y-62231092D01*
X24523724Y-62224646D01*
X24586688Y-62257449D01*
X24606781Y-62282432D01*
X24629744Y-62319904D01*
X24778698Y-62491861D01*
X24953737Y-62637181D01*
X24958189Y-62639783D01*
X24958194Y-62639786D01*
X25145702Y-62749357D01*
X25150160Y-62751962D01*
X25362693Y-62833120D01*
X25367759Y-62834151D01*
X25367760Y-62834151D01*
X25452543Y-62851400D01*
X25585627Y-62878476D01*
X25713437Y-62883163D01*
X25807811Y-62886624D01*
X25807815Y-62886624D01*
X25812975Y-62886813D01*
X25818095Y-62886157D01*
X25818097Y-62886157D01*
X26033504Y-62858563D01*
X26033505Y-62858563D01*
X26038632Y-62857906D01*
X26121248Y-62833120D01*
X26251591Y-62794015D01*
X26251592Y-62794014D01*
X26256537Y-62792531D01*
X26460839Y-62692444D01*
X26465043Y-62689446D01*
X26465047Y-62689443D01*
X26641847Y-62563333D01*
X26641849Y-62563331D01*
X26646051Y-62560334D01*
X26807199Y-62399747D01*
X26861764Y-62323812D01*
X26936938Y-62219198D01*
X26936942Y-62219192D01*
X26939956Y-62214997D01*
X27040755Y-62011046D01*
X27106890Y-61793370D01*
X27120077Y-61693206D01*
X27136148Y-61571136D01*
X27136148Y-61571132D01*
X27136585Y-61567815D01*
X27138242Y-61500000D01*
X27119601Y-61273264D01*
X27064178Y-61052617D01*
X26973462Y-60843985D01*
X26849890Y-60652971D01*
X26696779Y-60484704D01*
X26518241Y-60343704D01*
X26480537Y-60322890D01*
X26465869Y-60314793D01*
X26319072Y-60233757D01*
X26314203Y-60232033D01*
X26314199Y-60232031D01*
X26109496Y-60159541D01*
X26109492Y-60159540D01*
X26104621Y-60157815D01*
X26099528Y-60156908D01*
X26099525Y-60156907D01*
X25885734Y-60118825D01*
X25885728Y-60118824D01*
X25880645Y-60117919D01*
X25807196Y-60117022D01*
X25658331Y-60115203D01*
X25658329Y-60115203D01*
X25653161Y-60115140D01*
X25428278Y-60149552D01*
X25212035Y-60220231D01*
X25207447Y-60222619D01*
X25207443Y-60222621D01*
X25014828Y-60322890D01*
X25010239Y-60325279D01*
X25006106Y-60328382D01*
X25006103Y-60328384D01*
X24985699Y-60343704D01*
X24828310Y-60461875D01*
X24671133Y-60626351D01*
X24668221Y-60630620D01*
X24668215Y-60630628D01*
X24604285Y-60724345D01*
X24549374Y-60769348D01*
X24478849Y-60777519D01*
X24415102Y-60746265D01*
X24394405Y-60721781D01*
X24352698Y-60657311D01*
X24352696Y-60657308D01*
X24349890Y-60652971D01*
X24196779Y-60484704D01*
X24018241Y-60343704D01*
X23980537Y-60322890D01*
X23965869Y-60314793D01*
X23819072Y-60233757D01*
X23814203Y-60232033D01*
X23814199Y-60232031D01*
X23609496Y-60159541D01*
X23609492Y-60159540D01*
X23604621Y-60157815D01*
X23599528Y-60156908D01*
X23599525Y-60156907D01*
X23385734Y-60118825D01*
X23385728Y-60118824D01*
X23380645Y-60117919D01*
X23307196Y-60117022D01*
X23158331Y-60115203D01*
X23158329Y-60115203D01*
X23153161Y-60115140D01*
X22928278Y-60149552D01*
X22712035Y-60220231D01*
X22707447Y-60222619D01*
X22707443Y-60222621D01*
X22514828Y-60322890D01*
X22510239Y-60325279D01*
X22506106Y-60328382D01*
X22506103Y-60328384D01*
X22485699Y-60343704D01*
X22328310Y-60461875D01*
X22171133Y-60626351D01*
X22042931Y-60814289D01*
X22040758Y-60818971D01*
X22040756Y-60818974D01*
X22000395Y-60905926D01*
X21947145Y-61020643D01*
X21886348Y-61239869D01*
X21862172Y-61466082D01*
X20508500Y-61466082D01*
X20508500Y-46506082D01*
X20862172Y-46506082D01*
X20862469Y-46511234D01*
X20862469Y-46511238D01*
X20867845Y-46604463D01*
X20875268Y-46733206D01*
X20876405Y-46738252D01*
X20876406Y-46738258D01*
X20896686Y-46828244D01*
X20925283Y-46955141D01*
X21010875Y-47165927D01*
X21129744Y-47359904D01*
X21278698Y-47531861D01*
X21453737Y-47677181D01*
X21458189Y-47679783D01*
X21458194Y-47679786D01*
X21552199Y-47734718D01*
X21650160Y-47791962D01*
X21862693Y-47873120D01*
X21867759Y-47874151D01*
X21867760Y-47874151D01*
X21966861Y-47894313D01*
X22085627Y-47918476D01*
X22213437Y-47923163D01*
X22307811Y-47926624D01*
X22307815Y-47926624D01*
X22312975Y-47926813D01*
X22318095Y-47926157D01*
X22318097Y-47926157D01*
X22533504Y-47898563D01*
X22533505Y-47898563D01*
X22538632Y-47897906D01*
X22621248Y-47873120D01*
X22751591Y-47834015D01*
X22751592Y-47834014D01*
X22756537Y-47832531D01*
X22960839Y-47732444D01*
X22965043Y-47729446D01*
X22965047Y-47729443D01*
X23141847Y-47603333D01*
X23141849Y-47603331D01*
X23146051Y-47600334D01*
X23307199Y-47439747D01*
X23361764Y-47363812D01*
X23436938Y-47259198D01*
X23436942Y-47259192D01*
X23439956Y-47254997D01*
X23540755Y-47051046D01*
X23606890Y-46833370D01*
X23620077Y-46733206D01*
X23636148Y-46611136D01*
X23636148Y-46611132D01*
X23636585Y-46607815D01*
X23638242Y-46540000D01*
X23619601Y-46313264D01*
X23564178Y-46092617D01*
X23473462Y-45883985D01*
X23349890Y-45692971D01*
X23196779Y-45524704D01*
X23018241Y-45383704D01*
X22980537Y-45362890D01*
X22965869Y-45354793D01*
X22819072Y-45273757D01*
X22814203Y-45272033D01*
X22814199Y-45272031D01*
X22609496Y-45199541D01*
X22609492Y-45199540D01*
X22604621Y-45197815D01*
X22599528Y-45196908D01*
X22599525Y-45196907D01*
X22385734Y-45158825D01*
X22385728Y-45158824D01*
X22380645Y-45157919D01*
X22307196Y-45157022D01*
X22158331Y-45155203D01*
X22158329Y-45155203D01*
X22153161Y-45155140D01*
X21928278Y-45189552D01*
X21712035Y-45260231D01*
X21707447Y-45262619D01*
X21707443Y-45262621D01*
X21514828Y-45362890D01*
X21510239Y-45365279D01*
X21506106Y-45368382D01*
X21506103Y-45368384D01*
X21485699Y-45383704D01*
X21328310Y-45501875D01*
X21171133Y-45666351D01*
X21042931Y-45854289D01*
X21040758Y-45858971D01*
X21040756Y-45858974D01*
X21026948Y-45888722D01*
X20947145Y-46060643D01*
X20886348Y-46279869D01*
X20862172Y-46506082D01*
X20508500Y-46506082D01*
X20508500Y-41426082D01*
X20862172Y-41426082D01*
X20862469Y-41431234D01*
X20862469Y-41431238D01*
X20867845Y-41524463D01*
X20875268Y-41653206D01*
X20876405Y-41658252D01*
X20876406Y-41658258D01*
X20896686Y-41748244D01*
X20925283Y-41875141D01*
X21010875Y-42085927D01*
X21129744Y-42279904D01*
X21278698Y-42451861D01*
X21453737Y-42597181D01*
X21458189Y-42599783D01*
X21458194Y-42599786D01*
X21552199Y-42654718D01*
X21650160Y-42711962D01*
X21862693Y-42793120D01*
X21867759Y-42794151D01*
X21867760Y-42794151D01*
X21966861Y-42814313D01*
X22085627Y-42838476D01*
X22213437Y-42843163D01*
X22307811Y-42846624D01*
X22307815Y-42846624D01*
X22312975Y-42846813D01*
X22318095Y-42846157D01*
X22318097Y-42846157D01*
X22533504Y-42818563D01*
X22533505Y-42818563D01*
X22538632Y-42817906D01*
X22621248Y-42793120D01*
X22751591Y-42754015D01*
X22751592Y-42754014D01*
X22756537Y-42752531D01*
X22960839Y-42652444D01*
X22965043Y-42649446D01*
X22965047Y-42649443D01*
X23141847Y-42523333D01*
X23141849Y-42523331D01*
X23146051Y-42520334D01*
X23307199Y-42359747D01*
X23361764Y-42283812D01*
X23436938Y-42179198D01*
X23436942Y-42179192D01*
X23439956Y-42174997D01*
X23540755Y-41971046D01*
X23606890Y-41753370D01*
X23620077Y-41653206D01*
X23636148Y-41531136D01*
X23636148Y-41531132D01*
X23636585Y-41527815D01*
X23638242Y-41460000D01*
X23619601Y-41233264D01*
X23564178Y-41012617D01*
X23473462Y-40803985D01*
X23349890Y-40612971D01*
X23196779Y-40444704D01*
X23018241Y-40303704D01*
X22980537Y-40282890D01*
X22965869Y-40274793D01*
X22819072Y-40193757D01*
X22814203Y-40192033D01*
X22814199Y-40192031D01*
X22609496Y-40119541D01*
X22609492Y-40119540D01*
X22604621Y-40117815D01*
X22599528Y-40116908D01*
X22599525Y-40116907D01*
X22385734Y-40078825D01*
X22385728Y-40078824D01*
X22380645Y-40077919D01*
X22307196Y-40077022D01*
X22158331Y-40075203D01*
X22158329Y-40075203D01*
X22153161Y-40075140D01*
X21928278Y-40109552D01*
X21712035Y-40180231D01*
X21707447Y-40182619D01*
X21707443Y-40182621D01*
X21514828Y-40282890D01*
X21510239Y-40285279D01*
X21506106Y-40288382D01*
X21506103Y-40288384D01*
X21485699Y-40303704D01*
X21328310Y-40421875D01*
X21171133Y-40586351D01*
X21042931Y-40774289D01*
X21040758Y-40778971D01*
X21040756Y-40778974D01*
X21026948Y-40808722D01*
X20947145Y-40980643D01*
X20886348Y-41199869D01*
X20862172Y-41426082D01*
X20508500Y-41426082D01*
X20508500Y-31562542D01*
X28991500Y-31562542D01*
X29003022Y-31704200D01*
X29058890Y-31921794D01*
X29152409Y-32126055D01*
X29280620Y-32310527D01*
X29439473Y-32469380D01*
X29623945Y-32597591D01*
X29828206Y-32691110D01*
X30045800Y-32746978D01*
X30099705Y-32751362D01*
X30184908Y-32758293D01*
X30184918Y-32758293D01*
X30187458Y-32758500D01*
X34812542Y-32758500D01*
X34815082Y-32758293D01*
X34815092Y-32758293D01*
X34900295Y-32751362D01*
X34954200Y-32746978D01*
X35171794Y-32691110D01*
X35376055Y-32597591D01*
X35560527Y-32469380D01*
X35719380Y-32310527D01*
X35847591Y-32126055D01*
X35941110Y-31921794D01*
X35996978Y-31704200D01*
X36008500Y-31562542D01*
X36008500Y-29937458D01*
X35996978Y-29795800D01*
X35941110Y-29578206D01*
X35847591Y-29373945D01*
X35719380Y-29189473D01*
X35560527Y-29030620D01*
X35376055Y-28902409D01*
X35171794Y-28808890D01*
X34954200Y-28753022D01*
X34900295Y-28748638D01*
X34815092Y-28741707D01*
X34815082Y-28741707D01*
X34812542Y-28741500D01*
X30187458Y-28741500D01*
X30184918Y-28741707D01*
X30184908Y-28741707D01*
X30099705Y-28748638D01*
X30045800Y-28753022D01*
X29828206Y-28808890D01*
X29623945Y-28902409D01*
X29439473Y-29030620D01*
X29280620Y-29189473D01*
X29152409Y-29373945D01*
X29058890Y-29578206D01*
X29003022Y-29795800D01*
X28991500Y-29937458D01*
X28991500Y-31562542D01*
X20508500Y-31562542D01*
X20508500Y-26126000D01*
X20528502Y-26057879D01*
X20582158Y-26011386D01*
X20634500Y-26000000D01*
X21447810Y-26000000D01*
X21515931Y-26020002D01*
X21536905Y-26036905D01*
X23000000Y-27500000D01*
X26000000Y-27500000D01*
X28000000Y-25500000D01*
X28000000Y-20634500D01*
X28020002Y-20566379D01*
X28073658Y-20519886D01*
X28126000Y-20508500D01*
X36374000Y-20508500D01*
X36442121Y-20528502D01*
G37*
G04 #@! TD.AperFunction*
G04 #@! TA.AperFunction,Conductor*
G36*
X55433621Y-32020002D02*
G01*
X55480114Y-32073658D01*
X55491500Y-32126000D01*
X55491500Y-75365500D01*
X55471498Y-75433621D01*
X55417842Y-75480114D01*
X55365500Y-75491500D01*
X31626000Y-75491500D01*
X31557879Y-75471498D01*
X31511386Y-75417842D01*
X31500000Y-75365500D01*
X31500000Y-73610102D01*
X36544641Y-73610102D01*
X36545620Y-73615799D01*
X36545620Y-73615800D01*
X36550759Y-73645707D01*
X36580232Y-73817228D01*
X36652972Y-74014399D01*
X36760426Y-74195012D01*
X36898994Y-74353019D01*
X37064037Y-74483128D01*
X37069153Y-74485819D01*
X37069155Y-74485821D01*
X37244910Y-74578290D01*
X37250027Y-74580982D01*
X37450734Y-74643304D01*
X37456469Y-74643983D01*
X37456470Y-74643983D01*
X37487032Y-74647600D01*
X37621374Y-74663500D01*
X38123816Y-74663500D01*
X38279779Y-74649169D01*
X38285341Y-74647600D01*
X38285343Y-74647600D01*
X38380914Y-74620646D01*
X38482049Y-74592123D01*
X38670537Y-74499171D01*
X38838929Y-74373427D01*
X38981586Y-74219101D01*
X39093731Y-74041362D01*
X39171608Y-73846163D01*
X39172733Y-73840506D01*
X39172735Y-73840500D01*
X39211481Y-73645707D01*
X39211481Y-73645705D01*
X39212608Y-73640040D01*
X39212926Y-73615800D01*
X39215283Y-73435680D01*
X39215359Y-73429898D01*
X39179768Y-73222772D01*
X39107028Y-73025601D01*
X39091797Y-73000000D01*
X40643910Y-73000000D01*
X40662618Y-73177991D01*
X40717923Y-73348203D01*
X40807409Y-73503197D01*
X40927164Y-73636199D01*
X40932506Y-73640080D01*
X40932508Y-73640082D01*
X41066613Y-73737515D01*
X41071955Y-73741396D01*
X41077983Y-73744080D01*
X41077985Y-73744081D01*
X41229423Y-73811505D01*
X41235454Y-73814190D01*
X41322984Y-73832795D01*
X41404057Y-73850028D01*
X41404061Y-73850028D01*
X41410514Y-73851400D01*
X41589486Y-73851400D01*
X41595939Y-73850028D01*
X41595943Y-73850028D01*
X41677016Y-73832795D01*
X41764546Y-73814190D01*
X41770577Y-73811505D01*
X41922015Y-73744081D01*
X41922017Y-73744080D01*
X41928045Y-73741396D01*
X41933387Y-73737515D01*
X42067492Y-73640082D01*
X42067494Y-73640080D01*
X42072836Y-73636199D01*
X42096334Y-73610102D01*
X51784641Y-73610102D01*
X51785620Y-73615799D01*
X51785620Y-73615800D01*
X51790759Y-73645707D01*
X51820232Y-73817228D01*
X51892972Y-74014399D01*
X52000426Y-74195012D01*
X52138994Y-74353019D01*
X52304037Y-74483128D01*
X52309153Y-74485819D01*
X52309155Y-74485821D01*
X52484910Y-74578290D01*
X52490027Y-74580982D01*
X52690734Y-74643304D01*
X52696469Y-74643983D01*
X52696470Y-74643983D01*
X52727032Y-74647600D01*
X52861374Y-74663500D01*
X53363816Y-74663500D01*
X53519779Y-74649169D01*
X53525341Y-74647600D01*
X53525343Y-74647600D01*
X53620914Y-74620646D01*
X53722049Y-74592123D01*
X53910537Y-74499171D01*
X54078929Y-74373427D01*
X54221586Y-74219101D01*
X54333731Y-74041362D01*
X54411608Y-73846163D01*
X54412733Y-73840506D01*
X54412735Y-73840500D01*
X54451481Y-73645707D01*
X54451481Y-73645705D01*
X54452608Y-73640040D01*
X54452926Y-73615800D01*
X54455283Y-73435680D01*
X54455359Y-73429898D01*
X54419768Y-73222772D01*
X54347028Y-73025601D01*
X54239574Y-72844988D01*
X54101006Y-72686981D01*
X53935963Y-72556872D01*
X53930847Y-72554181D01*
X53930845Y-72554179D01*
X53755090Y-72461710D01*
X53755088Y-72461709D01*
X53749973Y-72459018D01*
X53549266Y-72396696D01*
X53543531Y-72396017D01*
X53543530Y-72396017D01*
X53488423Y-72389495D01*
X53378626Y-72376500D01*
X52876184Y-72376500D01*
X52720221Y-72390831D01*
X52714659Y-72392400D01*
X52714657Y-72392400D01*
X52619086Y-72419354D01*
X52517951Y-72447877D01*
X52329463Y-72540829D01*
X52324837Y-72544283D01*
X52324836Y-72544284D01*
X52172442Y-72658082D01*
X52161071Y-72666573D01*
X52157157Y-72670807D01*
X52157155Y-72670809D01*
X52033346Y-72804746D01*
X52018414Y-72820899D01*
X51906269Y-72998638D01*
X51828392Y-73193837D01*
X51827267Y-73199494D01*
X51827265Y-73199500D01*
X51788519Y-73394293D01*
X51787392Y-73399960D01*
X51787316Y-73405735D01*
X51787316Y-73405739D01*
X51785976Y-73508105D01*
X51784641Y-73610102D01*
X42096334Y-73610102D01*
X42192591Y-73503197D01*
X42282077Y-73348203D01*
X42337382Y-73177991D01*
X42356090Y-73000000D01*
X42350106Y-72943063D01*
X42338072Y-72828573D01*
X42338072Y-72828572D01*
X42337382Y-72822009D01*
X42282077Y-72651797D01*
X42192591Y-72496803D01*
X42158570Y-72459018D01*
X42077258Y-72368712D01*
X42077257Y-72368711D01*
X42072836Y-72363801D01*
X42064848Y-72357997D01*
X41933387Y-72262485D01*
X41933386Y-72262484D01*
X41928045Y-72258604D01*
X41922017Y-72255920D01*
X41922015Y-72255919D01*
X41770577Y-72188495D01*
X41770576Y-72188495D01*
X41764546Y-72185810D01*
X41674767Y-72166727D01*
X41595943Y-72149972D01*
X41595939Y-72149972D01*
X41589486Y-72148600D01*
X41410514Y-72148600D01*
X41404061Y-72149972D01*
X41404057Y-72149972D01*
X41325233Y-72166727D01*
X41235454Y-72185810D01*
X41229424Y-72188495D01*
X41229423Y-72188495D01*
X41077985Y-72255919D01*
X41077983Y-72255920D01*
X41071955Y-72258604D01*
X41066614Y-72262484D01*
X41066613Y-72262485D01*
X40935153Y-72357997D01*
X40927164Y-72363801D01*
X40922743Y-72368711D01*
X40922742Y-72368712D01*
X40841431Y-72459018D01*
X40807409Y-72496803D01*
X40717923Y-72651797D01*
X40662618Y-72822009D01*
X40661928Y-72828572D01*
X40661928Y-72828573D01*
X40649894Y-72943063D01*
X40643910Y-73000000D01*
X39091797Y-73000000D01*
X38999574Y-72844988D01*
X38861006Y-72686981D01*
X38695963Y-72556872D01*
X38690847Y-72554181D01*
X38690845Y-72554179D01*
X38515090Y-72461710D01*
X38515088Y-72461709D01*
X38509973Y-72459018D01*
X38309266Y-72396696D01*
X38303531Y-72396017D01*
X38303530Y-72396017D01*
X38248423Y-72389495D01*
X38138626Y-72376500D01*
X37636184Y-72376500D01*
X37480221Y-72390831D01*
X37474659Y-72392400D01*
X37474657Y-72392400D01*
X37379086Y-72419354D01*
X37277951Y-72447877D01*
X37089463Y-72540829D01*
X37084837Y-72544283D01*
X37084836Y-72544284D01*
X36932442Y-72658082D01*
X36921071Y-72666573D01*
X36917157Y-72670807D01*
X36917155Y-72670809D01*
X36793346Y-72804746D01*
X36778414Y-72820899D01*
X36666269Y-72998638D01*
X36588392Y-73193837D01*
X36587267Y-73199494D01*
X36587265Y-73199500D01*
X36548519Y-73394293D01*
X36547392Y-73399960D01*
X36547316Y-73405735D01*
X36547316Y-73405739D01*
X36545976Y-73508105D01*
X36544641Y-73610102D01*
X31500000Y-73610102D01*
X31500000Y-71070102D01*
X36544641Y-71070102D01*
X36545620Y-71075799D01*
X36545620Y-71075800D01*
X36551861Y-71112119D01*
X36580232Y-71277228D01*
X36652972Y-71474399D01*
X36655924Y-71479360D01*
X36655924Y-71479361D01*
X36752080Y-71640983D01*
X36760426Y-71655012D01*
X36898994Y-71813019D01*
X37064037Y-71943128D01*
X37069153Y-71945819D01*
X37069155Y-71945821D01*
X37244910Y-72038290D01*
X37250027Y-72040982D01*
X37450734Y-72103304D01*
X37456469Y-72103983D01*
X37456470Y-72103983D01*
X37487032Y-72107600D01*
X37621374Y-72123500D01*
X38123816Y-72123500D01*
X38279779Y-72109169D01*
X38285341Y-72107600D01*
X38285343Y-72107600D01*
X38380914Y-72080646D01*
X38482049Y-72052123D01*
X38614856Y-71986630D01*
X44542482Y-71986630D01*
X44542998Y-71992774D01*
X44553939Y-72123063D01*
X44558121Y-72172867D01*
X44609636Y-72352520D01*
X44631392Y-72394852D01*
X44686726Y-72502521D01*
X44695064Y-72518746D01*
X44698887Y-72523570D01*
X44698890Y-72523574D01*
X44725282Y-72556872D01*
X44811152Y-72665212D01*
X44815846Y-72669207D01*
X44848819Y-72697269D01*
X44953478Y-72786342D01*
X45116621Y-72877519D01*
X45294367Y-72935272D01*
X45479945Y-72957401D01*
X45486080Y-72956929D01*
X45486082Y-72956929D01*
X45542119Y-72952617D01*
X45666287Y-72943063D01*
X45846296Y-72892804D01*
X45851785Y-72890031D01*
X45851791Y-72890029D01*
X45949555Y-72840644D01*
X46013114Y-72808538D01*
X46041524Y-72786342D01*
X46065486Y-72767621D01*
X46160387Y-72693475D01*
X46164413Y-72688811D01*
X46164416Y-72688808D01*
X46278480Y-72556663D01*
X46282507Y-72551998D01*
X46374821Y-72389495D01*
X46379056Y-72376766D01*
X46431867Y-72218009D01*
X46433814Y-72212157D01*
X46446758Y-72109698D01*
X46456796Y-72030241D01*
X46456797Y-72030232D01*
X46457238Y-72026738D01*
X46457611Y-72000000D01*
X46439373Y-71813999D01*
X46435419Y-71800901D01*
X46387136Y-71640983D01*
X46385355Y-71635083D01*
X46297615Y-71470066D01*
X46284727Y-71454264D01*
X46183388Y-71330010D01*
X46183385Y-71330007D01*
X46179493Y-71325235D01*
X46174744Y-71321306D01*
X46040239Y-71210034D01*
X46040236Y-71210032D01*
X46035489Y-71206105D01*
X45871089Y-71117214D01*
X45781822Y-71089581D01*
X45698441Y-71063770D01*
X45698438Y-71063769D01*
X45692554Y-71061948D01*
X45686429Y-71061304D01*
X45686428Y-71061304D01*
X45512813Y-71043056D01*
X45512812Y-71043056D01*
X45506685Y-71042412D01*
X45388087Y-71053206D01*
X45326703Y-71058792D01*
X45326702Y-71058792D01*
X45320562Y-71059351D01*
X45314648Y-71061092D01*
X45314646Y-71061092D01*
X45284033Y-71070102D01*
X45141273Y-71112119D01*
X44975647Y-71198705D01*
X44829995Y-71315813D01*
X44709862Y-71458981D01*
X44706899Y-71464370D01*
X44706896Y-71464375D01*
X44633509Y-71597868D01*
X44619826Y-71622757D01*
X44617965Y-71628624D01*
X44617964Y-71628626D01*
X44600607Y-71683341D01*
X44563315Y-71800901D01*
X44542482Y-71986630D01*
X38614856Y-71986630D01*
X38670537Y-71959171D01*
X38838929Y-71833427D01*
X38862345Y-71808096D01*
X38977667Y-71683341D01*
X38977669Y-71683338D01*
X38981586Y-71679101D01*
X39093731Y-71501362D01*
X39171608Y-71306163D01*
X39172733Y-71300506D01*
X39172735Y-71300500D01*
X39211481Y-71105707D01*
X39211481Y-71105705D01*
X39212608Y-71100040D01*
X39212926Y-71075800D01*
X39215283Y-70895680D01*
X39215359Y-70889898D01*
X39181618Y-70693535D01*
X39180747Y-70688469D01*
X39180747Y-70688468D01*
X39179768Y-70682772D01*
X39107028Y-70485601D01*
X39081966Y-70443475D01*
X39002528Y-70309953D01*
X39002527Y-70309952D01*
X38999574Y-70304988D01*
X38861006Y-70146981D01*
X38733725Y-70046641D01*
X38700502Y-70020450D01*
X38700500Y-70020449D01*
X38695963Y-70016872D01*
X38690847Y-70014181D01*
X38690845Y-70014179D01*
X38515090Y-69921710D01*
X38515088Y-69921709D01*
X38509973Y-69919018D01*
X38309266Y-69856696D01*
X38303531Y-69856017D01*
X38303530Y-69856017D01*
X38255242Y-69850302D01*
X38138626Y-69836500D01*
X37636184Y-69836500D01*
X37480221Y-69850831D01*
X37474659Y-69852400D01*
X37474657Y-69852400D01*
X37379086Y-69879354D01*
X37277951Y-69907877D01*
X37272768Y-69910433D01*
X37114302Y-69988580D01*
X37089463Y-70000829D01*
X36921071Y-70126573D01*
X36917157Y-70130807D01*
X36917155Y-70130809D01*
X36818518Y-70237515D01*
X36778414Y-70280899D01*
X36666269Y-70458638D01*
X36588392Y-70653837D01*
X36587267Y-70659494D01*
X36587265Y-70659500D01*
X36566302Y-70764891D01*
X36547392Y-70859960D01*
X36547316Y-70865735D01*
X36547316Y-70865739D01*
X36547000Y-70889898D01*
X36544641Y-71070102D01*
X31500000Y-71070102D01*
X31500000Y-69500000D01*
X33143910Y-69500000D01*
X33144600Y-69506565D01*
X33150384Y-69561590D01*
X33162618Y-69677991D01*
X33164658Y-69684269D01*
X33164658Y-69684270D01*
X33179681Y-69730505D01*
X33217923Y-69848203D01*
X33221226Y-69853925D01*
X33221227Y-69853926D01*
X33223816Y-69858410D01*
X33307409Y-70003197D01*
X33311827Y-70008104D01*
X33311828Y-70008105D01*
X33325756Y-70023574D01*
X33427164Y-70136199D01*
X33432506Y-70140080D01*
X33432508Y-70140082D01*
X33566613Y-70237515D01*
X33571955Y-70241396D01*
X33577983Y-70244080D01*
X33577985Y-70244081D01*
X33722759Y-70308538D01*
X33735454Y-70314190D01*
X33822984Y-70332795D01*
X33904057Y-70350028D01*
X33904061Y-70350028D01*
X33910514Y-70351400D01*
X34089486Y-70351400D01*
X34095939Y-70350028D01*
X34095943Y-70350028D01*
X34177016Y-70332795D01*
X34264546Y-70314190D01*
X34277241Y-70308538D01*
X34422015Y-70244081D01*
X34422017Y-70244080D01*
X34428045Y-70241396D01*
X34433387Y-70237515D01*
X34567492Y-70140082D01*
X34567494Y-70140080D01*
X34572836Y-70136199D01*
X34674244Y-70023574D01*
X34688172Y-70008105D01*
X34688173Y-70008104D01*
X34692591Y-70003197D01*
X34776184Y-69858410D01*
X34778773Y-69853926D01*
X34778774Y-69853925D01*
X34782077Y-69848203D01*
X34820319Y-69730505D01*
X34835342Y-69684270D01*
X34835342Y-69684269D01*
X34837382Y-69677991D01*
X34849617Y-69561590D01*
X34855400Y-69506565D01*
X34856090Y-69500000D01*
X34845532Y-69399550D01*
X34838072Y-69328573D01*
X34838072Y-69328572D01*
X34837382Y-69322009D01*
X34834780Y-69313999D01*
X34784119Y-69158082D01*
X34782077Y-69151797D01*
X34692591Y-68996803D01*
X34636403Y-68934399D01*
X34577258Y-68868712D01*
X34577257Y-68868711D01*
X34572836Y-68863801D01*
X34513285Y-68820534D01*
X34433387Y-68762485D01*
X34433386Y-68762484D01*
X34428045Y-68758604D01*
X34422017Y-68755920D01*
X34422015Y-68755919D01*
X34270577Y-68688495D01*
X34270576Y-68688495D01*
X34264546Y-68685810D01*
X34177016Y-68667205D01*
X34095943Y-68649972D01*
X34095939Y-68649972D01*
X34089486Y-68648600D01*
X33910514Y-68648600D01*
X33904061Y-68649972D01*
X33904057Y-68649972D01*
X33822984Y-68667205D01*
X33735454Y-68685810D01*
X33729424Y-68688495D01*
X33729423Y-68688495D01*
X33577985Y-68755919D01*
X33577983Y-68755920D01*
X33571955Y-68758604D01*
X33566614Y-68762484D01*
X33566613Y-68762485D01*
X33486716Y-68820534D01*
X33427164Y-68863801D01*
X33422743Y-68868711D01*
X33422742Y-68868712D01*
X33363598Y-68934399D01*
X33307409Y-68996803D01*
X33217923Y-69151797D01*
X33215881Y-69158082D01*
X33165221Y-69313999D01*
X33162618Y-69322009D01*
X33161928Y-69328572D01*
X33161928Y-69328573D01*
X33154468Y-69399550D01*
X33143910Y-69500000D01*
X31500000Y-69500000D01*
X31500000Y-68530102D01*
X36544641Y-68530102D01*
X36545620Y-68535799D01*
X36545620Y-68535800D01*
X36571161Y-68684438D01*
X36580232Y-68737228D01*
X36652972Y-68934399D01*
X36655924Y-68939360D01*
X36655924Y-68939361D01*
X36731156Y-69065813D01*
X36760426Y-69115012D01*
X36898994Y-69273019D01*
X37064037Y-69403128D01*
X37069153Y-69405819D01*
X37069155Y-69405821D01*
X37244910Y-69498290D01*
X37250027Y-69500982D01*
X37450734Y-69563304D01*
X37456469Y-69563983D01*
X37456470Y-69563983D01*
X37487032Y-69567600D01*
X37621374Y-69583500D01*
X38123816Y-69583500D01*
X38279779Y-69569169D01*
X38285341Y-69567600D01*
X38285343Y-69567600D01*
X38442723Y-69523214D01*
X38482049Y-69512123D01*
X38533744Y-69486630D01*
X47542482Y-69486630D01*
X47545057Y-69517289D01*
X47550617Y-69583500D01*
X47558121Y-69672867D01*
X47609636Y-69852520D01*
X47639398Y-69910431D01*
X47687632Y-70004284D01*
X47695064Y-70018746D01*
X47698887Y-70023570D01*
X47698890Y-70023574D01*
X47765804Y-70107997D01*
X47811152Y-70165212D01*
X47815846Y-70169207D01*
X47947083Y-70280899D01*
X47953478Y-70286342D01*
X48116621Y-70377519D01*
X48294367Y-70435272D01*
X48479945Y-70457401D01*
X48486080Y-70456929D01*
X48486082Y-70456929D01*
X48542119Y-70452617D01*
X48666287Y-70443063D01*
X48846296Y-70392804D01*
X48851785Y-70390031D01*
X48851791Y-70390029D01*
X48930978Y-70350028D01*
X49013114Y-70308538D01*
X49041524Y-70286342D01*
X49071055Y-70263269D01*
X49160387Y-70193475D01*
X49164413Y-70188811D01*
X49164416Y-70188808D01*
X49278480Y-70056663D01*
X49282507Y-70051998D01*
X49328664Y-69970747D01*
X49371778Y-69894852D01*
X49371779Y-69894851D01*
X49374821Y-69889495D01*
X49386654Y-69853926D01*
X49411165Y-69780241D01*
X49425673Y-69736630D01*
X50292482Y-69736630D01*
X50292998Y-69742774D01*
X50307077Y-69910433D01*
X50308121Y-69922867D01*
X50359636Y-70102520D01*
X50382486Y-70146981D01*
X50429014Y-70237515D01*
X50445064Y-70268746D01*
X50448887Y-70273570D01*
X50448890Y-70273574D01*
X50544703Y-70394459D01*
X50561152Y-70415212D01*
X50565846Y-70419207D01*
X50618480Y-70464002D01*
X50703478Y-70536342D01*
X50866621Y-70627519D01*
X51044367Y-70685272D01*
X51229945Y-70707401D01*
X51236080Y-70706929D01*
X51236082Y-70706929D01*
X51292119Y-70702617D01*
X51416287Y-70693063D01*
X51596296Y-70642804D01*
X51601789Y-70640029D01*
X51601795Y-70640027D01*
X51625913Y-70627844D01*
X51695735Y-70614984D01*
X51761426Y-70641914D01*
X51802129Y-70700084D01*
X51806302Y-70764891D01*
X51787392Y-70859960D01*
X51787316Y-70865735D01*
X51787316Y-70865739D01*
X51787000Y-70889898D01*
X51784641Y-71070102D01*
X51785620Y-71075799D01*
X51785620Y-71075800D01*
X51791861Y-71112119D01*
X51820232Y-71277228D01*
X51892972Y-71474399D01*
X51895924Y-71479360D01*
X51895924Y-71479361D01*
X51992080Y-71640983D01*
X52000426Y-71655012D01*
X52138994Y-71813019D01*
X52304037Y-71943128D01*
X52309153Y-71945819D01*
X52309155Y-71945821D01*
X52484910Y-72038290D01*
X52490027Y-72040982D01*
X52690734Y-72103304D01*
X52696469Y-72103983D01*
X52696470Y-72103983D01*
X52727032Y-72107600D01*
X52861374Y-72123500D01*
X53363816Y-72123500D01*
X53519779Y-72109169D01*
X53525341Y-72107600D01*
X53525343Y-72107600D01*
X53620914Y-72080646D01*
X53722049Y-72052123D01*
X53910537Y-71959171D01*
X54078929Y-71833427D01*
X54102345Y-71808096D01*
X54217667Y-71683341D01*
X54217669Y-71683338D01*
X54221586Y-71679101D01*
X54333731Y-71501362D01*
X54411608Y-71306163D01*
X54412733Y-71300506D01*
X54412735Y-71300500D01*
X54451481Y-71105707D01*
X54451481Y-71105705D01*
X54452608Y-71100040D01*
X54452926Y-71075800D01*
X54455283Y-70895680D01*
X54455359Y-70889898D01*
X54421618Y-70693535D01*
X54420747Y-70688469D01*
X54420747Y-70688468D01*
X54419768Y-70682772D01*
X54347028Y-70485601D01*
X54321966Y-70443475D01*
X54242528Y-70309953D01*
X54242527Y-70309952D01*
X54239574Y-70304988D01*
X54101006Y-70146981D01*
X53973725Y-70046641D01*
X53940502Y-70020450D01*
X53940500Y-70020449D01*
X53935963Y-70016872D01*
X53930847Y-70014181D01*
X53930845Y-70014179D01*
X53755090Y-69921710D01*
X53755088Y-69921709D01*
X53749973Y-69919018D01*
X53549266Y-69856696D01*
X53543531Y-69856017D01*
X53543530Y-69856017D01*
X53495242Y-69850302D01*
X53378626Y-69836500D01*
X52876184Y-69836500D01*
X52720221Y-69850831D01*
X52714659Y-69852400D01*
X52714657Y-69852400D01*
X52619086Y-69879354D01*
X52517951Y-69907877D01*
X52379020Y-69976390D01*
X52309079Y-69988580D01*
X52243650Y-69961021D01*
X52203506Y-69902463D01*
X52198287Y-69847592D01*
X52206796Y-69780241D01*
X52206797Y-69780232D01*
X52207238Y-69776738D01*
X52207611Y-69750000D01*
X52189373Y-69563999D01*
X52192112Y-69563730D01*
X52197452Y-69504820D01*
X52241070Y-69448802D01*
X52308049Y-69425259D01*
X52373317Y-69439578D01*
X52481533Y-69496513D01*
X52490027Y-69500982D01*
X52690734Y-69563304D01*
X52696469Y-69563983D01*
X52696470Y-69563983D01*
X52727032Y-69567600D01*
X52861374Y-69583500D01*
X53363816Y-69583500D01*
X53519779Y-69569169D01*
X53525341Y-69567600D01*
X53525343Y-69567600D01*
X53682723Y-69523214D01*
X53722049Y-69512123D01*
X53910537Y-69419171D01*
X53956187Y-69385083D01*
X54074305Y-69296880D01*
X54074306Y-69296879D01*
X54078929Y-69293427D01*
X54156990Y-69208981D01*
X54217667Y-69143341D01*
X54217669Y-69143338D01*
X54221586Y-69139101D01*
X54333731Y-68961362D01*
X54411608Y-68766163D01*
X54412733Y-68760506D01*
X54412735Y-68760500D01*
X54451481Y-68565707D01*
X54451481Y-68565705D01*
X54452608Y-68560040D01*
X54452831Y-68543056D01*
X54455283Y-68355680D01*
X54455359Y-68349898D01*
X54419768Y-68142772D01*
X54347028Y-67945601D01*
X54239574Y-67764988D01*
X54101006Y-67606981D01*
X53935963Y-67476872D01*
X53930847Y-67474181D01*
X53930845Y-67474179D01*
X53755090Y-67381710D01*
X53755088Y-67381709D01*
X53749973Y-67379018D01*
X53549266Y-67316696D01*
X53543531Y-67316017D01*
X53543530Y-67316017D01*
X53495242Y-67310302D01*
X53378626Y-67296500D01*
X52876184Y-67296500D01*
X52720221Y-67310831D01*
X52714659Y-67312400D01*
X52714657Y-67312400D01*
X52619086Y-67339354D01*
X52517951Y-67367877D01*
X52329463Y-67460829D01*
X52161071Y-67586573D01*
X52018414Y-67740899D01*
X51906269Y-67918638D01*
X51828392Y-68113837D01*
X51827267Y-68119494D01*
X51827265Y-68119500D01*
X51821503Y-68148469D01*
X51787392Y-68319960D01*
X51787316Y-68325735D01*
X51787316Y-68325739D01*
X51787000Y-68349898D01*
X51784641Y-68530102D01*
X51785620Y-68535799D01*
X51785620Y-68535800D01*
X51805239Y-68649972D01*
X51819602Y-68733562D01*
X51820232Y-68737228D01*
X51819512Y-68737352D01*
X51817934Y-68803869D01*
X51778144Y-68862668D01*
X51712882Y-68890621D01*
X51637989Y-68876350D01*
X51626519Y-68870149D01*
X51626511Y-68870146D01*
X51621089Y-68867214D01*
X51500903Y-68830010D01*
X51448441Y-68813770D01*
X51448438Y-68813769D01*
X51442554Y-68811948D01*
X51436429Y-68811304D01*
X51436428Y-68811304D01*
X51262813Y-68793056D01*
X51262812Y-68793056D01*
X51256685Y-68792412D01*
X51138087Y-68803206D01*
X51076703Y-68808792D01*
X51076702Y-68808792D01*
X51070562Y-68809351D01*
X51064648Y-68811092D01*
X51064646Y-68811092D01*
X51016593Y-68825235D01*
X50891273Y-68862119D01*
X50885808Y-68864976D01*
X50743521Y-68939361D01*
X50725647Y-68948705D01*
X50579995Y-69065813D01*
X50459862Y-69208981D01*
X50456899Y-69214370D01*
X50456896Y-69214375D01*
X50398756Y-69320133D01*
X50369826Y-69372757D01*
X50367965Y-69378624D01*
X50367964Y-69378626D01*
X50354292Y-69421726D01*
X50313315Y-69550901D01*
X50292482Y-69736630D01*
X49425673Y-69736630D01*
X49433814Y-69712157D01*
X49439553Y-69666727D01*
X49456796Y-69530241D01*
X49456797Y-69530232D01*
X49457238Y-69526738D01*
X49457611Y-69500000D01*
X49439373Y-69313999D01*
X49435419Y-69300901D01*
X49387136Y-69140983D01*
X49385355Y-69135083D01*
X49297615Y-68970066D01*
X49286229Y-68956105D01*
X49183388Y-68830010D01*
X49183385Y-68830007D01*
X49179493Y-68825235D01*
X49174744Y-68821306D01*
X49040239Y-68710034D01*
X49040236Y-68710032D01*
X49035489Y-68706105D01*
X48871089Y-68617214D01*
X48781821Y-68589581D01*
X48698441Y-68563770D01*
X48698438Y-68563769D01*
X48692554Y-68561948D01*
X48686429Y-68561304D01*
X48686428Y-68561304D01*
X48512813Y-68543056D01*
X48512812Y-68543056D01*
X48506685Y-68542412D01*
X48388087Y-68553206D01*
X48326703Y-68558792D01*
X48326702Y-68558792D01*
X48320562Y-68559351D01*
X48314648Y-68561092D01*
X48314646Y-68561092D01*
X48298966Y-68565707D01*
X48141273Y-68612119D01*
X48135808Y-68614976D01*
X48002938Y-68684438D01*
X47975647Y-68698705D01*
X47829995Y-68815813D01*
X47709862Y-68958981D01*
X47706899Y-68964370D01*
X47706896Y-68964375D01*
X47653255Y-69061950D01*
X47619826Y-69122757D01*
X47563315Y-69300901D01*
X47542482Y-69486630D01*
X38533744Y-69486630D01*
X38670537Y-69419171D01*
X38716187Y-69385083D01*
X38834305Y-69296880D01*
X38834306Y-69296879D01*
X38838929Y-69293427D01*
X38916990Y-69208981D01*
X38977667Y-69143341D01*
X38977669Y-69143338D01*
X38981586Y-69139101D01*
X39093731Y-68961362D01*
X39171608Y-68766163D01*
X39172733Y-68760506D01*
X39172735Y-68760500D01*
X39211481Y-68565707D01*
X39211481Y-68565705D01*
X39212608Y-68560040D01*
X39212831Y-68543056D01*
X39215283Y-68355680D01*
X39215359Y-68349898D01*
X39179768Y-68142772D01*
X39107028Y-67945601D01*
X38999574Y-67764988D01*
X38861006Y-67606981D01*
X38695963Y-67476872D01*
X38690847Y-67474181D01*
X38690845Y-67474179D01*
X38515090Y-67381710D01*
X38515088Y-67381709D01*
X38509973Y-67379018D01*
X38309266Y-67316696D01*
X38303531Y-67316017D01*
X38303530Y-67316017D01*
X38255242Y-67310302D01*
X38138626Y-67296500D01*
X37636184Y-67296500D01*
X37480221Y-67310831D01*
X37474659Y-67312400D01*
X37474657Y-67312400D01*
X37379086Y-67339354D01*
X37277951Y-67367877D01*
X37089463Y-67460829D01*
X36921071Y-67586573D01*
X36778414Y-67740899D01*
X36666269Y-67918638D01*
X36588392Y-68113837D01*
X36587267Y-68119494D01*
X36587265Y-68119500D01*
X36581503Y-68148469D01*
X36547392Y-68319960D01*
X36547316Y-68325735D01*
X36547316Y-68325739D01*
X36547000Y-68349898D01*
X36544641Y-68530102D01*
X31500000Y-68530102D01*
X31500000Y-65990102D01*
X36544641Y-65990102D01*
X36580232Y-66197228D01*
X36652972Y-66394399D01*
X36760426Y-66575012D01*
X36898994Y-66733019D01*
X37064037Y-66863128D01*
X37069153Y-66865819D01*
X37069155Y-66865821D01*
X37244910Y-66958290D01*
X37250027Y-66960982D01*
X37450734Y-67023304D01*
X37456469Y-67023983D01*
X37456470Y-67023983D01*
X37487032Y-67027600D01*
X37621374Y-67043500D01*
X38123816Y-67043500D01*
X38279779Y-67029169D01*
X38285341Y-67027600D01*
X38285343Y-67027600D01*
X38380914Y-67000646D01*
X38482049Y-66972123D01*
X38670537Y-66879171D01*
X38838929Y-66753427D01*
X38981586Y-66599101D01*
X39093731Y-66421362D01*
X39171608Y-66226163D01*
X39172733Y-66220506D01*
X39172735Y-66220500D01*
X39211481Y-66025707D01*
X39211481Y-66025705D01*
X39212608Y-66020040D01*
X39212926Y-65995800D01*
X39215283Y-65815680D01*
X39215359Y-65809898D01*
X39179768Y-65602772D01*
X39107028Y-65405601D01*
X39088082Y-65373755D01*
X39014455Y-65250000D01*
X45643910Y-65250000D01*
X45662618Y-65427991D01*
X45717923Y-65598203D01*
X45807409Y-65753197D01*
X45811827Y-65758104D01*
X45811828Y-65758105D01*
X45863669Y-65815680D01*
X45927164Y-65886199D01*
X45932506Y-65890080D01*
X45932508Y-65890082D01*
X46066613Y-65987515D01*
X46071955Y-65991396D01*
X46077983Y-65994080D01*
X46077985Y-65994081D01*
X46149019Y-66025707D01*
X46235454Y-66064190D01*
X46322984Y-66082795D01*
X46404057Y-66100028D01*
X46404061Y-66100028D01*
X46410514Y-66101400D01*
X46589486Y-66101400D01*
X46595939Y-66100028D01*
X46595943Y-66100028D01*
X46677016Y-66082795D01*
X46764546Y-66064190D01*
X46850981Y-66025707D01*
X46922015Y-65994081D01*
X46922017Y-65994080D01*
X46928045Y-65991396D01*
X46929826Y-65990102D01*
X51784641Y-65990102D01*
X51820232Y-66197228D01*
X51892972Y-66394399D01*
X52000426Y-66575012D01*
X52138994Y-66733019D01*
X52304037Y-66863128D01*
X52309153Y-66865819D01*
X52309155Y-66865821D01*
X52484910Y-66958290D01*
X52490027Y-66960982D01*
X52690734Y-67023304D01*
X52696469Y-67023983D01*
X52696470Y-67023983D01*
X52727032Y-67027600D01*
X52861374Y-67043500D01*
X53363816Y-67043500D01*
X53519779Y-67029169D01*
X53525341Y-67027600D01*
X53525343Y-67027600D01*
X53620914Y-67000646D01*
X53722049Y-66972123D01*
X53910537Y-66879171D01*
X54078929Y-66753427D01*
X54221586Y-66599101D01*
X54333731Y-66421362D01*
X54411608Y-66226163D01*
X54412733Y-66220506D01*
X54412735Y-66220500D01*
X54451481Y-66025707D01*
X54451481Y-66025705D01*
X54452608Y-66020040D01*
X54452926Y-65995800D01*
X54455283Y-65815680D01*
X54455359Y-65809898D01*
X54419768Y-65602772D01*
X54347028Y-65405601D01*
X54328082Y-65373755D01*
X54242528Y-65229953D01*
X54242527Y-65229952D01*
X54239574Y-65224988D01*
X54101006Y-65066981D01*
X53935963Y-64936872D01*
X53930847Y-64934181D01*
X53930845Y-64934179D01*
X53755090Y-64841710D01*
X53755088Y-64841709D01*
X53749973Y-64839018D01*
X53549266Y-64776696D01*
X53543531Y-64776017D01*
X53543530Y-64776017D01*
X53495242Y-64770302D01*
X53378626Y-64756500D01*
X52876184Y-64756500D01*
X52720221Y-64770831D01*
X52714659Y-64772400D01*
X52714657Y-64772400D01*
X52619086Y-64799354D01*
X52517951Y-64827877D01*
X52329463Y-64920829D01*
X52161071Y-65046573D01*
X52157157Y-65050807D01*
X52157155Y-65050809D01*
X52131491Y-65078573D01*
X52018414Y-65200899D01*
X51906269Y-65378638D01*
X51828392Y-65573837D01*
X51827267Y-65579494D01*
X51827265Y-65579500D01*
X51821503Y-65608469D01*
X51787392Y-65779960D01*
X51787316Y-65785735D01*
X51787316Y-65785739D01*
X51786001Y-65886199D01*
X51784641Y-65990102D01*
X46929826Y-65990102D01*
X46933387Y-65987515D01*
X47067492Y-65890082D01*
X47067494Y-65890080D01*
X47072836Y-65886199D01*
X47136331Y-65815680D01*
X47188172Y-65758105D01*
X47188173Y-65758104D01*
X47192591Y-65753197D01*
X47282077Y-65598203D01*
X47337382Y-65427991D01*
X47356090Y-65250000D01*
X47353461Y-65224988D01*
X47338072Y-65078573D01*
X47338072Y-65078572D01*
X47337382Y-65072009D01*
X47329118Y-65046573D01*
X47294636Y-64940450D01*
X47282077Y-64901797D01*
X47192591Y-64746803D01*
X47072836Y-64613801D01*
X46928045Y-64508604D01*
X46922017Y-64505920D01*
X46922015Y-64505919D01*
X46770577Y-64438495D01*
X46770576Y-64438495D01*
X46764546Y-64435810D01*
X46677016Y-64417205D01*
X46595943Y-64399972D01*
X46595939Y-64399972D01*
X46589486Y-64398600D01*
X46410514Y-64398600D01*
X46404061Y-64399972D01*
X46404057Y-64399972D01*
X46322984Y-64417205D01*
X46235454Y-64435810D01*
X46229424Y-64438495D01*
X46229423Y-64438495D01*
X46077985Y-64505919D01*
X46077983Y-64505920D01*
X46071955Y-64508604D01*
X45927164Y-64613801D01*
X45807409Y-64746803D01*
X45717923Y-64901797D01*
X45705364Y-64940450D01*
X45670883Y-65046573D01*
X45662618Y-65072009D01*
X45661928Y-65078572D01*
X45661928Y-65078573D01*
X45646539Y-65224988D01*
X45643910Y-65250000D01*
X39014455Y-65250000D01*
X39002528Y-65229953D01*
X39002527Y-65229952D01*
X38999574Y-65224988D01*
X38861006Y-65066981D01*
X38695963Y-64936872D01*
X38690847Y-64934181D01*
X38690845Y-64934179D01*
X38515090Y-64841710D01*
X38515088Y-64841709D01*
X38509973Y-64839018D01*
X38309266Y-64776696D01*
X38303531Y-64776017D01*
X38303530Y-64776017D01*
X38255242Y-64770302D01*
X38138626Y-64756500D01*
X37636184Y-64756500D01*
X37480221Y-64770831D01*
X37474659Y-64772400D01*
X37474657Y-64772400D01*
X37379086Y-64799354D01*
X37277951Y-64827877D01*
X37089463Y-64920829D01*
X36921071Y-65046573D01*
X36917157Y-65050807D01*
X36917155Y-65050809D01*
X36891491Y-65078573D01*
X36778414Y-65200899D01*
X36666269Y-65378638D01*
X36588392Y-65573837D01*
X36587267Y-65579494D01*
X36587265Y-65579500D01*
X36581503Y-65608469D01*
X36547392Y-65779960D01*
X36547316Y-65785735D01*
X36547316Y-65785739D01*
X36546001Y-65886199D01*
X36544641Y-65990102D01*
X31500000Y-65990102D01*
X31500000Y-63450102D01*
X36544641Y-63450102D01*
X36580232Y-63657228D01*
X36652972Y-63854399D01*
X36760426Y-64035012D01*
X36898994Y-64193019D01*
X37064037Y-64323128D01*
X37069153Y-64325819D01*
X37069155Y-64325821D01*
X37244910Y-64418290D01*
X37250027Y-64420982D01*
X37450734Y-64483304D01*
X37456469Y-64483983D01*
X37456470Y-64483983D01*
X37487032Y-64487600D01*
X37621374Y-64503500D01*
X38123816Y-64503500D01*
X38279779Y-64489169D01*
X38285341Y-64487600D01*
X38285343Y-64487600D01*
X38380914Y-64460646D01*
X38482049Y-64432123D01*
X38670537Y-64339171D01*
X38838929Y-64213427D01*
X38981586Y-64059101D01*
X39093731Y-63881362D01*
X39171608Y-63686163D01*
X39172733Y-63680506D01*
X39172735Y-63680500D01*
X39211481Y-63485707D01*
X39211481Y-63485705D01*
X39212608Y-63480040D01*
X39212926Y-63455800D01*
X39213001Y-63450102D01*
X51784641Y-63450102D01*
X51820232Y-63657228D01*
X51892972Y-63854399D01*
X52000426Y-64035012D01*
X52138994Y-64193019D01*
X52304037Y-64323128D01*
X52309153Y-64325819D01*
X52309155Y-64325821D01*
X52484910Y-64418290D01*
X52490027Y-64420982D01*
X52690734Y-64483304D01*
X52696469Y-64483983D01*
X52696470Y-64483983D01*
X52727032Y-64487600D01*
X52861374Y-64503500D01*
X53363816Y-64503500D01*
X53519779Y-64489169D01*
X53525341Y-64487600D01*
X53525343Y-64487600D01*
X53620914Y-64460646D01*
X53722049Y-64432123D01*
X53910537Y-64339171D01*
X54078929Y-64213427D01*
X54221586Y-64059101D01*
X54333731Y-63881362D01*
X54411608Y-63686163D01*
X54412733Y-63680506D01*
X54412735Y-63680500D01*
X54451481Y-63485707D01*
X54451481Y-63485705D01*
X54452608Y-63480040D01*
X54452926Y-63455800D01*
X54455283Y-63275680D01*
X54455359Y-63269898D01*
X54419768Y-63062772D01*
X54347028Y-62865601D01*
X54274731Y-62744081D01*
X54242528Y-62689953D01*
X54242527Y-62689952D01*
X54239574Y-62684988D01*
X54101006Y-62526981D01*
X53935963Y-62396872D01*
X53930847Y-62394181D01*
X53930845Y-62394179D01*
X53755090Y-62301710D01*
X53755088Y-62301709D01*
X53749973Y-62299018D01*
X53549266Y-62236696D01*
X53543531Y-62236017D01*
X53543530Y-62236017D01*
X53495242Y-62230302D01*
X53378626Y-62216500D01*
X52876184Y-62216500D01*
X52720221Y-62230831D01*
X52714659Y-62232400D01*
X52714657Y-62232400D01*
X52682760Y-62241396D01*
X52517951Y-62287877D01*
X52329463Y-62380829D01*
X52161071Y-62506573D01*
X52018414Y-62660899D01*
X51906269Y-62838638D01*
X51828392Y-63033837D01*
X51827267Y-63039494D01*
X51827265Y-63039500D01*
X51821503Y-63068469D01*
X51787392Y-63239960D01*
X51787316Y-63245735D01*
X51787316Y-63245739D01*
X51787000Y-63269898D01*
X51784641Y-63450102D01*
X39213001Y-63450102D01*
X39215283Y-63275680D01*
X39215359Y-63269898D01*
X39179768Y-63062772D01*
X39107028Y-62865601D01*
X39034731Y-62744081D01*
X39002528Y-62689953D01*
X39002527Y-62689952D01*
X38999574Y-62684988D01*
X38861006Y-62526981D01*
X38695963Y-62396872D01*
X38690847Y-62394181D01*
X38690845Y-62394179D01*
X38515090Y-62301710D01*
X38515088Y-62301709D01*
X38509973Y-62299018D01*
X38309266Y-62236696D01*
X38303531Y-62236017D01*
X38303530Y-62236017D01*
X38255242Y-62230302D01*
X38138626Y-62216500D01*
X37636184Y-62216500D01*
X37480221Y-62230831D01*
X37474659Y-62232400D01*
X37474657Y-62232400D01*
X37442760Y-62241396D01*
X37277951Y-62287877D01*
X37089463Y-62380829D01*
X36921071Y-62506573D01*
X36778414Y-62660899D01*
X36666269Y-62838638D01*
X36588392Y-63033837D01*
X36587267Y-63039494D01*
X36587265Y-63039500D01*
X36581503Y-63068469D01*
X36547392Y-63239960D01*
X36547316Y-63245735D01*
X36547316Y-63245739D01*
X36547000Y-63269898D01*
X36544641Y-63450102D01*
X31500000Y-63450102D01*
X31500000Y-62000000D01*
X32893910Y-62000000D01*
X32894600Y-62006565D01*
X32908634Y-62140082D01*
X32912618Y-62177991D01*
X32967923Y-62348203D01*
X32971226Y-62353925D01*
X32971227Y-62353926D01*
X32986760Y-62380829D01*
X33057409Y-62503197D01*
X33177164Y-62636199D01*
X33182506Y-62640080D01*
X33182508Y-62640082D01*
X33217884Y-62665784D01*
X33321955Y-62741396D01*
X33327983Y-62744080D01*
X33327985Y-62744081D01*
X33479423Y-62811505D01*
X33485454Y-62814190D01*
X33572984Y-62832795D01*
X33654057Y-62850028D01*
X33654061Y-62850028D01*
X33660514Y-62851400D01*
X33839486Y-62851400D01*
X33845939Y-62850028D01*
X33845943Y-62850028D01*
X33927016Y-62832795D01*
X34014546Y-62814190D01*
X34020577Y-62811505D01*
X34172015Y-62744081D01*
X34172017Y-62744080D01*
X34178045Y-62741396D01*
X34282116Y-62665784D01*
X34317492Y-62640082D01*
X34317494Y-62640080D01*
X34322836Y-62636199D01*
X34442591Y-62503197D01*
X34513240Y-62380829D01*
X34528773Y-62353926D01*
X34528774Y-62353925D01*
X34532077Y-62348203D01*
X34587382Y-62177991D01*
X34591367Y-62140082D01*
X34605400Y-62006565D01*
X34606090Y-62000000D01*
X34593761Y-61882696D01*
X34588072Y-61828573D01*
X34588072Y-61828572D01*
X34587382Y-61822009D01*
X34532077Y-61651797D01*
X34442591Y-61496803D01*
X34322836Y-61363801D01*
X34298673Y-61346245D01*
X34183387Y-61262485D01*
X34183386Y-61262484D01*
X34178045Y-61258604D01*
X34172017Y-61255920D01*
X34172015Y-61255919D01*
X34020577Y-61188495D01*
X34020576Y-61188495D01*
X34014546Y-61185810D01*
X33927016Y-61167205D01*
X33845943Y-61149972D01*
X33845939Y-61149972D01*
X33839486Y-61148600D01*
X33660514Y-61148600D01*
X33654061Y-61149972D01*
X33654057Y-61149972D01*
X33572984Y-61167205D01*
X33485454Y-61185810D01*
X33479424Y-61188495D01*
X33479423Y-61188495D01*
X33327985Y-61255919D01*
X33327983Y-61255920D01*
X33321955Y-61258604D01*
X33316614Y-61262484D01*
X33316613Y-61262485D01*
X33201328Y-61346245D01*
X33177164Y-61363801D01*
X33057409Y-61496803D01*
X32967923Y-61651797D01*
X32912618Y-61822009D01*
X32911928Y-61828572D01*
X32911928Y-61828573D01*
X32906239Y-61882696D01*
X32893910Y-62000000D01*
X31500000Y-62000000D01*
X31500000Y-60910102D01*
X36544641Y-60910102D01*
X36580232Y-61117228D01*
X36652972Y-61314399D01*
X36760426Y-61495012D01*
X36898994Y-61653019D01*
X37064037Y-61783128D01*
X37069153Y-61785819D01*
X37069155Y-61785821D01*
X37175778Y-61841918D01*
X37250027Y-61880982D01*
X37450734Y-61943304D01*
X37456469Y-61943983D01*
X37456470Y-61943983D01*
X37487032Y-61947600D01*
X37621374Y-61963500D01*
X38123816Y-61963500D01*
X38279779Y-61949169D01*
X38285341Y-61947600D01*
X38285343Y-61947600D01*
X38380914Y-61920646D01*
X38482049Y-61892123D01*
X38670537Y-61799171D01*
X38824409Y-61684270D01*
X38834305Y-61676880D01*
X38834306Y-61676879D01*
X38838929Y-61673427D01*
X38857794Y-61653019D01*
X38977667Y-61523341D01*
X38977669Y-61523338D01*
X38981586Y-61519101D01*
X38993638Y-61500000D01*
X46393910Y-61500000D01*
X46412618Y-61677991D01*
X46467923Y-61848203D01*
X46471226Y-61853925D01*
X46471227Y-61853926D01*
X46493280Y-61892123D01*
X46557409Y-62003197D01*
X46677164Y-62136199D01*
X46682506Y-62140080D01*
X46682508Y-62140082D01*
X46809573Y-62232400D01*
X46821955Y-62241396D01*
X46827983Y-62244080D01*
X46827985Y-62244081D01*
X46947527Y-62297304D01*
X46985454Y-62314190D01*
X47072984Y-62332795D01*
X47154057Y-62350028D01*
X47154061Y-62350028D01*
X47160514Y-62351400D01*
X47339486Y-62351400D01*
X47345939Y-62350028D01*
X47345943Y-62350028D01*
X47427016Y-62332795D01*
X47514546Y-62314190D01*
X47552473Y-62297304D01*
X47672015Y-62244081D01*
X47672017Y-62244080D01*
X47678045Y-62241396D01*
X47690427Y-62232400D01*
X47817492Y-62140082D01*
X47817494Y-62140080D01*
X47822836Y-62136199D01*
X47942591Y-62003197D01*
X48006720Y-61892123D01*
X48028773Y-61853926D01*
X48028774Y-61853925D01*
X48032077Y-61848203D01*
X48087382Y-61677991D01*
X48106090Y-61500000D01*
X48091775Y-61363801D01*
X48088072Y-61328573D01*
X48088072Y-61328572D01*
X48087382Y-61322009D01*
X48084910Y-61314399D01*
X48034119Y-61158082D01*
X48032077Y-61151797D01*
X47942591Y-60996803D01*
X47864526Y-60910102D01*
X51784641Y-60910102D01*
X51820232Y-61117228D01*
X51892972Y-61314399D01*
X52000426Y-61495012D01*
X52138994Y-61653019D01*
X52304037Y-61783128D01*
X52309153Y-61785819D01*
X52309155Y-61785821D01*
X52415778Y-61841918D01*
X52490027Y-61880982D01*
X52690734Y-61943304D01*
X52696469Y-61943983D01*
X52696470Y-61943983D01*
X52727032Y-61947600D01*
X52861374Y-61963500D01*
X53363816Y-61963500D01*
X53519779Y-61949169D01*
X53525341Y-61947600D01*
X53525343Y-61947600D01*
X53620914Y-61920646D01*
X53722049Y-61892123D01*
X53910537Y-61799171D01*
X54064409Y-61684270D01*
X54074305Y-61676880D01*
X54074306Y-61676879D01*
X54078929Y-61673427D01*
X54097794Y-61653019D01*
X54217667Y-61523341D01*
X54217669Y-61523338D01*
X54221586Y-61519101D01*
X54333731Y-61341362D01*
X54411608Y-61146163D01*
X54412733Y-61140506D01*
X54412735Y-61140500D01*
X54451481Y-60945707D01*
X54451481Y-60945705D01*
X54452608Y-60940040D01*
X54452926Y-60915800D01*
X54455283Y-60735680D01*
X54455359Y-60729898D01*
X54447548Y-60684438D01*
X54420747Y-60528469D01*
X54420747Y-60528468D01*
X54419768Y-60522772D01*
X54347028Y-60325601D01*
X54239574Y-60144988D01*
X54101006Y-59986981D01*
X53935963Y-59856872D01*
X53930847Y-59854181D01*
X53930845Y-59854179D01*
X53755090Y-59761710D01*
X53755088Y-59761709D01*
X53749973Y-59759018D01*
X53549266Y-59696696D01*
X53543531Y-59696017D01*
X53543530Y-59696017D01*
X53495242Y-59690302D01*
X53378626Y-59676500D01*
X52876184Y-59676500D01*
X52720221Y-59690831D01*
X52714659Y-59692400D01*
X52714657Y-59692400D01*
X52619086Y-59719354D01*
X52517951Y-59747877D01*
X52329463Y-59840829D01*
X52161071Y-59966573D01*
X52018414Y-60120899D01*
X51906269Y-60298638D01*
X51828392Y-60493837D01*
X51827267Y-60499494D01*
X51827265Y-60499500D01*
X51788519Y-60694293D01*
X51787392Y-60699960D01*
X51787316Y-60705735D01*
X51787316Y-60705739D01*
X51787000Y-60729898D01*
X51784641Y-60910102D01*
X47864526Y-60910102D01*
X47827258Y-60868712D01*
X47827257Y-60868711D01*
X47822836Y-60863801D01*
X47678045Y-60758604D01*
X47672017Y-60755920D01*
X47672015Y-60755919D01*
X47520577Y-60688495D01*
X47520576Y-60688495D01*
X47514546Y-60685810D01*
X47427016Y-60667205D01*
X47345943Y-60649972D01*
X47345939Y-60649972D01*
X47339486Y-60648600D01*
X47160514Y-60648600D01*
X47154061Y-60649972D01*
X47154057Y-60649972D01*
X47072984Y-60667205D01*
X46985454Y-60685810D01*
X46979424Y-60688495D01*
X46979423Y-60688495D01*
X46827985Y-60755919D01*
X46827983Y-60755920D01*
X46821955Y-60758604D01*
X46677164Y-60863801D01*
X46672743Y-60868711D01*
X46672742Y-60868712D01*
X46635475Y-60910102D01*
X46557409Y-60996803D01*
X46467923Y-61151797D01*
X46465881Y-61158082D01*
X46415091Y-61314399D01*
X46412618Y-61322009D01*
X46411928Y-61328572D01*
X46411928Y-61328573D01*
X46408225Y-61363801D01*
X46393910Y-61500000D01*
X38993638Y-61500000D01*
X39093731Y-61341362D01*
X39171608Y-61146163D01*
X39172733Y-61140506D01*
X39172735Y-61140500D01*
X39211481Y-60945707D01*
X39211481Y-60945705D01*
X39212608Y-60940040D01*
X39212926Y-60915800D01*
X39215283Y-60735680D01*
X39215359Y-60729898D01*
X39207548Y-60684438D01*
X39180747Y-60528469D01*
X39180747Y-60528468D01*
X39179768Y-60522772D01*
X39107028Y-60325601D01*
X38999574Y-60144988D01*
X38861006Y-59986981D01*
X38695963Y-59856872D01*
X38690847Y-59854181D01*
X38690845Y-59854179D01*
X38515090Y-59761710D01*
X38515088Y-59761709D01*
X38509973Y-59759018D01*
X38309266Y-59696696D01*
X38303531Y-59696017D01*
X38303530Y-59696017D01*
X38255242Y-59690302D01*
X38138626Y-59676500D01*
X37636184Y-59676500D01*
X37480221Y-59690831D01*
X37474659Y-59692400D01*
X37474657Y-59692400D01*
X37379086Y-59719354D01*
X37277951Y-59747877D01*
X37089463Y-59840829D01*
X36921071Y-59966573D01*
X36778414Y-60120899D01*
X36666269Y-60298638D01*
X36588392Y-60493837D01*
X36587267Y-60499494D01*
X36587265Y-60499500D01*
X36548519Y-60694293D01*
X36547392Y-60699960D01*
X36547316Y-60705735D01*
X36547316Y-60705739D01*
X36547000Y-60729898D01*
X36544641Y-60910102D01*
X31500000Y-60910102D01*
X31500000Y-59052190D01*
X31520002Y-58984069D01*
X31536905Y-58963095D01*
X32463095Y-58036905D01*
X32525407Y-58002879D01*
X32552190Y-58000000D01*
X35060005Y-58000000D01*
X35128126Y-58020002D01*
X35174619Y-58073658D01*
X35184723Y-58143932D01*
X35155229Y-58208512D01*
X35111254Y-58241107D01*
X35077985Y-58255919D01*
X35077983Y-58255920D01*
X35071955Y-58258604D01*
X34927164Y-58363801D01*
X34922743Y-58368711D01*
X34922742Y-58368712D01*
X34921491Y-58370102D01*
X34807409Y-58496803D01*
X34804108Y-58502521D01*
X34741174Y-58611526D01*
X34717923Y-58651797D01*
X34715881Y-58658082D01*
X34669327Y-58801362D01*
X34662618Y-58822009D01*
X34661928Y-58828572D01*
X34661928Y-58828573D01*
X34648182Y-58959356D01*
X34643910Y-59000000D01*
X34644600Y-59006565D01*
X34649396Y-59052190D01*
X34662618Y-59177991D01*
X34717923Y-59348203D01*
X34807409Y-59503197D01*
X34927164Y-59636199D01*
X34932506Y-59640080D01*
X34932508Y-59640082D01*
X35012790Y-59698410D01*
X35071955Y-59741396D01*
X35077983Y-59744080D01*
X35077985Y-59744081D01*
X35117581Y-59761710D01*
X35235454Y-59814190D01*
X35322984Y-59832795D01*
X35404057Y-59850028D01*
X35404061Y-59850028D01*
X35410514Y-59851400D01*
X35589486Y-59851400D01*
X35595939Y-59850028D01*
X35595943Y-59850028D01*
X35677016Y-59832795D01*
X35764546Y-59814190D01*
X35882419Y-59761710D01*
X35922015Y-59744081D01*
X35922017Y-59744080D01*
X35928045Y-59741396D01*
X35987210Y-59698410D01*
X36067492Y-59640082D01*
X36067494Y-59640080D01*
X36072836Y-59636199D01*
X36192591Y-59503197D01*
X36282077Y-59348203D01*
X36337382Y-59177991D01*
X36350605Y-59052190D01*
X36355400Y-59006565D01*
X36356090Y-59000000D01*
X36351818Y-58959356D01*
X36338072Y-58828573D01*
X36338072Y-58828572D01*
X36337382Y-58822009D01*
X36330674Y-58801362D01*
X36284119Y-58658082D01*
X36282077Y-58651797D01*
X36258827Y-58611526D01*
X36195892Y-58502521D01*
X36192591Y-58496803D01*
X36078510Y-58370102D01*
X36077258Y-58368712D01*
X36077257Y-58368711D01*
X36072836Y-58363801D01*
X35928045Y-58258604D01*
X35922017Y-58255920D01*
X35922015Y-58255919D01*
X35888746Y-58241107D01*
X35834650Y-58195127D01*
X35814001Y-58127200D01*
X35833353Y-58058892D01*
X35886564Y-58011890D01*
X35939995Y-58000000D01*
X36425679Y-58000000D01*
X36493800Y-58020002D01*
X36540293Y-58073658D01*
X36549018Y-58148537D01*
X36549123Y-58148548D01*
X36549074Y-58149015D01*
X36549257Y-58150585D01*
X36547392Y-58159960D01*
X36547316Y-58165735D01*
X36547316Y-58165739D01*
X36546924Y-58195680D01*
X36544641Y-58370102D01*
X36580232Y-58577228D01*
X36652972Y-58774399D01*
X36760426Y-58955012D01*
X36898994Y-59113019D01*
X37064037Y-59243128D01*
X37069153Y-59245819D01*
X37069155Y-59245821D01*
X37244910Y-59338290D01*
X37250027Y-59340982D01*
X37450734Y-59403304D01*
X37456469Y-59403983D01*
X37456470Y-59403983D01*
X37487032Y-59407600D01*
X37621374Y-59423500D01*
X38123816Y-59423500D01*
X38279779Y-59409169D01*
X38285341Y-59407600D01*
X38285343Y-59407600D01*
X38380914Y-59380646D01*
X38482049Y-59352123D01*
X38670537Y-59259171D01*
X38779251Y-59177991D01*
X38834305Y-59136880D01*
X38834306Y-59136879D01*
X38838929Y-59133427D01*
X38861805Y-59108680D01*
X38962268Y-59000000D01*
X46393910Y-59000000D01*
X46394600Y-59006565D01*
X46399396Y-59052190D01*
X46412618Y-59177991D01*
X46467923Y-59348203D01*
X46557409Y-59503197D01*
X46677164Y-59636199D01*
X46682506Y-59640080D01*
X46682508Y-59640082D01*
X46762790Y-59698410D01*
X46821955Y-59741396D01*
X46827983Y-59744080D01*
X46827985Y-59744081D01*
X46867581Y-59761710D01*
X46985454Y-59814190D01*
X47072984Y-59832795D01*
X47154057Y-59850028D01*
X47154061Y-59850028D01*
X47160514Y-59851400D01*
X47339486Y-59851400D01*
X47345939Y-59850028D01*
X47345943Y-59850028D01*
X47427016Y-59832795D01*
X47514546Y-59814190D01*
X47632419Y-59761710D01*
X47672015Y-59744081D01*
X47672017Y-59744080D01*
X47678045Y-59741396D01*
X47737210Y-59698410D01*
X47817492Y-59640082D01*
X47817494Y-59640080D01*
X47822836Y-59636199D01*
X47942591Y-59503197D01*
X48032077Y-59348203D01*
X48087382Y-59177991D01*
X48100605Y-59052190D01*
X48105400Y-59006565D01*
X48106090Y-59000000D01*
X48101818Y-58959356D01*
X48088072Y-58828573D01*
X48088072Y-58828572D01*
X48087382Y-58822009D01*
X48080674Y-58801362D01*
X48034119Y-58658082D01*
X48032077Y-58651797D01*
X48008827Y-58611526D01*
X47945892Y-58502521D01*
X47942591Y-58496803D01*
X47828510Y-58370102D01*
X51784641Y-58370102D01*
X51820232Y-58577228D01*
X51892972Y-58774399D01*
X52000426Y-58955012D01*
X52138994Y-59113019D01*
X52304037Y-59243128D01*
X52309153Y-59245819D01*
X52309155Y-59245821D01*
X52484910Y-59338290D01*
X52490027Y-59340982D01*
X52690734Y-59403304D01*
X52696469Y-59403983D01*
X52696470Y-59403983D01*
X52727032Y-59407600D01*
X52861374Y-59423500D01*
X53363816Y-59423500D01*
X53519779Y-59409169D01*
X53525341Y-59407600D01*
X53525343Y-59407600D01*
X53620914Y-59380646D01*
X53722049Y-59352123D01*
X53910537Y-59259171D01*
X54019251Y-59177991D01*
X54074305Y-59136880D01*
X54074306Y-59136879D01*
X54078929Y-59133427D01*
X54101805Y-59108680D01*
X54217667Y-58983341D01*
X54217669Y-58983338D01*
X54221586Y-58979101D01*
X54333731Y-58801362D01*
X54411608Y-58606163D01*
X54412733Y-58600506D01*
X54412735Y-58600500D01*
X54451481Y-58405707D01*
X54451481Y-58405705D01*
X54452608Y-58400040D01*
X54452926Y-58375800D01*
X54454409Y-58262485D01*
X54455359Y-58189898D01*
X54448499Y-58149972D01*
X54420747Y-57988469D01*
X54420747Y-57988468D01*
X54419768Y-57982772D01*
X54347028Y-57785601D01*
X54287338Y-57685272D01*
X54242528Y-57609953D01*
X54242527Y-57609952D01*
X54239574Y-57604988D01*
X54101006Y-57446981D01*
X53935963Y-57316872D01*
X53930847Y-57314181D01*
X53930845Y-57314179D01*
X53755090Y-57221710D01*
X53755088Y-57221709D01*
X53749973Y-57219018D01*
X53549266Y-57156696D01*
X53543531Y-57156017D01*
X53543530Y-57156017D01*
X53495242Y-57150302D01*
X53378626Y-57136500D01*
X52876184Y-57136500D01*
X52720221Y-57150831D01*
X52714659Y-57152400D01*
X52714657Y-57152400D01*
X52619086Y-57179354D01*
X52517951Y-57207877D01*
X52329463Y-57300829D01*
X52161071Y-57426573D01*
X52157157Y-57430807D01*
X52157155Y-57430809D01*
X52042590Y-57554746D01*
X52018414Y-57580899D01*
X51906269Y-57758638D01*
X51828392Y-57953837D01*
X51827267Y-57959494D01*
X51827265Y-57959500D01*
X51788519Y-58154293D01*
X51787392Y-58159960D01*
X51787316Y-58165735D01*
X51787316Y-58165739D01*
X51786924Y-58195680D01*
X51784641Y-58370102D01*
X47828510Y-58370102D01*
X47827258Y-58368712D01*
X47827257Y-58368711D01*
X47822836Y-58363801D01*
X47678045Y-58258604D01*
X47672017Y-58255920D01*
X47672015Y-58255919D01*
X47520577Y-58188495D01*
X47520576Y-58188495D01*
X47514546Y-58185810D01*
X47420119Y-58165739D01*
X47345943Y-58149972D01*
X47345939Y-58149972D01*
X47339486Y-58148600D01*
X47160514Y-58148600D01*
X47154061Y-58149972D01*
X47154057Y-58149972D01*
X47079881Y-58165739D01*
X46985454Y-58185810D01*
X46979424Y-58188495D01*
X46979423Y-58188495D01*
X46827985Y-58255919D01*
X46827983Y-58255920D01*
X46821955Y-58258604D01*
X46677164Y-58363801D01*
X46672743Y-58368711D01*
X46672742Y-58368712D01*
X46671491Y-58370102D01*
X46557409Y-58496803D01*
X46554108Y-58502521D01*
X46491174Y-58611526D01*
X46467923Y-58651797D01*
X46465881Y-58658082D01*
X46419327Y-58801362D01*
X46412618Y-58822009D01*
X46411928Y-58828572D01*
X46411928Y-58828573D01*
X46398182Y-58959356D01*
X46393910Y-59000000D01*
X38962268Y-59000000D01*
X38977667Y-58983341D01*
X38977669Y-58983338D01*
X38981586Y-58979101D01*
X39093731Y-58801362D01*
X39171608Y-58606163D01*
X39172733Y-58600506D01*
X39172735Y-58600500D01*
X39211481Y-58405707D01*
X39211481Y-58405705D01*
X39212608Y-58400040D01*
X39212926Y-58375800D01*
X39214409Y-58262485D01*
X39215359Y-58189898D01*
X39208499Y-58149972D01*
X39180747Y-57988469D01*
X39180747Y-57988468D01*
X39179768Y-57982772D01*
X39107028Y-57785601D01*
X39047338Y-57685272D01*
X39002528Y-57609953D01*
X39002527Y-57609952D01*
X38999574Y-57604988D01*
X38861006Y-57446981D01*
X38695963Y-57316872D01*
X38690847Y-57314181D01*
X38690845Y-57314179D01*
X38515090Y-57221710D01*
X38515088Y-57221709D01*
X38509973Y-57219018D01*
X38309266Y-57156696D01*
X38303531Y-57156017D01*
X38303530Y-57156017D01*
X38255242Y-57150302D01*
X38138626Y-57136500D01*
X37636184Y-57136500D01*
X37480221Y-57150831D01*
X37474659Y-57152400D01*
X37474657Y-57152400D01*
X37379086Y-57179354D01*
X37277951Y-57207877D01*
X37089463Y-57300829D01*
X36921071Y-57426573D01*
X36917157Y-57430807D01*
X36917155Y-57430809D01*
X36802590Y-57554746D01*
X36778414Y-57580899D01*
X36775332Y-57585784D01*
X36732562Y-57653570D01*
X36679295Y-57700509D01*
X36609108Y-57711198D01*
X36544284Y-57682243D01*
X36505404Y-57622839D01*
X36500000Y-57586335D01*
X36500000Y-56435496D01*
X36520002Y-56367375D01*
X36573658Y-56320882D01*
X36643932Y-56310778D01*
X36708512Y-56340272D01*
X36734285Y-56371073D01*
X36760426Y-56415012D01*
X36898994Y-56573019D01*
X37064037Y-56703128D01*
X37069153Y-56705819D01*
X37069155Y-56705821D01*
X37244910Y-56798290D01*
X37250027Y-56800982D01*
X37450734Y-56863304D01*
X37456469Y-56863983D01*
X37456470Y-56863983D01*
X37487032Y-56867600D01*
X37621374Y-56883500D01*
X38123816Y-56883500D01*
X38279779Y-56869169D01*
X38285341Y-56867600D01*
X38285343Y-56867600D01*
X38380914Y-56840646D01*
X38482049Y-56812123D01*
X38635134Y-56736630D01*
X46042482Y-56736630D01*
X46042998Y-56742774D01*
X46054779Y-56883063D01*
X46058121Y-56922867D01*
X46109636Y-57102520D01*
X46138359Y-57158410D01*
X46168627Y-57217304D01*
X46195064Y-57268746D01*
X46198887Y-57273570D01*
X46198890Y-57273574D01*
X46233208Y-57316872D01*
X46311152Y-57415212D01*
X46315846Y-57419207D01*
X46348819Y-57447269D01*
X46453478Y-57536342D01*
X46616621Y-57627519D01*
X46794367Y-57685272D01*
X46979945Y-57707401D01*
X46986080Y-57706929D01*
X46986082Y-57706929D01*
X47042119Y-57702617D01*
X47166287Y-57693063D01*
X47346296Y-57642804D01*
X47351785Y-57640031D01*
X47351791Y-57640029D01*
X47459176Y-57585784D01*
X47513114Y-57558538D01*
X47541524Y-57536342D01*
X47565486Y-57517621D01*
X47660387Y-57443475D01*
X47664413Y-57438811D01*
X47664416Y-57438808D01*
X47740669Y-57350468D01*
X47782507Y-57301998D01*
X47874821Y-57139495D01*
X47889091Y-57096600D01*
X47931867Y-56968009D01*
X47933814Y-56962157D01*
X47943806Y-56883063D01*
X47956796Y-56780241D01*
X47956797Y-56780232D01*
X47957238Y-56776738D01*
X47957611Y-56750000D01*
X47939373Y-56563999D01*
X47935419Y-56550901D01*
X47901664Y-56439101D01*
X47885355Y-56385083D01*
X47797615Y-56220066D01*
X47784727Y-56204264D01*
X47683388Y-56080010D01*
X47683385Y-56080007D01*
X47679493Y-56075235D01*
X47674744Y-56071306D01*
X47540239Y-55960034D01*
X47540236Y-55960032D01*
X47535489Y-55956105D01*
X47371089Y-55867214D01*
X47251200Y-55830102D01*
X51784641Y-55830102D01*
X51785620Y-55835799D01*
X51785620Y-55835800D01*
X51819253Y-56031531D01*
X51820232Y-56037228D01*
X51892972Y-56234399D01*
X52000426Y-56415012D01*
X52138994Y-56573019D01*
X52304037Y-56703128D01*
X52309153Y-56705819D01*
X52309155Y-56705821D01*
X52484910Y-56798290D01*
X52490027Y-56800982D01*
X52690734Y-56863304D01*
X52696469Y-56863983D01*
X52696470Y-56863983D01*
X52727032Y-56867600D01*
X52861374Y-56883500D01*
X53363816Y-56883500D01*
X53519779Y-56869169D01*
X53525341Y-56867600D01*
X53525343Y-56867600D01*
X53620914Y-56840646D01*
X53722049Y-56812123D01*
X53910537Y-56719171D01*
X54078929Y-56593427D01*
X54112583Y-56557020D01*
X54217667Y-56443341D01*
X54217669Y-56443338D01*
X54221586Y-56439101D01*
X54333731Y-56261362D01*
X54411608Y-56066163D01*
X54412733Y-56060506D01*
X54412735Y-56060500D01*
X54451481Y-55865707D01*
X54451481Y-55865705D01*
X54452608Y-55860040D01*
X54452926Y-55835800D01*
X54455283Y-55655680D01*
X54455359Y-55649898D01*
X54419768Y-55442772D01*
X54347028Y-55245601D01*
X54285536Y-55142243D01*
X54242528Y-55069953D01*
X54242527Y-55069952D01*
X54239574Y-55064988D01*
X54101006Y-54906981D01*
X53935963Y-54776872D01*
X53930847Y-54774181D01*
X53930845Y-54774179D01*
X53755090Y-54681710D01*
X53755088Y-54681709D01*
X53749973Y-54679018D01*
X53549266Y-54616696D01*
X53543531Y-54616017D01*
X53543530Y-54616017D01*
X53495242Y-54610302D01*
X53378626Y-54596500D01*
X52876184Y-54596500D01*
X52720221Y-54610831D01*
X52714659Y-54612400D01*
X52714657Y-54612400D01*
X52619086Y-54639354D01*
X52517951Y-54667877D01*
X52329463Y-54760829D01*
X52161071Y-54886573D01*
X52018414Y-55040899D01*
X51906269Y-55218638D01*
X51828392Y-55413837D01*
X51827267Y-55419494D01*
X51827265Y-55419500D01*
X51821503Y-55448469D01*
X51787392Y-55619960D01*
X51787316Y-55625735D01*
X51787316Y-55625739D01*
X51787000Y-55649898D01*
X51784641Y-55830102D01*
X47251200Y-55830102D01*
X47198441Y-55813770D01*
X47198438Y-55813769D01*
X47192554Y-55811948D01*
X47186429Y-55811304D01*
X47186428Y-55811304D01*
X47012813Y-55793056D01*
X47012812Y-55793056D01*
X47006685Y-55792412D01*
X46888087Y-55803206D01*
X46826703Y-55808792D01*
X46826702Y-55808792D01*
X46820562Y-55809351D01*
X46814648Y-55811092D01*
X46814646Y-55811092D01*
X46692466Y-55847052D01*
X46641273Y-55862119D01*
X46475647Y-55948705D01*
X46329995Y-56065813D01*
X46209862Y-56208981D01*
X46206899Y-56214370D01*
X46206896Y-56214375D01*
X46184014Y-56255998D01*
X46119826Y-56372757D01*
X46063315Y-56550901D01*
X46042482Y-56736630D01*
X38635134Y-56736630D01*
X38670537Y-56719171D01*
X38838929Y-56593427D01*
X38872583Y-56557020D01*
X38977667Y-56443341D01*
X38977669Y-56443338D01*
X38981586Y-56439101D01*
X39093731Y-56261362D01*
X39171608Y-56066163D01*
X39172733Y-56060506D01*
X39172735Y-56060500D01*
X39211481Y-55865707D01*
X39211481Y-55865705D01*
X39212608Y-55860040D01*
X39212926Y-55835800D01*
X39215283Y-55655680D01*
X39215359Y-55649898D01*
X39179768Y-55442772D01*
X39107028Y-55245601D01*
X39045536Y-55142243D01*
X39002528Y-55069953D01*
X39002527Y-55069952D01*
X38999574Y-55064988D01*
X38861006Y-54906981D01*
X38695963Y-54776872D01*
X38690847Y-54774181D01*
X38690845Y-54774179D01*
X38515090Y-54681710D01*
X38515088Y-54681709D01*
X38509973Y-54679018D01*
X38309266Y-54616696D01*
X38303531Y-54616017D01*
X38303530Y-54616017D01*
X38255242Y-54610302D01*
X38138626Y-54596500D01*
X37636184Y-54596500D01*
X37480221Y-54610831D01*
X37474659Y-54612400D01*
X37474657Y-54612400D01*
X37379086Y-54639354D01*
X37277951Y-54667877D01*
X37089463Y-54760829D01*
X36921071Y-54886573D01*
X36778414Y-55040899D01*
X36775332Y-55045784D01*
X36732562Y-55113570D01*
X36679295Y-55160509D01*
X36609108Y-55171198D01*
X36544284Y-55142243D01*
X36505404Y-55082839D01*
X36500000Y-55046335D01*
X36500000Y-53895496D01*
X36520002Y-53827375D01*
X36573658Y-53780882D01*
X36643932Y-53770778D01*
X36708512Y-53800272D01*
X36734285Y-53831073D01*
X36760426Y-53875012D01*
X36898994Y-54033019D01*
X37064037Y-54163128D01*
X37069153Y-54165819D01*
X37069155Y-54165821D01*
X37244910Y-54258290D01*
X37250027Y-54260982D01*
X37450734Y-54323304D01*
X37456469Y-54323983D01*
X37456470Y-54323983D01*
X37487032Y-54327600D01*
X37621374Y-54343500D01*
X38123816Y-54343500D01*
X38279779Y-54329169D01*
X38285341Y-54327600D01*
X38285343Y-54327600D01*
X38380914Y-54300646D01*
X38482049Y-54272123D01*
X38670537Y-54179171D01*
X38838929Y-54053427D01*
X38981586Y-53899101D01*
X39093731Y-53721362D01*
X39171608Y-53526163D01*
X39172733Y-53520506D01*
X39172735Y-53520500D01*
X39211481Y-53325707D01*
X39211481Y-53325705D01*
X39212608Y-53320040D01*
X39212926Y-53295800D01*
X39213001Y-53290102D01*
X51784641Y-53290102D01*
X51820232Y-53497228D01*
X51892972Y-53694399D01*
X52000426Y-53875012D01*
X52138994Y-54033019D01*
X52304037Y-54163128D01*
X52309153Y-54165819D01*
X52309155Y-54165821D01*
X52484910Y-54258290D01*
X52490027Y-54260982D01*
X52690734Y-54323304D01*
X52696469Y-54323983D01*
X52696470Y-54323983D01*
X52727032Y-54327600D01*
X52861374Y-54343500D01*
X53363816Y-54343500D01*
X53519779Y-54329169D01*
X53525341Y-54327600D01*
X53525343Y-54327600D01*
X53620914Y-54300646D01*
X53722049Y-54272123D01*
X53910537Y-54179171D01*
X54078929Y-54053427D01*
X54221586Y-53899101D01*
X54333731Y-53721362D01*
X54411608Y-53526163D01*
X54412733Y-53520506D01*
X54412735Y-53520500D01*
X54451481Y-53325707D01*
X54451481Y-53325705D01*
X54452608Y-53320040D01*
X54452926Y-53295800D01*
X54455283Y-53115680D01*
X54455359Y-53109898D01*
X54419768Y-52902772D01*
X54347028Y-52705601D01*
X54285536Y-52602243D01*
X54242528Y-52529953D01*
X54242527Y-52529952D01*
X54239574Y-52524988D01*
X54101006Y-52366981D01*
X53935963Y-52236872D01*
X53930847Y-52234181D01*
X53930845Y-52234179D01*
X53755090Y-52141710D01*
X53755088Y-52141709D01*
X53749973Y-52139018D01*
X53549266Y-52076696D01*
X53543531Y-52076017D01*
X53543530Y-52076017D01*
X53495242Y-52070302D01*
X53378626Y-52056500D01*
X52876184Y-52056500D01*
X52720221Y-52070831D01*
X52714659Y-52072400D01*
X52714657Y-52072400D01*
X52619086Y-52099354D01*
X52517951Y-52127877D01*
X52329463Y-52220829D01*
X52161071Y-52346573D01*
X52018414Y-52500899D01*
X51906269Y-52678638D01*
X51828392Y-52873837D01*
X51827267Y-52879494D01*
X51827265Y-52879500D01*
X51821503Y-52908469D01*
X51787392Y-53079960D01*
X51787316Y-53085735D01*
X51787316Y-53085739D01*
X51787000Y-53109898D01*
X51784641Y-53290102D01*
X39213001Y-53290102D01*
X39215283Y-53115680D01*
X39215359Y-53109898D01*
X39179768Y-52902772D01*
X39107028Y-52705601D01*
X39045536Y-52602243D01*
X39002528Y-52529953D01*
X39002527Y-52529952D01*
X38999574Y-52524988D01*
X38861006Y-52366981D01*
X38695963Y-52236872D01*
X38690847Y-52234181D01*
X38690845Y-52234179D01*
X38515090Y-52141710D01*
X38515088Y-52141709D01*
X38509973Y-52139018D01*
X38309266Y-52076696D01*
X38303531Y-52076017D01*
X38303530Y-52076017D01*
X38255242Y-52070302D01*
X38138626Y-52056500D01*
X37636184Y-52056500D01*
X37480221Y-52070831D01*
X37474659Y-52072400D01*
X37474657Y-52072400D01*
X37379086Y-52099354D01*
X37277951Y-52127877D01*
X37089463Y-52220829D01*
X36921071Y-52346573D01*
X36778414Y-52500899D01*
X36775332Y-52505784D01*
X36732562Y-52573570D01*
X36679295Y-52620509D01*
X36609108Y-52631198D01*
X36544284Y-52602243D01*
X36505404Y-52542839D01*
X36500000Y-52506335D01*
X36500000Y-51355496D01*
X36520002Y-51287375D01*
X36573658Y-51240882D01*
X36643932Y-51230778D01*
X36708512Y-51260272D01*
X36734285Y-51291073D01*
X36760426Y-51335012D01*
X36898994Y-51493019D01*
X37064037Y-51623128D01*
X37069153Y-51625819D01*
X37069155Y-51625821D01*
X37244910Y-51718290D01*
X37250027Y-51720982D01*
X37450734Y-51783304D01*
X37456469Y-51783983D01*
X37456470Y-51783983D01*
X37487032Y-51787600D01*
X37621374Y-51803500D01*
X38123816Y-51803500D01*
X38279779Y-51789169D01*
X38285341Y-51787600D01*
X38285343Y-51787600D01*
X38380914Y-51760646D01*
X38482049Y-51732123D01*
X38670537Y-51639171D01*
X38838929Y-51513427D01*
X38981586Y-51359101D01*
X39093731Y-51181362D01*
X39171608Y-50986163D01*
X39172733Y-50980506D01*
X39172735Y-50980500D01*
X39211481Y-50785707D01*
X39211481Y-50785705D01*
X39212608Y-50780040D01*
X39212926Y-50755800D01*
X39213001Y-50750102D01*
X51784641Y-50750102D01*
X51820232Y-50957228D01*
X51892972Y-51154399D01*
X52000426Y-51335012D01*
X52138994Y-51493019D01*
X52304037Y-51623128D01*
X52309153Y-51625819D01*
X52309155Y-51625821D01*
X52484910Y-51718290D01*
X52490027Y-51720982D01*
X52690734Y-51783304D01*
X52696469Y-51783983D01*
X52696470Y-51783983D01*
X52727032Y-51787600D01*
X52861374Y-51803500D01*
X53363816Y-51803500D01*
X53519779Y-51789169D01*
X53525341Y-51787600D01*
X53525343Y-51787600D01*
X53620914Y-51760646D01*
X53722049Y-51732123D01*
X53910537Y-51639171D01*
X54078929Y-51513427D01*
X54221586Y-51359101D01*
X54333731Y-51181362D01*
X54411608Y-50986163D01*
X54412733Y-50980506D01*
X54412735Y-50980500D01*
X54451481Y-50785707D01*
X54451481Y-50785705D01*
X54452608Y-50780040D01*
X54452926Y-50755800D01*
X54455283Y-50575680D01*
X54455359Y-50569898D01*
X54419768Y-50362772D01*
X54347028Y-50165601D01*
X54285536Y-50062243D01*
X54242528Y-49989953D01*
X54242527Y-49989952D01*
X54239574Y-49984988D01*
X54101006Y-49826981D01*
X53935963Y-49696872D01*
X53930847Y-49694181D01*
X53930845Y-49694179D01*
X53755090Y-49601710D01*
X53755088Y-49601709D01*
X53749973Y-49599018D01*
X53549266Y-49536696D01*
X53543531Y-49536017D01*
X53543530Y-49536017D01*
X53495242Y-49530302D01*
X53378626Y-49516500D01*
X52876184Y-49516500D01*
X52720221Y-49530831D01*
X52714659Y-49532400D01*
X52714657Y-49532400D01*
X52619086Y-49559354D01*
X52517951Y-49587877D01*
X52329463Y-49680829D01*
X52161071Y-49806573D01*
X52018414Y-49960899D01*
X51906269Y-50138638D01*
X51828392Y-50333837D01*
X51827267Y-50339494D01*
X51827265Y-50339500D01*
X51821503Y-50368469D01*
X51787392Y-50539960D01*
X51787316Y-50545735D01*
X51787316Y-50545739D01*
X51787000Y-50569898D01*
X51784641Y-50750102D01*
X39213001Y-50750102D01*
X39215283Y-50575680D01*
X39215359Y-50569898D01*
X39179768Y-50362772D01*
X39107028Y-50165601D01*
X39045536Y-50062243D01*
X39002528Y-49989953D01*
X39002527Y-49989952D01*
X38999574Y-49984988D01*
X38861006Y-49826981D01*
X38695963Y-49696872D01*
X38690847Y-49694181D01*
X38690845Y-49694179D01*
X38515090Y-49601710D01*
X38515088Y-49601709D01*
X38509973Y-49599018D01*
X38309266Y-49536696D01*
X38303531Y-49536017D01*
X38303530Y-49536017D01*
X38255242Y-49530302D01*
X38138626Y-49516500D01*
X37636184Y-49516500D01*
X37480221Y-49530831D01*
X37474659Y-49532400D01*
X37474657Y-49532400D01*
X37379086Y-49559354D01*
X37277951Y-49587877D01*
X37089463Y-49680829D01*
X36921071Y-49806573D01*
X36778414Y-49960899D01*
X36775332Y-49965784D01*
X36732562Y-50033570D01*
X36679295Y-50080509D01*
X36609108Y-50091198D01*
X36544284Y-50062243D01*
X36505404Y-50002839D01*
X36500000Y-49966335D01*
X36500000Y-48815496D01*
X36520002Y-48747375D01*
X36573658Y-48700882D01*
X36643932Y-48690778D01*
X36708512Y-48720272D01*
X36734285Y-48751073D01*
X36760426Y-48795012D01*
X36898994Y-48953019D01*
X37064037Y-49083128D01*
X37069153Y-49085819D01*
X37069155Y-49085821D01*
X37244910Y-49178290D01*
X37250027Y-49180982D01*
X37450734Y-49243304D01*
X37456469Y-49243983D01*
X37456470Y-49243983D01*
X37487032Y-49247600D01*
X37621374Y-49263500D01*
X38123816Y-49263500D01*
X38279779Y-49249169D01*
X38285341Y-49247600D01*
X38285343Y-49247600D01*
X38380914Y-49220646D01*
X38482049Y-49192123D01*
X38670537Y-49099171D01*
X38838929Y-48973427D01*
X38981586Y-48819101D01*
X39093731Y-48641362D01*
X39171608Y-48446163D01*
X39172733Y-48440506D01*
X39172735Y-48440500D01*
X39211481Y-48245707D01*
X39211481Y-48245705D01*
X39212608Y-48240040D01*
X39212926Y-48215800D01*
X39213001Y-48210102D01*
X51784641Y-48210102D01*
X51820232Y-48417228D01*
X51892972Y-48614399D01*
X52000426Y-48795012D01*
X52138994Y-48953019D01*
X52304037Y-49083128D01*
X52309153Y-49085819D01*
X52309155Y-49085821D01*
X52484910Y-49178290D01*
X52490027Y-49180982D01*
X52690734Y-49243304D01*
X52696469Y-49243983D01*
X52696470Y-49243983D01*
X52727032Y-49247600D01*
X52861374Y-49263500D01*
X53363816Y-49263500D01*
X53519779Y-49249169D01*
X53525341Y-49247600D01*
X53525343Y-49247600D01*
X53620914Y-49220646D01*
X53722049Y-49192123D01*
X53910537Y-49099171D01*
X54078929Y-48973427D01*
X54221586Y-48819101D01*
X54333731Y-48641362D01*
X54411608Y-48446163D01*
X54412733Y-48440506D01*
X54412735Y-48440500D01*
X54451481Y-48245707D01*
X54451481Y-48245705D01*
X54452608Y-48240040D01*
X54452926Y-48215800D01*
X54455283Y-48035680D01*
X54455359Y-48029898D01*
X54419768Y-47822772D01*
X54347028Y-47625601D01*
X54268705Y-47493953D01*
X54242528Y-47449953D01*
X54242527Y-47449952D01*
X54239574Y-47444988D01*
X54101006Y-47286981D01*
X53986010Y-47196326D01*
X53940502Y-47160450D01*
X53940500Y-47160449D01*
X53935963Y-47156872D01*
X53930847Y-47154181D01*
X53930845Y-47154179D01*
X53755090Y-47061710D01*
X53755088Y-47061709D01*
X53749973Y-47059018D01*
X53549266Y-46996696D01*
X53543531Y-46996017D01*
X53543530Y-46996017D01*
X53495242Y-46990302D01*
X53378626Y-46976500D01*
X52876184Y-46976500D01*
X52720221Y-46990831D01*
X52714659Y-46992400D01*
X52714657Y-46992400D01*
X52636251Y-47014513D01*
X52517951Y-47047877D01*
X52329463Y-47140829D01*
X52324837Y-47144283D01*
X52324836Y-47144284D01*
X52303187Y-47160450D01*
X52161071Y-47266573D01*
X52157157Y-47270807D01*
X52157155Y-47270809D01*
X52057318Y-47378813D01*
X52018414Y-47420899D01*
X51906269Y-47598638D01*
X51828392Y-47793837D01*
X51827267Y-47799494D01*
X51827265Y-47799500D01*
X51821503Y-47828469D01*
X51787392Y-47999960D01*
X51787316Y-48005735D01*
X51787316Y-48005739D01*
X51787000Y-48029898D01*
X51784641Y-48210102D01*
X39213001Y-48210102D01*
X39215283Y-48035680D01*
X39215359Y-48029898D01*
X39179768Y-47822772D01*
X39107028Y-47625601D01*
X39028705Y-47493953D01*
X39002528Y-47449953D01*
X39002527Y-47449952D01*
X38999574Y-47444988D01*
X38861006Y-47286981D01*
X38746010Y-47196326D01*
X38700502Y-47160450D01*
X38700500Y-47160449D01*
X38695963Y-47156872D01*
X38690847Y-47154181D01*
X38690845Y-47154179D01*
X38515090Y-47061710D01*
X38515088Y-47061709D01*
X38509973Y-47059018D01*
X38309266Y-46996696D01*
X38303531Y-46996017D01*
X38303530Y-46996017D01*
X38255242Y-46990302D01*
X38138626Y-46976500D01*
X37636184Y-46976500D01*
X37480221Y-46990831D01*
X37474659Y-46992400D01*
X37474657Y-46992400D01*
X37396251Y-47014513D01*
X37277951Y-47047877D01*
X37089463Y-47140829D01*
X37084837Y-47144283D01*
X37084836Y-47144284D01*
X37063187Y-47160450D01*
X36921071Y-47266573D01*
X36917157Y-47270807D01*
X36917155Y-47270809D01*
X36817318Y-47378813D01*
X36778414Y-47420899D01*
X36775332Y-47425784D01*
X36732562Y-47493570D01*
X36679295Y-47540509D01*
X36609108Y-47551198D01*
X36544284Y-47522243D01*
X36505404Y-47462839D01*
X36500000Y-47426335D01*
X36500000Y-46775851D01*
X41236719Y-46775851D01*
X41253268Y-46972934D01*
X41254967Y-46978858D01*
X41300679Y-47138274D01*
X41307783Y-47163050D01*
X41398187Y-47338956D01*
X41521035Y-47493953D01*
X41525728Y-47497947D01*
X41525729Y-47497948D01*
X41650343Y-47604002D01*
X41671650Y-47622136D01*
X41844294Y-47718624D01*
X42032392Y-47779740D01*
X42228777Y-47803158D01*
X42234912Y-47802686D01*
X42234914Y-47802686D01*
X42419830Y-47788457D01*
X42419834Y-47788456D01*
X42425972Y-47787984D01*
X42616463Y-47734798D01*
X42621967Y-47732018D01*
X42621969Y-47732017D01*
X42787495Y-47648404D01*
X42787497Y-47648403D01*
X42792996Y-47645625D01*
X42948847Y-47523861D01*
X43078078Y-47374145D01*
X43175769Y-47202179D01*
X43238197Y-47014513D01*
X43262985Y-46818295D01*
X43263380Y-46790000D01*
X43244080Y-46593167D01*
X43234588Y-46561726D01*
X43196894Y-46436880D01*
X43186916Y-46403831D01*
X43094066Y-46229204D01*
X43090167Y-46224424D01*
X43089715Y-46223743D01*
X43068676Y-46155935D01*
X43085105Y-46091775D01*
X43172723Y-45937542D01*
X43172725Y-45937537D01*
X43175769Y-45932179D01*
X43238197Y-45744513D01*
X43247597Y-45670102D01*
X51784641Y-45670102D01*
X51785620Y-45675799D01*
X51785620Y-45675800D01*
X51796376Y-45738393D01*
X51820232Y-45877228D01*
X51892972Y-46074399D01*
X51895924Y-46079360D01*
X51895924Y-46079361D01*
X51940883Y-46154929D01*
X52000426Y-46255012D01*
X52138994Y-46413019D01*
X52304037Y-46543128D01*
X52309153Y-46545819D01*
X52309155Y-46545821D01*
X52410804Y-46599301D01*
X52490027Y-46640982D01*
X52690734Y-46703304D01*
X52696469Y-46703983D01*
X52696470Y-46703983D01*
X52727032Y-46707600D01*
X52861374Y-46723500D01*
X53363816Y-46723500D01*
X53519779Y-46709169D01*
X53525341Y-46707600D01*
X53525343Y-46707600D01*
X53620914Y-46680646D01*
X53722049Y-46652123D01*
X53910537Y-46559171D01*
X54078929Y-46433427D01*
X54097794Y-46413019D01*
X54217667Y-46283341D01*
X54217669Y-46283338D01*
X54221586Y-46279101D01*
X54333731Y-46101362D01*
X54411608Y-45906163D01*
X54412733Y-45900506D01*
X54412735Y-45900500D01*
X54451481Y-45705707D01*
X54451481Y-45705705D01*
X54452608Y-45700040D01*
X54452926Y-45675800D01*
X54454549Y-45551799D01*
X54455359Y-45489898D01*
X54419768Y-45282772D01*
X54347028Y-45085601D01*
X54268988Y-44954428D01*
X54242528Y-44909953D01*
X54242527Y-44909952D01*
X54239574Y-44904988D01*
X54101006Y-44746981D01*
X54010844Y-44675903D01*
X53940502Y-44620450D01*
X53940500Y-44620449D01*
X53935963Y-44616872D01*
X53930847Y-44614181D01*
X53930845Y-44614179D01*
X53755090Y-44521710D01*
X53755088Y-44521709D01*
X53749973Y-44519018D01*
X53549266Y-44456696D01*
X53543531Y-44456017D01*
X53543530Y-44456017D01*
X53495242Y-44450302D01*
X53378626Y-44436500D01*
X52876184Y-44436500D01*
X52720221Y-44450831D01*
X52714659Y-44452400D01*
X52714657Y-44452400D01*
X52619086Y-44479354D01*
X52517951Y-44507877D01*
X52329463Y-44600829D01*
X52324837Y-44604283D01*
X52324836Y-44604284D01*
X52227539Y-44676939D01*
X52161071Y-44726573D01*
X52018414Y-44880899D01*
X51906269Y-45058638D01*
X51828392Y-45253837D01*
X51827267Y-45259494D01*
X51827265Y-45259500D01*
X51813381Y-45329301D01*
X51787392Y-45459960D01*
X51787316Y-45465735D01*
X51787316Y-45465739D01*
X51787000Y-45489898D01*
X51784641Y-45670102D01*
X43247597Y-45670102D01*
X43262985Y-45548295D01*
X43263380Y-45520000D01*
X43244080Y-45323167D01*
X43186916Y-45133831D01*
X43094066Y-44959204D01*
X43023709Y-44872938D01*
X42972960Y-44810713D01*
X42972957Y-44810710D01*
X42969065Y-44805938D01*
X42962724Y-44800692D01*
X42821425Y-44683799D01*
X42821421Y-44683797D01*
X42816675Y-44679870D01*
X42642701Y-44585802D01*
X42453768Y-44527318D01*
X42447643Y-44526674D01*
X42447642Y-44526674D01*
X42263204Y-44507289D01*
X42263202Y-44507289D01*
X42257075Y-44506645D01*
X42174576Y-44514153D01*
X42066251Y-44524011D01*
X42066248Y-44524012D01*
X42060112Y-44524570D01*
X42054206Y-44526308D01*
X42054202Y-44526309D01*
X41949076Y-44557249D01*
X41870381Y-44580410D01*
X41864923Y-44583263D01*
X41864919Y-44583265D01*
X41805787Y-44614179D01*
X41695110Y-44672040D01*
X41540975Y-44795968D01*
X41413846Y-44947474D01*
X41410879Y-44952872D01*
X41410875Y-44952877D01*
X41334933Y-45091017D01*
X41318567Y-45120787D01*
X41316706Y-45126654D01*
X41316705Y-45126656D01*
X41278062Y-45248474D01*
X41258765Y-45309306D01*
X41236719Y-45505851D01*
X41237235Y-45511995D01*
X41252540Y-45694261D01*
X41253268Y-45702934D01*
X41254967Y-45708858D01*
X41301613Y-45871531D01*
X41307783Y-45893050D01*
X41398187Y-46068956D01*
X41402016Y-46073787D01*
X41403839Y-46076088D01*
X41404414Y-46077509D01*
X41405353Y-46078966D01*
X41405076Y-46079144D01*
X41430474Y-46141898D01*
X41417301Y-46211662D01*
X41413846Y-46217474D01*
X41318567Y-46390787D01*
X41316706Y-46396654D01*
X41316705Y-46396656D01*
X41310382Y-46416590D01*
X41258765Y-46579306D01*
X41236719Y-46775851D01*
X36500000Y-46775851D01*
X36500000Y-46275496D01*
X36520002Y-46207375D01*
X36573658Y-46160882D01*
X36643932Y-46150778D01*
X36708512Y-46180272D01*
X36734285Y-46211073D01*
X36760426Y-46255012D01*
X36898994Y-46413019D01*
X37064037Y-46543128D01*
X37069153Y-46545819D01*
X37069155Y-46545821D01*
X37170804Y-46599301D01*
X37250027Y-46640982D01*
X37450734Y-46703304D01*
X37456469Y-46703983D01*
X37456470Y-46703983D01*
X37487032Y-46707600D01*
X37621374Y-46723500D01*
X38123816Y-46723500D01*
X38279779Y-46709169D01*
X38285341Y-46707600D01*
X38285343Y-46707600D01*
X38380914Y-46680646D01*
X38482049Y-46652123D01*
X38670537Y-46559171D01*
X38838929Y-46433427D01*
X38857794Y-46413019D01*
X38977667Y-46283341D01*
X38977669Y-46283338D01*
X38981586Y-46279101D01*
X39093731Y-46101362D01*
X39171608Y-45906163D01*
X39172733Y-45900506D01*
X39172735Y-45900500D01*
X39211481Y-45705707D01*
X39211481Y-45705705D01*
X39212608Y-45700040D01*
X39212926Y-45675800D01*
X39214549Y-45551799D01*
X39215359Y-45489898D01*
X39179768Y-45282772D01*
X39107028Y-45085601D01*
X39028988Y-44954428D01*
X39002528Y-44909953D01*
X39002527Y-44909952D01*
X38999574Y-44904988D01*
X38861006Y-44746981D01*
X38770844Y-44675903D01*
X38700502Y-44620450D01*
X38700500Y-44620449D01*
X38695963Y-44616872D01*
X38690847Y-44614181D01*
X38690845Y-44614179D01*
X38515090Y-44521710D01*
X38515088Y-44521709D01*
X38509973Y-44519018D01*
X38309266Y-44456696D01*
X38303531Y-44456017D01*
X38303530Y-44456017D01*
X38255242Y-44450302D01*
X38138626Y-44436500D01*
X37636184Y-44436500D01*
X37480221Y-44450831D01*
X37474659Y-44452400D01*
X37474657Y-44452400D01*
X37379086Y-44479354D01*
X37277951Y-44507877D01*
X37089463Y-44600829D01*
X37084837Y-44604283D01*
X37084836Y-44604284D01*
X36987539Y-44676939D01*
X36921071Y-44726573D01*
X36778414Y-44880899D01*
X36775332Y-44885784D01*
X36732562Y-44953570D01*
X36679295Y-45000509D01*
X36609108Y-45011198D01*
X36544284Y-44982243D01*
X36505404Y-44922839D01*
X36500000Y-44886335D01*
X36500000Y-43735496D01*
X36520002Y-43667375D01*
X36573658Y-43620882D01*
X36643932Y-43610778D01*
X36708512Y-43640272D01*
X36734285Y-43671073D01*
X36760426Y-43715012D01*
X36898994Y-43873019D01*
X37064037Y-44003128D01*
X37069153Y-44005819D01*
X37069155Y-44005821D01*
X37244910Y-44098290D01*
X37250027Y-44100982D01*
X37450734Y-44163304D01*
X37456469Y-44163983D01*
X37456470Y-44163983D01*
X37487032Y-44167600D01*
X37621374Y-44183500D01*
X38123816Y-44183500D01*
X38279779Y-44169169D01*
X38285341Y-44167600D01*
X38285343Y-44167600D01*
X38380914Y-44140646D01*
X38482049Y-44112123D01*
X38670537Y-44019171D01*
X38838929Y-43893427D01*
X38981586Y-43739101D01*
X39093731Y-43561362D01*
X39171608Y-43366163D01*
X39172733Y-43360506D01*
X39172735Y-43360500D01*
X39211481Y-43165707D01*
X39211481Y-43165705D01*
X39212608Y-43160040D01*
X39212870Y-43140082D01*
X39215283Y-42955680D01*
X39215359Y-42949898D01*
X39197885Y-42848203D01*
X39180747Y-42748469D01*
X39180747Y-42748468D01*
X39179768Y-42742772D01*
X39107028Y-42545601D01*
X39079898Y-42500000D01*
X46143910Y-42500000D01*
X46162618Y-42677991D01*
X46164658Y-42684269D01*
X46164658Y-42684270D01*
X46185518Y-42748469D01*
X46217923Y-42848203D01*
X46307409Y-43003197D01*
X46427164Y-43136199D01*
X46571955Y-43241396D01*
X46577983Y-43244080D01*
X46577985Y-43244081D01*
X46729423Y-43311505D01*
X46735454Y-43314190D01*
X46817037Y-43331531D01*
X46904057Y-43350028D01*
X46904061Y-43350028D01*
X46910514Y-43351400D01*
X47089486Y-43351400D01*
X47095939Y-43350028D01*
X47095943Y-43350028D01*
X47182963Y-43331531D01*
X47264546Y-43314190D01*
X47270577Y-43311505D01*
X47422015Y-43244081D01*
X47422017Y-43244080D01*
X47428045Y-43241396D01*
X47572836Y-43136199D01*
X47578326Y-43130102D01*
X51784641Y-43130102D01*
X51820232Y-43337228D01*
X51892972Y-43534399D01*
X52000426Y-43715012D01*
X52138994Y-43873019D01*
X52304037Y-44003128D01*
X52309153Y-44005819D01*
X52309155Y-44005821D01*
X52484910Y-44098290D01*
X52490027Y-44100982D01*
X52690734Y-44163304D01*
X52696469Y-44163983D01*
X52696470Y-44163983D01*
X52727032Y-44167600D01*
X52861374Y-44183500D01*
X53363816Y-44183500D01*
X53519779Y-44169169D01*
X53525341Y-44167600D01*
X53525343Y-44167600D01*
X53620914Y-44140646D01*
X53722049Y-44112123D01*
X53910537Y-44019171D01*
X54078929Y-43893427D01*
X54221586Y-43739101D01*
X54333731Y-43561362D01*
X54411608Y-43366163D01*
X54412733Y-43360506D01*
X54412735Y-43360500D01*
X54451481Y-43165707D01*
X54451481Y-43165705D01*
X54452608Y-43160040D01*
X54452870Y-43140082D01*
X54455283Y-42955680D01*
X54455359Y-42949898D01*
X54437885Y-42848203D01*
X54420747Y-42748469D01*
X54420747Y-42748468D01*
X54419768Y-42742772D01*
X54347028Y-42545601D01*
X54285536Y-42442243D01*
X54242528Y-42369953D01*
X54242527Y-42369952D01*
X54239574Y-42364988D01*
X54101006Y-42206981D01*
X53935963Y-42076872D01*
X53930847Y-42074181D01*
X53930845Y-42074179D01*
X53755090Y-41981710D01*
X53755088Y-41981709D01*
X53749973Y-41979018D01*
X53549266Y-41916696D01*
X53543531Y-41916017D01*
X53543530Y-41916017D01*
X53495242Y-41910302D01*
X53378626Y-41896500D01*
X52876184Y-41896500D01*
X52720221Y-41910831D01*
X52714659Y-41912400D01*
X52714657Y-41912400D01*
X52619086Y-41939354D01*
X52517951Y-41967877D01*
X52329463Y-42060829D01*
X52161071Y-42186573D01*
X52157157Y-42190807D01*
X52157155Y-42190809D01*
X52035876Y-42322009D01*
X52018414Y-42340899D01*
X51906269Y-42518638D01*
X51828392Y-42713837D01*
X51827267Y-42719494D01*
X51827265Y-42719500D01*
X51821503Y-42748469D01*
X51787392Y-42919960D01*
X51787316Y-42925735D01*
X51787316Y-42925739D01*
X51787000Y-42949898D01*
X51784641Y-43130102D01*
X47578326Y-43130102D01*
X47692591Y-43003197D01*
X47782077Y-42848203D01*
X47814482Y-42748469D01*
X47835342Y-42684270D01*
X47835342Y-42684269D01*
X47837382Y-42677991D01*
X47856090Y-42500000D01*
X47839881Y-42345784D01*
X47838072Y-42328573D01*
X47838072Y-42328572D01*
X47837382Y-42322009D01*
X47782077Y-42151797D01*
X47692591Y-41996803D01*
X47676578Y-41979018D01*
X47577258Y-41868712D01*
X47577257Y-41868711D01*
X47572836Y-41863801D01*
X47428045Y-41758604D01*
X47422017Y-41755920D01*
X47422015Y-41755919D01*
X47270577Y-41688495D01*
X47270576Y-41688495D01*
X47264546Y-41685810D01*
X47177016Y-41667205D01*
X47095943Y-41649972D01*
X47095939Y-41649972D01*
X47089486Y-41648600D01*
X46910514Y-41648600D01*
X46904061Y-41649972D01*
X46904057Y-41649972D01*
X46822984Y-41667205D01*
X46735454Y-41685810D01*
X46729424Y-41688495D01*
X46729423Y-41688495D01*
X46577985Y-41755919D01*
X46577983Y-41755920D01*
X46571955Y-41758604D01*
X46427164Y-41863801D01*
X46422743Y-41868711D01*
X46422742Y-41868712D01*
X46323423Y-41979018D01*
X46307409Y-41996803D01*
X46217923Y-42151797D01*
X46162618Y-42322009D01*
X46161928Y-42328572D01*
X46161928Y-42328573D01*
X46160119Y-42345784D01*
X46143910Y-42500000D01*
X39079898Y-42500000D01*
X39045536Y-42442243D01*
X39002528Y-42369953D01*
X39002527Y-42369952D01*
X38999574Y-42364988D01*
X38861006Y-42206981D01*
X38695963Y-42076872D01*
X38690847Y-42074181D01*
X38690845Y-42074179D01*
X38515090Y-41981710D01*
X38515088Y-41981709D01*
X38509973Y-41979018D01*
X38309266Y-41916696D01*
X38303531Y-41916017D01*
X38303530Y-41916017D01*
X38255242Y-41910302D01*
X38138626Y-41896500D01*
X37636184Y-41896500D01*
X37480221Y-41910831D01*
X37474659Y-41912400D01*
X37474657Y-41912400D01*
X37379086Y-41939354D01*
X37277951Y-41967877D01*
X37089463Y-42060829D01*
X36921071Y-42186573D01*
X36917157Y-42190807D01*
X36917155Y-42190809D01*
X36795876Y-42322009D01*
X36778414Y-42340899D01*
X36775332Y-42345784D01*
X36732562Y-42413570D01*
X36679295Y-42460509D01*
X36609108Y-42471198D01*
X36544284Y-42442243D01*
X36505404Y-42382839D01*
X36500000Y-42346335D01*
X36500000Y-40590102D01*
X51784641Y-40590102D01*
X51820232Y-40797228D01*
X51892972Y-40994399D01*
X52000426Y-41175012D01*
X52138994Y-41333019D01*
X52304037Y-41463128D01*
X52309153Y-41465819D01*
X52309155Y-41465821D01*
X52484910Y-41558290D01*
X52490027Y-41560982D01*
X52690734Y-41623304D01*
X52696469Y-41623983D01*
X52696470Y-41623983D01*
X52727032Y-41627600D01*
X52861374Y-41643500D01*
X53363816Y-41643500D01*
X53519779Y-41629169D01*
X53525341Y-41627600D01*
X53525343Y-41627600D01*
X53620914Y-41600646D01*
X53722049Y-41572123D01*
X53910537Y-41479171D01*
X54078929Y-41353427D01*
X54221586Y-41199101D01*
X54333731Y-41021362D01*
X54411608Y-40826163D01*
X54412733Y-40820506D01*
X54412735Y-40820500D01*
X54451481Y-40625707D01*
X54451481Y-40625705D01*
X54452608Y-40620040D01*
X54452926Y-40595800D01*
X54455283Y-40415680D01*
X54455359Y-40409898D01*
X54419768Y-40202772D01*
X54347028Y-40005601D01*
X54239574Y-39824988D01*
X54101006Y-39666981D01*
X53935963Y-39536872D01*
X53930847Y-39534181D01*
X53930845Y-39534179D01*
X53755090Y-39441710D01*
X53755088Y-39441709D01*
X53749973Y-39439018D01*
X53549266Y-39376696D01*
X53543531Y-39376017D01*
X53543530Y-39376017D01*
X53495242Y-39370302D01*
X53378626Y-39356500D01*
X52876184Y-39356500D01*
X52720221Y-39370831D01*
X52714659Y-39372400D01*
X52714657Y-39372400D01*
X52619086Y-39399354D01*
X52517951Y-39427877D01*
X52329463Y-39520829D01*
X52161071Y-39646573D01*
X52018414Y-39800899D01*
X51906269Y-39978638D01*
X51828392Y-40173837D01*
X51827267Y-40179494D01*
X51827265Y-40179500D01*
X51821503Y-40208469D01*
X51787392Y-40379960D01*
X51787316Y-40385735D01*
X51787316Y-40385739D01*
X51787000Y-40409898D01*
X51784641Y-40590102D01*
X36500000Y-40590102D01*
X36500000Y-38126000D01*
X36520002Y-38057879D01*
X36573658Y-38011386D01*
X36626000Y-38000000D01*
X51500000Y-38000000D01*
X51500000Y-35444108D01*
X51520002Y-35375987D01*
X51573658Y-35329494D01*
X51643932Y-35319390D01*
X51713131Y-35353089D01*
X51734850Y-35373881D01*
X51912548Y-35488620D01*
X51918114Y-35490863D01*
X52103168Y-35565442D01*
X52103171Y-35565443D01*
X52108737Y-35567686D01*
X52316337Y-35608228D01*
X52321899Y-35608500D01*
X53027846Y-35608500D01*
X53185566Y-35593452D01*
X53388534Y-35533908D01*
X53472111Y-35490863D01*
X53571249Y-35439804D01*
X53571252Y-35439802D01*
X53576580Y-35437058D01*
X53742920Y-35306396D01*
X53746852Y-35301865D01*
X53746855Y-35301862D01*
X53877621Y-35151167D01*
X53881552Y-35146637D01*
X53884552Y-35141451D01*
X53884555Y-35141447D01*
X53984467Y-34968742D01*
X53987473Y-34963546D01*
X54056861Y-34763729D01*
X54087213Y-34554396D01*
X54077433Y-34343101D01*
X54027875Y-34137466D01*
X53940326Y-33944913D01*
X53817946Y-33772389D01*
X53665150Y-33626119D01*
X53487452Y-33511380D01*
X53427354Y-33487160D01*
X53296832Y-33434558D01*
X53296829Y-33434557D01*
X53291263Y-33432314D01*
X53083663Y-33391772D01*
X53078101Y-33391500D01*
X52372154Y-33391500D01*
X52214434Y-33406548D01*
X52011466Y-33466092D01*
X52006139Y-33468836D01*
X52006138Y-33468836D01*
X51828751Y-33560196D01*
X51828748Y-33560198D01*
X51823420Y-33562942D01*
X51818705Y-33566646D01*
X51703833Y-33656879D01*
X51637908Y-33683229D01*
X51568201Y-33669754D01*
X51516846Y-33620732D01*
X51500000Y-33557793D01*
X51500000Y-32126000D01*
X51520002Y-32057879D01*
X51573658Y-32011386D01*
X51626000Y-32000000D01*
X55365500Y-32000000D01*
X55433621Y-32020002D01*
G37*
G04 #@! TD.AperFunction*
G04 #@! TA.AperFunction,Conductor*
G36*
X47942121Y-20528502D02*
G01*
X47988614Y-20582158D01*
X48000000Y-20634500D01*
X48000000Y-25500000D01*
X50463095Y-27963095D01*
X50497121Y-28025407D01*
X50500000Y-28052190D01*
X50500000Y-36874000D01*
X50479998Y-36942121D01*
X50426342Y-36988614D01*
X50374000Y-37000000D01*
X39133984Y-37000000D01*
X39065863Y-36979998D01*
X39019370Y-36926342D01*
X39009266Y-36856068D01*
X39038760Y-36791488D01*
X39056410Y-36774711D01*
X39160387Y-36693475D01*
X39164413Y-36688811D01*
X39164416Y-36688808D01*
X39278480Y-36556663D01*
X39282507Y-36551998D01*
X39374821Y-36389495D01*
X39433814Y-36212157D01*
X39455258Y-36042412D01*
X39456796Y-36030241D01*
X39456797Y-36030232D01*
X39457238Y-36026738D01*
X39457611Y-36000000D01*
X39439373Y-35813999D01*
X39435419Y-35800901D01*
X39387136Y-35640983D01*
X39385355Y-35635083D01*
X39297615Y-35470066D01*
X39276270Y-35443894D01*
X39183388Y-35330010D01*
X39183385Y-35330007D01*
X39179493Y-35325235D01*
X39174744Y-35321306D01*
X39040239Y-35210034D01*
X39040236Y-35210032D01*
X39035489Y-35206105D01*
X38871089Y-35117214D01*
X38781821Y-35089581D01*
X38698441Y-35063770D01*
X38698438Y-35063769D01*
X38692554Y-35061948D01*
X38686429Y-35061304D01*
X38686428Y-35061304D01*
X38512813Y-35043056D01*
X38512812Y-35043056D01*
X38506685Y-35042412D01*
X38388087Y-35053206D01*
X38326703Y-35058792D01*
X38326702Y-35058792D01*
X38320562Y-35059351D01*
X38314648Y-35061092D01*
X38314646Y-35061092D01*
X38192466Y-35097052D01*
X38141273Y-35112119D01*
X37975647Y-35198705D01*
X37829995Y-35315813D01*
X37826036Y-35320531D01*
X37826029Y-35320538D01*
X37722521Y-35443894D01*
X37663412Y-35483221D01*
X37592424Y-35484347D01*
X37532097Y-35446916D01*
X37501583Y-35382811D01*
X37500000Y-35362903D01*
X37500000Y-31750000D01*
X40143910Y-31750000D01*
X40162618Y-31927991D01*
X40217923Y-32098203D01*
X40307409Y-32253197D01*
X40427164Y-32386199D01*
X40571955Y-32491396D01*
X40577983Y-32494080D01*
X40577985Y-32494081D01*
X40729423Y-32561505D01*
X40735454Y-32564190D01*
X40822984Y-32582795D01*
X40904057Y-32600028D01*
X40904061Y-32600028D01*
X40910514Y-32601400D01*
X41089486Y-32601400D01*
X41095939Y-32600028D01*
X41095943Y-32600028D01*
X41177016Y-32582795D01*
X41264546Y-32564190D01*
X41270577Y-32561505D01*
X41422015Y-32494081D01*
X41422017Y-32494080D01*
X41428045Y-32491396D01*
X41572836Y-32386199D01*
X41692591Y-32253197D01*
X41782077Y-32098203D01*
X41837382Y-31927991D01*
X41856090Y-31750000D01*
X41837382Y-31572009D01*
X41782077Y-31401797D01*
X41692591Y-31246803D01*
X41572836Y-31113801D01*
X41428045Y-31008604D01*
X41422017Y-31005920D01*
X41422015Y-31005919D01*
X41270577Y-30938495D01*
X41270576Y-30938495D01*
X41264546Y-30935810D01*
X41177016Y-30917205D01*
X41095943Y-30899972D01*
X41095939Y-30899972D01*
X41089486Y-30898600D01*
X40910514Y-30898600D01*
X40904061Y-30899972D01*
X40904057Y-30899972D01*
X40822984Y-30917205D01*
X40735454Y-30935810D01*
X40729424Y-30938495D01*
X40729423Y-30938495D01*
X40577985Y-31005919D01*
X40577983Y-31005920D01*
X40571955Y-31008604D01*
X40427164Y-31113801D01*
X40307409Y-31246803D01*
X40217923Y-31401797D01*
X40162618Y-31572009D01*
X40143910Y-31750000D01*
X37500000Y-31750000D01*
X37500000Y-27077846D01*
X38891500Y-27077846D01*
X38906548Y-27235566D01*
X38966092Y-27438534D01*
X39062942Y-27626580D01*
X39193604Y-27792920D01*
X39198135Y-27796852D01*
X39198138Y-27796855D01*
X39284058Y-27871412D01*
X39353363Y-27931552D01*
X39358549Y-27934552D01*
X39358553Y-27934555D01*
X39454957Y-27990326D01*
X39536454Y-28037473D01*
X39736271Y-28106861D01*
X39742206Y-28107722D01*
X39742208Y-28107722D01*
X39939664Y-28136352D01*
X39939667Y-28136352D01*
X39945604Y-28137213D01*
X40156899Y-28127433D01*
X40288077Y-28095819D01*
X40356701Y-28079281D01*
X40356703Y-28079280D01*
X40362534Y-28077875D01*
X40367992Y-28075393D01*
X40367996Y-28075392D01*
X40483041Y-28023084D01*
X40555087Y-27990326D01*
X40727611Y-27867946D01*
X40873881Y-27715150D01*
X40877688Y-27709255D01*
X40894746Y-27682837D01*
X40948501Y-27636460D01*
X41018797Y-27626507D01*
X41083314Y-27656139D01*
X41099681Y-27673351D01*
X41193604Y-27792920D01*
X41198135Y-27796852D01*
X41198138Y-27796855D01*
X41284058Y-27871412D01*
X41353363Y-27931552D01*
X41358549Y-27934552D01*
X41358553Y-27934555D01*
X41454957Y-27990326D01*
X41536454Y-28037473D01*
X41736271Y-28106861D01*
X41742206Y-28107722D01*
X41742208Y-28107722D01*
X41939664Y-28136352D01*
X41939667Y-28136352D01*
X41945604Y-28137213D01*
X42156899Y-28127433D01*
X42288077Y-28095819D01*
X42356701Y-28079281D01*
X42356703Y-28079280D01*
X42362534Y-28077875D01*
X42367992Y-28075393D01*
X42367996Y-28075392D01*
X42483041Y-28023084D01*
X42555087Y-27990326D01*
X42727611Y-27867946D01*
X42873881Y-27715150D01*
X42988620Y-27537452D01*
X43067686Y-27341263D01*
X43108228Y-27133663D01*
X43108500Y-27128101D01*
X43108500Y-26422154D01*
X43093452Y-26264434D01*
X43033908Y-26061466D01*
X42971147Y-25939607D01*
X42939804Y-25878751D01*
X42939802Y-25878748D01*
X42937058Y-25873420D01*
X42806396Y-25707080D01*
X42801865Y-25703148D01*
X42801862Y-25703145D01*
X42651167Y-25572379D01*
X42646637Y-25568448D01*
X42641451Y-25565448D01*
X42641447Y-25565445D01*
X42468742Y-25465533D01*
X42463546Y-25462527D01*
X42263729Y-25393139D01*
X42257794Y-25392278D01*
X42257792Y-25392278D01*
X42060336Y-25363648D01*
X42060333Y-25363648D01*
X42054396Y-25362787D01*
X41843101Y-25372567D01*
X41711923Y-25404181D01*
X41643299Y-25420719D01*
X41643297Y-25420720D01*
X41637466Y-25422125D01*
X41632008Y-25424607D01*
X41632004Y-25424608D01*
X41516959Y-25476916D01*
X41444913Y-25509674D01*
X41272389Y-25632054D01*
X41126119Y-25784850D01*
X41122868Y-25789885D01*
X41122866Y-25789888D01*
X41105254Y-25817163D01*
X41051499Y-25863540D01*
X40981203Y-25873493D01*
X40916686Y-25843861D01*
X40900317Y-25826647D01*
X40871443Y-25789888D01*
X40806396Y-25707080D01*
X40801865Y-25703148D01*
X40801862Y-25703145D01*
X40651167Y-25572379D01*
X40646637Y-25568448D01*
X40641451Y-25565448D01*
X40641447Y-25565445D01*
X40468742Y-25465533D01*
X40463546Y-25462527D01*
X40263729Y-25393139D01*
X40257794Y-25392278D01*
X40257792Y-25392278D01*
X40060336Y-25363648D01*
X40060333Y-25363648D01*
X40054396Y-25362787D01*
X39843101Y-25372567D01*
X39711923Y-25404181D01*
X39643299Y-25420719D01*
X39643297Y-25420720D01*
X39637466Y-25422125D01*
X39632008Y-25424607D01*
X39632004Y-25424608D01*
X39516959Y-25476916D01*
X39444913Y-25509674D01*
X39272389Y-25632054D01*
X39126119Y-25784850D01*
X39011380Y-25962548D01*
X38932314Y-26158737D01*
X38891772Y-26366337D01*
X38891500Y-26371899D01*
X38891500Y-27077846D01*
X37500000Y-27077846D01*
X37500000Y-20634500D01*
X37520002Y-20566379D01*
X37573658Y-20519886D01*
X37626000Y-20508500D01*
X47874000Y-20508500D01*
X47942121Y-20528502D01*
G37*
G04 #@! TD.AperFunction*
M02*
