G04 #@! TF.GenerationSoftware,KiCad,Pcbnew,6.0.9-8da3e8f707~116~ubuntu20.04.1*
G04 #@! TF.CreationDate,2022-11-09T10:50:01-05:00*
G04 #@! TF.ProjectId,dynamixel_control,64796e61-6d69-4786-956c-5f636f6e7472,rev?*
G04 #@! TF.SameCoordinates,Original*
G04 #@! TF.FileFunction,Copper,L3,Inr*
G04 #@! TF.FilePolarity,Positive*
%FSLAX46Y46*%
G04 Gerber Fmt 4.6, Leading zero omitted, Abs format (unit mm)*
G04 Created by KiCad (PCBNEW 6.0.9-8da3e8f707~116~ubuntu20.04.1) date 2022-11-09 10:50:01*
%MOMM*%
%LPD*%
G01*
G04 APERTURE LIST*
G04 Aperture macros list*
%AMRoundRect*
0 Rectangle with rounded corners*
0 $1 Rounding radius*
0 $2 $3 $4 $5 $6 $7 $8 $9 X,Y pos of 4 corners*
0 Add a 4 corners polygon primitive as box body*
4,1,4,$2,$3,$4,$5,$6,$7,$8,$9,$2,$3,0*
0 Add four circle primitives for the rounded corners*
1,1,$1+$1,$2,$3*
1,1,$1+$1,$4,$5*
1,1,$1+$1,$6,$7*
1,1,$1+$1,$8,$9*
0 Add four rect primitives between the rounded corners*
20,1,$1+$1,$2,$3,$4,$5,0*
20,1,$1+$1,$4,$5,$6,$7,0*
20,1,$1+$1,$6,$7,$8,$9,0*
20,1,$1+$1,$8,$9,$2,$3,0*%
G04 Aperture macros list end*
G04 #@! TA.AperFunction,ComponentPad*
%ADD10RoundRect,0.250000X-0.350000X-0.625000X0.350000X-0.625000X0.350000X0.625000X-0.350000X0.625000X0*%
G04 #@! TD*
G04 #@! TA.AperFunction,ComponentPad*
%ADD11O,1.200000X1.750000*%
G04 #@! TD*
G04 #@! TA.AperFunction,ComponentPad*
%ADD12RoundRect,0.250000X0.625000X-0.350000X0.625000X0.350000X-0.625000X0.350000X-0.625000X-0.350000X0*%
G04 #@! TD*
G04 #@! TA.AperFunction,ComponentPad*
%ADD13O,1.750000X1.200000*%
G04 #@! TD*
G04 #@! TA.AperFunction,ComponentPad*
%ADD14RoundRect,0.250000X0.350000X0.625000X-0.350000X0.625000X-0.350000X-0.625000X0.350000X-0.625000X0*%
G04 #@! TD*
G04 #@! TA.AperFunction,ComponentPad*
%ADD15RoundRect,1.000000X1.000000X2.750000X-1.000000X2.750000X-1.000000X-2.750000X1.000000X-2.750000X0*%
G04 #@! TD*
G04 #@! TA.AperFunction,ComponentPad*
%ADD16RoundRect,1.000000X-2.750000X1.000000X-2.750000X-1.000000X2.750000X-1.000000X2.750000X1.000000X0*%
G04 #@! TD*
G04 #@! TA.AperFunction,ComponentPad*
%ADD17O,1.651000X1.270000*%
G04 #@! TD*
G04 #@! TA.AperFunction,ComponentPad*
%ADD18R,1.750000X1.750000*%
G04 #@! TD*
G04 #@! TA.AperFunction,ComponentPad*
%ADD19C,1.750000*%
G04 #@! TD*
G04 #@! TA.AperFunction,ViaPad*
%ADD20C,0.889000*%
G04 #@! TD*
G04 #@! TA.AperFunction,ViaPad*
%ADD21C,0.685800*%
G04 #@! TD*
G04 #@! TA.AperFunction,Conductor*
%ADD22C,1.270000*%
G04 #@! TD*
G04 APERTURE END LIST*
D10*
X31500000Y-48450000D03*
D11*
X33500000Y-48450000D03*
D12*
X52700000Y-36500000D03*
D13*
X52700000Y-34500000D03*
D14*
X44000000Y-26750000D03*
D11*
X42000000Y-26750000D03*
X40000000Y-26750000D03*
D10*
X29500000Y-54200000D03*
D11*
X31500000Y-54200000D03*
X33500000Y-54200000D03*
D15*
X31763400Y-25078500D03*
D16*
X32500000Y-32000000D03*
D10*
X22500000Y-54200000D03*
D11*
X24500000Y-54200000D03*
D17*
X37880000Y-43040000D03*
X37880000Y-45580000D03*
X37880000Y-48120000D03*
X37880000Y-50660000D03*
X53120000Y-45580000D03*
X37880000Y-53200000D03*
X37880000Y-55740000D03*
X37880000Y-58280000D03*
X37880000Y-60820000D03*
X37880000Y-63360000D03*
X37880000Y-65900000D03*
X37880000Y-68440000D03*
X37880000Y-70980000D03*
X37880000Y-73520000D03*
X53120000Y-73520000D03*
X53120000Y-70980000D03*
X53120000Y-68440000D03*
X53120000Y-65900000D03*
X53120000Y-63360000D03*
X53120000Y-60820000D03*
X53120000Y-58280000D03*
X53120000Y-55740000D03*
X53120000Y-53200000D03*
X53120000Y-50660000D03*
X53120000Y-48120000D03*
X37880000Y-40500000D03*
X53120000Y-43040000D03*
X53120000Y-40500000D03*
D18*
X28250000Y-73000000D03*
D19*
X25750000Y-73000000D03*
X23250000Y-73000000D03*
X22250000Y-41460000D03*
X22250000Y-44000000D03*
X22250000Y-46540000D03*
D18*
X28250000Y-61500000D03*
D19*
X25750000Y-61500000D03*
X23250000Y-61500000D03*
D18*
X28250000Y-67250000D03*
D19*
X25750000Y-67250000D03*
X23250000Y-67250000D03*
D20*
X22500000Y-27500000D03*
D21*
X41400000Y-33150000D03*
D20*
X46250000Y-35500000D03*
X28000000Y-38000000D03*
X28500000Y-27000000D03*
X35250000Y-64750000D03*
X27500000Y-27000000D03*
X24500000Y-28000000D03*
D21*
X42250000Y-69000000D03*
D20*
X49500000Y-65000000D03*
X49500000Y-72500000D03*
X28500000Y-25000000D03*
X28500000Y-26000000D03*
D21*
X41400000Y-34100000D03*
D20*
X33250000Y-60000000D03*
X32251197Y-70943945D03*
X25500000Y-28000000D03*
X45750000Y-73250000D03*
X28500000Y-22000000D03*
X26500000Y-28000000D03*
X50500000Y-51000000D03*
X29750000Y-43750000D03*
X49250000Y-27750000D03*
X51250000Y-57000000D03*
X21500000Y-26500000D03*
X32500000Y-63750000D03*
D21*
X35000000Y-46500000D03*
D20*
X27500000Y-28000000D03*
X46000000Y-71000000D03*
D21*
X37864278Y-33217935D03*
D20*
X28500000Y-24000000D03*
D21*
X41500000Y-65000000D03*
D20*
X28500000Y-28000000D03*
X28000000Y-39000000D03*
D21*
X47700000Y-66900000D03*
D20*
X28500000Y-23000000D03*
X30000000Y-65750000D03*
X46750000Y-72000000D03*
D21*
X41000000Y-31750000D03*
X46500000Y-65250000D03*
X47250000Y-59000000D03*
D20*
X47000000Y-56750000D03*
D21*
X47000000Y-42500000D03*
X47250000Y-61500000D03*
D20*
X38500000Y-36000000D03*
X51000000Y-68000000D03*
D21*
X41500000Y-73000000D03*
D20*
X36000000Y-59000000D03*
X25000000Y-50500000D03*
X28000000Y-50500000D03*
X26000000Y-49500000D03*
X23000000Y-49500000D03*
X27000000Y-49500000D03*
X26000000Y-50500000D03*
X23000000Y-50500000D03*
X22000000Y-50500000D03*
X25000000Y-49500000D03*
X21000000Y-50500000D03*
X24000000Y-50500000D03*
X21000000Y-49500000D03*
X27000000Y-50500000D03*
X22000000Y-49500000D03*
X24000000Y-49500000D03*
X28000000Y-49500000D03*
X37250000Y-37000000D03*
X36250000Y-37000000D03*
D21*
X33750000Y-62000000D03*
X34000000Y-69500000D03*
D22*
X32000000Y-56250000D02*
X30000000Y-58250000D01*
X35010001Y-55239999D02*
X34000000Y-56250000D01*
X34000000Y-56250000D02*
X32000000Y-56250000D01*
X35010001Y-52010001D02*
X35010001Y-55239999D01*
X33500000Y-50500000D02*
X35010001Y-52010001D01*
X33500000Y-48450000D02*
X33500000Y-50500000D01*
X30000000Y-58250000D02*
X30000000Y-65750000D01*
X44750000Y-39500000D02*
X44750000Y-36750000D01*
G04 #@! TA.AperFunction,Conductor*
G36*
X28442121Y-48520002D02*
G01*
X28488614Y-48573658D01*
X28500000Y-48626000D01*
X28500000Y-53148225D01*
X28481260Y-53214341D01*
X28457885Y-53252262D01*
X28402203Y-53420139D01*
X28391500Y-53524600D01*
X28391500Y-54875400D01*
X28402474Y-54981166D01*
X28404655Y-54987702D01*
X28404655Y-54987704D01*
X28435135Y-55079064D01*
X28458450Y-55148946D01*
X28471157Y-55169480D01*
X28481144Y-55185619D01*
X28500000Y-55251922D01*
X28500000Y-56447810D01*
X28479998Y-56515931D01*
X28463095Y-56536905D01*
X26500000Y-58500000D01*
X26500000Y-75365500D01*
X26479998Y-75433621D01*
X26426342Y-75480114D01*
X26374000Y-75491500D01*
X20634500Y-75491500D01*
X20566379Y-75471498D01*
X20519886Y-75417842D01*
X20508500Y-75365500D01*
X20508500Y-72966082D01*
X21862172Y-72966082D01*
X21862469Y-72971234D01*
X21862469Y-72971238D01*
X21867845Y-73064463D01*
X21875268Y-73193206D01*
X21876405Y-73198252D01*
X21876406Y-73198258D01*
X21896686Y-73288244D01*
X21925283Y-73415141D01*
X22010875Y-73625927D01*
X22129744Y-73819904D01*
X22278698Y-73991861D01*
X22453737Y-74137181D01*
X22458189Y-74139783D01*
X22458194Y-74139786D01*
X22552199Y-74194718D01*
X22650160Y-74251962D01*
X22862693Y-74333120D01*
X22867759Y-74334151D01*
X22867760Y-74334151D01*
X22966861Y-74354313D01*
X23085627Y-74378476D01*
X23213437Y-74383163D01*
X23307811Y-74386624D01*
X23307815Y-74386624D01*
X23312975Y-74386813D01*
X23318095Y-74386157D01*
X23318097Y-74386157D01*
X23533504Y-74358563D01*
X23533505Y-74358563D01*
X23538632Y-74357906D01*
X23621248Y-74333120D01*
X23751591Y-74294015D01*
X23751592Y-74294014D01*
X23756537Y-74292531D01*
X23960839Y-74192444D01*
X23965043Y-74189446D01*
X23965047Y-74189443D01*
X24141847Y-74063333D01*
X24141849Y-74063331D01*
X24146051Y-74060334D01*
X24307199Y-73899747D01*
X24361764Y-73823812D01*
X24436938Y-73719198D01*
X24436942Y-73719192D01*
X24439956Y-73714997D01*
X24540755Y-73511046D01*
X24606890Y-73293370D01*
X24620077Y-73193206D01*
X24636148Y-73071136D01*
X24636148Y-73071132D01*
X24636585Y-73067815D01*
X24638242Y-73000000D01*
X24619601Y-72773264D01*
X24564178Y-72552617D01*
X24473462Y-72343985D01*
X24349890Y-72152971D01*
X24196779Y-71984704D01*
X24018241Y-71843704D01*
X23980537Y-71822890D01*
X23869761Y-71761739D01*
X23819072Y-71733757D01*
X23814203Y-71732033D01*
X23814199Y-71732031D01*
X23609496Y-71659541D01*
X23609492Y-71659540D01*
X23604621Y-71657815D01*
X23599528Y-71656908D01*
X23599525Y-71656907D01*
X23385734Y-71618825D01*
X23385728Y-71618824D01*
X23380645Y-71617919D01*
X23307196Y-71617022D01*
X23158331Y-71615203D01*
X23158329Y-71615203D01*
X23153161Y-71615140D01*
X22928278Y-71649552D01*
X22712035Y-71720231D01*
X22707447Y-71722619D01*
X22707443Y-71722621D01*
X22514828Y-71822890D01*
X22510239Y-71825279D01*
X22506106Y-71828382D01*
X22506103Y-71828384D01*
X22485699Y-71843704D01*
X22328310Y-71961875D01*
X22171133Y-72126351D01*
X22042931Y-72314289D01*
X22040758Y-72318971D01*
X22040756Y-72318974D01*
X22026948Y-72348722D01*
X21947145Y-72520643D01*
X21886348Y-72739869D01*
X21862172Y-72966082D01*
X20508500Y-72966082D01*
X20508500Y-67216082D01*
X21862172Y-67216082D01*
X21862469Y-67221234D01*
X21862469Y-67221238D01*
X21867845Y-67314463D01*
X21875268Y-67443206D01*
X21876405Y-67448252D01*
X21876406Y-67448258D01*
X21896686Y-67538244D01*
X21925283Y-67665141D01*
X22010875Y-67875927D01*
X22129744Y-68069904D01*
X22278698Y-68241861D01*
X22453737Y-68387181D01*
X22458189Y-68389783D01*
X22458194Y-68389786D01*
X22552199Y-68444718D01*
X22650160Y-68501962D01*
X22862693Y-68583120D01*
X22867759Y-68584151D01*
X22867760Y-68584151D01*
X22966861Y-68604313D01*
X23085627Y-68628476D01*
X23213437Y-68633163D01*
X23307811Y-68636624D01*
X23307815Y-68636624D01*
X23312975Y-68636813D01*
X23318095Y-68636157D01*
X23318097Y-68636157D01*
X23533504Y-68608563D01*
X23533505Y-68608563D01*
X23538632Y-68607906D01*
X23621248Y-68583120D01*
X23751591Y-68544015D01*
X23751592Y-68544014D01*
X23756537Y-68542531D01*
X23960839Y-68442444D01*
X23965043Y-68439446D01*
X23965047Y-68439443D01*
X24141847Y-68313333D01*
X24141849Y-68313331D01*
X24146051Y-68310334D01*
X24307199Y-68149747D01*
X24361764Y-68073812D01*
X24436938Y-67969198D01*
X24436942Y-67969192D01*
X24439956Y-67964997D01*
X24540755Y-67761046D01*
X24606890Y-67543370D01*
X24620077Y-67443206D01*
X24636148Y-67321136D01*
X24636148Y-67321132D01*
X24636585Y-67317815D01*
X24638242Y-67250000D01*
X24619601Y-67023264D01*
X24564178Y-66802617D01*
X24473462Y-66593985D01*
X24349890Y-66402971D01*
X24196779Y-66234704D01*
X24018241Y-66093704D01*
X23980537Y-66072890D01*
X23869761Y-66011739D01*
X23819072Y-65983757D01*
X23814203Y-65982033D01*
X23814199Y-65982031D01*
X23609496Y-65909541D01*
X23609492Y-65909540D01*
X23604621Y-65907815D01*
X23599528Y-65906908D01*
X23599525Y-65906907D01*
X23385734Y-65868825D01*
X23385728Y-65868824D01*
X23380645Y-65867919D01*
X23307196Y-65867022D01*
X23158331Y-65865203D01*
X23158329Y-65865203D01*
X23153161Y-65865140D01*
X22928278Y-65899552D01*
X22712035Y-65970231D01*
X22707447Y-65972619D01*
X22707443Y-65972621D01*
X22514828Y-66072890D01*
X22510239Y-66075279D01*
X22506106Y-66078382D01*
X22506103Y-66078384D01*
X22485699Y-66093704D01*
X22328310Y-66211875D01*
X22171133Y-66376351D01*
X22042931Y-66564289D01*
X22040758Y-66568971D01*
X22040756Y-66568974D01*
X22026948Y-66598722D01*
X21947145Y-66770643D01*
X21886348Y-66989869D01*
X21862172Y-67216082D01*
X20508500Y-67216082D01*
X20508500Y-61466082D01*
X21862172Y-61466082D01*
X21862469Y-61471234D01*
X21862469Y-61471238D01*
X21867845Y-61564463D01*
X21875268Y-61693206D01*
X21876405Y-61698252D01*
X21876406Y-61698258D01*
X21896686Y-61788244D01*
X21925283Y-61915141D01*
X22010875Y-62125927D01*
X22129744Y-62319904D01*
X22278698Y-62491861D01*
X22453737Y-62637181D01*
X22458189Y-62639783D01*
X22458194Y-62639786D01*
X22552199Y-62694718D01*
X22650160Y-62751962D01*
X22862693Y-62833120D01*
X22867759Y-62834151D01*
X22867760Y-62834151D01*
X22966861Y-62854313D01*
X23085627Y-62878476D01*
X23213437Y-62883163D01*
X23307811Y-62886624D01*
X23307815Y-62886624D01*
X23312975Y-62886813D01*
X23318095Y-62886157D01*
X23318097Y-62886157D01*
X23533504Y-62858563D01*
X23533505Y-62858563D01*
X23538632Y-62857906D01*
X23621248Y-62833120D01*
X23751591Y-62794015D01*
X23751592Y-62794014D01*
X23756537Y-62792531D01*
X23960839Y-62692444D01*
X23965043Y-62689446D01*
X23965047Y-62689443D01*
X24141847Y-62563333D01*
X24141849Y-62563331D01*
X24146051Y-62560334D01*
X24307199Y-62399747D01*
X24361764Y-62323812D01*
X24436938Y-62219198D01*
X24436942Y-62219192D01*
X24439956Y-62214997D01*
X24540755Y-62011046D01*
X24606890Y-61793370D01*
X24620077Y-61693206D01*
X24636148Y-61571136D01*
X24636148Y-61571132D01*
X24636585Y-61567815D01*
X24638242Y-61500000D01*
X24619601Y-61273264D01*
X24564178Y-61052617D01*
X24473462Y-60843985D01*
X24349890Y-60652971D01*
X24196779Y-60484704D01*
X24018241Y-60343704D01*
X23980537Y-60322890D01*
X23869761Y-60261739D01*
X23819072Y-60233757D01*
X23814203Y-60232033D01*
X23814199Y-60232031D01*
X23609496Y-60159541D01*
X23609492Y-60159540D01*
X23604621Y-60157815D01*
X23599528Y-60156908D01*
X23599525Y-60156907D01*
X23385734Y-60118825D01*
X23385728Y-60118824D01*
X23380645Y-60117919D01*
X23307196Y-60117022D01*
X23158331Y-60115203D01*
X23158329Y-60115203D01*
X23153161Y-60115140D01*
X22928278Y-60149552D01*
X22712035Y-60220231D01*
X22707447Y-60222619D01*
X22707443Y-60222621D01*
X22514828Y-60322890D01*
X22510239Y-60325279D01*
X22506106Y-60328382D01*
X22506103Y-60328384D01*
X22485699Y-60343704D01*
X22328310Y-60461875D01*
X22171133Y-60626351D01*
X22042931Y-60814289D01*
X22040758Y-60818971D01*
X22040756Y-60818974D01*
X22026948Y-60848722D01*
X21947145Y-61020643D01*
X21886348Y-61239869D01*
X21862172Y-61466082D01*
X20508500Y-61466082D01*
X20508500Y-54875400D01*
X21391500Y-54875400D01*
X21402474Y-54981166D01*
X21404655Y-54987702D01*
X21404655Y-54987704D01*
X21435135Y-55079064D01*
X21458450Y-55148946D01*
X21551522Y-55299348D01*
X21676697Y-55424305D01*
X21682927Y-55428145D01*
X21682928Y-55428146D01*
X21820090Y-55512694D01*
X21827262Y-55517115D01*
X21852217Y-55525392D01*
X21988611Y-55570632D01*
X21988613Y-55570632D01*
X21995139Y-55572797D01*
X22001975Y-55573497D01*
X22001978Y-55573498D01*
X22040386Y-55577433D01*
X22099600Y-55583500D01*
X22900400Y-55583500D01*
X22903646Y-55583163D01*
X22903650Y-55583163D01*
X22999308Y-55573238D01*
X22999312Y-55573237D01*
X23006166Y-55572526D01*
X23012702Y-55570345D01*
X23012704Y-55570345D01*
X23147443Y-55525392D01*
X23173946Y-55516550D01*
X23324348Y-55423478D01*
X23449305Y-55298303D01*
X23481075Y-55246764D01*
X23533846Y-55199271D01*
X23603918Y-55187847D01*
X23669042Y-55216121D01*
X23687418Y-55235045D01*
X23693604Y-55242920D01*
X23698135Y-55246852D01*
X23698138Y-55246855D01*
X23784058Y-55321412D01*
X23853363Y-55381552D01*
X23858549Y-55384552D01*
X23858553Y-55384555D01*
X23954957Y-55440326D01*
X24036454Y-55487473D01*
X24236271Y-55556861D01*
X24242206Y-55557722D01*
X24242208Y-55557722D01*
X24439664Y-55586352D01*
X24439667Y-55586352D01*
X24445604Y-55587213D01*
X24656899Y-55577433D01*
X24788077Y-55545819D01*
X24856701Y-55529281D01*
X24856703Y-55529280D01*
X24862534Y-55527875D01*
X24867992Y-55525393D01*
X24867996Y-55525392D01*
X24983041Y-55473084D01*
X25055087Y-55440326D01*
X25227611Y-55317946D01*
X25373881Y-55165150D01*
X25488620Y-54987452D01*
X25567686Y-54791263D01*
X25608228Y-54583663D01*
X25608500Y-54578101D01*
X25608500Y-53872154D01*
X25593452Y-53714434D01*
X25533908Y-53511466D01*
X25486872Y-53420139D01*
X25439804Y-53328751D01*
X25439802Y-53328748D01*
X25437058Y-53323420D01*
X25306396Y-53157080D01*
X25301865Y-53153148D01*
X25301862Y-53153145D01*
X25151167Y-53022379D01*
X25146637Y-53018448D01*
X25141451Y-53015448D01*
X25141447Y-53015445D01*
X24968742Y-52915533D01*
X24963546Y-52912527D01*
X24763729Y-52843139D01*
X24757794Y-52842278D01*
X24757792Y-52842278D01*
X24560336Y-52813648D01*
X24560333Y-52813648D01*
X24554396Y-52812787D01*
X24343101Y-52822567D01*
X24211923Y-52854181D01*
X24143299Y-52870719D01*
X24143297Y-52870720D01*
X24137466Y-52872125D01*
X24132008Y-52874607D01*
X24132004Y-52874608D01*
X24016959Y-52926916D01*
X23944913Y-52959674D01*
X23772389Y-53082054D01*
X23768247Y-53086381D01*
X23768241Y-53086386D01*
X23681194Y-53177317D01*
X23619639Y-53212694D01*
X23548730Y-53209175D01*
X23490979Y-53167879D01*
X23483032Y-53156491D01*
X23448478Y-53100652D01*
X23323303Y-52975695D01*
X23220826Y-52912527D01*
X23178968Y-52886725D01*
X23178966Y-52886724D01*
X23172738Y-52882885D01*
X23012254Y-52829655D01*
X23011389Y-52829368D01*
X23011387Y-52829368D01*
X23004861Y-52827203D01*
X22998025Y-52826503D01*
X22998022Y-52826502D01*
X22954969Y-52822091D01*
X22900400Y-52816500D01*
X22099600Y-52816500D01*
X22096354Y-52816837D01*
X22096350Y-52816837D01*
X22000692Y-52826762D01*
X22000688Y-52826763D01*
X21993834Y-52827474D01*
X21987298Y-52829655D01*
X21987296Y-52829655D01*
X21864213Y-52870719D01*
X21826054Y-52883450D01*
X21675652Y-52976522D01*
X21550695Y-53101697D01*
X21546855Y-53107927D01*
X21546854Y-53107928D01*
X21509900Y-53167879D01*
X21457885Y-53252262D01*
X21402203Y-53420139D01*
X21391500Y-53524600D01*
X21391500Y-54875400D01*
X20508500Y-54875400D01*
X20508500Y-48626000D01*
X20528502Y-48557879D01*
X20582158Y-48511386D01*
X20634500Y-48500000D01*
X28374000Y-48500000D01*
X28442121Y-48520002D01*
G37*
G04 #@! TD.AperFunction*
G04 #@! TA.AperFunction,Conductor*
G36*
X55433621Y-32020002D02*
G01*
X55480114Y-32073658D01*
X55491500Y-32126000D01*
X55491500Y-75365500D01*
X55471498Y-75433621D01*
X55417842Y-75480114D01*
X55365500Y-75491500D01*
X31626000Y-75491500D01*
X31557879Y-75471498D01*
X31511386Y-75417842D01*
X31500000Y-75365500D01*
X31500000Y-73610102D01*
X36544641Y-73610102D01*
X36580232Y-73817228D01*
X36652972Y-74014399D01*
X36655924Y-74019360D01*
X36655924Y-74019361D01*
X36753499Y-74183368D01*
X36760426Y-74195012D01*
X36898994Y-74353019D01*
X37064037Y-74483128D01*
X37069153Y-74485819D01*
X37069155Y-74485821D01*
X37244910Y-74578290D01*
X37250027Y-74580982D01*
X37450734Y-74643304D01*
X37456469Y-74643983D01*
X37456470Y-74643983D01*
X37487032Y-74647600D01*
X37621374Y-74663500D01*
X38123816Y-74663500D01*
X38279779Y-74649169D01*
X38285341Y-74647600D01*
X38285343Y-74647600D01*
X38380914Y-74620646D01*
X38482049Y-74592123D01*
X38670537Y-74499171D01*
X38838929Y-74373427D01*
X38981586Y-74219101D01*
X39093731Y-74041362D01*
X39171608Y-73846163D01*
X39172733Y-73840506D01*
X39172735Y-73840500D01*
X39211481Y-73645707D01*
X39211481Y-73645705D01*
X39212608Y-73640040D01*
X39212926Y-73615800D01*
X39214860Y-73468009D01*
X39215359Y-73429898D01*
X39209270Y-73394459D01*
X39182149Y-73236630D01*
X44792482Y-73236630D01*
X44792998Y-73242774D01*
X44806683Y-73405739D01*
X44808121Y-73422867D01*
X44859636Y-73602520D01*
X44945064Y-73768746D01*
X44948887Y-73773570D01*
X44948890Y-73773574D01*
X45006424Y-73846163D01*
X45061152Y-73915212D01*
X45065846Y-73919207D01*
X45183526Y-74019361D01*
X45203478Y-74036342D01*
X45366621Y-74127519D01*
X45544367Y-74185272D01*
X45729945Y-74207401D01*
X45736080Y-74206929D01*
X45736082Y-74206929D01*
X45792119Y-74202617D01*
X45916287Y-74193063D01*
X46096296Y-74142804D01*
X46101785Y-74140031D01*
X46101791Y-74140029D01*
X46179159Y-74100947D01*
X46263114Y-74058538D01*
X46278849Y-74046245D01*
X46326541Y-74008983D01*
X46410387Y-73943475D01*
X46414413Y-73938811D01*
X46414416Y-73938808D01*
X46528480Y-73806663D01*
X46532507Y-73801998D01*
X46624821Y-73639495D01*
X46632704Y-73615800D01*
X46634599Y-73610102D01*
X51784641Y-73610102D01*
X51820232Y-73817228D01*
X51892972Y-74014399D01*
X51895924Y-74019360D01*
X51895924Y-74019361D01*
X51993499Y-74183368D01*
X52000426Y-74195012D01*
X52138994Y-74353019D01*
X52304037Y-74483128D01*
X52309153Y-74485819D01*
X52309155Y-74485821D01*
X52484910Y-74578290D01*
X52490027Y-74580982D01*
X52690734Y-74643304D01*
X52696469Y-74643983D01*
X52696470Y-74643983D01*
X52727032Y-74647600D01*
X52861374Y-74663500D01*
X53363816Y-74663500D01*
X53519779Y-74649169D01*
X53525341Y-74647600D01*
X53525343Y-74647600D01*
X53620914Y-74620646D01*
X53722049Y-74592123D01*
X53910537Y-74499171D01*
X54078929Y-74373427D01*
X54221586Y-74219101D01*
X54333731Y-74041362D01*
X54411608Y-73846163D01*
X54412733Y-73840506D01*
X54412735Y-73840500D01*
X54451481Y-73645707D01*
X54451481Y-73645705D01*
X54452608Y-73640040D01*
X54452926Y-73615800D01*
X54454860Y-73468009D01*
X54455359Y-73429898D01*
X54449270Y-73394459D01*
X54420747Y-73228469D01*
X54420747Y-73228468D01*
X54419768Y-73222772D01*
X54347028Y-73025601D01*
X54239574Y-72844988D01*
X54101006Y-72686981D01*
X53965314Y-72580010D01*
X53940502Y-72560450D01*
X53940500Y-72560449D01*
X53935963Y-72556872D01*
X53930847Y-72554181D01*
X53930845Y-72554179D01*
X53755090Y-72461710D01*
X53755088Y-72461709D01*
X53749973Y-72459018D01*
X53549266Y-72396696D01*
X53543531Y-72396017D01*
X53543530Y-72396017D01*
X53495242Y-72390302D01*
X53378626Y-72376500D01*
X52876184Y-72376500D01*
X52720221Y-72390831D01*
X52714659Y-72392400D01*
X52714657Y-72392400D01*
X52619086Y-72419354D01*
X52517951Y-72447877D01*
X52329463Y-72540829D01*
X52161071Y-72666573D01*
X52157157Y-72670807D01*
X52157155Y-72670809D01*
X52111623Y-72720066D01*
X52018414Y-72820899D01*
X51906269Y-72998638D01*
X51828392Y-73193837D01*
X51827267Y-73199494D01*
X51827265Y-73199500D01*
X51791477Y-73379423D01*
X51787392Y-73399960D01*
X51787316Y-73405735D01*
X51787316Y-73405739D01*
X51786646Y-73456929D01*
X51784641Y-73610102D01*
X46634599Y-73610102D01*
X46681867Y-73468009D01*
X46683814Y-73462157D01*
X46706025Y-73286342D01*
X46706796Y-73280241D01*
X46706797Y-73280232D01*
X46707238Y-73276738D01*
X46707611Y-73250000D01*
X46689373Y-73063999D01*
X46685419Y-73050901D01*
X46637136Y-72890983D01*
X46635355Y-72885083D01*
X46547615Y-72720066D01*
X46524170Y-72691320D01*
X46433388Y-72580010D01*
X46433385Y-72580007D01*
X46429493Y-72575235D01*
X46424744Y-72571306D01*
X46322388Y-72486630D01*
X48542482Y-72486630D01*
X48542998Y-72492774D01*
X48557303Y-72663120D01*
X48558121Y-72672867D01*
X48609636Y-72852520D01*
X48629403Y-72890983D01*
X48687487Y-73004002D01*
X48695064Y-73018746D01*
X48698887Y-73023570D01*
X48698890Y-73023574D01*
X48730931Y-73063999D01*
X48811152Y-73165212D01*
X48815846Y-73169207D01*
X48910777Y-73250000D01*
X48953478Y-73286342D01*
X49116621Y-73377519D01*
X49294367Y-73435272D01*
X49479945Y-73457401D01*
X49486080Y-73456929D01*
X49486082Y-73456929D01*
X49542119Y-73452617D01*
X49666287Y-73443063D01*
X49846296Y-73392804D01*
X49851785Y-73390031D01*
X49851791Y-73390029D01*
X49929159Y-73350947D01*
X50013114Y-73308538D01*
X50041524Y-73286342D01*
X50065486Y-73267621D01*
X50160387Y-73193475D01*
X50164413Y-73188811D01*
X50164416Y-73188808D01*
X50278480Y-73056663D01*
X50282507Y-73051998D01*
X50374821Y-72889495D01*
X50389091Y-72846600D01*
X50431867Y-72718009D01*
X50433814Y-72712157D01*
X50450508Y-72580010D01*
X50456796Y-72530241D01*
X50456797Y-72530232D01*
X50457238Y-72526738D01*
X50457611Y-72500000D01*
X50439373Y-72313999D01*
X50435419Y-72300901D01*
X50387136Y-72140983D01*
X50385355Y-72135083D01*
X50297615Y-71970066D01*
X50286691Y-71956672D01*
X50183388Y-71830010D01*
X50183385Y-71830007D01*
X50179493Y-71825235D01*
X50174744Y-71821306D01*
X50040239Y-71710034D01*
X50040236Y-71710032D01*
X50035489Y-71706105D01*
X49871089Y-71617214D01*
X49781821Y-71589581D01*
X49698441Y-71563770D01*
X49698438Y-71563769D01*
X49692554Y-71561948D01*
X49686429Y-71561304D01*
X49686428Y-71561304D01*
X49512813Y-71543056D01*
X49512812Y-71543056D01*
X49506685Y-71542412D01*
X49401356Y-71551998D01*
X49326703Y-71558792D01*
X49326702Y-71558792D01*
X49320562Y-71559351D01*
X49314648Y-71561092D01*
X49314646Y-71561092D01*
X49192466Y-71597052D01*
X49141273Y-71612119D01*
X49135808Y-71614976D01*
X49013147Y-71679101D01*
X48975647Y-71698705D01*
X48829995Y-71815813D01*
X48709862Y-71958981D01*
X48706899Y-71964370D01*
X48706896Y-71964375D01*
X48633509Y-72097868D01*
X48619826Y-72122757D01*
X48563315Y-72300901D01*
X48542482Y-72486630D01*
X46322388Y-72486630D01*
X46290239Y-72460034D01*
X46290236Y-72460032D01*
X46285489Y-72456105D01*
X46121089Y-72367214D01*
X46031821Y-72339581D01*
X45948441Y-72313770D01*
X45948438Y-72313769D01*
X45942554Y-72311948D01*
X45936429Y-72311304D01*
X45936428Y-72311304D01*
X45762813Y-72293056D01*
X45762812Y-72293056D01*
X45756685Y-72292412D01*
X45638087Y-72303206D01*
X45576703Y-72308792D01*
X45576702Y-72308792D01*
X45570562Y-72309351D01*
X45564648Y-72311092D01*
X45564646Y-72311092D01*
X45533928Y-72320133D01*
X45391273Y-72362119D01*
X45225647Y-72448705D01*
X45079995Y-72565813D01*
X44959862Y-72708981D01*
X44956899Y-72714370D01*
X44956896Y-72714375D01*
X44900666Y-72816659D01*
X44869826Y-72872757D01*
X44813315Y-73050901D01*
X44792482Y-73236630D01*
X39182149Y-73236630D01*
X39180747Y-73228469D01*
X39180747Y-73228468D01*
X39179768Y-73222772D01*
X39107028Y-73025601D01*
X38999574Y-72844988D01*
X38861006Y-72686981D01*
X38725314Y-72580010D01*
X38700502Y-72560450D01*
X38700500Y-72560449D01*
X38695963Y-72556872D01*
X38690847Y-72554181D01*
X38690845Y-72554179D01*
X38515090Y-72461710D01*
X38515088Y-72461709D01*
X38509973Y-72459018D01*
X38309266Y-72396696D01*
X38303531Y-72396017D01*
X38303530Y-72396017D01*
X38255242Y-72390302D01*
X38138626Y-72376500D01*
X37636184Y-72376500D01*
X37480221Y-72390831D01*
X37474659Y-72392400D01*
X37474657Y-72392400D01*
X37379086Y-72419354D01*
X37277951Y-72447877D01*
X37089463Y-72540829D01*
X36921071Y-72666573D01*
X36917157Y-72670807D01*
X36917155Y-72670809D01*
X36871623Y-72720066D01*
X36778414Y-72820899D01*
X36666269Y-72998638D01*
X36588392Y-73193837D01*
X36587267Y-73199494D01*
X36587265Y-73199500D01*
X36551477Y-73379423D01*
X36547392Y-73399960D01*
X36547316Y-73405735D01*
X36547316Y-73405739D01*
X36546646Y-73456929D01*
X36544641Y-73610102D01*
X31500000Y-73610102D01*
X31500000Y-71828317D01*
X31520002Y-71760196D01*
X31573658Y-71713703D01*
X31643932Y-71703599D01*
X31697911Y-71724853D01*
X31699979Y-71726290D01*
X31704675Y-71730287D01*
X31867818Y-71821464D01*
X32045564Y-71879217D01*
X32231142Y-71901346D01*
X32237277Y-71900874D01*
X32237279Y-71900874D01*
X32293316Y-71896562D01*
X32417484Y-71887008D01*
X32597493Y-71836749D01*
X32602982Y-71833976D01*
X32602988Y-71833974D01*
X32691331Y-71789348D01*
X32764311Y-71752483D01*
X32788871Y-71733295D01*
X32839837Y-71693475D01*
X32911584Y-71637420D01*
X32915610Y-71632756D01*
X32915613Y-71632753D01*
X33014021Y-71518746D01*
X33033704Y-71495943D01*
X33126018Y-71333440D01*
X33142914Y-71282651D01*
X33179434Y-71172867D01*
X33185011Y-71156102D01*
X33195156Y-71075800D01*
X33195876Y-71070102D01*
X36544641Y-71070102D01*
X36580232Y-71277228D01*
X36652972Y-71474399D01*
X36655924Y-71479360D01*
X36655924Y-71479361D01*
X36739682Y-71620144D01*
X36760426Y-71655012D01*
X36898994Y-71813019D01*
X36929262Y-71836880D01*
X37054072Y-71935272D01*
X37064037Y-71943128D01*
X37069153Y-71945819D01*
X37069155Y-71945821D01*
X37125579Y-71975507D01*
X37250027Y-72040982D01*
X37450734Y-72103304D01*
X37456469Y-72103983D01*
X37456470Y-72103983D01*
X37487032Y-72107600D01*
X37621374Y-72123500D01*
X38123816Y-72123500D01*
X38279779Y-72109169D01*
X38285341Y-72107600D01*
X38285343Y-72107600D01*
X38380914Y-72080646D01*
X38482049Y-72052123D01*
X38670537Y-71959171D01*
X38701566Y-71936001D01*
X38834305Y-71836880D01*
X38834306Y-71836879D01*
X38838929Y-71833427D01*
X38846502Y-71825235D01*
X38977667Y-71683341D01*
X38977669Y-71683338D01*
X38981586Y-71679101D01*
X39093731Y-71501362D01*
X39171608Y-71306163D01*
X39172733Y-71300506D01*
X39172735Y-71300500D01*
X39211481Y-71105707D01*
X39211481Y-71105705D01*
X39212608Y-71100040D01*
X39212926Y-71075800D01*
X39214092Y-70986630D01*
X45042482Y-70986630D01*
X45042998Y-70992774D01*
X45057205Y-71161954D01*
X45058121Y-71172867D01*
X45109636Y-71352520D01*
X45195064Y-71518746D01*
X45198887Y-71523570D01*
X45198890Y-71523574D01*
X45266723Y-71609157D01*
X45311152Y-71665212D01*
X45315846Y-71669207D01*
X45409239Y-71748691D01*
X45453478Y-71786342D01*
X45616621Y-71877519D01*
X45794367Y-71935272D01*
X45979945Y-71957401D01*
X45986080Y-71956929D01*
X45986082Y-71956929D01*
X46042119Y-71952617D01*
X46166287Y-71943063D01*
X46346296Y-71892804D01*
X46351785Y-71890031D01*
X46351791Y-71890029D01*
X46457006Y-71836880D01*
X46513114Y-71808538D01*
X46541524Y-71786342D01*
X46565486Y-71767621D01*
X46660387Y-71693475D01*
X46664413Y-71688811D01*
X46664416Y-71688808D01*
X46740669Y-71600468D01*
X46782507Y-71551998D01*
X46874821Y-71389495D01*
X46889091Y-71346600D01*
X46910364Y-71282651D01*
X46933814Y-71212157D01*
X46951760Y-71070102D01*
X51784641Y-71070102D01*
X51820232Y-71277228D01*
X51892972Y-71474399D01*
X51895924Y-71479360D01*
X51895924Y-71479361D01*
X51979682Y-71620144D01*
X52000426Y-71655012D01*
X52138994Y-71813019D01*
X52169262Y-71836880D01*
X52294072Y-71935272D01*
X52304037Y-71943128D01*
X52309153Y-71945819D01*
X52309155Y-71945821D01*
X52365579Y-71975507D01*
X52490027Y-72040982D01*
X52690734Y-72103304D01*
X52696469Y-72103983D01*
X52696470Y-72103983D01*
X52727032Y-72107600D01*
X52861374Y-72123500D01*
X53363816Y-72123500D01*
X53519779Y-72109169D01*
X53525341Y-72107600D01*
X53525343Y-72107600D01*
X53620914Y-72080646D01*
X53722049Y-72052123D01*
X53910537Y-71959171D01*
X53941566Y-71936001D01*
X54074305Y-71836880D01*
X54074306Y-71836879D01*
X54078929Y-71833427D01*
X54086502Y-71825235D01*
X54217667Y-71683341D01*
X54217669Y-71683338D01*
X54221586Y-71679101D01*
X54333731Y-71501362D01*
X54411608Y-71306163D01*
X54412733Y-71300506D01*
X54412735Y-71300500D01*
X54451481Y-71105707D01*
X54451481Y-71105705D01*
X54452608Y-71100040D01*
X54452926Y-71075800D01*
X54454301Y-70970683D01*
X54455359Y-70889898D01*
X54440067Y-70800901D01*
X54420747Y-70688469D01*
X54420747Y-70688468D01*
X54419768Y-70682772D01*
X54347028Y-70485601D01*
X54239574Y-70304988D01*
X54101006Y-70146981D01*
X53989302Y-70058921D01*
X53940502Y-70020450D01*
X53940500Y-70020449D01*
X53935963Y-70016872D01*
X53930847Y-70014181D01*
X53930845Y-70014179D01*
X53755090Y-69921710D01*
X53755088Y-69921709D01*
X53749973Y-69919018D01*
X53549266Y-69856696D01*
X53543531Y-69856017D01*
X53543530Y-69856017D01*
X53495242Y-69850302D01*
X53378626Y-69836500D01*
X52876184Y-69836500D01*
X52720221Y-69850831D01*
X52714659Y-69852400D01*
X52714657Y-69852400D01*
X52619086Y-69879354D01*
X52517951Y-69907877D01*
X52329463Y-70000829D01*
X52324837Y-70004283D01*
X52324836Y-70004284D01*
X52244747Y-70064089D01*
X52161071Y-70126573D01*
X52157157Y-70130807D01*
X52157155Y-70130809D01*
X52029247Y-70269180D01*
X52018414Y-70280899D01*
X51906269Y-70458638D01*
X51828392Y-70653837D01*
X51827267Y-70659494D01*
X51827265Y-70659500D01*
X51821503Y-70688469D01*
X51787392Y-70859960D01*
X51787316Y-70865735D01*
X51787316Y-70865739D01*
X51786247Y-70947450D01*
X51784641Y-71070102D01*
X46951760Y-71070102D01*
X46956796Y-71030241D01*
X46956797Y-71030232D01*
X46957238Y-71026738D01*
X46957611Y-71000000D01*
X46939373Y-70813999D01*
X46935419Y-70800901D01*
X46887136Y-70640983D01*
X46885355Y-70635083D01*
X46797615Y-70470066D01*
X46792974Y-70464375D01*
X46683388Y-70330010D01*
X46683385Y-70330007D01*
X46679493Y-70325235D01*
X46674744Y-70321306D01*
X46540239Y-70210034D01*
X46540236Y-70210032D01*
X46535489Y-70206105D01*
X46371089Y-70117214D01*
X46281822Y-70089581D01*
X46198441Y-70063770D01*
X46198438Y-70063769D01*
X46192554Y-70061948D01*
X46186429Y-70061304D01*
X46186428Y-70061304D01*
X46012813Y-70043056D01*
X46012812Y-70043056D01*
X46006685Y-70042412D01*
X45888087Y-70053206D01*
X45826703Y-70058792D01*
X45826702Y-70058792D01*
X45820562Y-70059351D01*
X45814648Y-70061092D01*
X45814646Y-70061092D01*
X45692466Y-70097052D01*
X45641273Y-70112119D01*
X45475647Y-70198705D01*
X45329995Y-70315813D01*
X45209862Y-70458981D01*
X45206899Y-70464370D01*
X45206896Y-70464375D01*
X45133509Y-70597868D01*
X45119826Y-70622757D01*
X45063315Y-70800901D01*
X45042482Y-70986630D01*
X39214092Y-70986630D01*
X39214301Y-70970683D01*
X39215359Y-70889898D01*
X39200067Y-70800901D01*
X39180747Y-70688469D01*
X39180747Y-70688468D01*
X39179768Y-70682772D01*
X39107028Y-70485601D01*
X38999574Y-70304988D01*
X38861006Y-70146981D01*
X38749302Y-70058921D01*
X38700502Y-70020450D01*
X38700500Y-70020449D01*
X38695963Y-70016872D01*
X38690847Y-70014181D01*
X38690845Y-70014179D01*
X38515090Y-69921710D01*
X38515088Y-69921709D01*
X38509973Y-69919018D01*
X38309266Y-69856696D01*
X38303531Y-69856017D01*
X38303530Y-69856017D01*
X38255242Y-69850302D01*
X38138626Y-69836500D01*
X37636184Y-69836500D01*
X37480221Y-69850831D01*
X37474659Y-69852400D01*
X37474657Y-69852400D01*
X37379086Y-69879354D01*
X37277951Y-69907877D01*
X37089463Y-70000829D01*
X37084837Y-70004283D01*
X37084836Y-70004284D01*
X37004747Y-70064089D01*
X36921071Y-70126573D01*
X36917157Y-70130807D01*
X36917155Y-70130809D01*
X36789247Y-70269180D01*
X36778414Y-70280899D01*
X36666269Y-70458638D01*
X36588392Y-70653837D01*
X36587267Y-70659494D01*
X36587265Y-70659500D01*
X36581503Y-70688469D01*
X36547392Y-70859960D01*
X36547316Y-70865735D01*
X36547316Y-70865739D01*
X36546247Y-70947450D01*
X36544641Y-71070102D01*
X33195876Y-71070102D01*
X33207993Y-70974186D01*
X33207994Y-70974177D01*
X33208435Y-70970683D01*
X33208808Y-70943945D01*
X33190570Y-70757944D01*
X33186616Y-70744846D01*
X33151834Y-70629644D01*
X33136552Y-70579028D01*
X33048812Y-70414011D01*
X33039771Y-70402926D01*
X32934585Y-70273955D01*
X32934582Y-70273952D01*
X32930690Y-70269180D01*
X32919301Y-70259758D01*
X32791436Y-70153979D01*
X32791433Y-70153977D01*
X32786686Y-70150050D01*
X32622286Y-70061159D01*
X32490777Y-70020450D01*
X32449638Y-70007715D01*
X32449635Y-70007714D01*
X32443751Y-70005893D01*
X32437626Y-70005249D01*
X32437625Y-70005249D01*
X32264010Y-69987001D01*
X32264009Y-69987001D01*
X32257882Y-69986357D01*
X32139284Y-69997151D01*
X32077900Y-70002737D01*
X32077899Y-70002737D01*
X32071759Y-70003296D01*
X32065845Y-70005037D01*
X32065843Y-70005037D01*
X32034782Y-70014179D01*
X31892470Y-70056064D01*
X31887005Y-70058921D01*
X31769895Y-70120144D01*
X31726844Y-70142650D01*
X31704950Y-70160253D01*
X31639331Y-70187349D01*
X31569476Y-70174666D01*
X31517568Y-70126231D01*
X31500000Y-70062056D01*
X31500000Y-69500000D01*
X33143910Y-69500000D01*
X33144600Y-69506565D01*
X33158634Y-69640082D01*
X33162618Y-69677991D01*
X33217923Y-69848203D01*
X33307409Y-70003197D01*
X33311827Y-70008104D01*
X33311828Y-70008105D01*
X33361949Y-70063770D01*
X33427164Y-70136199D01*
X33432506Y-70140080D01*
X33432508Y-70140082D01*
X33519347Y-70203174D01*
X33571955Y-70241396D01*
X33577983Y-70244080D01*
X33577985Y-70244081D01*
X33725937Y-70309953D01*
X33735454Y-70314190D01*
X33809882Y-70330010D01*
X33904057Y-70350028D01*
X33904061Y-70350028D01*
X33910514Y-70351400D01*
X34089486Y-70351400D01*
X34095939Y-70350028D01*
X34095943Y-70350028D01*
X34190118Y-70330010D01*
X34264546Y-70314190D01*
X34274063Y-70309953D01*
X34422015Y-70244081D01*
X34422017Y-70244080D01*
X34428045Y-70241396D01*
X34480653Y-70203174D01*
X34567492Y-70140082D01*
X34567494Y-70140080D01*
X34572836Y-70136199D01*
X34638051Y-70063770D01*
X34688172Y-70008105D01*
X34688173Y-70008104D01*
X34692591Y-70003197D01*
X34782077Y-69848203D01*
X34837382Y-69677991D01*
X34841367Y-69640082D01*
X34855400Y-69506565D01*
X34856090Y-69500000D01*
X34837382Y-69322009D01*
X34820055Y-69268680D01*
X34784119Y-69158082D01*
X34782077Y-69151797D01*
X34692591Y-68996803D01*
X34636403Y-68934399D01*
X34577258Y-68868712D01*
X34577257Y-68868711D01*
X34572836Y-68863801D01*
X34515315Y-68822009D01*
X34433387Y-68762485D01*
X34433386Y-68762484D01*
X34428045Y-68758604D01*
X34422017Y-68755920D01*
X34422015Y-68755919D01*
X34270577Y-68688495D01*
X34270576Y-68688495D01*
X34264546Y-68685810D01*
X34177016Y-68667205D01*
X34095943Y-68649972D01*
X34095939Y-68649972D01*
X34089486Y-68648600D01*
X33910514Y-68648600D01*
X33904061Y-68649972D01*
X33904057Y-68649972D01*
X33822984Y-68667205D01*
X33735454Y-68685810D01*
X33729424Y-68688495D01*
X33729423Y-68688495D01*
X33577985Y-68755919D01*
X33577983Y-68755920D01*
X33571955Y-68758604D01*
X33566614Y-68762484D01*
X33566613Y-68762485D01*
X33484686Y-68822009D01*
X33427164Y-68863801D01*
X33422743Y-68868711D01*
X33422742Y-68868712D01*
X33363598Y-68934399D01*
X33307409Y-68996803D01*
X33217923Y-69151797D01*
X33215881Y-69158082D01*
X33179946Y-69268680D01*
X33162618Y-69322009D01*
X33143910Y-69500000D01*
X31500000Y-69500000D01*
X31500000Y-68530102D01*
X36544641Y-68530102D01*
X36545620Y-68535799D01*
X36545620Y-68535800D01*
X36565552Y-68651797D01*
X36580232Y-68737228D01*
X36652972Y-68934399D01*
X36655924Y-68939360D01*
X36655924Y-68939361D01*
X36693501Y-69002521D01*
X36760426Y-69115012D01*
X36898994Y-69273019D01*
X37064037Y-69403128D01*
X37069153Y-69405819D01*
X37069155Y-69405821D01*
X37243369Y-69497479D01*
X37250027Y-69500982D01*
X37450734Y-69563304D01*
X37456469Y-69563983D01*
X37456470Y-69563983D01*
X37487032Y-69567600D01*
X37621374Y-69583500D01*
X38123816Y-69583500D01*
X38279779Y-69569169D01*
X38285341Y-69567600D01*
X38285343Y-69567600D01*
X38380914Y-69540646D01*
X38482049Y-69512123D01*
X38670537Y-69419171D01*
X38838929Y-69293427D01*
X38861805Y-69268680D01*
X38977667Y-69143341D01*
X38977669Y-69143338D01*
X38981586Y-69139101D01*
X39069352Y-69000000D01*
X41393910Y-69000000D01*
X41394600Y-69006565D01*
X41405999Y-69115012D01*
X41412618Y-69177991D01*
X41467923Y-69348203D01*
X41557409Y-69503197D01*
X41561827Y-69508104D01*
X41561828Y-69508105D01*
X41565446Y-69512123D01*
X41677164Y-69636199D01*
X41682506Y-69640080D01*
X41682508Y-69640082D01*
X41743328Y-69684270D01*
X41821955Y-69741396D01*
X41827983Y-69744080D01*
X41827985Y-69744081D01*
X41979423Y-69811505D01*
X41985454Y-69814190D01*
X42072984Y-69832795D01*
X42154057Y-69850028D01*
X42154061Y-69850028D01*
X42160514Y-69851400D01*
X42339486Y-69851400D01*
X42345939Y-69850028D01*
X42345943Y-69850028D01*
X42427016Y-69832795D01*
X42514546Y-69814190D01*
X42520577Y-69811505D01*
X42672015Y-69744081D01*
X42672017Y-69744080D01*
X42678045Y-69741396D01*
X42756672Y-69684270D01*
X42817492Y-69640082D01*
X42817494Y-69640080D01*
X42822836Y-69636199D01*
X42934554Y-69512123D01*
X42938172Y-69508105D01*
X42938173Y-69508104D01*
X42942591Y-69503197D01*
X43032077Y-69348203D01*
X43087382Y-69177991D01*
X43094002Y-69115012D01*
X43105400Y-69006565D01*
X43106090Y-69000000D01*
X43091775Y-68863801D01*
X43088072Y-68828573D01*
X43088072Y-68828572D01*
X43087382Y-68822009D01*
X43032077Y-68651797D01*
X42961816Y-68530102D01*
X51784641Y-68530102D01*
X51785620Y-68535799D01*
X51785620Y-68535800D01*
X51805552Y-68651797D01*
X51820232Y-68737228D01*
X51892972Y-68934399D01*
X51895924Y-68939360D01*
X51895924Y-68939361D01*
X51933501Y-69002521D01*
X52000426Y-69115012D01*
X52138994Y-69273019D01*
X52304037Y-69403128D01*
X52309153Y-69405819D01*
X52309155Y-69405821D01*
X52483369Y-69497479D01*
X52490027Y-69500982D01*
X52690734Y-69563304D01*
X52696469Y-69563983D01*
X52696470Y-69563983D01*
X52727032Y-69567600D01*
X52861374Y-69583500D01*
X53363816Y-69583500D01*
X53519779Y-69569169D01*
X53525341Y-69567600D01*
X53525343Y-69567600D01*
X53620914Y-69540646D01*
X53722049Y-69512123D01*
X53910537Y-69419171D01*
X54078929Y-69293427D01*
X54101805Y-69268680D01*
X54217667Y-69143341D01*
X54217669Y-69143338D01*
X54221586Y-69139101D01*
X54333731Y-68961362D01*
X54411608Y-68766163D01*
X54412733Y-68760506D01*
X54412735Y-68760500D01*
X54451481Y-68565707D01*
X54451481Y-68565705D01*
X54452608Y-68560040D01*
X54452926Y-68535800D01*
X54454062Y-68449001D01*
X54455359Y-68349898D01*
X54420770Y-68148600D01*
X54420747Y-68148469D01*
X54420747Y-68148468D01*
X54419768Y-68142772D01*
X54347028Y-67945601D01*
X54239574Y-67764988D01*
X54101006Y-67606981D01*
X53935963Y-67476872D01*
X53930847Y-67474181D01*
X53930845Y-67474179D01*
X53755090Y-67381710D01*
X53755088Y-67381709D01*
X53749973Y-67379018D01*
X53549266Y-67316696D01*
X53543531Y-67316017D01*
X53543530Y-67316017D01*
X53495242Y-67310302D01*
X53378626Y-67296500D01*
X52876184Y-67296500D01*
X52720221Y-67310831D01*
X52714659Y-67312400D01*
X52714657Y-67312400D01*
X52619086Y-67339354D01*
X52517951Y-67367877D01*
X52329463Y-67460829D01*
X52161071Y-67586573D01*
X52018414Y-67740899D01*
X51906269Y-67918638D01*
X51828392Y-68113837D01*
X51827267Y-68119494D01*
X51827265Y-68119500D01*
X51800130Y-68255919D01*
X51787392Y-68319960D01*
X51787316Y-68325735D01*
X51787316Y-68325739D01*
X51787000Y-68349898D01*
X51784641Y-68530102D01*
X42961816Y-68530102D01*
X42942591Y-68496803D01*
X42822836Y-68363801D01*
X42811659Y-68355680D01*
X42683387Y-68262485D01*
X42683386Y-68262484D01*
X42678045Y-68258604D01*
X42672017Y-68255920D01*
X42672015Y-68255919D01*
X42520577Y-68188495D01*
X42520576Y-68188495D01*
X42514546Y-68185810D01*
X42427016Y-68167205D01*
X42345943Y-68149972D01*
X42345939Y-68149972D01*
X42339486Y-68148600D01*
X42160514Y-68148600D01*
X42154061Y-68149972D01*
X42154057Y-68149972D01*
X42072984Y-68167205D01*
X41985454Y-68185810D01*
X41979424Y-68188495D01*
X41979423Y-68188495D01*
X41827985Y-68255919D01*
X41827983Y-68255920D01*
X41821955Y-68258604D01*
X41816614Y-68262484D01*
X41816613Y-68262485D01*
X41688342Y-68355680D01*
X41677164Y-68363801D01*
X41557409Y-68496803D01*
X41467923Y-68651797D01*
X41412618Y-68822009D01*
X41411928Y-68828572D01*
X41411928Y-68828573D01*
X41408225Y-68863801D01*
X41393910Y-69000000D01*
X39069352Y-69000000D01*
X39093731Y-68961362D01*
X39171608Y-68766163D01*
X39172733Y-68760506D01*
X39172735Y-68760500D01*
X39211481Y-68565707D01*
X39211481Y-68565705D01*
X39212608Y-68560040D01*
X39212926Y-68535800D01*
X39214062Y-68449001D01*
X39215359Y-68349898D01*
X39180770Y-68148600D01*
X39180747Y-68148469D01*
X39180747Y-68148468D01*
X39179768Y-68142772D01*
X39107028Y-67945601D01*
X38999574Y-67764988D01*
X38861006Y-67606981D01*
X38695963Y-67476872D01*
X38690847Y-67474181D01*
X38690845Y-67474179D01*
X38515090Y-67381710D01*
X38515088Y-67381709D01*
X38509973Y-67379018D01*
X38309266Y-67316696D01*
X38303531Y-67316017D01*
X38303530Y-67316017D01*
X38255242Y-67310302D01*
X38138626Y-67296500D01*
X37636184Y-67296500D01*
X37480221Y-67310831D01*
X37474659Y-67312400D01*
X37474657Y-67312400D01*
X37379086Y-67339354D01*
X37277951Y-67367877D01*
X37089463Y-67460829D01*
X36921071Y-67586573D01*
X36778414Y-67740899D01*
X36666269Y-67918638D01*
X36588392Y-68113837D01*
X36587267Y-68119494D01*
X36587265Y-68119500D01*
X36560130Y-68255919D01*
X36547392Y-68319960D01*
X36547316Y-68325735D01*
X36547316Y-68325739D01*
X36547000Y-68349898D01*
X36544641Y-68530102D01*
X31500000Y-68530102D01*
X31500000Y-65990102D01*
X36544641Y-65990102D01*
X36580232Y-66197228D01*
X36652972Y-66394399D01*
X36655924Y-66399360D01*
X36655924Y-66399361D01*
X36743210Y-66546074D01*
X36760426Y-66575012D01*
X36898994Y-66733019D01*
X37064037Y-66863128D01*
X37069153Y-66865819D01*
X37069155Y-66865821D01*
X37121641Y-66893435D01*
X37250027Y-66960982D01*
X37450734Y-67023304D01*
X37456469Y-67023983D01*
X37456470Y-67023983D01*
X37487032Y-67027600D01*
X37621374Y-67043500D01*
X38123816Y-67043500D01*
X38279779Y-67029169D01*
X38285341Y-67027600D01*
X38285343Y-67027600D01*
X38380914Y-67000646D01*
X38482049Y-66972123D01*
X38628300Y-66900000D01*
X46843910Y-66900000D01*
X46844600Y-66906565D01*
X46851656Y-66973692D01*
X46862618Y-67077991D01*
X46917923Y-67248203D01*
X47007409Y-67403197D01*
X47011827Y-67408104D01*
X47011828Y-67408105D01*
X47122742Y-67531288D01*
X47127164Y-67536199D01*
X47132506Y-67540080D01*
X47132508Y-67540082D01*
X47202328Y-67590809D01*
X47271955Y-67641396D01*
X47277983Y-67644080D01*
X47277985Y-67644081D01*
X47429423Y-67711505D01*
X47435454Y-67714190D01*
X47522984Y-67732795D01*
X47604057Y-67750028D01*
X47604061Y-67750028D01*
X47610514Y-67751400D01*
X47789486Y-67751400D01*
X47795939Y-67750028D01*
X47795943Y-67750028D01*
X47877016Y-67732795D01*
X47964546Y-67714190D01*
X47970577Y-67711505D01*
X48122015Y-67644081D01*
X48122017Y-67644080D01*
X48128045Y-67641396D01*
X48197672Y-67590809D01*
X48267492Y-67540082D01*
X48267494Y-67540080D01*
X48272836Y-67536199D01*
X48277258Y-67531288D01*
X48388172Y-67408105D01*
X48388173Y-67408104D01*
X48392591Y-67403197D01*
X48482077Y-67248203D01*
X48537382Y-67077991D01*
X48548345Y-66973692D01*
X48555400Y-66906565D01*
X48556090Y-66900000D01*
X48537382Y-66722009D01*
X48482077Y-66551797D01*
X48392591Y-66396803D01*
X48272836Y-66263801D01*
X48228414Y-66231526D01*
X48133387Y-66162485D01*
X48133386Y-66162484D01*
X48128045Y-66158604D01*
X48122017Y-66155920D01*
X48122015Y-66155919D01*
X47970577Y-66088495D01*
X47970576Y-66088495D01*
X47964546Y-66085810D01*
X47877016Y-66067205D01*
X47795943Y-66049972D01*
X47795939Y-66049972D01*
X47789486Y-66048600D01*
X47610514Y-66048600D01*
X47604061Y-66049972D01*
X47604057Y-66049972D01*
X47522984Y-66067205D01*
X47435454Y-66085810D01*
X47429424Y-66088495D01*
X47429423Y-66088495D01*
X47277985Y-66155919D01*
X47277983Y-66155920D01*
X47271955Y-66158604D01*
X47266614Y-66162484D01*
X47266613Y-66162485D01*
X47171587Y-66231526D01*
X47127164Y-66263801D01*
X47007409Y-66396803D01*
X46917923Y-66551797D01*
X46862618Y-66722009D01*
X46843910Y-66900000D01*
X38628300Y-66900000D01*
X38670537Y-66879171D01*
X38838929Y-66753427D01*
X38861904Y-66728573D01*
X38977667Y-66603341D01*
X38977669Y-66603338D01*
X38981586Y-66599101D01*
X39093731Y-66421362D01*
X39171608Y-66226163D01*
X39172733Y-66220506D01*
X39172735Y-66220500D01*
X39211481Y-66025707D01*
X39211481Y-66025705D01*
X39212608Y-66020040D01*
X39212926Y-65995800D01*
X39213001Y-65990102D01*
X51784641Y-65990102D01*
X51820232Y-66197228D01*
X51892972Y-66394399D01*
X51895924Y-66399360D01*
X51895924Y-66399361D01*
X51983210Y-66546074D01*
X52000426Y-66575012D01*
X52138994Y-66733019D01*
X52304037Y-66863128D01*
X52309153Y-66865819D01*
X52309155Y-66865821D01*
X52361641Y-66893435D01*
X52490027Y-66960982D01*
X52690734Y-67023304D01*
X52696469Y-67023983D01*
X52696470Y-67023983D01*
X52727032Y-67027600D01*
X52861374Y-67043500D01*
X53363816Y-67043500D01*
X53519779Y-67029169D01*
X53525341Y-67027600D01*
X53525343Y-67027600D01*
X53620914Y-67000646D01*
X53722049Y-66972123D01*
X53910537Y-66879171D01*
X54078929Y-66753427D01*
X54101904Y-66728573D01*
X54217667Y-66603341D01*
X54217669Y-66603338D01*
X54221586Y-66599101D01*
X54333731Y-66421362D01*
X54411608Y-66226163D01*
X54412733Y-66220506D01*
X54412735Y-66220500D01*
X54451481Y-66025707D01*
X54451481Y-66025705D01*
X54452608Y-66020040D01*
X54452926Y-65995800D01*
X54454816Y-65851400D01*
X54455359Y-65809898D01*
X54444050Y-65744081D01*
X54420747Y-65608469D01*
X54420747Y-65608468D01*
X54419768Y-65602772D01*
X54347028Y-65405601D01*
X54328082Y-65373755D01*
X54242528Y-65229953D01*
X54242527Y-65229952D01*
X54239574Y-65224988D01*
X54101006Y-65066981D01*
X54016041Y-65000000D01*
X53940502Y-64940450D01*
X53940500Y-64940449D01*
X53935963Y-64936872D01*
X53930847Y-64934181D01*
X53930845Y-64934179D01*
X53755090Y-64841710D01*
X53755088Y-64841709D01*
X53749973Y-64839018D01*
X53549266Y-64776696D01*
X53543531Y-64776017D01*
X53543530Y-64776017D01*
X53495242Y-64770302D01*
X53378626Y-64756500D01*
X52876184Y-64756500D01*
X52720221Y-64770831D01*
X52714659Y-64772400D01*
X52714657Y-64772400D01*
X52634411Y-64795032D01*
X52517951Y-64827877D01*
X52329463Y-64920829D01*
X52324837Y-64924283D01*
X52324836Y-64924284D01*
X52187633Y-65026738D01*
X52161071Y-65046573D01*
X52157157Y-65050807D01*
X52157155Y-65050809D01*
X52033786Y-65184270D01*
X52018414Y-65200899D01*
X51906269Y-65378638D01*
X51828392Y-65573837D01*
X51827267Y-65579494D01*
X51827265Y-65579500D01*
X51788519Y-65774293D01*
X51787392Y-65779960D01*
X51787316Y-65785735D01*
X51787316Y-65785739D01*
X51786979Y-65811505D01*
X51784641Y-65990102D01*
X39213001Y-65990102D01*
X39214816Y-65851400D01*
X39215359Y-65809898D01*
X39204050Y-65744081D01*
X39180747Y-65608469D01*
X39180747Y-65608468D01*
X39179768Y-65602772D01*
X39107028Y-65405601D01*
X39088082Y-65373755D01*
X39002528Y-65229953D01*
X39002527Y-65229952D01*
X38999574Y-65224988D01*
X38861006Y-65066981D01*
X38776041Y-65000000D01*
X40643910Y-65000000D01*
X40644600Y-65006565D01*
X40654686Y-65102520D01*
X40662618Y-65177991D01*
X40664658Y-65184269D01*
X40664658Y-65184270D01*
X40676477Y-65220644D01*
X40717923Y-65348203D01*
X40721226Y-65353925D01*
X40721227Y-65353926D01*
X40732675Y-65373755D01*
X40807409Y-65503197D01*
X40811827Y-65508104D01*
X40811828Y-65508105D01*
X40921063Y-65629423D01*
X40927164Y-65636199D01*
X40932506Y-65640080D01*
X40932508Y-65640082D01*
X41024515Y-65706929D01*
X41071955Y-65741396D01*
X41077983Y-65744080D01*
X41077985Y-65744081D01*
X41213016Y-65804200D01*
X41235454Y-65814190D01*
X41322984Y-65832795D01*
X41404057Y-65850028D01*
X41404061Y-65850028D01*
X41410514Y-65851400D01*
X41589486Y-65851400D01*
X41595939Y-65850028D01*
X41595943Y-65850028D01*
X41677016Y-65832795D01*
X41764546Y-65814190D01*
X41786984Y-65804200D01*
X41922015Y-65744081D01*
X41922017Y-65744080D01*
X41928045Y-65741396D01*
X41975485Y-65706929D01*
X42067492Y-65640082D01*
X42067494Y-65640080D01*
X42072836Y-65636199D01*
X42078937Y-65629423D01*
X42188172Y-65508105D01*
X42188173Y-65508104D01*
X42192591Y-65503197D01*
X42267325Y-65373755D01*
X42278773Y-65353926D01*
X42278774Y-65353925D01*
X42282077Y-65348203D01*
X42323523Y-65220644D01*
X42335342Y-65184270D01*
X42335342Y-65184269D01*
X42337382Y-65177991D01*
X42345315Y-65102520D01*
X42355400Y-65006565D01*
X42356090Y-65000000D01*
X42354685Y-64986630D01*
X48542482Y-64986630D01*
X48543312Y-64996513D01*
X48555319Y-65139495D01*
X48558121Y-65172867D01*
X48609636Y-65352520D01*
X48695064Y-65518746D01*
X48698887Y-65523570D01*
X48698890Y-65523574D01*
X48794703Y-65644459D01*
X48811152Y-65665212D01*
X48815846Y-65669207D01*
X48939321Y-65774293D01*
X48953478Y-65786342D01*
X49116621Y-65877519D01*
X49294367Y-65935272D01*
X49479945Y-65957401D01*
X49486080Y-65956929D01*
X49486082Y-65956929D01*
X49542119Y-65952617D01*
X49666287Y-65943063D01*
X49846296Y-65892804D01*
X49851785Y-65890031D01*
X49851791Y-65890029D01*
X49930978Y-65850028D01*
X50013114Y-65808538D01*
X50018667Y-65804200D01*
X50065486Y-65767621D01*
X50160387Y-65693475D01*
X50164413Y-65688811D01*
X50164416Y-65688808D01*
X50268285Y-65568474D01*
X50282507Y-65551998D01*
X50344156Y-65443475D01*
X50371778Y-65394852D01*
X50371779Y-65394851D01*
X50374821Y-65389495D01*
X50386654Y-65353926D01*
X50427894Y-65229953D01*
X50433814Y-65212157D01*
X50442317Y-65144852D01*
X50456796Y-65030241D01*
X50456797Y-65030232D01*
X50457238Y-65026738D01*
X50457611Y-65000000D01*
X50439373Y-64813999D01*
X50435419Y-64800901D01*
X50388673Y-64646074D01*
X50385355Y-64635083D01*
X50297615Y-64470066D01*
X50275928Y-64443475D01*
X50183388Y-64330010D01*
X50183385Y-64330007D01*
X50179493Y-64325235D01*
X50174744Y-64321306D01*
X50040239Y-64210034D01*
X50040236Y-64210032D01*
X50035489Y-64206105D01*
X49871089Y-64117214D01*
X49750903Y-64080010D01*
X49698441Y-64063770D01*
X49698438Y-64063769D01*
X49692554Y-64061948D01*
X49686429Y-64061304D01*
X49686428Y-64061304D01*
X49512813Y-64043056D01*
X49512812Y-64043056D01*
X49506685Y-64042412D01*
X49388087Y-64053206D01*
X49326703Y-64058792D01*
X49326702Y-64058792D01*
X49320562Y-64059351D01*
X49314648Y-64061092D01*
X49314646Y-64061092D01*
X49266593Y-64075235D01*
X49141273Y-64112119D01*
X49135808Y-64114976D01*
X49002938Y-64184438D01*
X48975647Y-64198705D01*
X48829995Y-64315813D01*
X48709862Y-64458981D01*
X48706899Y-64464370D01*
X48706896Y-64464375D01*
X48665680Y-64539348D01*
X48619826Y-64622757D01*
X48617965Y-64628624D01*
X48617964Y-64628626D01*
X48612429Y-64646074D01*
X48563315Y-64800901D01*
X48542482Y-64986630D01*
X42354685Y-64986630D01*
X42347500Y-64918274D01*
X42338072Y-64828573D01*
X42338072Y-64828572D01*
X42337382Y-64822009D01*
X42334780Y-64813999D01*
X42294947Y-64691407D01*
X42282077Y-64651797D01*
X42277841Y-64644459D01*
X42231387Y-64563999D01*
X42192591Y-64496803D01*
X42185718Y-64489169D01*
X42077258Y-64368712D01*
X42077257Y-64368711D01*
X42072836Y-64363801D01*
X42042453Y-64341726D01*
X41933387Y-64262485D01*
X41933386Y-64262484D01*
X41928045Y-64258604D01*
X41922017Y-64255920D01*
X41922015Y-64255919D01*
X41770577Y-64188495D01*
X41770576Y-64188495D01*
X41764546Y-64185810D01*
X41677016Y-64167205D01*
X41595943Y-64149972D01*
X41595939Y-64149972D01*
X41589486Y-64148600D01*
X41410514Y-64148600D01*
X41404061Y-64149972D01*
X41404057Y-64149972D01*
X41322984Y-64167205D01*
X41235454Y-64185810D01*
X41229424Y-64188495D01*
X41229423Y-64188495D01*
X41077985Y-64255919D01*
X41077983Y-64255920D01*
X41071955Y-64258604D01*
X41066614Y-64262484D01*
X41066613Y-64262485D01*
X40957548Y-64341726D01*
X40927164Y-64363801D01*
X40922743Y-64368711D01*
X40922742Y-64368712D01*
X40814283Y-64489169D01*
X40807409Y-64496803D01*
X40768613Y-64563999D01*
X40722160Y-64644459D01*
X40717923Y-64651797D01*
X40705053Y-64691407D01*
X40665221Y-64813999D01*
X40662618Y-64822009D01*
X40661928Y-64828572D01*
X40661928Y-64828573D01*
X40652500Y-64918274D01*
X40643910Y-65000000D01*
X38776041Y-65000000D01*
X38700502Y-64940450D01*
X38700500Y-64940449D01*
X38695963Y-64936872D01*
X38690847Y-64934181D01*
X38690845Y-64934179D01*
X38515090Y-64841710D01*
X38515088Y-64841709D01*
X38509973Y-64839018D01*
X38309266Y-64776696D01*
X38303531Y-64776017D01*
X38303530Y-64776017D01*
X38255242Y-64770302D01*
X38138626Y-64756500D01*
X37636184Y-64756500D01*
X37480221Y-64770831D01*
X37474659Y-64772400D01*
X37474657Y-64772400D01*
X37394411Y-64795032D01*
X37277951Y-64827877D01*
X37089463Y-64920829D01*
X37084837Y-64924283D01*
X37084836Y-64924284D01*
X36947633Y-65026738D01*
X36921071Y-65046573D01*
X36917157Y-65050807D01*
X36917155Y-65050809D01*
X36793786Y-65184270D01*
X36778414Y-65200899D01*
X36666269Y-65378638D01*
X36588392Y-65573837D01*
X36587267Y-65579494D01*
X36587265Y-65579500D01*
X36548519Y-65774293D01*
X36547392Y-65779960D01*
X36547316Y-65785735D01*
X36547316Y-65785739D01*
X36546979Y-65811505D01*
X36544641Y-65990102D01*
X31500000Y-65990102D01*
X31500000Y-64736630D01*
X34292482Y-64736630D01*
X34292998Y-64742774D01*
X34300013Y-64826308D01*
X34308121Y-64922867D01*
X34359636Y-65102520D01*
X34381392Y-65144852D01*
X34422576Y-65224988D01*
X34445064Y-65268746D01*
X34448887Y-65273570D01*
X34448890Y-65273574D01*
X34512577Y-65353926D01*
X34561152Y-65415212D01*
X34565846Y-65419207D01*
X34676368Y-65513269D01*
X34703478Y-65536342D01*
X34866621Y-65627519D01*
X35044367Y-65685272D01*
X35229945Y-65707401D01*
X35236080Y-65706929D01*
X35236082Y-65706929D01*
X35292119Y-65702617D01*
X35416287Y-65693063D01*
X35596296Y-65642804D01*
X35601785Y-65640031D01*
X35601791Y-65640029D01*
X35721616Y-65579500D01*
X35763114Y-65558538D01*
X35778342Y-65546641D01*
X35841265Y-65497479D01*
X35910387Y-65443475D01*
X35914413Y-65438811D01*
X35914416Y-65438808D01*
X36028480Y-65306663D01*
X36032507Y-65301998D01*
X36080219Y-65218009D01*
X36121778Y-65144852D01*
X36121779Y-65144851D01*
X36124821Y-65139495D01*
X36139091Y-65096600D01*
X36161165Y-65030241D01*
X36183814Y-64962157D01*
X36201756Y-64820133D01*
X36206796Y-64780241D01*
X36206797Y-64780232D01*
X36207238Y-64776738D01*
X36207611Y-64750000D01*
X36189373Y-64563999D01*
X36186580Y-64554746D01*
X36154130Y-64447269D01*
X36135355Y-64385083D01*
X36047615Y-64220066D01*
X36042974Y-64214375D01*
X35933388Y-64080010D01*
X35933385Y-64080007D01*
X35929493Y-64075235D01*
X35924744Y-64071306D01*
X35790239Y-63960034D01*
X35790236Y-63960032D01*
X35785489Y-63956105D01*
X35621089Y-63867214D01*
X35531822Y-63839581D01*
X35448441Y-63813770D01*
X35448438Y-63813769D01*
X35442554Y-63811948D01*
X35436429Y-63811304D01*
X35436428Y-63811304D01*
X35262813Y-63793056D01*
X35262812Y-63793056D01*
X35256685Y-63792412D01*
X35138087Y-63803206D01*
X35076703Y-63808792D01*
X35076702Y-63808792D01*
X35070562Y-63809351D01*
X35064648Y-63811092D01*
X35064646Y-63811092D01*
X34942466Y-63847052D01*
X34891273Y-63862119D01*
X34725647Y-63948705D01*
X34579995Y-64065813D01*
X34459862Y-64208981D01*
X34456899Y-64214370D01*
X34456896Y-64214375D01*
X34395951Y-64325235D01*
X34369826Y-64372757D01*
X34313315Y-64550901D01*
X34292482Y-64736630D01*
X31500000Y-64736630D01*
X31500000Y-64384459D01*
X31520002Y-64316338D01*
X31573658Y-64269845D01*
X31643932Y-64259741D01*
X31708512Y-64289235D01*
X31724745Y-64306194D01*
X31811152Y-64415212D01*
X31815846Y-64419207D01*
X31914577Y-64503234D01*
X31953478Y-64536342D01*
X32116621Y-64627519D01*
X32294367Y-64685272D01*
X32479945Y-64707401D01*
X32486080Y-64706929D01*
X32486082Y-64706929D01*
X32542119Y-64702617D01*
X32666287Y-64693063D01*
X32846296Y-64642804D01*
X32851785Y-64640031D01*
X32851791Y-64640029D01*
X32929159Y-64600947D01*
X33013114Y-64558538D01*
X33041524Y-64536342D01*
X33084812Y-64502521D01*
X33160387Y-64443475D01*
X33164413Y-64438811D01*
X33164416Y-64438808D01*
X33253402Y-64335716D01*
X33282507Y-64301998D01*
X33331764Y-64215290D01*
X33371778Y-64144852D01*
X33371779Y-64144851D01*
X33374821Y-64139495D01*
X33381259Y-64120144D01*
X33431867Y-63968009D01*
X33433814Y-63962157D01*
X33444021Y-63881362D01*
X33456796Y-63780241D01*
X33456797Y-63780232D01*
X33457238Y-63776738D01*
X33457611Y-63750000D01*
X33439373Y-63563999D01*
X33435419Y-63550901D01*
X33404985Y-63450102D01*
X36544641Y-63450102D01*
X36545620Y-63455799D01*
X36545620Y-63455800D01*
X36563198Y-63558096D01*
X36580232Y-63657228D01*
X36652972Y-63854399D01*
X36655924Y-63859360D01*
X36655924Y-63859361D01*
X36717082Y-63962157D01*
X36760426Y-64035012D01*
X36898994Y-64193019D01*
X36924882Y-64213427D01*
X37049858Y-64311950D01*
X37064037Y-64323128D01*
X37069153Y-64325819D01*
X37069155Y-64325821D01*
X37239060Y-64415212D01*
X37250027Y-64420982D01*
X37450734Y-64483304D01*
X37456469Y-64483983D01*
X37456470Y-64483983D01*
X37487032Y-64487600D01*
X37621374Y-64503500D01*
X38123816Y-64503500D01*
X38279779Y-64489169D01*
X38285341Y-64487600D01*
X38285343Y-64487600D01*
X38428345Y-64447269D01*
X38482049Y-64432123D01*
X38670537Y-64339171D01*
X38706991Y-64311950D01*
X38834305Y-64216880D01*
X38834306Y-64216879D01*
X38838929Y-64213427D01*
X38843039Y-64208981D01*
X38977667Y-64063341D01*
X38977669Y-64063338D01*
X38981586Y-64059101D01*
X39093731Y-63881362D01*
X39171608Y-63686163D01*
X39172733Y-63680506D01*
X39172735Y-63680500D01*
X39211481Y-63485707D01*
X39211481Y-63485705D01*
X39212608Y-63480040D01*
X39212926Y-63455800D01*
X39213001Y-63450102D01*
X51784641Y-63450102D01*
X51785620Y-63455799D01*
X51785620Y-63455800D01*
X51803198Y-63558096D01*
X51820232Y-63657228D01*
X51892972Y-63854399D01*
X51895924Y-63859360D01*
X51895924Y-63859361D01*
X51957082Y-63962157D01*
X52000426Y-64035012D01*
X52138994Y-64193019D01*
X52164882Y-64213427D01*
X52289858Y-64311950D01*
X52304037Y-64323128D01*
X52309153Y-64325819D01*
X52309155Y-64325821D01*
X52479060Y-64415212D01*
X52490027Y-64420982D01*
X52690734Y-64483304D01*
X52696469Y-64483983D01*
X52696470Y-64483983D01*
X52727032Y-64487600D01*
X52861374Y-64503500D01*
X53363816Y-64503500D01*
X53519779Y-64489169D01*
X53525341Y-64487600D01*
X53525343Y-64487600D01*
X53668345Y-64447269D01*
X53722049Y-64432123D01*
X53910537Y-64339171D01*
X53946991Y-64311950D01*
X54074305Y-64216880D01*
X54074306Y-64216879D01*
X54078929Y-64213427D01*
X54083039Y-64208981D01*
X54217667Y-64063341D01*
X54217669Y-64063338D01*
X54221586Y-64059101D01*
X54333731Y-63881362D01*
X54411608Y-63686163D01*
X54412733Y-63680506D01*
X54412735Y-63680500D01*
X54451481Y-63485707D01*
X54451481Y-63485705D01*
X54452608Y-63480040D01*
X54452926Y-63455800D01*
X54455283Y-63275680D01*
X54455359Y-63269898D01*
X54444892Y-63208981D01*
X54420747Y-63068469D01*
X54420747Y-63068468D01*
X54419768Y-63062772D01*
X54347028Y-62865601D01*
X54303868Y-62793056D01*
X54242528Y-62689953D01*
X54242527Y-62689952D01*
X54239574Y-62684988D01*
X54101006Y-62526981D01*
X53935963Y-62396872D01*
X53930847Y-62394181D01*
X53930845Y-62394179D01*
X53755090Y-62301710D01*
X53755088Y-62301709D01*
X53749973Y-62299018D01*
X53549266Y-62236696D01*
X53543531Y-62236017D01*
X53543530Y-62236017D01*
X53495242Y-62230302D01*
X53378626Y-62216500D01*
X52876184Y-62216500D01*
X52720221Y-62230831D01*
X52714659Y-62232400D01*
X52714657Y-62232400D01*
X52619086Y-62259354D01*
X52517951Y-62287877D01*
X52329463Y-62380829D01*
X52161071Y-62506573D01*
X52018414Y-62660899D01*
X51906269Y-62838638D01*
X51828392Y-63033837D01*
X51827267Y-63039494D01*
X51827265Y-63039500D01*
X51812665Y-63112903D01*
X51787392Y-63239960D01*
X51787316Y-63245735D01*
X51787316Y-63245739D01*
X51787000Y-63269898D01*
X51784641Y-63450102D01*
X39213001Y-63450102D01*
X39215283Y-63275680D01*
X39215359Y-63269898D01*
X39204892Y-63208981D01*
X39180747Y-63068469D01*
X39180747Y-63068468D01*
X39179768Y-63062772D01*
X39107028Y-62865601D01*
X39063868Y-62793056D01*
X39002528Y-62689953D01*
X39002527Y-62689952D01*
X38999574Y-62684988D01*
X38861006Y-62526981D01*
X38695963Y-62396872D01*
X38690847Y-62394181D01*
X38690845Y-62394179D01*
X38515090Y-62301710D01*
X38515088Y-62301709D01*
X38509973Y-62299018D01*
X38309266Y-62236696D01*
X38303531Y-62236017D01*
X38303530Y-62236017D01*
X38255242Y-62230302D01*
X38138626Y-62216500D01*
X37636184Y-62216500D01*
X37480221Y-62230831D01*
X37474659Y-62232400D01*
X37474657Y-62232400D01*
X37379086Y-62259354D01*
X37277951Y-62287877D01*
X37089463Y-62380829D01*
X36921071Y-62506573D01*
X36778414Y-62660899D01*
X36666269Y-62838638D01*
X36588392Y-63033837D01*
X36587267Y-63039494D01*
X36587265Y-63039500D01*
X36572665Y-63112903D01*
X36547392Y-63239960D01*
X36547316Y-63245735D01*
X36547316Y-63245739D01*
X36547000Y-63269898D01*
X36544641Y-63450102D01*
X33404985Y-63450102D01*
X33387136Y-63390983D01*
X33385355Y-63385083D01*
X33297615Y-63220066D01*
X33276270Y-63193894D01*
X33183388Y-63080010D01*
X33183385Y-63080007D01*
X33179493Y-63075235D01*
X33174744Y-63071306D01*
X33040239Y-62960034D01*
X33040236Y-62960032D01*
X33035489Y-62956105D01*
X32871089Y-62867214D01*
X32763001Y-62833755D01*
X32698441Y-62813770D01*
X32698438Y-62813769D01*
X32692554Y-62811948D01*
X32686429Y-62811304D01*
X32686428Y-62811304D01*
X32512813Y-62793056D01*
X32512812Y-62793056D01*
X32506685Y-62792412D01*
X32388087Y-62803206D01*
X32326703Y-62808792D01*
X32326702Y-62808792D01*
X32320562Y-62809351D01*
X32314648Y-62811092D01*
X32314646Y-62811092D01*
X32237645Y-62833755D01*
X32141273Y-62862119D01*
X31975647Y-62948705D01*
X31829995Y-63065813D01*
X31826036Y-63070531D01*
X31826029Y-63070538D01*
X31722521Y-63193894D01*
X31663412Y-63233221D01*
X31592424Y-63234347D01*
X31532097Y-63196916D01*
X31501583Y-63132811D01*
X31500000Y-63112903D01*
X31500000Y-62000000D01*
X32893910Y-62000000D01*
X32912618Y-62177991D01*
X32967923Y-62348203D01*
X32971226Y-62353925D01*
X32971227Y-62353926D01*
X32986760Y-62380829D01*
X33057409Y-62503197D01*
X33177164Y-62636199D01*
X33182506Y-62640080D01*
X33182508Y-62640082D01*
X33217884Y-62665784D01*
X33321955Y-62741396D01*
X33327983Y-62744080D01*
X33327985Y-62744081D01*
X33478972Y-62811304D01*
X33485454Y-62814190D01*
X33572984Y-62832795D01*
X33654057Y-62850028D01*
X33654061Y-62850028D01*
X33660514Y-62851400D01*
X33839486Y-62851400D01*
X33845939Y-62850028D01*
X33845943Y-62850028D01*
X33927016Y-62832795D01*
X34014546Y-62814190D01*
X34021028Y-62811304D01*
X34172015Y-62744081D01*
X34172017Y-62744080D01*
X34178045Y-62741396D01*
X34282116Y-62665784D01*
X34317492Y-62640082D01*
X34317494Y-62640080D01*
X34322836Y-62636199D01*
X34442591Y-62503197D01*
X34513240Y-62380829D01*
X34528773Y-62353926D01*
X34528774Y-62353925D01*
X34532077Y-62348203D01*
X34587382Y-62177991D01*
X34606090Y-62000000D01*
X34593761Y-61882696D01*
X34588072Y-61828573D01*
X34588072Y-61828572D01*
X34587382Y-61822009D01*
X34532077Y-61651797D01*
X34442591Y-61496803D01*
X34322836Y-61363801D01*
X34298673Y-61346245D01*
X34183387Y-61262485D01*
X34183386Y-61262484D01*
X34178045Y-61258604D01*
X34172017Y-61255920D01*
X34172015Y-61255919D01*
X34020577Y-61188495D01*
X34020576Y-61188495D01*
X34014546Y-61185810D01*
X33927016Y-61167205D01*
X33845943Y-61149972D01*
X33845939Y-61149972D01*
X33839486Y-61148600D01*
X33660514Y-61148600D01*
X33654061Y-61149972D01*
X33654057Y-61149972D01*
X33572984Y-61167205D01*
X33485454Y-61185810D01*
X33479424Y-61188495D01*
X33479423Y-61188495D01*
X33327985Y-61255919D01*
X33327983Y-61255920D01*
X33321955Y-61258604D01*
X33316614Y-61262484D01*
X33316613Y-61262485D01*
X33201328Y-61346245D01*
X33177164Y-61363801D01*
X33057409Y-61496803D01*
X32967923Y-61651797D01*
X32912618Y-61822009D01*
X32911928Y-61828572D01*
X32911928Y-61828573D01*
X32906239Y-61882696D01*
X32893910Y-62000000D01*
X31500000Y-62000000D01*
X31500000Y-59986630D01*
X32292482Y-59986630D01*
X32292998Y-59992774D01*
X32306197Y-60149953D01*
X32308121Y-60172867D01*
X32359636Y-60352520D01*
X32381392Y-60394852D01*
X32432263Y-60493837D01*
X32445064Y-60518746D01*
X32448887Y-60523570D01*
X32448890Y-60523574D01*
X32554170Y-60656402D01*
X32561152Y-60665212D01*
X32565846Y-60669207D01*
X32598819Y-60697269D01*
X32703478Y-60786342D01*
X32866621Y-60877519D01*
X33044367Y-60935272D01*
X33229945Y-60957401D01*
X33236080Y-60956929D01*
X33236082Y-60956929D01*
X33292119Y-60952617D01*
X33416287Y-60943063D01*
X33534341Y-60910102D01*
X36544641Y-60910102D01*
X36545620Y-60915799D01*
X36545620Y-60915800D01*
X36579253Y-61111531D01*
X36580232Y-61117228D01*
X36652972Y-61314399D01*
X36760426Y-61495012D01*
X36898994Y-61653019D01*
X37064037Y-61783128D01*
X37069153Y-61785819D01*
X37069155Y-61785821D01*
X37244910Y-61878290D01*
X37250027Y-61880982D01*
X37450734Y-61943304D01*
X37456469Y-61943983D01*
X37456470Y-61943983D01*
X37487032Y-61947600D01*
X37621374Y-61963500D01*
X38123816Y-61963500D01*
X38279779Y-61949169D01*
X38285341Y-61947600D01*
X38285343Y-61947600D01*
X38380914Y-61920646D01*
X38482049Y-61892123D01*
X38670537Y-61799171D01*
X38838929Y-61673427D01*
X38857794Y-61653019D01*
X38977667Y-61523341D01*
X38977669Y-61523338D01*
X38981586Y-61519101D01*
X39093731Y-61341362D01*
X39171608Y-61146163D01*
X39172733Y-61140506D01*
X39172735Y-61140500D01*
X39211481Y-60945707D01*
X39211481Y-60945705D01*
X39212608Y-60940040D01*
X39212696Y-60933368D01*
X39213000Y-60910102D01*
X51784641Y-60910102D01*
X51785620Y-60915799D01*
X51785620Y-60915800D01*
X51819253Y-61111531D01*
X51820232Y-61117228D01*
X51892972Y-61314399D01*
X52000426Y-61495012D01*
X52138994Y-61653019D01*
X52304037Y-61783128D01*
X52309153Y-61785819D01*
X52309155Y-61785821D01*
X52484910Y-61878290D01*
X52490027Y-61880982D01*
X52690734Y-61943304D01*
X52696469Y-61943983D01*
X52696470Y-61943983D01*
X52727032Y-61947600D01*
X52861374Y-61963500D01*
X53363816Y-61963500D01*
X53519779Y-61949169D01*
X53525341Y-61947600D01*
X53525343Y-61947600D01*
X53620914Y-61920646D01*
X53722049Y-61892123D01*
X53910537Y-61799171D01*
X54078929Y-61673427D01*
X54097794Y-61653019D01*
X54217667Y-61523341D01*
X54217669Y-61523338D01*
X54221586Y-61519101D01*
X54333731Y-61341362D01*
X54411608Y-61146163D01*
X54412733Y-61140506D01*
X54412735Y-61140500D01*
X54451481Y-60945707D01*
X54451481Y-60945705D01*
X54452608Y-60940040D01*
X54452696Y-60933368D01*
X54454293Y-60811314D01*
X54455359Y-60729898D01*
X54423870Y-60546641D01*
X54420747Y-60528469D01*
X54420747Y-60528468D01*
X54419768Y-60522772D01*
X54347028Y-60325601D01*
X54256160Y-60172867D01*
X54242528Y-60149953D01*
X54242527Y-60149952D01*
X54239574Y-60144988D01*
X54101006Y-59986981D01*
X53935963Y-59856872D01*
X53930847Y-59854181D01*
X53930845Y-59854179D01*
X53755090Y-59761710D01*
X53755088Y-59761709D01*
X53749973Y-59759018D01*
X53549266Y-59696696D01*
X53543531Y-59696017D01*
X53543530Y-59696017D01*
X53495242Y-59690302D01*
X53378626Y-59676500D01*
X52876184Y-59676500D01*
X52720221Y-59690831D01*
X52714659Y-59692400D01*
X52714657Y-59692400D01*
X52619086Y-59719354D01*
X52517951Y-59747877D01*
X52329463Y-59840829D01*
X52161071Y-59966573D01*
X52157157Y-59970807D01*
X52157155Y-59970809D01*
X52108713Y-60023214D01*
X52018414Y-60120899D01*
X51906269Y-60298638D01*
X51828392Y-60493837D01*
X51827267Y-60499494D01*
X51827265Y-60499500D01*
X51793509Y-60669207D01*
X51787392Y-60699960D01*
X51787316Y-60705735D01*
X51787316Y-60705739D01*
X51787000Y-60729898D01*
X51784641Y-60910102D01*
X39213000Y-60910102D01*
X39214293Y-60811314D01*
X39215359Y-60729898D01*
X39183870Y-60546641D01*
X39180747Y-60528469D01*
X39180747Y-60528468D01*
X39179768Y-60522772D01*
X39107028Y-60325601D01*
X39016160Y-60172867D01*
X39002528Y-60149953D01*
X39002527Y-60149952D01*
X38999574Y-60144988D01*
X38861006Y-59986981D01*
X38695963Y-59856872D01*
X38690847Y-59854181D01*
X38690845Y-59854179D01*
X38515090Y-59761710D01*
X38515088Y-59761709D01*
X38509973Y-59759018D01*
X38309266Y-59696696D01*
X38303531Y-59696017D01*
X38303530Y-59696017D01*
X38255242Y-59690302D01*
X38138626Y-59676500D01*
X37636184Y-59676500D01*
X37480221Y-59690831D01*
X37474659Y-59692400D01*
X37474657Y-59692400D01*
X37379086Y-59719354D01*
X37277951Y-59747877D01*
X37089463Y-59840829D01*
X36921071Y-59966573D01*
X36917157Y-59970807D01*
X36917155Y-59970809D01*
X36868713Y-60023214D01*
X36778414Y-60120899D01*
X36666269Y-60298638D01*
X36588392Y-60493837D01*
X36587267Y-60499494D01*
X36587265Y-60499500D01*
X36553509Y-60669207D01*
X36547392Y-60699960D01*
X36547316Y-60705735D01*
X36547316Y-60705739D01*
X36547000Y-60729898D01*
X36544641Y-60910102D01*
X33534341Y-60910102D01*
X33596296Y-60892804D01*
X33601785Y-60890031D01*
X33601791Y-60890029D01*
X33679159Y-60850947D01*
X33763114Y-60808538D01*
X33791524Y-60786342D01*
X33856367Y-60735680D01*
X33910387Y-60693475D01*
X33914413Y-60688811D01*
X33914416Y-60688808D01*
X34028480Y-60556663D01*
X34032507Y-60551998D01*
X34124821Y-60389495D01*
X34139091Y-60346600D01*
X34181867Y-60218009D01*
X34183814Y-60212157D01*
X34191672Y-60149953D01*
X34206796Y-60030241D01*
X34206797Y-60030232D01*
X34207238Y-60026738D01*
X34207611Y-60000000D01*
X34189373Y-59813999D01*
X34185419Y-59800901D01*
X34166760Y-59739103D01*
X34135355Y-59635083D01*
X34047615Y-59470066D01*
X34034727Y-59454264D01*
X33933388Y-59330010D01*
X33933385Y-59330007D01*
X33929493Y-59325235D01*
X33924744Y-59321306D01*
X33790239Y-59210034D01*
X33790236Y-59210032D01*
X33785489Y-59206105D01*
X33621089Y-59117214D01*
X33531821Y-59089581D01*
X33448441Y-59063770D01*
X33448438Y-59063769D01*
X33442554Y-59061948D01*
X33436429Y-59061304D01*
X33436428Y-59061304D01*
X33262813Y-59043056D01*
X33262812Y-59043056D01*
X33256685Y-59042412D01*
X33149246Y-59052190D01*
X33076703Y-59058792D01*
X33076702Y-59058792D01*
X33070562Y-59059351D01*
X33064648Y-59061092D01*
X33064646Y-59061092D01*
X32942466Y-59097052D01*
X32891273Y-59112119D01*
X32725647Y-59198705D01*
X32579995Y-59315813D01*
X32459862Y-59458981D01*
X32456899Y-59464370D01*
X32456896Y-59464375D01*
X32383509Y-59597868D01*
X32369826Y-59622757D01*
X32367965Y-59628624D01*
X32367964Y-59628626D01*
X32347734Y-59692400D01*
X32313315Y-59800901D01*
X32292482Y-59986630D01*
X31500000Y-59986630D01*
X31500000Y-59052190D01*
X31520002Y-58984069D01*
X31536905Y-58963095D01*
X32463095Y-58036905D01*
X32525407Y-58002879D01*
X32552190Y-58000000D01*
X36425679Y-58000000D01*
X36493800Y-58020002D01*
X36540293Y-58073658D01*
X36549018Y-58148537D01*
X36549123Y-58148548D01*
X36549074Y-58149015D01*
X36549257Y-58150585D01*
X36547392Y-58159960D01*
X36547316Y-58165735D01*
X36547316Y-58165739D01*
X36547000Y-58189897D01*
X36544641Y-58370102D01*
X36545620Y-58375799D01*
X36545620Y-58375800D01*
X36549785Y-58400040D01*
X36580232Y-58577228D01*
X36652972Y-58774399D01*
X36760426Y-58955012D01*
X36898994Y-59113019D01*
X36908032Y-59120144D01*
X37007687Y-59198705D01*
X37064037Y-59243128D01*
X37069153Y-59245819D01*
X37069155Y-59245821D01*
X37233960Y-59332529D01*
X37250027Y-59340982D01*
X37450734Y-59403304D01*
X37456469Y-59403983D01*
X37456470Y-59403983D01*
X37487032Y-59407600D01*
X37621374Y-59423500D01*
X38123816Y-59423500D01*
X38279779Y-59409169D01*
X38285341Y-59407600D01*
X38285343Y-59407600D01*
X38406950Y-59373303D01*
X38482049Y-59352123D01*
X38670537Y-59259171D01*
X38838929Y-59133427D01*
X38842845Y-59129191D01*
X38977667Y-58983341D01*
X38977669Y-58983338D01*
X38981586Y-58979101D01*
X39093731Y-58801362D01*
X39171608Y-58606163D01*
X39172733Y-58600506D01*
X39172735Y-58600500D01*
X39211481Y-58405707D01*
X39211481Y-58405705D01*
X39212608Y-58400040D01*
X39212926Y-58375800D01*
X39215283Y-58195680D01*
X39215359Y-58189898D01*
X39179768Y-57982772D01*
X39107028Y-57785601D01*
X39045536Y-57682243D01*
X39002528Y-57609953D01*
X39002527Y-57609952D01*
X38999574Y-57604988D01*
X38861006Y-57446981D01*
X38748130Y-57357997D01*
X38700502Y-57320450D01*
X38700500Y-57320449D01*
X38695963Y-57316872D01*
X38690847Y-57314181D01*
X38690845Y-57314179D01*
X38515090Y-57221710D01*
X38515088Y-57221709D01*
X38509973Y-57219018D01*
X38309266Y-57156696D01*
X38303531Y-57156017D01*
X38303530Y-57156017D01*
X38255242Y-57150302D01*
X38138626Y-57136500D01*
X37636184Y-57136500D01*
X37480221Y-57150831D01*
X37474659Y-57152400D01*
X37474657Y-57152400D01*
X37423858Y-57166727D01*
X37277951Y-57207877D01*
X37089463Y-57300829D01*
X37084837Y-57304283D01*
X37084836Y-57304284D01*
X36965361Y-57393500D01*
X36921071Y-57426573D01*
X36917157Y-57430807D01*
X36917155Y-57430809D01*
X36805130Y-57551998D01*
X36778414Y-57580899D01*
X36765956Y-57600644D01*
X36732562Y-57653570D01*
X36679295Y-57700509D01*
X36609108Y-57711198D01*
X36544284Y-57682243D01*
X36505404Y-57622839D01*
X36500000Y-57586335D01*
X36500000Y-56986630D01*
X50292482Y-56986630D01*
X50292998Y-56992774D01*
X50306278Y-57150914D01*
X50308121Y-57172867D01*
X50359636Y-57352520D01*
X50445064Y-57518746D01*
X50448887Y-57523570D01*
X50448890Y-57523574D01*
X50509101Y-57599540D01*
X50561152Y-57665212D01*
X50703478Y-57786342D01*
X50866621Y-57877519D01*
X51044367Y-57935272D01*
X51229945Y-57957401D01*
X51236080Y-57956929D01*
X51236082Y-57956929D01*
X51292119Y-57952617D01*
X51416287Y-57943063D01*
X51596296Y-57892804D01*
X51601789Y-57890029D01*
X51601795Y-57890027D01*
X51636970Y-57872259D01*
X51706793Y-57859399D01*
X51772483Y-57886329D01*
X51813186Y-57944499D01*
X51817359Y-58009306D01*
X51789257Y-58150586D01*
X51787392Y-58159960D01*
X51787316Y-58165735D01*
X51787316Y-58165739D01*
X51787000Y-58189897D01*
X51784641Y-58370102D01*
X51785620Y-58375799D01*
X51785620Y-58375800D01*
X51789785Y-58400040D01*
X51820232Y-58577228D01*
X51892972Y-58774399D01*
X52000426Y-58955012D01*
X52138994Y-59113019D01*
X52148032Y-59120144D01*
X52247687Y-59198705D01*
X52304037Y-59243128D01*
X52309153Y-59245819D01*
X52309155Y-59245821D01*
X52473960Y-59332529D01*
X52490027Y-59340982D01*
X52690734Y-59403304D01*
X52696469Y-59403983D01*
X52696470Y-59403983D01*
X52727032Y-59407600D01*
X52861374Y-59423500D01*
X53363816Y-59423500D01*
X53519779Y-59409169D01*
X53525341Y-59407600D01*
X53525343Y-59407600D01*
X53646950Y-59373303D01*
X53722049Y-59352123D01*
X53910537Y-59259171D01*
X54078929Y-59133427D01*
X54082845Y-59129191D01*
X54217667Y-58983341D01*
X54217669Y-58983338D01*
X54221586Y-58979101D01*
X54333731Y-58801362D01*
X54411608Y-58606163D01*
X54412733Y-58600506D01*
X54412735Y-58600500D01*
X54451481Y-58405707D01*
X54451481Y-58405705D01*
X54452608Y-58400040D01*
X54452926Y-58375800D01*
X54455283Y-58195680D01*
X54455359Y-58189898D01*
X54419768Y-57982772D01*
X54347028Y-57785601D01*
X54285536Y-57682243D01*
X54242528Y-57609953D01*
X54242527Y-57609952D01*
X54239574Y-57604988D01*
X54101006Y-57446981D01*
X53988130Y-57357997D01*
X53940502Y-57320450D01*
X53940500Y-57320449D01*
X53935963Y-57316872D01*
X53930847Y-57314181D01*
X53930845Y-57314179D01*
X53755090Y-57221710D01*
X53755088Y-57221709D01*
X53749973Y-57219018D01*
X53549266Y-57156696D01*
X53543531Y-57156017D01*
X53543530Y-57156017D01*
X53495242Y-57150302D01*
X53378626Y-57136500D01*
X52876184Y-57136500D01*
X52720221Y-57150831D01*
X52714659Y-57152400D01*
X52714657Y-57152400D01*
X52663858Y-57166727D01*
X52517951Y-57207877D01*
X52372283Y-57279713D01*
X52302343Y-57291902D01*
X52236914Y-57264343D01*
X52196770Y-57205785D01*
X52191551Y-57150914D01*
X52206796Y-57030241D01*
X52206797Y-57030232D01*
X52207238Y-57026738D01*
X52207611Y-57000000D01*
X52194485Y-56866135D01*
X52207744Y-56796388D01*
X52256607Y-56744881D01*
X52325559Y-56727968D01*
X52378548Y-56742330D01*
X52490027Y-56800982D01*
X52690734Y-56863304D01*
X52696469Y-56863983D01*
X52696470Y-56863983D01*
X52714662Y-56866136D01*
X52861374Y-56883500D01*
X53363816Y-56883500D01*
X53519779Y-56869169D01*
X53525341Y-56867600D01*
X53525343Y-56867600D01*
X53620914Y-56840646D01*
X53722049Y-56812123D01*
X53910537Y-56719171D01*
X54078929Y-56593427D01*
X54101805Y-56568680D01*
X54217667Y-56443341D01*
X54217669Y-56443338D01*
X54221586Y-56439101D01*
X54333731Y-56261362D01*
X54411608Y-56066163D01*
X54412733Y-56060506D01*
X54412735Y-56060500D01*
X54451481Y-55865707D01*
X54451481Y-55865705D01*
X54452608Y-55860040D01*
X54452926Y-55835800D01*
X54455283Y-55655680D01*
X54455359Y-55649898D01*
X54419768Y-55442772D01*
X54347028Y-55245601D01*
X54330987Y-55218638D01*
X54242528Y-55069953D01*
X54242527Y-55069952D01*
X54239574Y-55064988D01*
X54101006Y-54906981D01*
X53935963Y-54776872D01*
X53930847Y-54774181D01*
X53930845Y-54774179D01*
X53755090Y-54681710D01*
X53755088Y-54681709D01*
X53749973Y-54679018D01*
X53549266Y-54616696D01*
X53543531Y-54616017D01*
X53543530Y-54616017D01*
X53495242Y-54610302D01*
X53378626Y-54596500D01*
X52876184Y-54596500D01*
X52720221Y-54610831D01*
X52714659Y-54612400D01*
X52714657Y-54612400D01*
X52619086Y-54639354D01*
X52517951Y-54667877D01*
X52329463Y-54760829D01*
X52161071Y-54886573D01*
X52157157Y-54890807D01*
X52157155Y-54890809D01*
X52067820Y-54987452D01*
X52018414Y-55040899D01*
X51906269Y-55218638D01*
X51828392Y-55413837D01*
X51827267Y-55419494D01*
X51827265Y-55419500D01*
X51788519Y-55614293D01*
X51787392Y-55619960D01*
X51787316Y-55625735D01*
X51787316Y-55625739D01*
X51787000Y-55649898D01*
X51784641Y-55830102D01*
X51785620Y-55835799D01*
X51785620Y-55835800D01*
X51811886Y-55988656D01*
X51803709Y-56059180D01*
X51758702Y-56114088D01*
X51691155Y-56135947D01*
X51632442Y-56121943D01*
X51632194Y-56122534D01*
X51628618Y-56121031D01*
X51627780Y-56120831D01*
X51626514Y-56120146D01*
X51626503Y-56120141D01*
X51621089Y-56117214D01*
X51531821Y-56089581D01*
X51448441Y-56063770D01*
X51448438Y-56063769D01*
X51442554Y-56061948D01*
X51436429Y-56061304D01*
X51436428Y-56061304D01*
X51262813Y-56043056D01*
X51262812Y-56043056D01*
X51256685Y-56042412D01*
X51138087Y-56053206D01*
X51076703Y-56058792D01*
X51076702Y-56058792D01*
X51070562Y-56059351D01*
X51064648Y-56061092D01*
X51064646Y-56061092D01*
X50942466Y-56097052D01*
X50891273Y-56112119D01*
X50725647Y-56198705D01*
X50579995Y-56315813D01*
X50459862Y-56458981D01*
X50456899Y-56464370D01*
X50456896Y-56464375D01*
X50395206Y-56576590D01*
X50369826Y-56622757D01*
X50313315Y-56800901D01*
X50292482Y-56986630D01*
X36500000Y-56986630D01*
X36500000Y-56435496D01*
X36520002Y-56367375D01*
X36573658Y-56320882D01*
X36643932Y-56310778D01*
X36708512Y-56340272D01*
X36734285Y-56371073D01*
X36760426Y-56415012D01*
X36898994Y-56573019D01*
X37064037Y-56703128D01*
X37069153Y-56705819D01*
X37069155Y-56705821D01*
X37143396Y-56744881D01*
X37250027Y-56800982D01*
X37450734Y-56863304D01*
X37456469Y-56863983D01*
X37456470Y-56863983D01*
X37474662Y-56866136D01*
X37621374Y-56883500D01*
X38123816Y-56883500D01*
X38279779Y-56869169D01*
X38285341Y-56867600D01*
X38285343Y-56867600D01*
X38380914Y-56840646D01*
X38482049Y-56812123D01*
X38670537Y-56719171D01*
X38838929Y-56593427D01*
X38861805Y-56568680D01*
X38977667Y-56443341D01*
X38977669Y-56443338D01*
X38981586Y-56439101D01*
X39093731Y-56261362D01*
X39171608Y-56066163D01*
X39172733Y-56060506D01*
X39172735Y-56060500D01*
X39211481Y-55865707D01*
X39211481Y-55865705D01*
X39212608Y-55860040D01*
X39212926Y-55835800D01*
X39215283Y-55655680D01*
X39215359Y-55649898D01*
X39179768Y-55442772D01*
X39107028Y-55245601D01*
X39090987Y-55218638D01*
X39002528Y-55069953D01*
X39002527Y-55069952D01*
X38999574Y-55064988D01*
X38861006Y-54906981D01*
X38695963Y-54776872D01*
X38690847Y-54774181D01*
X38690845Y-54774179D01*
X38515090Y-54681710D01*
X38515088Y-54681709D01*
X38509973Y-54679018D01*
X38309266Y-54616696D01*
X38303531Y-54616017D01*
X38303530Y-54616017D01*
X38255242Y-54610302D01*
X38138626Y-54596500D01*
X37636184Y-54596500D01*
X37480221Y-54610831D01*
X37474659Y-54612400D01*
X37474657Y-54612400D01*
X37379086Y-54639354D01*
X37277951Y-54667877D01*
X37089463Y-54760829D01*
X36921071Y-54886573D01*
X36917157Y-54890807D01*
X36917155Y-54890809D01*
X36827820Y-54987452D01*
X36778414Y-55040899D01*
X36775332Y-55045784D01*
X36732562Y-55113570D01*
X36679295Y-55160509D01*
X36609108Y-55171198D01*
X36544284Y-55142243D01*
X36505404Y-55082839D01*
X36500000Y-55046335D01*
X36500000Y-53895496D01*
X36520002Y-53827375D01*
X36573658Y-53780882D01*
X36643932Y-53770778D01*
X36708512Y-53800272D01*
X36734285Y-53831073D01*
X36760426Y-53875012D01*
X36898994Y-54033019D01*
X37064037Y-54163128D01*
X37069153Y-54165819D01*
X37069155Y-54165821D01*
X37244910Y-54258290D01*
X37250027Y-54260982D01*
X37450734Y-54323304D01*
X37456469Y-54323983D01*
X37456470Y-54323983D01*
X37487032Y-54327600D01*
X37621374Y-54343500D01*
X38123816Y-54343500D01*
X38279779Y-54329169D01*
X38285341Y-54327600D01*
X38285343Y-54327600D01*
X38380914Y-54300646D01*
X38482049Y-54272123D01*
X38670537Y-54179171D01*
X38838929Y-54053427D01*
X38981586Y-53899101D01*
X39093731Y-53721362D01*
X39171608Y-53526163D01*
X39172733Y-53520506D01*
X39172735Y-53520500D01*
X39211481Y-53325707D01*
X39211481Y-53325705D01*
X39212608Y-53320040D01*
X39212926Y-53295800D01*
X39213001Y-53290102D01*
X51784641Y-53290102D01*
X51820232Y-53497228D01*
X51892972Y-53694399D01*
X52000426Y-53875012D01*
X52138994Y-54033019D01*
X52304037Y-54163128D01*
X52309153Y-54165819D01*
X52309155Y-54165821D01*
X52484910Y-54258290D01*
X52490027Y-54260982D01*
X52690734Y-54323304D01*
X52696469Y-54323983D01*
X52696470Y-54323983D01*
X52727032Y-54327600D01*
X52861374Y-54343500D01*
X53363816Y-54343500D01*
X53519779Y-54329169D01*
X53525341Y-54327600D01*
X53525343Y-54327600D01*
X53620914Y-54300646D01*
X53722049Y-54272123D01*
X53910537Y-54179171D01*
X54078929Y-54053427D01*
X54221586Y-53899101D01*
X54333731Y-53721362D01*
X54411608Y-53526163D01*
X54412733Y-53520506D01*
X54412735Y-53520500D01*
X54451481Y-53325707D01*
X54451481Y-53325705D01*
X54452608Y-53320040D01*
X54452926Y-53295800D01*
X54455283Y-53115680D01*
X54455359Y-53109898D01*
X54450575Y-53082054D01*
X54420747Y-52908469D01*
X54420747Y-52908468D01*
X54419768Y-52902772D01*
X54347028Y-52705601D01*
X54285536Y-52602243D01*
X54242528Y-52529953D01*
X54242527Y-52529952D01*
X54239574Y-52524988D01*
X54101006Y-52366981D01*
X53935963Y-52236872D01*
X53930847Y-52234181D01*
X53930845Y-52234179D01*
X53755090Y-52141710D01*
X53755088Y-52141709D01*
X53749973Y-52139018D01*
X53549266Y-52076696D01*
X53543531Y-52076017D01*
X53543530Y-52076017D01*
X53495242Y-52070302D01*
X53378626Y-52056500D01*
X52876184Y-52056500D01*
X52720221Y-52070831D01*
X52714659Y-52072400D01*
X52714657Y-52072400D01*
X52619086Y-52099354D01*
X52517951Y-52127877D01*
X52329463Y-52220829D01*
X52161071Y-52346573D01*
X52018414Y-52500899D01*
X51906269Y-52678638D01*
X51828392Y-52873837D01*
X51827267Y-52879494D01*
X51827265Y-52879500D01*
X51821503Y-52908469D01*
X51787392Y-53079960D01*
X51787316Y-53085735D01*
X51787316Y-53085739D01*
X51787000Y-53109898D01*
X51784641Y-53290102D01*
X39213001Y-53290102D01*
X39215283Y-53115680D01*
X39215359Y-53109898D01*
X39210575Y-53082054D01*
X39180747Y-52908469D01*
X39180747Y-52908468D01*
X39179768Y-52902772D01*
X39107028Y-52705601D01*
X39045536Y-52602243D01*
X39002528Y-52529953D01*
X39002527Y-52529952D01*
X38999574Y-52524988D01*
X38861006Y-52366981D01*
X38695963Y-52236872D01*
X38690847Y-52234181D01*
X38690845Y-52234179D01*
X38515090Y-52141710D01*
X38515088Y-52141709D01*
X38509973Y-52139018D01*
X38309266Y-52076696D01*
X38303531Y-52076017D01*
X38303530Y-52076017D01*
X38255242Y-52070302D01*
X38138626Y-52056500D01*
X37636184Y-52056500D01*
X37480221Y-52070831D01*
X37474659Y-52072400D01*
X37474657Y-52072400D01*
X37379086Y-52099354D01*
X37277951Y-52127877D01*
X37089463Y-52220829D01*
X36921071Y-52346573D01*
X36778414Y-52500899D01*
X36775332Y-52505784D01*
X36732562Y-52573570D01*
X36679295Y-52620509D01*
X36609108Y-52631198D01*
X36544284Y-52602243D01*
X36505404Y-52542839D01*
X36500000Y-52506335D01*
X36500000Y-51355496D01*
X36520002Y-51287375D01*
X36573658Y-51240882D01*
X36643932Y-51230778D01*
X36708512Y-51260272D01*
X36734285Y-51291073D01*
X36760426Y-51335012D01*
X36898994Y-51493019D01*
X36903524Y-51496590D01*
X37032736Y-51598452D01*
X37064037Y-51623128D01*
X37069153Y-51625819D01*
X37069155Y-51625821D01*
X37204956Y-51697269D01*
X37250027Y-51720982D01*
X37450734Y-51783304D01*
X37456469Y-51783983D01*
X37456470Y-51783983D01*
X37487032Y-51787600D01*
X37621374Y-51803500D01*
X38123816Y-51803500D01*
X38279779Y-51789169D01*
X38285341Y-51787600D01*
X38285343Y-51787600D01*
X38380914Y-51760646D01*
X38482049Y-51732123D01*
X38670537Y-51639171D01*
X38725067Y-51598452D01*
X38834305Y-51516880D01*
X38834306Y-51516879D01*
X38838929Y-51513427D01*
X38945735Y-51397885D01*
X38977667Y-51363341D01*
X38977669Y-51363338D01*
X38981586Y-51359101D01*
X39093731Y-51181362D01*
X39171422Y-50986630D01*
X49542482Y-50986630D01*
X49542998Y-50992774D01*
X49556987Y-51159361D01*
X49558121Y-51172867D01*
X49609636Y-51352520D01*
X49695064Y-51518746D01*
X49698887Y-51523570D01*
X49698890Y-51523574D01*
X49777796Y-51623128D01*
X49811152Y-51665212D01*
X49815846Y-51669207D01*
X49935729Y-51771236D01*
X49953478Y-51786342D01*
X50116621Y-51877519D01*
X50294367Y-51935272D01*
X50479945Y-51957401D01*
X50486080Y-51956929D01*
X50486082Y-51956929D01*
X50542119Y-51952617D01*
X50666287Y-51943063D01*
X50846296Y-51892804D01*
X50851785Y-51890031D01*
X50851791Y-51890029D01*
X50929159Y-51850947D01*
X51013114Y-51808538D01*
X51019563Y-51803500D01*
X51065486Y-51767621D01*
X51160387Y-51693475D01*
X51164413Y-51688811D01*
X51164416Y-51688808D01*
X51278480Y-51556663D01*
X51282507Y-51551998D01*
X51374821Y-51389495D01*
X51383522Y-51363341D01*
X51424258Y-51240882D01*
X51433814Y-51212157D01*
X51447978Y-51100037D01*
X51456796Y-51030241D01*
X51456797Y-51030232D01*
X51457238Y-51026738D01*
X51457611Y-51000000D01*
X51439373Y-50813999D01*
X51435419Y-50800901D01*
X51420082Y-50750102D01*
X51784641Y-50750102D01*
X51785620Y-50755799D01*
X51785620Y-50755800D01*
X51796675Y-50820133D01*
X51820232Y-50957228D01*
X51892972Y-51154399D01*
X51895924Y-51159360D01*
X51895924Y-51159361D01*
X51927335Y-51212157D01*
X52000426Y-51335012D01*
X52138994Y-51493019D01*
X52143524Y-51496590D01*
X52272736Y-51598452D01*
X52304037Y-51623128D01*
X52309153Y-51625819D01*
X52309155Y-51625821D01*
X52444956Y-51697269D01*
X52490027Y-51720982D01*
X52690734Y-51783304D01*
X52696469Y-51783983D01*
X52696470Y-51783983D01*
X52727032Y-51787600D01*
X52861374Y-51803500D01*
X53363816Y-51803500D01*
X53519779Y-51789169D01*
X53525341Y-51787600D01*
X53525343Y-51787600D01*
X53620914Y-51760646D01*
X53722049Y-51732123D01*
X53910537Y-51639171D01*
X53965067Y-51598452D01*
X54074305Y-51516880D01*
X54074306Y-51516879D01*
X54078929Y-51513427D01*
X54185735Y-51397885D01*
X54217667Y-51363341D01*
X54217669Y-51363338D01*
X54221586Y-51359101D01*
X54333731Y-51181362D01*
X54411608Y-50986163D01*
X54412733Y-50980506D01*
X54412735Y-50980500D01*
X54451481Y-50785707D01*
X54451481Y-50785705D01*
X54452608Y-50780040D01*
X54452926Y-50755800D01*
X54454709Y-50619542D01*
X54455359Y-50569898D01*
X54419768Y-50362772D01*
X54347028Y-50165601D01*
X54285361Y-50061948D01*
X54242528Y-49989953D01*
X54242527Y-49989952D01*
X54239574Y-49984988D01*
X54101006Y-49826981D01*
X53935963Y-49696872D01*
X53930847Y-49694181D01*
X53930845Y-49694179D01*
X53755090Y-49601710D01*
X53755088Y-49601709D01*
X53749973Y-49599018D01*
X53549266Y-49536696D01*
X53543531Y-49536017D01*
X53543530Y-49536017D01*
X53495242Y-49530302D01*
X53378626Y-49516500D01*
X52876184Y-49516500D01*
X52720221Y-49530831D01*
X52714659Y-49532400D01*
X52714657Y-49532400D01*
X52619086Y-49559354D01*
X52517951Y-49587877D01*
X52329463Y-49680829D01*
X52161071Y-49806573D01*
X52157157Y-49810807D01*
X52157155Y-49810809D01*
X52146074Y-49822797D01*
X52018414Y-49960899D01*
X51906269Y-50138638D01*
X51828392Y-50333837D01*
X51827267Y-50339494D01*
X51827265Y-50339500D01*
X51800212Y-50475507D01*
X51787392Y-50539960D01*
X51787316Y-50545735D01*
X51787316Y-50545739D01*
X51787000Y-50569898D01*
X51784641Y-50750102D01*
X51420082Y-50750102D01*
X51387136Y-50640983D01*
X51385355Y-50635083D01*
X51297615Y-50470066D01*
X51292974Y-50464375D01*
X51183388Y-50330010D01*
X51183385Y-50330007D01*
X51179493Y-50325235D01*
X51174744Y-50321306D01*
X51040239Y-50210034D01*
X51040236Y-50210032D01*
X51035489Y-50206105D01*
X50871089Y-50117214D01*
X50752515Y-50080509D01*
X50698441Y-50063770D01*
X50698438Y-50063769D01*
X50692554Y-50061948D01*
X50686429Y-50061304D01*
X50686428Y-50061304D01*
X50512813Y-50043056D01*
X50512812Y-50043056D01*
X50506685Y-50042412D01*
X50388087Y-50053206D01*
X50326703Y-50058792D01*
X50326702Y-50058792D01*
X50320562Y-50059351D01*
X50314648Y-50061092D01*
X50314646Y-50061092D01*
X50248674Y-50080509D01*
X50141273Y-50112119D01*
X50135808Y-50114976D01*
X50048462Y-50160639D01*
X49975647Y-50198705D01*
X49829995Y-50315813D01*
X49709862Y-50458981D01*
X49706899Y-50464370D01*
X49706896Y-50464375D01*
X49652018Y-50564200D01*
X49619826Y-50622757D01*
X49563315Y-50800901D01*
X49542482Y-50986630D01*
X39171422Y-50986630D01*
X39171608Y-50986163D01*
X39172733Y-50980506D01*
X39172735Y-50980500D01*
X39211481Y-50785707D01*
X39211481Y-50785705D01*
X39212608Y-50780040D01*
X39212926Y-50755800D01*
X39214709Y-50619542D01*
X39215359Y-50569898D01*
X39179768Y-50362772D01*
X39107028Y-50165601D01*
X39045361Y-50061948D01*
X39002528Y-49989953D01*
X39002527Y-49989952D01*
X38999574Y-49984988D01*
X38861006Y-49826981D01*
X38695963Y-49696872D01*
X38690847Y-49694181D01*
X38690845Y-49694179D01*
X38515090Y-49601710D01*
X38515088Y-49601709D01*
X38509973Y-49599018D01*
X38309266Y-49536696D01*
X38303531Y-49536017D01*
X38303530Y-49536017D01*
X38255242Y-49530302D01*
X38138626Y-49516500D01*
X37636184Y-49516500D01*
X37480221Y-49530831D01*
X37474659Y-49532400D01*
X37474657Y-49532400D01*
X37379086Y-49559354D01*
X37277951Y-49587877D01*
X37089463Y-49680829D01*
X36921071Y-49806573D01*
X36917157Y-49810807D01*
X36917155Y-49810809D01*
X36906074Y-49822797D01*
X36778414Y-49960899D01*
X36775332Y-49965784D01*
X36732562Y-50033570D01*
X36679295Y-50080509D01*
X36609108Y-50091198D01*
X36544284Y-50062243D01*
X36505404Y-50002839D01*
X36500000Y-49966335D01*
X36500000Y-48815496D01*
X36520002Y-48747375D01*
X36573658Y-48700882D01*
X36643932Y-48690778D01*
X36708512Y-48720272D01*
X36734285Y-48751073D01*
X36760426Y-48795012D01*
X36898994Y-48953019D01*
X37064037Y-49083128D01*
X37069153Y-49085819D01*
X37069155Y-49085821D01*
X37244910Y-49178290D01*
X37250027Y-49180982D01*
X37450734Y-49243304D01*
X37456469Y-49243983D01*
X37456470Y-49243983D01*
X37487032Y-49247600D01*
X37621374Y-49263500D01*
X38123816Y-49263500D01*
X38279779Y-49249169D01*
X38285341Y-49247600D01*
X38285343Y-49247600D01*
X38380914Y-49220646D01*
X38482049Y-49192123D01*
X38670537Y-49099171D01*
X38838929Y-48973427D01*
X38981586Y-48819101D01*
X39093731Y-48641362D01*
X39171608Y-48446163D01*
X39172733Y-48440506D01*
X39172735Y-48440500D01*
X39211481Y-48245707D01*
X39211481Y-48245705D01*
X39212608Y-48240040D01*
X39212926Y-48215800D01*
X39213001Y-48210102D01*
X51784641Y-48210102D01*
X51820232Y-48417228D01*
X51892972Y-48614399D01*
X52000426Y-48795012D01*
X52138994Y-48953019D01*
X52304037Y-49083128D01*
X52309153Y-49085819D01*
X52309155Y-49085821D01*
X52484910Y-49178290D01*
X52490027Y-49180982D01*
X52690734Y-49243304D01*
X52696469Y-49243983D01*
X52696470Y-49243983D01*
X52727032Y-49247600D01*
X52861374Y-49263500D01*
X53363816Y-49263500D01*
X53519779Y-49249169D01*
X53525341Y-49247600D01*
X53525343Y-49247600D01*
X53620914Y-49220646D01*
X53722049Y-49192123D01*
X53910537Y-49099171D01*
X54078929Y-48973427D01*
X54221586Y-48819101D01*
X54333731Y-48641362D01*
X54411608Y-48446163D01*
X54412733Y-48440506D01*
X54412735Y-48440500D01*
X54451481Y-48245707D01*
X54451481Y-48245705D01*
X54452608Y-48240040D01*
X54452926Y-48215800D01*
X54455283Y-48035680D01*
X54455359Y-48029898D01*
X54419768Y-47822772D01*
X54347028Y-47625601D01*
X54317950Y-47576725D01*
X54242528Y-47449953D01*
X54242527Y-47449952D01*
X54239574Y-47444988D01*
X54101006Y-47286981D01*
X54002942Y-47209674D01*
X53940502Y-47160450D01*
X53940500Y-47160449D01*
X53935963Y-47156872D01*
X53930847Y-47154181D01*
X53930845Y-47154179D01*
X53755090Y-47061710D01*
X53755088Y-47061709D01*
X53749973Y-47059018D01*
X53549266Y-46996696D01*
X53543531Y-46996017D01*
X53543530Y-46996017D01*
X53495242Y-46990302D01*
X53378626Y-46976500D01*
X52876184Y-46976500D01*
X52720221Y-46990831D01*
X52714659Y-46992400D01*
X52714657Y-46992400D01*
X52676374Y-47003197D01*
X52517951Y-47047877D01*
X52329463Y-47140829D01*
X52161071Y-47266573D01*
X52018414Y-47420899D01*
X51906269Y-47598638D01*
X51828392Y-47793837D01*
X51827267Y-47799494D01*
X51827265Y-47799500D01*
X51821503Y-47828469D01*
X51787392Y-47999960D01*
X51787316Y-48005735D01*
X51787316Y-48005739D01*
X51787000Y-48029898D01*
X51784641Y-48210102D01*
X39213001Y-48210102D01*
X39215283Y-48035680D01*
X39215359Y-48029898D01*
X39179768Y-47822772D01*
X39107028Y-47625601D01*
X39077950Y-47576725D01*
X39002528Y-47449953D01*
X39002527Y-47449952D01*
X38999574Y-47444988D01*
X38861006Y-47286981D01*
X38762942Y-47209674D01*
X38700502Y-47160450D01*
X38700500Y-47160449D01*
X38695963Y-47156872D01*
X38690847Y-47154181D01*
X38690845Y-47154179D01*
X38515090Y-47061710D01*
X38515088Y-47061709D01*
X38509973Y-47059018D01*
X38309266Y-46996696D01*
X38303531Y-46996017D01*
X38303530Y-46996017D01*
X38255242Y-46990302D01*
X38138626Y-46976500D01*
X37636184Y-46976500D01*
X37480221Y-46990831D01*
X37474659Y-46992400D01*
X37474657Y-46992400D01*
X37436374Y-47003197D01*
X37277951Y-47047877D01*
X37089463Y-47140829D01*
X36921071Y-47266573D01*
X36778414Y-47420899D01*
X36775332Y-47425784D01*
X36732562Y-47493570D01*
X36679295Y-47540509D01*
X36609108Y-47551198D01*
X36544284Y-47522243D01*
X36505404Y-47462839D01*
X36500000Y-47426335D01*
X36500000Y-46275496D01*
X36520002Y-46207375D01*
X36573658Y-46160882D01*
X36643932Y-46150778D01*
X36708512Y-46180272D01*
X36734285Y-46211073D01*
X36760426Y-46255012D01*
X36898994Y-46413019D01*
X37064037Y-46543128D01*
X37069153Y-46545819D01*
X37069155Y-46545821D01*
X37244910Y-46638290D01*
X37250027Y-46640982D01*
X37450734Y-46703304D01*
X37456469Y-46703983D01*
X37456470Y-46703983D01*
X37487032Y-46707600D01*
X37621374Y-46723500D01*
X38123816Y-46723500D01*
X38279779Y-46709169D01*
X38285341Y-46707600D01*
X38285343Y-46707600D01*
X38390328Y-46677991D01*
X38482049Y-46652123D01*
X38670537Y-46559171D01*
X38838929Y-46433427D01*
X38861805Y-46408680D01*
X38977667Y-46283341D01*
X38977669Y-46283338D01*
X38981586Y-46279101D01*
X39093731Y-46101362D01*
X39171608Y-45906163D01*
X39172733Y-45900506D01*
X39172735Y-45900500D01*
X39211481Y-45705707D01*
X39211481Y-45705705D01*
X39212608Y-45700040D01*
X39212795Y-45685810D01*
X39215283Y-45495680D01*
X39215359Y-45489898D01*
X39179768Y-45282772D01*
X39107028Y-45085601D01*
X39045536Y-44982243D01*
X39002528Y-44909953D01*
X39002527Y-44909952D01*
X38999574Y-44904988D01*
X38861006Y-44746981D01*
X38695963Y-44616872D01*
X38690847Y-44614181D01*
X38690845Y-44614179D01*
X38515090Y-44521710D01*
X38515088Y-44521709D01*
X38509973Y-44519018D01*
X38309266Y-44456696D01*
X38303531Y-44456017D01*
X38303530Y-44456017D01*
X38255242Y-44450302D01*
X38138626Y-44436500D01*
X37636184Y-44436500D01*
X37480221Y-44450831D01*
X37474659Y-44452400D01*
X37474657Y-44452400D01*
X37379086Y-44479354D01*
X37277951Y-44507877D01*
X37089463Y-44600829D01*
X36921071Y-44726573D01*
X36778414Y-44880899D01*
X36775332Y-44885784D01*
X36732562Y-44953570D01*
X36679295Y-45000509D01*
X36609108Y-45011198D01*
X36544284Y-44982243D01*
X36505404Y-44922839D01*
X36500000Y-44886335D01*
X36500000Y-43735496D01*
X36520002Y-43667375D01*
X36573658Y-43620882D01*
X36643932Y-43610778D01*
X36708512Y-43640272D01*
X36734285Y-43671073D01*
X36760426Y-43715012D01*
X36898994Y-43873019D01*
X37064037Y-44003128D01*
X37069153Y-44005819D01*
X37069155Y-44005821D01*
X37244910Y-44098290D01*
X37250027Y-44100982D01*
X37450734Y-44163304D01*
X37456469Y-44163983D01*
X37456470Y-44163983D01*
X37487032Y-44167600D01*
X37621374Y-44183500D01*
X38123816Y-44183500D01*
X38279779Y-44169169D01*
X38285341Y-44167600D01*
X38285343Y-44167600D01*
X38380914Y-44140646D01*
X38482049Y-44112123D01*
X38670537Y-44019171D01*
X38838929Y-43893427D01*
X38981586Y-43739101D01*
X39093731Y-43561362D01*
X39171608Y-43366163D01*
X39172733Y-43360506D01*
X39172735Y-43360500D01*
X39211481Y-43165707D01*
X39211481Y-43165705D01*
X39212608Y-43160040D01*
X39212926Y-43135800D01*
X39213001Y-43130102D01*
X51784641Y-43130102D01*
X51820232Y-43337228D01*
X51892972Y-43534399D01*
X52000426Y-43715012D01*
X52138994Y-43873019D01*
X52304037Y-44003128D01*
X52309153Y-44005819D01*
X52309155Y-44005821D01*
X52484910Y-44098290D01*
X52490027Y-44100982D01*
X52690734Y-44163304D01*
X52696469Y-44163983D01*
X52696470Y-44163983D01*
X52727032Y-44167600D01*
X52861374Y-44183500D01*
X53363816Y-44183500D01*
X53519779Y-44169169D01*
X53525341Y-44167600D01*
X53525343Y-44167600D01*
X53620914Y-44140646D01*
X53722049Y-44112123D01*
X53910537Y-44019171D01*
X54078929Y-43893427D01*
X54221586Y-43739101D01*
X54333731Y-43561362D01*
X54411608Y-43366163D01*
X54412733Y-43360506D01*
X54412735Y-43360500D01*
X54451481Y-43165707D01*
X54451481Y-43165705D01*
X54452608Y-43160040D01*
X54452926Y-43135800D01*
X54455283Y-42955680D01*
X54455359Y-42949898D01*
X54419768Y-42742772D01*
X54347028Y-42545601D01*
X54285536Y-42442243D01*
X54242528Y-42369953D01*
X54242527Y-42369952D01*
X54239574Y-42364988D01*
X54101006Y-42206981D01*
X53935963Y-42076872D01*
X53930847Y-42074181D01*
X53930845Y-42074179D01*
X53755090Y-41981710D01*
X53755088Y-41981709D01*
X53749973Y-41979018D01*
X53549266Y-41916696D01*
X53543531Y-41916017D01*
X53543530Y-41916017D01*
X53495242Y-41910302D01*
X53378626Y-41896500D01*
X52876184Y-41896500D01*
X52720221Y-41910831D01*
X52714659Y-41912400D01*
X52714657Y-41912400D01*
X52619086Y-41939354D01*
X52517951Y-41967877D01*
X52329463Y-42060829D01*
X52161071Y-42186573D01*
X52018414Y-42340899D01*
X51906269Y-42518638D01*
X51828392Y-42713837D01*
X51827267Y-42719494D01*
X51827265Y-42719500D01*
X51821503Y-42748469D01*
X51787392Y-42919960D01*
X51787316Y-42925735D01*
X51787316Y-42925739D01*
X51787000Y-42949898D01*
X51784641Y-43130102D01*
X39213001Y-43130102D01*
X39215283Y-42955680D01*
X39215359Y-42949898D01*
X39179768Y-42742772D01*
X39107028Y-42545601D01*
X39045536Y-42442243D01*
X39002528Y-42369953D01*
X39002527Y-42369952D01*
X38999574Y-42364988D01*
X38861006Y-42206981D01*
X38695963Y-42076872D01*
X38690847Y-42074181D01*
X38690845Y-42074179D01*
X38515090Y-41981710D01*
X38515088Y-41981709D01*
X38509973Y-41979018D01*
X38309266Y-41916696D01*
X38303531Y-41916017D01*
X38303530Y-41916017D01*
X38255242Y-41910302D01*
X38138626Y-41896500D01*
X37636184Y-41896500D01*
X37480221Y-41910831D01*
X37474659Y-41912400D01*
X37474657Y-41912400D01*
X37379086Y-41939354D01*
X37277951Y-41967877D01*
X37089463Y-42060829D01*
X36921071Y-42186573D01*
X36778414Y-42340899D01*
X36775332Y-42345784D01*
X36732562Y-42413570D01*
X36679295Y-42460509D01*
X36609108Y-42471198D01*
X36544284Y-42442243D01*
X36505404Y-42382839D01*
X36500000Y-42346335D01*
X36500000Y-41195496D01*
X36520002Y-41127375D01*
X36573658Y-41080882D01*
X36643932Y-41070778D01*
X36708512Y-41100272D01*
X36734285Y-41131073D01*
X36760426Y-41175012D01*
X36898994Y-41333019D01*
X37064037Y-41463128D01*
X37069153Y-41465819D01*
X37069155Y-41465821D01*
X37244910Y-41558290D01*
X37250027Y-41560982D01*
X37450734Y-41623304D01*
X37456469Y-41623983D01*
X37456470Y-41623983D01*
X37487032Y-41627600D01*
X37621374Y-41643500D01*
X38123816Y-41643500D01*
X38279779Y-41629169D01*
X38285341Y-41627600D01*
X38285343Y-41627600D01*
X38380914Y-41600646D01*
X38482049Y-41572123D01*
X38670537Y-41479171D01*
X38838929Y-41353427D01*
X38981586Y-41199101D01*
X39093731Y-41021362D01*
X39171608Y-40826163D01*
X39172733Y-40820506D01*
X39172735Y-40820500D01*
X39211481Y-40625707D01*
X39211481Y-40625705D01*
X39212608Y-40620040D01*
X39212926Y-40595800D01*
X39213001Y-40590102D01*
X51784641Y-40590102D01*
X51820232Y-40797228D01*
X51892972Y-40994399D01*
X52000426Y-41175012D01*
X52138994Y-41333019D01*
X52304037Y-41463128D01*
X52309153Y-41465819D01*
X52309155Y-41465821D01*
X52484910Y-41558290D01*
X52490027Y-41560982D01*
X52690734Y-41623304D01*
X52696469Y-41623983D01*
X52696470Y-41623983D01*
X52727032Y-41627600D01*
X52861374Y-41643500D01*
X53363816Y-41643500D01*
X53519779Y-41629169D01*
X53525341Y-41627600D01*
X53525343Y-41627600D01*
X53620914Y-41600646D01*
X53722049Y-41572123D01*
X53910537Y-41479171D01*
X54078929Y-41353427D01*
X54221586Y-41199101D01*
X54333731Y-41021362D01*
X54411608Y-40826163D01*
X54412733Y-40820506D01*
X54412735Y-40820500D01*
X54451481Y-40625707D01*
X54451481Y-40625705D01*
X54452608Y-40620040D01*
X54452926Y-40595800D01*
X54455283Y-40415680D01*
X54455359Y-40409898D01*
X54419768Y-40202772D01*
X54347028Y-40005601D01*
X54285536Y-39902243D01*
X54242528Y-39829953D01*
X54242527Y-39829952D01*
X54239574Y-39824988D01*
X54101006Y-39666981D01*
X53935963Y-39536872D01*
X53930847Y-39534181D01*
X53930845Y-39534179D01*
X53755090Y-39441710D01*
X53755088Y-39441709D01*
X53749973Y-39439018D01*
X53549266Y-39376696D01*
X53543531Y-39376017D01*
X53543530Y-39376017D01*
X53495242Y-39370302D01*
X53378626Y-39356500D01*
X52876184Y-39356500D01*
X52720221Y-39370831D01*
X52714659Y-39372400D01*
X52714657Y-39372400D01*
X52619086Y-39399354D01*
X52517951Y-39427877D01*
X52329463Y-39520829D01*
X52161071Y-39646573D01*
X52018414Y-39800899D01*
X51906269Y-39978638D01*
X51828392Y-40173837D01*
X51827267Y-40179494D01*
X51827265Y-40179500D01*
X51821503Y-40208469D01*
X51787392Y-40379960D01*
X51787316Y-40385735D01*
X51787316Y-40385739D01*
X51787000Y-40409898D01*
X51784641Y-40590102D01*
X39213001Y-40590102D01*
X39215283Y-40415680D01*
X39215359Y-40409898D01*
X39179768Y-40202772D01*
X39107028Y-40005601D01*
X39045536Y-39902243D01*
X39002528Y-39829953D01*
X39002527Y-39829952D01*
X38999574Y-39824988D01*
X38861006Y-39666981D01*
X38695963Y-39536872D01*
X38690847Y-39534181D01*
X38690845Y-39534179D01*
X38515090Y-39441710D01*
X38515088Y-39441709D01*
X38509973Y-39439018D01*
X38309266Y-39376696D01*
X38303531Y-39376017D01*
X38303530Y-39376017D01*
X38255242Y-39370302D01*
X38138626Y-39356500D01*
X37636184Y-39356500D01*
X37480221Y-39370831D01*
X37474659Y-39372400D01*
X37474657Y-39372400D01*
X37379086Y-39399354D01*
X37277951Y-39427877D01*
X37089463Y-39520829D01*
X36921071Y-39646573D01*
X36778414Y-39800899D01*
X36775332Y-39805784D01*
X36732562Y-39873570D01*
X36679295Y-39920509D01*
X36609108Y-39931198D01*
X36544284Y-39902243D01*
X36505404Y-39842839D01*
X36500000Y-39806335D01*
X36500000Y-38126000D01*
X36520002Y-38057879D01*
X36573658Y-38011386D01*
X36626000Y-38000000D01*
X51500000Y-38000000D01*
X51500000Y-37612300D01*
X51520002Y-37544179D01*
X51573658Y-37497686D01*
X51643932Y-37487582D01*
X51692113Y-37505039D01*
X51752262Y-37542115D01*
X51832005Y-37568564D01*
X51913611Y-37595632D01*
X51913613Y-37595632D01*
X51920139Y-37597797D01*
X51926975Y-37598497D01*
X51926978Y-37598498D01*
X51970031Y-37602909D01*
X52024600Y-37608500D01*
X53375400Y-37608500D01*
X53378646Y-37608163D01*
X53378650Y-37608163D01*
X53474308Y-37598238D01*
X53474312Y-37598237D01*
X53481166Y-37597526D01*
X53487702Y-37595345D01*
X53487704Y-37595345D01*
X53619806Y-37551272D01*
X53648946Y-37541550D01*
X53799348Y-37448478D01*
X53924305Y-37323303D01*
X54017115Y-37172738D01*
X54072797Y-37004861D01*
X54083500Y-36900400D01*
X54083500Y-36099600D01*
X54083163Y-36096350D01*
X54073238Y-36000692D01*
X54073237Y-36000688D01*
X54072526Y-35993834D01*
X54016550Y-35826054D01*
X53923478Y-35675652D01*
X53798303Y-35550695D01*
X53746764Y-35518925D01*
X53699271Y-35466154D01*
X53687847Y-35396082D01*
X53716121Y-35330958D01*
X53735045Y-35312582D01*
X53742920Y-35306396D01*
X53746852Y-35301865D01*
X53746855Y-35301862D01*
X53877621Y-35151167D01*
X53881552Y-35146637D01*
X53884552Y-35141451D01*
X53884555Y-35141447D01*
X53984467Y-34968742D01*
X53987473Y-34963546D01*
X54056861Y-34763729D01*
X54087213Y-34554396D01*
X54077433Y-34343101D01*
X54027875Y-34137466D01*
X53940326Y-33944913D01*
X53817946Y-33772389D01*
X53665150Y-33626119D01*
X53487452Y-33511380D01*
X53427354Y-33487160D01*
X53296832Y-33434558D01*
X53296829Y-33434557D01*
X53291263Y-33432314D01*
X53083663Y-33391772D01*
X53078101Y-33391500D01*
X52372154Y-33391500D01*
X52214434Y-33406548D01*
X52011466Y-33466092D01*
X52006139Y-33468836D01*
X52006138Y-33468836D01*
X51828751Y-33560196D01*
X51828748Y-33560198D01*
X51823420Y-33562942D01*
X51818705Y-33566646D01*
X51703833Y-33656879D01*
X51637908Y-33683229D01*
X51568201Y-33669754D01*
X51516846Y-33620732D01*
X51500000Y-33557793D01*
X51500000Y-32126000D01*
X51520002Y-32057879D01*
X51573658Y-32011386D01*
X51626000Y-32000000D01*
X55365500Y-32000000D01*
X55433621Y-32020002D01*
G37*
G04 #@! TD.AperFunction*
G04 #@! TA.AperFunction,Conductor*
G36*
X47942121Y-20528502D02*
G01*
X47988614Y-20582158D01*
X48000000Y-20634500D01*
X48000000Y-25500000D01*
X49104999Y-26604999D01*
X49139025Y-26667311D01*
X49133960Y-26738126D01*
X49091413Y-26794962D01*
X49051480Y-26814967D01*
X49009722Y-26827257D01*
X48891273Y-26862119D01*
X48725647Y-26948705D01*
X48579995Y-27065813D01*
X48459862Y-27208981D01*
X48456899Y-27214370D01*
X48456896Y-27214375D01*
X48383509Y-27347868D01*
X48369826Y-27372757D01*
X48367965Y-27378624D01*
X48367964Y-27378626D01*
X48348960Y-27438534D01*
X48313315Y-27550901D01*
X48292482Y-27736630D01*
X48292998Y-27742774D01*
X48303488Y-27867689D01*
X48308121Y-27922867D01*
X48309819Y-27928788D01*
X48309819Y-27928789D01*
X48318028Y-27957415D01*
X48359636Y-28102520D01*
X48445064Y-28268746D01*
X48448887Y-28273570D01*
X48448890Y-28273574D01*
X48554170Y-28406402D01*
X48561152Y-28415212D01*
X48565846Y-28419207D01*
X48598819Y-28447269D01*
X48703478Y-28536342D01*
X48866621Y-28627519D01*
X49044367Y-28685272D01*
X49229945Y-28707401D01*
X49236080Y-28706929D01*
X49236082Y-28706929D01*
X49292119Y-28702617D01*
X49416287Y-28693063D01*
X49596296Y-28642804D01*
X49601785Y-28640031D01*
X49601791Y-28640029D01*
X49679159Y-28600947D01*
X49763114Y-28558538D01*
X49791524Y-28536342D01*
X49815486Y-28517621D01*
X49910387Y-28443475D01*
X49914413Y-28438811D01*
X49914416Y-28438808D01*
X50028480Y-28306663D01*
X50032507Y-28301998D01*
X50124821Y-28139495D01*
X50126816Y-28133500D01*
X50181869Y-27968004D01*
X50181869Y-27968003D01*
X50183814Y-27962157D01*
X50184453Y-27957095D01*
X50218874Y-27895419D01*
X50281497Y-27861971D01*
X50352263Y-27867689D01*
X50396238Y-27896238D01*
X50463095Y-27963095D01*
X50497121Y-28025407D01*
X50500000Y-28052190D01*
X50500000Y-36874000D01*
X50479998Y-36942121D01*
X50426342Y-36988614D01*
X50374000Y-37000000D01*
X38321861Y-37000000D01*
X38253740Y-36979998D01*
X38207247Y-36926342D01*
X38196462Y-36886296D01*
X38189974Y-36820133D01*
X38189373Y-36813999D01*
X38185419Y-36800901D01*
X38137136Y-36640983D01*
X38135355Y-36635083D01*
X38047615Y-36470066D01*
X37985951Y-36394459D01*
X37933388Y-36330010D01*
X37933385Y-36330007D01*
X37929493Y-36325235D01*
X37918104Y-36315813D01*
X37790239Y-36210034D01*
X37790236Y-36210032D01*
X37785489Y-36206105D01*
X37621089Y-36117214D01*
X37588742Y-36107201D01*
X37529582Y-36067951D01*
X37501034Y-36002947D01*
X37500000Y-35986836D01*
X37500000Y-35486630D01*
X45292482Y-35486630D01*
X45308121Y-35672867D01*
X45359636Y-35852520D01*
X45381392Y-35894852D01*
X45428665Y-35986836D01*
X45445064Y-36018746D01*
X45448887Y-36023570D01*
X45448890Y-36023574D01*
X45515173Y-36107201D01*
X45561152Y-36165212D01*
X45565846Y-36169207D01*
X45598819Y-36197269D01*
X45703478Y-36286342D01*
X45866621Y-36377519D01*
X46044367Y-36435272D01*
X46229945Y-36457401D01*
X46236080Y-36456929D01*
X46236082Y-36456929D01*
X46292119Y-36452617D01*
X46416287Y-36443063D01*
X46596296Y-36392804D01*
X46601785Y-36390031D01*
X46601791Y-36390029D01*
X46679159Y-36350947D01*
X46763114Y-36308538D01*
X46791524Y-36286342D01*
X46815486Y-36267621D01*
X46910387Y-36193475D01*
X46914413Y-36188811D01*
X46914416Y-36188808D01*
X47028480Y-36056663D01*
X47032507Y-36051998D01*
X47124821Y-35889495D01*
X47139091Y-35846600D01*
X47181867Y-35718009D01*
X47183814Y-35712157D01*
X47189553Y-35666727D01*
X47206796Y-35530241D01*
X47206797Y-35530232D01*
X47207238Y-35526738D01*
X47207611Y-35500000D01*
X47189373Y-35313999D01*
X47185419Y-35300901D01*
X47137136Y-35140983D01*
X47135355Y-35135083D01*
X47047615Y-34970066D01*
X47034727Y-34954264D01*
X46933388Y-34830010D01*
X46933385Y-34830007D01*
X46929493Y-34825235D01*
X46924744Y-34821306D01*
X46790239Y-34710034D01*
X46790236Y-34710032D01*
X46785489Y-34706105D01*
X46621089Y-34617214D01*
X46531822Y-34589581D01*
X46448441Y-34563770D01*
X46448438Y-34563769D01*
X46442554Y-34561948D01*
X46436429Y-34561304D01*
X46436428Y-34561304D01*
X46262813Y-34543056D01*
X46262812Y-34543056D01*
X46256685Y-34542412D01*
X46138087Y-34553206D01*
X46076703Y-34558792D01*
X46076702Y-34558792D01*
X46070562Y-34559351D01*
X46064648Y-34561092D01*
X46064646Y-34561092D01*
X45942466Y-34597052D01*
X45891273Y-34612119D01*
X45725647Y-34698705D01*
X45579995Y-34815813D01*
X45499699Y-34911505D01*
X45467375Y-34950028D01*
X45459862Y-34958981D01*
X45456899Y-34964370D01*
X45456896Y-34964375D01*
X45383509Y-35097868D01*
X45369826Y-35122757D01*
X45313315Y-35300901D01*
X45292482Y-35486630D01*
X37500000Y-35486630D01*
X37500000Y-34166524D01*
X37519533Y-34100000D01*
X40543910Y-34100000D01*
X40562618Y-34277991D01*
X40617923Y-34448203D01*
X40707409Y-34603197D01*
X40827164Y-34736199D01*
X40832506Y-34740080D01*
X40832508Y-34740082D01*
X40966613Y-34837515D01*
X40971955Y-34841396D01*
X40977983Y-34844080D01*
X40977985Y-34844081D01*
X41129423Y-34911505D01*
X41135454Y-34914190D01*
X41222984Y-34932795D01*
X41304057Y-34950028D01*
X41304061Y-34950028D01*
X41310514Y-34951400D01*
X41489486Y-34951400D01*
X41495939Y-34950028D01*
X41495943Y-34950028D01*
X41577016Y-34932795D01*
X41664546Y-34914190D01*
X41670577Y-34911505D01*
X41822015Y-34844081D01*
X41822017Y-34844080D01*
X41828045Y-34841396D01*
X41833387Y-34837515D01*
X41967492Y-34740082D01*
X41967494Y-34740080D01*
X41972836Y-34736199D01*
X42092591Y-34603197D01*
X42182077Y-34448203D01*
X42237382Y-34277991D01*
X42256090Y-34100000D01*
X42237382Y-33922009D01*
X42213733Y-33849223D01*
X42184119Y-33758082D01*
X42182077Y-33751797D01*
X42145244Y-33688000D01*
X42128506Y-33619004D01*
X42145244Y-33562000D01*
X42178773Y-33503926D01*
X42178774Y-33503925D01*
X42182077Y-33498203D01*
X42215309Y-33395926D01*
X42235342Y-33334270D01*
X42235342Y-33334269D01*
X42237382Y-33327991D01*
X42256090Y-33150000D01*
X42244522Y-33039944D01*
X42238072Y-32978573D01*
X42238072Y-32978572D01*
X42237382Y-32972009D01*
X42182077Y-32801797D01*
X42092591Y-32646803D01*
X42030509Y-32577853D01*
X41977258Y-32518712D01*
X41977257Y-32518711D01*
X41972836Y-32513801D01*
X41921550Y-32476539D01*
X41833387Y-32412485D01*
X41833386Y-32412484D01*
X41828045Y-32408604D01*
X41822017Y-32405920D01*
X41822015Y-32405919D01*
X41670577Y-32338495D01*
X41670576Y-32338495D01*
X41664546Y-32335810D01*
X41577016Y-32317205D01*
X41495943Y-32299972D01*
X41495939Y-32299972D01*
X41489486Y-32298600D01*
X41310514Y-32298600D01*
X41304061Y-32299972D01*
X41304057Y-32299972D01*
X41222984Y-32317205D01*
X41135454Y-32335810D01*
X41129424Y-32338495D01*
X41129423Y-32338495D01*
X40977985Y-32405919D01*
X40977983Y-32405920D01*
X40971955Y-32408604D01*
X40966614Y-32412484D01*
X40966613Y-32412485D01*
X40878451Y-32476539D01*
X40827164Y-32513801D01*
X40822743Y-32518711D01*
X40822742Y-32518712D01*
X40769492Y-32577853D01*
X40707409Y-32646803D01*
X40617923Y-32801797D01*
X40562618Y-32972009D01*
X40561928Y-32978572D01*
X40561928Y-32978573D01*
X40555478Y-33039944D01*
X40543910Y-33150000D01*
X40562618Y-33327991D01*
X40564658Y-33334269D01*
X40564658Y-33334270D01*
X40584691Y-33395926D01*
X40617923Y-33498203D01*
X40621226Y-33503925D01*
X40621227Y-33503926D01*
X40654756Y-33562000D01*
X40671494Y-33630996D01*
X40654756Y-33688000D01*
X40617923Y-33751797D01*
X40615881Y-33758082D01*
X40586268Y-33849223D01*
X40562618Y-33922009D01*
X40543910Y-34100000D01*
X37519533Y-34100000D01*
X37520002Y-34098403D01*
X37573658Y-34051910D01*
X37643932Y-34041806D01*
X37652197Y-34043277D01*
X37768335Y-34067963D01*
X37768339Y-34067963D01*
X37774792Y-34069335D01*
X37953764Y-34069335D01*
X37960217Y-34067963D01*
X37960221Y-34067963D01*
X38041294Y-34050730D01*
X38128824Y-34032125D01*
X38134855Y-34029440D01*
X38286293Y-33962016D01*
X38286295Y-33962015D01*
X38292323Y-33959331D01*
X38334658Y-33928573D01*
X38431770Y-33858017D01*
X38431772Y-33858015D01*
X38437114Y-33854134D01*
X38556869Y-33721132D01*
X38646355Y-33566138D01*
X38701660Y-33395926D01*
X38708141Y-33334270D01*
X38719678Y-33224500D01*
X38720368Y-33217935D01*
X38701660Y-33039944D01*
X38681720Y-32978573D01*
X38648397Y-32876017D01*
X38646355Y-32869732D01*
X38556869Y-32714738D01*
X38437114Y-32581736D01*
X38338266Y-32509918D01*
X38297665Y-32480420D01*
X38297664Y-32480419D01*
X38292323Y-32476539D01*
X38286295Y-32473855D01*
X38286293Y-32473854D01*
X38134855Y-32406430D01*
X38134854Y-32406430D01*
X38128824Y-32403745D01*
X38041294Y-32385140D01*
X37960221Y-32367907D01*
X37960217Y-32367907D01*
X37953764Y-32366535D01*
X37774792Y-32366535D01*
X37768339Y-32367907D01*
X37768335Y-32367907D01*
X37652197Y-32392593D01*
X37581406Y-32387191D01*
X37524773Y-32344374D01*
X37500280Y-32277736D01*
X37500000Y-32269346D01*
X37500000Y-27077846D01*
X38891500Y-27077846D01*
X38906548Y-27235566D01*
X38966092Y-27438534D01*
X38968836Y-27443861D01*
X38968836Y-27443862D01*
X39030711Y-27563999D01*
X39062942Y-27626580D01*
X39193604Y-27792920D01*
X39198135Y-27796852D01*
X39198138Y-27796855D01*
X39284058Y-27871412D01*
X39353363Y-27931552D01*
X39358549Y-27934552D01*
X39358553Y-27934555D01*
X39454957Y-27990326D01*
X39536454Y-28037473D01*
X39736271Y-28106861D01*
X39742206Y-28107722D01*
X39742208Y-28107722D01*
X39939664Y-28136352D01*
X39939667Y-28136352D01*
X39945604Y-28137213D01*
X40156899Y-28127433D01*
X40288077Y-28095819D01*
X40356701Y-28079281D01*
X40356703Y-28079280D01*
X40362534Y-28077875D01*
X40367992Y-28075393D01*
X40367996Y-28075392D01*
X40483041Y-28023084D01*
X40555087Y-27990326D01*
X40727611Y-27867946D01*
X40873881Y-27715150D01*
X40889610Y-27690791D01*
X40894746Y-27682837D01*
X40948501Y-27636460D01*
X41018797Y-27626507D01*
X41083314Y-27656139D01*
X41099681Y-27673351D01*
X41193604Y-27792920D01*
X41198135Y-27796852D01*
X41198138Y-27796855D01*
X41284058Y-27871412D01*
X41353363Y-27931552D01*
X41358549Y-27934552D01*
X41358553Y-27934555D01*
X41454957Y-27990326D01*
X41536454Y-28037473D01*
X41736271Y-28106861D01*
X41742206Y-28107722D01*
X41742208Y-28107722D01*
X41939664Y-28136352D01*
X41939667Y-28136352D01*
X41945604Y-28137213D01*
X42156899Y-28127433D01*
X42288077Y-28095819D01*
X42356701Y-28079281D01*
X42356703Y-28079280D01*
X42362534Y-28077875D01*
X42367992Y-28075393D01*
X42367996Y-28075392D01*
X42483041Y-28023084D01*
X42555087Y-27990326D01*
X42727611Y-27867946D01*
X42731753Y-27863619D01*
X42731759Y-27863614D01*
X42818806Y-27772683D01*
X42880361Y-27737306D01*
X42951270Y-27740825D01*
X43009021Y-27782121D01*
X43016965Y-27793504D01*
X43051522Y-27849348D01*
X43176697Y-27974305D01*
X43182927Y-27978145D01*
X43182928Y-27978146D01*
X43320090Y-28062694D01*
X43327262Y-28067115D01*
X43352217Y-28075392D01*
X43488611Y-28120632D01*
X43488613Y-28120632D01*
X43495139Y-28122797D01*
X43501975Y-28123497D01*
X43501978Y-28123498D01*
X43540386Y-28127433D01*
X43599600Y-28133500D01*
X44400400Y-28133500D01*
X44403646Y-28133163D01*
X44403650Y-28133163D01*
X44499308Y-28123238D01*
X44499312Y-28123237D01*
X44506166Y-28122526D01*
X44512702Y-28120345D01*
X44512704Y-28120345D01*
X44647443Y-28075392D01*
X44673946Y-28066550D01*
X44824348Y-27973478D01*
X44949305Y-27848303D01*
X44986352Y-27788202D01*
X45038275Y-27703968D01*
X45038276Y-27703966D01*
X45042115Y-27697738D01*
X45088789Y-27557020D01*
X45095632Y-27536389D01*
X45095632Y-27536387D01*
X45097797Y-27529861D01*
X45108500Y-27425400D01*
X45108500Y-26074600D01*
X45097526Y-25968834D01*
X45093749Y-25957511D01*
X45043868Y-25808002D01*
X45041550Y-25801054D01*
X44948478Y-25650652D01*
X44823303Y-25525695D01*
X44720826Y-25462527D01*
X44678968Y-25436725D01*
X44678966Y-25436724D01*
X44672738Y-25432885D01*
X44512254Y-25379655D01*
X44511389Y-25379368D01*
X44511387Y-25379368D01*
X44504861Y-25377203D01*
X44498025Y-25376503D01*
X44498022Y-25376502D01*
X44454969Y-25372091D01*
X44400400Y-25366500D01*
X43599600Y-25366500D01*
X43596354Y-25366837D01*
X43596350Y-25366837D01*
X43500692Y-25376762D01*
X43500688Y-25376763D01*
X43493834Y-25377474D01*
X43487298Y-25379655D01*
X43487296Y-25379655D01*
X43364213Y-25420719D01*
X43326054Y-25433450D01*
X43175652Y-25526522D01*
X43050695Y-25651697D01*
X43046855Y-25657927D01*
X43046854Y-25657928D01*
X43018926Y-25703236D01*
X42966154Y-25750729D01*
X42896082Y-25762153D01*
X42830958Y-25733879D01*
X42812582Y-25714955D01*
X42806396Y-25707080D01*
X42801865Y-25703148D01*
X42801862Y-25703145D01*
X42651167Y-25572379D01*
X42646637Y-25568448D01*
X42641451Y-25565448D01*
X42641447Y-25565445D01*
X42468742Y-25465533D01*
X42463546Y-25462527D01*
X42263729Y-25393139D01*
X42257794Y-25392278D01*
X42257792Y-25392278D01*
X42060336Y-25363648D01*
X42060333Y-25363648D01*
X42054396Y-25362787D01*
X41843101Y-25372567D01*
X41711923Y-25404181D01*
X41643299Y-25420719D01*
X41643297Y-25420720D01*
X41637466Y-25422125D01*
X41632008Y-25424607D01*
X41632004Y-25424608D01*
X41516959Y-25476916D01*
X41444913Y-25509674D01*
X41272389Y-25632054D01*
X41126119Y-25784850D01*
X41122868Y-25789885D01*
X41122866Y-25789888D01*
X41105254Y-25817163D01*
X41051499Y-25863540D01*
X40981203Y-25873493D01*
X40916686Y-25843861D01*
X40900317Y-25826647D01*
X40881163Y-25802262D01*
X40806396Y-25707080D01*
X40801865Y-25703148D01*
X40801862Y-25703145D01*
X40651167Y-25572379D01*
X40646637Y-25568448D01*
X40641451Y-25565448D01*
X40641447Y-25565445D01*
X40468742Y-25465533D01*
X40463546Y-25462527D01*
X40263729Y-25393139D01*
X40257794Y-25392278D01*
X40257792Y-25392278D01*
X40060336Y-25363648D01*
X40060333Y-25363648D01*
X40054396Y-25362787D01*
X39843101Y-25372567D01*
X39711923Y-25404181D01*
X39643299Y-25420719D01*
X39643297Y-25420720D01*
X39637466Y-25422125D01*
X39632008Y-25424607D01*
X39632004Y-25424608D01*
X39516959Y-25476916D01*
X39444913Y-25509674D01*
X39272389Y-25632054D01*
X39126119Y-25784850D01*
X39011380Y-25962548D01*
X38932314Y-26158737D01*
X38891772Y-26366337D01*
X38891500Y-26371899D01*
X38891500Y-27077846D01*
X37500000Y-27077846D01*
X37500000Y-20634500D01*
X37520002Y-20566379D01*
X37573658Y-20519886D01*
X37626000Y-20508500D01*
X47874000Y-20508500D01*
X47942121Y-20528502D01*
G37*
G04 #@! TD.AperFunction*
M02*
