G04 #@! TF.GenerationSoftware,KiCad,Pcbnew,6.0.9-8da3e8f707~116~ubuntu20.04.1*
G04 #@! TF.CreationDate,2022-11-15T09:16:17-05:00*
G04 #@! TF.ProjectId,dynamixel_control,64796e61-6d69-4786-956c-5f636f6e7472,rev?*
G04 #@! TF.SameCoordinates,Original*
G04 #@! TF.FileFunction,Soldermask,Bot*
G04 #@! TF.FilePolarity,Negative*
%FSLAX46Y46*%
G04 Gerber Fmt 4.6, Leading zero omitted, Abs format (unit mm)*
G04 Created by KiCad (PCBNEW 6.0.9-8da3e8f707~116~ubuntu20.04.1) date 2022-11-15 09:16:17*
%MOMM*%
%LPD*%
G01*
G04 APERTURE LIST*
G04 Aperture macros list*
%AMRoundRect*
0 Rectangle with rounded corners*
0 $1 Rounding radius*
0 $2 $3 $4 $5 $6 $7 $8 $9 X,Y pos of 4 corners*
0 Add a 4 corners polygon primitive as box body*
4,1,4,$2,$3,$4,$5,$6,$7,$8,$9,$2,$3,0*
0 Add four circle primitives for the rounded corners*
1,1,$1+$1,$2,$3*
1,1,$1+$1,$4,$5*
1,1,$1+$1,$6,$7*
1,1,$1+$1,$8,$9*
0 Add four rect primitives between the rounded corners*
20,1,$1+$1,$2,$3,$4,$5,0*
20,1,$1+$1,$4,$5,$6,$7,0*
20,1,$1+$1,$6,$7,$8,$9,0*
20,1,$1+$1,$8,$9,$2,$3,0*%
G04 Aperture macros list end*
%ADD10RoundRect,0.750000X0.750000X2.250000X-0.750000X2.250000X-0.750000X-2.250000X0.750000X-2.250000X0*%
%ADD11RoundRect,0.750000X-2.250000X0.750000X-2.250000X-0.750000X2.250000X-0.750000X2.250000X0.750000X0*%
%ADD12C,3.200000*%
%ADD13RoundRect,0.250000X-0.350000X-0.625000X0.350000X-0.625000X0.350000X0.625000X-0.350000X0.625000X0*%
%ADD14O,1.200000X1.750000*%
%ADD15RoundRect,0.250000X0.625000X-0.350000X0.625000X0.350000X-0.625000X0.350000X-0.625000X-0.350000X0*%
%ADD16O,1.750000X1.200000*%
%ADD17RoundRect,0.250000X0.350000X0.625000X-0.350000X0.625000X-0.350000X-0.625000X0.350000X-0.625000X0*%
%ADD18O,1.651000X1.270000*%
%ADD19R,1.750000X1.750000*%
%ADD20C,1.750000*%
%ADD21R,1.200000X2.200000*%
%ADD22R,5.800000X6.400000*%
%ADD23RoundRect,0.250000X-0.262500X-0.450000X0.262500X-0.450000X0.262500X0.450000X-0.262500X0.450000X0*%
%ADD24RoundRect,0.250000X-0.250000X-0.475000X0.250000X-0.475000X0.250000X0.475000X-0.250000X0.475000X0*%
%ADD25RoundRect,0.250000X0.262500X0.450000X-0.262500X0.450000X-0.262500X-0.450000X0.262500X-0.450000X0*%
%ADD26RoundRect,0.250000X-0.450000X0.262500X-0.450000X-0.262500X0.450000X-0.262500X0.450000X0.262500X0*%
%ADD27RoundRect,0.150000X-0.587500X-0.150000X0.587500X-0.150000X0.587500X0.150000X-0.587500X0.150000X0*%
%ADD28RoundRect,0.150000X-0.150000X0.512500X-0.150000X-0.512500X0.150000X-0.512500X0.150000X0.512500X0*%
%ADD29RoundRect,0.250000X0.450000X-0.262500X0.450000X0.262500X-0.450000X0.262500X-0.450000X-0.262500X0*%
G04 APERTURE END LIST*
D10*
X31900000Y-25150000D03*
D11*
X32500000Y-30750000D03*
D12*
X24500000Y-24000000D03*
D13*
X31500000Y-48450000D03*
D14*
X33500000Y-48450000D03*
D12*
X51500000Y-24000000D03*
D15*
X52700000Y-36500000D03*
D16*
X52700000Y-34500000D03*
D17*
X44000000Y-26750000D03*
D14*
X42000000Y-26750000D03*
X40000000Y-26750000D03*
D13*
X29500000Y-54200000D03*
D14*
X31500000Y-54200000D03*
X33500000Y-54200000D03*
D13*
X22500000Y-54200000D03*
D14*
X24500000Y-54200000D03*
D18*
X37880000Y-43040000D03*
X37880000Y-45580000D03*
X37880000Y-48120000D03*
X37880000Y-50660000D03*
X53120000Y-45580000D03*
X37880000Y-53200000D03*
X37880000Y-55740000D03*
X37880000Y-58280000D03*
X37880000Y-60820000D03*
X37880000Y-63360000D03*
X37880000Y-65900000D03*
X37880000Y-68440000D03*
X37880000Y-70980000D03*
X37880000Y-73520000D03*
X53120000Y-73520000D03*
X53120000Y-70980000D03*
X53120000Y-68440000D03*
X53120000Y-65900000D03*
X53120000Y-63360000D03*
X53120000Y-60820000D03*
X53120000Y-58280000D03*
X53120000Y-55740000D03*
X53120000Y-53200000D03*
X53120000Y-50660000D03*
X53120000Y-48120000D03*
X37880000Y-40500000D03*
X53120000Y-43040000D03*
X53120000Y-40500000D03*
D19*
X28250000Y-73000000D03*
D20*
X25750000Y-73000000D03*
X23250000Y-73000000D03*
X22250000Y-41460000D03*
X22250000Y-44000000D03*
X22250000Y-46540000D03*
D19*
X28250000Y-61500000D03*
D20*
X25750000Y-61500000D03*
X23250000Y-61500000D03*
D19*
X28250000Y-67250000D03*
D20*
X25750000Y-67250000D03*
X23250000Y-67250000D03*
D21*
X21720000Y-30500000D03*
D22*
X24000000Y-36800000D03*
D21*
X26280000Y-30500000D03*
D23*
X48175000Y-42500000D03*
X50000000Y-42500000D03*
D24*
X48250000Y-57000000D03*
X50150000Y-57000000D03*
X31100000Y-36000000D03*
X33000000Y-36000000D03*
D25*
X50075000Y-45750000D03*
X48250000Y-45750000D03*
D23*
X31175000Y-38500000D03*
X33000000Y-38500000D03*
D26*
X41500000Y-43425000D03*
X41500000Y-45250000D03*
D27*
X33625000Y-44950000D03*
X33625000Y-43050000D03*
X35500000Y-44000000D03*
D24*
X26500000Y-70500000D03*
X28400000Y-70500000D03*
X48300000Y-49000000D03*
X50200000Y-49000000D03*
D23*
X31175000Y-41000000D03*
X33000000Y-41000000D03*
D24*
X26500000Y-59000000D03*
X28400000Y-59000000D03*
D28*
X48250000Y-52275000D03*
X49200000Y-52275000D03*
X50150000Y-52275000D03*
X50150000Y-54550000D03*
X48250000Y-54550000D03*
D29*
X31000000Y-45000000D03*
X31000000Y-43175000D03*
D24*
X26500000Y-64750000D03*
X28400000Y-64750000D03*
M02*
