G04 #@! TF.GenerationSoftware,KiCad,Pcbnew,6.0.9-8da3e8f707~116~ubuntu20.04.1*
G04 #@! TF.CreationDate,2022-11-15T09:16:16-05:00*
G04 #@! TF.ProjectId,dynamixel_control,64796e61-6d69-4786-956c-5f636f6e7472,rev?*
G04 #@! TF.SameCoordinates,Original*
G04 #@! TF.FileFunction,Legend,Bot*
G04 #@! TF.FilePolarity,Positive*
%FSLAX46Y46*%
G04 Gerber Fmt 4.6, Leading zero omitted, Abs format (unit mm)*
G04 Created by KiCad (PCBNEW 6.0.9-8da3e8f707~116~ubuntu20.04.1) date 2022-11-15 09:16:16*
%MOMM*%
%LPD*%
G01*
G04 APERTURE LIST*
G04 Aperture macros list*
%AMRoundRect*
0 Rectangle with rounded corners*
0 $1 Rounding radius*
0 $2 $3 $4 $5 $6 $7 $8 $9 X,Y pos of 4 corners*
0 Add a 4 corners polygon primitive as box body*
4,1,4,$2,$3,$4,$5,$6,$7,$8,$9,$2,$3,0*
0 Add four circle primitives for the rounded corners*
1,1,$1+$1,$2,$3*
1,1,$1+$1,$4,$5*
1,1,$1+$1,$6,$7*
1,1,$1+$1,$8,$9*
0 Add four rect primitives between the rounded corners*
20,1,$1+$1,$2,$3,$4,$5,0*
20,1,$1+$1,$4,$5,$6,$7,0*
20,1,$1+$1,$6,$7,$8,$9,0*
20,1,$1+$1,$8,$9,$2,$3,0*%
G04 Aperture macros list end*
%ADD10C,0.150000*%
%ADD11C,0.120000*%
%ADD12RoundRect,0.750000X0.750000X2.250000X-0.750000X2.250000X-0.750000X-2.250000X0.750000X-2.250000X0*%
%ADD13RoundRect,0.750000X-2.250000X0.750000X-2.250000X-0.750000X2.250000X-0.750000X2.250000X0.750000X0*%
%ADD14C,3.200000*%
%ADD15RoundRect,0.250000X-0.350000X-0.625000X0.350000X-0.625000X0.350000X0.625000X-0.350000X0.625000X0*%
%ADD16O,1.200000X1.750000*%
%ADD17RoundRect,0.250000X0.625000X-0.350000X0.625000X0.350000X-0.625000X0.350000X-0.625000X-0.350000X0*%
%ADD18O,1.750000X1.200000*%
%ADD19RoundRect,0.250000X0.350000X0.625000X-0.350000X0.625000X-0.350000X-0.625000X0.350000X-0.625000X0*%
%ADD20O,1.651000X1.270000*%
%ADD21R,1.750000X1.750000*%
%ADD22C,1.750000*%
%ADD23R,1.200000X2.200000*%
%ADD24R,5.800000X6.400000*%
%ADD25RoundRect,0.250000X-0.262500X-0.450000X0.262500X-0.450000X0.262500X0.450000X-0.262500X0.450000X0*%
%ADD26RoundRect,0.250000X-0.250000X-0.475000X0.250000X-0.475000X0.250000X0.475000X-0.250000X0.475000X0*%
%ADD27RoundRect,0.250000X0.262500X0.450000X-0.262500X0.450000X-0.262500X-0.450000X0.262500X-0.450000X0*%
%ADD28RoundRect,0.250000X-0.450000X0.262500X-0.450000X-0.262500X0.450000X-0.262500X0.450000X0.262500X0*%
%ADD29RoundRect,0.150000X-0.587500X-0.150000X0.587500X-0.150000X0.587500X0.150000X-0.587500X0.150000X0*%
%ADD30RoundRect,0.150000X-0.150000X0.512500X-0.150000X-0.512500X0.150000X-0.512500X0.150000X0.512500X0*%
%ADD31RoundRect,0.250000X0.450000X-0.262500X0.450000X0.262500X-0.450000X0.262500X-0.450000X-0.262500X0*%
G04 APERTURE END LIST*
D10*
X26345238Y-28797619D02*
X26440476Y-28750000D01*
X26535714Y-28654761D01*
X26678571Y-28511904D01*
X26773809Y-28464285D01*
X26869047Y-28464285D01*
X26821428Y-28702380D02*
X26916666Y-28654761D01*
X27011904Y-28559523D01*
X27059523Y-28369047D01*
X27059523Y-28035714D01*
X27011904Y-27845238D01*
X26916666Y-27750000D01*
X26821428Y-27702380D01*
X26630952Y-27702380D01*
X26535714Y-27750000D01*
X26440476Y-27845238D01*
X26392857Y-28035714D01*
X26392857Y-28369047D01*
X26440476Y-28559523D01*
X26535714Y-28654761D01*
X26630952Y-28702380D01*
X26821428Y-28702380D01*
X26011904Y-27797619D02*
X25964285Y-27750000D01*
X25869047Y-27702380D01*
X25630952Y-27702380D01*
X25535714Y-27750000D01*
X25488095Y-27797619D01*
X25440476Y-27892857D01*
X25440476Y-27988095D01*
X25488095Y-28130952D01*
X26059523Y-28702380D01*
X25440476Y-28702380D01*
X49254166Y-41492380D02*
X49587500Y-41016190D01*
X49825595Y-41492380D02*
X49825595Y-40492380D01*
X49444642Y-40492380D01*
X49349404Y-40540000D01*
X49301785Y-40587619D01*
X49254166Y-40682857D01*
X49254166Y-40825714D01*
X49301785Y-40920952D01*
X49349404Y-40968571D01*
X49444642Y-41016190D01*
X49825595Y-41016190D01*
X48301785Y-41492380D02*
X48873214Y-41492380D01*
X48587500Y-41492380D02*
X48587500Y-40492380D01*
X48682738Y-40635238D01*
X48777976Y-40730476D01*
X48873214Y-40778095D01*
X51916666Y-57444642D02*
X51964285Y-57492261D01*
X52107142Y-57539880D01*
X52202380Y-57539880D01*
X52345238Y-57492261D01*
X52440476Y-57397023D01*
X52488095Y-57301785D01*
X52535714Y-57111309D01*
X52535714Y-56968452D01*
X52488095Y-56777976D01*
X52440476Y-56682738D01*
X52345238Y-56587500D01*
X52202380Y-56539880D01*
X52107142Y-56539880D01*
X51964285Y-56587500D01*
X51916666Y-56635119D01*
X51059523Y-56873214D02*
X51059523Y-57539880D01*
X51297619Y-56492261D02*
X51535714Y-57206547D01*
X50916666Y-57206547D01*
X35742857Y-36357142D02*
X35790476Y-36404761D01*
X35933333Y-36452380D01*
X36028571Y-36452380D01*
X36171428Y-36404761D01*
X36266666Y-36309523D01*
X36314285Y-36214285D01*
X36361904Y-36023809D01*
X36361904Y-35880952D01*
X36314285Y-35690476D01*
X36266666Y-35595238D01*
X36171428Y-35500000D01*
X36028571Y-35452380D01*
X35933333Y-35452380D01*
X35790476Y-35500000D01*
X35742857Y-35547619D01*
X35361904Y-35547619D02*
X35314285Y-35500000D01*
X35219047Y-35452380D01*
X34980952Y-35452380D01*
X34885714Y-35500000D01*
X34838095Y-35547619D01*
X34790476Y-35642857D01*
X34790476Y-35738095D01*
X34838095Y-35880952D01*
X35409523Y-36452380D01*
X34790476Y-36452380D01*
X33885714Y-35452380D02*
X34361904Y-35452380D01*
X34409523Y-35928571D01*
X34361904Y-35880952D01*
X34266666Y-35833333D01*
X34028571Y-35833333D01*
X33933333Y-35880952D01*
X33885714Y-35928571D01*
X33838095Y-36023809D01*
X33838095Y-36261904D01*
X33885714Y-36357142D01*
X33933333Y-36404761D01*
X34028571Y-36452380D01*
X34266666Y-36452380D01*
X34361904Y-36404761D01*
X34409523Y-36357142D01*
X49416666Y-44702380D02*
X49750000Y-44226190D01*
X49988095Y-44702380D02*
X49988095Y-43702380D01*
X49607142Y-43702380D01*
X49511904Y-43750000D01*
X49464285Y-43797619D01*
X49416666Y-43892857D01*
X49416666Y-44035714D01*
X49464285Y-44130952D01*
X49511904Y-44178571D01*
X49607142Y-44226190D01*
X49988095Y-44226190D01*
X49083333Y-43702380D02*
X48464285Y-43702380D01*
X48797619Y-44083333D01*
X48654761Y-44083333D01*
X48559523Y-44130952D01*
X48511904Y-44178571D01*
X48464285Y-44273809D01*
X48464285Y-44511904D01*
X48511904Y-44607142D01*
X48559523Y-44654761D01*
X48654761Y-44702380D01*
X48940476Y-44702380D01*
X49035714Y-44654761D01*
X49083333Y-44607142D01*
X35892857Y-38702380D02*
X36226190Y-38226190D01*
X36464285Y-38702380D02*
X36464285Y-37702380D01*
X36083333Y-37702380D01*
X35988095Y-37750000D01*
X35940476Y-37797619D01*
X35892857Y-37892857D01*
X35892857Y-38035714D01*
X35940476Y-38130952D01*
X35988095Y-38178571D01*
X36083333Y-38226190D01*
X36464285Y-38226190D01*
X34940476Y-38702380D02*
X35511904Y-38702380D01*
X35226190Y-38702380D02*
X35226190Y-37702380D01*
X35321428Y-37845238D01*
X35416666Y-37940476D01*
X35511904Y-37988095D01*
X34035714Y-37702380D02*
X34511904Y-37702380D01*
X34559523Y-38178571D01*
X34511904Y-38130952D01*
X34416666Y-38083333D01*
X34178571Y-38083333D01*
X34083333Y-38130952D01*
X34035714Y-38178571D01*
X33988095Y-38273809D01*
X33988095Y-38511904D01*
X34035714Y-38607142D01*
X34083333Y-38654761D01*
X34178571Y-38702380D01*
X34416666Y-38702380D01*
X34511904Y-38654761D01*
X34559523Y-38607142D01*
X40302380Y-43694642D02*
X39826190Y-43361309D01*
X40302380Y-43123214D02*
X39302380Y-43123214D01*
X39302380Y-43504166D01*
X39350000Y-43599404D01*
X39397619Y-43647023D01*
X39492857Y-43694642D01*
X39635714Y-43694642D01*
X39730952Y-43647023D01*
X39778571Y-43599404D01*
X39826190Y-43504166D01*
X39826190Y-43123214D01*
X40302380Y-44647023D02*
X40302380Y-44075595D01*
X40302380Y-44361309D02*
X39302380Y-44361309D01*
X39445238Y-44266071D01*
X39540476Y-44170833D01*
X39588095Y-44075595D01*
X39302380Y-44980357D02*
X39302380Y-45647023D01*
X40302380Y-45218452D01*
X34657738Y-46947619D02*
X34752976Y-46900000D01*
X34848214Y-46804761D01*
X34991071Y-46661904D01*
X35086309Y-46614285D01*
X35181547Y-46614285D01*
X35133928Y-46852380D02*
X35229166Y-46804761D01*
X35324404Y-46709523D01*
X35372023Y-46519047D01*
X35372023Y-46185714D01*
X35324404Y-45995238D01*
X35229166Y-45900000D01*
X35133928Y-45852380D01*
X34943452Y-45852380D01*
X34848214Y-45900000D01*
X34752976Y-45995238D01*
X34705357Y-46185714D01*
X34705357Y-46519047D01*
X34752976Y-46709523D01*
X34848214Y-46804761D01*
X34943452Y-46852380D01*
X35133928Y-46852380D01*
X34372023Y-45852380D02*
X33752976Y-45852380D01*
X34086309Y-46233333D01*
X33943452Y-46233333D01*
X33848214Y-46280952D01*
X33800595Y-46328571D01*
X33752976Y-46423809D01*
X33752976Y-46661904D01*
X33800595Y-46757142D01*
X33848214Y-46804761D01*
X33943452Y-46852380D01*
X34229166Y-46852380D01*
X34324404Y-46804761D01*
X34372023Y-46757142D01*
X25042857Y-70857142D02*
X25090476Y-70904761D01*
X25233333Y-70952380D01*
X25328571Y-70952380D01*
X25471428Y-70904761D01*
X25566666Y-70809523D01*
X25614285Y-70714285D01*
X25661904Y-70523809D01*
X25661904Y-70380952D01*
X25614285Y-70190476D01*
X25566666Y-70095238D01*
X25471428Y-70000000D01*
X25328571Y-69952380D01*
X25233333Y-69952380D01*
X25090476Y-70000000D01*
X25042857Y-70047619D01*
X24661904Y-70047619D02*
X24614285Y-70000000D01*
X24519047Y-69952380D01*
X24280952Y-69952380D01*
X24185714Y-70000000D01*
X24138095Y-70047619D01*
X24090476Y-70142857D01*
X24090476Y-70238095D01*
X24138095Y-70380952D01*
X24709523Y-70952380D01*
X24090476Y-70952380D01*
X23757142Y-69952380D02*
X23138095Y-69952380D01*
X23471428Y-70333333D01*
X23328571Y-70333333D01*
X23233333Y-70380952D01*
X23185714Y-70428571D01*
X23138095Y-70523809D01*
X23138095Y-70761904D01*
X23185714Y-70857142D01*
X23233333Y-70904761D01*
X23328571Y-70952380D01*
X23614285Y-70952380D01*
X23709523Y-70904761D01*
X23757142Y-70857142D01*
X49466666Y-47857142D02*
X49514285Y-47904761D01*
X49657142Y-47952380D01*
X49752380Y-47952380D01*
X49895238Y-47904761D01*
X49990476Y-47809523D01*
X50038095Y-47714285D01*
X50085714Y-47523809D01*
X50085714Y-47380952D01*
X50038095Y-47190476D01*
X49990476Y-47095238D01*
X49895238Y-47000000D01*
X49752380Y-46952380D01*
X49657142Y-46952380D01*
X49514285Y-47000000D01*
X49466666Y-47047619D01*
X48561904Y-46952380D02*
X49038095Y-46952380D01*
X49085714Y-47428571D01*
X49038095Y-47380952D01*
X48942857Y-47333333D01*
X48704761Y-47333333D01*
X48609523Y-47380952D01*
X48561904Y-47428571D01*
X48514285Y-47523809D01*
X48514285Y-47761904D01*
X48561904Y-47857142D01*
X48609523Y-47904761D01*
X48704761Y-47952380D01*
X48942857Y-47952380D01*
X49038095Y-47904761D01*
X49085714Y-47857142D01*
X35642857Y-41452380D02*
X35976190Y-40976190D01*
X36214285Y-41452380D02*
X36214285Y-40452380D01*
X35833333Y-40452380D01*
X35738095Y-40500000D01*
X35690476Y-40547619D01*
X35642857Y-40642857D01*
X35642857Y-40785714D01*
X35690476Y-40880952D01*
X35738095Y-40928571D01*
X35833333Y-40976190D01*
X36214285Y-40976190D01*
X34690476Y-41452380D02*
X35261904Y-41452380D01*
X34976190Y-41452380D02*
X34976190Y-40452380D01*
X35071428Y-40595238D01*
X35166666Y-40690476D01*
X35261904Y-40738095D01*
X33833333Y-40452380D02*
X34023809Y-40452380D01*
X34119047Y-40500000D01*
X34166666Y-40547619D01*
X34261904Y-40690476D01*
X34309523Y-40880952D01*
X34309523Y-41261904D01*
X34261904Y-41357142D01*
X34214285Y-41404761D01*
X34119047Y-41452380D01*
X33928571Y-41452380D01*
X33833333Y-41404761D01*
X33785714Y-41357142D01*
X33738095Y-41261904D01*
X33738095Y-41023809D01*
X33785714Y-40928571D01*
X33833333Y-40880952D01*
X33928571Y-40833333D01*
X34119047Y-40833333D01*
X34214285Y-40880952D01*
X34261904Y-40928571D01*
X34309523Y-41023809D01*
X25042857Y-59357142D02*
X25090476Y-59404761D01*
X25233333Y-59452380D01*
X25328571Y-59452380D01*
X25471428Y-59404761D01*
X25566666Y-59309523D01*
X25614285Y-59214285D01*
X25661904Y-59023809D01*
X25661904Y-58880952D01*
X25614285Y-58690476D01*
X25566666Y-58595238D01*
X25471428Y-58500000D01*
X25328571Y-58452380D01*
X25233333Y-58452380D01*
X25090476Y-58500000D01*
X25042857Y-58547619D01*
X24090476Y-59452380D02*
X24661904Y-59452380D01*
X24376190Y-59452380D02*
X24376190Y-58452380D01*
X24471428Y-58595238D01*
X24566666Y-58690476D01*
X24661904Y-58738095D01*
X23614285Y-59452380D02*
X23423809Y-59452380D01*
X23328571Y-59404761D01*
X23280952Y-59357142D01*
X23185714Y-59214285D01*
X23138095Y-59023809D01*
X23138095Y-58642857D01*
X23185714Y-58547619D01*
X23233333Y-58500000D01*
X23328571Y-58452380D01*
X23519047Y-58452380D01*
X23614285Y-58500000D01*
X23661904Y-58547619D01*
X23709523Y-58642857D01*
X23709523Y-58880952D01*
X23661904Y-58976190D01*
X23614285Y-59023809D01*
X23519047Y-59071428D01*
X23328571Y-59071428D01*
X23233333Y-59023809D01*
X23185714Y-58976190D01*
X23138095Y-58880952D01*
X50011904Y-50202380D02*
X50011904Y-51011904D01*
X49964285Y-51107142D01*
X49916666Y-51154761D01*
X49821428Y-51202380D01*
X49630952Y-51202380D01*
X49535714Y-51154761D01*
X49488095Y-51107142D01*
X49440476Y-51011904D01*
X49440476Y-50202380D01*
X49011904Y-50297619D02*
X48964285Y-50250000D01*
X48869047Y-50202380D01*
X48630952Y-50202380D01*
X48535714Y-50250000D01*
X48488095Y-50297619D01*
X48440476Y-50392857D01*
X48440476Y-50488095D01*
X48488095Y-50630952D01*
X49059523Y-51202380D01*
X48440476Y-51202380D01*
X29952380Y-43444642D02*
X29476190Y-43111309D01*
X29952380Y-42873214D02*
X28952380Y-42873214D01*
X28952380Y-43254166D01*
X29000000Y-43349404D01*
X29047619Y-43397023D01*
X29142857Y-43444642D01*
X29285714Y-43444642D01*
X29380952Y-43397023D01*
X29428571Y-43349404D01*
X29476190Y-43254166D01*
X29476190Y-42873214D01*
X29952380Y-44397023D02*
X29952380Y-43825595D01*
X29952380Y-44111309D02*
X28952380Y-44111309D01*
X29095238Y-44016071D01*
X29190476Y-43920833D01*
X29238095Y-43825595D01*
X29380952Y-44968452D02*
X29333333Y-44873214D01*
X29285714Y-44825595D01*
X29190476Y-44777976D01*
X29142857Y-44777976D01*
X29047619Y-44825595D01*
X29000000Y-44873214D01*
X28952380Y-44968452D01*
X28952380Y-45158928D01*
X29000000Y-45254166D01*
X29047619Y-45301785D01*
X29142857Y-45349404D01*
X29190476Y-45349404D01*
X29285714Y-45301785D01*
X29333333Y-45254166D01*
X29380952Y-45158928D01*
X29380952Y-44968452D01*
X29428571Y-44873214D01*
X29476190Y-44825595D01*
X29571428Y-44777976D01*
X29761904Y-44777976D01*
X29857142Y-44825595D01*
X29904761Y-44873214D01*
X29952380Y-44968452D01*
X29952380Y-45158928D01*
X29904761Y-45254166D01*
X29857142Y-45301785D01*
X29761904Y-45349404D01*
X29571428Y-45349404D01*
X29476190Y-45301785D01*
X29428571Y-45254166D01*
X29380952Y-45158928D01*
X25042857Y-65107142D02*
X25090476Y-65154761D01*
X25233333Y-65202380D01*
X25328571Y-65202380D01*
X25471428Y-65154761D01*
X25566666Y-65059523D01*
X25614285Y-64964285D01*
X25661904Y-64773809D01*
X25661904Y-64630952D01*
X25614285Y-64440476D01*
X25566666Y-64345238D01*
X25471428Y-64250000D01*
X25328571Y-64202380D01*
X25233333Y-64202380D01*
X25090476Y-64250000D01*
X25042857Y-64297619D01*
X24661904Y-64297619D02*
X24614285Y-64250000D01*
X24519047Y-64202380D01*
X24280952Y-64202380D01*
X24185714Y-64250000D01*
X24138095Y-64297619D01*
X24090476Y-64392857D01*
X24090476Y-64488095D01*
X24138095Y-64630952D01*
X24709523Y-65202380D01*
X24090476Y-65202380D01*
X23709523Y-64297619D02*
X23661904Y-64250000D01*
X23566666Y-64202380D01*
X23328571Y-64202380D01*
X23233333Y-64250000D01*
X23185714Y-64297619D01*
X23138095Y-64392857D01*
X23138095Y-64488095D01*
X23185714Y-64630952D01*
X23757142Y-65202380D01*
X23138095Y-65202380D01*
D11*
X20550000Y-33730000D02*
X20550000Y-32230000D01*
X27450000Y-33730000D02*
X27450000Y-32230000D01*
X20820000Y-32230000D02*
X20820000Y-29400000D01*
X27180000Y-32230000D02*
X27180000Y-31130000D01*
X27450000Y-32230000D02*
X27180000Y-32230000D01*
X20550000Y-32230000D02*
X20820000Y-32230000D01*
X48860436Y-41765000D02*
X49314564Y-41765000D01*
X48860436Y-43235000D02*
X49314564Y-43235000D01*
X48938748Y-56265000D02*
X49461252Y-56265000D01*
X48938748Y-57735000D02*
X49461252Y-57735000D01*
X31788748Y-36735000D02*
X32311252Y-36735000D01*
X31788748Y-35265000D02*
X32311252Y-35265000D01*
X49389564Y-45015000D02*
X48935436Y-45015000D01*
X49389564Y-46485000D02*
X48935436Y-46485000D01*
X31860436Y-37765000D02*
X32314564Y-37765000D01*
X31860436Y-39235000D02*
X32314564Y-39235000D01*
X40765000Y-44110436D02*
X40765000Y-44564564D01*
X42235000Y-44110436D02*
X42235000Y-44564564D01*
X34562500Y-42440000D02*
X33912500Y-42440000D01*
X34562500Y-45560000D02*
X35212500Y-45560000D01*
X34562500Y-45560000D02*
X32887500Y-45560000D01*
X34562500Y-42440000D02*
X35212500Y-42440000D01*
X27188748Y-71235000D02*
X27711252Y-71235000D01*
X27188748Y-69765000D02*
X27711252Y-69765000D01*
X48988748Y-48265000D02*
X49511252Y-48265000D01*
X48988748Y-49735000D02*
X49511252Y-49735000D01*
X31860436Y-40265000D02*
X32314564Y-40265000D01*
X31860436Y-41735000D02*
X32314564Y-41735000D01*
X27188748Y-58265000D02*
X27711252Y-58265000D01*
X27188748Y-59735000D02*
X27711252Y-59735000D01*
X47640000Y-53412500D02*
X47640000Y-54212500D01*
X50760000Y-53412500D02*
X50760000Y-54212500D01*
X47640000Y-53412500D02*
X47640000Y-51612500D01*
X50760000Y-53412500D02*
X50760000Y-52612500D01*
X30265000Y-44314564D02*
X30265000Y-43860436D01*
X31735000Y-44314564D02*
X31735000Y-43860436D01*
X27188748Y-65485000D02*
X27711252Y-65485000D01*
X27188748Y-64015000D02*
X27711252Y-64015000D01*
%LPC*%
D12*
X31900000Y-25150000D03*
D13*
X32500000Y-30750000D03*
D14*
X24500000Y-24000000D03*
D15*
X31500000Y-48450000D03*
D16*
X33500000Y-48450000D03*
D14*
X51500000Y-24000000D03*
D17*
X52700000Y-36500000D03*
D18*
X52700000Y-34500000D03*
D19*
X44000000Y-26750000D03*
D16*
X42000000Y-26750000D03*
X40000000Y-26750000D03*
D15*
X29500000Y-54200000D03*
D16*
X31500000Y-54200000D03*
X33500000Y-54200000D03*
D15*
X22500000Y-54200000D03*
D16*
X24500000Y-54200000D03*
D20*
X37880000Y-43040000D03*
X37880000Y-45580000D03*
X37880000Y-48120000D03*
X37880000Y-50660000D03*
X53120000Y-45580000D03*
X37880000Y-53200000D03*
X37880000Y-55740000D03*
X37880000Y-58280000D03*
X37880000Y-60820000D03*
X37880000Y-63360000D03*
X37880000Y-65900000D03*
X37880000Y-68440000D03*
X37880000Y-70980000D03*
X37880000Y-73520000D03*
X53120000Y-73520000D03*
X53120000Y-70980000D03*
X53120000Y-68440000D03*
X53120000Y-65900000D03*
X53120000Y-63360000D03*
X53120000Y-60820000D03*
X53120000Y-58280000D03*
X53120000Y-55740000D03*
X53120000Y-53200000D03*
X53120000Y-50660000D03*
X53120000Y-48120000D03*
X37880000Y-40500000D03*
X53120000Y-43040000D03*
X53120000Y-40500000D03*
D21*
X28250000Y-73000000D03*
D22*
X25750000Y-73000000D03*
X23250000Y-73000000D03*
X22250000Y-41460000D03*
X22250000Y-44000000D03*
X22250000Y-46540000D03*
D21*
X28250000Y-61500000D03*
D22*
X25750000Y-61500000D03*
X23250000Y-61500000D03*
D21*
X28250000Y-67250000D03*
D22*
X25750000Y-67250000D03*
X23250000Y-67250000D03*
D23*
X21720000Y-30500000D03*
D24*
X24000000Y-36800000D03*
D23*
X26280000Y-30500000D03*
D25*
X48175000Y-42500000D03*
X50000000Y-42500000D03*
D26*
X48250000Y-57000000D03*
X50150000Y-57000000D03*
X31100000Y-36000000D03*
X33000000Y-36000000D03*
D27*
X50075000Y-45750000D03*
X48250000Y-45750000D03*
D25*
X31175000Y-38500000D03*
X33000000Y-38500000D03*
D28*
X41500000Y-43425000D03*
X41500000Y-45250000D03*
D29*
X33625000Y-44950000D03*
X33625000Y-43050000D03*
X35500000Y-44000000D03*
D26*
X26500000Y-70500000D03*
X28400000Y-70500000D03*
X48300000Y-49000000D03*
X50200000Y-49000000D03*
D25*
X31175000Y-41000000D03*
X33000000Y-41000000D03*
D26*
X26500000Y-59000000D03*
X28400000Y-59000000D03*
D30*
X48250000Y-52275000D03*
X49200000Y-52275000D03*
X50150000Y-52275000D03*
X50150000Y-54550000D03*
X48250000Y-54550000D03*
D31*
X31000000Y-45000000D03*
X31000000Y-43175000D03*
D26*
X26500000Y-64750000D03*
X28400000Y-64750000D03*
M02*
