M48
; DRILL file {KiCad 6.0.9-8da3e8f707~116~ubuntu20.04.1} date mer 09 nov 2022 10:50:44
; FORMAT={-:-/ absolute / metric / decimal}
; #@! TF.CreationDate,2022-11-09T10:50:44-05:00
; #@! TF.GenerationSoftware,Kicad,Pcbnew,6.0.9-8da3e8f707~116~ubuntu20.04.1
; #@! TF.FileFunction,Plated,1,4,PTH
FMAT,2
METRIC
; #@! TA.AperFunction,Plated,PTH,ViaDrill
T1C0.330
; #@! TA.AperFunction,Plated,PTH,ViaDrill
T2C0.381
; #@! TA.AperFunction,Plated,PTH,ComponentDrill
T3C0.750
; #@! TA.AperFunction,Plated,PTH,ComponentDrill
T4C0.900
; #@! TA.AperFunction,Plated,PTH,ComponentDrill
T5C1.000
; #@! TA.AperFunction,Plated,PTH,ComponentDrill
T6C2.500
%
G90
G05
T1
X33.75Y-62.0
X34.0Y-69.5
X35.0Y-46.5
X37.864Y-33.218
X41.0Y-31.75
X41.4Y-33.15
X41.4Y-34.1
X41.5Y-65.0
X41.5Y-73.0
X42.25Y-69.0
X46.5Y-65.25
X47.0Y-42.5
X47.25Y-59.0
X47.25Y-61.5
X47.7Y-66.9
T2
X21.0Y-49.5
X21.0Y-50.5
X21.5Y-26.5
X22.0Y-49.5
X22.0Y-50.5
X22.5Y-27.5
X23.0Y-49.5
X23.0Y-50.5
X24.0Y-49.5
X24.0Y-50.5
X24.5Y-28.0
X25.0Y-49.5
X25.0Y-50.5
X25.5Y-28.0
X26.0Y-49.5
X26.0Y-50.5
X26.5Y-28.0
X27.0Y-49.5
X27.0Y-50.5
X27.5Y-27.0
X27.5Y-28.0
X28.0Y-38.0
X28.0Y-39.0
X28.0Y-49.5
X28.0Y-50.5
X28.5Y-22.0
X28.5Y-23.0
X28.5Y-24.0
X28.5Y-25.0
X28.5Y-26.0
X28.5Y-27.0
X28.5Y-28.0
X29.75Y-43.75
X30.0Y-65.75
X32.251Y-70.944
X32.5Y-63.75
X33.25Y-60.0
X35.25Y-64.75
X36.0Y-59.0
X36.25Y-37.0
X37.25Y-37.0
X38.5Y-36.0
X45.75Y-73.25
X46.0Y-71.0
X46.25Y-35.5
X46.75Y-72.0
X47.0Y-56.75
X49.25Y-27.75
X49.5Y-65.0
X49.5Y-72.5
X50.5Y-51.0
X51.0Y-68.0
X51.25Y-57.0
T3
X22.5Y-54.2
X24.5Y-54.2
X29.5Y-54.2
X31.5Y-48.45
X31.5Y-54.2
X33.5Y-48.45
X33.5Y-54.2
X40.0Y-26.75
X42.0Y-26.75
X44.0Y-26.75
X52.7Y-34.5
X52.7Y-36.5
T4
X22.25Y-41.46
X22.25Y-44.0
X22.25Y-46.54
X23.25Y-61.5
X23.25Y-67.25
X23.25Y-73.0
X25.75Y-61.5
X25.75Y-67.25
X25.75Y-73.0
X28.25Y-61.5
X28.25Y-67.25
X28.25Y-73.0
T5
X37.88Y-40.5
X37.88Y-43.04
X37.88Y-45.58
X37.88Y-48.12
X37.88Y-50.66
X37.88Y-53.2
X37.88Y-55.74
X37.88Y-58.28
X37.88Y-60.82
X37.88Y-63.36
X37.88Y-65.9
X37.88Y-68.44
X37.88Y-70.98
X37.88Y-73.52
X53.12Y-40.5
X53.12Y-43.04
X53.12Y-45.58
X53.12Y-48.12
X53.12Y-50.66
X53.12Y-53.2
X53.12Y-55.74
X53.12Y-58.28
X53.12Y-60.82
X53.12Y-63.36
X53.12Y-65.9
X53.12Y-68.44
X53.12Y-70.98
X53.12Y-73.52
T6
X31.763Y-26.828G85X31.763Y-23.328
G05
X34.25Y-32.0G85X30.75Y-32.0
G05
T0
M30
