G04 #@! TF.GenerationSoftware,KiCad,Pcbnew,5.1.10-88a1d61d58~90~ubuntu20.04.1*
G04 #@! TF.CreationDate,2022-02-24T16:01:44-05:00*
G04 #@! TF.ProjectId,buck_boost,6275636b-5f62-46f6-9f73-742e6b696361,rev?*
G04 #@! TF.SameCoordinates,Original*
G04 #@! TF.FileFunction,Legend,Top*
G04 #@! TF.FilePolarity,Positive*
%FSLAX46Y46*%
G04 Gerber Fmt 4.6, Leading zero omitted, Abs format (unit mm)*
G04 Created by KiCad (PCBNEW 5.1.10-88a1d61d58~90~ubuntu20.04.1) date 2022-02-24 16:01:44*
%MOMM*%
%LPD*%
G01*
G04 APERTURE LIST*
%ADD10C,0.150000*%
%ADD11C,0.120000*%
%ADD12R,2.200000X1.200000*%
%ADD13R,6.400000X5.800000*%
%ADD14C,2.400000*%
%ADD15R,2.400000X2.400000*%
%ADD16C,3.200000*%
%ADD17R,1.100000X0.400000*%
%ADD18R,1.200000X1.542500*%
%ADD19C,1.440000*%
%ADD20C,1.800000*%
%ADD21R,6.350000X6.500000*%
%ADD22R,5.330000X5.590000*%
%ADD23C,2.600000*%
%ADD24R,1.100000X1.100000*%
G04 APERTURE END LIST*
D10*
X93452380Y-31523809D02*
X94452380Y-31190476D01*
X93452380Y-30857142D01*
X94452380Y-30380952D02*
X94404761Y-30476190D01*
X94357142Y-30523809D01*
X94261904Y-30571428D01*
X93976190Y-30571428D01*
X93880952Y-30523809D01*
X93833333Y-30476190D01*
X93785714Y-30380952D01*
X93785714Y-30238095D01*
X93833333Y-30142857D01*
X93880952Y-30095238D01*
X93976190Y-30047619D01*
X94261904Y-30047619D01*
X94357142Y-30095238D01*
X94404761Y-30142857D01*
X94452380Y-30238095D01*
X94452380Y-30380952D01*
X93785714Y-29190476D02*
X94452380Y-29190476D01*
X93785714Y-29619047D02*
X94309523Y-29619047D01*
X94404761Y-29571428D01*
X94452380Y-29476190D01*
X94452380Y-29333333D01*
X94404761Y-29238095D01*
X94357142Y-29190476D01*
X93785714Y-28857142D02*
X93785714Y-28476190D01*
X93452380Y-28714285D02*
X94309523Y-28714285D01*
X94404761Y-28666666D01*
X94452380Y-28571428D01*
X94452380Y-28476190D01*
X94071428Y-27380952D02*
X94071428Y-26619047D01*
X94071428Y-25380952D02*
X94071428Y-24619047D01*
X94452380Y-25000000D02*
X93690476Y-25000000D01*
X93452380Y-44023809D02*
X94452380Y-43690476D01*
X93452380Y-43357142D01*
X94452380Y-42880952D02*
X94404761Y-42976190D01*
X94357142Y-43023809D01*
X94261904Y-43071428D01*
X93976190Y-43071428D01*
X93880952Y-43023809D01*
X93833333Y-42976190D01*
X93785714Y-42880952D01*
X93785714Y-42738095D01*
X93833333Y-42642857D01*
X93880952Y-42595238D01*
X93976190Y-42547619D01*
X94261904Y-42547619D01*
X94357142Y-42595238D01*
X94404761Y-42642857D01*
X94452380Y-42738095D01*
X94452380Y-42880952D01*
X93785714Y-41690476D02*
X94452380Y-41690476D01*
X93785714Y-42119047D02*
X94309523Y-42119047D01*
X94404761Y-42071428D01*
X94452380Y-41976190D01*
X94452380Y-41833333D01*
X94404761Y-41738095D01*
X94357142Y-41690476D01*
X93785714Y-41357142D02*
X93785714Y-40976190D01*
X93452380Y-41214285D02*
X94309523Y-41214285D01*
X94404761Y-41166666D01*
X94452380Y-41071428D01*
X94452380Y-40976190D01*
X94071428Y-39880952D02*
X94071428Y-39119047D01*
X94071428Y-37880952D02*
X94071428Y-37119047D01*
X94452380Y-37500000D02*
X93690476Y-37500000D01*
X93452380Y-55523809D02*
X94452380Y-55190476D01*
X93452380Y-54857142D01*
X94452380Y-54380952D02*
X94404761Y-54476190D01*
X94357142Y-54523809D01*
X94261904Y-54571428D01*
X93976190Y-54571428D01*
X93880952Y-54523809D01*
X93833333Y-54476190D01*
X93785714Y-54380952D01*
X93785714Y-54238095D01*
X93833333Y-54142857D01*
X93880952Y-54095238D01*
X93976190Y-54047619D01*
X94261904Y-54047619D01*
X94357142Y-54095238D01*
X94404761Y-54142857D01*
X94452380Y-54238095D01*
X94452380Y-54380952D01*
X93785714Y-53190476D02*
X94452380Y-53190476D01*
X93785714Y-53619047D02*
X94309523Y-53619047D01*
X94404761Y-53571428D01*
X94452380Y-53476190D01*
X94452380Y-53333333D01*
X94404761Y-53238095D01*
X94357142Y-53190476D01*
X93785714Y-52857142D02*
X93785714Y-52476190D01*
X93452380Y-52714285D02*
X94309523Y-52714285D01*
X94404761Y-52666666D01*
X94452380Y-52571428D01*
X94452380Y-52476190D01*
X94071428Y-51380952D02*
X94071428Y-50619047D01*
X94071428Y-49380952D02*
X94071428Y-48619047D01*
X94452380Y-49000000D02*
X93690476Y-49000000D01*
X92127380Y-67023809D02*
X93127380Y-66690476D01*
X92127380Y-66357142D01*
X93127380Y-65880952D02*
X93079761Y-65976190D01*
X93032142Y-66023809D01*
X92936904Y-66071428D01*
X92651190Y-66071428D01*
X92555952Y-66023809D01*
X92508333Y-65976190D01*
X92460714Y-65880952D01*
X92460714Y-65738095D01*
X92508333Y-65642857D01*
X92555952Y-65595238D01*
X92651190Y-65547619D01*
X92936904Y-65547619D01*
X93032142Y-65595238D01*
X93079761Y-65642857D01*
X93127380Y-65738095D01*
X93127380Y-65880952D01*
X92460714Y-64690476D02*
X93127380Y-64690476D01*
X92460714Y-65119047D02*
X92984523Y-65119047D01*
X93079761Y-65071428D01*
X93127380Y-64976190D01*
X93127380Y-64833333D01*
X93079761Y-64738095D01*
X93032142Y-64690476D01*
X92460714Y-64357142D02*
X92460714Y-63976190D01*
X92127380Y-64214285D02*
X92984523Y-64214285D01*
X93079761Y-64166666D01*
X93127380Y-64071428D01*
X93127380Y-63976190D01*
X94396428Y-68785714D02*
X94396428Y-68023809D01*
X94396428Y-62976190D02*
X94396428Y-62214285D01*
X94777380Y-62595238D02*
X94015476Y-62595238D01*
X35627380Y-31523809D02*
X36627380Y-31190476D01*
X35627380Y-30857142D01*
X36627380Y-30523809D02*
X35960714Y-30523809D01*
X35627380Y-30523809D02*
X35675000Y-30571428D01*
X35722619Y-30523809D01*
X35675000Y-30476190D01*
X35627380Y-30523809D01*
X35722619Y-30523809D01*
X35960714Y-30047619D02*
X36627380Y-30047619D01*
X36055952Y-30047619D02*
X36008333Y-30000000D01*
X35960714Y-29904761D01*
X35960714Y-29761904D01*
X36008333Y-29666666D01*
X36103571Y-29619047D01*
X36627380Y-29619047D01*
X37008333Y-28095238D02*
X36960714Y-28142857D01*
X36817857Y-28238095D01*
X36722619Y-28285714D01*
X36579761Y-28333333D01*
X36341666Y-28380952D01*
X36151190Y-28380952D01*
X35913095Y-28333333D01*
X35770238Y-28285714D01*
X35675000Y-28238095D01*
X35532142Y-28142857D01*
X35484523Y-28095238D01*
X36627380Y-27190476D02*
X36627380Y-27761904D01*
X36627380Y-27476190D02*
X35627380Y-27476190D01*
X35770238Y-27571428D01*
X35865476Y-27666666D01*
X35913095Y-27761904D01*
X35627380Y-26571428D02*
X35627380Y-26476190D01*
X35675000Y-26380952D01*
X35722619Y-26333333D01*
X35817857Y-26285714D01*
X36008333Y-26238095D01*
X36246428Y-26238095D01*
X36436904Y-26285714D01*
X36532142Y-26333333D01*
X36579761Y-26380952D01*
X36627380Y-26476190D01*
X36627380Y-26571428D01*
X36579761Y-26666666D01*
X36532142Y-26714285D01*
X36436904Y-26761904D01*
X36246428Y-26809523D01*
X36008333Y-26809523D01*
X35817857Y-26761904D01*
X35722619Y-26714285D01*
X35675000Y-26666666D01*
X35627380Y-26571428D01*
X36246428Y-25809523D02*
X36246428Y-25047619D01*
X35722619Y-24619047D02*
X35675000Y-24571428D01*
X35627380Y-24476190D01*
X35627380Y-24238095D01*
X35675000Y-24142857D01*
X35722619Y-24095238D01*
X35817857Y-24047619D01*
X35913095Y-24047619D01*
X36055952Y-24095238D01*
X36627380Y-24666666D01*
X36627380Y-24047619D01*
X35960714Y-23190476D02*
X36627380Y-23190476D01*
X35579761Y-23428571D02*
X36294047Y-23666666D01*
X36294047Y-23047619D01*
X35627380Y-22809523D02*
X36627380Y-22476190D01*
X35627380Y-22142857D01*
X37008333Y-21904761D02*
X36960714Y-21857142D01*
X36817857Y-21761904D01*
X36722619Y-21714285D01*
X36579761Y-21666666D01*
X36341666Y-21619047D01*
X36151190Y-21619047D01*
X35913095Y-21666666D01*
X35770238Y-21714285D01*
X35675000Y-21761904D01*
X35532142Y-21857142D01*
X35484523Y-21904761D01*
X37896428Y-31309523D02*
X37896428Y-30547619D01*
X38277380Y-30928571D02*
X37515476Y-30928571D01*
X37896428Y-22452380D02*
X37896428Y-21690476D01*
D11*
X62470000Y-67450000D02*
X63970000Y-67450000D01*
X63970000Y-67450000D02*
X63970000Y-67180000D01*
X63970000Y-67180000D02*
X66800000Y-67180000D01*
X62470000Y-60550000D02*
X63970000Y-60550000D01*
X63970000Y-60550000D02*
X63970000Y-60820000D01*
X63970000Y-60820000D02*
X65070000Y-60820000D01*
X66605000Y-59180000D02*
X65505000Y-59180000D01*
X66605000Y-59450000D02*
X66605000Y-59180000D01*
X68105000Y-59450000D02*
X66605000Y-59450000D01*
X66605000Y-52820000D02*
X63775000Y-52820000D01*
X66605000Y-52550000D02*
X66605000Y-52820000D01*
X68105000Y-52550000D02*
X66605000Y-52550000D01*
X93192082Y-38700000D02*
X93192082Y-37450000D01*
X93817082Y-38075000D02*
X92567082Y-38075000D01*
X80639000Y-34817000D02*
X80639000Y-34183000D01*
X80679000Y-35257000D02*
X80679000Y-33743000D01*
X80719000Y-35528000D02*
X80719000Y-33472000D01*
X80759000Y-35741000D02*
X80759000Y-33259000D01*
X80799000Y-35922000D02*
X80799000Y-33078000D01*
X80839000Y-36083000D02*
X80839000Y-32917000D01*
X80879000Y-36228000D02*
X80879000Y-32772000D01*
X80919000Y-36361000D02*
X80919000Y-32639000D01*
X80959000Y-36484000D02*
X80959000Y-32516000D01*
X80999000Y-36600000D02*
X80999000Y-32400000D01*
X81039000Y-36709000D02*
X81039000Y-32291000D01*
X81079000Y-36812000D02*
X81079000Y-32188000D01*
X81119000Y-36910000D02*
X81119000Y-32090000D01*
X81159000Y-37004000D02*
X81159000Y-31996000D01*
X81199000Y-37094000D02*
X81199000Y-31906000D01*
X81239000Y-37181000D02*
X81239000Y-31819000D01*
X81279000Y-37264000D02*
X81279000Y-31736000D01*
X81319000Y-37344000D02*
X81319000Y-31656000D01*
X81359000Y-37421000D02*
X81359000Y-31579000D01*
X81399000Y-37496000D02*
X81399000Y-31504000D01*
X81439000Y-37569000D02*
X81439000Y-31431000D01*
X81479000Y-37640000D02*
X81479000Y-31360000D01*
X81519000Y-37708000D02*
X81519000Y-31292000D01*
X81559000Y-37775000D02*
X81559000Y-31225000D01*
X81599000Y-37839000D02*
X81599000Y-31161000D01*
X81639000Y-37902000D02*
X81639000Y-31098000D01*
X81679000Y-37964000D02*
X81679000Y-31036000D01*
X81719000Y-38024000D02*
X81719000Y-30976000D01*
X81759000Y-38083000D02*
X81759000Y-30917000D01*
X81799000Y-38140000D02*
X81799000Y-30860000D01*
X81839000Y-38196000D02*
X81839000Y-30804000D01*
X81879000Y-38250000D02*
X81879000Y-30750000D01*
X81919000Y-38304000D02*
X81919000Y-30696000D01*
X81959000Y-38356000D02*
X81959000Y-30644000D01*
X81999000Y-38407000D02*
X81999000Y-30593000D01*
X82039000Y-38457000D02*
X82039000Y-30543000D01*
X82079000Y-38507000D02*
X82079000Y-30493000D01*
X82119000Y-38555000D02*
X82119000Y-30445000D01*
X82159000Y-38602000D02*
X82159000Y-30398000D01*
X82199000Y-38648000D02*
X82199000Y-30352000D01*
X82239000Y-38694000D02*
X82239000Y-30306000D01*
X82279000Y-38738000D02*
X82279000Y-30262000D01*
X82319000Y-38782000D02*
X82319000Y-30218000D01*
X82359000Y-38825000D02*
X82359000Y-30175000D01*
X82399000Y-38867000D02*
X82399000Y-30133000D01*
X82439000Y-38908000D02*
X82439000Y-30092000D01*
X82479000Y-38949000D02*
X82479000Y-30051000D01*
X82519000Y-38989000D02*
X82519000Y-30011000D01*
X82559000Y-39028000D02*
X82559000Y-29972000D01*
X82599000Y-39067000D02*
X82599000Y-29933000D01*
X82639000Y-39105000D02*
X82639000Y-29895000D01*
X82679000Y-39142000D02*
X82679000Y-29858000D01*
X82719000Y-39178000D02*
X82719000Y-29822000D01*
X82759000Y-39214000D02*
X82759000Y-29786000D01*
X82799000Y-39250000D02*
X82799000Y-29750000D01*
X82839000Y-39285000D02*
X82839000Y-29715000D01*
X82879000Y-39319000D02*
X82879000Y-29681000D01*
X82919000Y-39352000D02*
X82919000Y-29648000D01*
X82959000Y-39385000D02*
X82959000Y-29615000D01*
X82999000Y-39418000D02*
X82999000Y-29582000D01*
X83039000Y-39450000D02*
X83039000Y-29550000D01*
X83079000Y-33060000D02*
X83079000Y-29518000D01*
X83079000Y-39482000D02*
X83079000Y-35940000D01*
X83119000Y-33060000D02*
X83119000Y-29488000D01*
X83119000Y-39512000D02*
X83119000Y-35940000D01*
X83159000Y-33060000D02*
X83159000Y-29457000D01*
X83159000Y-39543000D02*
X83159000Y-35940000D01*
X83199000Y-33060000D02*
X83199000Y-29427000D01*
X83199000Y-39573000D02*
X83199000Y-35940000D01*
X83239000Y-33060000D02*
X83239000Y-29398000D01*
X83239000Y-39602000D02*
X83239000Y-35940000D01*
X83279000Y-33060000D02*
X83279000Y-29369000D01*
X83279000Y-39631000D02*
X83279000Y-35940000D01*
X83319000Y-33060000D02*
X83319000Y-29340000D01*
X83319000Y-39660000D02*
X83319000Y-35940000D01*
X83359000Y-33060000D02*
X83359000Y-29312000D01*
X83359000Y-39688000D02*
X83359000Y-35940000D01*
X83399000Y-33060000D02*
X83399000Y-29284000D01*
X83399000Y-39716000D02*
X83399000Y-35940000D01*
X83439000Y-33060000D02*
X83439000Y-29257000D01*
X83439000Y-39743000D02*
X83439000Y-35940000D01*
X83479000Y-33060000D02*
X83479000Y-29230000D01*
X83479000Y-39770000D02*
X83479000Y-35940000D01*
X83519000Y-33060000D02*
X83519000Y-29204000D01*
X83519000Y-39796000D02*
X83519000Y-35940000D01*
X83559000Y-33060000D02*
X83559000Y-29178000D01*
X83559000Y-39822000D02*
X83559000Y-35940000D01*
X83599000Y-33060000D02*
X83599000Y-29153000D01*
X83599000Y-39847000D02*
X83599000Y-35940000D01*
X83639000Y-33060000D02*
X83639000Y-29128000D01*
X83639000Y-39872000D02*
X83639000Y-35940000D01*
X83679000Y-33060000D02*
X83679000Y-29103000D01*
X83679000Y-39897000D02*
X83679000Y-35940000D01*
X83719000Y-33060000D02*
X83719000Y-29079000D01*
X83719000Y-39921000D02*
X83719000Y-35940000D01*
X83759000Y-33060000D02*
X83759000Y-29055000D01*
X83759000Y-39945000D02*
X83759000Y-35940000D01*
X83799000Y-33060000D02*
X83799000Y-29032000D01*
X83799000Y-39968000D02*
X83799000Y-35940000D01*
X83839000Y-33060000D02*
X83839000Y-29009000D01*
X83839000Y-39991000D02*
X83839000Y-35940000D01*
X83879000Y-33060000D02*
X83879000Y-28986000D01*
X83879000Y-40014000D02*
X83879000Y-35940000D01*
X83919000Y-33060000D02*
X83919000Y-28964000D01*
X83919000Y-40036000D02*
X83919000Y-35940000D01*
X83959000Y-33060000D02*
X83959000Y-28942000D01*
X83959000Y-40058000D02*
X83959000Y-35940000D01*
X83999000Y-33060000D02*
X83999000Y-28920000D01*
X83999000Y-40080000D02*
X83999000Y-35940000D01*
X84039000Y-33060000D02*
X84039000Y-28899000D01*
X84039000Y-40101000D02*
X84039000Y-35940000D01*
X84079000Y-33060000D02*
X84079000Y-28878000D01*
X84079000Y-40122000D02*
X84079000Y-35940000D01*
X84119000Y-33060000D02*
X84119000Y-28858000D01*
X84119000Y-40142000D02*
X84119000Y-35940000D01*
X84159000Y-33060000D02*
X84159000Y-28838000D01*
X84159000Y-40162000D02*
X84159000Y-35940000D01*
X84199000Y-33060000D02*
X84199000Y-28818000D01*
X84199000Y-40182000D02*
X84199000Y-35940000D01*
X84239000Y-33060000D02*
X84239000Y-28798000D01*
X84239000Y-40202000D02*
X84239000Y-35940000D01*
X84279000Y-33060000D02*
X84279000Y-28779000D01*
X84279000Y-40221000D02*
X84279000Y-35940000D01*
X84319000Y-33060000D02*
X84319000Y-28761000D01*
X84319000Y-40239000D02*
X84319000Y-35940000D01*
X84359000Y-33060000D02*
X84359000Y-28742000D01*
X84359000Y-40258000D02*
X84359000Y-35940000D01*
X84399000Y-33060000D02*
X84399000Y-28724000D01*
X84399000Y-40276000D02*
X84399000Y-35940000D01*
X84439000Y-33060000D02*
X84439000Y-28707000D01*
X84439000Y-40293000D02*
X84439000Y-35940000D01*
X84479000Y-33060000D02*
X84479000Y-28689000D01*
X84479000Y-40311000D02*
X84479000Y-35940000D01*
X84519000Y-33060000D02*
X84519000Y-28672000D01*
X84519000Y-40328000D02*
X84519000Y-35940000D01*
X84559000Y-33060000D02*
X84559000Y-28655000D01*
X84559000Y-40345000D02*
X84559000Y-35940000D01*
X84599000Y-33060000D02*
X84599000Y-28639000D01*
X84599000Y-40361000D02*
X84599000Y-35940000D01*
X84639000Y-33060000D02*
X84639000Y-28623000D01*
X84639000Y-40377000D02*
X84639000Y-35940000D01*
X84679000Y-33060000D02*
X84679000Y-28607000D01*
X84679000Y-40393000D02*
X84679000Y-35940000D01*
X84719000Y-33060000D02*
X84719000Y-28592000D01*
X84719000Y-40408000D02*
X84719000Y-35940000D01*
X84759000Y-33060000D02*
X84759000Y-28576000D01*
X84759000Y-40424000D02*
X84759000Y-35940000D01*
X84799000Y-33060000D02*
X84799000Y-28561000D01*
X84799000Y-40439000D02*
X84799000Y-35940000D01*
X84839000Y-33060000D02*
X84839000Y-28547000D01*
X84839000Y-40453000D02*
X84839000Y-35940000D01*
X84879000Y-33060000D02*
X84879000Y-28533000D01*
X84879000Y-40467000D02*
X84879000Y-35940000D01*
X84919000Y-33060000D02*
X84919000Y-28519000D01*
X84919000Y-40481000D02*
X84919000Y-35940000D01*
X84959000Y-33060000D02*
X84959000Y-28505000D01*
X84959000Y-40495000D02*
X84959000Y-35940000D01*
X84999000Y-33060000D02*
X84999000Y-28492000D01*
X84999000Y-40508000D02*
X84999000Y-35940000D01*
X85039000Y-33060000D02*
X85039000Y-28479000D01*
X85039000Y-40521000D02*
X85039000Y-35940000D01*
X85079000Y-33060000D02*
X85079000Y-28466000D01*
X85079000Y-40534000D02*
X85079000Y-35940000D01*
X85119000Y-33060000D02*
X85119000Y-28453000D01*
X85119000Y-40547000D02*
X85119000Y-35940000D01*
X85159000Y-33060000D02*
X85159000Y-28441000D01*
X85159000Y-40559000D02*
X85159000Y-35940000D01*
X85199000Y-33060000D02*
X85199000Y-28429000D01*
X85199000Y-40571000D02*
X85199000Y-35940000D01*
X85239000Y-33060000D02*
X85239000Y-28417000D01*
X85239000Y-40583000D02*
X85239000Y-35940000D01*
X85279000Y-33060000D02*
X85279000Y-28406000D01*
X85279000Y-40594000D02*
X85279000Y-35940000D01*
X85319000Y-33060000D02*
X85319000Y-28395000D01*
X85319000Y-40605000D02*
X85319000Y-35940000D01*
X85359000Y-33060000D02*
X85359000Y-28384000D01*
X85359000Y-40616000D02*
X85359000Y-35940000D01*
X85399000Y-33060000D02*
X85399000Y-28374000D01*
X85399000Y-40626000D02*
X85399000Y-35940000D01*
X85439000Y-33060000D02*
X85439000Y-28363000D01*
X85439000Y-40637000D02*
X85439000Y-35940000D01*
X85479000Y-33060000D02*
X85479000Y-28354000D01*
X85479000Y-40646000D02*
X85479000Y-35940000D01*
X85519000Y-33060000D02*
X85519000Y-28344000D01*
X85519000Y-40656000D02*
X85519000Y-35940000D01*
X85559000Y-33060000D02*
X85559000Y-28334000D01*
X85559000Y-40666000D02*
X85559000Y-35940000D01*
X85599000Y-33060000D02*
X85599000Y-28325000D01*
X85599000Y-40675000D02*
X85599000Y-35940000D01*
X85639000Y-33060000D02*
X85639000Y-28316000D01*
X85639000Y-40684000D02*
X85639000Y-35940000D01*
X85679000Y-33060000D02*
X85679000Y-28308000D01*
X85679000Y-40692000D02*
X85679000Y-35940000D01*
X85719000Y-33060000D02*
X85719000Y-28299000D01*
X85719000Y-40701000D02*
X85719000Y-35940000D01*
X85759000Y-33060000D02*
X85759000Y-28291000D01*
X85759000Y-40709000D02*
X85759000Y-35940000D01*
X85799000Y-33060000D02*
X85799000Y-28284000D01*
X85799000Y-40716000D02*
X85799000Y-35940000D01*
X85839000Y-33060000D02*
X85839000Y-28276000D01*
X85839000Y-40724000D02*
X85839000Y-35940000D01*
X85879000Y-33060000D02*
X85879000Y-28269000D01*
X85879000Y-40731000D02*
X85879000Y-35940000D01*
X85919000Y-33060000D02*
X85919000Y-28262000D01*
X85919000Y-40738000D02*
X85919000Y-35940000D01*
X85959000Y-40745000D02*
X85959000Y-28255000D01*
X85999000Y-40752000D02*
X85999000Y-28248000D01*
X86039000Y-40758000D02*
X86039000Y-28242000D01*
X86079000Y-40764000D02*
X86079000Y-28236000D01*
X86119000Y-40769000D02*
X86119000Y-28231000D01*
X86159000Y-40775000D02*
X86159000Y-28225000D01*
X86199000Y-40780000D02*
X86199000Y-28220000D01*
X86239000Y-40785000D02*
X86239000Y-28215000D01*
X86279000Y-40790000D02*
X86279000Y-28210000D01*
X86320000Y-40794000D02*
X86320000Y-28206000D01*
X86360000Y-40798000D02*
X86360000Y-28202000D01*
X86400000Y-40802000D02*
X86400000Y-28198000D01*
X86440000Y-40806000D02*
X86440000Y-28194000D01*
X86480000Y-40809000D02*
X86480000Y-28191000D01*
X86520000Y-40812000D02*
X86520000Y-28188000D01*
X86560000Y-40815000D02*
X86560000Y-28185000D01*
X86600000Y-40818000D02*
X86600000Y-28182000D01*
X86640000Y-40820000D02*
X86640000Y-28180000D01*
X86680000Y-40822000D02*
X86680000Y-28178000D01*
X86720000Y-40824000D02*
X86720000Y-28176000D01*
X86760000Y-40826000D02*
X86760000Y-28174000D01*
X86800000Y-40827000D02*
X86800000Y-28173000D01*
X86840000Y-40828000D02*
X86840000Y-28172000D01*
X86880000Y-40829000D02*
X86880000Y-28171000D01*
X86920000Y-40830000D02*
X86920000Y-28170000D01*
X86960000Y-40830000D02*
X86960000Y-28170000D01*
X87000000Y-40830000D02*
X87000000Y-28170000D01*
X93370000Y-34500000D02*
G75*
G03*
X93370000Y-34500000I-6370000J0D01*
G01*
X93192082Y-52200000D02*
X93192082Y-50950000D01*
X93817082Y-51575000D02*
X92567082Y-51575000D01*
X80639000Y-48317000D02*
X80639000Y-47683000D01*
X80679000Y-48757000D02*
X80679000Y-47243000D01*
X80719000Y-49028000D02*
X80719000Y-46972000D01*
X80759000Y-49241000D02*
X80759000Y-46759000D01*
X80799000Y-49422000D02*
X80799000Y-46578000D01*
X80839000Y-49583000D02*
X80839000Y-46417000D01*
X80879000Y-49728000D02*
X80879000Y-46272000D01*
X80919000Y-49861000D02*
X80919000Y-46139000D01*
X80959000Y-49984000D02*
X80959000Y-46016000D01*
X80999000Y-50100000D02*
X80999000Y-45900000D01*
X81039000Y-50209000D02*
X81039000Y-45791000D01*
X81079000Y-50312000D02*
X81079000Y-45688000D01*
X81119000Y-50410000D02*
X81119000Y-45590000D01*
X81159000Y-50504000D02*
X81159000Y-45496000D01*
X81199000Y-50594000D02*
X81199000Y-45406000D01*
X81239000Y-50681000D02*
X81239000Y-45319000D01*
X81279000Y-50764000D02*
X81279000Y-45236000D01*
X81319000Y-50844000D02*
X81319000Y-45156000D01*
X81359000Y-50921000D02*
X81359000Y-45079000D01*
X81399000Y-50996000D02*
X81399000Y-45004000D01*
X81439000Y-51069000D02*
X81439000Y-44931000D01*
X81479000Y-51140000D02*
X81479000Y-44860000D01*
X81519000Y-51208000D02*
X81519000Y-44792000D01*
X81559000Y-51275000D02*
X81559000Y-44725000D01*
X81599000Y-51339000D02*
X81599000Y-44661000D01*
X81639000Y-51402000D02*
X81639000Y-44598000D01*
X81679000Y-51464000D02*
X81679000Y-44536000D01*
X81719000Y-51524000D02*
X81719000Y-44476000D01*
X81759000Y-51583000D02*
X81759000Y-44417000D01*
X81799000Y-51640000D02*
X81799000Y-44360000D01*
X81839000Y-51696000D02*
X81839000Y-44304000D01*
X81879000Y-51750000D02*
X81879000Y-44250000D01*
X81919000Y-51804000D02*
X81919000Y-44196000D01*
X81959000Y-51856000D02*
X81959000Y-44144000D01*
X81999000Y-51907000D02*
X81999000Y-44093000D01*
X82039000Y-51957000D02*
X82039000Y-44043000D01*
X82079000Y-52007000D02*
X82079000Y-43993000D01*
X82119000Y-52055000D02*
X82119000Y-43945000D01*
X82159000Y-52102000D02*
X82159000Y-43898000D01*
X82199000Y-52148000D02*
X82199000Y-43852000D01*
X82239000Y-52194000D02*
X82239000Y-43806000D01*
X82279000Y-52238000D02*
X82279000Y-43762000D01*
X82319000Y-52282000D02*
X82319000Y-43718000D01*
X82359000Y-52325000D02*
X82359000Y-43675000D01*
X82399000Y-52367000D02*
X82399000Y-43633000D01*
X82439000Y-52408000D02*
X82439000Y-43592000D01*
X82479000Y-52449000D02*
X82479000Y-43551000D01*
X82519000Y-52489000D02*
X82519000Y-43511000D01*
X82559000Y-52528000D02*
X82559000Y-43472000D01*
X82599000Y-52567000D02*
X82599000Y-43433000D01*
X82639000Y-52605000D02*
X82639000Y-43395000D01*
X82679000Y-52642000D02*
X82679000Y-43358000D01*
X82719000Y-52678000D02*
X82719000Y-43322000D01*
X82759000Y-52714000D02*
X82759000Y-43286000D01*
X82799000Y-52750000D02*
X82799000Y-43250000D01*
X82839000Y-52785000D02*
X82839000Y-43215000D01*
X82879000Y-52819000D02*
X82879000Y-43181000D01*
X82919000Y-52852000D02*
X82919000Y-43148000D01*
X82959000Y-52885000D02*
X82959000Y-43115000D01*
X82999000Y-52918000D02*
X82999000Y-43082000D01*
X83039000Y-52950000D02*
X83039000Y-43050000D01*
X83079000Y-46560000D02*
X83079000Y-43018000D01*
X83079000Y-52982000D02*
X83079000Y-49440000D01*
X83119000Y-46560000D02*
X83119000Y-42988000D01*
X83119000Y-53012000D02*
X83119000Y-49440000D01*
X83159000Y-46560000D02*
X83159000Y-42957000D01*
X83159000Y-53043000D02*
X83159000Y-49440000D01*
X83199000Y-46560000D02*
X83199000Y-42927000D01*
X83199000Y-53073000D02*
X83199000Y-49440000D01*
X83239000Y-46560000D02*
X83239000Y-42898000D01*
X83239000Y-53102000D02*
X83239000Y-49440000D01*
X83279000Y-46560000D02*
X83279000Y-42869000D01*
X83279000Y-53131000D02*
X83279000Y-49440000D01*
X83319000Y-46560000D02*
X83319000Y-42840000D01*
X83319000Y-53160000D02*
X83319000Y-49440000D01*
X83359000Y-46560000D02*
X83359000Y-42812000D01*
X83359000Y-53188000D02*
X83359000Y-49440000D01*
X83399000Y-46560000D02*
X83399000Y-42784000D01*
X83399000Y-53216000D02*
X83399000Y-49440000D01*
X83439000Y-46560000D02*
X83439000Y-42757000D01*
X83439000Y-53243000D02*
X83439000Y-49440000D01*
X83479000Y-46560000D02*
X83479000Y-42730000D01*
X83479000Y-53270000D02*
X83479000Y-49440000D01*
X83519000Y-46560000D02*
X83519000Y-42704000D01*
X83519000Y-53296000D02*
X83519000Y-49440000D01*
X83559000Y-46560000D02*
X83559000Y-42678000D01*
X83559000Y-53322000D02*
X83559000Y-49440000D01*
X83599000Y-46560000D02*
X83599000Y-42653000D01*
X83599000Y-53347000D02*
X83599000Y-49440000D01*
X83639000Y-46560000D02*
X83639000Y-42628000D01*
X83639000Y-53372000D02*
X83639000Y-49440000D01*
X83679000Y-46560000D02*
X83679000Y-42603000D01*
X83679000Y-53397000D02*
X83679000Y-49440000D01*
X83719000Y-46560000D02*
X83719000Y-42579000D01*
X83719000Y-53421000D02*
X83719000Y-49440000D01*
X83759000Y-46560000D02*
X83759000Y-42555000D01*
X83759000Y-53445000D02*
X83759000Y-49440000D01*
X83799000Y-46560000D02*
X83799000Y-42532000D01*
X83799000Y-53468000D02*
X83799000Y-49440000D01*
X83839000Y-46560000D02*
X83839000Y-42509000D01*
X83839000Y-53491000D02*
X83839000Y-49440000D01*
X83879000Y-46560000D02*
X83879000Y-42486000D01*
X83879000Y-53514000D02*
X83879000Y-49440000D01*
X83919000Y-46560000D02*
X83919000Y-42464000D01*
X83919000Y-53536000D02*
X83919000Y-49440000D01*
X83959000Y-46560000D02*
X83959000Y-42442000D01*
X83959000Y-53558000D02*
X83959000Y-49440000D01*
X83999000Y-46560000D02*
X83999000Y-42420000D01*
X83999000Y-53580000D02*
X83999000Y-49440000D01*
X84039000Y-46560000D02*
X84039000Y-42399000D01*
X84039000Y-53601000D02*
X84039000Y-49440000D01*
X84079000Y-46560000D02*
X84079000Y-42378000D01*
X84079000Y-53622000D02*
X84079000Y-49440000D01*
X84119000Y-46560000D02*
X84119000Y-42358000D01*
X84119000Y-53642000D02*
X84119000Y-49440000D01*
X84159000Y-46560000D02*
X84159000Y-42338000D01*
X84159000Y-53662000D02*
X84159000Y-49440000D01*
X84199000Y-46560000D02*
X84199000Y-42318000D01*
X84199000Y-53682000D02*
X84199000Y-49440000D01*
X84239000Y-46560000D02*
X84239000Y-42298000D01*
X84239000Y-53702000D02*
X84239000Y-49440000D01*
X84279000Y-46560000D02*
X84279000Y-42279000D01*
X84279000Y-53721000D02*
X84279000Y-49440000D01*
X84319000Y-46560000D02*
X84319000Y-42261000D01*
X84319000Y-53739000D02*
X84319000Y-49440000D01*
X84359000Y-46560000D02*
X84359000Y-42242000D01*
X84359000Y-53758000D02*
X84359000Y-49440000D01*
X84399000Y-46560000D02*
X84399000Y-42224000D01*
X84399000Y-53776000D02*
X84399000Y-49440000D01*
X84439000Y-46560000D02*
X84439000Y-42207000D01*
X84439000Y-53793000D02*
X84439000Y-49440000D01*
X84479000Y-46560000D02*
X84479000Y-42189000D01*
X84479000Y-53811000D02*
X84479000Y-49440000D01*
X84519000Y-46560000D02*
X84519000Y-42172000D01*
X84519000Y-53828000D02*
X84519000Y-49440000D01*
X84559000Y-46560000D02*
X84559000Y-42155000D01*
X84559000Y-53845000D02*
X84559000Y-49440000D01*
X84599000Y-46560000D02*
X84599000Y-42139000D01*
X84599000Y-53861000D02*
X84599000Y-49440000D01*
X84639000Y-46560000D02*
X84639000Y-42123000D01*
X84639000Y-53877000D02*
X84639000Y-49440000D01*
X84679000Y-46560000D02*
X84679000Y-42107000D01*
X84679000Y-53893000D02*
X84679000Y-49440000D01*
X84719000Y-46560000D02*
X84719000Y-42092000D01*
X84719000Y-53908000D02*
X84719000Y-49440000D01*
X84759000Y-46560000D02*
X84759000Y-42076000D01*
X84759000Y-53924000D02*
X84759000Y-49440000D01*
X84799000Y-46560000D02*
X84799000Y-42061000D01*
X84799000Y-53939000D02*
X84799000Y-49440000D01*
X84839000Y-46560000D02*
X84839000Y-42047000D01*
X84839000Y-53953000D02*
X84839000Y-49440000D01*
X84879000Y-46560000D02*
X84879000Y-42033000D01*
X84879000Y-53967000D02*
X84879000Y-49440000D01*
X84919000Y-46560000D02*
X84919000Y-42019000D01*
X84919000Y-53981000D02*
X84919000Y-49440000D01*
X84959000Y-46560000D02*
X84959000Y-42005000D01*
X84959000Y-53995000D02*
X84959000Y-49440000D01*
X84999000Y-46560000D02*
X84999000Y-41992000D01*
X84999000Y-54008000D02*
X84999000Y-49440000D01*
X85039000Y-46560000D02*
X85039000Y-41979000D01*
X85039000Y-54021000D02*
X85039000Y-49440000D01*
X85079000Y-46560000D02*
X85079000Y-41966000D01*
X85079000Y-54034000D02*
X85079000Y-49440000D01*
X85119000Y-46560000D02*
X85119000Y-41953000D01*
X85119000Y-54047000D02*
X85119000Y-49440000D01*
X85159000Y-46560000D02*
X85159000Y-41941000D01*
X85159000Y-54059000D02*
X85159000Y-49440000D01*
X85199000Y-46560000D02*
X85199000Y-41929000D01*
X85199000Y-54071000D02*
X85199000Y-49440000D01*
X85239000Y-46560000D02*
X85239000Y-41917000D01*
X85239000Y-54083000D02*
X85239000Y-49440000D01*
X85279000Y-46560000D02*
X85279000Y-41906000D01*
X85279000Y-54094000D02*
X85279000Y-49440000D01*
X85319000Y-46560000D02*
X85319000Y-41895000D01*
X85319000Y-54105000D02*
X85319000Y-49440000D01*
X85359000Y-46560000D02*
X85359000Y-41884000D01*
X85359000Y-54116000D02*
X85359000Y-49440000D01*
X85399000Y-46560000D02*
X85399000Y-41874000D01*
X85399000Y-54126000D02*
X85399000Y-49440000D01*
X85439000Y-46560000D02*
X85439000Y-41863000D01*
X85439000Y-54137000D02*
X85439000Y-49440000D01*
X85479000Y-46560000D02*
X85479000Y-41854000D01*
X85479000Y-54146000D02*
X85479000Y-49440000D01*
X85519000Y-46560000D02*
X85519000Y-41844000D01*
X85519000Y-54156000D02*
X85519000Y-49440000D01*
X85559000Y-46560000D02*
X85559000Y-41834000D01*
X85559000Y-54166000D02*
X85559000Y-49440000D01*
X85599000Y-46560000D02*
X85599000Y-41825000D01*
X85599000Y-54175000D02*
X85599000Y-49440000D01*
X85639000Y-46560000D02*
X85639000Y-41816000D01*
X85639000Y-54184000D02*
X85639000Y-49440000D01*
X85679000Y-46560000D02*
X85679000Y-41808000D01*
X85679000Y-54192000D02*
X85679000Y-49440000D01*
X85719000Y-46560000D02*
X85719000Y-41799000D01*
X85719000Y-54201000D02*
X85719000Y-49440000D01*
X85759000Y-46560000D02*
X85759000Y-41791000D01*
X85759000Y-54209000D02*
X85759000Y-49440000D01*
X85799000Y-46560000D02*
X85799000Y-41784000D01*
X85799000Y-54216000D02*
X85799000Y-49440000D01*
X85839000Y-46560000D02*
X85839000Y-41776000D01*
X85839000Y-54224000D02*
X85839000Y-49440000D01*
X85879000Y-46560000D02*
X85879000Y-41769000D01*
X85879000Y-54231000D02*
X85879000Y-49440000D01*
X85919000Y-46560000D02*
X85919000Y-41762000D01*
X85919000Y-54238000D02*
X85919000Y-49440000D01*
X85959000Y-54245000D02*
X85959000Y-41755000D01*
X85999000Y-54252000D02*
X85999000Y-41748000D01*
X86039000Y-54258000D02*
X86039000Y-41742000D01*
X86079000Y-54264000D02*
X86079000Y-41736000D01*
X86119000Y-54269000D02*
X86119000Y-41731000D01*
X86159000Y-54275000D02*
X86159000Y-41725000D01*
X86199000Y-54280000D02*
X86199000Y-41720000D01*
X86239000Y-54285000D02*
X86239000Y-41715000D01*
X86279000Y-54290000D02*
X86279000Y-41710000D01*
X86320000Y-54294000D02*
X86320000Y-41706000D01*
X86360000Y-54298000D02*
X86360000Y-41702000D01*
X86400000Y-54302000D02*
X86400000Y-41698000D01*
X86440000Y-54306000D02*
X86440000Y-41694000D01*
X86480000Y-54309000D02*
X86480000Y-41691000D01*
X86520000Y-54312000D02*
X86520000Y-41688000D01*
X86560000Y-54315000D02*
X86560000Y-41685000D01*
X86600000Y-54318000D02*
X86600000Y-41682000D01*
X86640000Y-54320000D02*
X86640000Y-41680000D01*
X86680000Y-54322000D02*
X86680000Y-41678000D01*
X86720000Y-54324000D02*
X86720000Y-41676000D01*
X86760000Y-54326000D02*
X86760000Y-41674000D01*
X86800000Y-54327000D02*
X86800000Y-41673000D01*
X86840000Y-54328000D02*
X86840000Y-41672000D01*
X86880000Y-54329000D02*
X86880000Y-41671000D01*
X86920000Y-54330000D02*
X86920000Y-41670000D01*
X86960000Y-54330000D02*
X86960000Y-41670000D01*
X87000000Y-54330000D02*
X87000000Y-41670000D01*
X93370000Y-48000000D02*
G75*
G03*
X93370000Y-48000000I-6370000J0D01*
G01*
X42930000Y-59705000D02*
X41830000Y-59705000D01*
X42930000Y-59975000D02*
X42930000Y-59705000D01*
X44430000Y-59975000D02*
X42930000Y-59975000D01*
X42930000Y-53345000D02*
X40100000Y-53345000D01*
X42930000Y-53075000D02*
X42930000Y-53345000D01*
X44430000Y-53075000D02*
X42930000Y-53075000D01*
X46270000Y-67950000D02*
X47770000Y-67950000D01*
X47770000Y-67950000D02*
X47770000Y-67680000D01*
X47770000Y-67680000D02*
X50600000Y-67680000D01*
X46270000Y-61050000D02*
X47770000Y-61050000D01*
X47770000Y-61050000D02*
X47770000Y-61320000D01*
X47770000Y-61320000D02*
X48870000Y-61320000D01*
X85755000Y-76705000D02*
X84655000Y-76705000D01*
X85755000Y-76975000D02*
X85755000Y-76705000D01*
X87255000Y-76975000D02*
X85755000Y-76975000D01*
X85755000Y-70345000D02*
X82925000Y-70345000D01*
X85755000Y-70075000D02*
X85755000Y-70345000D01*
X87255000Y-70075000D02*
X85755000Y-70075000D01*
D10*
X49175000Y-71250000D02*
X48100000Y-71250000D01*
X49175000Y-80975000D02*
X53825000Y-80975000D01*
X49175000Y-71025000D02*
X53825000Y-71025000D01*
X49175000Y-80975000D02*
X49175000Y-80650000D01*
X53825000Y-80975000D02*
X53825000Y-80650000D01*
X53825000Y-71025000D02*
X53825000Y-71350000D01*
X49175000Y-71025000D02*
X49175000Y-71250000D01*
D11*
X82500000Y-68610000D02*
X84000000Y-68610000D01*
X82500000Y-68610000D02*
X81000000Y-68610000D01*
X82500000Y-65390000D02*
X84000000Y-65390000D01*
X82500000Y-65390000D02*
X79575000Y-65390000D01*
X69030000Y-79575000D02*
X69030000Y-89345000D01*
X63960000Y-79575000D02*
X63960000Y-89345000D01*
X69030000Y-79575000D02*
X63960000Y-79575000D01*
X69030000Y-89345000D02*
X63960000Y-89345000D01*
D10*
X93750000Y-56583330D02*
X81750000Y-56583330D01*
X93750000Y-60783330D02*
X81750000Y-60783330D01*
X81750000Y-60783330D02*
X81750000Y-56583330D01*
X93750000Y-60783330D02*
X93750000Y-56583330D01*
D11*
X42860436Y-87765000D02*
X43314564Y-87765000D01*
X42860436Y-89235000D02*
X43314564Y-89235000D01*
X57772936Y-86265000D02*
X58227064Y-86265000D01*
X57772936Y-87735000D02*
X58227064Y-87735000D01*
X71685436Y-87265000D02*
X72139564Y-87265000D01*
X71685436Y-88735000D02*
X72139564Y-88735000D01*
X53185436Y-84235000D02*
X53639564Y-84235000D01*
X53185436Y-82765000D02*
X53639564Y-82765000D01*
X73727064Y-85410000D02*
X72272936Y-85410000D01*
X73727064Y-83590000D02*
X72272936Y-83590000D01*
X49185436Y-86735000D02*
X49639564Y-86735000D01*
X49185436Y-85265000D02*
X49639564Y-85265000D01*
X57685436Y-76265000D02*
X58139564Y-76265000D01*
X57685436Y-77735000D02*
X58139564Y-77735000D01*
X57685436Y-78765000D02*
X58139564Y-78765000D01*
X57685436Y-80235000D02*
X58139564Y-80235000D01*
X52810436Y-56090000D02*
X54264564Y-56090000D01*
X52810436Y-57910000D02*
X54264564Y-57910000D01*
X43314564Y-86735000D02*
X42860436Y-86735000D01*
X43314564Y-85265000D02*
X42860436Y-85265000D01*
X42860436Y-82765000D02*
X43314564Y-82765000D01*
X42860436Y-84235000D02*
X43314564Y-84235000D01*
X47050000Y-23640000D02*
X74950000Y-23640000D01*
X47050000Y-43440000D02*
X74950000Y-43440000D01*
X74950000Y-23640000D02*
X74950000Y-43440000D01*
X47050000Y-23640000D02*
X47050000Y-43440000D01*
X85235436Y-78590000D02*
X86689564Y-78590000D01*
X85235436Y-80410000D02*
X86689564Y-80410000D01*
X102500000Y-48000000D02*
X104000000Y-48000000D01*
X102500000Y-50000000D02*
X102500000Y-48000000D01*
X104000000Y-50000000D02*
X102500000Y-50000000D01*
X104000000Y-53000000D02*
X104000000Y-50000000D01*
X102500000Y-53000000D02*
X104000000Y-53000000D01*
X102500000Y-55000000D02*
X102500000Y-53000000D01*
X104000000Y-55000000D02*
X102500000Y-55000000D01*
X102500000Y-55000000D02*
X104000000Y-55000000D01*
X95400000Y-57100000D02*
X95400000Y-45900000D01*
X104400000Y-45900000D02*
X95400000Y-45900000D01*
X104400000Y-57100000D02*
X95400000Y-57100000D01*
X104400000Y-57100000D02*
X104400000Y-45900000D01*
X102500000Y-60500000D02*
X104000000Y-60500000D01*
X102500000Y-62500000D02*
X102500000Y-60500000D01*
X104000000Y-62500000D02*
X102500000Y-62500000D01*
X104000000Y-65500000D02*
X104000000Y-62500000D01*
X102500000Y-65500000D02*
X104000000Y-65500000D01*
X102500000Y-67500000D02*
X102500000Y-65500000D01*
X104000000Y-67500000D02*
X102500000Y-67500000D01*
X102500000Y-67500000D02*
X104000000Y-67500000D01*
X95400000Y-69600000D02*
X95400000Y-58400000D01*
X104400000Y-58400000D02*
X95400000Y-58400000D01*
X104400000Y-69600000D02*
X95400000Y-69600000D01*
X104400000Y-69600000D02*
X104400000Y-58400000D01*
X102500000Y-35500000D02*
X104000000Y-35500000D01*
X102500000Y-37500000D02*
X102500000Y-35500000D01*
X104000000Y-37500000D02*
X102500000Y-37500000D01*
X104000000Y-40500000D02*
X104000000Y-37500000D01*
X102500000Y-40500000D02*
X104000000Y-40500000D01*
X102500000Y-42500000D02*
X102500000Y-40500000D01*
X104000000Y-42500000D02*
X102500000Y-42500000D01*
X102500000Y-42500000D02*
X104000000Y-42500000D01*
X95400000Y-44600000D02*
X95400000Y-33400000D01*
X104400000Y-33400000D02*
X95400000Y-33400000D01*
X104400000Y-44600000D02*
X95400000Y-44600000D01*
X104400000Y-44600000D02*
X104400000Y-33400000D01*
X102500000Y-23000000D02*
X104000000Y-23000000D01*
X102500000Y-25000000D02*
X102500000Y-23000000D01*
X104000000Y-25000000D02*
X102500000Y-25000000D01*
X104000000Y-28000000D02*
X104000000Y-25000000D01*
X102500000Y-28000000D02*
X104000000Y-28000000D01*
X102500000Y-30000000D02*
X102500000Y-28000000D01*
X104000000Y-30000000D02*
X102500000Y-30000000D01*
X102500000Y-30000000D02*
X104000000Y-30000000D01*
X95400000Y-32100000D02*
X95400000Y-20900000D01*
X104400000Y-20900000D02*
X95400000Y-20900000D01*
X104400000Y-32100000D02*
X95400000Y-32100000D01*
X104400000Y-32100000D02*
X104400000Y-20900000D01*
X27500000Y-30000000D02*
X26000000Y-30000000D01*
X27500000Y-28000000D02*
X27500000Y-30000000D01*
X26000000Y-28000000D02*
X27500000Y-28000000D01*
X26000000Y-25000000D02*
X26000000Y-28000000D01*
X27500000Y-25000000D02*
X26000000Y-25000000D01*
X27500000Y-23000000D02*
X27500000Y-25000000D01*
X26000000Y-23000000D02*
X27500000Y-23000000D01*
X27500000Y-23000000D02*
X26000000Y-23000000D01*
X34600000Y-20900000D02*
X34600000Y-32100000D01*
X25600000Y-32100000D02*
X34600000Y-32100000D01*
X25600000Y-20900000D02*
X34600000Y-20900000D01*
X25600000Y-20900000D02*
X25600000Y-32100000D01*
X48437500Y-89460000D02*
X51122500Y-89460000D01*
X51122500Y-89460000D02*
X51122500Y-87540000D01*
X51122500Y-87540000D02*
X48437500Y-87540000D01*
X60500000Y-68700000D02*
X60500000Y-72550000D01*
X58500000Y-68700000D02*
X58500000Y-72550000D01*
X60500000Y-68700000D02*
X58500000Y-68700000D01*
X44000000Y-68800000D02*
X44000000Y-72650000D01*
X42000000Y-68800000D02*
X42000000Y-72650000D01*
X44000000Y-68800000D02*
X42000000Y-68800000D01*
X49711252Y-82765000D02*
X49188748Y-82765000D01*
X49711252Y-84235000D02*
X49188748Y-84235000D01*
X77263748Y-57590000D02*
X78686252Y-57590000D01*
X77263748Y-59410000D02*
X78686252Y-59410000D01*
X73763748Y-66090000D02*
X75186252Y-66090000D01*
X73763748Y-67910000D02*
X75186252Y-67910000D01*
X73763748Y-62090000D02*
X75186252Y-62090000D01*
X73763748Y-63910000D02*
X75186252Y-63910000D01*
X77263748Y-53590000D02*
X78686252Y-53590000D01*
X77263748Y-55410000D02*
X78686252Y-55410000D01*
X81370000Y-75500000D02*
G75*
G03*
X81370000Y-75500000I-6370000J0D01*
G01*
X75000000Y-69170000D02*
X75000000Y-81830000D01*
X75040000Y-69170000D02*
X75040000Y-81830000D01*
X75080000Y-69170000D02*
X75080000Y-81830000D01*
X75120000Y-69171000D02*
X75120000Y-81829000D01*
X75160000Y-69172000D02*
X75160000Y-81828000D01*
X75200000Y-69173000D02*
X75200000Y-81827000D01*
X75240000Y-69174000D02*
X75240000Y-81826000D01*
X75280000Y-69176000D02*
X75280000Y-81824000D01*
X75320000Y-69178000D02*
X75320000Y-81822000D01*
X75360000Y-69180000D02*
X75360000Y-81820000D01*
X75400000Y-69182000D02*
X75400000Y-81818000D01*
X75440000Y-69185000D02*
X75440000Y-81815000D01*
X75480000Y-69188000D02*
X75480000Y-81812000D01*
X75520000Y-69191000D02*
X75520000Y-81809000D01*
X75560000Y-69194000D02*
X75560000Y-81806000D01*
X75600000Y-69198000D02*
X75600000Y-81802000D01*
X75640000Y-69202000D02*
X75640000Y-81798000D01*
X75680000Y-69206000D02*
X75680000Y-81794000D01*
X75721000Y-69210000D02*
X75721000Y-81790000D01*
X75761000Y-69215000D02*
X75761000Y-81785000D01*
X75801000Y-69220000D02*
X75801000Y-81780000D01*
X75841000Y-69225000D02*
X75841000Y-81775000D01*
X75881000Y-69231000D02*
X75881000Y-81769000D01*
X75921000Y-69236000D02*
X75921000Y-81764000D01*
X75961000Y-69242000D02*
X75961000Y-81758000D01*
X76001000Y-69248000D02*
X76001000Y-81752000D01*
X76041000Y-69255000D02*
X76041000Y-81745000D01*
X76081000Y-69262000D02*
X76081000Y-74060000D01*
X76081000Y-76940000D02*
X76081000Y-81738000D01*
X76121000Y-69269000D02*
X76121000Y-74060000D01*
X76121000Y-76940000D02*
X76121000Y-81731000D01*
X76161000Y-69276000D02*
X76161000Y-74060000D01*
X76161000Y-76940000D02*
X76161000Y-81724000D01*
X76201000Y-69284000D02*
X76201000Y-74060000D01*
X76201000Y-76940000D02*
X76201000Y-81716000D01*
X76241000Y-69291000D02*
X76241000Y-74060000D01*
X76241000Y-76940000D02*
X76241000Y-81709000D01*
X76281000Y-69299000D02*
X76281000Y-74060000D01*
X76281000Y-76940000D02*
X76281000Y-81701000D01*
X76321000Y-69308000D02*
X76321000Y-74060000D01*
X76321000Y-76940000D02*
X76321000Y-81692000D01*
X76361000Y-69316000D02*
X76361000Y-74060000D01*
X76361000Y-76940000D02*
X76361000Y-81684000D01*
X76401000Y-69325000D02*
X76401000Y-74060000D01*
X76401000Y-76940000D02*
X76401000Y-81675000D01*
X76441000Y-69334000D02*
X76441000Y-74060000D01*
X76441000Y-76940000D02*
X76441000Y-81666000D01*
X76481000Y-69344000D02*
X76481000Y-74060000D01*
X76481000Y-76940000D02*
X76481000Y-81656000D01*
X76521000Y-69354000D02*
X76521000Y-74060000D01*
X76521000Y-76940000D02*
X76521000Y-81646000D01*
X76561000Y-69363000D02*
X76561000Y-74060000D01*
X76561000Y-76940000D02*
X76561000Y-81637000D01*
X76601000Y-69374000D02*
X76601000Y-74060000D01*
X76601000Y-76940000D02*
X76601000Y-81626000D01*
X76641000Y-69384000D02*
X76641000Y-74060000D01*
X76641000Y-76940000D02*
X76641000Y-81616000D01*
X76681000Y-69395000D02*
X76681000Y-74060000D01*
X76681000Y-76940000D02*
X76681000Y-81605000D01*
X76721000Y-69406000D02*
X76721000Y-74060000D01*
X76721000Y-76940000D02*
X76721000Y-81594000D01*
X76761000Y-69417000D02*
X76761000Y-74060000D01*
X76761000Y-76940000D02*
X76761000Y-81583000D01*
X76801000Y-69429000D02*
X76801000Y-74060000D01*
X76801000Y-76940000D02*
X76801000Y-81571000D01*
X76841000Y-69441000D02*
X76841000Y-74060000D01*
X76841000Y-76940000D02*
X76841000Y-81559000D01*
X76881000Y-69453000D02*
X76881000Y-74060000D01*
X76881000Y-76940000D02*
X76881000Y-81547000D01*
X76921000Y-69466000D02*
X76921000Y-74060000D01*
X76921000Y-76940000D02*
X76921000Y-81534000D01*
X76961000Y-69479000D02*
X76961000Y-74060000D01*
X76961000Y-76940000D02*
X76961000Y-81521000D01*
X77001000Y-69492000D02*
X77001000Y-74060000D01*
X77001000Y-76940000D02*
X77001000Y-81508000D01*
X77041000Y-69505000D02*
X77041000Y-74060000D01*
X77041000Y-76940000D02*
X77041000Y-81495000D01*
X77081000Y-69519000D02*
X77081000Y-74060000D01*
X77081000Y-76940000D02*
X77081000Y-81481000D01*
X77121000Y-69533000D02*
X77121000Y-74060000D01*
X77121000Y-76940000D02*
X77121000Y-81467000D01*
X77161000Y-69547000D02*
X77161000Y-74060000D01*
X77161000Y-76940000D02*
X77161000Y-81453000D01*
X77201000Y-69561000D02*
X77201000Y-74060000D01*
X77201000Y-76940000D02*
X77201000Y-81439000D01*
X77241000Y-69576000D02*
X77241000Y-74060000D01*
X77241000Y-76940000D02*
X77241000Y-81424000D01*
X77281000Y-69592000D02*
X77281000Y-74060000D01*
X77281000Y-76940000D02*
X77281000Y-81408000D01*
X77321000Y-69607000D02*
X77321000Y-74060000D01*
X77321000Y-76940000D02*
X77321000Y-81393000D01*
X77361000Y-69623000D02*
X77361000Y-74060000D01*
X77361000Y-76940000D02*
X77361000Y-81377000D01*
X77401000Y-69639000D02*
X77401000Y-74060000D01*
X77401000Y-76940000D02*
X77401000Y-81361000D01*
X77441000Y-69655000D02*
X77441000Y-74060000D01*
X77441000Y-76940000D02*
X77441000Y-81345000D01*
X77481000Y-69672000D02*
X77481000Y-74060000D01*
X77481000Y-76940000D02*
X77481000Y-81328000D01*
X77521000Y-69689000D02*
X77521000Y-74060000D01*
X77521000Y-76940000D02*
X77521000Y-81311000D01*
X77561000Y-69707000D02*
X77561000Y-74060000D01*
X77561000Y-76940000D02*
X77561000Y-81293000D01*
X77601000Y-69724000D02*
X77601000Y-74060000D01*
X77601000Y-76940000D02*
X77601000Y-81276000D01*
X77641000Y-69742000D02*
X77641000Y-74060000D01*
X77641000Y-76940000D02*
X77641000Y-81258000D01*
X77681000Y-69761000D02*
X77681000Y-74060000D01*
X77681000Y-76940000D02*
X77681000Y-81239000D01*
X77721000Y-69779000D02*
X77721000Y-74060000D01*
X77721000Y-76940000D02*
X77721000Y-81221000D01*
X77761000Y-69798000D02*
X77761000Y-74060000D01*
X77761000Y-76940000D02*
X77761000Y-81202000D01*
X77801000Y-69818000D02*
X77801000Y-74060000D01*
X77801000Y-76940000D02*
X77801000Y-81182000D01*
X77841000Y-69838000D02*
X77841000Y-74060000D01*
X77841000Y-76940000D02*
X77841000Y-81162000D01*
X77881000Y-69858000D02*
X77881000Y-74060000D01*
X77881000Y-76940000D02*
X77881000Y-81142000D01*
X77921000Y-69878000D02*
X77921000Y-74060000D01*
X77921000Y-76940000D02*
X77921000Y-81122000D01*
X77961000Y-69899000D02*
X77961000Y-74060000D01*
X77961000Y-76940000D02*
X77961000Y-81101000D01*
X78001000Y-69920000D02*
X78001000Y-74060000D01*
X78001000Y-76940000D02*
X78001000Y-81080000D01*
X78041000Y-69942000D02*
X78041000Y-74060000D01*
X78041000Y-76940000D02*
X78041000Y-81058000D01*
X78081000Y-69964000D02*
X78081000Y-74060000D01*
X78081000Y-76940000D02*
X78081000Y-81036000D01*
X78121000Y-69986000D02*
X78121000Y-74060000D01*
X78121000Y-76940000D02*
X78121000Y-81014000D01*
X78161000Y-70009000D02*
X78161000Y-74060000D01*
X78161000Y-76940000D02*
X78161000Y-80991000D01*
X78201000Y-70032000D02*
X78201000Y-74060000D01*
X78201000Y-76940000D02*
X78201000Y-80968000D01*
X78241000Y-70055000D02*
X78241000Y-74060000D01*
X78241000Y-76940000D02*
X78241000Y-80945000D01*
X78281000Y-70079000D02*
X78281000Y-74060000D01*
X78281000Y-76940000D02*
X78281000Y-80921000D01*
X78321000Y-70103000D02*
X78321000Y-74060000D01*
X78321000Y-76940000D02*
X78321000Y-80897000D01*
X78361000Y-70128000D02*
X78361000Y-74060000D01*
X78361000Y-76940000D02*
X78361000Y-80872000D01*
X78401000Y-70153000D02*
X78401000Y-74060000D01*
X78401000Y-76940000D02*
X78401000Y-80847000D01*
X78441000Y-70178000D02*
X78441000Y-74060000D01*
X78441000Y-76940000D02*
X78441000Y-80822000D01*
X78481000Y-70204000D02*
X78481000Y-74060000D01*
X78481000Y-76940000D02*
X78481000Y-80796000D01*
X78521000Y-70230000D02*
X78521000Y-74060000D01*
X78521000Y-76940000D02*
X78521000Y-80770000D01*
X78561000Y-70257000D02*
X78561000Y-74060000D01*
X78561000Y-76940000D02*
X78561000Y-80743000D01*
X78601000Y-70284000D02*
X78601000Y-74060000D01*
X78601000Y-76940000D02*
X78601000Y-80716000D01*
X78641000Y-70312000D02*
X78641000Y-74060000D01*
X78641000Y-76940000D02*
X78641000Y-80688000D01*
X78681000Y-70340000D02*
X78681000Y-74060000D01*
X78681000Y-76940000D02*
X78681000Y-80660000D01*
X78721000Y-70369000D02*
X78721000Y-74060000D01*
X78721000Y-76940000D02*
X78721000Y-80631000D01*
X78761000Y-70398000D02*
X78761000Y-74060000D01*
X78761000Y-76940000D02*
X78761000Y-80602000D01*
X78801000Y-70427000D02*
X78801000Y-74060000D01*
X78801000Y-76940000D02*
X78801000Y-80573000D01*
X78841000Y-70457000D02*
X78841000Y-74060000D01*
X78841000Y-76940000D02*
X78841000Y-80543000D01*
X78881000Y-70488000D02*
X78881000Y-74060000D01*
X78881000Y-76940000D02*
X78881000Y-80512000D01*
X78921000Y-70518000D02*
X78921000Y-74060000D01*
X78921000Y-76940000D02*
X78921000Y-80482000D01*
X78961000Y-70550000D02*
X78961000Y-80450000D01*
X79001000Y-70582000D02*
X79001000Y-80418000D01*
X79041000Y-70615000D02*
X79041000Y-80385000D01*
X79081000Y-70648000D02*
X79081000Y-80352000D01*
X79121000Y-70681000D02*
X79121000Y-80319000D01*
X79161000Y-70715000D02*
X79161000Y-80285000D01*
X79201000Y-70750000D02*
X79201000Y-80250000D01*
X79241000Y-70786000D02*
X79241000Y-80214000D01*
X79281000Y-70822000D02*
X79281000Y-80178000D01*
X79321000Y-70858000D02*
X79321000Y-80142000D01*
X79361000Y-70895000D02*
X79361000Y-80105000D01*
X79401000Y-70933000D02*
X79401000Y-80067000D01*
X79441000Y-70972000D02*
X79441000Y-80028000D01*
X79481000Y-71011000D02*
X79481000Y-79989000D01*
X79521000Y-71051000D02*
X79521000Y-79949000D01*
X79561000Y-71092000D02*
X79561000Y-79908000D01*
X79601000Y-71133000D02*
X79601000Y-79867000D01*
X79641000Y-71175000D02*
X79641000Y-79825000D01*
X79681000Y-71218000D02*
X79681000Y-79782000D01*
X79721000Y-71262000D02*
X79721000Y-79738000D01*
X79761000Y-71306000D02*
X79761000Y-79694000D01*
X79801000Y-71352000D02*
X79801000Y-79648000D01*
X79841000Y-71398000D02*
X79841000Y-79602000D01*
X79881000Y-71445000D02*
X79881000Y-79555000D01*
X79921000Y-71493000D02*
X79921000Y-79507000D01*
X79961000Y-71543000D02*
X79961000Y-79457000D01*
X80001000Y-71593000D02*
X80001000Y-79407000D01*
X80041000Y-71644000D02*
X80041000Y-79356000D01*
X80081000Y-71696000D02*
X80081000Y-79304000D01*
X80121000Y-71750000D02*
X80121000Y-79250000D01*
X80161000Y-71804000D02*
X80161000Y-79196000D01*
X80201000Y-71860000D02*
X80201000Y-79140000D01*
X80241000Y-71917000D02*
X80241000Y-79083000D01*
X80281000Y-71976000D02*
X80281000Y-79024000D01*
X80321000Y-72036000D02*
X80321000Y-78964000D01*
X80361000Y-72098000D02*
X80361000Y-78902000D01*
X80401000Y-72161000D02*
X80401000Y-78839000D01*
X80441000Y-72225000D02*
X80441000Y-78775000D01*
X80481000Y-72292000D02*
X80481000Y-78708000D01*
X80521000Y-72360000D02*
X80521000Y-78640000D01*
X80561000Y-72431000D02*
X80561000Y-78569000D01*
X80601000Y-72504000D02*
X80601000Y-78496000D01*
X80641000Y-72579000D02*
X80641000Y-78421000D01*
X80681000Y-72656000D02*
X80681000Y-78344000D01*
X80721000Y-72736000D02*
X80721000Y-78264000D01*
X80761000Y-72819000D02*
X80761000Y-78181000D01*
X80801000Y-72906000D02*
X80801000Y-78094000D01*
X80841000Y-72996000D02*
X80841000Y-78004000D01*
X80881000Y-73090000D02*
X80881000Y-77910000D01*
X80921000Y-73188000D02*
X80921000Y-77812000D01*
X80961000Y-73291000D02*
X80961000Y-77709000D01*
X81001000Y-73400000D02*
X81001000Y-77600000D01*
X81041000Y-73516000D02*
X81041000Y-77484000D01*
X81081000Y-73639000D02*
X81081000Y-77361000D01*
X81121000Y-73772000D02*
X81121000Y-77228000D01*
X81161000Y-73917000D02*
X81161000Y-77083000D01*
X81201000Y-74078000D02*
X81201000Y-76922000D01*
X81241000Y-74259000D02*
X81241000Y-76741000D01*
X81281000Y-74472000D02*
X81281000Y-76528000D01*
X81321000Y-74743000D02*
X81321000Y-76257000D01*
X81361000Y-75183000D02*
X81361000Y-75817000D01*
X68182918Y-71925000D02*
X69432918Y-71925000D01*
X68807918Y-71300000D02*
X68807918Y-72550000D01*
X57688748Y-75235000D02*
X58211252Y-75235000D01*
X57688748Y-73765000D02*
X58211252Y-73765000D01*
X45311252Y-78735000D02*
X44788748Y-78735000D01*
X45311252Y-77265000D02*
X44788748Y-77265000D01*
X57735000Y-71711252D02*
X57735000Y-71188748D01*
X56265000Y-71711252D02*
X56265000Y-71188748D01*
X57688748Y-81265000D02*
X58211252Y-81265000D01*
X57688748Y-82735000D02*
X58211252Y-82735000D01*
X63188748Y-77265000D02*
X63711252Y-77265000D01*
X63188748Y-78735000D02*
X63711252Y-78735000D01*
X57688748Y-83765000D02*
X58211252Y-83765000D01*
X57688748Y-85235000D02*
X58211252Y-85235000D01*
X46735000Y-71711252D02*
X46735000Y-71188748D01*
X45265000Y-71711252D02*
X45265000Y-71188748D01*
X45311252Y-81735000D02*
X44788748Y-81735000D01*
X45311252Y-80265000D02*
X44788748Y-80265000D01*
X45311252Y-73765000D02*
X44788748Y-73765000D01*
X45311252Y-75235000D02*
X44788748Y-75235000D01*
X29736252Y-63910000D02*
X28313748Y-63910000D01*
X29736252Y-62090000D02*
X28313748Y-62090000D01*
X29686252Y-67910000D02*
X28263748Y-67910000D01*
X29686252Y-66090000D02*
X28263748Y-66090000D01*
X33763748Y-62090000D02*
X35186252Y-62090000D01*
X33763748Y-63910000D02*
X35186252Y-63910000D01*
X33763748Y-66090000D02*
X35186252Y-66090000D01*
X33763748Y-67910000D02*
X35186252Y-67910000D01*
X84211252Y-64735000D02*
X83688748Y-64735000D01*
X84211252Y-63265000D02*
X83688748Y-63265000D01*
X38370000Y-75500000D02*
G75*
G03*
X38370000Y-75500000I-6370000J0D01*
G01*
X32000000Y-69170000D02*
X32000000Y-81830000D01*
X32040000Y-69170000D02*
X32040000Y-81830000D01*
X32080000Y-69170000D02*
X32080000Y-81830000D01*
X32120000Y-69171000D02*
X32120000Y-81829000D01*
X32160000Y-69172000D02*
X32160000Y-81828000D01*
X32200000Y-69173000D02*
X32200000Y-81827000D01*
X32240000Y-69174000D02*
X32240000Y-81826000D01*
X32280000Y-69176000D02*
X32280000Y-81824000D01*
X32320000Y-69178000D02*
X32320000Y-81822000D01*
X32360000Y-69180000D02*
X32360000Y-81820000D01*
X32400000Y-69182000D02*
X32400000Y-81818000D01*
X32440000Y-69185000D02*
X32440000Y-81815000D01*
X32480000Y-69188000D02*
X32480000Y-81812000D01*
X32520000Y-69191000D02*
X32520000Y-81809000D01*
X32560000Y-69194000D02*
X32560000Y-81806000D01*
X32600000Y-69198000D02*
X32600000Y-81802000D01*
X32640000Y-69202000D02*
X32640000Y-81798000D01*
X32680000Y-69206000D02*
X32680000Y-81794000D01*
X32721000Y-69210000D02*
X32721000Y-81790000D01*
X32761000Y-69215000D02*
X32761000Y-81785000D01*
X32801000Y-69220000D02*
X32801000Y-81780000D01*
X32841000Y-69225000D02*
X32841000Y-81775000D01*
X32881000Y-69231000D02*
X32881000Y-81769000D01*
X32921000Y-69236000D02*
X32921000Y-81764000D01*
X32961000Y-69242000D02*
X32961000Y-81758000D01*
X33001000Y-69248000D02*
X33001000Y-81752000D01*
X33041000Y-69255000D02*
X33041000Y-81745000D01*
X33081000Y-69262000D02*
X33081000Y-74060000D01*
X33081000Y-76940000D02*
X33081000Y-81738000D01*
X33121000Y-69269000D02*
X33121000Y-74060000D01*
X33121000Y-76940000D02*
X33121000Y-81731000D01*
X33161000Y-69276000D02*
X33161000Y-74060000D01*
X33161000Y-76940000D02*
X33161000Y-81724000D01*
X33201000Y-69284000D02*
X33201000Y-74060000D01*
X33201000Y-76940000D02*
X33201000Y-81716000D01*
X33241000Y-69291000D02*
X33241000Y-74060000D01*
X33241000Y-76940000D02*
X33241000Y-81709000D01*
X33281000Y-69299000D02*
X33281000Y-74060000D01*
X33281000Y-76940000D02*
X33281000Y-81701000D01*
X33321000Y-69308000D02*
X33321000Y-74060000D01*
X33321000Y-76940000D02*
X33321000Y-81692000D01*
X33361000Y-69316000D02*
X33361000Y-74060000D01*
X33361000Y-76940000D02*
X33361000Y-81684000D01*
X33401000Y-69325000D02*
X33401000Y-74060000D01*
X33401000Y-76940000D02*
X33401000Y-81675000D01*
X33441000Y-69334000D02*
X33441000Y-74060000D01*
X33441000Y-76940000D02*
X33441000Y-81666000D01*
X33481000Y-69344000D02*
X33481000Y-74060000D01*
X33481000Y-76940000D02*
X33481000Y-81656000D01*
X33521000Y-69354000D02*
X33521000Y-74060000D01*
X33521000Y-76940000D02*
X33521000Y-81646000D01*
X33561000Y-69363000D02*
X33561000Y-74060000D01*
X33561000Y-76940000D02*
X33561000Y-81637000D01*
X33601000Y-69374000D02*
X33601000Y-74060000D01*
X33601000Y-76940000D02*
X33601000Y-81626000D01*
X33641000Y-69384000D02*
X33641000Y-74060000D01*
X33641000Y-76940000D02*
X33641000Y-81616000D01*
X33681000Y-69395000D02*
X33681000Y-74060000D01*
X33681000Y-76940000D02*
X33681000Y-81605000D01*
X33721000Y-69406000D02*
X33721000Y-74060000D01*
X33721000Y-76940000D02*
X33721000Y-81594000D01*
X33761000Y-69417000D02*
X33761000Y-74060000D01*
X33761000Y-76940000D02*
X33761000Y-81583000D01*
X33801000Y-69429000D02*
X33801000Y-74060000D01*
X33801000Y-76940000D02*
X33801000Y-81571000D01*
X33841000Y-69441000D02*
X33841000Y-74060000D01*
X33841000Y-76940000D02*
X33841000Y-81559000D01*
X33881000Y-69453000D02*
X33881000Y-74060000D01*
X33881000Y-76940000D02*
X33881000Y-81547000D01*
X33921000Y-69466000D02*
X33921000Y-74060000D01*
X33921000Y-76940000D02*
X33921000Y-81534000D01*
X33961000Y-69479000D02*
X33961000Y-74060000D01*
X33961000Y-76940000D02*
X33961000Y-81521000D01*
X34001000Y-69492000D02*
X34001000Y-74060000D01*
X34001000Y-76940000D02*
X34001000Y-81508000D01*
X34041000Y-69505000D02*
X34041000Y-74060000D01*
X34041000Y-76940000D02*
X34041000Y-81495000D01*
X34081000Y-69519000D02*
X34081000Y-74060000D01*
X34081000Y-76940000D02*
X34081000Y-81481000D01*
X34121000Y-69533000D02*
X34121000Y-74060000D01*
X34121000Y-76940000D02*
X34121000Y-81467000D01*
X34161000Y-69547000D02*
X34161000Y-74060000D01*
X34161000Y-76940000D02*
X34161000Y-81453000D01*
X34201000Y-69561000D02*
X34201000Y-74060000D01*
X34201000Y-76940000D02*
X34201000Y-81439000D01*
X34241000Y-69576000D02*
X34241000Y-74060000D01*
X34241000Y-76940000D02*
X34241000Y-81424000D01*
X34281000Y-69592000D02*
X34281000Y-74060000D01*
X34281000Y-76940000D02*
X34281000Y-81408000D01*
X34321000Y-69607000D02*
X34321000Y-74060000D01*
X34321000Y-76940000D02*
X34321000Y-81393000D01*
X34361000Y-69623000D02*
X34361000Y-74060000D01*
X34361000Y-76940000D02*
X34361000Y-81377000D01*
X34401000Y-69639000D02*
X34401000Y-74060000D01*
X34401000Y-76940000D02*
X34401000Y-81361000D01*
X34441000Y-69655000D02*
X34441000Y-74060000D01*
X34441000Y-76940000D02*
X34441000Y-81345000D01*
X34481000Y-69672000D02*
X34481000Y-74060000D01*
X34481000Y-76940000D02*
X34481000Y-81328000D01*
X34521000Y-69689000D02*
X34521000Y-74060000D01*
X34521000Y-76940000D02*
X34521000Y-81311000D01*
X34561000Y-69707000D02*
X34561000Y-74060000D01*
X34561000Y-76940000D02*
X34561000Y-81293000D01*
X34601000Y-69724000D02*
X34601000Y-74060000D01*
X34601000Y-76940000D02*
X34601000Y-81276000D01*
X34641000Y-69742000D02*
X34641000Y-74060000D01*
X34641000Y-76940000D02*
X34641000Y-81258000D01*
X34681000Y-69761000D02*
X34681000Y-74060000D01*
X34681000Y-76940000D02*
X34681000Y-81239000D01*
X34721000Y-69779000D02*
X34721000Y-74060000D01*
X34721000Y-76940000D02*
X34721000Y-81221000D01*
X34761000Y-69798000D02*
X34761000Y-74060000D01*
X34761000Y-76940000D02*
X34761000Y-81202000D01*
X34801000Y-69818000D02*
X34801000Y-74060000D01*
X34801000Y-76940000D02*
X34801000Y-81182000D01*
X34841000Y-69838000D02*
X34841000Y-74060000D01*
X34841000Y-76940000D02*
X34841000Y-81162000D01*
X34881000Y-69858000D02*
X34881000Y-74060000D01*
X34881000Y-76940000D02*
X34881000Y-81142000D01*
X34921000Y-69878000D02*
X34921000Y-74060000D01*
X34921000Y-76940000D02*
X34921000Y-81122000D01*
X34961000Y-69899000D02*
X34961000Y-74060000D01*
X34961000Y-76940000D02*
X34961000Y-81101000D01*
X35001000Y-69920000D02*
X35001000Y-74060000D01*
X35001000Y-76940000D02*
X35001000Y-81080000D01*
X35041000Y-69942000D02*
X35041000Y-74060000D01*
X35041000Y-76940000D02*
X35041000Y-81058000D01*
X35081000Y-69964000D02*
X35081000Y-74060000D01*
X35081000Y-76940000D02*
X35081000Y-81036000D01*
X35121000Y-69986000D02*
X35121000Y-74060000D01*
X35121000Y-76940000D02*
X35121000Y-81014000D01*
X35161000Y-70009000D02*
X35161000Y-74060000D01*
X35161000Y-76940000D02*
X35161000Y-80991000D01*
X35201000Y-70032000D02*
X35201000Y-74060000D01*
X35201000Y-76940000D02*
X35201000Y-80968000D01*
X35241000Y-70055000D02*
X35241000Y-74060000D01*
X35241000Y-76940000D02*
X35241000Y-80945000D01*
X35281000Y-70079000D02*
X35281000Y-74060000D01*
X35281000Y-76940000D02*
X35281000Y-80921000D01*
X35321000Y-70103000D02*
X35321000Y-74060000D01*
X35321000Y-76940000D02*
X35321000Y-80897000D01*
X35361000Y-70128000D02*
X35361000Y-74060000D01*
X35361000Y-76940000D02*
X35361000Y-80872000D01*
X35401000Y-70153000D02*
X35401000Y-74060000D01*
X35401000Y-76940000D02*
X35401000Y-80847000D01*
X35441000Y-70178000D02*
X35441000Y-74060000D01*
X35441000Y-76940000D02*
X35441000Y-80822000D01*
X35481000Y-70204000D02*
X35481000Y-74060000D01*
X35481000Y-76940000D02*
X35481000Y-80796000D01*
X35521000Y-70230000D02*
X35521000Y-74060000D01*
X35521000Y-76940000D02*
X35521000Y-80770000D01*
X35561000Y-70257000D02*
X35561000Y-74060000D01*
X35561000Y-76940000D02*
X35561000Y-80743000D01*
X35601000Y-70284000D02*
X35601000Y-74060000D01*
X35601000Y-76940000D02*
X35601000Y-80716000D01*
X35641000Y-70312000D02*
X35641000Y-74060000D01*
X35641000Y-76940000D02*
X35641000Y-80688000D01*
X35681000Y-70340000D02*
X35681000Y-74060000D01*
X35681000Y-76940000D02*
X35681000Y-80660000D01*
X35721000Y-70369000D02*
X35721000Y-74060000D01*
X35721000Y-76940000D02*
X35721000Y-80631000D01*
X35761000Y-70398000D02*
X35761000Y-74060000D01*
X35761000Y-76940000D02*
X35761000Y-80602000D01*
X35801000Y-70427000D02*
X35801000Y-74060000D01*
X35801000Y-76940000D02*
X35801000Y-80573000D01*
X35841000Y-70457000D02*
X35841000Y-74060000D01*
X35841000Y-76940000D02*
X35841000Y-80543000D01*
X35881000Y-70488000D02*
X35881000Y-74060000D01*
X35881000Y-76940000D02*
X35881000Y-80512000D01*
X35921000Y-70518000D02*
X35921000Y-74060000D01*
X35921000Y-76940000D02*
X35921000Y-80482000D01*
X35961000Y-70550000D02*
X35961000Y-80450000D01*
X36001000Y-70582000D02*
X36001000Y-80418000D01*
X36041000Y-70615000D02*
X36041000Y-80385000D01*
X36081000Y-70648000D02*
X36081000Y-80352000D01*
X36121000Y-70681000D02*
X36121000Y-80319000D01*
X36161000Y-70715000D02*
X36161000Y-80285000D01*
X36201000Y-70750000D02*
X36201000Y-80250000D01*
X36241000Y-70786000D02*
X36241000Y-80214000D01*
X36281000Y-70822000D02*
X36281000Y-80178000D01*
X36321000Y-70858000D02*
X36321000Y-80142000D01*
X36361000Y-70895000D02*
X36361000Y-80105000D01*
X36401000Y-70933000D02*
X36401000Y-80067000D01*
X36441000Y-70972000D02*
X36441000Y-80028000D01*
X36481000Y-71011000D02*
X36481000Y-79989000D01*
X36521000Y-71051000D02*
X36521000Y-79949000D01*
X36561000Y-71092000D02*
X36561000Y-79908000D01*
X36601000Y-71133000D02*
X36601000Y-79867000D01*
X36641000Y-71175000D02*
X36641000Y-79825000D01*
X36681000Y-71218000D02*
X36681000Y-79782000D01*
X36721000Y-71262000D02*
X36721000Y-79738000D01*
X36761000Y-71306000D02*
X36761000Y-79694000D01*
X36801000Y-71352000D02*
X36801000Y-79648000D01*
X36841000Y-71398000D02*
X36841000Y-79602000D01*
X36881000Y-71445000D02*
X36881000Y-79555000D01*
X36921000Y-71493000D02*
X36921000Y-79507000D01*
X36961000Y-71543000D02*
X36961000Y-79457000D01*
X37001000Y-71593000D02*
X37001000Y-79407000D01*
X37041000Y-71644000D02*
X37041000Y-79356000D01*
X37081000Y-71696000D02*
X37081000Y-79304000D01*
X37121000Y-71750000D02*
X37121000Y-79250000D01*
X37161000Y-71804000D02*
X37161000Y-79196000D01*
X37201000Y-71860000D02*
X37201000Y-79140000D01*
X37241000Y-71917000D02*
X37241000Y-79083000D01*
X37281000Y-71976000D02*
X37281000Y-79024000D01*
X37321000Y-72036000D02*
X37321000Y-78964000D01*
X37361000Y-72098000D02*
X37361000Y-78902000D01*
X37401000Y-72161000D02*
X37401000Y-78839000D01*
X37441000Y-72225000D02*
X37441000Y-78775000D01*
X37481000Y-72292000D02*
X37481000Y-78708000D01*
X37521000Y-72360000D02*
X37521000Y-78640000D01*
X37561000Y-72431000D02*
X37561000Y-78569000D01*
X37601000Y-72504000D02*
X37601000Y-78496000D01*
X37641000Y-72579000D02*
X37641000Y-78421000D01*
X37681000Y-72656000D02*
X37681000Y-78344000D01*
X37721000Y-72736000D02*
X37721000Y-78264000D01*
X37761000Y-72819000D02*
X37761000Y-78181000D01*
X37801000Y-72906000D02*
X37801000Y-78094000D01*
X37841000Y-72996000D02*
X37841000Y-78004000D01*
X37881000Y-73090000D02*
X37881000Y-77910000D01*
X37921000Y-73188000D02*
X37921000Y-77812000D01*
X37961000Y-73291000D02*
X37961000Y-77709000D01*
X38001000Y-73400000D02*
X38001000Y-77600000D01*
X38041000Y-73516000D02*
X38041000Y-77484000D01*
X38081000Y-73639000D02*
X38081000Y-77361000D01*
X38121000Y-73772000D02*
X38121000Y-77228000D01*
X38161000Y-73917000D02*
X38161000Y-77083000D01*
X38201000Y-74078000D02*
X38201000Y-76922000D01*
X38241000Y-74259000D02*
X38241000Y-76741000D01*
X38281000Y-74472000D02*
X38281000Y-76528000D01*
X38321000Y-74743000D02*
X38321000Y-76257000D01*
X38361000Y-75183000D02*
X38361000Y-75817000D01*
X25182918Y-71925000D02*
X26432918Y-71925000D01*
X25807918Y-71300000D02*
X25807918Y-72550000D01*
X38370000Y-40000000D02*
G75*
G03*
X38370000Y-40000000I-6370000J0D01*
G01*
X32000000Y-33670000D02*
X32000000Y-46330000D01*
X32040000Y-33670000D02*
X32040000Y-46330000D01*
X32080000Y-33670000D02*
X32080000Y-46330000D01*
X32120000Y-33671000D02*
X32120000Y-46329000D01*
X32160000Y-33672000D02*
X32160000Y-46328000D01*
X32200000Y-33673000D02*
X32200000Y-46327000D01*
X32240000Y-33674000D02*
X32240000Y-46326000D01*
X32280000Y-33676000D02*
X32280000Y-46324000D01*
X32320000Y-33678000D02*
X32320000Y-46322000D01*
X32360000Y-33680000D02*
X32360000Y-46320000D01*
X32400000Y-33682000D02*
X32400000Y-46318000D01*
X32440000Y-33685000D02*
X32440000Y-46315000D01*
X32480000Y-33688000D02*
X32480000Y-46312000D01*
X32520000Y-33691000D02*
X32520000Y-46309000D01*
X32560000Y-33694000D02*
X32560000Y-46306000D01*
X32600000Y-33698000D02*
X32600000Y-46302000D01*
X32640000Y-33702000D02*
X32640000Y-46298000D01*
X32680000Y-33706000D02*
X32680000Y-46294000D01*
X32721000Y-33710000D02*
X32721000Y-46290000D01*
X32761000Y-33715000D02*
X32761000Y-46285000D01*
X32801000Y-33720000D02*
X32801000Y-46280000D01*
X32841000Y-33725000D02*
X32841000Y-46275000D01*
X32881000Y-33731000D02*
X32881000Y-46269000D01*
X32921000Y-33736000D02*
X32921000Y-46264000D01*
X32961000Y-33742000D02*
X32961000Y-46258000D01*
X33001000Y-33748000D02*
X33001000Y-46252000D01*
X33041000Y-33755000D02*
X33041000Y-46245000D01*
X33081000Y-33762000D02*
X33081000Y-38560000D01*
X33081000Y-41440000D02*
X33081000Y-46238000D01*
X33121000Y-33769000D02*
X33121000Y-38560000D01*
X33121000Y-41440000D02*
X33121000Y-46231000D01*
X33161000Y-33776000D02*
X33161000Y-38560000D01*
X33161000Y-41440000D02*
X33161000Y-46224000D01*
X33201000Y-33784000D02*
X33201000Y-38560000D01*
X33201000Y-41440000D02*
X33201000Y-46216000D01*
X33241000Y-33791000D02*
X33241000Y-38560000D01*
X33241000Y-41440000D02*
X33241000Y-46209000D01*
X33281000Y-33799000D02*
X33281000Y-38560000D01*
X33281000Y-41440000D02*
X33281000Y-46201000D01*
X33321000Y-33808000D02*
X33321000Y-38560000D01*
X33321000Y-41440000D02*
X33321000Y-46192000D01*
X33361000Y-33816000D02*
X33361000Y-38560000D01*
X33361000Y-41440000D02*
X33361000Y-46184000D01*
X33401000Y-33825000D02*
X33401000Y-38560000D01*
X33401000Y-41440000D02*
X33401000Y-46175000D01*
X33441000Y-33834000D02*
X33441000Y-38560000D01*
X33441000Y-41440000D02*
X33441000Y-46166000D01*
X33481000Y-33844000D02*
X33481000Y-38560000D01*
X33481000Y-41440000D02*
X33481000Y-46156000D01*
X33521000Y-33854000D02*
X33521000Y-38560000D01*
X33521000Y-41440000D02*
X33521000Y-46146000D01*
X33561000Y-33863000D02*
X33561000Y-38560000D01*
X33561000Y-41440000D02*
X33561000Y-46137000D01*
X33601000Y-33874000D02*
X33601000Y-38560000D01*
X33601000Y-41440000D02*
X33601000Y-46126000D01*
X33641000Y-33884000D02*
X33641000Y-38560000D01*
X33641000Y-41440000D02*
X33641000Y-46116000D01*
X33681000Y-33895000D02*
X33681000Y-38560000D01*
X33681000Y-41440000D02*
X33681000Y-46105000D01*
X33721000Y-33906000D02*
X33721000Y-38560000D01*
X33721000Y-41440000D02*
X33721000Y-46094000D01*
X33761000Y-33917000D02*
X33761000Y-38560000D01*
X33761000Y-41440000D02*
X33761000Y-46083000D01*
X33801000Y-33929000D02*
X33801000Y-38560000D01*
X33801000Y-41440000D02*
X33801000Y-46071000D01*
X33841000Y-33941000D02*
X33841000Y-38560000D01*
X33841000Y-41440000D02*
X33841000Y-46059000D01*
X33881000Y-33953000D02*
X33881000Y-38560000D01*
X33881000Y-41440000D02*
X33881000Y-46047000D01*
X33921000Y-33966000D02*
X33921000Y-38560000D01*
X33921000Y-41440000D02*
X33921000Y-46034000D01*
X33961000Y-33979000D02*
X33961000Y-38560000D01*
X33961000Y-41440000D02*
X33961000Y-46021000D01*
X34001000Y-33992000D02*
X34001000Y-38560000D01*
X34001000Y-41440000D02*
X34001000Y-46008000D01*
X34041000Y-34005000D02*
X34041000Y-38560000D01*
X34041000Y-41440000D02*
X34041000Y-45995000D01*
X34081000Y-34019000D02*
X34081000Y-38560000D01*
X34081000Y-41440000D02*
X34081000Y-45981000D01*
X34121000Y-34033000D02*
X34121000Y-38560000D01*
X34121000Y-41440000D02*
X34121000Y-45967000D01*
X34161000Y-34047000D02*
X34161000Y-38560000D01*
X34161000Y-41440000D02*
X34161000Y-45953000D01*
X34201000Y-34061000D02*
X34201000Y-38560000D01*
X34201000Y-41440000D02*
X34201000Y-45939000D01*
X34241000Y-34076000D02*
X34241000Y-38560000D01*
X34241000Y-41440000D02*
X34241000Y-45924000D01*
X34281000Y-34092000D02*
X34281000Y-38560000D01*
X34281000Y-41440000D02*
X34281000Y-45908000D01*
X34321000Y-34107000D02*
X34321000Y-38560000D01*
X34321000Y-41440000D02*
X34321000Y-45893000D01*
X34361000Y-34123000D02*
X34361000Y-38560000D01*
X34361000Y-41440000D02*
X34361000Y-45877000D01*
X34401000Y-34139000D02*
X34401000Y-38560000D01*
X34401000Y-41440000D02*
X34401000Y-45861000D01*
X34441000Y-34155000D02*
X34441000Y-38560000D01*
X34441000Y-41440000D02*
X34441000Y-45845000D01*
X34481000Y-34172000D02*
X34481000Y-38560000D01*
X34481000Y-41440000D02*
X34481000Y-45828000D01*
X34521000Y-34189000D02*
X34521000Y-38560000D01*
X34521000Y-41440000D02*
X34521000Y-45811000D01*
X34561000Y-34207000D02*
X34561000Y-38560000D01*
X34561000Y-41440000D02*
X34561000Y-45793000D01*
X34601000Y-34224000D02*
X34601000Y-38560000D01*
X34601000Y-41440000D02*
X34601000Y-45776000D01*
X34641000Y-34242000D02*
X34641000Y-38560000D01*
X34641000Y-41440000D02*
X34641000Y-45758000D01*
X34681000Y-34261000D02*
X34681000Y-38560000D01*
X34681000Y-41440000D02*
X34681000Y-45739000D01*
X34721000Y-34279000D02*
X34721000Y-38560000D01*
X34721000Y-41440000D02*
X34721000Y-45721000D01*
X34761000Y-34298000D02*
X34761000Y-38560000D01*
X34761000Y-41440000D02*
X34761000Y-45702000D01*
X34801000Y-34318000D02*
X34801000Y-38560000D01*
X34801000Y-41440000D02*
X34801000Y-45682000D01*
X34841000Y-34338000D02*
X34841000Y-38560000D01*
X34841000Y-41440000D02*
X34841000Y-45662000D01*
X34881000Y-34358000D02*
X34881000Y-38560000D01*
X34881000Y-41440000D02*
X34881000Y-45642000D01*
X34921000Y-34378000D02*
X34921000Y-38560000D01*
X34921000Y-41440000D02*
X34921000Y-45622000D01*
X34961000Y-34399000D02*
X34961000Y-38560000D01*
X34961000Y-41440000D02*
X34961000Y-45601000D01*
X35001000Y-34420000D02*
X35001000Y-38560000D01*
X35001000Y-41440000D02*
X35001000Y-45580000D01*
X35041000Y-34442000D02*
X35041000Y-38560000D01*
X35041000Y-41440000D02*
X35041000Y-45558000D01*
X35081000Y-34464000D02*
X35081000Y-38560000D01*
X35081000Y-41440000D02*
X35081000Y-45536000D01*
X35121000Y-34486000D02*
X35121000Y-38560000D01*
X35121000Y-41440000D02*
X35121000Y-45514000D01*
X35161000Y-34509000D02*
X35161000Y-38560000D01*
X35161000Y-41440000D02*
X35161000Y-45491000D01*
X35201000Y-34532000D02*
X35201000Y-38560000D01*
X35201000Y-41440000D02*
X35201000Y-45468000D01*
X35241000Y-34555000D02*
X35241000Y-38560000D01*
X35241000Y-41440000D02*
X35241000Y-45445000D01*
X35281000Y-34579000D02*
X35281000Y-38560000D01*
X35281000Y-41440000D02*
X35281000Y-45421000D01*
X35321000Y-34603000D02*
X35321000Y-38560000D01*
X35321000Y-41440000D02*
X35321000Y-45397000D01*
X35361000Y-34628000D02*
X35361000Y-38560000D01*
X35361000Y-41440000D02*
X35361000Y-45372000D01*
X35401000Y-34653000D02*
X35401000Y-38560000D01*
X35401000Y-41440000D02*
X35401000Y-45347000D01*
X35441000Y-34678000D02*
X35441000Y-38560000D01*
X35441000Y-41440000D02*
X35441000Y-45322000D01*
X35481000Y-34704000D02*
X35481000Y-38560000D01*
X35481000Y-41440000D02*
X35481000Y-45296000D01*
X35521000Y-34730000D02*
X35521000Y-38560000D01*
X35521000Y-41440000D02*
X35521000Y-45270000D01*
X35561000Y-34757000D02*
X35561000Y-38560000D01*
X35561000Y-41440000D02*
X35561000Y-45243000D01*
X35601000Y-34784000D02*
X35601000Y-38560000D01*
X35601000Y-41440000D02*
X35601000Y-45216000D01*
X35641000Y-34812000D02*
X35641000Y-38560000D01*
X35641000Y-41440000D02*
X35641000Y-45188000D01*
X35681000Y-34840000D02*
X35681000Y-38560000D01*
X35681000Y-41440000D02*
X35681000Y-45160000D01*
X35721000Y-34869000D02*
X35721000Y-38560000D01*
X35721000Y-41440000D02*
X35721000Y-45131000D01*
X35761000Y-34898000D02*
X35761000Y-38560000D01*
X35761000Y-41440000D02*
X35761000Y-45102000D01*
X35801000Y-34927000D02*
X35801000Y-38560000D01*
X35801000Y-41440000D02*
X35801000Y-45073000D01*
X35841000Y-34957000D02*
X35841000Y-38560000D01*
X35841000Y-41440000D02*
X35841000Y-45043000D01*
X35881000Y-34988000D02*
X35881000Y-38560000D01*
X35881000Y-41440000D02*
X35881000Y-45012000D01*
X35921000Y-35018000D02*
X35921000Y-38560000D01*
X35921000Y-41440000D02*
X35921000Y-44982000D01*
X35961000Y-35050000D02*
X35961000Y-44950000D01*
X36001000Y-35082000D02*
X36001000Y-44918000D01*
X36041000Y-35115000D02*
X36041000Y-44885000D01*
X36081000Y-35148000D02*
X36081000Y-44852000D01*
X36121000Y-35181000D02*
X36121000Y-44819000D01*
X36161000Y-35215000D02*
X36161000Y-44785000D01*
X36201000Y-35250000D02*
X36201000Y-44750000D01*
X36241000Y-35286000D02*
X36241000Y-44714000D01*
X36281000Y-35322000D02*
X36281000Y-44678000D01*
X36321000Y-35358000D02*
X36321000Y-44642000D01*
X36361000Y-35395000D02*
X36361000Y-44605000D01*
X36401000Y-35433000D02*
X36401000Y-44567000D01*
X36441000Y-35472000D02*
X36441000Y-44528000D01*
X36481000Y-35511000D02*
X36481000Y-44489000D01*
X36521000Y-35551000D02*
X36521000Y-44449000D01*
X36561000Y-35592000D02*
X36561000Y-44408000D01*
X36601000Y-35633000D02*
X36601000Y-44367000D01*
X36641000Y-35675000D02*
X36641000Y-44325000D01*
X36681000Y-35718000D02*
X36681000Y-44282000D01*
X36721000Y-35762000D02*
X36721000Y-44238000D01*
X36761000Y-35806000D02*
X36761000Y-44194000D01*
X36801000Y-35852000D02*
X36801000Y-44148000D01*
X36841000Y-35898000D02*
X36841000Y-44102000D01*
X36881000Y-35945000D02*
X36881000Y-44055000D01*
X36921000Y-35993000D02*
X36921000Y-44007000D01*
X36961000Y-36043000D02*
X36961000Y-43957000D01*
X37001000Y-36093000D02*
X37001000Y-43907000D01*
X37041000Y-36144000D02*
X37041000Y-43856000D01*
X37081000Y-36196000D02*
X37081000Y-43804000D01*
X37121000Y-36250000D02*
X37121000Y-43750000D01*
X37161000Y-36304000D02*
X37161000Y-43696000D01*
X37201000Y-36360000D02*
X37201000Y-43640000D01*
X37241000Y-36417000D02*
X37241000Y-43583000D01*
X37281000Y-36476000D02*
X37281000Y-43524000D01*
X37321000Y-36536000D02*
X37321000Y-43464000D01*
X37361000Y-36598000D02*
X37361000Y-43402000D01*
X37401000Y-36661000D02*
X37401000Y-43339000D01*
X37441000Y-36725000D02*
X37441000Y-43275000D01*
X37481000Y-36792000D02*
X37481000Y-43208000D01*
X37521000Y-36860000D02*
X37521000Y-43140000D01*
X37561000Y-36931000D02*
X37561000Y-43069000D01*
X37601000Y-37004000D02*
X37601000Y-42996000D01*
X37641000Y-37079000D02*
X37641000Y-42921000D01*
X37681000Y-37156000D02*
X37681000Y-42844000D01*
X37721000Y-37236000D02*
X37721000Y-42764000D01*
X37761000Y-37319000D02*
X37761000Y-42681000D01*
X37801000Y-37406000D02*
X37801000Y-42594000D01*
X37841000Y-37496000D02*
X37841000Y-42504000D01*
X37881000Y-37590000D02*
X37881000Y-42410000D01*
X37921000Y-37688000D02*
X37921000Y-42312000D01*
X37961000Y-37791000D02*
X37961000Y-42209000D01*
X38001000Y-37900000D02*
X38001000Y-42100000D01*
X38041000Y-38016000D02*
X38041000Y-41984000D01*
X38081000Y-38139000D02*
X38081000Y-41861000D01*
X38121000Y-38272000D02*
X38121000Y-41728000D01*
X38161000Y-38417000D02*
X38161000Y-41583000D01*
X38201000Y-38578000D02*
X38201000Y-41422000D01*
X38241000Y-38759000D02*
X38241000Y-41241000D01*
X38281000Y-38972000D02*
X38281000Y-41028000D01*
X38321000Y-39243000D02*
X38321000Y-40757000D01*
X38361000Y-39683000D02*
X38361000Y-40317000D01*
X25182918Y-36425000D02*
X26432918Y-36425000D01*
X25807918Y-35800000D02*
X25807918Y-37050000D01*
X38370000Y-54000000D02*
G75*
G03*
X38370000Y-54000000I-6370000J0D01*
G01*
X32000000Y-47670000D02*
X32000000Y-60330000D01*
X32040000Y-47670000D02*
X32040000Y-60330000D01*
X32080000Y-47670000D02*
X32080000Y-60330000D01*
X32120000Y-47671000D02*
X32120000Y-60329000D01*
X32160000Y-47672000D02*
X32160000Y-60328000D01*
X32200000Y-47673000D02*
X32200000Y-60327000D01*
X32240000Y-47674000D02*
X32240000Y-60326000D01*
X32280000Y-47676000D02*
X32280000Y-60324000D01*
X32320000Y-47678000D02*
X32320000Y-60322000D01*
X32360000Y-47680000D02*
X32360000Y-60320000D01*
X32400000Y-47682000D02*
X32400000Y-60318000D01*
X32440000Y-47685000D02*
X32440000Y-60315000D01*
X32480000Y-47688000D02*
X32480000Y-60312000D01*
X32520000Y-47691000D02*
X32520000Y-60309000D01*
X32560000Y-47694000D02*
X32560000Y-60306000D01*
X32600000Y-47698000D02*
X32600000Y-60302000D01*
X32640000Y-47702000D02*
X32640000Y-60298000D01*
X32680000Y-47706000D02*
X32680000Y-60294000D01*
X32721000Y-47710000D02*
X32721000Y-60290000D01*
X32761000Y-47715000D02*
X32761000Y-60285000D01*
X32801000Y-47720000D02*
X32801000Y-60280000D01*
X32841000Y-47725000D02*
X32841000Y-60275000D01*
X32881000Y-47731000D02*
X32881000Y-60269000D01*
X32921000Y-47736000D02*
X32921000Y-60264000D01*
X32961000Y-47742000D02*
X32961000Y-60258000D01*
X33001000Y-47748000D02*
X33001000Y-60252000D01*
X33041000Y-47755000D02*
X33041000Y-60245000D01*
X33081000Y-47762000D02*
X33081000Y-52560000D01*
X33081000Y-55440000D02*
X33081000Y-60238000D01*
X33121000Y-47769000D02*
X33121000Y-52560000D01*
X33121000Y-55440000D02*
X33121000Y-60231000D01*
X33161000Y-47776000D02*
X33161000Y-52560000D01*
X33161000Y-55440000D02*
X33161000Y-60224000D01*
X33201000Y-47784000D02*
X33201000Y-52560000D01*
X33201000Y-55440000D02*
X33201000Y-60216000D01*
X33241000Y-47791000D02*
X33241000Y-52560000D01*
X33241000Y-55440000D02*
X33241000Y-60209000D01*
X33281000Y-47799000D02*
X33281000Y-52560000D01*
X33281000Y-55440000D02*
X33281000Y-60201000D01*
X33321000Y-47808000D02*
X33321000Y-52560000D01*
X33321000Y-55440000D02*
X33321000Y-60192000D01*
X33361000Y-47816000D02*
X33361000Y-52560000D01*
X33361000Y-55440000D02*
X33361000Y-60184000D01*
X33401000Y-47825000D02*
X33401000Y-52560000D01*
X33401000Y-55440000D02*
X33401000Y-60175000D01*
X33441000Y-47834000D02*
X33441000Y-52560000D01*
X33441000Y-55440000D02*
X33441000Y-60166000D01*
X33481000Y-47844000D02*
X33481000Y-52560000D01*
X33481000Y-55440000D02*
X33481000Y-60156000D01*
X33521000Y-47854000D02*
X33521000Y-52560000D01*
X33521000Y-55440000D02*
X33521000Y-60146000D01*
X33561000Y-47863000D02*
X33561000Y-52560000D01*
X33561000Y-55440000D02*
X33561000Y-60137000D01*
X33601000Y-47874000D02*
X33601000Y-52560000D01*
X33601000Y-55440000D02*
X33601000Y-60126000D01*
X33641000Y-47884000D02*
X33641000Y-52560000D01*
X33641000Y-55440000D02*
X33641000Y-60116000D01*
X33681000Y-47895000D02*
X33681000Y-52560000D01*
X33681000Y-55440000D02*
X33681000Y-60105000D01*
X33721000Y-47906000D02*
X33721000Y-52560000D01*
X33721000Y-55440000D02*
X33721000Y-60094000D01*
X33761000Y-47917000D02*
X33761000Y-52560000D01*
X33761000Y-55440000D02*
X33761000Y-60083000D01*
X33801000Y-47929000D02*
X33801000Y-52560000D01*
X33801000Y-55440000D02*
X33801000Y-60071000D01*
X33841000Y-47941000D02*
X33841000Y-52560000D01*
X33841000Y-55440000D02*
X33841000Y-60059000D01*
X33881000Y-47953000D02*
X33881000Y-52560000D01*
X33881000Y-55440000D02*
X33881000Y-60047000D01*
X33921000Y-47966000D02*
X33921000Y-52560000D01*
X33921000Y-55440000D02*
X33921000Y-60034000D01*
X33961000Y-47979000D02*
X33961000Y-52560000D01*
X33961000Y-55440000D02*
X33961000Y-60021000D01*
X34001000Y-47992000D02*
X34001000Y-52560000D01*
X34001000Y-55440000D02*
X34001000Y-60008000D01*
X34041000Y-48005000D02*
X34041000Y-52560000D01*
X34041000Y-55440000D02*
X34041000Y-59995000D01*
X34081000Y-48019000D02*
X34081000Y-52560000D01*
X34081000Y-55440000D02*
X34081000Y-59981000D01*
X34121000Y-48033000D02*
X34121000Y-52560000D01*
X34121000Y-55440000D02*
X34121000Y-59967000D01*
X34161000Y-48047000D02*
X34161000Y-52560000D01*
X34161000Y-55440000D02*
X34161000Y-59953000D01*
X34201000Y-48061000D02*
X34201000Y-52560000D01*
X34201000Y-55440000D02*
X34201000Y-59939000D01*
X34241000Y-48076000D02*
X34241000Y-52560000D01*
X34241000Y-55440000D02*
X34241000Y-59924000D01*
X34281000Y-48092000D02*
X34281000Y-52560000D01*
X34281000Y-55440000D02*
X34281000Y-59908000D01*
X34321000Y-48107000D02*
X34321000Y-52560000D01*
X34321000Y-55440000D02*
X34321000Y-59893000D01*
X34361000Y-48123000D02*
X34361000Y-52560000D01*
X34361000Y-55440000D02*
X34361000Y-59877000D01*
X34401000Y-48139000D02*
X34401000Y-52560000D01*
X34401000Y-55440000D02*
X34401000Y-59861000D01*
X34441000Y-48155000D02*
X34441000Y-52560000D01*
X34441000Y-55440000D02*
X34441000Y-59845000D01*
X34481000Y-48172000D02*
X34481000Y-52560000D01*
X34481000Y-55440000D02*
X34481000Y-59828000D01*
X34521000Y-48189000D02*
X34521000Y-52560000D01*
X34521000Y-55440000D02*
X34521000Y-59811000D01*
X34561000Y-48207000D02*
X34561000Y-52560000D01*
X34561000Y-55440000D02*
X34561000Y-59793000D01*
X34601000Y-48224000D02*
X34601000Y-52560000D01*
X34601000Y-55440000D02*
X34601000Y-59776000D01*
X34641000Y-48242000D02*
X34641000Y-52560000D01*
X34641000Y-55440000D02*
X34641000Y-59758000D01*
X34681000Y-48261000D02*
X34681000Y-52560000D01*
X34681000Y-55440000D02*
X34681000Y-59739000D01*
X34721000Y-48279000D02*
X34721000Y-52560000D01*
X34721000Y-55440000D02*
X34721000Y-59721000D01*
X34761000Y-48298000D02*
X34761000Y-52560000D01*
X34761000Y-55440000D02*
X34761000Y-59702000D01*
X34801000Y-48318000D02*
X34801000Y-52560000D01*
X34801000Y-55440000D02*
X34801000Y-59682000D01*
X34841000Y-48338000D02*
X34841000Y-52560000D01*
X34841000Y-55440000D02*
X34841000Y-59662000D01*
X34881000Y-48358000D02*
X34881000Y-52560000D01*
X34881000Y-55440000D02*
X34881000Y-59642000D01*
X34921000Y-48378000D02*
X34921000Y-52560000D01*
X34921000Y-55440000D02*
X34921000Y-59622000D01*
X34961000Y-48399000D02*
X34961000Y-52560000D01*
X34961000Y-55440000D02*
X34961000Y-59601000D01*
X35001000Y-48420000D02*
X35001000Y-52560000D01*
X35001000Y-55440000D02*
X35001000Y-59580000D01*
X35041000Y-48442000D02*
X35041000Y-52560000D01*
X35041000Y-55440000D02*
X35041000Y-59558000D01*
X35081000Y-48464000D02*
X35081000Y-52560000D01*
X35081000Y-55440000D02*
X35081000Y-59536000D01*
X35121000Y-48486000D02*
X35121000Y-52560000D01*
X35121000Y-55440000D02*
X35121000Y-59514000D01*
X35161000Y-48509000D02*
X35161000Y-52560000D01*
X35161000Y-55440000D02*
X35161000Y-59491000D01*
X35201000Y-48532000D02*
X35201000Y-52560000D01*
X35201000Y-55440000D02*
X35201000Y-59468000D01*
X35241000Y-48555000D02*
X35241000Y-52560000D01*
X35241000Y-55440000D02*
X35241000Y-59445000D01*
X35281000Y-48579000D02*
X35281000Y-52560000D01*
X35281000Y-55440000D02*
X35281000Y-59421000D01*
X35321000Y-48603000D02*
X35321000Y-52560000D01*
X35321000Y-55440000D02*
X35321000Y-59397000D01*
X35361000Y-48628000D02*
X35361000Y-52560000D01*
X35361000Y-55440000D02*
X35361000Y-59372000D01*
X35401000Y-48653000D02*
X35401000Y-52560000D01*
X35401000Y-55440000D02*
X35401000Y-59347000D01*
X35441000Y-48678000D02*
X35441000Y-52560000D01*
X35441000Y-55440000D02*
X35441000Y-59322000D01*
X35481000Y-48704000D02*
X35481000Y-52560000D01*
X35481000Y-55440000D02*
X35481000Y-59296000D01*
X35521000Y-48730000D02*
X35521000Y-52560000D01*
X35521000Y-55440000D02*
X35521000Y-59270000D01*
X35561000Y-48757000D02*
X35561000Y-52560000D01*
X35561000Y-55440000D02*
X35561000Y-59243000D01*
X35601000Y-48784000D02*
X35601000Y-52560000D01*
X35601000Y-55440000D02*
X35601000Y-59216000D01*
X35641000Y-48812000D02*
X35641000Y-52560000D01*
X35641000Y-55440000D02*
X35641000Y-59188000D01*
X35681000Y-48840000D02*
X35681000Y-52560000D01*
X35681000Y-55440000D02*
X35681000Y-59160000D01*
X35721000Y-48869000D02*
X35721000Y-52560000D01*
X35721000Y-55440000D02*
X35721000Y-59131000D01*
X35761000Y-48898000D02*
X35761000Y-52560000D01*
X35761000Y-55440000D02*
X35761000Y-59102000D01*
X35801000Y-48927000D02*
X35801000Y-52560000D01*
X35801000Y-55440000D02*
X35801000Y-59073000D01*
X35841000Y-48957000D02*
X35841000Y-52560000D01*
X35841000Y-55440000D02*
X35841000Y-59043000D01*
X35881000Y-48988000D02*
X35881000Y-52560000D01*
X35881000Y-55440000D02*
X35881000Y-59012000D01*
X35921000Y-49018000D02*
X35921000Y-52560000D01*
X35921000Y-55440000D02*
X35921000Y-58982000D01*
X35961000Y-49050000D02*
X35961000Y-58950000D01*
X36001000Y-49082000D02*
X36001000Y-58918000D01*
X36041000Y-49115000D02*
X36041000Y-58885000D01*
X36081000Y-49148000D02*
X36081000Y-58852000D01*
X36121000Y-49181000D02*
X36121000Y-58819000D01*
X36161000Y-49215000D02*
X36161000Y-58785000D01*
X36201000Y-49250000D02*
X36201000Y-58750000D01*
X36241000Y-49286000D02*
X36241000Y-58714000D01*
X36281000Y-49322000D02*
X36281000Y-58678000D01*
X36321000Y-49358000D02*
X36321000Y-58642000D01*
X36361000Y-49395000D02*
X36361000Y-58605000D01*
X36401000Y-49433000D02*
X36401000Y-58567000D01*
X36441000Y-49472000D02*
X36441000Y-58528000D01*
X36481000Y-49511000D02*
X36481000Y-58489000D01*
X36521000Y-49551000D02*
X36521000Y-58449000D01*
X36561000Y-49592000D02*
X36561000Y-58408000D01*
X36601000Y-49633000D02*
X36601000Y-58367000D01*
X36641000Y-49675000D02*
X36641000Y-58325000D01*
X36681000Y-49718000D02*
X36681000Y-58282000D01*
X36721000Y-49762000D02*
X36721000Y-58238000D01*
X36761000Y-49806000D02*
X36761000Y-58194000D01*
X36801000Y-49852000D02*
X36801000Y-58148000D01*
X36841000Y-49898000D02*
X36841000Y-58102000D01*
X36881000Y-49945000D02*
X36881000Y-58055000D01*
X36921000Y-49993000D02*
X36921000Y-58007000D01*
X36961000Y-50043000D02*
X36961000Y-57957000D01*
X37001000Y-50093000D02*
X37001000Y-57907000D01*
X37041000Y-50144000D02*
X37041000Y-57856000D01*
X37081000Y-50196000D02*
X37081000Y-57804000D01*
X37121000Y-50250000D02*
X37121000Y-57750000D01*
X37161000Y-50304000D02*
X37161000Y-57696000D01*
X37201000Y-50360000D02*
X37201000Y-57640000D01*
X37241000Y-50417000D02*
X37241000Y-57583000D01*
X37281000Y-50476000D02*
X37281000Y-57524000D01*
X37321000Y-50536000D02*
X37321000Y-57464000D01*
X37361000Y-50598000D02*
X37361000Y-57402000D01*
X37401000Y-50661000D02*
X37401000Y-57339000D01*
X37441000Y-50725000D02*
X37441000Y-57275000D01*
X37481000Y-50792000D02*
X37481000Y-57208000D01*
X37521000Y-50860000D02*
X37521000Y-57140000D01*
X37561000Y-50931000D02*
X37561000Y-57069000D01*
X37601000Y-51004000D02*
X37601000Y-56996000D01*
X37641000Y-51079000D02*
X37641000Y-56921000D01*
X37681000Y-51156000D02*
X37681000Y-56844000D01*
X37721000Y-51236000D02*
X37721000Y-56764000D01*
X37761000Y-51319000D02*
X37761000Y-56681000D01*
X37801000Y-51406000D02*
X37801000Y-56594000D01*
X37841000Y-51496000D02*
X37841000Y-56504000D01*
X37881000Y-51590000D02*
X37881000Y-56410000D01*
X37921000Y-51688000D02*
X37921000Y-56312000D01*
X37961000Y-51791000D02*
X37961000Y-56209000D01*
X38001000Y-51900000D02*
X38001000Y-56100000D01*
X38041000Y-52016000D02*
X38041000Y-55984000D01*
X38081000Y-52139000D02*
X38081000Y-55861000D01*
X38121000Y-52272000D02*
X38121000Y-55728000D01*
X38161000Y-52417000D02*
X38161000Y-55583000D01*
X38201000Y-52578000D02*
X38201000Y-55422000D01*
X38241000Y-52759000D02*
X38241000Y-55241000D01*
X38281000Y-52972000D02*
X38281000Y-55028000D01*
X38321000Y-53243000D02*
X38321000Y-54757000D01*
X38361000Y-53683000D02*
X38361000Y-54317000D01*
X25182918Y-50425000D02*
X26432918Y-50425000D01*
X25807918Y-49800000D02*
X25807918Y-51050000D01*
D10*
X55347619Y-66595238D02*
X55300000Y-66690476D01*
X55204761Y-66785714D01*
X55061904Y-66928571D01*
X55014285Y-67023809D01*
X55014285Y-67119047D01*
X55252380Y-67071428D02*
X55204761Y-67166666D01*
X55109523Y-67261904D01*
X54919047Y-67309523D01*
X54585714Y-67309523D01*
X54395238Y-67261904D01*
X54300000Y-67166666D01*
X54252380Y-67071428D01*
X54252380Y-66880952D01*
X54300000Y-66785714D01*
X54395238Y-66690476D01*
X54585714Y-66642857D01*
X54919047Y-66642857D01*
X55109523Y-66690476D01*
X55204761Y-66785714D01*
X55252380Y-66880952D01*
X55252380Y-67071428D01*
X54585714Y-65785714D02*
X55252380Y-65785714D01*
X54204761Y-66023809D02*
X54919047Y-66261904D01*
X54919047Y-65642857D01*
X63122619Y-54095238D02*
X63075000Y-54190476D01*
X62979761Y-54285714D01*
X62836904Y-54428571D01*
X62789285Y-54523809D01*
X62789285Y-54619047D01*
X63027380Y-54571428D02*
X62979761Y-54666666D01*
X62884523Y-54761904D01*
X62694047Y-54809523D01*
X62360714Y-54809523D01*
X62170238Y-54761904D01*
X62075000Y-54666666D01*
X62027380Y-54571428D01*
X62027380Y-54380952D01*
X62075000Y-54285714D01*
X62170238Y-54190476D01*
X62360714Y-54142857D01*
X62694047Y-54142857D01*
X62884523Y-54190476D01*
X62979761Y-54285714D01*
X63027380Y-54380952D01*
X63027380Y-54571428D01*
X62027380Y-53238095D02*
X62027380Y-53714285D01*
X62503571Y-53761904D01*
X62455952Y-53714285D01*
X62408333Y-53619047D01*
X62408333Y-53380952D01*
X62455952Y-53285714D01*
X62503571Y-53238095D01*
X62598809Y-53190476D01*
X62836904Y-53190476D01*
X62932142Y-53238095D01*
X62979761Y-53285714D01*
X63027380Y-53380952D01*
X63027380Y-53619047D01*
X62979761Y-53714285D01*
X62932142Y-53761904D01*
X80857142Y-28857142D02*
X80809523Y-28904761D01*
X80666666Y-28952380D01*
X80571428Y-28952380D01*
X80428571Y-28904761D01*
X80333333Y-28809523D01*
X80285714Y-28714285D01*
X80238095Y-28523809D01*
X80238095Y-28380952D01*
X80285714Y-28190476D01*
X80333333Y-28095238D01*
X80428571Y-28000000D01*
X80571428Y-27952380D01*
X80666666Y-27952380D01*
X80809523Y-28000000D01*
X80857142Y-28047619D01*
X81238095Y-28047619D02*
X81285714Y-28000000D01*
X81380952Y-27952380D01*
X81619047Y-27952380D01*
X81714285Y-28000000D01*
X81761904Y-28047619D01*
X81809523Y-28142857D01*
X81809523Y-28238095D01*
X81761904Y-28380952D01*
X81190476Y-28952380D01*
X81809523Y-28952380D01*
X82714285Y-27952380D02*
X82238095Y-27952380D01*
X82190476Y-28428571D01*
X82238095Y-28380952D01*
X82333333Y-28333333D01*
X82571428Y-28333333D01*
X82666666Y-28380952D01*
X82714285Y-28428571D01*
X82761904Y-28523809D01*
X82761904Y-28761904D01*
X82714285Y-28857142D01*
X82666666Y-28904761D01*
X82571428Y-28952380D01*
X82333333Y-28952380D01*
X82238095Y-28904761D01*
X82190476Y-28857142D01*
X81357142Y-42357142D02*
X81309523Y-42404761D01*
X81166666Y-42452380D01*
X81071428Y-42452380D01*
X80928571Y-42404761D01*
X80833333Y-42309523D01*
X80785714Y-42214285D01*
X80738095Y-42023809D01*
X80738095Y-41880952D01*
X80785714Y-41690476D01*
X80833333Y-41595238D01*
X80928571Y-41500000D01*
X81071428Y-41452380D01*
X81166666Y-41452380D01*
X81309523Y-41500000D01*
X81357142Y-41547619D01*
X82309523Y-42452380D02*
X81738095Y-42452380D01*
X82023809Y-42452380D02*
X82023809Y-41452380D01*
X81928571Y-41595238D01*
X81833333Y-41690476D01*
X81738095Y-41738095D01*
X83261904Y-42452380D02*
X82690476Y-42452380D01*
X82976190Y-42452380D02*
X82976190Y-41452380D01*
X82880952Y-41595238D01*
X82785714Y-41690476D01*
X82690476Y-41738095D01*
X52447619Y-54095238D02*
X52400000Y-54190476D01*
X52304761Y-54285714D01*
X52161904Y-54428571D01*
X52114285Y-54523809D01*
X52114285Y-54619047D01*
X52352380Y-54571428D02*
X52304761Y-54666666D01*
X52209523Y-54761904D01*
X52019047Y-54809523D01*
X51685714Y-54809523D01*
X51495238Y-54761904D01*
X51400000Y-54666666D01*
X51352380Y-54571428D01*
X51352380Y-54380952D01*
X51400000Y-54285714D01*
X51495238Y-54190476D01*
X51685714Y-54142857D01*
X52019047Y-54142857D01*
X52209523Y-54190476D01*
X52304761Y-54285714D01*
X52352380Y-54380952D01*
X52352380Y-54571428D01*
X51352380Y-53809523D02*
X51352380Y-53190476D01*
X51733333Y-53523809D01*
X51733333Y-53380952D01*
X51780952Y-53285714D01*
X51828571Y-53238095D01*
X51923809Y-53190476D01*
X52161904Y-53190476D01*
X52257142Y-53238095D01*
X52304761Y-53285714D01*
X52352380Y-53380952D01*
X52352380Y-53666666D01*
X52304761Y-53761904D01*
X52257142Y-53809523D01*
X52547619Y-67595238D02*
X52500000Y-67690476D01*
X52404761Y-67785714D01*
X52261904Y-67928571D01*
X52214285Y-68023809D01*
X52214285Y-68119047D01*
X52452380Y-68071428D02*
X52404761Y-68166666D01*
X52309523Y-68261904D01*
X52119047Y-68309523D01*
X51785714Y-68309523D01*
X51595238Y-68261904D01*
X51500000Y-68166666D01*
X51452380Y-68071428D01*
X51452380Y-67880952D01*
X51500000Y-67785714D01*
X51595238Y-67690476D01*
X51785714Y-67642857D01*
X52119047Y-67642857D01*
X52309523Y-67690476D01*
X52404761Y-67785714D01*
X52452380Y-67880952D01*
X52452380Y-68071428D01*
X51547619Y-67261904D02*
X51500000Y-67214285D01*
X51452380Y-67119047D01*
X51452380Y-66880952D01*
X51500000Y-66785714D01*
X51547619Y-66738095D01*
X51642857Y-66690476D01*
X51738095Y-66690476D01*
X51880952Y-66738095D01*
X52452380Y-67309523D01*
X52452380Y-66690476D01*
X95547619Y-73595238D02*
X95500000Y-73690476D01*
X95404761Y-73785714D01*
X95261904Y-73928571D01*
X95214285Y-74023809D01*
X95214285Y-74119047D01*
X95452380Y-74071428D02*
X95404761Y-74166666D01*
X95309523Y-74261904D01*
X95119047Y-74309523D01*
X94785714Y-74309523D01*
X94595238Y-74261904D01*
X94500000Y-74166666D01*
X94452380Y-74071428D01*
X94452380Y-73880952D01*
X94500000Y-73785714D01*
X94595238Y-73690476D01*
X94785714Y-73642857D01*
X95119047Y-73642857D01*
X95309523Y-73690476D01*
X95404761Y-73785714D01*
X95452380Y-73880952D01*
X95452380Y-74071428D01*
X95452380Y-72690476D02*
X95452380Y-73261904D01*
X95452380Y-72976190D02*
X94452380Y-72976190D01*
X94595238Y-73071428D01*
X94690476Y-73166666D01*
X94738095Y-73261904D01*
X50738095Y-69552380D02*
X50738095Y-70361904D01*
X50785714Y-70457142D01*
X50833333Y-70504761D01*
X50928571Y-70552380D01*
X51119047Y-70552380D01*
X51214285Y-70504761D01*
X51261904Y-70457142D01*
X51309523Y-70361904D01*
X51309523Y-69552380D01*
X51738095Y-69647619D02*
X51785714Y-69600000D01*
X51880952Y-69552380D01*
X52119047Y-69552380D01*
X52214285Y-69600000D01*
X52261904Y-69647619D01*
X52309523Y-69742857D01*
X52309523Y-69838095D01*
X52261904Y-69980952D01*
X51690476Y-70552380D01*
X52309523Y-70552380D01*
X81738095Y-68952380D02*
X81738095Y-69761904D01*
X81785714Y-69857142D01*
X81833333Y-69904761D01*
X81928571Y-69952380D01*
X82119047Y-69952380D01*
X82214285Y-69904761D01*
X82261904Y-69857142D01*
X82309523Y-69761904D01*
X82309523Y-68952380D01*
X83309523Y-69952380D02*
X82738095Y-69952380D01*
X83023809Y-69952380D02*
X83023809Y-68952380D01*
X82928571Y-69095238D01*
X82833333Y-69190476D01*
X82738095Y-69238095D01*
X70452380Y-82595238D02*
X69976190Y-82928571D01*
X70452380Y-83166666D02*
X69452380Y-83166666D01*
X69452380Y-82785714D01*
X69500000Y-82690476D01*
X69547619Y-82642857D01*
X69642857Y-82595238D01*
X69785714Y-82595238D01*
X69880952Y-82642857D01*
X69928571Y-82690476D01*
X69976190Y-82785714D01*
X69976190Y-83166666D01*
X69452380Y-82309523D02*
X70452380Y-81976190D01*
X69452380Y-81642857D01*
X69547619Y-81357142D02*
X69500000Y-81309523D01*
X69452380Y-81214285D01*
X69452380Y-80976190D01*
X69500000Y-80880952D01*
X69547619Y-80833333D01*
X69642857Y-80785714D01*
X69738095Y-80785714D01*
X69880952Y-80833333D01*
X70452380Y-81404761D01*
X70452380Y-80785714D01*
X90404761Y-62952380D02*
X90071428Y-62476190D01*
X89833333Y-62952380D02*
X89833333Y-61952380D01*
X90214285Y-61952380D01*
X90309523Y-62000000D01*
X90357142Y-62047619D01*
X90404761Y-62142857D01*
X90404761Y-62285714D01*
X90357142Y-62380952D01*
X90309523Y-62428571D01*
X90214285Y-62476190D01*
X89833333Y-62476190D01*
X90690476Y-61952380D02*
X91023809Y-62952380D01*
X91357142Y-61952380D01*
X92214285Y-62952380D02*
X91642857Y-62952380D01*
X91928571Y-62952380D02*
X91928571Y-61952380D01*
X91833333Y-62095238D01*
X91738095Y-62190476D01*
X91642857Y-62238095D01*
X39532142Y-88952380D02*
X39198809Y-88476190D01*
X38960714Y-88952380D02*
X38960714Y-87952380D01*
X39341666Y-87952380D01*
X39436904Y-88000000D01*
X39484523Y-88047619D01*
X39532142Y-88142857D01*
X39532142Y-88285714D01*
X39484523Y-88380952D01*
X39436904Y-88428571D01*
X39341666Y-88476190D01*
X38960714Y-88476190D01*
X40484523Y-88952380D02*
X39913095Y-88952380D01*
X40198809Y-88952380D02*
X40198809Y-87952380D01*
X40103571Y-88095238D01*
X40008333Y-88190476D01*
X39913095Y-88238095D01*
X41436904Y-88952380D02*
X40865476Y-88952380D01*
X41151190Y-88952380D02*
X41151190Y-87952380D01*
X41055952Y-88095238D01*
X40960714Y-88190476D01*
X40865476Y-88238095D01*
X60769642Y-87452380D02*
X60436309Y-86976190D01*
X60198214Y-87452380D02*
X60198214Y-86452380D01*
X60579166Y-86452380D01*
X60674404Y-86500000D01*
X60722023Y-86547619D01*
X60769642Y-86642857D01*
X60769642Y-86785714D01*
X60722023Y-86880952D01*
X60674404Y-86928571D01*
X60579166Y-86976190D01*
X60198214Y-86976190D01*
X61722023Y-87452380D02*
X61150595Y-87452380D01*
X61436309Y-87452380D02*
X61436309Y-86452380D01*
X61341071Y-86595238D01*
X61245833Y-86690476D01*
X61150595Y-86738095D01*
X62341071Y-86452380D02*
X62436309Y-86452380D01*
X62531547Y-86500000D01*
X62579166Y-86547619D01*
X62626785Y-86642857D01*
X62674404Y-86833333D01*
X62674404Y-87071428D01*
X62626785Y-87261904D01*
X62579166Y-87357142D01*
X62531547Y-87404761D01*
X62436309Y-87452380D01*
X62341071Y-87452380D01*
X62245833Y-87404761D01*
X62198214Y-87357142D01*
X62150595Y-87261904D01*
X62102976Y-87071428D01*
X62102976Y-86833333D01*
X62150595Y-86642857D01*
X62198214Y-86547619D01*
X62245833Y-86500000D01*
X62341071Y-86452380D01*
X74658333Y-88452380D02*
X74325000Y-87976190D01*
X74086904Y-88452380D02*
X74086904Y-87452380D01*
X74467857Y-87452380D01*
X74563095Y-87500000D01*
X74610714Y-87547619D01*
X74658333Y-87642857D01*
X74658333Y-87785714D01*
X74610714Y-87880952D01*
X74563095Y-87928571D01*
X74467857Y-87976190D01*
X74086904Y-87976190D01*
X75134523Y-88452380D02*
X75325000Y-88452380D01*
X75420238Y-88404761D01*
X75467857Y-88357142D01*
X75563095Y-88214285D01*
X75610714Y-88023809D01*
X75610714Y-87642857D01*
X75563095Y-87547619D01*
X75515476Y-87500000D01*
X75420238Y-87452380D01*
X75229761Y-87452380D01*
X75134523Y-87500000D01*
X75086904Y-87547619D01*
X75039285Y-87642857D01*
X75039285Y-87880952D01*
X75086904Y-87976190D01*
X75134523Y-88023809D01*
X75229761Y-88071428D01*
X75420238Y-88071428D01*
X75515476Y-88023809D01*
X75563095Y-87976190D01*
X75610714Y-87880952D01*
X53333333Y-85952380D02*
X53000000Y-85476190D01*
X52761904Y-85952380D02*
X52761904Y-84952380D01*
X53142857Y-84952380D01*
X53238095Y-85000000D01*
X53285714Y-85047619D01*
X53333333Y-85142857D01*
X53333333Y-85285714D01*
X53285714Y-85380952D01*
X53238095Y-85428571D01*
X53142857Y-85476190D01*
X52761904Y-85476190D01*
X53904761Y-85380952D02*
X53809523Y-85333333D01*
X53761904Y-85285714D01*
X53714285Y-85190476D01*
X53714285Y-85142857D01*
X53761904Y-85047619D01*
X53809523Y-85000000D01*
X53904761Y-84952380D01*
X54095238Y-84952380D01*
X54190476Y-85000000D01*
X54238095Y-85047619D01*
X54285714Y-85142857D01*
X54285714Y-85190476D01*
X54238095Y-85285714D01*
X54190476Y-85333333D01*
X54095238Y-85380952D01*
X53904761Y-85380952D01*
X53809523Y-85428571D01*
X53761904Y-85476190D01*
X53714285Y-85571428D01*
X53714285Y-85761904D01*
X53761904Y-85857142D01*
X53809523Y-85904761D01*
X53904761Y-85952380D01*
X54095238Y-85952380D01*
X54190476Y-85904761D01*
X54238095Y-85857142D01*
X54285714Y-85761904D01*
X54285714Y-85571428D01*
X54238095Y-85476190D01*
X54190476Y-85428571D01*
X54095238Y-85380952D01*
X76370833Y-84952380D02*
X76037500Y-84476190D01*
X75799404Y-84952380D02*
X75799404Y-83952380D01*
X76180357Y-83952380D01*
X76275595Y-84000000D01*
X76323214Y-84047619D01*
X76370833Y-84142857D01*
X76370833Y-84285714D01*
X76323214Y-84380952D01*
X76275595Y-84428571D01*
X76180357Y-84476190D01*
X75799404Y-84476190D01*
X76704166Y-83952380D02*
X77370833Y-83952380D01*
X76942261Y-84952380D01*
X46333333Y-86452380D02*
X46000000Y-85976190D01*
X45761904Y-86452380D02*
X45761904Y-85452380D01*
X46142857Y-85452380D01*
X46238095Y-85500000D01*
X46285714Y-85547619D01*
X46333333Y-85642857D01*
X46333333Y-85785714D01*
X46285714Y-85880952D01*
X46238095Y-85928571D01*
X46142857Y-85976190D01*
X45761904Y-85976190D01*
X47190476Y-85452380D02*
X47000000Y-85452380D01*
X46904761Y-85500000D01*
X46857142Y-85547619D01*
X46761904Y-85690476D01*
X46714285Y-85880952D01*
X46714285Y-86261904D01*
X46761904Y-86357142D01*
X46809523Y-86404761D01*
X46904761Y-86452380D01*
X47095238Y-86452380D01*
X47190476Y-86404761D01*
X47238095Y-86357142D01*
X47285714Y-86261904D01*
X47285714Y-86023809D01*
X47238095Y-85928571D01*
X47190476Y-85880952D01*
X47095238Y-85833333D01*
X46904761Y-85833333D01*
X46809523Y-85880952D01*
X46761904Y-85928571D01*
X46714285Y-86023809D01*
X60333333Y-77452380D02*
X60000000Y-76976190D01*
X59761904Y-77452380D02*
X59761904Y-76452380D01*
X60142857Y-76452380D01*
X60238095Y-76500000D01*
X60285714Y-76547619D01*
X60333333Y-76642857D01*
X60333333Y-76785714D01*
X60285714Y-76880952D01*
X60238095Y-76928571D01*
X60142857Y-76976190D01*
X59761904Y-76976190D01*
X61238095Y-76452380D02*
X60761904Y-76452380D01*
X60714285Y-76928571D01*
X60761904Y-76880952D01*
X60857142Y-76833333D01*
X61095238Y-76833333D01*
X61190476Y-76880952D01*
X61238095Y-76928571D01*
X61285714Y-77023809D01*
X61285714Y-77261904D01*
X61238095Y-77357142D01*
X61190476Y-77404761D01*
X61095238Y-77452380D01*
X60857142Y-77452380D01*
X60761904Y-77404761D01*
X60714285Y-77357142D01*
X60333333Y-79952380D02*
X60000000Y-79476190D01*
X59761904Y-79952380D02*
X59761904Y-78952380D01*
X60142857Y-78952380D01*
X60238095Y-79000000D01*
X60285714Y-79047619D01*
X60333333Y-79142857D01*
X60333333Y-79285714D01*
X60285714Y-79380952D01*
X60238095Y-79428571D01*
X60142857Y-79476190D01*
X59761904Y-79476190D01*
X61190476Y-79285714D02*
X61190476Y-79952380D01*
X60952380Y-78904761D02*
X60714285Y-79619047D01*
X61333333Y-79619047D01*
X53333333Y-59452380D02*
X53000000Y-58976190D01*
X52761904Y-59452380D02*
X52761904Y-58452380D01*
X53142857Y-58452380D01*
X53238095Y-58500000D01*
X53285714Y-58547619D01*
X53333333Y-58642857D01*
X53333333Y-58785714D01*
X53285714Y-58880952D01*
X53238095Y-58928571D01*
X53142857Y-58976190D01*
X52761904Y-58976190D01*
X53666666Y-58452380D02*
X54285714Y-58452380D01*
X53952380Y-58833333D01*
X54095238Y-58833333D01*
X54190476Y-58880952D01*
X54238095Y-58928571D01*
X54285714Y-59023809D01*
X54285714Y-59261904D01*
X54238095Y-59357142D01*
X54190476Y-59404761D01*
X54095238Y-59452380D01*
X53809523Y-59452380D01*
X53714285Y-59404761D01*
X53666666Y-59357142D01*
X40333333Y-86452380D02*
X40000000Y-85976190D01*
X39761904Y-86452380D02*
X39761904Y-85452380D01*
X40142857Y-85452380D01*
X40238095Y-85500000D01*
X40285714Y-85547619D01*
X40333333Y-85642857D01*
X40333333Y-85785714D01*
X40285714Y-85880952D01*
X40238095Y-85928571D01*
X40142857Y-85976190D01*
X39761904Y-85976190D01*
X40714285Y-85547619D02*
X40761904Y-85500000D01*
X40857142Y-85452380D01*
X41095238Y-85452380D01*
X41190476Y-85500000D01*
X41238095Y-85547619D01*
X41285714Y-85642857D01*
X41285714Y-85738095D01*
X41238095Y-85880952D01*
X40666666Y-86452380D01*
X41285714Y-86452380D01*
X40333333Y-83952380D02*
X40000000Y-83476190D01*
X39761904Y-83952380D02*
X39761904Y-82952380D01*
X40142857Y-82952380D01*
X40238095Y-83000000D01*
X40285714Y-83047619D01*
X40333333Y-83142857D01*
X40333333Y-83285714D01*
X40285714Y-83380952D01*
X40238095Y-83428571D01*
X40142857Y-83476190D01*
X39761904Y-83476190D01*
X41285714Y-83952380D02*
X40714285Y-83952380D01*
X41000000Y-83952380D02*
X41000000Y-82952380D01*
X40904761Y-83095238D01*
X40809523Y-83190476D01*
X40714285Y-83238095D01*
X47333333Y-45952380D02*
X46857142Y-45952380D01*
X46857142Y-44952380D01*
X48190476Y-45952380D02*
X47619047Y-45952380D01*
X47904761Y-45952380D02*
X47904761Y-44952380D01*
X47809523Y-45095238D01*
X47714285Y-45190476D01*
X47619047Y-45238095D01*
X88877380Y-80333333D02*
X89591666Y-80333333D01*
X89734523Y-80380952D01*
X89829761Y-80476190D01*
X89877380Y-80619047D01*
X89877380Y-80714285D01*
X89877380Y-79857142D02*
X88877380Y-79857142D01*
X88877380Y-79476190D01*
X88925000Y-79380952D01*
X88972619Y-79333333D01*
X89067857Y-79285714D01*
X89210714Y-79285714D01*
X89305952Y-79333333D01*
X89353571Y-79380952D01*
X89401190Y-79476190D01*
X89401190Y-79857142D01*
X89877380Y-78333333D02*
X89877380Y-78904761D01*
X89877380Y-78619047D02*
X88877380Y-78619047D01*
X89020238Y-78714285D01*
X89115476Y-78809523D01*
X89163095Y-78904761D01*
X93952380Y-46833333D02*
X94666666Y-46833333D01*
X94809523Y-46880952D01*
X94904761Y-46976190D01*
X94952380Y-47119047D01*
X94952380Y-47214285D01*
X93952380Y-45880952D02*
X93952380Y-46357142D01*
X94428571Y-46404761D01*
X94380952Y-46357142D01*
X94333333Y-46261904D01*
X94333333Y-46023809D01*
X94380952Y-45928571D01*
X94428571Y-45880952D01*
X94523809Y-45833333D01*
X94761904Y-45833333D01*
X94857142Y-45880952D01*
X94904761Y-45928571D01*
X94952380Y-46023809D01*
X94952380Y-46261904D01*
X94904761Y-46357142D01*
X94857142Y-46404761D01*
X100452380Y-71333333D02*
X101166666Y-71333333D01*
X101309523Y-71380952D01*
X101404761Y-71476190D01*
X101452380Y-71619047D01*
X101452380Y-71714285D01*
X100785714Y-70428571D02*
X101452380Y-70428571D01*
X100404761Y-70666666D02*
X101119047Y-70904761D01*
X101119047Y-70285714D01*
X93952380Y-34333333D02*
X94666666Y-34333333D01*
X94809523Y-34380952D01*
X94904761Y-34476190D01*
X94952380Y-34619047D01*
X94952380Y-34714285D01*
X93952380Y-33952380D02*
X93952380Y-33333333D01*
X94333333Y-33666666D01*
X94333333Y-33523809D01*
X94380952Y-33428571D01*
X94428571Y-33380952D01*
X94523809Y-33333333D01*
X94761904Y-33333333D01*
X94857142Y-33380952D01*
X94904761Y-33428571D01*
X94952380Y-33523809D01*
X94952380Y-33809523D01*
X94904761Y-33904761D01*
X94857142Y-33952380D01*
X93452380Y-21333333D02*
X94166666Y-21333333D01*
X94309523Y-21380952D01*
X94404761Y-21476190D01*
X94452380Y-21619047D01*
X94452380Y-21714285D01*
X93547619Y-20904761D02*
X93500000Y-20857142D01*
X93452380Y-20761904D01*
X93452380Y-20523809D01*
X93500000Y-20428571D01*
X93547619Y-20380952D01*
X93642857Y-20333333D01*
X93738095Y-20333333D01*
X93880952Y-20380952D01*
X94452380Y-20952380D01*
X94452380Y-20333333D01*
X26166666Y-32952380D02*
X26166666Y-33666666D01*
X26119047Y-33809523D01*
X26023809Y-33904761D01*
X25880952Y-33952380D01*
X25785714Y-33952380D01*
X27166666Y-33952380D02*
X26595238Y-33952380D01*
X26880952Y-33952380D02*
X26880952Y-32952380D01*
X26785714Y-33095238D01*
X26690476Y-33190476D01*
X26595238Y-33238095D01*
X45761904Y-88952380D02*
X45761904Y-87952380D01*
X46000000Y-87952380D01*
X46142857Y-88000000D01*
X46238095Y-88095238D01*
X46285714Y-88190476D01*
X46333333Y-88380952D01*
X46333333Y-88523809D01*
X46285714Y-88714285D01*
X46238095Y-88809523D01*
X46142857Y-88904761D01*
X46000000Y-88952380D01*
X45761904Y-88952380D01*
X47238095Y-87952380D02*
X46761904Y-87952380D01*
X46714285Y-88428571D01*
X46761904Y-88380952D01*
X46857142Y-88333333D01*
X47095238Y-88333333D01*
X47190476Y-88380952D01*
X47238095Y-88428571D01*
X47285714Y-88523809D01*
X47285714Y-88761904D01*
X47238095Y-88857142D01*
X47190476Y-88904761D01*
X47095238Y-88952380D01*
X46857142Y-88952380D01*
X46761904Y-88904761D01*
X46714285Y-88857142D01*
X61952380Y-71738095D02*
X60952380Y-71738095D01*
X60952380Y-71500000D01*
X61000000Y-71357142D01*
X61095238Y-71261904D01*
X61190476Y-71214285D01*
X61380952Y-71166666D01*
X61523809Y-71166666D01*
X61714285Y-71214285D01*
X61809523Y-71261904D01*
X61904761Y-71357142D01*
X61952380Y-71500000D01*
X61952380Y-71738095D01*
X60952380Y-70833333D02*
X60952380Y-70214285D01*
X61333333Y-70547619D01*
X61333333Y-70404761D01*
X61380952Y-70309523D01*
X61428571Y-70261904D01*
X61523809Y-70214285D01*
X61761904Y-70214285D01*
X61857142Y-70261904D01*
X61904761Y-70309523D01*
X61952380Y-70404761D01*
X61952380Y-70690476D01*
X61904761Y-70785714D01*
X61857142Y-70833333D01*
X41452380Y-71738095D02*
X40452380Y-71738095D01*
X40452380Y-71500000D01*
X40500000Y-71357142D01*
X40595238Y-71261904D01*
X40690476Y-71214285D01*
X40880952Y-71166666D01*
X41023809Y-71166666D01*
X41214285Y-71214285D01*
X41309523Y-71261904D01*
X41404761Y-71357142D01*
X41452380Y-71500000D01*
X41452380Y-71738095D01*
X40547619Y-70785714D02*
X40500000Y-70738095D01*
X40452380Y-70642857D01*
X40452380Y-70404761D01*
X40500000Y-70309523D01*
X40547619Y-70261904D01*
X40642857Y-70214285D01*
X40738095Y-70214285D01*
X40880952Y-70261904D01*
X41452380Y-70833333D01*
X41452380Y-70214285D01*
X45857142Y-83857142D02*
X45809523Y-83904761D01*
X45666666Y-83952380D01*
X45571428Y-83952380D01*
X45428571Y-83904761D01*
X45333333Y-83809523D01*
X45285714Y-83714285D01*
X45238095Y-83523809D01*
X45238095Y-83380952D01*
X45285714Y-83190476D01*
X45333333Y-83095238D01*
X45428571Y-83000000D01*
X45571428Y-82952380D01*
X45666666Y-82952380D01*
X45809523Y-83000000D01*
X45857142Y-83047619D01*
X46238095Y-83047619D02*
X46285714Y-83000000D01*
X46380952Y-82952380D01*
X46619047Y-82952380D01*
X46714285Y-83000000D01*
X46761904Y-83047619D01*
X46809523Y-83142857D01*
X46809523Y-83238095D01*
X46761904Y-83380952D01*
X46190476Y-83952380D01*
X46809523Y-83952380D01*
X47666666Y-83285714D02*
X47666666Y-83952380D01*
X47428571Y-82904761D02*
X47190476Y-83619047D01*
X47809523Y-83619047D01*
X77332142Y-57007142D02*
X77284523Y-57054761D01*
X77141666Y-57102380D01*
X77046428Y-57102380D01*
X76903571Y-57054761D01*
X76808333Y-56959523D01*
X76760714Y-56864285D01*
X76713095Y-56673809D01*
X76713095Y-56530952D01*
X76760714Y-56340476D01*
X76808333Y-56245238D01*
X76903571Y-56150000D01*
X77046428Y-56102380D01*
X77141666Y-56102380D01*
X77284523Y-56150000D01*
X77332142Y-56197619D01*
X77713095Y-56197619D02*
X77760714Y-56150000D01*
X77855952Y-56102380D01*
X78094047Y-56102380D01*
X78189285Y-56150000D01*
X78236904Y-56197619D01*
X78284523Y-56292857D01*
X78284523Y-56388095D01*
X78236904Y-56530952D01*
X77665476Y-57102380D01*
X78284523Y-57102380D01*
X78617857Y-56102380D02*
X79236904Y-56102380D01*
X78903571Y-56483333D01*
X79046428Y-56483333D01*
X79141666Y-56530952D01*
X79189285Y-56578571D01*
X79236904Y-56673809D01*
X79236904Y-56911904D01*
X79189285Y-57007142D01*
X79141666Y-57054761D01*
X79046428Y-57102380D01*
X78760714Y-57102380D01*
X78665476Y-57054761D01*
X78617857Y-57007142D01*
X73832142Y-65507142D02*
X73784523Y-65554761D01*
X73641666Y-65602380D01*
X73546428Y-65602380D01*
X73403571Y-65554761D01*
X73308333Y-65459523D01*
X73260714Y-65364285D01*
X73213095Y-65173809D01*
X73213095Y-65030952D01*
X73260714Y-64840476D01*
X73308333Y-64745238D01*
X73403571Y-64650000D01*
X73546428Y-64602380D01*
X73641666Y-64602380D01*
X73784523Y-64650000D01*
X73832142Y-64697619D01*
X74213095Y-64697619D02*
X74260714Y-64650000D01*
X74355952Y-64602380D01*
X74594047Y-64602380D01*
X74689285Y-64650000D01*
X74736904Y-64697619D01*
X74784523Y-64792857D01*
X74784523Y-64888095D01*
X74736904Y-65030952D01*
X74165476Y-65602380D01*
X74784523Y-65602380D01*
X75165476Y-64697619D02*
X75213095Y-64650000D01*
X75308333Y-64602380D01*
X75546428Y-64602380D01*
X75641666Y-64650000D01*
X75689285Y-64697619D01*
X75736904Y-64792857D01*
X75736904Y-64888095D01*
X75689285Y-65030952D01*
X75117857Y-65602380D01*
X75736904Y-65602380D01*
X73832142Y-61507142D02*
X73784523Y-61554761D01*
X73641666Y-61602380D01*
X73546428Y-61602380D01*
X73403571Y-61554761D01*
X73308333Y-61459523D01*
X73260714Y-61364285D01*
X73213095Y-61173809D01*
X73213095Y-61030952D01*
X73260714Y-60840476D01*
X73308333Y-60745238D01*
X73403571Y-60650000D01*
X73546428Y-60602380D01*
X73641666Y-60602380D01*
X73784523Y-60650000D01*
X73832142Y-60697619D01*
X74213095Y-60697619D02*
X74260714Y-60650000D01*
X74355952Y-60602380D01*
X74594047Y-60602380D01*
X74689285Y-60650000D01*
X74736904Y-60697619D01*
X74784523Y-60792857D01*
X74784523Y-60888095D01*
X74736904Y-61030952D01*
X74165476Y-61602380D01*
X74784523Y-61602380D01*
X75736904Y-61602380D02*
X75165476Y-61602380D01*
X75451190Y-61602380D02*
X75451190Y-60602380D01*
X75355952Y-60745238D01*
X75260714Y-60840476D01*
X75165476Y-60888095D01*
X77332142Y-53007142D02*
X77284523Y-53054761D01*
X77141666Y-53102380D01*
X77046428Y-53102380D01*
X76903571Y-53054761D01*
X76808333Y-52959523D01*
X76760714Y-52864285D01*
X76713095Y-52673809D01*
X76713095Y-52530952D01*
X76760714Y-52340476D01*
X76808333Y-52245238D01*
X76903571Y-52150000D01*
X77046428Y-52102380D01*
X77141666Y-52102380D01*
X77284523Y-52150000D01*
X77332142Y-52197619D01*
X77713095Y-52197619D02*
X77760714Y-52150000D01*
X77855952Y-52102380D01*
X78094047Y-52102380D01*
X78189285Y-52150000D01*
X78236904Y-52197619D01*
X78284523Y-52292857D01*
X78284523Y-52388095D01*
X78236904Y-52530952D01*
X77665476Y-53102380D01*
X78284523Y-53102380D01*
X78903571Y-52102380D02*
X78998809Y-52102380D01*
X79094047Y-52150000D01*
X79141666Y-52197619D01*
X79189285Y-52292857D01*
X79236904Y-52483333D01*
X79236904Y-52721428D01*
X79189285Y-52911904D01*
X79141666Y-53007142D01*
X79094047Y-53054761D01*
X78998809Y-53102380D01*
X78903571Y-53102380D01*
X78808333Y-53054761D01*
X78760714Y-53007142D01*
X78713095Y-52911904D01*
X78665476Y-52721428D01*
X78665476Y-52483333D01*
X78713095Y-52292857D01*
X78760714Y-52197619D01*
X78808333Y-52150000D01*
X78903571Y-52102380D01*
X80857142Y-80857142D02*
X80809523Y-80904761D01*
X80666666Y-80952380D01*
X80571428Y-80952380D01*
X80428571Y-80904761D01*
X80333333Y-80809523D01*
X80285714Y-80714285D01*
X80238095Y-80523809D01*
X80238095Y-80380952D01*
X80285714Y-80190476D01*
X80333333Y-80095238D01*
X80428571Y-80000000D01*
X80571428Y-79952380D01*
X80666666Y-79952380D01*
X80809523Y-80000000D01*
X80857142Y-80047619D01*
X81809523Y-80952380D02*
X81238095Y-80952380D01*
X81523809Y-80952380D02*
X81523809Y-79952380D01*
X81428571Y-80095238D01*
X81333333Y-80190476D01*
X81238095Y-80238095D01*
X82285714Y-80952380D02*
X82476190Y-80952380D01*
X82571428Y-80904761D01*
X82619047Y-80857142D01*
X82714285Y-80714285D01*
X82761904Y-80523809D01*
X82761904Y-80142857D01*
X82714285Y-80047619D01*
X82666666Y-80000000D01*
X82571428Y-79952380D01*
X82380952Y-79952380D01*
X82285714Y-80000000D01*
X82238095Y-80047619D01*
X82190476Y-80142857D01*
X82190476Y-80380952D01*
X82238095Y-80476190D01*
X82285714Y-80523809D01*
X82380952Y-80571428D01*
X82571428Y-80571428D01*
X82666666Y-80523809D01*
X82714285Y-80476190D01*
X82761904Y-80380952D01*
X60257142Y-74857142D02*
X60209523Y-74904761D01*
X60066666Y-74952380D01*
X59971428Y-74952380D01*
X59828571Y-74904761D01*
X59733333Y-74809523D01*
X59685714Y-74714285D01*
X59638095Y-74523809D01*
X59638095Y-74380952D01*
X59685714Y-74190476D01*
X59733333Y-74095238D01*
X59828571Y-74000000D01*
X59971428Y-73952380D01*
X60066666Y-73952380D01*
X60209523Y-74000000D01*
X60257142Y-74047619D01*
X61209523Y-74952380D02*
X60638095Y-74952380D01*
X60923809Y-74952380D02*
X60923809Y-73952380D01*
X60828571Y-74095238D01*
X60733333Y-74190476D01*
X60638095Y-74238095D01*
X61780952Y-74380952D02*
X61685714Y-74333333D01*
X61638095Y-74285714D01*
X61590476Y-74190476D01*
X61590476Y-74142857D01*
X61638095Y-74047619D01*
X61685714Y-74000000D01*
X61780952Y-73952380D01*
X61971428Y-73952380D01*
X62066666Y-74000000D01*
X62114285Y-74047619D01*
X62161904Y-74142857D01*
X62161904Y-74190476D01*
X62114285Y-74285714D01*
X62066666Y-74333333D01*
X61971428Y-74380952D01*
X61780952Y-74380952D01*
X61685714Y-74428571D01*
X61638095Y-74476190D01*
X61590476Y-74571428D01*
X61590476Y-74761904D01*
X61638095Y-74857142D01*
X61685714Y-74904761D01*
X61780952Y-74952380D01*
X61971428Y-74952380D01*
X62066666Y-74904761D01*
X62114285Y-74857142D01*
X62161904Y-74761904D01*
X62161904Y-74571428D01*
X62114285Y-74476190D01*
X62066666Y-74428571D01*
X61971428Y-74380952D01*
X41357142Y-78357142D02*
X41309523Y-78404761D01*
X41166666Y-78452380D01*
X41071428Y-78452380D01*
X40928571Y-78404761D01*
X40833333Y-78309523D01*
X40785714Y-78214285D01*
X40738095Y-78023809D01*
X40738095Y-77880952D01*
X40785714Y-77690476D01*
X40833333Y-77595238D01*
X40928571Y-77500000D01*
X41071428Y-77452380D01*
X41166666Y-77452380D01*
X41309523Y-77500000D01*
X41357142Y-77547619D01*
X42309523Y-78452380D02*
X41738095Y-78452380D01*
X42023809Y-78452380D02*
X42023809Y-77452380D01*
X41928571Y-77595238D01*
X41833333Y-77690476D01*
X41738095Y-77738095D01*
X42642857Y-77452380D02*
X43309523Y-77452380D01*
X42880952Y-78452380D01*
X55857142Y-69357142D02*
X55809523Y-69404761D01*
X55666666Y-69452380D01*
X55571428Y-69452380D01*
X55428571Y-69404761D01*
X55333333Y-69309523D01*
X55285714Y-69214285D01*
X55238095Y-69023809D01*
X55238095Y-68880952D01*
X55285714Y-68690476D01*
X55333333Y-68595238D01*
X55428571Y-68500000D01*
X55571428Y-68452380D01*
X55666666Y-68452380D01*
X55809523Y-68500000D01*
X55857142Y-68547619D01*
X56809523Y-69452380D02*
X56238095Y-69452380D01*
X56523809Y-69452380D02*
X56523809Y-68452380D01*
X56428571Y-68595238D01*
X56333333Y-68690476D01*
X56238095Y-68738095D01*
X57666666Y-68452380D02*
X57476190Y-68452380D01*
X57380952Y-68500000D01*
X57333333Y-68547619D01*
X57238095Y-68690476D01*
X57190476Y-68880952D01*
X57190476Y-69261904D01*
X57238095Y-69357142D01*
X57285714Y-69404761D01*
X57380952Y-69452380D01*
X57571428Y-69452380D01*
X57666666Y-69404761D01*
X57714285Y-69357142D01*
X57761904Y-69261904D01*
X57761904Y-69023809D01*
X57714285Y-68928571D01*
X57666666Y-68880952D01*
X57571428Y-68833333D01*
X57380952Y-68833333D01*
X57285714Y-68880952D01*
X57238095Y-68928571D01*
X57190476Y-69023809D01*
X60357142Y-82357142D02*
X60309523Y-82404761D01*
X60166666Y-82452380D01*
X60071428Y-82452380D01*
X59928571Y-82404761D01*
X59833333Y-82309523D01*
X59785714Y-82214285D01*
X59738095Y-82023809D01*
X59738095Y-81880952D01*
X59785714Y-81690476D01*
X59833333Y-81595238D01*
X59928571Y-81500000D01*
X60071428Y-81452380D01*
X60166666Y-81452380D01*
X60309523Y-81500000D01*
X60357142Y-81547619D01*
X61309523Y-82452380D02*
X60738095Y-82452380D01*
X61023809Y-82452380D02*
X61023809Y-81452380D01*
X60928571Y-81595238D01*
X60833333Y-81690476D01*
X60738095Y-81738095D01*
X62214285Y-81452380D02*
X61738095Y-81452380D01*
X61690476Y-81928571D01*
X61738095Y-81880952D01*
X61833333Y-81833333D01*
X62071428Y-81833333D01*
X62166666Y-81880952D01*
X62214285Y-81928571D01*
X62261904Y-82023809D01*
X62261904Y-82261904D01*
X62214285Y-82357142D01*
X62166666Y-82404761D01*
X62071428Y-82452380D01*
X61833333Y-82452380D01*
X61738095Y-82404761D01*
X61690476Y-82357142D01*
X62807142Y-76857142D02*
X62759523Y-76904761D01*
X62616666Y-76952380D01*
X62521428Y-76952380D01*
X62378571Y-76904761D01*
X62283333Y-76809523D01*
X62235714Y-76714285D01*
X62188095Y-76523809D01*
X62188095Y-76380952D01*
X62235714Y-76190476D01*
X62283333Y-76095238D01*
X62378571Y-76000000D01*
X62521428Y-75952380D01*
X62616666Y-75952380D01*
X62759523Y-76000000D01*
X62807142Y-76047619D01*
X63759523Y-76952380D02*
X63188095Y-76952380D01*
X63473809Y-76952380D02*
X63473809Y-75952380D01*
X63378571Y-76095238D01*
X63283333Y-76190476D01*
X63188095Y-76238095D01*
X64616666Y-76285714D02*
X64616666Y-76952380D01*
X64378571Y-75904761D02*
X64140476Y-76619047D01*
X64759523Y-76619047D01*
X60307142Y-84857142D02*
X60259523Y-84904761D01*
X60116666Y-84952380D01*
X60021428Y-84952380D01*
X59878571Y-84904761D01*
X59783333Y-84809523D01*
X59735714Y-84714285D01*
X59688095Y-84523809D01*
X59688095Y-84380952D01*
X59735714Y-84190476D01*
X59783333Y-84095238D01*
X59878571Y-84000000D01*
X60021428Y-83952380D01*
X60116666Y-83952380D01*
X60259523Y-84000000D01*
X60307142Y-84047619D01*
X61259523Y-84952380D02*
X60688095Y-84952380D01*
X60973809Y-84952380D02*
X60973809Y-83952380D01*
X60878571Y-84095238D01*
X60783333Y-84190476D01*
X60688095Y-84238095D01*
X61592857Y-83952380D02*
X62211904Y-83952380D01*
X61878571Y-84333333D01*
X62021428Y-84333333D01*
X62116666Y-84380952D01*
X62164285Y-84428571D01*
X62211904Y-84523809D01*
X62211904Y-84761904D01*
X62164285Y-84857142D01*
X62116666Y-84904761D01*
X62021428Y-84952380D01*
X61735714Y-84952380D01*
X61640476Y-84904761D01*
X61592857Y-84857142D01*
X45357142Y-69357142D02*
X45309523Y-69404761D01*
X45166666Y-69452380D01*
X45071428Y-69452380D01*
X44928571Y-69404761D01*
X44833333Y-69309523D01*
X44785714Y-69214285D01*
X44738095Y-69023809D01*
X44738095Y-68880952D01*
X44785714Y-68690476D01*
X44833333Y-68595238D01*
X44928571Y-68500000D01*
X45071428Y-68452380D01*
X45166666Y-68452380D01*
X45309523Y-68500000D01*
X45357142Y-68547619D01*
X46309523Y-69452380D02*
X45738095Y-69452380D01*
X46023809Y-69452380D02*
X46023809Y-68452380D01*
X45928571Y-68595238D01*
X45833333Y-68690476D01*
X45738095Y-68738095D01*
X46690476Y-68547619D02*
X46738095Y-68500000D01*
X46833333Y-68452380D01*
X47071428Y-68452380D01*
X47166666Y-68500000D01*
X47214285Y-68547619D01*
X47261904Y-68642857D01*
X47261904Y-68738095D01*
X47214285Y-68880952D01*
X46642857Y-69452380D01*
X47261904Y-69452380D01*
X41357142Y-81357142D02*
X41309523Y-81404761D01*
X41166666Y-81452380D01*
X41071428Y-81452380D01*
X40928571Y-81404761D01*
X40833333Y-81309523D01*
X40785714Y-81214285D01*
X40738095Y-81023809D01*
X40738095Y-80880952D01*
X40785714Y-80690476D01*
X40833333Y-80595238D01*
X40928571Y-80500000D01*
X41071428Y-80452380D01*
X41166666Y-80452380D01*
X41309523Y-80500000D01*
X41357142Y-80547619D01*
X42309523Y-81452380D02*
X41738095Y-81452380D01*
X42023809Y-81452380D02*
X42023809Y-80452380D01*
X41928571Y-80595238D01*
X41833333Y-80690476D01*
X41738095Y-80738095D01*
X42928571Y-80452380D02*
X43023809Y-80452380D01*
X43119047Y-80500000D01*
X43166666Y-80547619D01*
X43214285Y-80642857D01*
X43261904Y-80833333D01*
X43261904Y-81071428D01*
X43214285Y-81261904D01*
X43166666Y-81357142D01*
X43119047Y-81404761D01*
X43023809Y-81452380D01*
X42928571Y-81452380D01*
X42833333Y-81404761D01*
X42785714Y-81357142D01*
X42738095Y-81261904D01*
X42690476Y-81071428D01*
X42690476Y-80833333D01*
X42738095Y-80642857D01*
X42785714Y-80547619D01*
X42833333Y-80500000D01*
X42928571Y-80452380D01*
X42333333Y-74857142D02*
X42285714Y-74904761D01*
X42142857Y-74952380D01*
X42047619Y-74952380D01*
X41904761Y-74904761D01*
X41809523Y-74809523D01*
X41761904Y-74714285D01*
X41714285Y-74523809D01*
X41714285Y-74380952D01*
X41761904Y-74190476D01*
X41809523Y-74095238D01*
X41904761Y-74000000D01*
X42047619Y-73952380D01*
X42142857Y-73952380D01*
X42285714Y-74000000D01*
X42333333Y-74047619D01*
X42809523Y-74952380D02*
X43000000Y-74952380D01*
X43095238Y-74904761D01*
X43142857Y-74857142D01*
X43238095Y-74714285D01*
X43285714Y-74523809D01*
X43285714Y-74142857D01*
X43238095Y-74047619D01*
X43190476Y-74000000D01*
X43095238Y-73952380D01*
X42904761Y-73952380D01*
X42809523Y-74000000D01*
X42761904Y-74047619D01*
X42714285Y-74142857D01*
X42714285Y-74380952D01*
X42761904Y-74476190D01*
X42809523Y-74523809D01*
X42904761Y-74571428D01*
X43095238Y-74571428D01*
X43190476Y-74523809D01*
X43238095Y-74476190D01*
X43285714Y-74380952D01*
X28833333Y-61357142D02*
X28785714Y-61404761D01*
X28642857Y-61452380D01*
X28547619Y-61452380D01*
X28404761Y-61404761D01*
X28309523Y-61309523D01*
X28261904Y-61214285D01*
X28214285Y-61023809D01*
X28214285Y-60880952D01*
X28261904Y-60690476D01*
X28309523Y-60595238D01*
X28404761Y-60500000D01*
X28547619Y-60452380D01*
X28642857Y-60452380D01*
X28785714Y-60500000D01*
X28833333Y-60547619D01*
X29404761Y-60880952D02*
X29309523Y-60833333D01*
X29261904Y-60785714D01*
X29214285Y-60690476D01*
X29214285Y-60642857D01*
X29261904Y-60547619D01*
X29309523Y-60500000D01*
X29404761Y-60452380D01*
X29595238Y-60452380D01*
X29690476Y-60500000D01*
X29738095Y-60547619D01*
X29785714Y-60642857D01*
X29785714Y-60690476D01*
X29738095Y-60785714D01*
X29690476Y-60833333D01*
X29595238Y-60880952D01*
X29404761Y-60880952D01*
X29309523Y-60928571D01*
X29261904Y-60976190D01*
X29214285Y-61071428D01*
X29214285Y-61261904D01*
X29261904Y-61357142D01*
X29309523Y-61404761D01*
X29404761Y-61452380D01*
X29595238Y-61452380D01*
X29690476Y-61404761D01*
X29738095Y-61357142D01*
X29785714Y-61261904D01*
X29785714Y-61071428D01*
X29738095Y-60976190D01*
X29690476Y-60928571D01*
X29595238Y-60880952D01*
X28833333Y-65357142D02*
X28785714Y-65404761D01*
X28642857Y-65452380D01*
X28547619Y-65452380D01*
X28404761Y-65404761D01*
X28309523Y-65309523D01*
X28261904Y-65214285D01*
X28214285Y-65023809D01*
X28214285Y-64880952D01*
X28261904Y-64690476D01*
X28309523Y-64595238D01*
X28404761Y-64500000D01*
X28547619Y-64452380D01*
X28642857Y-64452380D01*
X28785714Y-64500000D01*
X28833333Y-64547619D01*
X29166666Y-64452380D02*
X29833333Y-64452380D01*
X29404761Y-65452380D01*
X34283333Y-61357142D02*
X34235714Y-61404761D01*
X34092857Y-61452380D01*
X33997619Y-61452380D01*
X33854761Y-61404761D01*
X33759523Y-61309523D01*
X33711904Y-61214285D01*
X33664285Y-61023809D01*
X33664285Y-60880952D01*
X33711904Y-60690476D01*
X33759523Y-60595238D01*
X33854761Y-60500000D01*
X33997619Y-60452380D01*
X34092857Y-60452380D01*
X34235714Y-60500000D01*
X34283333Y-60547619D01*
X35140476Y-60452380D02*
X34950000Y-60452380D01*
X34854761Y-60500000D01*
X34807142Y-60547619D01*
X34711904Y-60690476D01*
X34664285Y-60880952D01*
X34664285Y-61261904D01*
X34711904Y-61357142D01*
X34759523Y-61404761D01*
X34854761Y-61452380D01*
X35045238Y-61452380D01*
X35140476Y-61404761D01*
X35188095Y-61357142D01*
X35235714Y-61261904D01*
X35235714Y-61023809D01*
X35188095Y-60928571D01*
X35140476Y-60880952D01*
X35045238Y-60833333D01*
X34854761Y-60833333D01*
X34759523Y-60880952D01*
X34711904Y-60928571D01*
X34664285Y-61023809D01*
X34333333Y-65357142D02*
X34285714Y-65404761D01*
X34142857Y-65452380D01*
X34047619Y-65452380D01*
X33904761Y-65404761D01*
X33809523Y-65309523D01*
X33761904Y-65214285D01*
X33714285Y-65023809D01*
X33714285Y-64880952D01*
X33761904Y-64690476D01*
X33809523Y-64595238D01*
X33904761Y-64500000D01*
X34047619Y-64452380D01*
X34142857Y-64452380D01*
X34285714Y-64500000D01*
X34333333Y-64547619D01*
X35238095Y-64452380D02*
X34761904Y-64452380D01*
X34714285Y-64928571D01*
X34761904Y-64880952D01*
X34857142Y-64833333D01*
X35095238Y-64833333D01*
X35190476Y-64880952D01*
X35238095Y-64928571D01*
X35285714Y-65023809D01*
X35285714Y-65261904D01*
X35238095Y-65357142D01*
X35190476Y-65404761D01*
X35095238Y-65452380D01*
X34857142Y-65452380D01*
X34761904Y-65404761D01*
X34714285Y-65357142D01*
X80833333Y-64357142D02*
X80785714Y-64404761D01*
X80642857Y-64452380D01*
X80547619Y-64452380D01*
X80404761Y-64404761D01*
X80309523Y-64309523D01*
X80261904Y-64214285D01*
X80214285Y-64023809D01*
X80214285Y-63880952D01*
X80261904Y-63690476D01*
X80309523Y-63595238D01*
X80404761Y-63500000D01*
X80547619Y-63452380D01*
X80642857Y-63452380D01*
X80785714Y-63500000D01*
X80833333Y-63547619D01*
X81690476Y-63785714D02*
X81690476Y-64452380D01*
X81452380Y-63404761D02*
X81214285Y-64119047D01*
X81833333Y-64119047D01*
X26833333Y-69857142D02*
X26785714Y-69904761D01*
X26642857Y-69952380D01*
X26547619Y-69952380D01*
X26404761Y-69904761D01*
X26309523Y-69809523D01*
X26261904Y-69714285D01*
X26214285Y-69523809D01*
X26214285Y-69380952D01*
X26261904Y-69190476D01*
X26309523Y-69095238D01*
X26404761Y-69000000D01*
X26547619Y-68952380D01*
X26642857Y-68952380D01*
X26785714Y-69000000D01*
X26833333Y-69047619D01*
X27166666Y-68952380D02*
X27785714Y-68952380D01*
X27452380Y-69333333D01*
X27595238Y-69333333D01*
X27690476Y-69380952D01*
X27738095Y-69428571D01*
X27785714Y-69523809D01*
X27785714Y-69761904D01*
X27738095Y-69857142D01*
X27690476Y-69904761D01*
X27595238Y-69952380D01*
X27309523Y-69952380D01*
X27214285Y-69904761D01*
X27166666Y-69857142D01*
X37833333Y-34857142D02*
X37785714Y-34904761D01*
X37642857Y-34952380D01*
X37547619Y-34952380D01*
X37404761Y-34904761D01*
X37309523Y-34809523D01*
X37261904Y-34714285D01*
X37214285Y-34523809D01*
X37214285Y-34380952D01*
X37261904Y-34190476D01*
X37309523Y-34095238D01*
X37404761Y-34000000D01*
X37547619Y-33952380D01*
X37642857Y-33952380D01*
X37785714Y-34000000D01*
X37833333Y-34047619D01*
X38214285Y-34047619D02*
X38261904Y-34000000D01*
X38357142Y-33952380D01*
X38595238Y-33952380D01*
X38690476Y-34000000D01*
X38738095Y-34047619D01*
X38785714Y-34142857D01*
X38785714Y-34238095D01*
X38738095Y-34380952D01*
X38166666Y-34952380D01*
X38785714Y-34952380D01*
X26833333Y-48357142D02*
X26785714Y-48404761D01*
X26642857Y-48452380D01*
X26547619Y-48452380D01*
X26404761Y-48404761D01*
X26309523Y-48309523D01*
X26261904Y-48214285D01*
X26214285Y-48023809D01*
X26214285Y-47880952D01*
X26261904Y-47690476D01*
X26309523Y-47595238D01*
X26404761Y-47500000D01*
X26547619Y-47452380D01*
X26642857Y-47452380D01*
X26785714Y-47500000D01*
X26833333Y-47547619D01*
X27785714Y-48452380D02*
X27214285Y-48452380D01*
X27500000Y-48452380D02*
X27500000Y-47452380D01*
X27404761Y-47595238D01*
X27309523Y-47690476D01*
X27214285Y-47738095D01*
%LPC*%
D12*
X65700000Y-66280000D03*
X65700000Y-61720000D03*
D13*
X59400000Y-64000000D03*
X71175000Y-56000000D03*
D12*
X64875000Y-58280000D03*
X64875000Y-53720000D03*
D14*
X84500000Y-34500000D03*
D15*
X89500000Y-34500000D03*
D14*
X84500000Y-48000000D03*
D15*
X89500000Y-48000000D03*
D16*
X91000000Y-24000000D03*
X83000000Y-86000000D03*
X42000000Y-24000000D03*
X29000000Y-86000000D03*
D13*
X47500000Y-56525000D03*
D12*
X41200000Y-58805000D03*
X41200000Y-54245000D03*
X49500000Y-66780000D03*
X49500000Y-62220000D03*
D13*
X43200000Y-64500000D03*
X90325000Y-73525000D03*
D12*
X84025000Y-75805000D03*
X84025000Y-71245000D03*
D17*
X48650000Y-71775000D03*
X48650000Y-72425000D03*
X48650000Y-73075000D03*
X48650000Y-73725000D03*
X48650000Y-74375000D03*
X48650000Y-75025000D03*
X48650000Y-75675000D03*
X48650000Y-76325000D03*
X48650000Y-76975000D03*
X48650000Y-77625000D03*
X48650000Y-78275000D03*
X48650000Y-78925000D03*
X48650000Y-79575000D03*
X48650000Y-80225000D03*
X54350000Y-80225000D03*
X54350000Y-79575000D03*
X54350000Y-78925000D03*
X54350000Y-78275000D03*
X54350000Y-77625000D03*
X54350000Y-76975000D03*
X54350000Y-76325000D03*
X54350000Y-75675000D03*
X54350000Y-75025000D03*
X54350000Y-74375000D03*
X54350000Y-73725000D03*
X54350000Y-73075000D03*
X54350000Y-72425000D03*
X54350000Y-71775000D03*
D18*
X52100000Y-78313750D03*
X52100000Y-76771250D03*
X52100000Y-75228750D03*
X52100000Y-73686250D03*
X50900000Y-78313750D03*
X50900000Y-76771250D03*
X50900000Y-75228750D03*
X50900000Y-73686250D03*
G36*
G01*
X83800000Y-66125000D02*
X83800000Y-65925000D01*
G75*
G02*
X83900000Y-65825000I100000J0D01*
G01*
X85325000Y-65825000D01*
G75*
G02*
X85425000Y-65925000I0J-100000D01*
G01*
X85425000Y-66125000D01*
G75*
G02*
X85325000Y-66225000I-100000J0D01*
G01*
X83900000Y-66225000D01*
G75*
G02*
X83800000Y-66125000I0J100000D01*
G01*
G37*
G36*
G01*
X83800000Y-66775000D02*
X83800000Y-66575000D01*
G75*
G02*
X83900000Y-66475000I100000J0D01*
G01*
X85325000Y-66475000D01*
G75*
G02*
X85425000Y-66575000I0J-100000D01*
G01*
X85425000Y-66775000D01*
G75*
G02*
X85325000Y-66875000I-100000J0D01*
G01*
X83900000Y-66875000D01*
G75*
G02*
X83800000Y-66775000I0J100000D01*
G01*
G37*
G36*
G01*
X83800000Y-67425000D02*
X83800000Y-67225000D01*
G75*
G02*
X83900000Y-67125000I100000J0D01*
G01*
X85325000Y-67125000D01*
G75*
G02*
X85425000Y-67225000I0J-100000D01*
G01*
X85425000Y-67425000D01*
G75*
G02*
X85325000Y-67525000I-100000J0D01*
G01*
X83900000Y-67525000D01*
G75*
G02*
X83800000Y-67425000I0J100000D01*
G01*
G37*
G36*
G01*
X83800000Y-68075000D02*
X83800000Y-67875000D01*
G75*
G02*
X83900000Y-67775000I100000J0D01*
G01*
X85325000Y-67775000D01*
G75*
G02*
X85425000Y-67875000I0J-100000D01*
G01*
X85425000Y-68075000D01*
G75*
G02*
X85325000Y-68175000I-100000J0D01*
G01*
X83900000Y-68175000D01*
G75*
G02*
X83800000Y-68075000I0J100000D01*
G01*
G37*
G36*
G01*
X79575000Y-68075000D02*
X79575000Y-67875000D01*
G75*
G02*
X79675000Y-67775000I100000J0D01*
G01*
X81100000Y-67775000D01*
G75*
G02*
X81200000Y-67875000I0J-100000D01*
G01*
X81200000Y-68075000D01*
G75*
G02*
X81100000Y-68175000I-100000J0D01*
G01*
X79675000Y-68175000D01*
G75*
G02*
X79575000Y-68075000I0J100000D01*
G01*
G37*
G36*
G01*
X79575000Y-67425000D02*
X79575000Y-67225000D01*
G75*
G02*
X79675000Y-67125000I100000J0D01*
G01*
X81100000Y-67125000D01*
G75*
G02*
X81200000Y-67225000I0J-100000D01*
G01*
X81200000Y-67425000D01*
G75*
G02*
X81100000Y-67525000I-100000J0D01*
G01*
X79675000Y-67525000D01*
G75*
G02*
X79575000Y-67425000I0J100000D01*
G01*
G37*
G36*
G01*
X79575000Y-66775000D02*
X79575000Y-66575000D01*
G75*
G02*
X79675000Y-66475000I100000J0D01*
G01*
X81100000Y-66475000D01*
G75*
G02*
X81200000Y-66575000I0J-100000D01*
G01*
X81200000Y-66775000D01*
G75*
G02*
X81100000Y-66875000I-100000J0D01*
G01*
X79675000Y-66875000D01*
G75*
G02*
X79575000Y-66775000I0J100000D01*
G01*
G37*
G36*
G01*
X79575000Y-66125000D02*
X79575000Y-65925000D01*
G75*
G02*
X79675000Y-65825000I100000J0D01*
G01*
X81100000Y-65825000D01*
G75*
G02*
X81200000Y-65925000I0J-100000D01*
G01*
X81200000Y-66125000D01*
G75*
G02*
X81100000Y-66225000I-100000J0D01*
G01*
X79675000Y-66225000D01*
G75*
G02*
X79575000Y-66125000I0J100000D01*
G01*
G37*
D19*
X66500000Y-81920000D03*
X66500000Y-84460000D03*
X66500000Y-87000000D03*
D20*
X84000000Y-57866670D03*
X91500000Y-59500000D03*
G36*
G01*
X43487500Y-88950002D02*
X43487500Y-88049998D01*
G75*
G02*
X43737498Y-87800000I249998J0D01*
G01*
X44262502Y-87800000D01*
G75*
G02*
X44512500Y-88049998I0J-249998D01*
G01*
X44512500Y-88950002D01*
G75*
G02*
X44262502Y-89200000I-249998J0D01*
G01*
X43737498Y-89200000D01*
G75*
G02*
X43487500Y-88950002I0J249998D01*
G01*
G37*
G36*
G01*
X41662500Y-88950002D02*
X41662500Y-88049998D01*
G75*
G02*
X41912498Y-87800000I249998J0D01*
G01*
X42437502Y-87800000D01*
G75*
G02*
X42687500Y-88049998I0J-249998D01*
G01*
X42687500Y-88950002D01*
G75*
G02*
X42437502Y-89200000I-249998J0D01*
G01*
X41912498Y-89200000D01*
G75*
G02*
X41662500Y-88950002I0J249998D01*
G01*
G37*
G36*
G01*
X58400000Y-87450002D02*
X58400000Y-86549998D01*
G75*
G02*
X58649998Y-86300000I249998J0D01*
G01*
X59175002Y-86300000D01*
G75*
G02*
X59425000Y-86549998I0J-249998D01*
G01*
X59425000Y-87450002D01*
G75*
G02*
X59175002Y-87700000I-249998J0D01*
G01*
X58649998Y-87700000D01*
G75*
G02*
X58400000Y-87450002I0J249998D01*
G01*
G37*
G36*
G01*
X56575000Y-87450002D02*
X56575000Y-86549998D01*
G75*
G02*
X56824998Y-86300000I249998J0D01*
G01*
X57350002Y-86300000D01*
G75*
G02*
X57600000Y-86549998I0J-249998D01*
G01*
X57600000Y-87450002D01*
G75*
G02*
X57350002Y-87700000I-249998J0D01*
G01*
X56824998Y-87700000D01*
G75*
G02*
X56575000Y-87450002I0J249998D01*
G01*
G37*
G36*
G01*
X72312500Y-88450002D02*
X72312500Y-87549998D01*
G75*
G02*
X72562498Y-87300000I249998J0D01*
G01*
X73087502Y-87300000D01*
G75*
G02*
X73337500Y-87549998I0J-249998D01*
G01*
X73337500Y-88450002D01*
G75*
G02*
X73087502Y-88700000I-249998J0D01*
G01*
X72562498Y-88700000D01*
G75*
G02*
X72312500Y-88450002I0J249998D01*
G01*
G37*
G36*
G01*
X70487500Y-88450002D02*
X70487500Y-87549998D01*
G75*
G02*
X70737498Y-87300000I249998J0D01*
G01*
X71262502Y-87300000D01*
G75*
G02*
X71512500Y-87549998I0J-249998D01*
G01*
X71512500Y-88450002D01*
G75*
G02*
X71262502Y-88700000I-249998J0D01*
G01*
X70737498Y-88700000D01*
G75*
G02*
X70487500Y-88450002I0J249998D01*
G01*
G37*
G36*
G01*
X51987500Y-83950002D02*
X51987500Y-83049998D01*
G75*
G02*
X52237498Y-82800000I249998J0D01*
G01*
X52762502Y-82800000D01*
G75*
G02*
X53012500Y-83049998I0J-249998D01*
G01*
X53012500Y-83950002D01*
G75*
G02*
X52762502Y-84200000I-249998J0D01*
G01*
X52237498Y-84200000D01*
G75*
G02*
X51987500Y-83950002I0J249998D01*
G01*
G37*
G36*
G01*
X53812500Y-83950002D02*
X53812500Y-83049998D01*
G75*
G02*
X54062498Y-82800000I249998J0D01*
G01*
X54587502Y-82800000D01*
G75*
G02*
X54837500Y-83049998I0J-249998D01*
G01*
X54837500Y-83950002D01*
G75*
G02*
X54587502Y-84200000I-249998J0D01*
G01*
X54062498Y-84200000D01*
G75*
G02*
X53812500Y-83950002I0J249998D01*
G01*
G37*
G36*
G01*
X72100000Y-83874998D02*
X72100000Y-85125002D01*
G75*
G02*
X71850002Y-85375000I-249998J0D01*
G01*
X71224998Y-85375000D01*
G75*
G02*
X70975000Y-85125002I0J249998D01*
G01*
X70975000Y-83874998D01*
G75*
G02*
X71224998Y-83625000I249998J0D01*
G01*
X71850002Y-83625000D01*
G75*
G02*
X72100000Y-83874998I0J-249998D01*
G01*
G37*
G36*
G01*
X75025000Y-83874998D02*
X75025000Y-85125002D01*
G75*
G02*
X74775002Y-85375000I-249998J0D01*
G01*
X74149998Y-85375000D01*
G75*
G02*
X73900000Y-85125002I0J249998D01*
G01*
X73900000Y-83874998D01*
G75*
G02*
X74149998Y-83625000I249998J0D01*
G01*
X74775002Y-83625000D01*
G75*
G02*
X75025000Y-83874998I0J-249998D01*
G01*
G37*
G36*
G01*
X47987500Y-86450002D02*
X47987500Y-85549998D01*
G75*
G02*
X48237498Y-85300000I249998J0D01*
G01*
X48762502Y-85300000D01*
G75*
G02*
X49012500Y-85549998I0J-249998D01*
G01*
X49012500Y-86450002D01*
G75*
G02*
X48762502Y-86700000I-249998J0D01*
G01*
X48237498Y-86700000D01*
G75*
G02*
X47987500Y-86450002I0J249998D01*
G01*
G37*
G36*
G01*
X49812500Y-86450002D02*
X49812500Y-85549998D01*
G75*
G02*
X50062498Y-85300000I249998J0D01*
G01*
X50587502Y-85300000D01*
G75*
G02*
X50837500Y-85549998I0J-249998D01*
G01*
X50837500Y-86450002D01*
G75*
G02*
X50587502Y-86700000I-249998J0D01*
G01*
X50062498Y-86700000D01*
G75*
G02*
X49812500Y-86450002I0J249998D01*
G01*
G37*
G36*
G01*
X58312500Y-77450002D02*
X58312500Y-76549998D01*
G75*
G02*
X58562498Y-76300000I249998J0D01*
G01*
X59087502Y-76300000D01*
G75*
G02*
X59337500Y-76549998I0J-249998D01*
G01*
X59337500Y-77450002D01*
G75*
G02*
X59087502Y-77700000I-249998J0D01*
G01*
X58562498Y-77700000D01*
G75*
G02*
X58312500Y-77450002I0J249998D01*
G01*
G37*
G36*
G01*
X56487500Y-77450002D02*
X56487500Y-76549998D01*
G75*
G02*
X56737498Y-76300000I249998J0D01*
G01*
X57262502Y-76300000D01*
G75*
G02*
X57512500Y-76549998I0J-249998D01*
G01*
X57512500Y-77450002D01*
G75*
G02*
X57262502Y-77700000I-249998J0D01*
G01*
X56737498Y-77700000D01*
G75*
G02*
X56487500Y-77450002I0J249998D01*
G01*
G37*
G36*
G01*
X58312500Y-79950002D02*
X58312500Y-79049998D01*
G75*
G02*
X58562498Y-78800000I249998J0D01*
G01*
X59087502Y-78800000D01*
G75*
G02*
X59337500Y-79049998I0J-249998D01*
G01*
X59337500Y-79950002D01*
G75*
G02*
X59087502Y-80200000I-249998J0D01*
G01*
X58562498Y-80200000D01*
G75*
G02*
X58312500Y-79950002I0J249998D01*
G01*
G37*
G36*
G01*
X56487500Y-79950002D02*
X56487500Y-79049998D01*
G75*
G02*
X56737498Y-78800000I249998J0D01*
G01*
X57262502Y-78800000D01*
G75*
G02*
X57512500Y-79049998I0J-249998D01*
G01*
X57512500Y-79950002D01*
G75*
G02*
X57262502Y-80200000I-249998J0D01*
G01*
X56737498Y-80200000D01*
G75*
G02*
X56487500Y-79950002I0J249998D01*
G01*
G37*
G36*
G01*
X54437500Y-57625002D02*
X54437500Y-56374998D01*
G75*
G02*
X54687498Y-56125000I249998J0D01*
G01*
X55312502Y-56125000D01*
G75*
G02*
X55562500Y-56374998I0J-249998D01*
G01*
X55562500Y-57625002D01*
G75*
G02*
X55312502Y-57875000I-249998J0D01*
G01*
X54687498Y-57875000D01*
G75*
G02*
X54437500Y-57625002I0J249998D01*
G01*
G37*
G36*
G01*
X51512500Y-57625002D02*
X51512500Y-56374998D01*
G75*
G02*
X51762498Y-56125000I249998J0D01*
G01*
X52387502Y-56125000D01*
G75*
G02*
X52637500Y-56374998I0J-249998D01*
G01*
X52637500Y-57625002D01*
G75*
G02*
X52387502Y-57875000I-249998J0D01*
G01*
X51762498Y-57875000D01*
G75*
G02*
X51512500Y-57625002I0J249998D01*
G01*
G37*
G36*
G01*
X42687500Y-85549998D02*
X42687500Y-86450002D01*
G75*
G02*
X42437502Y-86700000I-249998J0D01*
G01*
X41912498Y-86700000D01*
G75*
G02*
X41662500Y-86450002I0J249998D01*
G01*
X41662500Y-85549998D01*
G75*
G02*
X41912498Y-85300000I249998J0D01*
G01*
X42437502Y-85300000D01*
G75*
G02*
X42687500Y-85549998I0J-249998D01*
G01*
G37*
G36*
G01*
X44512500Y-85549998D02*
X44512500Y-86450002D01*
G75*
G02*
X44262502Y-86700000I-249998J0D01*
G01*
X43737498Y-86700000D01*
G75*
G02*
X43487500Y-86450002I0J249998D01*
G01*
X43487500Y-85549998D01*
G75*
G02*
X43737498Y-85300000I249998J0D01*
G01*
X44262502Y-85300000D01*
G75*
G02*
X44512500Y-85549998I0J-249998D01*
G01*
G37*
G36*
G01*
X43487500Y-83950002D02*
X43487500Y-83049998D01*
G75*
G02*
X43737498Y-82800000I249998J0D01*
G01*
X44262502Y-82800000D01*
G75*
G02*
X44512500Y-83049998I0J-249998D01*
G01*
X44512500Y-83950002D01*
G75*
G02*
X44262502Y-84200000I-249998J0D01*
G01*
X43737498Y-84200000D01*
G75*
G02*
X43487500Y-83950002I0J249998D01*
G01*
G37*
G36*
G01*
X41662500Y-83950002D02*
X41662500Y-83049998D01*
G75*
G02*
X41912498Y-82800000I249998J0D01*
G01*
X42437502Y-82800000D01*
G75*
G02*
X42687500Y-83049998I0J-249998D01*
G01*
X42687500Y-83950002D01*
G75*
G02*
X42437502Y-84200000I-249998J0D01*
G01*
X41912498Y-84200000D01*
G75*
G02*
X41662500Y-83950002I0J249998D01*
G01*
G37*
D21*
X61000000Y-25670000D03*
D22*
X66075000Y-48355000D03*
X55925000Y-48355000D03*
G36*
G01*
X86862500Y-80125002D02*
X86862500Y-78874998D01*
G75*
G02*
X87112498Y-78625000I249998J0D01*
G01*
X87737502Y-78625000D01*
G75*
G02*
X87987500Y-78874998I0J-249998D01*
G01*
X87987500Y-80125002D01*
G75*
G02*
X87737502Y-80375000I-249998J0D01*
G01*
X87112498Y-80375000D01*
G75*
G02*
X86862500Y-80125002I0J249998D01*
G01*
G37*
G36*
G01*
X83937500Y-80125002D02*
X83937500Y-78874998D01*
G75*
G02*
X84187498Y-78625000I249998J0D01*
G01*
X84812502Y-78625000D01*
G75*
G02*
X85062500Y-78874998I0J-249998D01*
G01*
X85062500Y-80125002D01*
G75*
G02*
X84812502Y-80375000I-249998J0D01*
G01*
X84187498Y-80375000D01*
G75*
G02*
X83937500Y-80125002I0J249998D01*
G01*
G37*
D23*
X100500000Y-49000000D03*
X100500000Y-54000000D03*
X100500000Y-61500000D03*
X100500000Y-66500000D03*
X100500000Y-36500000D03*
X100500000Y-41500000D03*
X100500000Y-24000000D03*
X100500000Y-29000000D03*
X29500000Y-29000000D03*
X29500000Y-24000000D03*
G36*
G01*
X48987500Y-88043750D02*
X48987500Y-88956250D01*
G75*
G02*
X48743750Y-89200000I-243750J0D01*
G01*
X48256250Y-89200000D01*
G75*
G02*
X48012500Y-88956250I0J243750D01*
G01*
X48012500Y-88043750D01*
G75*
G02*
X48256250Y-87800000I243750J0D01*
G01*
X48743750Y-87800000D01*
G75*
G02*
X48987500Y-88043750I0J-243750D01*
G01*
G37*
G36*
G01*
X50862500Y-88043750D02*
X50862500Y-88956250D01*
G75*
G02*
X50618750Y-89200000I-243750J0D01*
G01*
X50131250Y-89200000D01*
G75*
G02*
X49887500Y-88956250I0J243750D01*
G01*
X49887500Y-88043750D01*
G75*
G02*
X50131250Y-87800000I243750J0D01*
G01*
X50618750Y-87800000D01*
G75*
G02*
X50862500Y-88043750I0J-243750D01*
G01*
G37*
D24*
X59500000Y-69500000D03*
X59500000Y-72300000D03*
X43000000Y-69600000D03*
X43000000Y-72400000D03*
G36*
G01*
X50900000Y-83025000D02*
X50900000Y-83975000D01*
G75*
G02*
X50650000Y-84225000I-250000J0D01*
G01*
X50150000Y-84225000D01*
G75*
G02*
X49900000Y-83975000I0J250000D01*
G01*
X49900000Y-83025000D01*
G75*
G02*
X50150000Y-82775000I250000J0D01*
G01*
X50650000Y-82775000D01*
G75*
G02*
X50900000Y-83025000I0J-250000D01*
G01*
G37*
G36*
G01*
X49000000Y-83025000D02*
X49000000Y-83975000D01*
G75*
G02*
X48750000Y-84225000I-250000J0D01*
G01*
X48250000Y-84225000D01*
G75*
G02*
X48000000Y-83975000I0J250000D01*
G01*
X48000000Y-83025000D01*
G75*
G02*
X48250000Y-82775000I250000J0D01*
G01*
X48750000Y-82775000D01*
G75*
G02*
X49000000Y-83025000I0J-250000D01*
G01*
G37*
G36*
G01*
X78875000Y-59150001D02*
X78875000Y-57849999D01*
G75*
G02*
X79124999Y-57600000I249999J0D01*
G01*
X79775001Y-57600000D01*
G75*
G02*
X80025000Y-57849999I0J-249999D01*
G01*
X80025000Y-59150001D01*
G75*
G02*
X79775001Y-59400000I-249999J0D01*
G01*
X79124999Y-59400000D01*
G75*
G02*
X78875000Y-59150001I0J249999D01*
G01*
G37*
G36*
G01*
X75925000Y-59150001D02*
X75925000Y-57849999D01*
G75*
G02*
X76174999Y-57600000I249999J0D01*
G01*
X76825001Y-57600000D01*
G75*
G02*
X77075000Y-57849999I0J-249999D01*
G01*
X77075000Y-59150001D01*
G75*
G02*
X76825001Y-59400000I-249999J0D01*
G01*
X76174999Y-59400000D01*
G75*
G02*
X75925000Y-59150001I0J249999D01*
G01*
G37*
G36*
G01*
X75375000Y-67650001D02*
X75375000Y-66349999D01*
G75*
G02*
X75624999Y-66100000I249999J0D01*
G01*
X76275001Y-66100000D01*
G75*
G02*
X76525000Y-66349999I0J-249999D01*
G01*
X76525000Y-67650001D01*
G75*
G02*
X76275001Y-67900000I-249999J0D01*
G01*
X75624999Y-67900000D01*
G75*
G02*
X75375000Y-67650001I0J249999D01*
G01*
G37*
G36*
G01*
X72425000Y-67650001D02*
X72425000Y-66349999D01*
G75*
G02*
X72674999Y-66100000I249999J0D01*
G01*
X73325001Y-66100000D01*
G75*
G02*
X73575000Y-66349999I0J-249999D01*
G01*
X73575000Y-67650001D01*
G75*
G02*
X73325001Y-67900000I-249999J0D01*
G01*
X72674999Y-67900000D01*
G75*
G02*
X72425000Y-67650001I0J249999D01*
G01*
G37*
G36*
G01*
X75375000Y-63650001D02*
X75375000Y-62349999D01*
G75*
G02*
X75624999Y-62100000I249999J0D01*
G01*
X76275001Y-62100000D01*
G75*
G02*
X76525000Y-62349999I0J-249999D01*
G01*
X76525000Y-63650001D01*
G75*
G02*
X76275001Y-63900000I-249999J0D01*
G01*
X75624999Y-63900000D01*
G75*
G02*
X75375000Y-63650001I0J249999D01*
G01*
G37*
G36*
G01*
X72425000Y-63650001D02*
X72425000Y-62349999D01*
G75*
G02*
X72674999Y-62100000I249999J0D01*
G01*
X73325001Y-62100000D01*
G75*
G02*
X73575000Y-62349999I0J-249999D01*
G01*
X73575000Y-63650001D01*
G75*
G02*
X73325001Y-63900000I-249999J0D01*
G01*
X72674999Y-63900000D01*
G75*
G02*
X72425000Y-63650001I0J249999D01*
G01*
G37*
G36*
G01*
X78875000Y-55150001D02*
X78875000Y-53849999D01*
G75*
G02*
X79124999Y-53600000I249999J0D01*
G01*
X79775001Y-53600000D01*
G75*
G02*
X80025000Y-53849999I0J-249999D01*
G01*
X80025000Y-55150001D01*
G75*
G02*
X79775001Y-55400000I-249999J0D01*
G01*
X79124999Y-55400000D01*
G75*
G02*
X78875000Y-55150001I0J249999D01*
G01*
G37*
G36*
G01*
X75925000Y-55150001D02*
X75925000Y-53849999D01*
G75*
G02*
X76174999Y-53600000I249999J0D01*
G01*
X76825001Y-53600000D01*
G75*
G02*
X77075000Y-53849999I0J-249999D01*
G01*
X77075000Y-55150001D01*
G75*
G02*
X76825001Y-55400000I-249999J0D01*
G01*
X76174999Y-55400000D01*
G75*
G02*
X75925000Y-55150001I0J249999D01*
G01*
G37*
D14*
X77500000Y-75500000D03*
D15*
X72500000Y-75500000D03*
G36*
G01*
X56500000Y-74975000D02*
X56500000Y-74025000D01*
G75*
G02*
X56750000Y-73775000I250000J0D01*
G01*
X57250000Y-73775000D01*
G75*
G02*
X57500000Y-74025000I0J-250000D01*
G01*
X57500000Y-74975000D01*
G75*
G02*
X57250000Y-75225000I-250000J0D01*
G01*
X56750000Y-75225000D01*
G75*
G02*
X56500000Y-74975000I0J250000D01*
G01*
G37*
G36*
G01*
X58400000Y-74975000D02*
X58400000Y-74025000D01*
G75*
G02*
X58650000Y-73775000I250000J0D01*
G01*
X59150000Y-73775000D01*
G75*
G02*
X59400000Y-74025000I0J-250000D01*
G01*
X59400000Y-74975000D01*
G75*
G02*
X59150000Y-75225000I-250000J0D01*
G01*
X58650000Y-75225000D01*
G75*
G02*
X58400000Y-74975000I0J250000D01*
G01*
G37*
G36*
G01*
X44600000Y-77525000D02*
X44600000Y-78475000D01*
G75*
G02*
X44350000Y-78725000I-250000J0D01*
G01*
X43850000Y-78725000D01*
G75*
G02*
X43600000Y-78475000I0J250000D01*
G01*
X43600000Y-77525000D01*
G75*
G02*
X43850000Y-77275000I250000J0D01*
G01*
X44350000Y-77275000D01*
G75*
G02*
X44600000Y-77525000I0J-250000D01*
G01*
G37*
G36*
G01*
X46500000Y-77525000D02*
X46500000Y-78475000D01*
G75*
G02*
X46250000Y-78725000I-250000J0D01*
G01*
X45750000Y-78725000D01*
G75*
G02*
X45500000Y-78475000I0J250000D01*
G01*
X45500000Y-77525000D01*
G75*
G02*
X45750000Y-77275000I250000J0D01*
G01*
X46250000Y-77275000D01*
G75*
G02*
X46500000Y-77525000I0J-250000D01*
G01*
G37*
G36*
G01*
X57475000Y-72900000D02*
X56525000Y-72900000D01*
G75*
G02*
X56275000Y-72650000I0J250000D01*
G01*
X56275000Y-72150000D01*
G75*
G02*
X56525000Y-71900000I250000J0D01*
G01*
X57475000Y-71900000D01*
G75*
G02*
X57725000Y-72150000I0J-250000D01*
G01*
X57725000Y-72650000D01*
G75*
G02*
X57475000Y-72900000I-250000J0D01*
G01*
G37*
G36*
G01*
X57475000Y-71000000D02*
X56525000Y-71000000D01*
G75*
G02*
X56275000Y-70750000I0J250000D01*
G01*
X56275000Y-70250000D01*
G75*
G02*
X56525000Y-70000000I250000J0D01*
G01*
X57475000Y-70000000D01*
G75*
G02*
X57725000Y-70250000I0J-250000D01*
G01*
X57725000Y-70750000D01*
G75*
G02*
X57475000Y-71000000I-250000J0D01*
G01*
G37*
G36*
G01*
X58400000Y-82475000D02*
X58400000Y-81525000D01*
G75*
G02*
X58650000Y-81275000I250000J0D01*
G01*
X59150000Y-81275000D01*
G75*
G02*
X59400000Y-81525000I0J-250000D01*
G01*
X59400000Y-82475000D01*
G75*
G02*
X59150000Y-82725000I-250000J0D01*
G01*
X58650000Y-82725000D01*
G75*
G02*
X58400000Y-82475000I0J250000D01*
G01*
G37*
G36*
G01*
X56500000Y-82475000D02*
X56500000Y-81525000D01*
G75*
G02*
X56750000Y-81275000I250000J0D01*
G01*
X57250000Y-81275000D01*
G75*
G02*
X57500000Y-81525000I0J-250000D01*
G01*
X57500000Y-82475000D01*
G75*
G02*
X57250000Y-82725000I-250000J0D01*
G01*
X56750000Y-82725000D01*
G75*
G02*
X56500000Y-82475000I0J250000D01*
G01*
G37*
G36*
G01*
X63900000Y-78475000D02*
X63900000Y-77525000D01*
G75*
G02*
X64150000Y-77275000I250000J0D01*
G01*
X64650000Y-77275000D01*
G75*
G02*
X64900000Y-77525000I0J-250000D01*
G01*
X64900000Y-78475000D01*
G75*
G02*
X64650000Y-78725000I-250000J0D01*
G01*
X64150000Y-78725000D01*
G75*
G02*
X63900000Y-78475000I0J250000D01*
G01*
G37*
G36*
G01*
X62000000Y-78475000D02*
X62000000Y-77525000D01*
G75*
G02*
X62250000Y-77275000I250000J0D01*
G01*
X62750000Y-77275000D01*
G75*
G02*
X63000000Y-77525000I0J-250000D01*
G01*
X63000000Y-78475000D01*
G75*
G02*
X62750000Y-78725000I-250000J0D01*
G01*
X62250000Y-78725000D01*
G75*
G02*
X62000000Y-78475000I0J250000D01*
G01*
G37*
G36*
G01*
X58400000Y-84975000D02*
X58400000Y-84025000D01*
G75*
G02*
X58650000Y-83775000I250000J0D01*
G01*
X59150000Y-83775000D01*
G75*
G02*
X59400000Y-84025000I0J-250000D01*
G01*
X59400000Y-84975000D01*
G75*
G02*
X59150000Y-85225000I-250000J0D01*
G01*
X58650000Y-85225000D01*
G75*
G02*
X58400000Y-84975000I0J250000D01*
G01*
G37*
G36*
G01*
X56500000Y-84975000D02*
X56500000Y-84025000D01*
G75*
G02*
X56750000Y-83775000I250000J0D01*
G01*
X57250000Y-83775000D01*
G75*
G02*
X57500000Y-84025000I0J-250000D01*
G01*
X57500000Y-84975000D01*
G75*
G02*
X57250000Y-85225000I-250000J0D01*
G01*
X56750000Y-85225000D01*
G75*
G02*
X56500000Y-84975000I0J250000D01*
G01*
G37*
G36*
G01*
X46475000Y-72900000D02*
X45525000Y-72900000D01*
G75*
G02*
X45275000Y-72650000I0J250000D01*
G01*
X45275000Y-72150000D01*
G75*
G02*
X45525000Y-71900000I250000J0D01*
G01*
X46475000Y-71900000D01*
G75*
G02*
X46725000Y-72150000I0J-250000D01*
G01*
X46725000Y-72650000D01*
G75*
G02*
X46475000Y-72900000I-250000J0D01*
G01*
G37*
G36*
G01*
X46475000Y-71000000D02*
X45525000Y-71000000D01*
G75*
G02*
X45275000Y-70750000I0J250000D01*
G01*
X45275000Y-70250000D01*
G75*
G02*
X45525000Y-70000000I250000J0D01*
G01*
X46475000Y-70000000D01*
G75*
G02*
X46725000Y-70250000I0J-250000D01*
G01*
X46725000Y-70750000D01*
G75*
G02*
X46475000Y-71000000I-250000J0D01*
G01*
G37*
G36*
G01*
X44600000Y-80525000D02*
X44600000Y-81475000D01*
G75*
G02*
X44350000Y-81725000I-250000J0D01*
G01*
X43850000Y-81725000D01*
G75*
G02*
X43600000Y-81475000I0J250000D01*
G01*
X43600000Y-80525000D01*
G75*
G02*
X43850000Y-80275000I250000J0D01*
G01*
X44350000Y-80275000D01*
G75*
G02*
X44600000Y-80525000I0J-250000D01*
G01*
G37*
G36*
G01*
X46500000Y-80525000D02*
X46500000Y-81475000D01*
G75*
G02*
X46250000Y-81725000I-250000J0D01*
G01*
X45750000Y-81725000D01*
G75*
G02*
X45500000Y-81475000I0J250000D01*
G01*
X45500000Y-80525000D01*
G75*
G02*
X45750000Y-80275000I250000J0D01*
G01*
X46250000Y-80275000D01*
G75*
G02*
X46500000Y-80525000I0J-250000D01*
G01*
G37*
G36*
G01*
X46500000Y-74025000D02*
X46500000Y-74975000D01*
G75*
G02*
X46250000Y-75225000I-250000J0D01*
G01*
X45750000Y-75225000D01*
G75*
G02*
X45500000Y-74975000I0J250000D01*
G01*
X45500000Y-74025000D01*
G75*
G02*
X45750000Y-73775000I250000J0D01*
G01*
X46250000Y-73775000D01*
G75*
G02*
X46500000Y-74025000I0J-250000D01*
G01*
G37*
G36*
G01*
X44600000Y-74025000D02*
X44600000Y-74975000D01*
G75*
G02*
X44350000Y-75225000I-250000J0D01*
G01*
X43850000Y-75225000D01*
G75*
G02*
X43600000Y-74975000I0J250000D01*
G01*
X43600000Y-74025000D01*
G75*
G02*
X43850000Y-73775000I250000J0D01*
G01*
X44350000Y-73775000D01*
G75*
G02*
X44600000Y-74025000I0J-250000D01*
G01*
G37*
G36*
G01*
X28125000Y-62349999D02*
X28125000Y-63650001D01*
G75*
G02*
X27875001Y-63900000I-249999J0D01*
G01*
X27224999Y-63900000D01*
G75*
G02*
X26975000Y-63650001I0J249999D01*
G01*
X26975000Y-62349999D01*
G75*
G02*
X27224999Y-62100000I249999J0D01*
G01*
X27875001Y-62100000D01*
G75*
G02*
X28125000Y-62349999I0J-249999D01*
G01*
G37*
G36*
G01*
X31075000Y-62349999D02*
X31075000Y-63650001D01*
G75*
G02*
X30825001Y-63900000I-249999J0D01*
G01*
X30174999Y-63900000D01*
G75*
G02*
X29925000Y-63650001I0J249999D01*
G01*
X29925000Y-62349999D01*
G75*
G02*
X30174999Y-62100000I249999J0D01*
G01*
X30825001Y-62100000D01*
G75*
G02*
X31075000Y-62349999I0J-249999D01*
G01*
G37*
G36*
G01*
X28075000Y-66349999D02*
X28075000Y-67650001D01*
G75*
G02*
X27825001Y-67900000I-249999J0D01*
G01*
X27174999Y-67900000D01*
G75*
G02*
X26925000Y-67650001I0J249999D01*
G01*
X26925000Y-66349999D01*
G75*
G02*
X27174999Y-66100000I249999J0D01*
G01*
X27825001Y-66100000D01*
G75*
G02*
X28075000Y-66349999I0J-249999D01*
G01*
G37*
G36*
G01*
X31025000Y-66349999D02*
X31025000Y-67650001D01*
G75*
G02*
X30775001Y-67900000I-249999J0D01*
G01*
X30124999Y-67900000D01*
G75*
G02*
X29875000Y-67650001I0J249999D01*
G01*
X29875000Y-66349999D01*
G75*
G02*
X30124999Y-66100000I249999J0D01*
G01*
X30775001Y-66100000D01*
G75*
G02*
X31025000Y-66349999I0J-249999D01*
G01*
G37*
G36*
G01*
X35375000Y-63650001D02*
X35375000Y-62349999D01*
G75*
G02*
X35624999Y-62100000I249999J0D01*
G01*
X36275001Y-62100000D01*
G75*
G02*
X36525000Y-62349999I0J-249999D01*
G01*
X36525000Y-63650001D01*
G75*
G02*
X36275001Y-63900000I-249999J0D01*
G01*
X35624999Y-63900000D01*
G75*
G02*
X35375000Y-63650001I0J249999D01*
G01*
G37*
G36*
G01*
X32425000Y-63650001D02*
X32425000Y-62349999D01*
G75*
G02*
X32674999Y-62100000I249999J0D01*
G01*
X33325001Y-62100000D01*
G75*
G02*
X33575000Y-62349999I0J-249999D01*
G01*
X33575000Y-63650001D01*
G75*
G02*
X33325001Y-63900000I-249999J0D01*
G01*
X32674999Y-63900000D01*
G75*
G02*
X32425000Y-63650001I0J249999D01*
G01*
G37*
G36*
G01*
X35375000Y-67650001D02*
X35375000Y-66349999D01*
G75*
G02*
X35624999Y-66100000I249999J0D01*
G01*
X36275001Y-66100000D01*
G75*
G02*
X36525000Y-66349999I0J-249999D01*
G01*
X36525000Y-67650001D01*
G75*
G02*
X36275001Y-67900000I-249999J0D01*
G01*
X35624999Y-67900000D01*
G75*
G02*
X35375000Y-67650001I0J249999D01*
G01*
G37*
G36*
G01*
X32425000Y-67650001D02*
X32425000Y-66349999D01*
G75*
G02*
X32674999Y-66100000I249999J0D01*
G01*
X33325001Y-66100000D01*
G75*
G02*
X33575000Y-66349999I0J-249999D01*
G01*
X33575000Y-67650001D01*
G75*
G02*
X33325001Y-67900000I-249999J0D01*
G01*
X32674999Y-67900000D01*
G75*
G02*
X32425000Y-67650001I0J249999D01*
G01*
G37*
G36*
G01*
X83500000Y-63525000D02*
X83500000Y-64475000D01*
G75*
G02*
X83250000Y-64725000I-250000J0D01*
G01*
X82750000Y-64725000D01*
G75*
G02*
X82500000Y-64475000I0J250000D01*
G01*
X82500000Y-63525000D01*
G75*
G02*
X82750000Y-63275000I250000J0D01*
G01*
X83250000Y-63275000D01*
G75*
G02*
X83500000Y-63525000I0J-250000D01*
G01*
G37*
G36*
G01*
X85400000Y-63525000D02*
X85400000Y-64475000D01*
G75*
G02*
X85150000Y-64725000I-250000J0D01*
G01*
X84650000Y-64725000D01*
G75*
G02*
X84400000Y-64475000I0J250000D01*
G01*
X84400000Y-63525000D01*
G75*
G02*
X84650000Y-63275000I250000J0D01*
G01*
X85150000Y-63275000D01*
G75*
G02*
X85400000Y-63525000I0J-250000D01*
G01*
G37*
D14*
X34500000Y-75500000D03*
D15*
X29500000Y-75500000D03*
D14*
X34500000Y-40000000D03*
D15*
X29500000Y-40000000D03*
D14*
X34500000Y-54000000D03*
D15*
X29500000Y-54000000D03*
M02*
