G04 #@! TF.GenerationSoftware,KiCad,Pcbnew,6.0.9-8da3e8f707~116~ubuntu20.04.1*
G04 #@! TF.CreationDate,2022-11-18T09:21:54-05:00*
G04 #@! TF.ProjectId,buck_boost,6275636b-5f62-46f6-9f73-742e6b696361,rev?*
G04 #@! TF.SameCoordinates,Original*
G04 #@! TF.FileFunction,Paste,Top*
G04 #@! TF.FilePolarity,Positive*
%FSLAX46Y46*%
G04 Gerber Fmt 4.6, Leading zero omitted, Abs format (unit mm)*
G04 Created by KiCad (PCBNEW 6.0.9-8da3e8f707~116~ubuntu20.04.1) date 2022-11-18 09:21:54*
%MOMM*%
%LPD*%
G01*
G04 APERTURE LIST*
G04 Aperture macros list*
%AMRoundRect*
0 Rectangle with rounded corners*
0 $1 Rounding radius*
0 $2 $3 $4 $5 $6 $7 $8 $9 X,Y pos of 4 corners*
0 Add a 4 corners polygon primitive as box body*
4,1,4,$2,$3,$4,$5,$6,$7,$8,$9,$2,$3,0*
0 Add four circle primitives for the rounded corners*
1,1,$1+$1,$2,$3*
1,1,$1+$1,$4,$5*
1,1,$1+$1,$6,$7*
1,1,$1+$1,$8,$9*
0 Add four rect primitives between the rounded corners*
20,1,$1+$1,$2,$3,$4,$5,0*
20,1,$1+$1,$4,$5,$6,$7,0*
20,1,$1+$1,$6,$7,$8,$9,0*
20,1,$1+$1,$8,$9,$2,$3,0*%
G04 Aperture macros list end*
%ADD10RoundRect,0.249999X-0.325001X-0.650001X0.325001X-0.650001X0.325001X0.650001X-0.325001X0.650001X0*%
%ADD11RoundRect,0.249999X0.325001X0.650001X-0.325001X0.650001X-0.325001X-0.650001X0.325001X-0.650001X0*%
%ADD12RoundRect,0.250000X-0.250000X-0.475000X0.250000X-0.475000X0.250000X0.475000X-0.250000X0.475000X0*%
%ADD13RoundRect,0.250000X0.475000X-0.250000X0.475000X0.250000X-0.475000X0.250000X-0.475000X-0.250000X0*%
%ADD14RoundRect,0.250000X0.250000X0.475000X-0.250000X0.475000X-0.250000X-0.475000X0.250000X-0.475000X0*%
%ADD15RoundRect,0.243750X0.243750X0.456250X-0.243750X0.456250X-0.243750X-0.456250X0.243750X-0.456250X0*%
%ADD16RoundRect,0.249998X-0.262502X-0.450002X0.262502X-0.450002X0.262502X0.450002X-0.262502X0.450002X0*%
%ADD17RoundRect,0.249998X0.262502X0.450002X-0.262502X0.450002X-0.262502X-0.450002X0.262502X-0.450002X0*%
%ADD18RoundRect,0.249998X0.312502X0.625002X-0.312502X0.625002X-0.312502X-0.625002X0.312502X-0.625002X0*%
%ADD19R,3.050000X2.750000*%
%ADD20R,2.200000X1.200000*%
%ADD21RoundRect,0.249998X-0.312502X-0.625002X0.312502X-0.625002X0.312502X0.625002X-0.312502X0.625002X0*%
%ADD22RoundRect,0.250000X-0.475000X0.250000X-0.475000X-0.250000X0.475000X-0.250000X0.475000X0.250000X0*%
%ADD23RoundRect,0.100000X-0.712500X-0.100000X0.712500X-0.100000X0.712500X0.100000X-0.712500X0.100000X0*%
%ADD24R,1.100000X1.100000*%
%ADD25R,1.100000X0.400000*%
%ADD26R,0.720000X0.925500*%
%ADD27R,6.350000X6.500000*%
%ADD28R,5.330000X5.590000*%
%ADD29R,4.000000X1.650000*%
G04 APERTURE END LIST*
D10*
X33000000Y-63000000D03*
X35950000Y-63000000D03*
D11*
X30450000Y-67000000D03*
X27500000Y-67000000D03*
D12*
X57000000Y-82000000D03*
X58900000Y-82000000D03*
D13*
X57000000Y-72400000D03*
X57000000Y-70500000D03*
D12*
X57000000Y-74500000D03*
X58900000Y-74500000D03*
D10*
X76500000Y-54500000D03*
X79450000Y-54500000D03*
X73000000Y-63000000D03*
X75950000Y-63000000D03*
X73000000Y-67000000D03*
X75950000Y-67000000D03*
X76500000Y-58500000D03*
X79450000Y-58500000D03*
D14*
X50400000Y-83500000D03*
X48500000Y-83500000D03*
D15*
X50375000Y-88500000D03*
X48500000Y-88500000D03*
D16*
X42175000Y-83500000D03*
X44000000Y-83500000D03*
D17*
X44000000Y-86000000D03*
X42175000Y-86000000D03*
D16*
X57000000Y-79500000D03*
X58825000Y-79500000D03*
X57000000Y-77000000D03*
X58825000Y-77000000D03*
D18*
X74462500Y-84500000D03*
X71537500Y-84500000D03*
D16*
X52500000Y-83500000D03*
X54325000Y-83500000D03*
X71000000Y-88000000D03*
X72825000Y-88000000D03*
X42175000Y-88500000D03*
X44000000Y-88500000D03*
D10*
X33000000Y-67000000D03*
X35950000Y-67000000D03*
D16*
X48500000Y-86000000D03*
X50325000Y-86000000D03*
D19*
X69500000Y-57525000D03*
X72850000Y-57525000D03*
X72850000Y-54475000D03*
X69500000Y-54475000D03*
D20*
X64875000Y-53720000D03*
X64875000Y-58280000D03*
D19*
X92025000Y-74725000D03*
X88675000Y-77775000D03*
X88675000Y-74725000D03*
X92025000Y-77775000D03*
D20*
X84050000Y-73970000D03*
X84050000Y-78530000D03*
D21*
X84500000Y-81250000D03*
X87425000Y-81250000D03*
D22*
X86500000Y-67850000D03*
X86500000Y-69750000D03*
D23*
X79525000Y-67800000D03*
X79525000Y-68450000D03*
X79525000Y-69100000D03*
X79525000Y-69750000D03*
X83750000Y-69750000D03*
X83750000Y-69100000D03*
X83750000Y-68450000D03*
X83750000Y-67800000D03*
D19*
X57725000Y-62475000D03*
X61075000Y-62475000D03*
X61075000Y-65525000D03*
X57725000Y-65525000D03*
D20*
X65700000Y-66280000D03*
X65700000Y-61720000D03*
D14*
X46000000Y-81000000D03*
X44100000Y-81000000D03*
D13*
X46000000Y-72400000D03*
X46000000Y-70500000D03*
D24*
X43000000Y-69600000D03*
X43000000Y-72400000D03*
D14*
X46000000Y-78000000D03*
X44100000Y-78000000D03*
X46000000Y-74500000D03*
X44100000Y-74500000D03*
D24*
X59500000Y-69500000D03*
X59500000Y-72300000D03*
D25*
X48650000Y-71775000D03*
X48650000Y-72425000D03*
X48650000Y-73075000D03*
X48650000Y-73725000D03*
X48650000Y-74375000D03*
X48650000Y-75025000D03*
X48650000Y-75675000D03*
X48650000Y-76325000D03*
X48650000Y-76975000D03*
X48650000Y-77625000D03*
X48650000Y-78275000D03*
X48650000Y-78925000D03*
X48650000Y-79575000D03*
X48650000Y-80225000D03*
X54350000Y-80225000D03*
X54350000Y-79575000D03*
X54350000Y-78925000D03*
X54350000Y-78275000D03*
X54350000Y-77625000D03*
X54350000Y-76975000D03*
X54350000Y-76325000D03*
X54350000Y-75675000D03*
X54350000Y-75025000D03*
X54350000Y-74375000D03*
X54350000Y-73725000D03*
X54350000Y-73075000D03*
X54350000Y-72425000D03*
X54350000Y-71775000D03*
D26*
X52100000Y-78313750D03*
X52100000Y-75228750D03*
X52100000Y-76771250D03*
X52100000Y-73686250D03*
X50900000Y-78313750D03*
X50900000Y-73686250D03*
X50900000Y-76771250D03*
X50900000Y-75228750D03*
D19*
X49175000Y-58050000D03*
X45825000Y-55000000D03*
X45825000Y-58050000D03*
X49175000Y-55000000D03*
D20*
X41200000Y-54245000D03*
X41200000Y-58805000D03*
D12*
X57000000Y-84500000D03*
X58900000Y-84500000D03*
D19*
X44875000Y-62975000D03*
X44875000Y-66025000D03*
X41525000Y-66025000D03*
X41525000Y-62975000D03*
D20*
X49500000Y-66780000D03*
X49500000Y-62220000D03*
D16*
X57087500Y-87000000D03*
X58912500Y-87000000D03*
D12*
X62500000Y-78000000D03*
X64400000Y-78000000D03*
D11*
X30500000Y-63000000D03*
X27550000Y-63000000D03*
D27*
X61000000Y-25670000D03*
D28*
X55925000Y-48355000D03*
X66075000Y-48355000D03*
D21*
X52075000Y-57000000D03*
X55000000Y-57000000D03*
D29*
X82400000Y-43425000D03*
X90600000Y-45575000D03*
M02*
