G04 #@! TF.GenerationSoftware,KiCad,Pcbnew,6.0.9-8da3e8f707~116~ubuntu20.04.1*
G04 #@! TF.CreationDate,2022-11-18T09:21:54-05:00*
G04 #@! TF.ProjectId,buck_boost,6275636b-5f62-46f6-9f73-742e6b696361,rev?*
G04 #@! TF.SameCoordinates,Original*
G04 #@! TF.FileFunction,Legend,Bot*
G04 #@! TF.FilePolarity,Positive*
%FSLAX46Y46*%
G04 Gerber Fmt 4.6, Leading zero omitted, Abs format (unit mm)*
G04 Created by KiCad (PCBNEW 6.0.9-8da3e8f707~116~ubuntu20.04.1) date 2022-11-18 09:21:54*
%MOMM*%
%LPD*%
G01*
G04 APERTURE LIST*
G04 Aperture macros list*
%AMRoundRect*
0 Rectangle with rounded corners*
0 $1 Rounding radius*
0 $2 $3 $4 $5 $6 $7 $8 $9 X,Y pos of 4 corners*
0 Add a 4 corners polygon primitive as box body*
4,1,4,$2,$3,$4,$5,$6,$7,$8,$9,$2,$3,0*
0 Add four circle primitives for the rounded corners*
1,1,$1+$1,$2,$3*
1,1,$1+$1,$4,$5*
1,1,$1+$1,$6,$7*
1,1,$1+$1,$8,$9*
0 Add four rect primitives between the rounded corners*
20,1,$1+$1,$2,$3,$4,$5,0*
20,1,$1+$1,$4,$5,$6,$7,0*
20,1,$1+$1,$6,$7,$8,$9,0*
20,1,$1+$1,$8,$9,$2,$3,0*%
G04 Aperture macros list end*
%ADD10C,0.150000*%
%ADD11C,0.120000*%
%ADD12C,2.600000*%
%ADD13C,1.800000*%
%ADD14C,3.200000*%
%ADD15R,2.400000X2.400000*%
%ADD16C,2.400000*%
%ADD17C,1.440000*%
%ADD18RoundRect,0.249998X0.625002X-0.312502X0.625002X0.312502X-0.625002X0.312502X-0.625002X-0.312502X0*%
G04 APERTURE END LIST*
D10*
X40272380Y-59894642D02*
X39796190Y-59561309D01*
X40272380Y-59323214D02*
X39272380Y-59323214D01*
X39272380Y-59704166D01*
X39320000Y-59799404D01*
X39367619Y-59847023D01*
X39462857Y-59894642D01*
X39605714Y-59894642D01*
X39700952Y-59847023D01*
X39748571Y-59799404D01*
X39796190Y-59704166D01*
X39796190Y-59323214D01*
X40272380Y-60847023D02*
X40272380Y-60275595D01*
X40272380Y-60561309D02*
X39272380Y-60561309D01*
X39415238Y-60466071D01*
X39510476Y-60370833D01*
X39558095Y-60275595D01*
X39367619Y-61227976D02*
X39320000Y-61275595D01*
X39272380Y-61370833D01*
X39272380Y-61608928D01*
X39320000Y-61704166D01*
X39367619Y-61751785D01*
X39462857Y-61799404D01*
X39558095Y-61799404D01*
X39700952Y-61751785D01*
X40272380Y-61180357D01*
X40272380Y-61799404D01*
D11*
X37090000Y-61264564D02*
X37090000Y-59810436D01*
X38910000Y-61264564D02*
X38910000Y-59810436D01*
%LPC*%
D12*
X29500000Y-24000000D03*
X29500000Y-29000000D03*
X100500000Y-29000000D03*
X100500000Y-24000000D03*
X100500000Y-41500000D03*
X100500000Y-36500000D03*
X100500000Y-66500000D03*
X100500000Y-61500000D03*
X100500000Y-54000000D03*
X100500000Y-49000000D03*
D13*
X88000000Y-65320000D03*
X80500000Y-63686670D03*
D14*
X29000000Y-86000000D03*
X83000000Y-86000000D03*
X91000000Y-24000000D03*
X42000000Y-24000000D03*
D15*
X29500000Y-54000000D03*
D16*
X34500000Y-54000000D03*
D15*
X29500000Y-75500000D03*
D16*
X34500000Y-75500000D03*
D15*
X89500000Y-55500000D03*
D16*
X84500000Y-55500000D03*
D15*
X89500000Y-33500000D03*
D16*
X84500000Y-33500000D03*
D15*
X72500000Y-76250000D03*
D16*
X77500000Y-76250000D03*
D15*
X29500000Y-40000000D03*
D16*
X34500000Y-40000000D03*
D17*
X66500000Y-87000000D03*
X66500000Y-84460000D03*
X66500000Y-81920000D03*
D18*
X38000000Y-62000000D03*
X38000000Y-59075000D03*
M02*
