G04 #@! TF.GenerationSoftware,KiCad,Pcbnew,5.1.10-88a1d61d58~90~ubuntu20.04.1*
G04 #@! TF.CreationDate,2021-11-04T09:36:55-04:00*
G04 #@! TF.ProjectId,buck_boost,6275636b-5f62-46f6-9f73-742e6b696361,rev?*
G04 #@! TF.SameCoordinates,Original*
G04 #@! TF.FileFunction,Soldermask,Top*
G04 #@! TF.FilePolarity,Negative*
%FSLAX46Y46*%
G04 Gerber Fmt 4.6, Leading zero omitted, Abs format (unit mm)*
G04 Created by KiCad (PCBNEW 5.1.10-88a1d61d58~90~ubuntu20.04.1) date 2021-11-04 09:36:55*
%MOMM*%
%LPD*%
G01*
G04 APERTURE LIST*
%ADD10R,2.200000X1.200000*%
%ADD11R,6.400000X5.800000*%
%ADD12C,2.400000*%
%ADD13R,2.400000X2.400000*%
%ADD14C,3.200000*%
%ADD15R,1.100000X0.400000*%
%ADD16R,1.200000X1.542500*%
%ADD17C,1.440000*%
%ADD18C,1.800000*%
%ADD19R,6.350000X6.500000*%
%ADD20R,5.330000X5.590000*%
%ADD21C,2.600000*%
%ADD22R,1.100000X1.100000*%
G04 APERTURE END LIST*
D10*
X65700000Y-66280000D03*
X65700000Y-61720000D03*
D11*
X59400000Y-64000000D03*
X71175000Y-56000000D03*
D10*
X64875000Y-58280000D03*
X64875000Y-53720000D03*
D12*
X84500000Y-34500000D03*
D13*
X89500000Y-34500000D03*
D12*
X84500000Y-48000000D03*
D13*
X89500000Y-48000000D03*
D14*
X91000000Y-24000000D03*
X83000000Y-86000000D03*
X42000000Y-24000000D03*
X29000000Y-86000000D03*
D11*
X47500000Y-56525000D03*
D10*
X41200000Y-58805000D03*
X41200000Y-54245000D03*
X49500000Y-66780000D03*
X49500000Y-62220000D03*
D11*
X43200000Y-64500000D03*
X90325000Y-73525000D03*
D10*
X84025000Y-75805000D03*
X84025000Y-71245000D03*
D15*
X48650000Y-71775000D03*
X48650000Y-72425000D03*
X48650000Y-73075000D03*
X48650000Y-73725000D03*
X48650000Y-74375000D03*
X48650000Y-75025000D03*
X48650000Y-75675000D03*
X48650000Y-76325000D03*
X48650000Y-76975000D03*
X48650000Y-77625000D03*
X48650000Y-78275000D03*
X48650000Y-78925000D03*
X48650000Y-79575000D03*
X48650000Y-80225000D03*
X54350000Y-80225000D03*
X54350000Y-79575000D03*
X54350000Y-78925000D03*
X54350000Y-78275000D03*
X54350000Y-77625000D03*
X54350000Y-76975000D03*
X54350000Y-76325000D03*
X54350000Y-75675000D03*
X54350000Y-75025000D03*
X54350000Y-74375000D03*
X54350000Y-73725000D03*
X54350000Y-73075000D03*
X54350000Y-72425000D03*
X54350000Y-71775000D03*
D16*
X52100000Y-78313750D03*
X52100000Y-76771250D03*
X52100000Y-75228750D03*
X52100000Y-73686250D03*
X50900000Y-78313750D03*
X50900000Y-76771250D03*
X50900000Y-75228750D03*
X50900000Y-73686250D03*
G36*
G01*
X83800000Y-66125000D02*
X83800000Y-65925000D01*
G75*
G02*
X83900000Y-65825000I100000J0D01*
G01*
X85325000Y-65825000D01*
G75*
G02*
X85425000Y-65925000I0J-100000D01*
G01*
X85425000Y-66125000D01*
G75*
G02*
X85325000Y-66225000I-100000J0D01*
G01*
X83900000Y-66225000D01*
G75*
G02*
X83800000Y-66125000I0J100000D01*
G01*
G37*
G36*
G01*
X83800000Y-66775000D02*
X83800000Y-66575000D01*
G75*
G02*
X83900000Y-66475000I100000J0D01*
G01*
X85325000Y-66475000D01*
G75*
G02*
X85425000Y-66575000I0J-100000D01*
G01*
X85425000Y-66775000D01*
G75*
G02*
X85325000Y-66875000I-100000J0D01*
G01*
X83900000Y-66875000D01*
G75*
G02*
X83800000Y-66775000I0J100000D01*
G01*
G37*
G36*
G01*
X83800000Y-67425000D02*
X83800000Y-67225000D01*
G75*
G02*
X83900000Y-67125000I100000J0D01*
G01*
X85325000Y-67125000D01*
G75*
G02*
X85425000Y-67225000I0J-100000D01*
G01*
X85425000Y-67425000D01*
G75*
G02*
X85325000Y-67525000I-100000J0D01*
G01*
X83900000Y-67525000D01*
G75*
G02*
X83800000Y-67425000I0J100000D01*
G01*
G37*
G36*
G01*
X83800000Y-68075000D02*
X83800000Y-67875000D01*
G75*
G02*
X83900000Y-67775000I100000J0D01*
G01*
X85325000Y-67775000D01*
G75*
G02*
X85425000Y-67875000I0J-100000D01*
G01*
X85425000Y-68075000D01*
G75*
G02*
X85325000Y-68175000I-100000J0D01*
G01*
X83900000Y-68175000D01*
G75*
G02*
X83800000Y-68075000I0J100000D01*
G01*
G37*
G36*
G01*
X79575000Y-68075000D02*
X79575000Y-67875000D01*
G75*
G02*
X79675000Y-67775000I100000J0D01*
G01*
X81100000Y-67775000D01*
G75*
G02*
X81200000Y-67875000I0J-100000D01*
G01*
X81200000Y-68075000D01*
G75*
G02*
X81100000Y-68175000I-100000J0D01*
G01*
X79675000Y-68175000D01*
G75*
G02*
X79575000Y-68075000I0J100000D01*
G01*
G37*
G36*
G01*
X79575000Y-67425000D02*
X79575000Y-67225000D01*
G75*
G02*
X79675000Y-67125000I100000J0D01*
G01*
X81100000Y-67125000D01*
G75*
G02*
X81200000Y-67225000I0J-100000D01*
G01*
X81200000Y-67425000D01*
G75*
G02*
X81100000Y-67525000I-100000J0D01*
G01*
X79675000Y-67525000D01*
G75*
G02*
X79575000Y-67425000I0J100000D01*
G01*
G37*
G36*
G01*
X79575000Y-66775000D02*
X79575000Y-66575000D01*
G75*
G02*
X79675000Y-66475000I100000J0D01*
G01*
X81100000Y-66475000D01*
G75*
G02*
X81200000Y-66575000I0J-100000D01*
G01*
X81200000Y-66775000D01*
G75*
G02*
X81100000Y-66875000I-100000J0D01*
G01*
X79675000Y-66875000D01*
G75*
G02*
X79575000Y-66775000I0J100000D01*
G01*
G37*
G36*
G01*
X79575000Y-66125000D02*
X79575000Y-65925000D01*
G75*
G02*
X79675000Y-65825000I100000J0D01*
G01*
X81100000Y-65825000D01*
G75*
G02*
X81200000Y-65925000I0J-100000D01*
G01*
X81200000Y-66125000D01*
G75*
G02*
X81100000Y-66225000I-100000J0D01*
G01*
X79675000Y-66225000D01*
G75*
G02*
X79575000Y-66125000I0J100000D01*
G01*
G37*
D17*
X66500000Y-81920000D03*
X66500000Y-84460000D03*
X66500000Y-87000000D03*
D18*
X84000000Y-57866670D03*
X91500000Y-59500000D03*
G36*
G01*
X43487500Y-88950001D02*
X43487500Y-88049999D01*
G75*
G02*
X43737499Y-87800000I249999J0D01*
G01*
X44262501Y-87800000D01*
G75*
G02*
X44512500Y-88049999I0J-249999D01*
G01*
X44512500Y-88950001D01*
G75*
G02*
X44262501Y-89200000I-249999J0D01*
G01*
X43737499Y-89200000D01*
G75*
G02*
X43487500Y-88950001I0J249999D01*
G01*
G37*
G36*
G01*
X41662500Y-88950001D02*
X41662500Y-88049999D01*
G75*
G02*
X41912499Y-87800000I249999J0D01*
G01*
X42437501Y-87800000D01*
G75*
G02*
X42687500Y-88049999I0J-249999D01*
G01*
X42687500Y-88950001D01*
G75*
G02*
X42437501Y-89200000I-249999J0D01*
G01*
X41912499Y-89200000D01*
G75*
G02*
X41662500Y-88950001I0J249999D01*
G01*
G37*
G36*
G01*
X58400000Y-87450001D02*
X58400000Y-86549999D01*
G75*
G02*
X58649999Y-86300000I249999J0D01*
G01*
X59175001Y-86300000D01*
G75*
G02*
X59425000Y-86549999I0J-249999D01*
G01*
X59425000Y-87450001D01*
G75*
G02*
X59175001Y-87700000I-249999J0D01*
G01*
X58649999Y-87700000D01*
G75*
G02*
X58400000Y-87450001I0J249999D01*
G01*
G37*
G36*
G01*
X56575000Y-87450001D02*
X56575000Y-86549999D01*
G75*
G02*
X56824999Y-86300000I249999J0D01*
G01*
X57350001Y-86300000D01*
G75*
G02*
X57600000Y-86549999I0J-249999D01*
G01*
X57600000Y-87450001D01*
G75*
G02*
X57350001Y-87700000I-249999J0D01*
G01*
X56824999Y-87700000D01*
G75*
G02*
X56575000Y-87450001I0J249999D01*
G01*
G37*
G36*
G01*
X72312500Y-88450001D02*
X72312500Y-87549999D01*
G75*
G02*
X72562499Y-87300000I249999J0D01*
G01*
X73087501Y-87300000D01*
G75*
G02*
X73337500Y-87549999I0J-249999D01*
G01*
X73337500Y-88450001D01*
G75*
G02*
X73087501Y-88700000I-249999J0D01*
G01*
X72562499Y-88700000D01*
G75*
G02*
X72312500Y-88450001I0J249999D01*
G01*
G37*
G36*
G01*
X70487500Y-88450001D02*
X70487500Y-87549999D01*
G75*
G02*
X70737499Y-87300000I249999J0D01*
G01*
X71262501Y-87300000D01*
G75*
G02*
X71512500Y-87549999I0J-249999D01*
G01*
X71512500Y-88450001D01*
G75*
G02*
X71262501Y-88700000I-249999J0D01*
G01*
X70737499Y-88700000D01*
G75*
G02*
X70487500Y-88450001I0J249999D01*
G01*
G37*
G36*
G01*
X51987500Y-83950001D02*
X51987500Y-83049999D01*
G75*
G02*
X52237499Y-82800000I249999J0D01*
G01*
X52762501Y-82800000D01*
G75*
G02*
X53012500Y-83049999I0J-249999D01*
G01*
X53012500Y-83950001D01*
G75*
G02*
X52762501Y-84200000I-249999J0D01*
G01*
X52237499Y-84200000D01*
G75*
G02*
X51987500Y-83950001I0J249999D01*
G01*
G37*
G36*
G01*
X53812500Y-83950001D02*
X53812500Y-83049999D01*
G75*
G02*
X54062499Y-82800000I249999J0D01*
G01*
X54587501Y-82800000D01*
G75*
G02*
X54837500Y-83049999I0J-249999D01*
G01*
X54837500Y-83950001D01*
G75*
G02*
X54587501Y-84200000I-249999J0D01*
G01*
X54062499Y-84200000D01*
G75*
G02*
X53812500Y-83950001I0J249999D01*
G01*
G37*
G36*
G01*
X72100000Y-83874999D02*
X72100000Y-85125001D01*
G75*
G02*
X71850001Y-85375000I-249999J0D01*
G01*
X71224999Y-85375000D01*
G75*
G02*
X70975000Y-85125001I0J249999D01*
G01*
X70975000Y-83874999D01*
G75*
G02*
X71224999Y-83625000I249999J0D01*
G01*
X71850001Y-83625000D01*
G75*
G02*
X72100000Y-83874999I0J-249999D01*
G01*
G37*
G36*
G01*
X75025000Y-83874999D02*
X75025000Y-85125001D01*
G75*
G02*
X74775001Y-85375000I-249999J0D01*
G01*
X74149999Y-85375000D01*
G75*
G02*
X73900000Y-85125001I0J249999D01*
G01*
X73900000Y-83874999D01*
G75*
G02*
X74149999Y-83625000I249999J0D01*
G01*
X74775001Y-83625000D01*
G75*
G02*
X75025000Y-83874999I0J-249999D01*
G01*
G37*
G36*
G01*
X47987500Y-86450001D02*
X47987500Y-85549999D01*
G75*
G02*
X48237499Y-85300000I249999J0D01*
G01*
X48762501Y-85300000D01*
G75*
G02*
X49012500Y-85549999I0J-249999D01*
G01*
X49012500Y-86450001D01*
G75*
G02*
X48762501Y-86700000I-249999J0D01*
G01*
X48237499Y-86700000D01*
G75*
G02*
X47987500Y-86450001I0J249999D01*
G01*
G37*
G36*
G01*
X49812500Y-86450001D02*
X49812500Y-85549999D01*
G75*
G02*
X50062499Y-85300000I249999J0D01*
G01*
X50587501Y-85300000D01*
G75*
G02*
X50837500Y-85549999I0J-249999D01*
G01*
X50837500Y-86450001D01*
G75*
G02*
X50587501Y-86700000I-249999J0D01*
G01*
X50062499Y-86700000D01*
G75*
G02*
X49812500Y-86450001I0J249999D01*
G01*
G37*
G36*
G01*
X58312500Y-77450001D02*
X58312500Y-76549999D01*
G75*
G02*
X58562499Y-76300000I249999J0D01*
G01*
X59087501Y-76300000D01*
G75*
G02*
X59337500Y-76549999I0J-249999D01*
G01*
X59337500Y-77450001D01*
G75*
G02*
X59087501Y-77700000I-249999J0D01*
G01*
X58562499Y-77700000D01*
G75*
G02*
X58312500Y-77450001I0J249999D01*
G01*
G37*
G36*
G01*
X56487500Y-77450001D02*
X56487500Y-76549999D01*
G75*
G02*
X56737499Y-76300000I249999J0D01*
G01*
X57262501Y-76300000D01*
G75*
G02*
X57512500Y-76549999I0J-249999D01*
G01*
X57512500Y-77450001D01*
G75*
G02*
X57262501Y-77700000I-249999J0D01*
G01*
X56737499Y-77700000D01*
G75*
G02*
X56487500Y-77450001I0J249999D01*
G01*
G37*
G36*
G01*
X58312500Y-79950001D02*
X58312500Y-79049999D01*
G75*
G02*
X58562499Y-78800000I249999J0D01*
G01*
X59087501Y-78800000D01*
G75*
G02*
X59337500Y-79049999I0J-249999D01*
G01*
X59337500Y-79950001D01*
G75*
G02*
X59087501Y-80200000I-249999J0D01*
G01*
X58562499Y-80200000D01*
G75*
G02*
X58312500Y-79950001I0J249999D01*
G01*
G37*
G36*
G01*
X56487500Y-79950001D02*
X56487500Y-79049999D01*
G75*
G02*
X56737499Y-78800000I249999J0D01*
G01*
X57262501Y-78800000D01*
G75*
G02*
X57512500Y-79049999I0J-249999D01*
G01*
X57512500Y-79950001D01*
G75*
G02*
X57262501Y-80200000I-249999J0D01*
G01*
X56737499Y-80200000D01*
G75*
G02*
X56487500Y-79950001I0J249999D01*
G01*
G37*
G36*
G01*
X54437500Y-57625001D02*
X54437500Y-56374999D01*
G75*
G02*
X54687499Y-56125000I249999J0D01*
G01*
X55312501Y-56125000D01*
G75*
G02*
X55562500Y-56374999I0J-249999D01*
G01*
X55562500Y-57625001D01*
G75*
G02*
X55312501Y-57875000I-249999J0D01*
G01*
X54687499Y-57875000D01*
G75*
G02*
X54437500Y-57625001I0J249999D01*
G01*
G37*
G36*
G01*
X51512500Y-57625001D02*
X51512500Y-56374999D01*
G75*
G02*
X51762499Y-56125000I249999J0D01*
G01*
X52387501Y-56125000D01*
G75*
G02*
X52637500Y-56374999I0J-249999D01*
G01*
X52637500Y-57625001D01*
G75*
G02*
X52387501Y-57875000I-249999J0D01*
G01*
X51762499Y-57875000D01*
G75*
G02*
X51512500Y-57625001I0J249999D01*
G01*
G37*
G36*
G01*
X42687500Y-85549999D02*
X42687500Y-86450001D01*
G75*
G02*
X42437501Y-86700000I-249999J0D01*
G01*
X41912499Y-86700000D01*
G75*
G02*
X41662500Y-86450001I0J249999D01*
G01*
X41662500Y-85549999D01*
G75*
G02*
X41912499Y-85300000I249999J0D01*
G01*
X42437501Y-85300000D01*
G75*
G02*
X42687500Y-85549999I0J-249999D01*
G01*
G37*
G36*
G01*
X44512500Y-85549999D02*
X44512500Y-86450001D01*
G75*
G02*
X44262501Y-86700000I-249999J0D01*
G01*
X43737499Y-86700000D01*
G75*
G02*
X43487500Y-86450001I0J249999D01*
G01*
X43487500Y-85549999D01*
G75*
G02*
X43737499Y-85300000I249999J0D01*
G01*
X44262501Y-85300000D01*
G75*
G02*
X44512500Y-85549999I0J-249999D01*
G01*
G37*
G36*
G01*
X43487500Y-83950001D02*
X43487500Y-83049999D01*
G75*
G02*
X43737499Y-82800000I249999J0D01*
G01*
X44262501Y-82800000D01*
G75*
G02*
X44512500Y-83049999I0J-249999D01*
G01*
X44512500Y-83950001D01*
G75*
G02*
X44262501Y-84200000I-249999J0D01*
G01*
X43737499Y-84200000D01*
G75*
G02*
X43487500Y-83950001I0J249999D01*
G01*
G37*
G36*
G01*
X41662500Y-83950001D02*
X41662500Y-83049999D01*
G75*
G02*
X41912499Y-82800000I249999J0D01*
G01*
X42437501Y-82800000D01*
G75*
G02*
X42687500Y-83049999I0J-249999D01*
G01*
X42687500Y-83950001D01*
G75*
G02*
X42437501Y-84200000I-249999J0D01*
G01*
X41912499Y-84200000D01*
G75*
G02*
X41662500Y-83950001I0J249999D01*
G01*
G37*
D19*
X61000000Y-25670000D03*
D20*
X66075000Y-48355000D03*
X55925000Y-48355000D03*
G36*
G01*
X86862500Y-80125001D02*
X86862500Y-78874999D01*
G75*
G02*
X87112499Y-78625000I249999J0D01*
G01*
X87737501Y-78625000D01*
G75*
G02*
X87987500Y-78874999I0J-249999D01*
G01*
X87987500Y-80125001D01*
G75*
G02*
X87737501Y-80375000I-249999J0D01*
G01*
X87112499Y-80375000D01*
G75*
G02*
X86862500Y-80125001I0J249999D01*
G01*
G37*
G36*
G01*
X83937500Y-80125001D02*
X83937500Y-78874999D01*
G75*
G02*
X84187499Y-78625000I249999J0D01*
G01*
X84812501Y-78625000D01*
G75*
G02*
X85062500Y-78874999I0J-249999D01*
G01*
X85062500Y-80125001D01*
G75*
G02*
X84812501Y-80375000I-249999J0D01*
G01*
X84187499Y-80375000D01*
G75*
G02*
X83937500Y-80125001I0J249999D01*
G01*
G37*
D21*
X100500000Y-49000000D03*
X100500000Y-54000000D03*
X100500000Y-61500000D03*
X100500000Y-66500000D03*
X100500000Y-36500000D03*
X100500000Y-41500000D03*
X100500000Y-24000000D03*
X100500000Y-29000000D03*
X29500000Y-29000000D03*
X29500000Y-24000000D03*
G36*
G01*
X48987500Y-88043750D02*
X48987500Y-88956250D01*
G75*
G02*
X48743750Y-89200000I-243750J0D01*
G01*
X48256250Y-89200000D01*
G75*
G02*
X48012500Y-88956250I0J243750D01*
G01*
X48012500Y-88043750D01*
G75*
G02*
X48256250Y-87800000I243750J0D01*
G01*
X48743750Y-87800000D01*
G75*
G02*
X48987500Y-88043750I0J-243750D01*
G01*
G37*
G36*
G01*
X50862500Y-88043750D02*
X50862500Y-88956250D01*
G75*
G02*
X50618750Y-89200000I-243750J0D01*
G01*
X50131250Y-89200000D01*
G75*
G02*
X49887500Y-88956250I0J243750D01*
G01*
X49887500Y-88043750D01*
G75*
G02*
X50131250Y-87800000I243750J0D01*
G01*
X50618750Y-87800000D01*
G75*
G02*
X50862500Y-88043750I0J-243750D01*
G01*
G37*
D22*
X59500000Y-69500000D03*
X59500000Y-72300000D03*
X43000000Y-69600000D03*
X43000000Y-72400000D03*
G36*
G01*
X50900000Y-83025000D02*
X50900000Y-83975000D01*
G75*
G02*
X50650000Y-84225000I-250000J0D01*
G01*
X50150000Y-84225000D01*
G75*
G02*
X49900000Y-83975000I0J250000D01*
G01*
X49900000Y-83025000D01*
G75*
G02*
X50150000Y-82775000I250000J0D01*
G01*
X50650000Y-82775000D01*
G75*
G02*
X50900000Y-83025000I0J-250000D01*
G01*
G37*
G36*
G01*
X49000000Y-83025000D02*
X49000000Y-83975000D01*
G75*
G02*
X48750000Y-84225000I-250000J0D01*
G01*
X48250000Y-84225000D01*
G75*
G02*
X48000000Y-83975000I0J250000D01*
G01*
X48000000Y-83025000D01*
G75*
G02*
X48250000Y-82775000I250000J0D01*
G01*
X48750000Y-82775000D01*
G75*
G02*
X49000000Y-83025000I0J-250000D01*
G01*
G37*
G36*
G01*
X78875000Y-59150001D02*
X78875000Y-57849999D01*
G75*
G02*
X79124999Y-57600000I249999J0D01*
G01*
X79775001Y-57600000D01*
G75*
G02*
X80025000Y-57849999I0J-249999D01*
G01*
X80025000Y-59150001D01*
G75*
G02*
X79775001Y-59400000I-249999J0D01*
G01*
X79124999Y-59400000D01*
G75*
G02*
X78875000Y-59150001I0J249999D01*
G01*
G37*
G36*
G01*
X75925000Y-59150001D02*
X75925000Y-57849999D01*
G75*
G02*
X76174999Y-57600000I249999J0D01*
G01*
X76825001Y-57600000D01*
G75*
G02*
X77075000Y-57849999I0J-249999D01*
G01*
X77075000Y-59150001D01*
G75*
G02*
X76825001Y-59400000I-249999J0D01*
G01*
X76174999Y-59400000D01*
G75*
G02*
X75925000Y-59150001I0J249999D01*
G01*
G37*
G36*
G01*
X75375000Y-67650001D02*
X75375000Y-66349999D01*
G75*
G02*
X75624999Y-66100000I249999J0D01*
G01*
X76275001Y-66100000D01*
G75*
G02*
X76525000Y-66349999I0J-249999D01*
G01*
X76525000Y-67650001D01*
G75*
G02*
X76275001Y-67900000I-249999J0D01*
G01*
X75624999Y-67900000D01*
G75*
G02*
X75375000Y-67650001I0J249999D01*
G01*
G37*
G36*
G01*
X72425000Y-67650001D02*
X72425000Y-66349999D01*
G75*
G02*
X72674999Y-66100000I249999J0D01*
G01*
X73325001Y-66100000D01*
G75*
G02*
X73575000Y-66349999I0J-249999D01*
G01*
X73575000Y-67650001D01*
G75*
G02*
X73325001Y-67900000I-249999J0D01*
G01*
X72674999Y-67900000D01*
G75*
G02*
X72425000Y-67650001I0J249999D01*
G01*
G37*
G36*
G01*
X75375000Y-63650001D02*
X75375000Y-62349999D01*
G75*
G02*
X75624999Y-62100000I249999J0D01*
G01*
X76275001Y-62100000D01*
G75*
G02*
X76525000Y-62349999I0J-249999D01*
G01*
X76525000Y-63650001D01*
G75*
G02*
X76275001Y-63900000I-249999J0D01*
G01*
X75624999Y-63900000D01*
G75*
G02*
X75375000Y-63650001I0J249999D01*
G01*
G37*
G36*
G01*
X72425000Y-63650001D02*
X72425000Y-62349999D01*
G75*
G02*
X72674999Y-62100000I249999J0D01*
G01*
X73325001Y-62100000D01*
G75*
G02*
X73575000Y-62349999I0J-249999D01*
G01*
X73575000Y-63650001D01*
G75*
G02*
X73325001Y-63900000I-249999J0D01*
G01*
X72674999Y-63900000D01*
G75*
G02*
X72425000Y-63650001I0J249999D01*
G01*
G37*
G36*
G01*
X78875000Y-55150001D02*
X78875000Y-53849999D01*
G75*
G02*
X79124999Y-53600000I249999J0D01*
G01*
X79775001Y-53600000D01*
G75*
G02*
X80025000Y-53849999I0J-249999D01*
G01*
X80025000Y-55150001D01*
G75*
G02*
X79775001Y-55400000I-249999J0D01*
G01*
X79124999Y-55400000D01*
G75*
G02*
X78875000Y-55150001I0J249999D01*
G01*
G37*
G36*
G01*
X75925000Y-55150001D02*
X75925000Y-53849999D01*
G75*
G02*
X76174999Y-53600000I249999J0D01*
G01*
X76825001Y-53600000D01*
G75*
G02*
X77075000Y-53849999I0J-249999D01*
G01*
X77075000Y-55150001D01*
G75*
G02*
X76825001Y-55400000I-249999J0D01*
G01*
X76174999Y-55400000D01*
G75*
G02*
X75925000Y-55150001I0J249999D01*
G01*
G37*
D12*
X77500000Y-75500000D03*
D13*
X72500000Y-75500000D03*
G36*
G01*
X56500000Y-74975000D02*
X56500000Y-74025000D01*
G75*
G02*
X56750000Y-73775000I250000J0D01*
G01*
X57250000Y-73775000D01*
G75*
G02*
X57500000Y-74025000I0J-250000D01*
G01*
X57500000Y-74975000D01*
G75*
G02*
X57250000Y-75225000I-250000J0D01*
G01*
X56750000Y-75225000D01*
G75*
G02*
X56500000Y-74975000I0J250000D01*
G01*
G37*
G36*
G01*
X58400000Y-74975000D02*
X58400000Y-74025000D01*
G75*
G02*
X58650000Y-73775000I250000J0D01*
G01*
X59150000Y-73775000D01*
G75*
G02*
X59400000Y-74025000I0J-250000D01*
G01*
X59400000Y-74975000D01*
G75*
G02*
X59150000Y-75225000I-250000J0D01*
G01*
X58650000Y-75225000D01*
G75*
G02*
X58400000Y-74975000I0J250000D01*
G01*
G37*
G36*
G01*
X44600000Y-77525000D02*
X44600000Y-78475000D01*
G75*
G02*
X44350000Y-78725000I-250000J0D01*
G01*
X43850000Y-78725000D01*
G75*
G02*
X43600000Y-78475000I0J250000D01*
G01*
X43600000Y-77525000D01*
G75*
G02*
X43850000Y-77275000I250000J0D01*
G01*
X44350000Y-77275000D01*
G75*
G02*
X44600000Y-77525000I0J-250000D01*
G01*
G37*
G36*
G01*
X46500000Y-77525000D02*
X46500000Y-78475000D01*
G75*
G02*
X46250000Y-78725000I-250000J0D01*
G01*
X45750000Y-78725000D01*
G75*
G02*
X45500000Y-78475000I0J250000D01*
G01*
X45500000Y-77525000D01*
G75*
G02*
X45750000Y-77275000I250000J0D01*
G01*
X46250000Y-77275000D01*
G75*
G02*
X46500000Y-77525000I0J-250000D01*
G01*
G37*
G36*
G01*
X57475000Y-72900000D02*
X56525000Y-72900000D01*
G75*
G02*
X56275000Y-72650000I0J250000D01*
G01*
X56275000Y-72150000D01*
G75*
G02*
X56525000Y-71900000I250000J0D01*
G01*
X57475000Y-71900000D01*
G75*
G02*
X57725000Y-72150000I0J-250000D01*
G01*
X57725000Y-72650000D01*
G75*
G02*
X57475000Y-72900000I-250000J0D01*
G01*
G37*
G36*
G01*
X57475000Y-71000000D02*
X56525000Y-71000000D01*
G75*
G02*
X56275000Y-70750000I0J250000D01*
G01*
X56275000Y-70250000D01*
G75*
G02*
X56525000Y-70000000I250000J0D01*
G01*
X57475000Y-70000000D01*
G75*
G02*
X57725000Y-70250000I0J-250000D01*
G01*
X57725000Y-70750000D01*
G75*
G02*
X57475000Y-71000000I-250000J0D01*
G01*
G37*
G36*
G01*
X58400000Y-82475000D02*
X58400000Y-81525000D01*
G75*
G02*
X58650000Y-81275000I250000J0D01*
G01*
X59150000Y-81275000D01*
G75*
G02*
X59400000Y-81525000I0J-250000D01*
G01*
X59400000Y-82475000D01*
G75*
G02*
X59150000Y-82725000I-250000J0D01*
G01*
X58650000Y-82725000D01*
G75*
G02*
X58400000Y-82475000I0J250000D01*
G01*
G37*
G36*
G01*
X56500000Y-82475000D02*
X56500000Y-81525000D01*
G75*
G02*
X56750000Y-81275000I250000J0D01*
G01*
X57250000Y-81275000D01*
G75*
G02*
X57500000Y-81525000I0J-250000D01*
G01*
X57500000Y-82475000D01*
G75*
G02*
X57250000Y-82725000I-250000J0D01*
G01*
X56750000Y-82725000D01*
G75*
G02*
X56500000Y-82475000I0J250000D01*
G01*
G37*
G36*
G01*
X63900000Y-78475000D02*
X63900000Y-77525000D01*
G75*
G02*
X64150000Y-77275000I250000J0D01*
G01*
X64650000Y-77275000D01*
G75*
G02*
X64900000Y-77525000I0J-250000D01*
G01*
X64900000Y-78475000D01*
G75*
G02*
X64650000Y-78725000I-250000J0D01*
G01*
X64150000Y-78725000D01*
G75*
G02*
X63900000Y-78475000I0J250000D01*
G01*
G37*
G36*
G01*
X62000000Y-78475000D02*
X62000000Y-77525000D01*
G75*
G02*
X62250000Y-77275000I250000J0D01*
G01*
X62750000Y-77275000D01*
G75*
G02*
X63000000Y-77525000I0J-250000D01*
G01*
X63000000Y-78475000D01*
G75*
G02*
X62750000Y-78725000I-250000J0D01*
G01*
X62250000Y-78725000D01*
G75*
G02*
X62000000Y-78475000I0J250000D01*
G01*
G37*
G36*
G01*
X58400000Y-84975000D02*
X58400000Y-84025000D01*
G75*
G02*
X58650000Y-83775000I250000J0D01*
G01*
X59150000Y-83775000D01*
G75*
G02*
X59400000Y-84025000I0J-250000D01*
G01*
X59400000Y-84975000D01*
G75*
G02*
X59150000Y-85225000I-250000J0D01*
G01*
X58650000Y-85225000D01*
G75*
G02*
X58400000Y-84975000I0J250000D01*
G01*
G37*
G36*
G01*
X56500000Y-84975000D02*
X56500000Y-84025000D01*
G75*
G02*
X56750000Y-83775000I250000J0D01*
G01*
X57250000Y-83775000D01*
G75*
G02*
X57500000Y-84025000I0J-250000D01*
G01*
X57500000Y-84975000D01*
G75*
G02*
X57250000Y-85225000I-250000J0D01*
G01*
X56750000Y-85225000D01*
G75*
G02*
X56500000Y-84975000I0J250000D01*
G01*
G37*
G36*
G01*
X46475000Y-72900000D02*
X45525000Y-72900000D01*
G75*
G02*
X45275000Y-72650000I0J250000D01*
G01*
X45275000Y-72150000D01*
G75*
G02*
X45525000Y-71900000I250000J0D01*
G01*
X46475000Y-71900000D01*
G75*
G02*
X46725000Y-72150000I0J-250000D01*
G01*
X46725000Y-72650000D01*
G75*
G02*
X46475000Y-72900000I-250000J0D01*
G01*
G37*
G36*
G01*
X46475000Y-71000000D02*
X45525000Y-71000000D01*
G75*
G02*
X45275000Y-70750000I0J250000D01*
G01*
X45275000Y-70250000D01*
G75*
G02*
X45525000Y-70000000I250000J0D01*
G01*
X46475000Y-70000000D01*
G75*
G02*
X46725000Y-70250000I0J-250000D01*
G01*
X46725000Y-70750000D01*
G75*
G02*
X46475000Y-71000000I-250000J0D01*
G01*
G37*
G36*
G01*
X44600000Y-80525000D02*
X44600000Y-81475000D01*
G75*
G02*
X44350000Y-81725000I-250000J0D01*
G01*
X43850000Y-81725000D01*
G75*
G02*
X43600000Y-81475000I0J250000D01*
G01*
X43600000Y-80525000D01*
G75*
G02*
X43850000Y-80275000I250000J0D01*
G01*
X44350000Y-80275000D01*
G75*
G02*
X44600000Y-80525000I0J-250000D01*
G01*
G37*
G36*
G01*
X46500000Y-80525000D02*
X46500000Y-81475000D01*
G75*
G02*
X46250000Y-81725000I-250000J0D01*
G01*
X45750000Y-81725000D01*
G75*
G02*
X45500000Y-81475000I0J250000D01*
G01*
X45500000Y-80525000D01*
G75*
G02*
X45750000Y-80275000I250000J0D01*
G01*
X46250000Y-80275000D01*
G75*
G02*
X46500000Y-80525000I0J-250000D01*
G01*
G37*
G36*
G01*
X46500000Y-74025000D02*
X46500000Y-74975000D01*
G75*
G02*
X46250000Y-75225000I-250000J0D01*
G01*
X45750000Y-75225000D01*
G75*
G02*
X45500000Y-74975000I0J250000D01*
G01*
X45500000Y-74025000D01*
G75*
G02*
X45750000Y-73775000I250000J0D01*
G01*
X46250000Y-73775000D01*
G75*
G02*
X46500000Y-74025000I0J-250000D01*
G01*
G37*
G36*
G01*
X44600000Y-74025000D02*
X44600000Y-74975000D01*
G75*
G02*
X44350000Y-75225000I-250000J0D01*
G01*
X43850000Y-75225000D01*
G75*
G02*
X43600000Y-74975000I0J250000D01*
G01*
X43600000Y-74025000D01*
G75*
G02*
X43850000Y-73775000I250000J0D01*
G01*
X44350000Y-73775000D01*
G75*
G02*
X44600000Y-74025000I0J-250000D01*
G01*
G37*
G36*
G01*
X28125000Y-62349999D02*
X28125000Y-63650001D01*
G75*
G02*
X27875001Y-63900000I-249999J0D01*
G01*
X27224999Y-63900000D01*
G75*
G02*
X26975000Y-63650001I0J249999D01*
G01*
X26975000Y-62349999D01*
G75*
G02*
X27224999Y-62100000I249999J0D01*
G01*
X27875001Y-62100000D01*
G75*
G02*
X28125000Y-62349999I0J-249999D01*
G01*
G37*
G36*
G01*
X31075000Y-62349999D02*
X31075000Y-63650001D01*
G75*
G02*
X30825001Y-63900000I-249999J0D01*
G01*
X30174999Y-63900000D01*
G75*
G02*
X29925000Y-63650001I0J249999D01*
G01*
X29925000Y-62349999D01*
G75*
G02*
X30174999Y-62100000I249999J0D01*
G01*
X30825001Y-62100000D01*
G75*
G02*
X31075000Y-62349999I0J-249999D01*
G01*
G37*
G36*
G01*
X28075000Y-66349999D02*
X28075000Y-67650001D01*
G75*
G02*
X27825001Y-67900000I-249999J0D01*
G01*
X27174999Y-67900000D01*
G75*
G02*
X26925000Y-67650001I0J249999D01*
G01*
X26925000Y-66349999D01*
G75*
G02*
X27174999Y-66100000I249999J0D01*
G01*
X27825001Y-66100000D01*
G75*
G02*
X28075000Y-66349999I0J-249999D01*
G01*
G37*
G36*
G01*
X31025000Y-66349999D02*
X31025000Y-67650001D01*
G75*
G02*
X30775001Y-67900000I-249999J0D01*
G01*
X30124999Y-67900000D01*
G75*
G02*
X29875000Y-67650001I0J249999D01*
G01*
X29875000Y-66349999D01*
G75*
G02*
X30124999Y-66100000I249999J0D01*
G01*
X30775001Y-66100000D01*
G75*
G02*
X31025000Y-66349999I0J-249999D01*
G01*
G37*
G36*
G01*
X35375000Y-63650001D02*
X35375000Y-62349999D01*
G75*
G02*
X35624999Y-62100000I249999J0D01*
G01*
X36275001Y-62100000D01*
G75*
G02*
X36525000Y-62349999I0J-249999D01*
G01*
X36525000Y-63650001D01*
G75*
G02*
X36275001Y-63900000I-249999J0D01*
G01*
X35624999Y-63900000D01*
G75*
G02*
X35375000Y-63650001I0J249999D01*
G01*
G37*
G36*
G01*
X32425000Y-63650001D02*
X32425000Y-62349999D01*
G75*
G02*
X32674999Y-62100000I249999J0D01*
G01*
X33325001Y-62100000D01*
G75*
G02*
X33575000Y-62349999I0J-249999D01*
G01*
X33575000Y-63650001D01*
G75*
G02*
X33325001Y-63900000I-249999J0D01*
G01*
X32674999Y-63900000D01*
G75*
G02*
X32425000Y-63650001I0J249999D01*
G01*
G37*
G36*
G01*
X35375000Y-67650001D02*
X35375000Y-66349999D01*
G75*
G02*
X35624999Y-66100000I249999J0D01*
G01*
X36275001Y-66100000D01*
G75*
G02*
X36525000Y-66349999I0J-249999D01*
G01*
X36525000Y-67650001D01*
G75*
G02*
X36275001Y-67900000I-249999J0D01*
G01*
X35624999Y-67900000D01*
G75*
G02*
X35375000Y-67650001I0J249999D01*
G01*
G37*
G36*
G01*
X32425000Y-67650001D02*
X32425000Y-66349999D01*
G75*
G02*
X32674999Y-66100000I249999J0D01*
G01*
X33325001Y-66100000D01*
G75*
G02*
X33575000Y-66349999I0J-249999D01*
G01*
X33575000Y-67650001D01*
G75*
G02*
X33325001Y-67900000I-249999J0D01*
G01*
X32674999Y-67900000D01*
G75*
G02*
X32425000Y-67650001I0J249999D01*
G01*
G37*
G36*
G01*
X83500000Y-63525000D02*
X83500000Y-64475000D01*
G75*
G02*
X83250000Y-64725000I-250000J0D01*
G01*
X82750000Y-64725000D01*
G75*
G02*
X82500000Y-64475000I0J250000D01*
G01*
X82500000Y-63525000D01*
G75*
G02*
X82750000Y-63275000I250000J0D01*
G01*
X83250000Y-63275000D01*
G75*
G02*
X83500000Y-63525000I0J-250000D01*
G01*
G37*
G36*
G01*
X85400000Y-63525000D02*
X85400000Y-64475000D01*
G75*
G02*
X85150000Y-64725000I-250000J0D01*
G01*
X84650000Y-64725000D01*
G75*
G02*
X84400000Y-64475000I0J250000D01*
G01*
X84400000Y-63525000D01*
G75*
G02*
X84650000Y-63275000I250000J0D01*
G01*
X85150000Y-63275000D01*
G75*
G02*
X85400000Y-63525000I0J-250000D01*
G01*
G37*
D12*
X34500000Y-75500000D03*
D13*
X29500000Y-75500000D03*
D12*
X34500000Y-40000000D03*
D13*
X29500000Y-40000000D03*
D12*
X34500000Y-54000000D03*
D13*
X29500000Y-54000000D03*
M02*
