G04 #@! TF.GenerationSoftware,KiCad,Pcbnew,6.0.9-8da3e8f707~116~ubuntu20.04.1*
G04 #@! TF.CreationDate,2022-11-21T16:04:33-05:00*
G04 #@! TF.ProjectId,buck_boost,6275636b-5f62-46f6-9f73-742e6b696361,rev?*
G04 #@! TF.SameCoordinates,Original*
G04 #@! TF.FileFunction,Copper,L3,Inr*
G04 #@! TF.FilePolarity,Positive*
%FSLAX46Y46*%
G04 Gerber Fmt 4.6, Leading zero omitted, Abs format (unit mm)*
G04 Created by KiCad (PCBNEW 6.0.9-8da3e8f707~116~ubuntu20.04.1) date 2022-11-21 16:04:33*
%MOMM*%
%LPD*%
G01*
G04 APERTURE LIST*
G04 #@! TA.AperFunction,ComponentPad*
%ADD10C,2.600000*%
G04 #@! TD*
G04 #@! TA.AperFunction,ComponentPad*
%ADD11C,1.800000*%
G04 #@! TD*
G04 #@! TA.AperFunction,ComponentPad*
%ADD12R,2.400000X2.400000*%
G04 #@! TD*
G04 #@! TA.AperFunction,ComponentPad*
%ADD13C,2.400000*%
G04 #@! TD*
G04 #@! TA.AperFunction,ComponentPad*
%ADD14C,1.440000*%
G04 #@! TD*
G04 #@! TA.AperFunction,ViaPad*
%ADD15C,1.016000*%
G04 #@! TD*
G04 #@! TA.AperFunction,ViaPad*
%ADD16C,0.889000*%
G04 #@! TD*
G04 #@! TA.AperFunction,ViaPad*
%ADD17C,0.685800*%
G04 #@! TD*
G04 #@! TA.AperFunction,Conductor*
%ADD18C,0.889000*%
G04 #@! TD*
G04 #@! TA.AperFunction,Conductor*
%ADD19C,0.508000*%
G04 #@! TD*
G04 #@! TA.AperFunction,Conductor*
%ADD20C,1.270000*%
G04 #@! TD*
G04 APERTURE END LIST*
D10*
X29500000Y-24000000D03*
X29500000Y-29000000D03*
X100500000Y-29000000D03*
X100500000Y-24000000D03*
X100500000Y-41500000D03*
X100500000Y-36500000D03*
X100500000Y-66500000D03*
X100500000Y-61500000D03*
X100500000Y-54000000D03*
X100500000Y-49000000D03*
D11*
X88000000Y-65320000D03*
X80500000Y-63686670D03*
D12*
X29500000Y-54000000D03*
D13*
X34500000Y-54000000D03*
D12*
X29500000Y-75500000D03*
D13*
X34500000Y-75500000D03*
D12*
X89500000Y-55500000D03*
D13*
X84500000Y-55500000D03*
D12*
X89500000Y-33500000D03*
D13*
X84500000Y-33500000D03*
D12*
X72500000Y-76250000D03*
D13*
X77500000Y-76250000D03*
D12*
X29500000Y-40000000D03*
D13*
X34500000Y-40000000D03*
D14*
X66500000Y-87000000D03*
X66500000Y-84460000D03*
X66500000Y-81920000D03*
D15*
X51500000Y-77500000D03*
X51500000Y-74500000D03*
X52500000Y-78500000D03*
D16*
X44911000Y-82250000D03*
D15*
X51500000Y-75500000D03*
D17*
X65500000Y-78000000D03*
D15*
X50500000Y-75500000D03*
D17*
X60000000Y-77000000D03*
D16*
X56000000Y-87000000D03*
D15*
X52500000Y-77500000D03*
D16*
X50500000Y-77500000D03*
D15*
X51500000Y-76500000D03*
X50500000Y-78500000D03*
D16*
X50500000Y-74500000D03*
D15*
X52500000Y-74500000D03*
X52500000Y-76500000D03*
D17*
X60000000Y-82000000D03*
D15*
X50500000Y-76500000D03*
X52500000Y-75500000D03*
D17*
X60000000Y-84500000D03*
D16*
X50500000Y-73500000D03*
D15*
X51500000Y-78500000D03*
X52500000Y-73500000D03*
D17*
X41500000Y-85000000D03*
D15*
X51500000Y-73500000D03*
D16*
X42500000Y-65500000D03*
X45500000Y-67000000D03*
X42500000Y-67000000D03*
X45500000Y-65500000D03*
X44000000Y-65500000D03*
X44000000Y-67000000D03*
X42500000Y-62500000D03*
X44000000Y-64000000D03*
X41000000Y-67000000D03*
X42500000Y-64000000D03*
X41000000Y-62500000D03*
X41000000Y-64000000D03*
X45500000Y-64000000D03*
X41000000Y-65500000D03*
X44000000Y-62500000D03*
X45500000Y-62500000D03*
X45000000Y-56000000D03*
X48000000Y-59000000D03*
D17*
X51500000Y-62500000D03*
D16*
X46500000Y-57500000D03*
X46500000Y-59000000D03*
X48000000Y-54500000D03*
X45000000Y-59000000D03*
D17*
X47500000Y-74601597D03*
D16*
X49500000Y-56000000D03*
X49500000Y-57500000D03*
D17*
X52151309Y-70651309D03*
D16*
X45000000Y-54500000D03*
X46500000Y-54500000D03*
X49500000Y-54500000D03*
X48000000Y-57500000D03*
X46500000Y-56000000D03*
X45000000Y-57500000D03*
X48000000Y-56000000D03*
D17*
X44500000Y-72500000D03*
X51500000Y-61500000D03*
D16*
X49500000Y-59000000D03*
X60000000Y-66500000D03*
X60000000Y-65000000D03*
X60000000Y-62000000D03*
X61500000Y-63500000D03*
X57000000Y-66500000D03*
X57000000Y-62000000D03*
X58000000Y-71589000D03*
X60000000Y-63500000D03*
X58500000Y-63500000D03*
X57000000Y-65000000D03*
X58500000Y-65000000D03*
X58500000Y-66500000D03*
X58500000Y-62000000D03*
X61500000Y-62000000D03*
X61500000Y-65000000D03*
X57000000Y-63500000D03*
X61500000Y-66500000D03*
D17*
X58350678Y-72884282D03*
X56000000Y-75500000D03*
X43000000Y-73500000D03*
X46000000Y-77000000D03*
X45000000Y-87000000D03*
D16*
X68500000Y-57000000D03*
X73000000Y-55500000D03*
X68500000Y-55500000D03*
X70000000Y-57000000D03*
X71500000Y-55500000D03*
X70000000Y-58500000D03*
X68500000Y-54000000D03*
X70000000Y-54000000D03*
X73000000Y-58500000D03*
X71500000Y-58500000D03*
X73000000Y-57000000D03*
X71500000Y-54000000D03*
X71500000Y-57000000D03*
X70000000Y-55500000D03*
X68500000Y-58500000D03*
X73000000Y-54000000D03*
D17*
X51500000Y-87500000D03*
X51500000Y-82000000D03*
D16*
X54000000Y-87000000D03*
X52864664Y-88635336D03*
D17*
X47500000Y-73614197D03*
X49500000Y-68000000D03*
X49500000Y-69000000D03*
D16*
X68000000Y-67500000D03*
X55641726Y-73666214D03*
X68000000Y-68500000D03*
X70000000Y-88000000D03*
X30000000Y-62500000D03*
X79000000Y-54000000D03*
X65000000Y-61500000D03*
D17*
X44000000Y-75000000D03*
D16*
X75500000Y-67500000D03*
X32500000Y-62500000D03*
X42000000Y-58500000D03*
X79000000Y-59000000D03*
X75500000Y-63500000D03*
X80000000Y-55000000D03*
X79000000Y-58000000D03*
X40000000Y-59500000D03*
X30000000Y-63500000D03*
D17*
X44000000Y-77500000D03*
D16*
X30000000Y-66500000D03*
X80000000Y-59000000D03*
X67000000Y-62500000D03*
X42000000Y-59500000D03*
X41000000Y-58500000D03*
X80000000Y-54000000D03*
X65000000Y-62500000D03*
X79000000Y-55000000D03*
X32500000Y-63500000D03*
X33500000Y-62500000D03*
X76500000Y-67500000D03*
D17*
X44000000Y-78500000D03*
D16*
X40000000Y-58500000D03*
X31000000Y-63500000D03*
D17*
X59000000Y-75000000D03*
X59000000Y-74000000D03*
D16*
X33500000Y-67500000D03*
X76500000Y-66500000D03*
X76500000Y-62500000D03*
X41000000Y-59500000D03*
D17*
X44000000Y-74000000D03*
D16*
X76500000Y-63500000D03*
X32500000Y-66500000D03*
X32500000Y-67500000D03*
X75500000Y-62500000D03*
X33500000Y-63500000D03*
X33500000Y-66500000D03*
X31000000Y-67500000D03*
X31000000Y-66500000D03*
X67000000Y-61500000D03*
X66000000Y-62500000D03*
X30000000Y-67500000D03*
D17*
X82307400Y-68275000D03*
D16*
X31000000Y-62500000D03*
X66000000Y-61500000D03*
X75500000Y-66500000D03*
X80000000Y-58000000D03*
D18*
X51500000Y-63500000D02*
X44500000Y-70500000D01*
X51500000Y-62500000D02*
X51500000Y-61500000D01*
D19*
X51098691Y-70651309D02*
X48750000Y-73000000D01*
D18*
X51500000Y-62500000D02*
X51500000Y-63500000D01*
D19*
X52151309Y-70651309D02*
X51098691Y-70651309D01*
X48750000Y-74000000D02*
X48750000Y-73000000D01*
D18*
X44500000Y-70500000D02*
X44500000Y-72500000D01*
D19*
X48148403Y-74601597D02*
X48750000Y-74000000D01*
X47500000Y-74601597D02*
X48148403Y-74601597D01*
D18*
X58000000Y-71589000D02*
X58000000Y-67000000D01*
X58500000Y-66500000D02*
X58500000Y-65000000D01*
X58000000Y-67000000D02*
X58500000Y-66500000D01*
D20*
X44677901Y-76177901D02*
X43177901Y-76177901D01*
X56000000Y-78750000D02*
X56000000Y-75500000D01*
X42822099Y-75822099D02*
X42822099Y-73434607D01*
X46000000Y-77000000D02*
X45500000Y-77000000D01*
D18*
X45000000Y-87000000D02*
X46000000Y-86000000D01*
D20*
X43177901Y-76177901D02*
X42822099Y-75822099D01*
X56000000Y-75500000D02*
X56000000Y-75234960D01*
X42822099Y-73434607D02*
X42878353Y-73378353D01*
X45500000Y-77000000D02*
X44677901Y-76177901D01*
X46000000Y-77000000D02*
X46000000Y-80250000D01*
X54500000Y-80250000D02*
X56000000Y-78750000D01*
D18*
X46000000Y-86000000D02*
X46000000Y-80250000D01*
D20*
X46000000Y-80250000D02*
X54500000Y-80250000D01*
X56000000Y-75234960D02*
X58350678Y-72884282D01*
D19*
X51500000Y-82000000D02*
X51500000Y-87500000D01*
X52864664Y-88135336D02*
X52864664Y-88635336D01*
X54000000Y-87000000D02*
X52864664Y-88135336D01*
D18*
X49500000Y-69000000D02*
X49500000Y-68000000D01*
X47500000Y-71000000D02*
X49500000Y-69000000D01*
X47500000Y-73614197D02*
X47500000Y-71000000D01*
X70000000Y-88000000D02*
X70000000Y-87960000D01*
X70000000Y-87960000D02*
X66500000Y-84460000D01*
G04 #@! TA.AperFunction,Conductor*
G36*
X46442121Y-61520002D02*
G01*
X46488614Y-61573658D01*
X46500000Y-61626000D01*
X46500000Y-67100065D01*
X46479998Y-67168186D01*
X46463095Y-67189160D01*
X46189160Y-67463095D01*
X46126848Y-67497121D01*
X46100065Y-67500000D01*
X40126000Y-67500000D01*
X40057879Y-67479998D01*
X40011386Y-67426342D01*
X40000000Y-67374000D01*
X40000000Y-61626000D01*
X40020002Y-61557879D01*
X40073658Y-61511386D01*
X40126000Y-61500000D01*
X46374000Y-61500000D01*
X46442121Y-61520002D01*
G37*
G04 #@! TD.AperFunction*
G04 #@! TA.AperFunction,Conductor*
G36*
X62442121Y-61020002D02*
G01*
X62488614Y-61073658D01*
X62500000Y-61126000D01*
X62500000Y-66874000D01*
X62479998Y-66942121D01*
X62426342Y-66988614D01*
X62374000Y-67000000D01*
X56126000Y-67000000D01*
X56057879Y-66979998D01*
X56011386Y-66926342D01*
X56000000Y-66874000D01*
X56000000Y-61126000D01*
X56020002Y-61057879D01*
X56073658Y-61011386D01*
X56126000Y-61000000D01*
X62374000Y-61000000D01*
X62442121Y-61020002D01*
G37*
G04 #@! TD.AperFunction*
G04 #@! TA.AperFunction,Conductor*
G36*
X74442121Y-53020002D02*
G01*
X74488614Y-53073658D01*
X74500000Y-53126000D01*
X74500000Y-58874000D01*
X74479998Y-58942121D01*
X74426342Y-58988614D01*
X74374000Y-59000000D01*
X68126000Y-59000000D01*
X68057879Y-58979998D01*
X68011386Y-58926342D01*
X68000000Y-58874000D01*
X68000000Y-53126000D01*
X68020002Y-53057879D01*
X68073658Y-53011386D01*
X68126000Y-53000000D01*
X74374000Y-53000000D01*
X74442121Y-53020002D01*
G37*
G04 #@! TD.AperFunction*
G04 #@! TA.AperFunction,Conductor*
G36*
X50942121Y-53520002D02*
G01*
X50988614Y-53573658D01*
X51000000Y-53626000D01*
X51000000Y-59374000D01*
X50979998Y-59442121D01*
X50926342Y-59488614D01*
X50874000Y-59500000D01*
X44126000Y-59500000D01*
X44057879Y-59479998D01*
X44011386Y-59426342D01*
X44000000Y-59374000D01*
X44000000Y-53626000D01*
X44020002Y-53557879D01*
X44073658Y-53511386D01*
X44126000Y-53500000D01*
X50874000Y-53500000D01*
X50942121Y-53520002D01*
G37*
G04 #@! TD.AperFunction*
G04 #@! TA.AperFunction,Conductor*
G36*
X52942121Y-73020002D02*
G01*
X52988614Y-73073658D01*
X53000000Y-73126000D01*
X53000000Y-78874000D01*
X52979998Y-78942121D01*
X52926342Y-78988614D01*
X52874000Y-79000000D01*
X50126000Y-79000000D01*
X50057879Y-78979998D01*
X50011386Y-78926342D01*
X50000000Y-78874000D01*
X50000000Y-73126000D01*
X50020002Y-73057879D01*
X50073658Y-73011386D01*
X50126000Y-73000000D01*
X52874000Y-73000000D01*
X52942121Y-73020002D01*
G37*
G04 #@! TD.AperFunction*
G04 #@! TA.AperFunction,Conductor*
G36*
X38442121Y-20528502D02*
G01*
X38488614Y-20582158D01*
X38500000Y-20634500D01*
X38500000Y-25500000D01*
X40500000Y-27500000D01*
X43500000Y-27500000D01*
X45500000Y-25500000D01*
X45500000Y-20634500D01*
X45520002Y-20566379D01*
X45573658Y-20519886D01*
X45626000Y-20508500D01*
X87374000Y-20508500D01*
X87442121Y-20528502D01*
X87488614Y-20582158D01*
X87500000Y-20634500D01*
X87500000Y-25500000D01*
X89500000Y-27500000D01*
X92500000Y-27500000D01*
X94500000Y-25500000D01*
X94500000Y-23952526D01*
X98687050Y-23952526D01*
X98699947Y-24221019D01*
X98752388Y-24484656D01*
X98843220Y-24737646D01*
X98970450Y-24974431D01*
X98973241Y-24978168D01*
X98973245Y-24978175D01*
X99054887Y-25087506D01*
X99131281Y-25189810D01*
X99134590Y-25193090D01*
X99134595Y-25193096D01*
X99318863Y-25375762D01*
X99322180Y-25379050D01*
X99325942Y-25381808D01*
X99325945Y-25381811D01*
X99438299Y-25464192D01*
X99538954Y-25537995D01*
X99543089Y-25540171D01*
X99543093Y-25540173D01*
X99772698Y-25660975D01*
X99776840Y-25663154D01*
X100030613Y-25751775D01*
X100035206Y-25752647D01*
X100290109Y-25801042D01*
X100290112Y-25801042D01*
X100294698Y-25801913D01*
X100422370Y-25806929D01*
X100558625Y-25812283D01*
X100558630Y-25812283D01*
X100563293Y-25812466D01*
X100667607Y-25801042D01*
X100825844Y-25783713D01*
X100825850Y-25783712D01*
X100830497Y-25783203D01*
X100835021Y-25782012D01*
X101085918Y-25715956D01*
X101085920Y-25715955D01*
X101090441Y-25714765D01*
X101094738Y-25712919D01*
X101333120Y-25610502D01*
X101333122Y-25610501D01*
X101337414Y-25608657D01*
X101513002Y-25500000D01*
X101562017Y-25469669D01*
X101562021Y-25469666D01*
X101565990Y-25467210D01*
X101771149Y-25293530D01*
X101948382Y-25091434D01*
X102093797Y-24865361D01*
X102204199Y-24620278D01*
X102241209Y-24489051D01*
X102275893Y-24366072D01*
X102275894Y-24366069D01*
X102277163Y-24361568D01*
X102295043Y-24221019D01*
X102310688Y-24098045D01*
X102310688Y-24098041D01*
X102311086Y-24094915D01*
X102313571Y-24000000D01*
X102293650Y-23731937D01*
X102234327Y-23469763D01*
X102136902Y-23219238D01*
X102003518Y-22985864D01*
X101837105Y-22774769D01*
X101641317Y-22590591D01*
X101420457Y-22437374D01*
X101416264Y-22435306D01*
X101183564Y-22320551D01*
X101183561Y-22320550D01*
X101179376Y-22318486D01*
X101131745Y-22303239D01*
X101077621Y-22285914D01*
X100923370Y-22236538D01*
X100918763Y-22235788D01*
X100918760Y-22235787D01*
X100662674Y-22194081D01*
X100662675Y-22194081D01*
X100658063Y-22193330D01*
X100527719Y-22191624D01*
X100393961Y-22189873D01*
X100393958Y-22189873D01*
X100389284Y-22189812D01*
X100122937Y-22226060D01*
X99864874Y-22301278D01*
X99620763Y-22413815D01*
X99616854Y-22416378D01*
X99399881Y-22558631D01*
X99399876Y-22558635D01*
X99395968Y-22561197D01*
X99195426Y-22740188D01*
X99023544Y-22946854D01*
X98884096Y-23176656D01*
X98780148Y-23424545D01*
X98713981Y-23685077D01*
X98687050Y-23952526D01*
X94500000Y-23952526D01*
X94500000Y-20634500D01*
X94520002Y-20566379D01*
X94573658Y-20519886D01*
X94626000Y-20508500D01*
X104365500Y-20508500D01*
X104433621Y-20528502D01*
X104480114Y-20582158D01*
X104491500Y-20634500D01*
X104491500Y-69737182D01*
X104471498Y-69805303D01*
X104454595Y-69826277D01*
X94692024Y-79588849D01*
X88709064Y-85571809D01*
X88646752Y-85605835D01*
X88575937Y-85600770D01*
X88519101Y-85558223D01*
X88498502Y-85502995D01*
X88497916Y-85502084D01*
X88500000Y-85500000D01*
X85500000Y-82500000D01*
X81500000Y-82500000D01*
X79500000Y-84500000D01*
X79500000Y-89365500D01*
X79479998Y-89433621D01*
X79426342Y-89480114D01*
X79374000Y-89491500D01*
X53659829Y-89491500D01*
X53591708Y-89471498D01*
X53545215Y-89417842D01*
X53535111Y-89347568D01*
X53564448Y-89283169D01*
X53643144Y-89191999D01*
X53647171Y-89187334D01*
X53739485Y-89024831D01*
X53753755Y-88981936D01*
X53775643Y-88916136D01*
X53798478Y-88847493D01*
X53806203Y-88786342D01*
X53821460Y-88665577D01*
X53821461Y-88665568D01*
X53821902Y-88662074D01*
X53822275Y-88635336D01*
X53804037Y-88449335D01*
X53802254Y-88443428D01*
X53785242Y-88387081D01*
X53784701Y-88316087D01*
X53816769Y-88261569D01*
X54101285Y-87977053D01*
X54166324Y-87943196D01*
X54166287Y-87943063D01*
X54346296Y-87892804D01*
X54351785Y-87890031D01*
X54351791Y-87890029D01*
X54463733Y-87833482D01*
X54513114Y-87808538D01*
X54541524Y-87786342D01*
X54598800Y-87741592D01*
X54660387Y-87693475D01*
X54664413Y-87688811D01*
X54664416Y-87688808D01*
X54768591Y-87568120D01*
X54782507Y-87551998D01*
X54874821Y-87389495D01*
X54879942Y-87374100D01*
X54920422Y-87315777D01*
X54986010Y-87288596D01*
X55055880Y-87301190D01*
X55107851Y-87349559D01*
X55111567Y-87356278D01*
X55145229Y-87421777D01*
X55195064Y-87518746D01*
X55198887Y-87523570D01*
X55198890Y-87523574D01*
X55250528Y-87588724D01*
X55311152Y-87665212D01*
X55315846Y-87669207D01*
X55431203Y-87767384D01*
X55453478Y-87786342D01*
X55616621Y-87877519D01*
X55794367Y-87935272D01*
X55979945Y-87957401D01*
X55986080Y-87956929D01*
X55986082Y-87956929D01*
X56042119Y-87952617D01*
X56166287Y-87943063D01*
X56346296Y-87892804D01*
X56351785Y-87890031D01*
X56351791Y-87890029D01*
X56463733Y-87833482D01*
X56513114Y-87808538D01*
X56541524Y-87786342D01*
X56598800Y-87741592D01*
X56660387Y-87693475D01*
X56664413Y-87688811D01*
X56664416Y-87688808D01*
X56768591Y-87568120D01*
X56782507Y-87551998D01*
X56874821Y-87389495D01*
X56878054Y-87379778D01*
X56915801Y-87266305D01*
X56933814Y-87212157D01*
X56949988Y-87084127D01*
X56956796Y-87030241D01*
X56956797Y-87030232D01*
X56957238Y-87026738D01*
X56957611Y-87000000D01*
X65266807Y-87000000D01*
X65285542Y-87214142D01*
X65286966Y-87219455D01*
X65286966Y-87219457D01*
X65322621Y-87352520D01*
X65341178Y-87421777D01*
X65343500Y-87426757D01*
X65343501Y-87426759D01*
X65416189Y-87582637D01*
X65432024Y-87616596D01*
X65555319Y-87792681D01*
X65707319Y-87944681D01*
X65883403Y-88067976D01*
X65888381Y-88070297D01*
X65888384Y-88070299D01*
X66038035Y-88140082D01*
X66078223Y-88158822D01*
X66083531Y-88160244D01*
X66083533Y-88160245D01*
X66280543Y-88213034D01*
X66280545Y-88213034D01*
X66285858Y-88214458D01*
X66500000Y-88233193D01*
X66714142Y-88214458D01*
X66719455Y-88213034D01*
X66719457Y-88213034D01*
X66916467Y-88160245D01*
X66916469Y-88160244D01*
X66921777Y-88158822D01*
X66961965Y-88140082D01*
X67111616Y-88070299D01*
X67111619Y-88070297D01*
X67116597Y-88067976D01*
X67292681Y-87944681D01*
X67444681Y-87792681D01*
X67567976Y-87616596D01*
X67583812Y-87582637D01*
X67656499Y-87426759D01*
X67656500Y-87426757D01*
X67658822Y-87421777D01*
X67677380Y-87352520D01*
X67698535Y-87273567D01*
X67735487Y-87212944D01*
X67799348Y-87181923D01*
X67869842Y-87190351D01*
X67909337Y-87217083D01*
X69164261Y-88472007D01*
X69187233Y-88503509D01*
X69195064Y-88518746D01*
X69198892Y-88523575D01*
X69202229Y-88528754D01*
X69202225Y-88528757D01*
X69209573Y-88539776D01*
X69213409Y-88546695D01*
X69217560Y-88551538D01*
X69217562Y-88551541D01*
X69262420Y-88603877D01*
X69265497Y-88607610D01*
X69302801Y-88654676D01*
X69311152Y-88665212D01*
X69315845Y-88669206D01*
X69315846Y-88669207D01*
X69317786Y-88670858D01*
X69331792Y-88684815D01*
X69339403Y-88693695D01*
X69344445Y-88697606D01*
X69344447Y-88697608D01*
X69396025Y-88737616D01*
X69400461Y-88741221D01*
X69453478Y-88786342D01*
X69458860Y-88789350D01*
X69464401Y-88792447D01*
X69480150Y-88802871D01*
X69487335Y-88808444D01*
X69487340Y-88808447D01*
X69492382Y-88812358D01*
X69553394Y-88842379D01*
X69559191Y-88845423D01*
X69616621Y-88877519D01*
X69622482Y-88879423D01*
X69622486Y-88879425D01*
X69632134Y-88882560D01*
X69648829Y-88889339D01*
X69660365Y-88895016D01*
X69660374Y-88895019D01*
X69666098Y-88897836D01*
X69728297Y-88914038D01*
X69735470Y-88916136D01*
X69788506Y-88933368D01*
X69788509Y-88933369D01*
X69794367Y-88935272D01*
X69800481Y-88936001D01*
X69814328Y-88937652D01*
X69831172Y-88940835D01*
X69847274Y-88945030D01*
X69847279Y-88945031D01*
X69853453Y-88946639D01*
X69882613Y-88948167D01*
X69913922Y-88949808D01*
X69922247Y-88950521D01*
X69956396Y-88954593D01*
X69979945Y-88957401D01*
X69986079Y-88956929D01*
X69986083Y-88956929D01*
X70003780Y-88955567D01*
X70020041Y-88955369D01*
X70040412Y-88956437D01*
X70040417Y-88956437D01*
X70046794Y-88956771D01*
X70102977Y-88948274D01*
X70112152Y-88947228D01*
X70166287Y-88943063D01*
X70192965Y-88935614D01*
X70208001Y-88932390D01*
X70216560Y-88931096D01*
X70231917Y-88928774D01*
X70231919Y-88928773D01*
X70238224Y-88927820D01*
X70244210Y-88925617D01*
X70244212Y-88925617D01*
X70288043Y-88909490D01*
X70297668Y-88906381D01*
X70340365Y-88894460D01*
X70340366Y-88894460D01*
X70346296Y-88892804D01*
X70374417Y-88878599D01*
X70387709Y-88872820D01*
X70393079Y-88870844D01*
X70419922Y-88860968D01*
X70461863Y-88834964D01*
X70471439Y-88829590D01*
X70513114Y-88808538D01*
X70540928Y-88786808D01*
X70552098Y-88779016D01*
X70584467Y-88758946D01*
X70589102Y-88754563D01*
X70589107Y-88754559D01*
X70617600Y-88727613D01*
X70626593Y-88719877D01*
X70644395Y-88705970D01*
X70655534Y-88697267D01*
X70655537Y-88697265D01*
X70660387Y-88693475D01*
X70664409Y-88688816D01*
X70664416Y-88688809D01*
X70685924Y-88663892D01*
X70694730Y-88654676D01*
X70720503Y-88630303D01*
X70725137Y-88625921D01*
X70749139Y-88591642D01*
X70756972Y-88581580D01*
X70778480Y-88556663D01*
X70782507Y-88551998D01*
X70795712Y-88528754D01*
X70803685Y-88514718D01*
X70810029Y-88504682D01*
X70810851Y-88503509D01*
X70836185Y-88467328D01*
X70851316Y-88432365D01*
X70857393Y-88420175D01*
X70871778Y-88394852D01*
X70871778Y-88394851D01*
X70874821Y-88389495D01*
X70887494Y-88351400D01*
X70889549Y-88345221D01*
X70893470Y-88334952D01*
X70910542Y-88295502D01*
X70910544Y-88295497D01*
X70913076Y-88289645D01*
X70920097Y-88256036D01*
X70923877Y-88242028D01*
X70931870Y-88218000D01*
X70933814Y-88212157D01*
X70934585Y-88206053D01*
X70934588Y-88206040D01*
X70940143Y-88162065D01*
X70941812Y-88152091D01*
X70951675Y-88104878D01*
X70951675Y-88104876D01*
X70952667Y-88100129D01*
X70953000Y-88093776D01*
X70953000Y-88068209D01*
X70953994Y-88052417D01*
X70956796Y-88030241D01*
X70956797Y-88030232D01*
X70957238Y-88026738D01*
X70957611Y-88000000D01*
X70957270Y-87996522D01*
X70957269Y-87996499D01*
X70954224Y-87965456D01*
X70953671Y-87949638D01*
X70953704Y-87948477D01*
X70955342Y-87889843D01*
X70945402Y-87833466D01*
X70944135Y-87824336D01*
X70942813Y-87811314D01*
X70938350Y-87767384D01*
X70936441Y-87761293D01*
X70936440Y-87761287D01*
X70930268Y-87741592D01*
X70926416Y-87725793D01*
X70924233Y-87713413D01*
X70921723Y-87699178D01*
X70919376Y-87693251D01*
X70919374Y-87693243D01*
X70900654Y-87645964D01*
X70897570Y-87637256D01*
X70882362Y-87588724D01*
X70882360Y-87588720D01*
X70880454Y-87582637D01*
X70877365Y-87577065D01*
X70877361Y-87577055D01*
X70867350Y-87558996D01*
X70860400Y-87544293D01*
X70852802Y-87525103D01*
X70850452Y-87519167D01*
X70846956Y-87513824D01*
X70846953Y-87513819D01*
X70819106Y-87471265D01*
X70814335Y-87463357D01*
X70789684Y-87418885D01*
X70786591Y-87413305D01*
X70769000Y-87392781D01*
X70759238Y-87379778D01*
X70747095Y-87361223D01*
X70744439Y-87357164D01*
X70740182Y-87352437D01*
X70703290Y-87315545D01*
X70696717Y-87308447D01*
X70690497Y-87301190D01*
X70660597Y-87266305D01*
X70637670Y-87248521D01*
X70625801Y-87238056D01*
X67754639Y-84366894D01*
X67720613Y-84304582D01*
X67718213Y-84288780D01*
X67714458Y-84245858D01*
X67658822Y-84038223D01*
X67642174Y-84002521D01*
X67570299Y-83848385D01*
X67570297Y-83848382D01*
X67567976Y-83843404D01*
X67444681Y-83667319D01*
X67292681Y-83515319D01*
X67116597Y-83392024D01*
X67111619Y-83389703D01*
X67111616Y-83389701D01*
X66928247Y-83304195D01*
X66874962Y-83257278D01*
X66855501Y-83189000D01*
X66876043Y-83121041D01*
X66928247Y-83075805D01*
X67111616Y-82990299D01*
X67111619Y-82990297D01*
X67116597Y-82987976D01*
X67292681Y-82864681D01*
X67444681Y-82712681D01*
X67567976Y-82536596D01*
X67583551Y-82503197D01*
X67656499Y-82346759D01*
X67656500Y-82346757D01*
X67658822Y-82341777D01*
X67688638Y-82230505D01*
X67713034Y-82139457D01*
X67713034Y-82139455D01*
X67714458Y-82134142D01*
X67733193Y-81920000D01*
X67714458Y-81705858D01*
X67713034Y-81700543D01*
X67660245Y-81503533D01*
X67660244Y-81503531D01*
X67658822Y-81498223D01*
X67635731Y-81448705D01*
X67570299Y-81308385D01*
X67570297Y-81308382D01*
X67567976Y-81303404D01*
X67444681Y-81127319D01*
X67292681Y-80975319D01*
X67116597Y-80852024D01*
X67111619Y-80849703D01*
X67111616Y-80849701D01*
X66926759Y-80763501D01*
X66926758Y-80763500D01*
X66921777Y-80761178D01*
X66916469Y-80759756D01*
X66916467Y-80759755D01*
X66719457Y-80706966D01*
X66719455Y-80706966D01*
X66714142Y-80705542D01*
X66500000Y-80686807D01*
X66285858Y-80705542D01*
X66280545Y-80706966D01*
X66280543Y-80706966D01*
X66083533Y-80759755D01*
X66083531Y-80759756D01*
X66078223Y-80761178D01*
X66073243Y-80763500D01*
X66073241Y-80763501D01*
X65888385Y-80849701D01*
X65888382Y-80849703D01*
X65883404Y-80852024D01*
X65707319Y-80975319D01*
X65555319Y-81127319D01*
X65432024Y-81303404D01*
X65429703Y-81308382D01*
X65429701Y-81308385D01*
X65364269Y-81448705D01*
X65341178Y-81498223D01*
X65339756Y-81503531D01*
X65339755Y-81503533D01*
X65286966Y-81700543D01*
X65285542Y-81705858D01*
X65266807Y-81920000D01*
X65285542Y-82134142D01*
X65286966Y-82139455D01*
X65286966Y-82139457D01*
X65311363Y-82230505D01*
X65341178Y-82341777D01*
X65343500Y-82346757D01*
X65343501Y-82346759D01*
X65416450Y-82503197D01*
X65432024Y-82536596D01*
X65555319Y-82712681D01*
X65707319Y-82864681D01*
X65883403Y-82987976D01*
X65888381Y-82990297D01*
X65888384Y-82990299D01*
X66071753Y-83075805D01*
X66125038Y-83122722D01*
X66144499Y-83191000D01*
X66123957Y-83258959D01*
X66071753Y-83304195D01*
X65888385Y-83389701D01*
X65888382Y-83389703D01*
X65883404Y-83392024D01*
X65707319Y-83515319D01*
X65555319Y-83667319D01*
X65432024Y-83843404D01*
X65429703Y-83848382D01*
X65429701Y-83848385D01*
X65357826Y-84002521D01*
X65341178Y-84038223D01*
X65339756Y-84043531D01*
X65339755Y-84043533D01*
X65301632Y-84185810D01*
X65285542Y-84245858D01*
X65266807Y-84460000D01*
X65285542Y-84674142D01*
X65286966Y-84679455D01*
X65286966Y-84679457D01*
X65323481Y-84815730D01*
X65341178Y-84881777D01*
X65343500Y-84886757D01*
X65343501Y-84886759D01*
X65396307Y-85000000D01*
X65432024Y-85076596D01*
X65555319Y-85252681D01*
X65707319Y-85404681D01*
X65883403Y-85527976D01*
X65888381Y-85530297D01*
X65888384Y-85530299D01*
X66071753Y-85615805D01*
X66125038Y-85662722D01*
X66144499Y-85731000D01*
X66123957Y-85798959D01*
X66071753Y-85844195D01*
X65888385Y-85929701D01*
X65888382Y-85929703D01*
X65883404Y-85932024D01*
X65707319Y-86055319D01*
X65555319Y-86207319D01*
X65432024Y-86383404D01*
X65429703Y-86388382D01*
X65429701Y-86388385D01*
X65382567Y-86489464D01*
X65341178Y-86578223D01*
X65339756Y-86583531D01*
X65339755Y-86583533D01*
X65305854Y-86710052D01*
X65285542Y-86785858D01*
X65266807Y-87000000D01*
X56957611Y-87000000D01*
X56939373Y-86813999D01*
X56935419Y-86800901D01*
X56916760Y-86739103D01*
X56885355Y-86635083D01*
X56806183Y-86486180D01*
X56800508Y-86475507D01*
X56797615Y-86470066D01*
X56752540Y-86414799D01*
X56683388Y-86330010D01*
X56683385Y-86330007D01*
X56679493Y-86325235D01*
X56674744Y-86321306D01*
X56540239Y-86210034D01*
X56540236Y-86210032D01*
X56535489Y-86206105D01*
X56371089Y-86117214D01*
X56281822Y-86089581D01*
X56198441Y-86063770D01*
X56198438Y-86063769D01*
X56192554Y-86061948D01*
X56186429Y-86061304D01*
X56186428Y-86061304D01*
X56012813Y-86043056D01*
X56012812Y-86043056D01*
X56006685Y-86042412D01*
X55899576Y-86052160D01*
X55826703Y-86058792D01*
X55826702Y-86058792D01*
X55820562Y-86059351D01*
X55814648Y-86061092D01*
X55814646Y-86061092D01*
X55709254Y-86092111D01*
X55641273Y-86112119D01*
X55635808Y-86114976D01*
X55519534Y-86175762D01*
X55475647Y-86198705D01*
X55329995Y-86315813D01*
X55209862Y-86458981D01*
X55206899Y-86464370D01*
X55206896Y-86464375D01*
X55143858Y-86579042D01*
X55119826Y-86622757D01*
X55117963Y-86628629D01*
X55115781Y-86633721D01*
X55070562Y-86688455D01*
X55002930Y-86710052D01*
X54934358Y-86691656D01*
X54886617Y-86639108D01*
X54886474Y-86638788D01*
X54885355Y-86635083D01*
X54803557Y-86481241D01*
X54800508Y-86475507D01*
X54797615Y-86470066D01*
X54752540Y-86414799D01*
X54683388Y-86330010D01*
X54683385Y-86330007D01*
X54679493Y-86325235D01*
X54674744Y-86321306D01*
X54540239Y-86210034D01*
X54540236Y-86210032D01*
X54535489Y-86206105D01*
X54371089Y-86117214D01*
X54281822Y-86089581D01*
X54198441Y-86063770D01*
X54198438Y-86063769D01*
X54192554Y-86061948D01*
X54186429Y-86061304D01*
X54186428Y-86061304D01*
X54012813Y-86043056D01*
X54012812Y-86043056D01*
X54006685Y-86042412D01*
X53899576Y-86052160D01*
X53826703Y-86058792D01*
X53826702Y-86058792D01*
X53820562Y-86059351D01*
X53814648Y-86061092D01*
X53814646Y-86061092D01*
X53709254Y-86092111D01*
X53641273Y-86112119D01*
X53635808Y-86114976D01*
X53519534Y-86175762D01*
X53475647Y-86198705D01*
X53329995Y-86315813D01*
X53209862Y-86458981D01*
X53206899Y-86464370D01*
X53206896Y-86464375D01*
X53147907Y-86571678D01*
X53119826Y-86622757D01*
X53117965Y-86628624D01*
X53117964Y-86628626D01*
X53066349Y-86791338D01*
X53063315Y-86800901D01*
X53062628Y-86807023D01*
X53062627Y-86807029D01*
X53060974Y-86821760D01*
X53033502Y-86887226D01*
X53024855Y-86896807D01*
X52546868Y-87374794D01*
X52484556Y-87408820D01*
X52413741Y-87403755D01*
X52356905Y-87361208D01*
X52338895Y-87321518D01*
X52337382Y-87322009D01*
X52330618Y-87301190D01*
X52282077Y-87151797D01*
X52278773Y-87146074D01*
X52276089Y-87140046D01*
X52277334Y-87139492D01*
X52262500Y-87084127D01*
X52262500Y-84500000D01*
X59143910Y-84500000D01*
X59162618Y-84677991D01*
X59217923Y-84848203D01*
X59307409Y-85003197D01*
X59311827Y-85008104D01*
X59311828Y-85008105D01*
X59373497Y-85076596D01*
X59427164Y-85136199D01*
X59432506Y-85140080D01*
X59432508Y-85140082D01*
X59493328Y-85184270D01*
X59571955Y-85241396D01*
X59577983Y-85244080D01*
X59577985Y-85244081D01*
X59729423Y-85311505D01*
X59735454Y-85314190D01*
X59822984Y-85332795D01*
X59904057Y-85350028D01*
X59904061Y-85350028D01*
X59910514Y-85351400D01*
X60089486Y-85351400D01*
X60095939Y-85350028D01*
X60095943Y-85350028D01*
X60177016Y-85332795D01*
X60264546Y-85314190D01*
X60270577Y-85311505D01*
X60422015Y-85244081D01*
X60422017Y-85244080D01*
X60428045Y-85241396D01*
X60506672Y-85184270D01*
X60567492Y-85140082D01*
X60567494Y-85140080D01*
X60572836Y-85136199D01*
X60626503Y-85076596D01*
X60688172Y-85008105D01*
X60688173Y-85008104D01*
X60692591Y-85003197D01*
X60782077Y-84848203D01*
X60837382Y-84677991D01*
X60856090Y-84500000D01*
X60841775Y-84363801D01*
X60838072Y-84328573D01*
X60838072Y-84328572D01*
X60837382Y-84322009D01*
X60782077Y-84151797D01*
X60692591Y-83996803D01*
X60572836Y-83863801D01*
X60538562Y-83838899D01*
X60433387Y-83762485D01*
X60433386Y-83762484D01*
X60428045Y-83758604D01*
X60422017Y-83755920D01*
X60422015Y-83755919D01*
X60270577Y-83688495D01*
X60270576Y-83688495D01*
X60264546Y-83685810D01*
X60159228Y-83663424D01*
X60095943Y-83649972D01*
X60095939Y-83649972D01*
X60089486Y-83648600D01*
X59910514Y-83648600D01*
X59904061Y-83649972D01*
X59904057Y-83649972D01*
X59840772Y-83663424D01*
X59735454Y-83685810D01*
X59729424Y-83688495D01*
X59729423Y-83688495D01*
X59577985Y-83755919D01*
X59577983Y-83755920D01*
X59571955Y-83758604D01*
X59566614Y-83762484D01*
X59566613Y-83762485D01*
X59461439Y-83838899D01*
X59427164Y-83863801D01*
X59307409Y-83996803D01*
X59217923Y-84151797D01*
X59162618Y-84322009D01*
X59161928Y-84328572D01*
X59161928Y-84328573D01*
X59158225Y-84363801D01*
X59143910Y-84500000D01*
X52262500Y-84500000D01*
X52262500Y-82415873D01*
X52277334Y-82360508D01*
X52276089Y-82359954D01*
X52278773Y-82353926D01*
X52282077Y-82348203D01*
X52337382Y-82177991D01*
X52356090Y-82000000D01*
X59143910Y-82000000D01*
X59162618Y-82177991D01*
X59217923Y-82348203D01*
X59307409Y-82503197D01*
X59311827Y-82508104D01*
X59311828Y-82508105D01*
X59337481Y-82536596D01*
X59427164Y-82636199D01*
X59571955Y-82741396D01*
X59577983Y-82744080D01*
X59577985Y-82744081D01*
X59633384Y-82768746D01*
X59735454Y-82814190D01*
X59822984Y-82832795D01*
X59904057Y-82850028D01*
X59904061Y-82850028D01*
X59910514Y-82851400D01*
X60089486Y-82851400D01*
X60095939Y-82850028D01*
X60095943Y-82850028D01*
X60177016Y-82832795D01*
X60264546Y-82814190D01*
X60366616Y-82768746D01*
X60422015Y-82744081D01*
X60422017Y-82744080D01*
X60428045Y-82741396D01*
X60572836Y-82636199D01*
X60662519Y-82536596D01*
X60688172Y-82508105D01*
X60688173Y-82508104D01*
X60692591Y-82503197D01*
X60782077Y-82348203D01*
X60837382Y-82177991D01*
X60856090Y-82000000D01*
X60848257Y-81925475D01*
X60838072Y-81828573D01*
X60838072Y-81828572D01*
X60837382Y-81822009D01*
X60782077Y-81651797D01*
X60692591Y-81496803D01*
X60593960Y-81387261D01*
X60577258Y-81368712D01*
X60577257Y-81368711D01*
X60572836Y-81363801D01*
X60549148Y-81346590D01*
X60433387Y-81262485D01*
X60433386Y-81262484D01*
X60428045Y-81258604D01*
X60422017Y-81255920D01*
X60422015Y-81255919D01*
X60270577Y-81188495D01*
X60270576Y-81188495D01*
X60264546Y-81185810D01*
X60176207Y-81167033D01*
X60095943Y-81149972D01*
X60095939Y-81149972D01*
X60089486Y-81148600D01*
X59910514Y-81148600D01*
X59904061Y-81149972D01*
X59904057Y-81149972D01*
X59823793Y-81167033D01*
X59735454Y-81185810D01*
X59729424Y-81188495D01*
X59729423Y-81188495D01*
X59577985Y-81255919D01*
X59577983Y-81255920D01*
X59571955Y-81258604D01*
X59566614Y-81262484D01*
X59566613Y-81262485D01*
X59450853Y-81346590D01*
X59427164Y-81363801D01*
X59422743Y-81368711D01*
X59422742Y-81368712D01*
X59406041Y-81387261D01*
X59307409Y-81496803D01*
X59217923Y-81651797D01*
X59162618Y-81822009D01*
X59161928Y-81828572D01*
X59161928Y-81828573D01*
X59151743Y-81925475D01*
X59143910Y-82000000D01*
X52356090Y-82000000D01*
X52348257Y-81925475D01*
X52338072Y-81828573D01*
X52338072Y-81828572D01*
X52337382Y-81822009D01*
X52282077Y-81651797D01*
X52242068Y-81582499D01*
X52225330Y-81513505D01*
X52248550Y-81446413D01*
X52304357Y-81402526D01*
X52351187Y-81393500D01*
X54457195Y-81393500D01*
X54465436Y-81393770D01*
X54530061Y-81398006D01*
X54617973Y-81387601D01*
X54621186Y-81387264D01*
X54709279Y-81379169D01*
X54714839Y-81377601D01*
X54718412Y-81376939D01*
X54729415Y-81374750D01*
X54733028Y-81373982D01*
X54738765Y-81373303D01*
X54823276Y-81347062D01*
X54826373Y-81346146D01*
X54911549Y-81322123D01*
X54916737Y-81319565D01*
X54920188Y-81318240D01*
X54930566Y-81314099D01*
X54933953Y-81312696D01*
X54939473Y-81310982D01*
X55017746Y-81269801D01*
X55020682Y-81268305D01*
X55100037Y-81229171D01*
X55104668Y-81225713D01*
X55107871Y-81223750D01*
X55117258Y-81217827D01*
X55120351Y-81215818D01*
X55125463Y-81213129D01*
X55194956Y-81158344D01*
X55197526Y-81156373D01*
X55263801Y-81106884D01*
X55263808Y-81106877D01*
X55268429Y-81103427D01*
X55324263Y-81043026D01*
X55327692Y-81039461D01*
X56778304Y-79588849D01*
X56784322Y-79583212D01*
X56828680Y-79544311D01*
X56833019Y-79540506D01*
X56887793Y-79471027D01*
X56889853Y-79468483D01*
X56942728Y-79404908D01*
X56942735Y-79404898D01*
X56946425Y-79400461D01*
X56949250Y-79395417D01*
X56951351Y-79392359D01*
X56957552Y-79383079D01*
X56959555Y-79379995D01*
X56963128Y-79375463D01*
X56965812Y-79370362D01*
X56965815Y-79370357D01*
X57004319Y-79297171D01*
X57005894Y-79294271D01*
X57046290Y-79222140D01*
X57046291Y-79222138D01*
X57049114Y-79217097D01*
X57050972Y-79211622D01*
X57052481Y-79208233D01*
X57056889Y-79197972D01*
X57058292Y-79194586D01*
X57060982Y-79189473D01*
X57087224Y-79104960D01*
X57088244Y-79101822D01*
X57114812Y-79023556D01*
X57114812Y-79023555D01*
X57116668Y-79018088D01*
X57117497Y-79012373D01*
X57118366Y-79008752D01*
X57120836Y-78997837D01*
X57121592Y-78994279D01*
X57123304Y-78988766D01*
X57133708Y-78900866D01*
X57134131Y-78897654D01*
X57146825Y-78810103D01*
X57143597Y-78727946D01*
X57143500Y-78722999D01*
X57143500Y-78000000D01*
X64643910Y-78000000D01*
X64662618Y-78177991D01*
X64717923Y-78348203D01*
X64807409Y-78503197D01*
X64927164Y-78636199D01*
X64932506Y-78640080D01*
X64932508Y-78640082D01*
X65066613Y-78737515D01*
X65071955Y-78741396D01*
X65077983Y-78744080D01*
X65077985Y-78744081D01*
X65213319Y-78804335D01*
X65235454Y-78814190D01*
X65322984Y-78832795D01*
X65404057Y-78850028D01*
X65404061Y-78850028D01*
X65410514Y-78851400D01*
X65589486Y-78851400D01*
X65595939Y-78850028D01*
X65595943Y-78850028D01*
X65677016Y-78832795D01*
X65764546Y-78814190D01*
X65786681Y-78804335D01*
X65922015Y-78744081D01*
X65922017Y-78744080D01*
X65928045Y-78741396D01*
X65933387Y-78737515D01*
X66067492Y-78640082D01*
X66067494Y-78640080D01*
X66072836Y-78636199D01*
X66192591Y-78503197D01*
X66282077Y-78348203D01*
X66337382Y-78177991D01*
X66356090Y-78000000D01*
X66344515Y-77889875D01*
X66338072Y-77828573D01*
X66338072Y-77828572D01*
X66337382Y-77822009D01*
X66334842Y-77814190D01*
X66296668Y-77696705D01*
X66282077Y-77651797D01*
X66273072Y-77636199D01*
X66199116Y-77508105D01*
X66193359Y-77498134D01*
X70791500Y-77498134D01*
X70798255Y-77560316D01*
X70849385Y-77696705D01*
X70936739Y-77813261D01*
X71053295Y-77900615D01*
X71189684Y-77951745D01*
X71251866Y-77958500D01*
X73748134Y-77958500D01*
X73810316Y-77951745D01*
X73946705Y-77900615D01*
X74063261Y-77813261D01*
X74150615Y-77696705D01*
X74201745Y-77560316D01*
X74208500Y-77498134D01*
X74208500Y-75001866D01*
X74201745Y-74939684D01*
X74150615Y-74803295D01*
X74063261Y-74686739D01*
X73946705Y-74599385D01*
X73810316Y-74548255D01*
X73748134Y-74541500D01*
X71251866Y-74541500D01*
X71189684Y-74548255D01*
X71053295Y-74599385D01*
X70936739Y-74686739D01*
X70849385Y-74803295D01*
X70798255Y-74939684D01*
X70791500Y-75001866D01*
X70791500Y-77498134D01*
X66193359Y-77498134D01*
X66192591Y-77496803D01*
X66072836Y-77363801D01*
X66059245Y-77353926D01*
X65933387Y-77262485D01*
X65933386Y-77262484D01*
X65928045Y-77258604D01*
X65922017Y-77255920D01*
X65922015Y-77255919D01*
X65770577Y-77188495D01*
X65770576Y-77188495D01*
X65764546Y-77185810D01*
X65677016Y-77167205D01*
X65595943Y-77149972D01*
X65595939Y-77149972D01*
X65589486Y-77148600D01*
X65410514Y-77148600D01*
X65404061Y-77149972D01*
X65404057Y-77149972D01*
X65322984Y-77167205D01*
X65235454Y-77185810D01*
X65229424Y-77188495D01*
X65229423Y-77188495D01*
X65077985Y-77255919D01*
X65077983Y-77255920D01*
X65071955Y-77258604D01*
X65066614Y-77262484D01*
X65066613Y-77262485D01*
X64940756Y-77353926D01*
X64927164Y-77363801D01*
X64807409Y-77496803D01*
X64800884Y-77508105D01*
X64726929Y-77636199D01*
X64717923Y-77651797D01*
X64703332Y-77696705D01*
X64665159Y-77814190D01*
X64662618Y-77822009D01*
X64661928Y-77828572D01*
X64661928Y-77828573D01*
X64655485Y-77889875D01*
X64643910Y-78000000D01*
X57143500Y-78000000D01*
X57143500Y-77000000D01*
X59143910Y-77000000D01*
X59144600Y-77006565D01*
X59159175Y-77145229D01*
X59162618Y-77177991D01*
X59164658Y-77184269D01*
X59164658Y-77184270D01*
X59187938Y-77255919D01*
X59217923Y-77348203D01*
X59221226Y-77353925D01*
X59221227Y-77353926D01*
X59229764Y-77368712D01*
X59307409Y-77503197D01*
X59427164Y-77636199D01*
X59432506Y-77640080D01*
X59432508Y-77640082D01*
X59510443Y-77696705D01*
X59571955Y-77741396D01*
X59577983Y-77744080D01*
X59577985Y-77744081D01*
X59729423Y-77811505D01*
X59735454Y-77814190D01*
X59822984Y-77832795D01*
X59904057Y-77850028D01*
X59904061Y-77850028D01*
X59910514Y-77851400D01*
X60089486Y-77851400D01*
X60095939Y-77850028D01*
X60095943Y-77850028D01*
X60177016Y-77832795D01*
X60264546Y-77814190D01*
X60270577Y-77811505D01*
X60422015Y-77744081D01*
X60422017Y-77744080D01*
X60428045Y-77741396D01*
X60489557Y-77696705D01*
X60567492Y-77640082D01*
X60567494Y-77640080D01*
X60572836Y-77636199D01*
X60692591Y-77503197D01*
X60770236Y-77368712D01*
X60778773Y-77353926D01*
X60778774Y-77353925D01*
X60782077Y-77348203D01*
X60812062Y-77255919D01*
X60835342Y-77184270D01*
X60835342Y-77184269D01*
X60837382Y-77177991D01*
X60840826Y-77145229D01*
X60855400Y-77006565D01*
X60856090Y-77000000D01*
X60837382Y-76822009D01*
X60782077Y-76651797D01*
X60692591Y-76496803D01*
X60648255Y-76447562D01*
X60577258Y-76368712D01*
X60577257Y-76368711D01*
X60572836Y-76363801D01*
X60565005Y-76358111D01*
X60433387Y-76262485D01*
X60433386Y-76262484D01*
X60428045Y-76258604D01*
X60422017Y-76255920D01*
X60422015Y-76255919D01*
X60270577Y-76188495D01*
X60270576Y-76188495D01*
X60264546Y-76185810D01*
X60175962Y-76166981D01*
X60095943Y-76149972D01*
X60095939Y-76149972D01*
X60089486Y-76148600D01*
X59910514Y-76148600D01*
X59904061Y-76149972D01*
X59904057Y-76149972D01*
X59824038Y-76166981D01*
X59735454Y-76185810D01*
X59729424Y-76188495D01*
X59729423Y-76188495D01*
X59577985Y-76255919D01*
X59577983Y-76255920D01*
X59571955Y-76258604D01*
X59566614Y-76262484D01*
X59566613Y-76262485D01*
X59434996Y-76358111D01*
X59427164Y-76363801D01*
X59422743Y-76368711D01*
X59422742Y-76368712D01*
X59351746Y-76447562D01*
X59307409Y-76496803D01*
X59217923Y-76651797D01*
X59162618Y-76822009D01*
X59143910Y-77000000D01*
X57143500Y-77000000D01*
X57143500Y-75760803D01*
X57163502Y-75692682D01*
X57180405Y-75671708D01*
X59196955Y-73655158D01*
X59297104Y-73534742D01*
X59393189Y-73363170D01*
X59396969Y-73356421D01*
X59396970Y-73356419D01*
X59399793Y-73351378D01*
X59401649Y-73345911D01*
X59401651Y-73345906D01*
X59465491Y-73157839D01*
X59465492Y-73157834D01*
X59467347Y-73152370D01*
X59470506Y-73130589D01*
X59482426Y-73048377D01*
X59497504Y-72944384D01*
X59491654Y-72795505D01*
X59489479Y-72740159D01*
X59489479Y-72740157D01*
X59489252Y-72734386D01*
X59487978Y-72728755D01*
X59487977Y-72728749D01*
X59444144Y-72535037D01*
X59444144Y-72535036D01*
X59442870Y-72529407D01*
X59359911Y-72336313D01*
X59299242Y-72245516D01*
X59246362Y-72166375D01*
X59243152Y-72161571D01*
X59123642Y-72038890D01*
X59100539Y-72015174D01*
X59096504Y-72011032D01*
X59091784Y-72007696D01*
X58983524Y-71931186D01*
X58939438Y-71875536D01*
X58933513Y-71802063D01*
X58933814Y-71801157D01*
X58934587Y-71795041D01*
X58934588Y-71795035D01*
X58940143Y-71751065D01*
X58941812Y-71741091D01*
X58951675Y-71693878D01*
X58951675Y-71693876D01*
X58952667Y-71689129D01*
X58953000Y-71682776D01*
X58953000Y-71657209D01*
X58953994Y-71641417D01*
X58956796Y-71619241D01*
X58956797Y-71619232D01*
X58957238Y-71615738D01*
X58957611Y-71589000D01*
X58953601Y-71548104D01*
X58953000Y-71535808D01*
X58953000Y-68486630D01*
X67042482Y-68486630D01*
X67058121Y-68672867D01*
X67109636Y-68852520D01*
X67195064Y-69018746D01*
X67198887Y-69023570D01*
X67198890Y-69023574D01*
X67263323Y-69104867D01*
X67311152Y-69165212D01*
X67315846Y-69169207D01*
X67348819Y-69197269D01*
X67453478Y-69286342D01*
X67616621Y-69377519D01*
X67794367Y-69435272D01*
X67979945Y-69457401D01*
X67986080Y-69456929D01*
X67986082Y-69456929D01*
X68042119Y-69452617D01*
X68166287Y-69443063D01*
X68346296Y-69392804D01*
X68351785Y-69390031D01*
X68351791Y-69390029D01*
X68431799Y-69349613D01*
X68513114Y-69308538D01*
X68541524Y-69286342D01*
X68565486Y-69267621D01*
X68660387Y-69193475D01*
X68664413Y-69188811D01*
X68664416Y-69188808D01*
X68778480Y-69056663D01*
X68782507Y-69051998D01*
X68846157Y-68939953D01*
X68871778Y-68894852D01*
X68871779Y-68894851D01*
X68874821Y-68889495D01*
X68889091Y-68846600D01*
X68931867Y-68718009D01*
X68933814Y-68712157D01*
X68942657Y-68642160D01*
X68956796Y-68530241D01*
X68956797Y-68530232D01*
X68957238Y-68526738D01*
X68957611Y-68500000D01*
X68939373Y-68313999D01*
X68935419Y-68300901D01*
X68887136Y-68140983D01*
X68885355Y-68135083D01*
X68845332Y-68059810D01*
X68831013Y-67990273D01*
X68847028Y-67938420D01*
X68871776Y-67894855D01*
X68874821Y-67889495D01*
X68889091Y-67846600D01*
X68931867Y-67718009D01*
X68933814Y-67712157D01*
X68949386Y-67588892D01*
X68956796Y-67530241D01*
X68956797Y-67530232D01*
X68957238Y-67526738D01*
X68957611Y-67500000D01*
X68939373Y-67313999D01*
X68935868Y-67302388D01*
X68908625Y-67212157D01*
X68885355Y-67135083D01*
X68797615Y-66970066D01*
X68784727Y-66954264D01*
X68683388Y-66830010D01*
X68683385Y-66830007D01*
X68679493Y-66825235D01*
X68674744Y-66821306D01*
X68540239Y-66710034D01*
X68540236Y-66710032D01*
X68535489Y-66706105D01*
X68371089Y-66617214D01*
X68281822Y-66589581D01*
X68198441Y-66563770D01*
X68198438Y-66563769D01*
X68192554Y-66561948D01*
X68186429Y-66561304D01*
X68186428Y-66561304D01*
X68012813Y-66543056D01*
X68012812Y-66543056D01*
X68006685Y-66542412D01*
X67888087Y-66553206D01*
X67826703Y-66558792D01*
X67826702Y-66558792D01*
X67820562Y-66559351D01*
X67814648Y-66561092D01*
X67814646Y-66561092D01*
X67709709Y-66591977D01*
X67641273Y-66612119D01*
X67635808Y-66614976D01*
X67516766Y-66677209D01*
X67475647Y-66698705D01*
X67329995Y-66815813D01*
X67209862Y-66958981D01*
X67206899Y-66964370D01*
X67206896Y-66964375D01*
X67157091Y-67054971D01*
X67119826Y-67122757D01*
X67117965Y-67128624D01*
X67117964Y-67128626D01*
X67106358Y-67165212D01*
X67063315Y-67300901D01*
X67042482Y-67486630D01*
X67042998Y-67492774D01*
X67053434Y-67617048D01*
X67058121Y-67672867D01*
X67109636Y-67852520D01*
X67130339Y-67892804D01*
X67155716Y-67942183D01*
X67169063Y-68011914D01*
X67154064Y-68060477D01*
X67129624Y-68104935D01*
X67119826Y-68122757D01*
X67063315Y-68300901D01*
X67042482Y-68486630D01*
X58953000Y-68486630D01*
X58953000Y-68126000D01*
X58973002Y-68057879D01*
X59026658Y-68011386D01*
X59079000Y-68000000D01*
X63500000Y-68000000D01*
X63500000Y-65285469D01*
X86587095Y-65285469D01*
X86587392Y-65290622D01*
X86587392Y-65290625D01*
X86593067Y-65389041D01*
X86600427Y-65516697D01*
X86601564Y-65521743D01*
X86601565Y-65521749D01*
X86633741Y-65664523D01*
X86651346Y-65742642D01*
X86653288Y-65747424D01*
X86653289Y-65747428D01*
X86736540Y-65952450D01*
X86738484Y-65957237D01*
X86859501Y-66154719D01*
X87011147Y-66329784D01*
X87189349Y-66477730D01*
X87389322Y-66594584D01*
X87605694Y-66677209D01*
X87610760Y-66678240D01*
X87610761Y-66678240D01*
X87663846Y-66689040D01*
X87832656Y-66723385D01*
X87963324Y-66728176D01*
X88058949Y-66731683D01*
X88058953Y-66731683D01*
X88064113Y-66731872D01*
X88069233Y-66731216D01*
X88069235Y-66731216D01*
X88142270Y-66721860D01*
X88293847Y-66702442D01*
X88298795Y-66700957D01*
X88298802Y-66700956D01*
X88510747Y-66637369D01*
X88515690Y-66635886D01*
X88542490Y-66622757D01*
X88719049Y-66536262D01*
X88719052Y-66536260D01*
X88723684Y-66533991D01*
X88912243Y-66399494D01*
X89076303Y-66236005D01*
X89211458Y-66047917D01*
X89258641Y-65952450D01*
X89311784Y-65844922D01*
X89311785Y-65844920D01*
X89314078Y-65840280D01*
X89381408Y-65618671D01*
X89411640Y-65389041D01*
X89411722Y-65385691D01*
X89413245Y-65323365D01*
X89413245Y-65323361D01*
X89413327Y-65320000D01*
X89404461Y-65212157D01*
X89394773Y-65094318D01*
X89394772Y-65094312D01*
X89394349Y-65089167D01*
X89337925Y-64864533D01*
X89335866Y-64859797D01*
X89247630Y-64656868D01*
X89247628Y-64656865D01*
X89245570Y-64652131D01*
X89119764Y-64457665D01*
X88963887Y-64286358D01*
X88959836Y-64283159D01*
X88959832Y-64283155D01*
X88786177Y-64146011D01*
X88786172Y-64146008D01*
X88782123Y-64142810D01*
X88777607Y-64140317D01*
X88777604Y-64140315D01*
X88583879Y-64033373D01*
X88583875Y-64033371D01*
X88579355Y-64030876D01*
X88574486Y-64029152D01*
X88574482Y-64029150D01*
X88365903Y-63955288D01*
X88365899Y-63955287D01*
X88361028Y-63953562D01*
X88355935Y-63952655D01*
X88355932Y-63952654D01*
X88138095Y-63913851D01*
X88138089Y-63913850D01*
X88133006Y-63912945D01*
X88060096Y-63912054D01*
X87906581Y-63910179D01*
X87906579Y-63910179D01*
X87901411Y-63910116D01*
X87672464Y-63945150D01*
X87452314Y-64017106D01*
X87447726Y-64019494D01*
X87447722Y-64019496D01*
X87314414Y-64088892D01*
X87246872Y-64124052D01*
X87242739Y-64127155D01*
X87242736Y-64127157D01*
X87154409Y-64193475D01*
X87061655Y-64263117D01*
X86901639Y-64430564D01*
X86898725Y-64434836D01*
X86898724Y-64434837D01*
X86841485Y-64518746D01*
X86771119Y-64621899D01*
X86673602Y-64831981D01*
X86611707Y-65055169D01*
X86587095Y-65285469D01*
X63500000Y-65285469D01*
X63500000Y-61452526D01*
X98687050Y-61452526D01*
X98687274Y-61457192D01*
X98687274Y-61457197D01*
X98689179Y-61496851D01*
X98699947Y-61721019D01*
X98752388Y-61984656D01*
X98843220Y-62237646D01*
X98970450Y-62474431D01*
X98973241Y-62478168D01*
X98973245Y-62478175D01*
X99009509Y-62526738D01*
X99131281Y-62689810D01*
X99134590Y-62693090D01*
X99134595Y-62693096D01*
X99267893Y-62825235D01*
X99322180Y-62879050D01*
X99325942Y-62881808D01*
X99325945Y-62881811D01*
X99336425Y-62889495D01*
X99538954Y-63037995D01*
X99543089Y-63040171D01*
X99543093Y-63040173D01*
X99723486Y-63135083D01*
X99776840Y-63163154D01*
X100030613Y-63251775D01*
X100035206Y-63252647D01*
X100290109Y-63301042D01*
X100290112Y-63301042D01*
X100294698Y-63301913D01*
X100422370Y-63306929D01*
X100558625Y-63312283D01*
X100558630Y-63312283D01*
X100563293Y-63312466D01*
X100667607Y-63301042D01*
X100825844Y-63283713D01*
X100825850Y-63283712D01*
X100830497Y-63283203D01*
X100835021Y-63282012D01*
X101085918Y-63215956D01*
X101085920Y-63215955D01*
X101090441Y-63214765D01*
X101205779Y-63165212D01*
X101333120Y-63110502D01*
X101333122Y-63110501D01*
X101337414Y-63108657D01*
X101561375Y-62970066D01*
X101562017Y-62969669D01*
X101562021Y-62969666D01*
X101565990Y-62967210D01*
X101771149Y-62793530D01*
X101948382Y-62591434D01*
X101995137Y-62518746D01*
X102091269Y-62369291D01*
X102093797Y-62365361D01*
X102204199Y-62120278D01*
X102241892Y-61986630D01*
X102275893Y-61866072D01*
X102275894Y-61866069D01*
X102277163Y-61861568D01*
X102295043Y-61721019D01*
X102310688Y-61598045D01*
X102310688Y-61598041D01*
X102311086Y-61594915D01*
X102313571Y-61500000D01*
X102293650Y-61231937D01*
X102292619Y-61227379D01*
X102235361Y-60974331D01*
X102235360Y-60974326D01*
X102234327Y-60969763D01*
X102136902Y-60719238D01*
X102003518Y-60485864D01*
X101837105Y-60274769D01*
X101641317Y-60090591D01*
X101420457Y-59937374D01*
X101416195Y-59935272D01*
X101183564Y-59820551D01*
X101183561Y-59820550D01*
X101179376Y-59818486D01*
X101148299Y-59808538D01*
X101077621Y-59785914D01*
X100923370Y-59736538D01*
X100918763Y-59735788D01*
X100918760Y-59735787D01*
X100662674Y-59694081D01*
X100662675Y-59694081D01*
X100658063Y-59693330D01*
X100527719Y-59691624D01*
X100393961Y-59689873D01*
X100393958Y-59689873D01*
X100389284Y-59689812D01*
X100122937Y-59726060D01*
X99864874Y-59801278D01*
X99620763Y-59913815D01*
X99616854Y-59916378D01*
X99399881Y-60058631D01*
X99399876Y-60058635D01*
X99395968Y-60061197D01*
X99195426Y-60240188D01*
X99023544Y-60446854D01*
X99021121Y-60450847D01*
X98903954Y-60643932D01*
X98884096Y-60676656D01*
X98882287Y-60680970D01*
X98882285Y-60680974D01*
X98781957Y-60920231D01*
X98780148Y-60924545D01*
X98713981Y-61185077D01*
X98687050Y-61452526D01*
X63500000Y-61452526D01*
X63500000Y-60000000D01*
X67000000Y-60000000D01*
X75500000Y-60000000D01*
X75500000Y-56748134D01*
X87791500Y-56748134D01*
X87798255Y-56810316D01*
X87849385Y-56946705D01*
X87936739Y-57063261D01*
X88053295Y-57150615D01*
X88189684Y-57201745D01*
X88251866Y-57208500D01*
X90748134Y-57208500D01*
X90810316Y-57201745D01*
X90946705Y-57150615D01*
X91063261Y-57063261D01*
X91150615Y-56946705D01*
X91201745Y-56810316D01*
X91208500Y-56748134D01*
X91208500Y-54251866D01*
X91201745Y-54189684D01*
X91150615Y-54053295D01*
X91063261Y-53936739D01*
X90946705Y-53849385D01*
X90810316Y-53798255D01*
X90748134Y-53791500D01*
X88251866Y-53791500D01*
X88189684Y-53798255D01*
X88053295Y-53849385D01*
X87936739Y-53936739D01*
X87849385Y-54053295D01*
X87798255Y-54189684D01*
X87791500Y-54251866D01*
X87791500Y-56748134D01*
X75500000Y-56748134D01*
X75500000Y-52000000D01*
X67000000Y-52000000D01*
X67000000Y-60000000D01*
X63500000Y-60000000D01*
X55000000Y-60000000D01*
X55000000Y-68000000D01*
X56921000Y-68000000D01*
X56989121Y-68020002D01*
X57035614Y-68073658D01*
X57047000Y-68126000D01*
X57047000Y-71528304D01*
X57046215Y-71542349D01*
X57043169Y-71569505D01*
X57042482Y-71575630D01*
X57042998Y-71581773D01*
X57046558Y-71624168D01*
X57046873Y-71631693D01*
X57047000Y-71634197D01*
X57047000Y-71637388D01*
X57048209Y-71649285D01*
X57050744Y-71674246D01*
X57050945Y-71676411D01*
X57058121Y-71761867D01*
X57059820Y-71767793D01*
X57059863Y-71768028D01*
X57060639Y-71773485D01*
X57061005Y-71775267D01*
X57061650Y-71781616D01*
X57086315Y-71860322D01*
X57087171Y-71863175D01*
X57094788Y-71889739D01*
X57104458Y-71923461D01*
X57109636Y-71941520D01*
X57112452Y-71946999D01*
X57114722Y-71952733D01*
X57114392Y-71952864D01*
X57115039Y-71954442D01*
X57115124Y-71954406D01*
X57117635Y-71960264D01*
X57119546Y-71966363D01*
X57146603Y-72015174D01*
X57157813Y-72035398D01*
X57159644Y-72038826D01*
X57195064Y-72107746D01*
X57198895Y-72112579D01*
X57202232Y-72117758D01*
X57202227Y-72117761D01*
X57209573Y-72128776D01*
X57213409Y-72135695D01*
X57217560Y-72140538D01*
X57217562Y-72140541D01*
X57232039Y-72157431D01*
X57261493Y-72191795D01*
X57290637Y-72256532D01*
X57280155Y-72326750D01*
X57254920Y-72362887D01*
X56556895Y-73060912D01*
X56494583Y-73094938D01*
X56423768Y-73089873D01*
X56370157Y-73051453D01*
X56325114Y-72996224D01*
X56325111Y-72996221D01*
X56321219Y-72991449D01*
X56316470Y-72987520D01*
X56181965Y-72876248D01*
X56181962Y-72876246D01*
X56177215Y-72872319D01*
X56012815Y-72783428D01*
X55923548Y-72755795D01*
X55840167Y-72729984D01*
X55840164Y-72729983D01*
X55834280Y-72728162D01*
X55828155Y-72727518D01*
X55828154Y-72727518D01*
X55654539Y-72709270D01*
X55654538Y-72709270D01*
X55648411Y-72708626D01*
X55565695Y-72716154D01*
X55468429Y-72725006D01*
X55468428Y-72725006D01*
X55462288Y-72725565D01*
X55456374Y-72727306D01*
X55456372Y-72727306D01*
X55432317Y-72734386D01*
X55282999Y-72778333D01*
X55117373Y-72864919D01*
X54971721Y-72982027D01*
X54851588Y-73125195D01*
X54848625Y-73130584D01*
X54848622Y-73130589D01*
X54783881Y-73248354D01*
X54761552Y-73288971D01*
X54759691Y-73294838D01*
X54759690Y-73294840D01*
X54736232Y-73368790D01*
X54705041Y-73467115D01*
X54684208Y-73652844D01*
X54684724Y-73658988D01*
X54697649Y-73812904D01*
X54699847Y-73839081D01*
X54751362Y-74018734D01*
X54836790Y-74184960D01*
X54840613Y-74189784D01*
X54840616Y-74189788D01*
X54928684Y-74300901D01*
X54952878Y-74331426D01*
X54957572Y-74335421D01*
X55040213Y-74405755D01*
X55079125Y-74465138D01*
X55079756Y-74536132D01*
X55059485Y-74574574D01*
X55060539Y-74575299D01*
X55057266Y-74580061D01*
X55053574Y-74584500D01*
X55050754Y-74589535D01*
X55048686Y-74592544D01*
X55042492Y-74601814D01*
X55040449Y-74604959D01*
X55036872Y-74609497D01*
X54996234Y-74686739D01*
X54995688Y-74687776D01*
X54994118Y-74690666D01*
X54950885Y-74767864D01*
X54949028Y-74773336D01*
X54947514Y-74776736D01*
X54943127Y-74786947D01*
X54941705Y-74790381D01*
X54939018Y-74795487D01*
X54937306Y-74801001D01*
X54937305Y-74801003D01*
X54912788Y-74879959D01*
X54911769Y-74883095D01*
X54883331Y-74966872D01*
X54882502Y-74972585D01*
X54881659Y-74976098D01*
X54879167Y-74987111D01*
X54878409Y-74990678D01*
X54876696Y-74996194D01*
X54876018Y-75001922D01*
X54876017Y-75001927D01*
X54872469Y-75031905D01*
X54869255Y-75059068D01*
X54866297Y-75084058D01*
X54865870Y-75087300D01*
X54853175Y-75174857D01*
X54855948Y-75245435D01*
X54856403Y-75257014D01*
X54856500Y-75261961D01*
X54856500Y-78224157D01*
X54836498Y-78292278D01*
X54819595Y-78313252D01*
X54215095Y-78917752D01*
X54152783Y-78951778D01*
X54081968Y-78946713D01*
X54025132Y-78904166D01*
X54000321Y-78837646D01*
X54000000Y-78828657D01*
X54000000Y-72000000D01*
X51132528Y-72000000D01*
X51064407Y-71979998D01*
X51017914Y-71926342D01*
X51007810Y-71856068D01*
X51037304Y-71791488D01*
X51043433Y-71784905D01*
X51377624Y-71450714D01*
X51439936Y-71416688D01*
X51466719Y-71413809D01*
X51743882Y-71413809D01*
X51795131Y-71424702D01*
X51886763Y-71465499D01*
X51974293Y-71484104D01*
X52055366Y-71501337D01*
X52055370Y-71501337D01*
X52061823Y-71502709D01*
X52240795Y-71502709D01*
X52247248Y-71501337D01*
X52247252Y-71501337D01*
X52328325Y-71484104D01*
X52415855Y-71465499D01*
X52457551Y-71446935D01*
X52573324Y-71395390D01*
X52573326Y-71395389D01*
X52579354Y-71392705D01*
X52584696Y-71388824D01*
X52718801Y-71291391D01*
X52718803Y-71291389D01*
X52724145Y-71287508D01*
X52843900Y-71154506D01*
X52933386Y-70999512D01*
X52974356Y-70873418D01*
X52986651Y-70835579D01*
X52986651Y-70835578D01*
X52988691Y-70829300D01*
X53007399Y-70651309D01*
X52995545Y-70538525D01*
X52989381Y-70479882D01*
X52989381Y-70479881D01*
X52988691Y-70473318D01*
X52933386Y-70303106D01*
X52917357Y-70275342D01*
X52865518Y-70185556D01*
X52843900Y-70148112D01*
X52809869Y-70110316D01*
X52728567Y-70020021D01*
X52728566Y-70020020D01*
X52724145Y-70015110D01*
X52710401Y-70005124D01*
X52584696Y-69913794D01*
X52584695Y-69913793D01*
X52579354Y-69909913D01*
X52573326Y-69907229D01*
X52573324Y-69907228D01*
X52421886Y-69839804D01*
X52421885Y-69839804D01*
X52415855Y-69837119D01*
X52312640Y-69815180D01*
X52247252Y-69801281D01*
X52247248Y-69801281D01*
X52240795Y-69799909D01*
X52061823Y-69799909D01*
X52055370Y-69801281D01*
X52055366Y-69801281D01*
X51989978Y-69815180D01*
X51886763Y-69837119D01*
X51880733Y-69839804D01*
X51880732Y-69839804D01*
X51795131Y-69877916D01*
X51743882Y-69888809D01*
X51166068Y-69888809D01*
X51147118Y-69887376D01*
X51132719Y-69885185D01*
X51132713Y-69885185D01*
X51125484Y-69884085D01*
X51118192Y-69884678D01*
X51118189Y-69884678D01*
X51072509Y-69888394D01*
X51062294Y-69888809D01*
X51054166Y-69888809D01*
X51050544Y-69889231D01*
X51050531Y-69889232D01*
X51025777Y-69892118D01*
X51021418Y-69892549D01*
X50948265Y-69898500D01*
X50941303Y-69900756D01*
X50935315Y-69901952D01*
X50929358Y-69903360D01*
X50922084Y-69904208D01*
X50915202Y-69906706D01*
X50915198Y-69906707D01*
X50853084Y-69929254D01*
X50848980Y-69930664D01*
X50779116Y-69953296D01*
X50772853Y-69957096D01*
X50767311Y-69959634D01*
X50761835Y-69962376D01*
X50754950Y-69964875D01*
X50748826Y-69968890D01*
X50693559Y-70005124D01*
X50689891Y-70007439D01*
X50627110Y-70045536D01*
X50622905Y-70049250D01*
X50622902Y-70049252D01*
X50618686Y-70052976D01*
X50618660Y-70052947D01*
X50615729Y-70055547D01*
X50612375Y-70058351D01*
X50606256Y-70062363D01*
X50601224Y-70067675D01*
X50552703Y-70118895D01*
X50550325Y-70121337D01*
X48668095Y-72003567D01*
X48605783Y-72037593D01*
X48534968Y-72032528D01*
X48478132Y-71989981D01*
X48453321Y-71923461D01*
X48453000Y-71914472D01*
X48453000Y-71446935D01*
X48473002Y-71378814D01*
X48489905Y-71357840D01*
X50162925Y-69684820D01*
X50165447Y-69682367D01*
X50220496Y-69630310D01*
X50220497Y-69630309D01*
X50225137Y-69625921D01*
X50257963Y-69579041D01*
X50263533Y-69571676D01*
X50295683Y-69532257D01*
X50295685Y-69532254D01*
X50299714Y-69527314D01*
X50312237Y-69503359D01*
X50320687Y-69489461D01*
X50332524Y-69472556D01*
X50336185Y-69467328D01*
X50358916Y-69414802D01*
X50362889Y-69406473D01*
X50386454Y-69361395D01*
X50389411Y-69355739D01*
X50396862Y-69329753D01*
X50402341Y-69314452D01*
X50410541Y-69295504D01*
X50410542Y-69295500D01*
X50413076Y-69289645D01*
X50424783Y-69233608D01*
X50427000Y-69224648D01*
X50441014Y-69175774D01*
X50441014Y-69175773D01*
X50442775Y-69169632D01*
X50444849Y-69142687D01*
X50447139Y-69126595D01*
X50451677Y-69104867D01*
X50452667Y-69100129D01*
X50453000Y-69093776D01*
X50453000Y-69041598D01*
X50453371Y-69031931D01*
X50457140Y-68982955D01*
X50457140Y-68982952D01*
X50457629Y-68976596D01*
X50453992Y-68947807D01*
X50453000Y-68932029D01*
X50453000Y-67951612D01*
X50438350Y-67807384D01*
X50380454Y-67622637D01*
X50286591Y-67453305D01*
X50236399Y-67394745D01*
X50164756Y-67311157D01*
X50164754Y-67311155D01*
X50160597Y-67306305D01*
X50110431Y-67267392D01*
X50012667Y-67191558D01*
X50012664Y-67191556D01*
X50007618Y-67187642D01*
X49833902Y-67102164D01*
X49827728Y-67100556D01*
X49827726Y-67100555D01*
X49652728Y-67054971D01*
X49646547Y-67053361D01*
X49612163Y-67051559D01*
X49594533Y-67050635D01*
X49527552Y-67027095D01*
X49483931Y-66971080D01*
X49477519Y-66900374D01*
X49512032Y-66835713D01*
X52162925Y-64184820D01*
X52165447Y-64182367D01*
X52220496Y-64130310D01*
X52220497Y-64130309D01*
X52225137Y-64125921D01*
X52257963Y-64079041D01*
X52263533Y-64071676D01*
X52295683Y-64032257D01*
X52295685Y-64032254D01*
X52299714Y-64027314D01*
X52305051Y-64017106D01*
X52312237Y-64003359D01*
X52320687Y-63989461D01*
X52332524Y-63972556D01*
X52336185Y-63967328D01*
X52358916Y-63914802D01*
X52362889Y-63906473D01*
X52386453Y-63861399D01*
X52386456Y-63861391D01*
X52389411Y-63855739D01*
X52396862Y-63829755D01*
X52402341Y-63814453D01*
X52413076Y-63789645D01*
X52424785Y-63733596D01*
X52426993Y-63724673D01*
X52442776Y-63669632D01*
X52444850Y-63642680D01*
X52447141Y-63626582D01*
X52451679Y-63604861D01*
X52451680Y-63604855D01*
X52452667Y-63600129D01*
X52453000Y-63593776D01*
X52453000Y-63541600D01*
X52453371Y-63531933D01*
X52457140Y-63482955D01*
X52457140Y-63482952D01*
X52457629Y-63476596D01*
X52453992Y-63447807D01*
X52453000Y-63432029D01*
X52453000Y-61451612D01*
X52438350Y-61307384D01*
X52380454Y-61122637D01*
X52286591Y-60953305D01*
X52218686Y-60874079D01*
X52164756Y-60811157D01*
X52164754Y-60811155D01*
X52160597Y-60806305D01*
X52007618Y-60687642D01*
X52009309Y-60685462D01*
X51970133Y-60641405D01*
X51959129Y-60571267D01*
X51988841Y-60505086D01*
X51993248Y-60500000D01*
X52000000Y-60500000D01*
X52000000Y-52500000D01*
X43000000Y-52500000D01*
X43000000Y-60374000D01*
X42979998Y-60442121D01*
X42926342Y-60488614D01*
X42874000Y-60500000D01*
X39000000Y-60500000D01*
X39000000Y-68500000D01*
X44848065Y-68500000D01*
X44916186Y-68520002D01*
X44962679Y-68573658D01*
X44972783Y-68643932D01*
X44943289Y-68708512D01*
X44937160Y-68715095D01*
X43837075Y-69815180D01*
X43834554Y-69817632D01*
X43774863Y-69874079D01*
X43771201Y-69879309D01*
X43771200Y-69879310D01*
X43742037Y-69920959D01*
X43736467Y-69928324D01*
X43706657Y-69964875D01*
X43700286Y-69972686D01*
X43697331Y-69978338D01*
X43697330Y-69978340D01*
X43687763Y-69996641D01*
X43679313Y-70010539D01*
X43663815Y-70032672D01*
X43661283Y-70038524D01*
X43661282Y-70038525D01*
X43641086Y-70085195D01*
X43637111Y-70093527D01*
X43613547Y-70138601D01*
X43613544Y-70138609D01*
X43610589Y-70144261D01*
X43608831Y-70150393D01*
X43608829Y-70150397D01*
X43603138Y-70170245D01*
X43597659Y-70185547D01*
X43586924Y-70210355D01*
X43575215Y-70266404D01*
X43573007Y-70275327D01*
X43557224Y-70330368D01*
X43556735Y-70336727D01*
X43555150Y-70357320D01*
X43552859Y-70373418D01*
X43548321Y-70395139D01*
X43548320Y-70395145D01*
X43547333Y-70399871D01*
X43547000Y-70406224D01*
X43547000Y-70458400D01*
X43546629Y-70468064D01*
X43546225Y-70473318D01*
X43543875Y-70503864D01*
X43542371Y-70523404D01*
X43546008Y-70552193D01*
X43547000Y-70567971D01*
X43547000Y-72230520D01*
X43526998Y-72298641D01*
X43473342Y-72345134D01*
X43403068Y-72355238D01*
X43368251Y-72344947D01*
X43261696Y-72295824D01*
X43058002Y-72244093D01*
X42848292Y-72230348D01*
X42639588Y-72255050D01*
X42438880Y-72317371D01*
X42252890Y-72415224D01*
X42117949Y-72521604D01*
X42043795Y-72595758D01*
X42037777Y-72601395D01*
X41989080Y-72644101D01*
X41985505Y-72648636D01*
X41985504Y-72648637D01*
X41934301Y-72713589D01*
X41932223Y-72716154D01*
X41879365Y-72779707D01*
X41879361Y-72779712D01*
X41875673Y-72784147D01*
X41872854Y-72789181D01*
X41870785Y-72792191D01*
X41864591Y-72801461D01*
X41862548Y-72804606D01*
X41858971Y-72809144D01*
X41856283Y-72814252D01*
X41856281Y-72814256D01*
X41817787Y-72887423D01*
X41816212Y-72890323D01*
X41776368Y-72961469D01*
X41772984Y-72967511D01*
X41771126Y-72972984D01*
X41769613Y-72976383D01*
X41765226Y-72986594D01*
X41763804Y-72990028D01*
X41761117Y-72995134D01*
X41759405Y-73000648D01*
X41759404Y-73000650D01*
X41734887Y-73079606D01*
X41733868Y-73082742D01*
X41729728Y-73094938D01*
X41705430Y-73166519D01*
X41704601Y-73172232D01*
X41703758Y-73175745D01*
X41701266Y-73186758D01*
X41700508Y-73190325D01*
X41698795Y-73195841D01*
X41698117Y-73201569D01*
X41698116Y-73201574D01*
X41688396Y-73283705D01*
X41687969Y-73286947D01*
X41675274Y-73374504D01*
X41675501Y-73380272D01*
X41678502Y-73456661D01*
X41678599Y-73461608D01*
X41678599Y-75779294D01*
X41678329Y-75787535D01*
X41674093Y-75852160D01*
X41684498Y-75940072D01*
X41684835Y-75943285D01*
X41692930Y-76031378D01*
X41694498Y-76036938D01*
X41695160Y-76040511D01*
X41697349Y-76051514D01*
X41698117Y-76055127D01*
X41698796Y-76060864D01*
X41725037Y-76145375D01*
X41725953Y-76148472D01*
X41749976Y-76233648D01*
X41752534Y-76238836D01*
X41753859Y-76242287D01*
X41758000Y-76252665D01*
X41759403Y-76256052D01*
X41761117Y-76261572D01*
X41763808Y-76266686D01*
X41763808Y-76266687D01*
X41802297Y-76339844D01*
X41803794Y-76342780D01*
X41842928Y-76422136D01*
X41846386Y-76426767D01*
X41848349Y-76429970D01*
X41854272Y-76439357D01*
X41856281Y-76442450D01*
X41858970Y-76447562D01*
X41913755Y-76517055D01*
X41915726Y-76519625D01*
X41965215Y-76585900D01*
X41965222Y-76585907D01*
X41968672Y-76590528D01*
X41972906Y-76594442D01*
X41972908Y-76594444D01*
X42029057Y-76646347D01*
X42032624Y-76649777D01*
X42339059Y-76956213D01*
X42344695Y-76962230D01*
X42387395Y-77010920D01*
X42391930Y-77014495D01*
X42391932Y-77014497D01*
X42456860Y-77065683D01*
X42459421Y-77067757D01*
X42522999Y-77120633D01*
X42527441Y-77124327D01*
X42532479Y-77127149D01*
X42535515Y-77129235D01*
X42544755Y-77135409D01*
X42547900Y-77137452D01*
X42552438Y-77141029D01*
X42557546Y-77143717D01*
X42557550Y-77143719D01*
X42630717Y-77182213D01*
X42633607Y-77183783D01*
X42710805Y-77227016D01*
X42716277Y-77228873D01*
X42719677Y-77230387D01*
X42729888Y-77234774D01*
X42733322Y-77236196D01*
X42738428Y-77238883D01*
X42743942Y-77240595D01*
X42743944Y-77240596D01*
X42822900Y-77265113D01*
X42826036Y-77266132D01*
X42879181Y-77284172D01*
X42909813Y-77294570D01*
X42915526Y-77295399D01*
X42919039Y-77296242D01*
X42930052Y-77298734D01*
X42933619Y-77299492D01*
X42939135Y-77301205D01*
X42944863Y-77301883D01*
X42944868Y-77301884D01*
X42997268Y-77308085D01*
X43027019Y-77311607D01*
X43030241Y-77312031D01*
X43117798Y-77324726D01*
X43199955Y-77321498D01*
X43204902Y-77321401D01*
X44152058Y-77321401D01*
X44220179Y-77341403D01*
X44241153Y-77358306D01*
X44661151Y-77778304D01*
X44666788Y-77784322D01*
X44709494Y-77833019D01*
X44714029Y-77836594D01*
X44714030Y-77836595D01*
X44778982Y-77887798D01*
X44781543Y-77889872D01*
X44811070Y-77914430D01*
X44850653Y-77973366D01*
X44856500Y-78011303D01*
X44856500Y-80235482D01*
X44856489Y-80237131D01*
X44855141Y-80340102D01*
X44856120Y-80345797D01*
X44856120Y-80345802D01*
X44864489Y-80394508D01*
X44865780Y-80404315D01*
X44870831Y-80459279D01*
X44872398Y-80464835D01*
X44872400Y-80464846D01*
X44881294Y-80496382D01*
X44884204Y-80509241D01*
X44890732Y-80547228D01*
X44892731Y-80552645D01*
X44892731Y-80552647D01*
X44909837Y-80599016D01*
X44912894Y-80608424D01*
X44927877Y-80661549D01*
X44930429Y-80666724D01*
X44930431Y-80666729D01*
X44944924Y-80696117D01*
X44950130Y-80708234D01*
X44963472Y-80744399D01*
X44966422Y-80749357D01*
X44966426Y-80749366D01*
X44991692Y-80791834D01*
X44996413Y-80800527D01*
X45020829Y-80850037D01*
X45024285Y-80854665D01*
X45027303Y-80859590D01*
X45025384Y-80860766D01*
X45046690Y-80918102D01*
X45047000Y-80926938D01*
X45047000Y-81167033D01*
X45026998Y-81235154D01*
X44973342Y-81281647D01*
X44921260Y-81292788D01*
X44917685Y-81292412D01*
X44796907Y-81303404D01*
X44737703Y-81308792D01*
X44737702Y-81308792D01*
X44731562Y-81309351D01*
X44725648Y-81311092D01*
X44725646Y-81311092D01*
X44606568Y-81346139D01*
X44552273Y-81362119D01*
X44546808Y-81364976D01*
X44483627Y-81398006D01*
X44386647Y-81448705D01*
X44240995Y-81565813D01*
X44120862Y-81708981D01*
X44117899Y-81714370D01*
X44117896Y-81714375D01*
X44058725Y-81822009D01*
X44030826Y-81872757D01*
X44028965Y-81878624D01*
X44028964Y-81878626D01*
X44014103Y-81925475D01*
X43974315Y-82050901D01*
X43953482Y-82236630D01*
X43953998Y-82242774D01*
X43968534Y-82415873D01*
X43969121Y-82422867D01*
X44020636Y-82602520D01*
X44023451Y-82607997D01*
X44090014Y-82737515D01*
X44106064Y-82768746D01*
X44109887Y-82773570D01*
X44109890Y-82773574D01*
X44171575Y-82851400D01*
X44222152Y-82915212D01*
X44226846Y-82919207D01*
X44307649Y-82987976D01*
X44364478Y-83036342D01*
X44527621Y-83127519D01*
X44705367Y-83185272D01*
X44890945Y-83207401D01*
X44897079Y-83206929D01*
X44897081Y-83206929D01*
X44902050Y-83206546D01*
X44911333Y-83205832D01*
X44980787Y-83220549D01*
X45031260Y-83270479D01*
X45047000Y-83331461D01*
X45047000Y-85553063D01*
X45026998Y-85621184D01*
X45010096Y-85642158D01*
X44620322Y-86031933D01*
X44291912Y-86360343D01*
X44289897Y-86362813D01*
X44289893Y-86362818D01*
X44269041Y-86388385D01*
X44200286Y-86472686D01*
X44110589Y-86644261D01*
X44108829Y-86650399D01*
X44061918Y-86813999D01*
X44057224Y-86830368D01*
X44056735Y-86836726D01*
X44043751Y-87005475D01*
X44042371Y-87023404D01*
X44043171Y-87029736D01*
X44065443Y-87206037D01*
X44066636Y-87215484D01*
X44129030Y-87398762D01*
X44227001Y-87565750D01*
X44356549Y-87709628D01*
X44361678Y-87713410D01*
X44361682Y-87713413D01*
X44434466Y-87767073D01*
X44512382Y-87824518D01*
X44518171Y-87827193D01*
X44518173Y-87827194D01*
X44573594Y-87852802D01*
X44688133Y-87905726D01*
X44876625Y-87949936D01*
X44981100Y-87952854D01*
X45063773Y-87955164D01*
X45063776Y-87955164D01*
X45070156Y-87955342D01*
X45194778Y-87933368D01*
X45254538Y-87922831D01*
X45254539Y-87922831D01*
X45260821Y-87921723D01*
X45440832Y-87850452D01*
X45500641Y-87811314D01*
X45598784Y-87747090D01*
X45598785Y-87747090D01*
X45602835Y-87744439D01*
X45607563Y-87740182D01*
X46662943Y-86684803D01*
X46665465Y-86682350D01*
X46720496Y-86630310D01*
X46720497Y-86630309D01*
X46725137Y-86625921D01*
X46757966Y-86579037D01*
X46763532Y-86571678D01*
X46795680Y-86532260D01*
X46795683Y-86532256D01*
X46799714Y-86527313D01*
X46812238Y-86503358D01*
X46820685Y-86489464D01*
X46832523Y-86472559D01*
X46832526Y-86472553D01*
X46836185Y-86467328D01*
X46839798Y-86458981D01*
X46858917Y-86414799D01*
X46862892Y-86406466D01*
X46886455Y-86361394D01*
X46886456Y-86361391D01*
X46889411Y-86355739D01*
X46896862Y-86329755D01*
X46902341Y-86314453D01*
X46913076Y-86289645D01*
X46924785Y-86233596D01*
X46926993Y-86224673D01*
X46942776Y-86169632D01*
X46944850Y-86142680D01*
X46947141Y-86126582D01*
X46951679Y-86104861D01*
X46951680Y-86104855D01*
X46952667Y-86100129D01*
X46953000Y-86093776D01*
X46953000Y-86041600D01*
X46953371Y-86031933D01*
X46957140Y-85982955D01*
X46957140Y-85982952D01*
X46957629Y-85976596D01*
X46953992Y-85947807D01*
X46953000Y-85932029D01*
X46953000Y-81519500D01*
X46973002Y-81451379D01*
X47026658Y-81404886D01*
X47079000Y-81393500D01*
X50648813Y-81393500D01*
X50716934Y-81413502D01*
X50763427Y-81467158D01*
X50773531Y-81537432D01*
X50757932Y-81582499D01*
X50717923Y-81651797D01*
X50662618Y-81822009D01*
X50661928Y-81828572D01*
X50661928Y-81828573D01*
X50651743Y-81925475D01*
X50643910Y-82000000D01*
X50662618Y-82177991D01*
X50717923Y-82348203D01*
X50721227Y-82353926D01*
X50723911Y-82359954D01*
X50722666Y-82360508D01*
X50737500Y-82415873D01*
X50737500Y-87084127D01*
X50722666Y-87139492D01*
X50723911Y-87140046D01*
X50721227Y-87146074D01*
X50717923Y-87151797D01*
X50715881Y-87158082D01*
X50667025Y-87308447D01*
X50662618Y-87322009D01*
X50661928Y-87328572D01*
X50661928Y-87328573D01*
X50656139Y-87383650D01*
X50643910Y-87500000D01*
X50662618Y-87677991D01*
X50664658Y-87684269D01*
X50664658Y-87684270D01*
X50689682Y-87761287D01*
X50717923Y-87848203D01*
X50721226Y-87853925D01*
X50721227Y-87853926D01*
X50734849Y-87877519D01*
X50807409Y-88003197D01*
X50811827Y-88008104D01*
X50811828Y-88008105D01*
X50922742Y-88131288D01*
X50927164Y-88136199D01*
X50932506Y-88140080D01*
X50932508Y-88140082D01*
X51066613Y-88237515D01*
X51071955Y-88241396D01*
X51077983Y-88244080D01*
X51077985Y-88244081D01*
X51229423Y-88311505D01*
X51235454Y-88314190D01*
X51322984Y-88332795D01*
X51404057Y-88350028D01*
X51404061Y-88350028D01*
X51410514Y-88351400D01*
X51589486Y-88351400D01*
X51595939Y-88350028D01*
X51595943Y-88350028D01*
X51758092Y-88315562D01*
X51758093Y-88315562D01*
X51764546Y-88314190D01*
X51764837Y-88314060D01*
X51833475Y-88312099D01*
X51894273Y-88348762D01*
X51925599Y-88412474D01*
X51926659Y-88448005D01*
X51916215Y-88541119D01*
X51907146Y-88621966D01*
X51907662Y-88628110D01*
X51921202Y-88789350D01*
X51922785Y-88808203D01*
X51974300Y-88987856D01*
X52059728Y-89154082D01*
X52063551Y-89158906D01*
X52063554Y-89158910D01*
X52165264Y-89287235D01*
X52191902Y-89353045D01*
X52178731Y-89422810D01*
X52129934Y-89474378D01*
X52066519Y-89491500D01*
X32626000Y-89491500D01*
X32557879Y-89471498D01*
X32511386Y-89417842D01*
X32500000Y-89365500D01*
X32500000Y-85000000D01*
X40643910Y-85000000D01*
X40644600Y-85006565D01*
X40658634Y-85140082D01*
X40662618Y-85177991D01*
X40717923Y-85348203D01*
X40807409Y-85503197D01*
X40811827Y-85508104D01*
X40811828Y-85508105D01*
X40852308Y-85553063D01*
X40927164Y-85636199D01*
X40932506Y-85640080D01*
X40932508Y-85640082D01*
X41057646Y-85731000D01*
X41071955Y-85741396D01*
X41077983Y-85744080D01*
X41077985Y-85744081D01*
X41171109Y-85785542D01*
X41235454Y-85814190D01*
X41322984Y-85832795D01*
X41404057Y-85850028D01*
X41404061Y-85850028D01*
X41410514Y-85851400D01*
X41589486Y-85851400D01*
X41595939Y-85850028D01*
X41595943Y-85850028D01*
X41677016Y-85832795D01*
X41764546Y-85814190D01*
X41828891Y-85785542D01*
X41922015Y-85744081D01*
X41922017Y-85744080D01*
X41928045Y-85741396D01*
X41942354Y-85731000D01*
X42067492Y-85640082D01*
X42067494Y-85640080D01*
X42072836Y-85636199D01*
X42147692Y-85553063D01*
X42188172Y-85508105D01*
X42188173Y-85508104D01*
X42192591Y-85503197D01*
X42282077Y-85348203D01*
X42337382Y-85177991D01*
X42341367Y-85140082D01*
X42355400Y-85006565D01*
X42356090Y-85000000D01*
X42337382Y-84822009D01*
X42282077Y-84651797D01*
X42192591Y-84496803D01*
X42072836Y-84363801D01*
X42015315Y-84322009D01*
X41933387Y-84262485D01*
X41933386Y-84262484D01*
X41928045Y-84258604D01*
X41922017Y-84255920D01*
X41922015Y-84255919D01*
X41770577Y-84188495D01*
X41770576Y-84188495D01*
X41764546Y-84185810D01*
X41677016Y-84167205D01*
X41595943Y-84149972D01*
X41595939Y-84149972D01*
X41589486Y-84148600D01*
X41410514Y-84148600D01*
X41404061Y-84149972D01*
X41404057Y-84149972D01*
X41322984Y-84167205D01*
X41235454Y-84185810D01*
X41229424Y-84188495D01*
X41229423Y-84188495D01*
X41077985Y-84255919D01*
X41077983Y-84255920D01*
X41071955Y-84258604D01*
X41066614Y-84262484D01*
X41066613Y-84262485D01*
X40984686Y-84322009D01*
X40927164Y-84363801D01*
X40807409Y-84496803D01*
X40717923Y-84651797D01*
X40662618Y-84822009D01*
X40643910Y-85000000D01*
X32500000Y-85000000D01*
X32500000Y-84500000D01*
X30500000Y-82500000D01*
X25634500Y-82500000D01*
X25566379Y-82479998D01*
X25519886Y-82426342D01*
X25508500Y-82374000D01*
X25508500Y-76748134D01*
X27791500Y-76748134D01*
X27798255Y-76810316D01*
X27849385Y-76946705D01*
X27936739Y-77063261D01*
X28053295Y-77150615D01*
X28189684Y-77201745D01*
X28251866Y-77208500D01*
X30748134Y-77208500D01*
X30810316Y-77201745D01*
X30946705Y-77150615D01*
X31063261Y-77063261D01*
X31150615Y-76946705D01*
X31201745Y-76810316D01*
X31208500Y-76748134D01*
X31208500Y-74251866D01*
X31201745Y-74189684D01*
X31150615Y-74053295D01*
X31063261Y-73936739D01*
X30946705Y-73849385D01*
X30810316Y-73798255D01*
X30748134Y-73791500D01*
X28251866Y-73791500D01*
X28189684Y-73798255D01*
X28053295Y-73849385D01*
X27936739Y-73936739D01*
X27849385Y-74053295D01*
X27798255Y-74189684D01*
X27791500Y-74251866D01*
X27791500Y-76748134D01*
X25508500Y-76748134D01*
X25508500Y-55248134D01*
X27791500Y-55248134D01*
X27798255Y-55310316D01*
X27849385Y-55446705D01*
X27936739Y-55563261D01*
X28053295Y-55650615D01*
X28189684Y-55701745D01*
X28251866Y-55708500D01*
X30748134Y-55708500D01*
X30810316Y-55701745D01*
X30946705Y-55650615D01*
X31063261Y-55563261D01*
X31150615Y-55446705D01*
X31201745Y-55310316D01*
X31208500Y-55248134D01*
X31208500Y-52751866D01*
X31201745Y-52689684D01*
X31150615Y-52553295D01*
X31063261Y-52436739D01*
X30946705Y-52349385D01*
X30810316Y-52298255D01*
X30748134Y-52291500D01*
X28251866Y-52291500D01*
X28189684Y-52298255D01*
X28053295Y-52349385D01*
X27936739Y-52436739D01*
X27849385Y-52553295D01*
X27798255Y-52689684D01*
X27791500Y-52751866D01*
X27791500Y-55248134D01*
X25508500Y-55248134D01*
X25508500Y-48952526D01*
X98687050Y-48952526D01*
X98699947Y-49221019D01*
X98752388Y-49484656D01*
X98843220Y-49737646D01*
X98970450Y-49974431D01*
X98973241Y-49978168D01*
X98973245Y-49978175D01*
X99054887Y-50087506D01*
X99131281Y-50189810D01*
X99134590Y-50193090D01*
X99134595Y-50193096D01*
X99318863Y-50375762D01*
X99322180Y-50379050D01*
X99325942Y-50381808D01*
X99325945Y-50381811D01*
X99438299Y-50464192D01*
X99538954Y-50537995D01*
X99543089Y-50540171D01*
X99543093Y-50540173D01*
X99772698Y-50660975D01*
X99776840Y-50663154D01*
X100030613Y-50751775D01*
X100035206Y-50752647D01*
X100290109Y-50801042D01*
X100290112Y-50801042D01*
X100294698Y-50801913D01*
X100422370Y-50806929D01*
X100558625Y-50812283D01*
X100558630Y-50812283D01*
X100563293Y-50812466D01*
X100667607Y-50801042D01*
X100825844Y-50783713D01*
X100825850Y-50783712D01*
X100830497Y-50783203D01*
X100835021Y-50782012D01*
X101085918Y-50715956D01*
X101085920Y-50715955D01*
X101090441Y-50714765D01*
X101094738Y-50712919D01*
X101333120Y-50610502D01*
X101333122Y-50610501D01*
X101337414Y-50608657D01*
X101456071Y-50535230D01*
X101562017Y-50469669D01*
X101562021Y-50469666D01*
X101565990Y-50467210D01*
X101771149Y-50293530D01*
X101948382Y-50091434D01*
X102093797Y-49865361D01*
X102204199Y-49620278D01*
X102241209Y-49489051D01*
X102275893Y-49366072D01*
X102275894Y-49366069D01*
X102277163Y-49361568D01*
X102295043Y-49221019D01*
X102310688Y-49098045D01*
X102310688Y-49098041D01*
X102311086Y-49094915D01*
X102313571Y-49000000D01*
X102293650Y-48731937D01*
X102234327Y-48469763D01*
X102136902Y-48219238D01*
X102003518Y-47985864D01*
X101837105Y-47774769D01*
X101641317Y-47590591D01*
X101420457Y-47437374D01*
X101416264Y-47435306D01*
X101183564Y-47320551D01*
X101183561Y-47320550D01*
X101179376Y-47318486D01*
X101131745Y-47303239D01*
X101077621Y-47285914D01*
X100923370Y-47236538D01*
X100918763Y-47235788D01*
X100918760Y-47235787D01*
X100662674Y-47194081D01*
X100662675Y-47194081D01*
X100658063Y-47193330D01*
X100527719Y-47191624D01*
X100393961Y-47189873D01*
X100393958Y-47189873D01*
X100389284Y-47189812D01*
X100122937Y-47226060D01*
X99864874Y-47301278D01*
X99620763Y-47413815D01*
X99616854Y-47416378D01*
X99399881Y-47558631D01*
X99399876Y-47558635D01*
X99395968Y-47561197D01*
X99195426Y-47740188D01*
X99023544Y-47946854D01*
X98884096Y-48176656D01*
X98780148Y-48424545D01*
X98713981Y-48685077D01*
X98687050Y-48952526D01*
X25508500Y-48952526D01*
X25508500Y-41248134D01*
X27791500Y-41248134D01*
X27798255Y-41310316D01*
X27849385Y-41446705D01*
X27936739Y-41563261D01*
X28053295Y-41650615D01*
X28189684Y-41701745D01*
X28251866Y-41708500D01*
X30748134Y-41708500D01*
X30810316Y-41701745D01*
X30946705Y-41650615D01*
X31063261Y-41563261D01*
X31150615Y-41446705D01*
X31201745Y-41310316D01*
X31208500Y-41248134D01*
X31208500Y-38751866D01*
X31201745Y-38689684D01*
X31150615Y-38553295D01*
X31063261Y-38436739D01*
X30946705Y-38349385D01*
X30810316Y-38298255D01*
X30748134Y-38291500D01*
X28251866Y-38291500D01*
X28189684Y-38298255D01*
X28053295Y-38349385D01*
X27936739Y-38436739D01*
X27849385Y-38553295D01*
X27798255Y-38689684D01*
X27791500Y-38751866D01*
X27791500Y-41248134D01*
X25508500Y-41248134D01*
X25508500Y-36452526D01*
X98687050Y-36452526D01*
X98699947Y-36721019D01*
X98752388Y-36984656D01*
X98843220Y-37237646D01*
X98970450Y-37474431D01*
X98973241Y-37478168D01*
X98973245Y-37478175D01*
X99054887Y-37587506D01*
X99131281Y-37689810D01*
X99134590Y-37693090D01*
X99134595Y-37693096D01*
X99318863Y-37875762D01*
X99322180Y-37879050D01*
X99325942Y-37881808D01*
X99325945Y-37881811D01*
X99438299Y-37964192D01*
X99538954Y-38037995D01*
X99543089Y-38040171D01*
X99543093Y-38040173D01*
X99772698Y-38160975D01*
X99776840Y-38163154D01*
X100030613Y-38251775D01*
X100035206Y-38252647D01*
X100290109Y-38301042D01*
X100290112Y-38301042D01*
X100294698Y-38301913D01*
X100422370Y-38306929D01*
X100558625Y-38312283D01*
X100558630Y-38312283D01*
X100563293Y-38312466D01*
X100667726Y-38301029D01*
X100825844Y-38283713D01*
X100825850Y-38283712D01*
X100830497Y-38283203D01*
X100835021Y-38282012D01*
X101085918Y-38215956D01*
X101085920Y-38215955D01*
X101090441Y-38214765D01*
X101094738Y-38212919D01*
X101333120Y-38110502D01*
X101333122Y-38110501D01*
X101337414Y-38108657D01*
X101456071Y-38035230D01*
X101562017Y-37969669D01*
X101562021Y-37969666D01*
X101565990Y-37967210D01*
X101771149Y-37793530D01*
X101948382Y-37591434D01*
X102093797Y-37365361D01*
X102204199Y-37120278D01*
X102241209Y-36989051D01*
X102275893Y-36866072D01*
X102275894Y-36866069D01*
X102277163Y-36861568D01*
X102295043Y-36721019D01*
X102310688Y-36598045D01*
X102310688Y-36598041D01*
X102311086Y-36594915D01*
X102313571Y-36500000D01*
X102293650Y-36231937D01*
X102234327Y-35969763D01*
X102136902Y-35719238D01*
X102003518Y-35485864D01*
X101837105Y-35274769D01*
X101641317Y-35090591D01*
X101444266Y-34953891D01*
X101424299Y-34940039D01*
X101424296Y-34940037D01*
X101420457Y-34937374D01*
X101416264Y-34935306D01*
X101183564Y-34820551D01*
X101183561Y-34820550D01*
X101179376Y-34818486D01*
X101131745Y-34803239D01*
X100970208Y-34751531D01*
X100923370Y-34736538D01*
X100918763Y-34735788D01*
X100918760Y-34735787D01*
X100662674Y-34694081D01*
X100662675Y-34694081D01*
X100658063Y-34693330D01*
X100527719Y-34691624D01*
X100393961Y-34689873D01*
X100393958Y-34689873D01*
X100389284Y-34689812D01*
X100122937Y-34726060D01*
X99864874Y-34801278D01*
X99620763Y-34913815D01*
X99616854Y-34916378D01*
X99399881Y-35058631D01*
X99399876Y-35058635D01*
X99395968Y-35061197D01*
X99392476Y-35064314D01*
X99238498Y-35201745D01*
X99195426Y-35240188D01*
X99023544Y-35446854D01*
X98884096Y-35676656D01*
X98780148Y-35924545D01*
X98713981Y-36185077D01*
X98687050Y-36452526D01*
X25508500Y-36452526D01*
X25508500Y-34748134D01*
X87791500Y-34748134D01*
X87798255Y-34810316D01*
X87849385Y-34946705D01*
X87936739Y-35063261D01*
X88053295Y-35150615D01*
X88189684Y-35201745D01*
X88251866Y-35208500D01*
X90748134Y-35208500D01*
X90810316Y-35201745D01*
X90946705Y-35150615D01*
X91063261Y-35063261D01*
X91150615Y-34946705D01*
X91201745Y-34810316D01*
X91208500Y-34748134D01*
X91208500Y-32251866D01*
X91201745Y-32189684D01*
X91150615Y-32053295D01*
X91063261Y-31936739D01*
X90946705Y-31849385D01*
X90810316Y-31798255D01*
X90748134Y-31791500D01*
X88251866Y-31791500D01*
X88189684Y-31798255D01*
X88053295Y-31849385D01*
X87936739Y-31936739D01*
X87849385Y-32053295D01*
X87798255Y-32189684D01*
X87791500Y-32251866D01*
X87791500Y-34748134D01*
X25508500Y-34748134D01*
X25508500Y-28952526D01*
X27687050Y-28952526D01*
X27699947Y-29221019D01*
X27752388Y-29484656D01*
X27843220Y-29737646D01*
X27970450Y-29974431D01*
X27973241Y-29978168D01*
X27973245Y-29978175D01*
X28054887Y-30087506D01*
X28131281Y-30189810D01*
X28134590Y-30193090D01*
X28134595Y-30193096D01*
X28318863Y-30375762D01*
X28322180Y-30379050D01*
X28325942Y-30381808D01*
X28325945Y-30381811D01*
X28438299Y-30464192D01*
X28538954Y-30537995D01*
X28543089Y-30540171D01*
X28543093Y-30540173D01*
X28772698Y-30660975D01*
X28776840Y-30663154D01*
X29030613Y-30751775D01*
X29035206Y-30752647D01*
X29290109Y-30801042D01*
X29290112Y-30801042D01*
X29294698Y-30801913D01*
X29422370Y-30806929D01*
X29558625Y-30812283D01*
X29558630Y-30812283D01*
X29563293Y-30812466D01*
X29667607Y-30801042D01*
X29825844Y-30783713D01*
X29825850Y-30783712D01*
X29830497Y-30783203D01*
X29835021Y-30782012D01*
X30085918Y-30715956D01*
X30085920Y-30715955D01*
X30090441Y-30714765D01*
X30094738Y-30712919D01*
X30333120Y-30610502D01*
X30333122Y-30610501D01*
X30337414Y-30608657D01*
X30456071Y-30535230D01*
X30562017Y-30469669D01*
X30562021Y-30469666D01*
X30565990Y-30467210D01*
X30771149Y-30293530D01*
X30948382Y-30091434D01*
X31093797Y-29865361D01*
X31204199Y-29620278D01*
X31241209Y-29489051D01*
X31275893Y-29366072D01*
X31275894Y-29366069D01*
X31277163Y-29361568D01*
X31295043Y-29221019D01*
X31310688Y-29098045D01*
X31310688Y-29098041D01*
X31311086Y-29094915D01*
X31313571Y-29000000D01*
X31293650Y-28731937D01*
X31234327Y-28469763D01*
X31136902Y-28219238D01*
X31003518Y-27985864D01*
X30837105Y-27774769D01*
X30641317Y-27590591D01*
X30420457Y-27437374D01*
X30416264Y-27435306D01*
X30183564Y-27320551D01*
X30183561Y-27320550D01*
X30179376Y-27318486D01*
X30131745Y-27303239D01*
X30077621Y-27285914D01*
X29923370Y-27236538D01*
X29918763Y-27235788D01*
X29918760Y-27235787D01*
X29662674Y-27194081D01*
X29662675Y-27194081D01*
X29658063Y-27193330D01*
X29527719Y-27191624D01*
X29393961Y-27189873D01*
X29393958Y-27189873D01*
X29389284Y-27189812D01*
X29122937Y-27226060D01*
X28864874Y-27301278D01*
X28620763Y-27413815D01*
X28616854Y-27416378D01*
X28399881Y-27558631D01*
X28399876Y-27558635D01*
X28395968Y-27561197D01*
X28195426Y-27740188D01*
X28023544Y-27946854D01*
X27884096Y-28176656D01*
X27780148Y-28424545D01*
X27713981Y-28685077D01*
X27687050Y-28952526D01*
X25508500Y-28952526D01*
X25508500Y-20634500D01*
X25528502Y-20566379D01*
X25582158Y-20519886D01*
X25634500Y-20508500D01*
X38374000Y-20508500D01*
X38442121Y-20528502D01*
G37*
G04 #@! TD.AperFunction*
G04 #@! TA.AperFunction,Conductor*
G36*
X48465032Y-67986879D02*
G01*
X48521868Y-68029426D01*
X48546679Y-68095946D01*
X48547000Y-68104935D01*
X48547000Y-68553065D01*
X48526998Y-68621186D01*
X48510095Y-68642160D01*
X46837075Y-70315180D01*
X46834554Y-70317632D01*
X46774863Y-70374079D01*
X46771201Y-70379309D01*
X46771200Y-70379310D01*
X46742037Y-70420959D01*
X46736467Y-70428324D01*
X46704892Y-70467039D01*
X46700286Y-70472686D01*
X46697331Y-70478338D01*
X46697330Y-70478340D01*
X46687763Y-70496641D01*
X46679313Y-70510539D01*
X46663815Y-70532672D01*
X46648540Y-70567971D01*
X46641086Y-70585195D01*
X46637111Y-70593527D01*
X46613547Y-70638601D01*
X46613544Y-70638609D01*
X46610589Y-70644261D01*
X46608831Y-70650393D01*
X46608829Y-70650397D01*
X46603138Y-70670245D01*
X46597659Y-70685547D01*
X46586924Y-70710355D01*
X46575215Y-70766404D01*
X46573007Y-70775327D01*
X46557224Y-70830368D01*
X46556735Y-70836727D01*
X46555150Y-70857320D01*
X46552859Y-70873418D01*
X46548321Y-70895139D01*
X46548320Y-70895145D01*
X46547333Y-70899871D01*
X46547000Y-70906224D01*
X46547000Y-70958400D01*
X46546629Y-70968064D01*
X46542371Y-71023404D01*
X46546008Y-71052193D01*
X46547000Y-71067971D01*
X46547000Y-73662585D01*
X46547323Y-73665764D01*
X46560095Y-73791500D01*
X46561650Y-73806813D01*
X46619546Y-73991560D01*
X46708716Y-74152425D01*
X46724247Y-74221699D01*
X46716529Y-74252941D01*
X46717923Y-74253394D01*
X46713309Y-74267596D01*
X46662618Y-74423606D01*
X46643910Y-74601597D01*
X46662618Y-74779588D01*
X46717923Y-74949800D01*
X46721226Y-74955522D01*
X46721227Y-74955523D01*
X46744709Y-74996194D01*
X46807409Y-75104794D01*
X46811827Y-75109701D01*
X46811828Y-75109702D01*
X46922742Y-75232885D01*
X46927164Y-75237796D01*
X46932506Y-75241677D01*
X46932508Y-75241679D01*
X47015346Y-75301864D01*
X47071955Y-75342993D01*
X47077983Y-75345677D01*
X47077985Y-75345678D01*
X47199090Y-75399597D01*
X47235454Y-75415787D01*
X47322984Y-75434392D01*
X47404057Y-75451625D01*
X47404061Y-75451625D01*
X47410514Y-75452997D01*
X47589486Y-75452997D01*
X47595939Y-75451625D01*
X47595943Y-75451625D01*
X47677016Y-75434392D01*
X47764546Y-75415787D01*
X47800910Y-75399597D01*
X47856178Y-75374990D01*
X47907427Y-75364097D01*
X48081027Y-75364097D01*
X48099977Y-75365530D01*
X48114376Y-75367721D01*
X48114382Y-75367721D01*
X48121611Y-75368821D01*
X48128903Y-75368228D01*
X48128906Y-75368228D01*
X48174586Y-75364512D01*
X48184801Y-75364097D01*
X48192928Y-75364097D01*
X48196564Y-75363673D01*
X48196566Y-75363673D01*
X48200018Y-75363270D01*
X48221327Y-75360786D01*
X48225647Y-75360359D01*
X48298829Y-75354406D01*
X48305791Y-75352150D01*
X48311779Y-75350954D01*
X48317736Y-75349546D01*
X48325010Y-75348698D01*
X48331892Y-75346200D01*
X48331896Y-75346199D01*
X48394010Y-75323652D01*
X48398114Y-75322242D01*
X48467978Y-75299610D01*
X48474241Y-75295810D01*
X48479783Y-75293272D01*
X48485259Y-75290530D01*
X48492144Y-75288031D01*
X48535688Y-75259483D01*
X48553535Y-75247782D01*
X48557203Y-75245467D01*
X48619984Y-75207370D01*
X48624189Y-75203656D01*
X48624192Y-75203654D01*
X48628408Y-75199930D01*
X48628434Y-75199959D01*
X48631365Y-75197359D01*
X48634719Y-75194555D01*
X48640838Y-75190543D01*
X48694392Y-75134010D01*
X48696769Y-75131569D01*
X48784905Y-75043433D01*
X48847217Y-75009407D01*
X48918032Y-75014472D01*
X48974868Y-75057019D01*
X48999679Y-75123539D01*
X49000000Y-75132528D01*
X49000000Y-78980500D01*
X48979998Y-79048621D01*
X48926342Y-79095114D01*
X48874000Y-79106500D01*
X47269500Y-79106500D01*
X47201379Y-79086498D01*
X47154886Y-79032842D01*
X47143500Y-78980500D01*
X47143500Y-77014518D01*
X47143511Y-77012869D01*
X47144783Y-76915680D01*
X47144859Y-76909898D01*
X47139036Y-76876009D01*
X47135511Y-76855492D01*
X47134220Y-76845685D01*
X47129698Y-76796475D01*
X47129697Y-76796472D01*
X47129169Y-76790721D01*
X47127602Y-76785165D01*
X47127600Y-76785154D01*
X47118706Y-76753618D01*
X47115795Y-76740756D01*
X47110245Y-76708460D01*
X47109268Y-76702772D01*
X47102485Y-76684386D01*
X47090163Y-76650984D01*
X47087106Y-76641576D01*
X47073691Y-76594010D01*
X47073690Y-76594008D01*
X47072123Y-76588451D01*
X47055076Y-76553883D01*
X47049870Y-76541766D01*
X47041222Y-76518324D01*
X47036528Y-76505601D01*
X47033578Y-76500643D01*
X47033574Y-76500634D01*
X47008308Y-76458166D01*
X47003587Y-76449473D01*
X46981725Y-76405142D01*
X46979171Y-76399963D01*
X46956106Y-76369075D01*
X46948780Y-76358111D01*
X46932027Y-76329952D01*
X46929074Y-76324988D01*
X46925264Y-76320644D01*
X46925260Y-76320638D01*
X46892680Y-76283488D01*
X46886461Y-76275810D01*
X46853427Y-76231571D01*
X46825115Y-76205400D01*
X46815927Y-76195969D01*
X46790506Y-76166981D01*
X46767190Y-76148600D01*
X46747153Y-76132804D01*
X46739631Y-76126379D01*
X46708520Y-76097621D01*
X46699101Y-76088914D01*
X46666504Y-76068346D01*
X46655739Y-76060738D01*
X46630004Y-76040451D01*
X46629998Y-76040447D01*
X46625463Y-76036872D01*
X46576619Y-76011174D01*
X46568050Y-76006227D01*
X46526242Y-75979848D01*
X46526241Y-75979848D01*
X46521362Y-75976769D01*
X46515998Y-75974629D01*
X46515996Y-75974628D01*
X46485559Y-75962485D01*
X46473591Y-75956968D01*
X46439473Y-75939018D01*
X46386769Y-75922653D01*
X46377446Y-75919352D01*
X46363930Y-75913960D01*
X46326163Y-75898892D01*
X46320495Y-75897765D01*
X46320493Y-75897764D01*
X46288357Y-75891372D01*
X46275573Y-75888125D01*
X46244287Y-75878410D01*
X46244284Y-75878409D01*
X46238766Y-75876696D01*
X46183939Y-75870207D01*
X46174177Y-75868660D01*
X46145785Y-75863013D01*
X46125707Y-75859019D01*
X46125705Y-75859019D01*
X46120040Y-75857892D01*
X46114262Y-75857816D01*
X46114259Y-75857816D01*
X46081499Y-75857387D01*
X46075529Y-75857002D01*
X46075520Y-75857155D01*
X46071815Y-75856937D01*
X46068126Y-75856500D01*
X46025843Y-75856500D01*
X45957722Y-75836498D01*
X45936748Y-75819595D01*
X45516750Y-75399597D01*
X45511113Y-75393579D01*
X45488436Y-75367721D01*
X45468407Y-75344882D01*
X45441477Y-75323652D01*
X45398919Y-75290103D01*
X45396354Y-75288025D01*
X45332801Y-75235167D01*
X45332796Y-75235163D01*
X45328361Y-75231475D01*
X45323327Y-75228656D01*
X45320317Y-75226587D01*
X45311047Y-75220393D01*
X45307902Y-75218350D01*
X45303364Y-75214773D01*
X45298256Y-75212085D01*
X45298252Y-75212083D01*
X45225085Y-75173589D01*
X45222185Y-75172014D01*
X45150040Y-75131610D01*
X45150038Y-75131609D01*
X45144997Y-75128786D01*
X45139525Y-75126929D01*
X45136125Y-75125415D01*
X45125914Y-75121028D01*
X45122480Y-75119606D01*
X45117374Y-75116919D01*
X45111860Y-75115207D01*
X45111858Y-75115206D01*
X45032902Y-75090689D01*
X45029766Y-75089670D01*
X44976621Y-75071630D01*
X44945989Y-75061232D01*
X44940276Y-75060403D01*
X44936763Y-75059560D01*
X44925750Y-75057068D01*
X44922183Y-75056310D01*
X44916667Y-75054597D01*
X44910939Y-75053919D01*
X44910934Y-75053918D01*
X44858534Y-75047717D01*
X44828783Y-75044195D01*
X44825561Y-75043771D01*
X44738004Y-75031076D01*
X44655847Y-75034304D01*
X44650900Y-75034401D01*
X44091599Y-75034401D01*
X44023478Y-75014399D01*
X43976985Y-74960743D01*
X43965599Y-74908401D01*
X43965599Y-73753920D01*
X43972286Y-73713418D01*
X43993164Y-73651915D01*
X43993164Y-73651913D01*
X43995022Y-73646441D01*
X43995851Y-73640725D01*
X43995852Y-73640720D01*
X44011949Y-73529695D01*
X44015778Y-73503285D01*
X44045348Y-73438741D01*
X44105119Y-73400428D01*
X44172235Y-73399435D01*
X44347271Y-73445029D01*
X44347274Y-73445029D01*
X44353453Y-73446639D01*
X44430885Y-73450697D01*
X44540412Y-73456437D01*
X44540416Y-73456437D01*
X44546794Y-73456771D01*
X44701975Y-73433302D01*
X44731910Y-73428775D01*
X44731911Y-73428775D01*
X44738224Y-73427820D01*
X44744210Y-73425617D01*
X44744216Y-73425616D01*
X44898662Y-73368790D01*
X44919922Y-73360968D01*
X44925338Y-73357610D01*
X44925342Y-73357608D01*
X45079044Y-73262309D01*
X45079048Y-73262306D01*
X45084467Y-73258946D01*
X45197168Y-73152370D01*
X45220496Y-73130310D01*
X45220497Y-73130309D01*
X45225137Y-73125921D01*
X45336185Y-72967328D01*
X45413076Y-72789645D01*
X45452667Y-72600129D01*
X45453000Y-72593776D01*
X45453000Y-70946935D01*
X45473002Y-70878814D01*
X45489905Y-70857840D01*
X48331905Y-68015840D01*
X48394217Y-67981814D01*
X48465032Y-67986879D01*
G37*
G04 #@! TD.AperFunction*
M02*
