M48
; DRILL file {KiCad 6.0.9-8da3e8f707~116~ubuntu20.04.1} date ven 18 nov 2022 09:22:03
; FORMAT={-:-/ absolute / metric / decimal}
; #@! TF.CreationDate,2022-11-18T09:22:03-05:00
; #@! TF.GenerationSoftware,Kicad,Pcbnew,6.0.9-8da3e8f707~116~ubuntu20.04.1
; #@! TF.FileFunction,Plated,1,4,PTH
FMAT,2
METRIC
; #@! TA.AperFunction,Plated,PTH,ViaDrill
T1C0.330
; #@! TA.AperFunction,Plated,PTH,ViaDrill
T2C0.381
; #@! TA.AperFunction,Plated,PTH,ViaDrill
T3C0.635
; #@! TA.AperFunction,Plated,PTH,ComponentDrill
T4C0.800
; #@! TA.AperFunction,Plated,PTH,ComponentDrill
T5C1.200
; #@! TA.AperFunction,Plated,PTH,ComponentDrill
T6C1.300
%
G90
G05
T1
X41.5Y-85.0
X43.0Y-73.5
X44.0Y-74.0
X44.0Y-75.0
X44.0Y-77.5
X44.0Y-78.5
X44.5Y-72.5
X45.0Y-87.0
X46.0Y-77.0
X47.5Y-73.614
X47.5Y-74.602
X49.5Y-68.0
X49.5Y-69.0
X51.5Y-61.5
X51.5Y-62.5
X51.5Y-82.0
X51.5Y-87.5
X52.151Y-70.651
X56.0Y-75.5
X58.351Y-72.884
X59.0Y-74.0
X59.0Y-75.0
X60.0Y-77.0
X60.0Y-82.0
X60.0Y-84.5
X65.5Y-78.0
X82.307Y-68.275
T2
X30.0Y-62.5
X30.0Y-63.5
X30.0Y-66.5
X30.0Y-67.5
X31.0Y-62.5
X31.0Y-63.5
X31.0Y-66.5
X31.0Y-67.5
X32.5Y-62.5
X32.5Y-63.5
X32.5Y-66.5
X32.5Y-67.5
X33.5Y-62.5
X33.5Y-63.5
X33.5Y-66.5
X33.5Y-67.5
X40.0Y-58.5
X40.0Y-59.5
X41.0Y-58.5
X41.0Y-59.5
X41.0Y-62.5
X41.0Y-64.0
X41.0Y-65.5
X41.0Y-67.0
X42.0Y-58.5
X42.0Y-59.5
X42.5Y-62.5
X42.5Y-64.0
X42.5Y-65.5
X42.5Y-67.0
X44.0Y-62.5
X44.0Y-64.0
X44.0Y-65.5
X44.0Y-67.0
X44.911Y-82.25
X45.0Y-54.5
X45.0Y-56.0
X45.0Y-57.5
X45.0Y-59.0
X45.5Y-62.5
X45.5Y-64.0
X45.5Y-65.5
X45.5Y-67.0
X46.5Y-54.5
X46.5Y-56.0
X46.5Y-57.5
X46.5Y-59.0
X48.0Y-54.5
X48.0Y-56.0
X48.0Y-57.5
X48.0Y-59.0
X49.5Y-54.5
X49.5Y-56.0
X49.5Y-57.5
X49.5Y-59.0
X50.5Y-73.5
X50.5Y-74.5
X50.5Y-77.5
X52.865Y-88.635
X54.0Y-87.0
X55.642Y-73.666
X56.0Y-87.0
X57.0Y-62.0
X57.0Y-63.5
X57.0Y-65.0
X57.0Y-66.5
X58.0Y-71.589
X58.5Y-62.0
X58.5Y-63.5
X58.5Y-65.0
X58.5Y-66.5
X60.0Y-62.0
X60.0Y-63.5
X60.0Y-65.0
X60.0Y-66.5
X61.5Y-62.0
X61.5Y-63.5
X61.5Y-65.0
X61.5Y-66.5
X65.0Y-61.5
X65.0Y-62.5
X66.0Y-61.5
X66.0Y-62.5
X67.0Y-61.5
X67.0Y-62.5
X68.0Y-67.5
X68.0Y-68.5
X68.5Y-54.0
X68.5Y-55.5
X68.5Y-57.0
X68.5Y-58.5
X70.0Y-54.0
X70.0Y-55.5
X70.0Y-57.0
X70.0Y-58.5
X70.0Y-88.0
X71.5Y-54.0
X71.5Y-55.5
X71.5Y-57.0
X71.5Y-58.5
X73.0Y-54.0
X73.0Y-55.5
X73.0Y-57.0
X73.0Y-58.5
X75.5Y-62.5
X75.5Y-63.5
X75.5Y-66.5
X75.5Y-67.5
X76.5Y-62.5
X76.5Y-63.5
X76.5Y-66.5
X76.5Y-67.5
X79.0Y-54.0
X79.0Y-55.0
X79.0Y-58.0
X79.0Y-59.0
X80.0Y-54.0
X80.0Y-55.0
X80.0Y-58.0
X80.0Y-59.0
T3
X50.5Y-75.5
X50.5Y-76.5
X50.5Y-78.5
X51.5Y-73.5
X51.5Y-74.5
X51.5Y-75.5
X51.5Y-76.5
X51.5Y-77.5
X51.5Y-78.5
X52.5Y-73.5
X52.5Y-74.5
X52.5Y-75.5
X52.5Y-76.5
X52.5Y-77.5
X52.5Y-78.5
T4
X66.5Y-81.92
X66.5Y-84.46
X66.5Y-87.0
X80.5Y-63.687
X88.0Y-65.32
T5
X29.5Y-40.0
X29.5Y-54.0
X29.5Y-75.5
X34.5Y-40.0
X34.5Y-54.0
X34.5Y-75.5
X72.5Y-76.25
X77.5Y-76.25
X84.5Y-33.5
X84.5Y-55.5
X89.5Y-33.5
X89.5Y-55.5
T6
X29.5Y-24.0
X29.5Y-29.0
X100.5Y-24.0
X100.5Y-29.0
X100.5Y-36.5
X100.5Y-41.5
X100.5Y-49.0
X100.5Y-54.0
X100.5Y-61.5
X100.5Y-66.5
T0
M30
