G04 #@! TF.GenerationSoftware,KiCad,Pcbnew,6.0.9-8da3e8f707~116~ubuntu20.04.1*
G04 #@! TF.CreationDate,2022-11-21T15:45:11-05:00*
G04 #@! TF.ProjectId,buck_boost,6275636b-5f62-46f6-9f73-742e6b696361,rev?*
G04 #@! TF.SameCoordinates,Original*
G04 #@! TF.FileFunction,Copper,L2,Inr*
G04 #@! TF.FilePolarity,Positive*
%FSLAX46Y46*%
G04 Gerber Fmt 4.6, Leading zero omitted, Abs format (unit mm)*
G04 Created by KiCad (PCBNEW 6.0.9-8da3e8f707~116~ubuntu20.04.1) date 2022-11-21 15:45:11*
%MOMM*%
%LPD*%
G01*
G04 APERTURE LIST*
G04 #@! TA.AperFunction,ComponentPad*
%ADD10C,2.600000*%
G04 #@! TD*
G04 #@! TA.AperFunction,ComponentPad*
%ADD11C,1.800000*%
G04 #@! TD*
G04 #@! TA.AperFunction,ComponentPad*
%ADD12R,2.400000X2.400000*%
G04 #@! TD*
G04 #@! TA.AperFunction,ComponentPad*
%ADD13C,2.400000*%
G04 #@! TD*
G04 #@! TA.AperFunction,ComponentPad*
%ADD14C,1.440000*%
G04 #@! TD*
G04 #@! TA.AperFunction,ViaPad*
%ADD15C,1.016000*%
G04 #@! TD*
G04 #@! TA.AperFunction,ViaPad*
%ADD16C,0.889000*%
G04 #@! TD*
G04 #@! TA.AperFunction,ViaPad*
%ADD17C,0.685800*%
G04 #@! TD*
G04 APERTURE END LIST*
D10*
X29500000Y-24000000D03*
X29500000Y-29000000D03*
X100500000Y-29000000D03*
X100500000Y-24000000D03*
X100500000Y-41500000D03*
X100500000Y-36500000D03*
X100500000Y-66500000D03*
X100500000Y-61500000D03*
X100500000Y-54000000D03*
X100500000Y-49000000D03*
D11*
X88000000Y-65320000D03*
X80500000Y-63686670D03*
D12*
X29500000Y-54000000D03*
D13*
X34500000Y-54000000D03*
D12*
X29500000Y-75500000D03*
D13*
X34500000Y-75500000D03*
D12*
X89500000Y-55500000D03*
D13*
X84500000Y-55500000D03*
D12*
X89500000Y-33500000D03*
D13*
X84500000Y-33500000D03*
D12*
X72500000Y-76250000D03*
D13*
X77500000Y-76250000D03*
D12*
X29500000Y-40000000D03*
D13*
X34500000Y-40000000D03*
D14*
X66500000Y-87000000D03*
X66500000Y-84460000D03*
X66500000Y-81920000D03*
D15*
X51500000Y-77500000D03*
X51500000Y-74500000D03*
X52500000Y-78500000D03*
D16*
X44911000Y-82250000D03*
D15*
X51500000Y-75500000D03*
D17*
X65500000Y-78000000D03*
D15*
X50500000Y-75500000D03*
D17*
X60000000Y-77000000D03*
D16*
X56000000Y-87000000D03*
D15*
X52500000Y-77500000D03*
D16*
X50500000Y-77500000D03*
D15*
X51500000Y-76500000D03*
X50500000Y-78500000D03*
D16*
X50500000Y-74500000D03*
D15*
X52500000Y-74500000D03*
X52500000Y-76500000D03*
D17*
X60000000Y-82000000D03*
D15*
X50500000Y-76500000D03*
X52500000Y-75500000D03*
D17*
X60000000Y-84500000D03*
D16*
X50500000Y-73500000D03*
D15*
X51500000Y-78500000D03*
X52500000Y-73500000D03*
D17*
X41500000Y-85000000D03*
D15*
X51500000Y-73500000D03*
D16*
X42500000Y-65500000D03*
X45500000Y-67000000D03*
X42500000Y-67000000D03*
X45500000Y-65500000D03*
X44000000Y-65500000D03*
X44000000Y-67000000D03*
X42500000Y-62500000D03*
X44000000Y-64000000D03*
X41000000Y-67000000D03*
X42500000Y-64000000D03*
X41000000Y-62500000D03*
X41000000Y-64000000D03*
X45500000Y-64000000D03*
X41000000Y-65500000D03*
X44000000Y-62500000D03*
X45500000Y-62500000D03*
X45000000Y-56000000D03*
X48000000Y-59000000D03*
D17*
X51500000Y-62500000D03*
D16*
X46500000Y-57500000D03*
X46500000Y-59000000D03*
X48000000Y-54500000D03*
X45000000Y-59000000D03*
D17*
X47500000Y-74601597D03*
D16*
X49500000Y-56000000D03*
X49500000Y-57500000D03*
D17*
X52151309Y-70651309D03*
D16*
X45000000Y-54500000D03*
X46500000Y-54500000D03*
X49500000Y-54500000D03*
X48000000Y-57500000D03*
X46500000Y-56000000D03*
X45000000Y-57500000D03*
X48000000Y-56000000D03*
D17*
X44500000Y-72500000D03*
X51500000Y-61500000D03*
D16*
X49500000Y-59000000D03*
X60000000Y-66500000D03*
X60000000Y-65000000D03*
X60000000Y-62000000D03*
X61500000Y-63500000D03*
X57000000Y-66500000D03*
X57000000Y-62000000D03*
X58000000Y-71589000D03*
X60000000Y-63500000D03*
X58500000Y-63500000D03*
X57000000Y-65000000D03*
X58500000Y-65000000D03*
X58500000Y-66500000D03*
X58500000Y-62000000D03*
X61500000Y-62000000D03*
X61500000Y-65000000D03*
X57000000Y-63500000D03*
X61500000Y-66500000D03*
D17*
X58350678Y-72884282D03*
X56000000Y-75500000D03*
X43000000Y-73500000D03*
X46000000Y-77000000D03*
X45000000Y-87000000D03*
D16*
X68500000Y-57000000D03*
X73000000Y-55500000D03*
X68500000Y-55500000D03*
X70000000Y-57000000D03*
X71500000Y-55500000D03*
X70000000Y-58500000D03*
X68500000Y-54000000D03*
X70000000Y-54000000D03*
X73000000Y-58500000D03*
X71500000Y-58500000D03*
X73000000Y-57000000D03*
X71500000Y-54000000D03*
X71500000Y-57000000D03*
X70000000Y-55500000D03*
X68500000Y-58500000D03*
X73000000Y-54000000D03*
D17*
X51500000Y-87500000D03*
X51500000Y-82000000D03*
D16*
X54000000Y-87000000D03*
X52864664Y-88635336D03*
D17*
X47500000Y-73614197D03*
X49500000Y-68000000D03*
X49500000Y-69000000D03*
D16*
X68000000Y-67500000D03*
X55641726Y-73666214D03*
X68000000Y-68500000D03*
X70000000Y-88000000D03*
X30000000Y-62500000D03*
X79000000Y-54000000D03*
X65000000Y-61500000D03*
D17*
X44000000Y-75000000D03*
D16*
X75500000Y-67500000D03*
X32500000Y-62500000D03*
X42000000Y-58500000D03*
X79000000Y-59000000D03*
X75500000Y-63500000D03*
X80000000Y-55000000D03*
X79000000Y-58000000D03*
X40000000Y-59500000D03*
X30000000Y-63500000D03*
D17*
X44000000Y-77500000D03*
D16*
X30000000Y-66500000D03*
X80000000Y-59000000D03*
X67000000Y-62500000D03*
X42000000Y-59500000D03*
X41000000Y-58500000D03*
X80000000Y-54000000D03*
X65000000Y-62500000D03*
X79000000Y-55000000D03*
X32500000Y-63500000D03*
X33500000Y-62500000D03*
X76500000Y-67500000D03*
D17*
X44000000Y-78500000D03*
D16*
X40000000Y-58500000D03*
X31000000Y-63500000D03*
D17*
X59000000Y-75000000D03*
X59000000Y-74000000D03*
D16*
X33500000Y-67500000D03*
X76500000Y-66500000D03*
X76500000Y-62500000D03*
X41000000Y-59500000D03*
D17*
X44000000Y-74000000D03*
D16*
X76500000Y-63500000D03*
X32500000Y-66500000D03*
X32500000Y-67500000D03*
X75500000Y-62500000D03*
X33500000Y-63500000D03*
X33500000Y-66500000D03*
X31000000Y-67500000D03*
X31000000Y-66500000D03*
X67000000Y-61500000D03*
X66000000Y-62500000D03*
X30000000Y-67500000D03*
D17*
X82307400Y-68275000D03*
D16*
X31000000Y-62500000D03*
X66000000Y-61500000D03*
X75500000Y-66500000D03*
X80000000Y-58000000D03*
G04 #@! TA.AperFunction,Conductor*
G36*
X52942121Y-73020002D02*
G01*
X52988614Y-73073658D01*
X53000000Y-73126000D01*
X53000000Y-78874000D01*
X52979998Y-78942121D01*
X52926342Y-78988614D01*
X52874000Y-79000000D01*
X50126000Y-79000000D01*
X50057879Y-78979998D01*
X50011386Y-78926342D01*
X50000000Y-78874000D01*
X50000000Y-73126000D01*
X50020002Y-73057879D01*
X50073658Y-73011386D01*
X50126000Y-73000000D01*
X52874000Y-73000000D01*
X52942121Y-73020002D01*
G37*
G04 #@! TD.AperFunction*
G04 #@! TA.AperFunction,Conductor*
G36*
X74442121Y-53020002D02*
G01*
X74488614Y-53073658D01*
X74500000Y-53126000D01*
X74500000Y-58874000D01*
X74479998Y-58942121D01*
X74426342Y-58988614D01*
X74374000Y-59000000D01*
X68126000Y-59000000D01*
X68057879Y-58979998D01*
X68011386Y-58926342D01*
X68000000Y-58874000D01*
X68000000Y-53126000D01*
X68020002Y-53057879D01*
X68073658Y-53011386D01*
X68126000Y-53000000D01*
X74374000Y-53000000D01*
X74442121Y-53020002D01*
G37*
G04 #@! TD.AperFunction*
G04 #@! TA.AperFunction,Conductor*
G36*
X62442121Y-61020002D02*
G01*
X62488614Y-61073658D01*
X62500000Y-61126000D01*
X62500000Y-66874000D01*
X62479998Y-66942121D01*
X62426342Y-66988614D01*
X62374000Y-67000000D01*
X56126000Y-67000000D01*
X56057879Y-66979998D01*
X56011386Y-66926342D01*
X56000000Y-66874000D01*
X56000000Y-61126000D01*
X56020002Y-61057879D01*
X56073658Y-61011386D01*
X56126000Y-61000000D01*
X62374000Y-61000000D01*
X62442121Y-61020002D01*
G37*
G04 #@! TD.AperFunction*
G04 #@! TA.AperFunction,Conductor*
G36*
X46442121Y-61520002D02*
G01*
X46488614Y-61573658D01*
X46500000Y-61626000D01*
X46500000Y-67374000D01*
X46479998Y-67442121D01*
X46426342Y-67488614D01*
X46374000Y-67500000D01*
X40126000Y-67500000D01*
X40057879Y-67479998D01*
X40011386Y-67426342D01*
X40000000Y-67374000D01*
X40000000Y-61626000D01*
X40020002Y-61557879D01*
X40073658Y-61511386D01*
X40126000Y-61500000D01*
X46374000Y-61500000D01*
X46442121Y-61520002D01*
G37*
G04 #@! TD.AperFunction*
G04 #@! TA.AperFunction,Conductor*
G36*
X50942121Y-53520002D02*
G01*
X50988614Y-53573658D01*
X51000000Y-53626000D01*
X51000000Y-59374000D01*
X50979998Y-59442121D01*
X50926342Y-59488614D01*
X50874000Y-59500000D01*
X44126000Y-59500000D01*
X44057879Y-59479998D01*
X44011386Y-59426342D01*
X44000000Y-59374000D01*
X44000000Y-53626000D01*
X44020002Y-53557879D01*
X44073658Y-53511386D01*
X44126000Y-53500000D01*
X50874000Y-53500000D01*
X50942121Y-53520002D01*
G37*
G04 #@! TD.AperFunction*
G04 #@! TA.AperFunction,Conductor*
G36*
X104491500Y-69737182D02*
G01*
X104471498Y-69805303D01*
X104454595Y-69826277D01*
X94759679Y-79521194D01*
X88709064Y-85571809D01*
X88646752Y-85605835D01*
X88575937Y-85600770D01*
X88519101Y-85558223D01*
X88498502Y-85502995D01*
X88497916Y-85502084D01*
X88500000Y-85500000D01*
X85500000Y-82500000D01*
X81500000Y-82500000D01*
X79500000Y-84500000D01*
X79500000Y-89365500D01*
X79479998Y-89433621D01*
X79426342Y-89480114D01*
X79374000Y-89491500D01*
X53659829Y-89491500D01*
X53591708Y-89471498D01*
X53545215Y-89417842D01*
X53535111Y-89347568D01*
X53564448Y-89283169D01*
X53643144Y-89191999D01*
X53647171Y-89187334D01*
X53739485Y-89024831D01*
X53753755Y-88981936D01*
X53787856Y-88879423D01*
X53798478Y-88847493D01*
X53804217Y-88802063D01*
X53821460Y-88665577D01*
X53821461Y-88665568D01*
X53821902Y-88662074D01*
X53822275Y-88635336D01*
X53804037Y-88449335D01*
X53800083Y-88436237D01*
X53762603Y-88312099D01*
X53750019Y-88270419D01*
X53669904Y-88119743D01*
X53655585Y-88050205D01*
X53681133Y-87983965D01*
X53738438Y-87942052D01*
X53796075Y-87935476D01*
X53910704Y-87949144D01*
X53979945Y-87957401D01*
X53986080Y-87956929D01*
X53986082Y-87956929D01*
X54042119Y-87952617D01*
X54166287Y-87943063D01*
X54346296Y-87892804D01*
X54351785Y-87890031D01*
X54351791Y-87890029D01*
X54447977Y-87841441D01*
X54513114Y-87808538D01*
X54541524Y-87786342D01*
X54594551Y-87744912D01*
X54660387Y-87693475D01*
X54664413Y-87688811D01*
X54664416Y-87688808D01*
X54778480Y-87556663D01*
X54782507Y-87551998D01*
X54831764Y-87465290D01*
X54871778Y-87394852D01*
X54871779Y-87394851D01*
X54874821Y-87389495D01*
X54879942Y-87374100D01*
X54920422Y-87315777D01*
X54986010Y-87288596D01*
X55055880Y-87301190D01*
X55107851Y-87349559D01*
X55111567Y-87356278D01*
X55170046Y-87470066D01*
X55195064Y-87518746D01*
X55198887Y-87523570D01*
X55198890Y-87523574D01*
X55268671Y-87611615D01*
X55311152Y-87665212D01*
X55315846Y-87669207D01*
X55349417Y-87697778D01*
X55453478Y-87786342D01*
X55616621Y-87877519D01*
X55794367Y-87935272D01*
X55979945Y-87957401D01*
X55986080Y-87956929D01*
X55986082Y-87956929D01*
X56042119Y-87952617D01*
X56166287Y-87943063D01*
X56346296Y-87892804D01*
X56351785Y-87890031D01*
X56351791Y-87890029D01*
X56447977Y-87841441D01*
X56513114Y-87808538D01*
X56541524Y-87786342D01*
X56594551Y-87744912D01*
X56660387Y-87693475D01*
X56664413Y-87688811D01*
X56664416Y-87688808D01*
X56778480Y-87556663D01*
X56782507Y-87551998D01*
X56831764Y-87465290D01*
X56871778Y-87394852D01*
X56871779Y-87394851D01*
X56874821Y-87389495D01*
X56886654Y-87353926D01*
X56908386Y-87288596D01*
X56933814Y-87212157D01*
X56945808Y-87117214D01*
X56956796Y-87030241D01*
X56956797Y-87030232D01*
X56957238Y-87026738D01*
X56957611Y-87000000D01*
X65266807Y-87000000D01*
X65285542Y-87214142D01*
X65286966Y-87219455D01*
X65286966Y-87219457D01*
X65322621Y-87352520D01*
X65341178Y-87421777D01*
X65343500Y-87426757D01*
X65343501Y-87426759D01*
X65404077Y-87556663D01*
X65432024Y-87616596D01*
X65555319Y-87792681D01*
X65707319Y-87944681D01*
X65883403Y-88067976D01*
X65888381Y-88070297D01*
X65888384Y-88070299D01*
X66038035Y-88140082D01*
X66078223Y-88158822D01*
X66083531Y-88160244D01*
X66083533Y-88160245D01*
X66280543Y-88213034D01*
X66280545Y-88213034D01*
X66285858Y-88214458D01*
X66500000Y-88233193D01*
X66714142Y-88214458D01*
X66719455Y-88213034D01*
X66719457Y-88213034D01*
X66916467Y-88160245D01*
X66916469Y-88160244D01*
X66921777Y-88158822D01*
X66961965Y-88140082D01*
X67111616Y-88070299D01*
X67111619Y-88070297D01*
X67116597Y-88067976D01*
X67232771Y-87986630D01*
X69042482Y-87986630D01*
X69042998Y-87992774D01*
X69056942Y-88158822D01*
X69058121Y-88172867D01*
X69109636Y-88352520D01*
X69195064Y-88518746D01*
X69198887Y-88523570D01*
X69198890Y-88523574D01*
X69304170Y-88656402D01*
X69311152Y-88665212D01*
X69315846Y-88669207D01*
X69348819Y-88697269D01*
X69453478Y-88786342D01*
X69616621Y-88877519D01*
X69794367Y-88935272D01*
X69979945Y-88957401D01*
X69986080Y-88956929D01*
X69986082Y-88956929D01*
X70042119Y-88952617D01*
X70166287Y-88943063D01*
X70346296Y-88892804D01*
X70351785Y-88890031D01*
X70351791Y-88890029D01*
X70448112Y-88841373D01*
X70513114Y-88808538D01*
X70541524Y-88786342D01*
X70565486Y-88767621D01*
X70660387Y-88693475D01*
X70664413Y-88688811D01*
X70664416Y-88688808D01*
X70778480Y-88556663D01*
X70782507Y-88551998D01*
X70874821Y-88389495D01*
X70889091Y-88346600D01*
X70926816Y-88233193D01*
X70933814Y-88212157D01*
X70945489Y-88119743D01*
X70956796Y-88030241D01*
X70956797Y-88030232D01*
X70957238Y-88026738D01*
X70957611Y-88000000D01*
X70939373Y-87813999D01*
X70936580Y-87804746D01*
X70904284Y-87697778D01*
X70885355Y-87635083D01*
X70797615Y-87470066D01*
X70784727Y-87454264D01*
X70683388Y-87330010D01*
X70683385Y-87330007D01*
X70679493Y-87325235D01*
X70674744Y-87321306D01*
X70540239Y-87210034D01*
X70540236Y-87210032D01*
X70535489Y-87206105D01*
X70371089Y-87117214D01*
X70281821Y-87089581D01*
X70198441Y-87063770D01*
X70198438Y-87063769D01*
X70192554Y-87061948D01*
X70186429Y-87061304D01*
X70186428Y-87061304D01*
X70012813Y-87043056D01*
X70012812Y-87043056D01*
X70006685Y-87042412D01*
X69888087Y-87053206D01*
X69826703Y-87058792D01*
X69826702Y-87058792D01*
X69820562Y-87059351D01*
X69814648Y-87061092D01*
X69814646Y-87061092D01*
X69692466Y-87097052D01*
X69641273Y-87112119D01*
X69475647Y-87198705D01*
X69329995Y-87315813D01*
X69209862Y-87458981D01*
X69206899Y-87464370D01*
X69206896Y-87464375D01*
X69182856Y-87508105D01*
X69119826Y-87622757D01*
X69063315Y-87800901D01*
X69042482Y-87986630D01*
X67232771Y-87986630D01*
X67292681Y-87944681D01*
X67444681Y-87792681D01*
X67567976Y-87616596D01*
X67595924Y-87556663D01*
X67656499Y-87426759D01*
X67656500Y-87426757D01*
X67658822Y-87421777D01*
X67677380Y-87352520D01*
X67713034Y-87219457D01*
X67713034Y-87219455D01*
X67714458Y-87214142D01*
X67733193Y-87000000D01*
X67714458Y-86785858D01*
X67694146Y-86710052D01*
X67660245Y-86583533D01*
X67660244Y-86583531D01*
X67658822Y-86578223D01*
X67656499Y-86573241D01*
X67570299Y-86388385D01*
X67570297Y-86388382D01*
X67567976Y-86383404D01*
X67444681Y-86207319D01*
X67292681Y-86055319D01*
X67116597Y-85932024D01*
X67111619Y-85929703D01*
X67111616Y-85929701D01*
X66928247Y-85844195D01*
X66874962Y-85797278D01*
X66855501Y-85729000D01*
X66876043Y-85661041D01*
X66928247Y-85615805D01*
X67111616Y-85530299D01*
X67111619Y-85530297D01*
X67116597Y-85527976D01*
X67292681Y-85404681D01*
X67444681Y-85252681D01*
X67567976Y-85076596D01*
X67603694Y-85000000D01*
X67656499Y-84886759D01*
X67656500Y-84886757D01*
X67658822Y-84881777D01*
X67676520Y-84815730D01*
X67713034Y-84679457D01*
X67713034Y-84679455D01*
X67714458Y-84674142D01*
X67733193Y-84460000D01*
X67714458Y-84245858D01*
X67698368Y-84185810D01*
X67660245Y-84043533D01*
X67660244Y-84043531D01*
X67658822Y-84038223D01*
X67642174Y-84002521D01*
X67570299Y-83848385D01*
X67570297Y-83848382D01*
X67567976Y-83843404D01*
X67444681Y-83667319D01*
X67292681Y-83515319D01*
X67116597Y-83392024D01*
X67111619Y-83389703D01*
X67111616Y-83389701D01*
X66928247Y-83304195D01*
X66874962Y-83257278D01*
X66855501Y-83189000D01*
X66876043Y-83121041D01*
X66928247Y-83075805D01*
X67111616Y-82990299D01*
X67111619Y-82990297D01*
X67116597Y-82987976D01*
X67292681Y-82864681D01*
X67444681Y-82712681D01*
X67567976Y-82536596D01*
X67583551Y-82503197D01*
X67656499Y-82346759D01*
X67656500Y-82346757D01*
X67658822Y-82341777D01*
X67688638Y-82230505D01*
X67713034Y-82139457D01*
X67713034Y-82139455D01*
X67714458Y-82134142D01*
X67733193Y-81920000D01*
X67714458Y-81705858D01*
X67713034Y-81700543D01*
X67660245Y-81503533D01*
X67660244Y-81503531D01*
X67658822Y-81498223D01*
X67635731Y-81448705D01*
X67570299Y-81308385D01*
X67570297Y-81308382D01*
X67567976Y-81303404D01*
X67444681Y-81127319D01*
X67292681Y-80975319D01*
X67116597Y-80852024D01*
X67111619Y-80849703D01*
X67111616Y-80849701D01*
X66926759Y-80763501D01*
X66926758Y-80763500D01*
X66921777Y-80761178D01*
X66916469Y-80759756D01*
X66916467Y-80759755D01*
X66719457Y-80706966D01*
X66719455Y-80706966D01*
X66714142Y-80705542D01*
X66500000Y-80686807D01*
X66285858Y-80705542D01*
X66280545Y-80706966D01*
X66280543Y-80706966D01*
X66083533Y-80759755D01*
X66083531Y-80759756D01*
X66078223Y-80761178D01*
X66073243Y-80763500D01*
X66073241Y-80763501D01*
X65888385Y-80849701D01*
X65888382Y-80849703D01*
X65883404Y-80852024D01*
X65707319Y-80975319D01*
X65555319Y-81127319D01*
X65432024Y-81303404D01*
X65429703Y-81308382D01*
X65429701Y-81308385D01*
X65364269Y-81448705D01*
X65341178Y-81498223D01*
X65339756Y-81503531D01*
X65339755Y-81503533D01*
X65286966Y-81700543D01*
X65285542Y-81705858D01*
X65266807Y-81920000D01*
X65285542Y-82134142D01*
X65286966Y-82139455D01*
X65286966Y-82139457D01*
X65311363Y-82230505D01*
X65341178Y-82341777D01*
X65343500Y-82346757D01*
X65343501Y-82346759D01*
X65416450Y-82503197D01*
X65432024Y-82536596D01*
X65555319Y-82712681D01*
X65707319Y-82864681D01*
X65883403Y-82987976D01*
X65888381Y-82990297D01*
X65888384Y-82990299D01*
X66071753Y-83075805D01*
X66125038Y-83122722D01*
X66144499Y-83191000D01*
X66123957Y-83258959D01*
X66071753Y-83304195D01*
X65888385Y-83389701D01*
X65888382Y-83389703D01*
X65883404Y-83392024D01*
X65707319Y-83515319D01*
X65555319Y-83667319D01*
X65432024Y-83843404D01*
X65429703Y-83848382D01*
X65429701Y-83848385D01*
X65357826Y-84002521D01*
X65341178Y-84038223D01*
X65339756Y-84043531D01*
X65339755Y-84043533D01*
X65301632Y-84185810D01*
X65285542Y-84245858D01*
X65266807Y-84460000D01*
X65285542Y-84674142D01*
X65286966Y-84679455D01*
X65286966Y-84679457D01*
X65323481Y-84815730D01*
X65341178Y-84881777D01*
X65343500Y-84886757D01*
X65343501Y-84886759D01*
X65396307Y-85000000D01*
X65432024Y-85076596D01*
X65555319Y-85252681D01*
X65707319Y-85404681D01*
X65883403Y-85527976D01*
X65888381Y-85530297D01*
X65888384Y-85530299D01*
X66071753Y-85615805D01*
X66125038Y-85662722D01*
X66144499Y-85731000D01*
X66123957Y-85798959D01*
X66071753Y-85844195D01*
X65888385Y-85929701D01*
X65888382Y-85929703D01*
X65883404Y-85932024D01*
X65707319Y-86055319D01*
X65555319Y-86207319D01*
X65432024Y-86383404D01*
X65429703Y-86388382D01*
X65429701Y-86388385D01*
X65343501Y-86573241D01*
X65341178Y-86578223D01*
X65339756Y-86583531D01*
X65339755Y-86583533D01*
X65305854Y-86710052D01*
X65285542Y-86785858D01*
X65266807Y-87000000D01*
X56957611Y-87000000D01*
X56939373Y-86813999D01*
X56935419Y-86800901D01*
X56916760Y-86739103D01*
X56885355Y-86635083D01*
X56797615Y-86470066D01*
X56784727Y-86454264D01*
X56683388Y-86330010D01*
X56683385Y-86330007D01*
X56679493Y-86325235D01*
X56674744Y-86321306D01*
X56540239Y-86210034D01*
X56540236Y-86210032D01*
X56535489Y-86206105D01*
X56371089Y-86117214D01*
X56281822Y-86089581D01*
X56198441Y-86063770D01*
X56198438Y-86063769D01*
X56192554Y-86061948D01*
X56186429Y-86061304D01*
X56186428Y-86061304D01*
X56012813Y-86043056D01*
X56012812Y-86043056D01*
X56006685Y-86042412D01*
X55899576Y-86052160D01*
X55826703Y-86058792D01*
X55826702Y-86058792D01*
X55820562Y-86059351D01*
X55814648Y-86061092D01*
X55814646Y-86061092D01*
X55692466Y-86097052D01*
X55641273Y-86112119D01*
X55635808Y-86114976D01*
X55502938Y-86184438D01*
X55475647Y-86198705D01*
X55329995Y-86315813D01*
X55209862Y-86458981D01*
X55206899Y-86464370D01*
X55206896Y-86464375D01*
X55141389Y-86583533D01*
X55119826Y-86622757D01*
X55117963Y-86628629D01*
X55115781Y-86633721D01*
X55070562Y-86688455D01*
X55002930Y-86710052D01*
X54934358Y-86691656D01*
X54886617Y-86639108D01*
X54886474Y-86638788D01*
X54885355Y-86635083D01*
X54797615Y-86470066D01*
X54784727Y-86454264D01*
X54683388Y-86330010D01*
X54683385Y-86330007D01*
X54679493Y-86325235D01*
X54674744Y-86321306D01*
X54540239Y-86210034D01*
X54540236Y-86210032D01*
X54535489Y-86206105D01*
X54371089Y-86117214D01*
X54281822Y-86089581D01*
X54198441Y-86063770D01*
X54198438Y-86063769D01*
X54192554Y-86061948D01*
X54186429Y-86061304D01*
X54186428Y-86061304D01*
X54012813Y-86043056D01*
X54012812Y-86043056D01*
X54006685Y-86042412D01*
X53899576Y-86052160D01*
X53826703Y-86058792D01*
X53826702Y-86058792D01*
X53820562Y-86059351D01*
X53814648Y-86061092D01*
X53814646Y-86061092D01*
X53692466Y-86097052D01*
X53641273Y-86112119D01*
X53635808Y-86114976D01*
X53502938Y-86184438D01*
X53475647Y-86198705D01*
X53329995Y-86315813D01*
X53209862Y-86458981D01*
X53206899Y-86464370D01*
X53206896Y-86464375D01*
X53147047Y-86573241D01*
X53119826Y-86622757D01*
X53117965Y-86628624D01*
X53117964Y-86628626D01*
X53097970Y-86691656D01*
X53063315Y-86800901D01*
X53042482Y-86986630D01*
X53044156Y-87006565D01*
X53056352Y-87151797D01*
X53058121Y-87172867D01*
X53109636Y-87352520D01*
X53182056Y-87493435D01*
X53194043Y-87516759D01*
X53207390Y-87586489D01*
X53180920Y-87652367D01*
X53123035Y-87693475D01*
X53058437Y-87697661D01*
X53057218Y-87697284D01*
X53051097Y-87696641D01*
X53051094Y-87696640D01*
X52877477Y-87678392D01*
X52877476Y-87678392D01*
X52871349Y-87677748D01*
X52752751Y-87688542D01*
X52691367Y-87694128D01*
X52691366Y-87694128D01*
X52685226Y-87694687D01*
X52679312Y-87696428D01*
X52679310Y-87696428D01*
X52505937Y-87747455D01*
X52505189Y-87744912D01*
X52445976Y-87750750D01*
X52382772Y-87718411D01*
X52347085Y-87657036D01*
X52344131Y-87613783D01*
X52355400Y-87506565D01*
X52356090Y-87500000D01*
X52343861Y-87383650D01*
X52338072Y-87328573D01*
X52338072Y-87328572D01*
X52337382Y-87322009D01*
X52282077Y-87151797D01*
X52262111Y-87117214D01*
X52231254Y-87063770D01*
X52192591Y-86996803D01*
X52072836Y-86863801D01*
X52015315Y-86822009D01*
X51933387Y-86762485D01*
X51933386Y-86762484D01*
X51928045Y-86758604D01*
X51922017Y-86755920D01*
X51922015Y-86755919D01*
X51770577Y-86688495D01*
X51770576Y-86688495D01*
X51764546Y-86685810D01*
X51677016Y-86667205D01*
X51595943Y-86649972D01*
X51595939Y-86649972D01*
X51589486Y-86648600D01*
X51410514Y-86648600D01*
X51404061Y-86649972D01*
X51404057Y-86649972D01*
X51322984Y-86667205D01*
X51235454Y-86685810D01*
X51229424Y-86688495D01*
X51229423Y-86688495D01*
X51077985Y-86755919D01*
X51077983Y-86755920D01*
X51071955Y-86758604D01*
X51066614Y-86762484D01*
X51066613Y-86762485D01*
X50984686Y-86822009D01*
X50927164Y-86863801D01*
X50807409Y-86996803D01*
X50768746Y-87063770D01*
X50737890Y-87117214D01*
X50717923Y-87151797D01*
X50662618Y-87322009D01*
X50661928Y-87328572D01*
X50661928Y-87328573D01*
X50656139Y-87383650D01*
X50643910Y-87500000D01*
X50644600Y-87506565D01*
X50658634Y-87640082D01*
X50662618Y-87677991D01*
X50664658Y-87684269D01*
X50664658Y-87684270D01*
X50668677Y-87696640D01*
X50717923Y-87848203D01*
X50721226Y-87853925D01*
X50721227Y-87853926D01*
X50734849Y-87877519D01*
X50807409Y-88003197D01*
X50811827Y-88008104D01*
X50811828Y-88008105D01*
X50899434Y-88105402D01*
X50927164Y-88136199D01*
X50932506Y-88140080D01*
X50932508Y-88140082D01*
X51066613Y-88237515D01*
X51071955Y-88241396D01*
X51077983Y-88244080D01*
X51077985Y-88244081D01*
X51229423Y-88311505D01*
X51235454Y-88314190D01*
X51322984Y-88332795D01*
X51404057Y-88350028D01*
X51404061Y-88350028D01*
X51410514Y-88351400D01*
X51589486Y-88351400D01*
X51595939Y-88350028D01*
X51595943Y-88350028D01*
X51758092Y-88315562D01*
X51758093Y-88315562D01*
X51764546Y-88314190D01*
X51764837Y-88314060D01*
X51833475Y-88312099D01*
X51894273Y-88348762D01*
X51925599Y-88412474D01*
X51926659Y-88448005D01*
X51918183Y-88523574D01*
X51907146Y-88621966D01*
X51907662Y-88628110D01*
X51921202Y-88789348D01*
X51922785Y-88808203D01*
X51974300Y-88987856D01*
X52059728Y-89154082D01*
X52063551Y-89158906D01*
X52063554Y-89158910D01*
X52165264Y-89287235D01*
X52191902Y-89353045D01*
X52178731Y-89422810D01*
X52129934Y-89474378D01*
X52066519Y-89491500D01*
X32626000Y-89491500D01*
X32557879Y-89471498D01*
X32511386Y-89417842D01*
X32500000Y-89365500D01*
X32500000Y-87000000D01*
X44143910Y-87000000D01*
X44144600Y-87006565D01*
X44148427Y-87042971D01*
X44162618Y-87177991D01*
X44164658Y-87184269D01*
X44164658Y-87184270D01*
X44176091Y-87219457D01*
X44217923Y-87348203D01*
X44221226Y-87353925D01*
X44221227Y-87353926D01*
X44232876Y-87374102D01*
X44307409Y-87503197D01*
X44311827Y-87508104D01*
X44311828Y-87508105D01*
X44409513Y-87616596D01*
X44427164Y-87636199D01*
X44432506Y-87640080D01*
X44432508Y-87640082D01*
X44511219Y-87697269D01*
X44571955Y-87741396D01*
X44577983Y-87744080D01*
X44577985Y-87744081D01*
X44722759Y-87808538D01*
X44735454Y-87814190D01*
X44822984Y-87832795D01*
X44904057Y-87850028D01*
X44904061Y-87850028D01*
X44910514Y-87851400D01*
X45089486Y-87851400D01*
X45095939Y-87850028D01*
X45095943Y-87850028D01*
X45177016Y-87832795D01*
X45264546Y-87814190D01*
X45277241Y-87808538D01*
X45422015Y-87744081D01*
X45422017Y-87744080D01*
X45428045Y-87741396D01*
X45488781Y-87697269D01*
X45567492Y-87640082D01*
X45567494Y-87640080D01*
X45572836Y-87636199D01*
X45590487Y-87616596D01*
X45688172Y-87508105D01*
X45688173Y-87508104D01*
X45692591Y-87503197D01*
X45767124Y-87374102D01*
X45778773Y-87353926D01*
X45778774Y-87353925D01*
X45782077Y-87348203D01*
X45823909Y-87219457D01*
X45835342Y-87184270D01*
X45835342Y-87184269D01*
X45837382Y-87177991D01*
X45851574Y-87042971D01*
X45855400Y-87006565D01*
X45856090Y-87000000D01*
X45841775Y-86863801D01*
X45838072Y-86828573D01*
X45838072Y-86828572D01*
X45837382Y-86822009D01*
X45834780Y-86813999D01*
X45784119Y-86658082D01*
X45782077Y-86651797D01*
X45770706Y-86632101D01*
X45695892Y-86502521D01*
X45692591Y-86496803D01*
X45594972Y-86388385D01*
X45577258Y-86368712D01*
X45577257Y-86368711D01*
X45572836Y-86363801D01*
X45513285Y-86320534D01*
X45433387Y-86262485D01*
X45433386Y-86262484D01*
X45428045Y-86258604D01*
X45422017Y-86255920D01*
X45422015Y-86255919D01*
X45270577Y-86188495D01*
X45270576Y-86188495D01*
X45264546Y-86185810D01*
X45177016Y-86167205D01*
X45095943Y-86149972D01*
X45095939Y-86149972D01*
X45089486Y-86148600D01*
X44910514Y-86148600D01*
X44904061Y-86149972D01*
X44904057Y-86149972D01*
X44822984Y-86167205D01*
X44735454Y-86185810D01*
X44729424Y-86188495D01*
X44729423Y-86188495D01*
X44577985Y-86255919D01*
X44577983Y-86255920D01*
X44571955Y-86258604D01*
X44566614Y-86262484D01*
X44566613Y-86262485D01*
X44486716Y-86320534D01*
X44427164Y-86363801D01*
X44422743Y-86368711D01*
X44422742Y-86368712D01*
X44405029Y-86388385D01*
X44307409Y-86496803D01*
X44304108Y-86502521D01*
X44229295Y-86632101D01*
X44217923Y-86651797D01*
X44215881Y-86658082D01*
X44165221Y-86813999D01*
X44162618Y-86822009D01*
X44161928Y-86828572D01*
X44161928Y-86828573D01*
X44158225Y-86863801D01*
X44143910Y-87000000D01*
X32500000Y-87000000D01*
X32500000Y-85000000D01*
X40643910Y-85000000D01*
X40644600Y-85006565D01*
X40658634Y-85140082D01*
X40662618Y-85177991D01*
X40717923Y-85348203D01*
X40807409Y-85503197D01*
X40811827Y-85508104D01*
X40811828Y-85508105D01*
X40856954Y-85558223D01*
X40927164Y-85636199D01*
X40932506Y-85640080D01*
X40932508Y-85640082D01*
X41005609Y-85693193D01*
X41071955Y-85741396D01*
X41077983Y-85744080D01*
X41077985Y-85744081D01*
X41201244Y-85798959D01*
X41235454Y-85814190D01*
X41322984Y-85832795D01*
X41404057Y-85850028D01*
X41404061Y-85850028D01*
X41410514Y-85851400D01*
X41589486Y-85851400D01*
X41595939Y-85850028D01*
X41595943Y-85850028D01*
X41677016Y-85832795D01*
X41764546Y-85814190D01*
X41798756Y-85798959D01*
X41922015Y-85744081D01*
X41922017Y-85744080D01*
X41928045Y-85741396D01*
X41994391Y-85693193D01*
X42067492Y-85640082D01*
X42067494Y-85640080D01*
X42072836Y-85636199D01*
X42143046Y-85558223D01*
X42188172Y-85508105D01*
X42188173Y-85508104D01*
X42192591Y-85503197D01*
X42282077Y-85348203D01*
X42337382Y-85177991D01*
X42341367Y-85140082D01*
X42355400Y-85006565D01*
X42356090Y-85000000D01*
X42337382Y-84822009D01*
X42282077Y-84651797D01*
X42194437Y-84500000D01*
X59143910Y-84500000D01*
X59162618Y-84677991D01*
X59217923Y-84848203D01*
X59307409Y-85003197D01*
X59311827Y-85008104D01*
X59311828Y-85008105D01*
X59373497Y-85076596D01*
X59427164Y-85136199D01*
X59432506Y-85140080D01*
X59432508Y-85140082D01*
X59493328Y-85184270D01*
X59571955Y-85241396D01*
X59577983Y-85244080D01*
X59577985Y-85244081D01*
X59729423Y-85311505D01*
X59735454Y-85314190D01*
X59822984Y-85332795D01*
X59904057Y-85350028D01*
X59904061Y-85350028D01*
X59910514Y-85351400D01*
X60089486Y-85351400D01*
X60095939Y-85350028D01*
X60095943Y-85350028D01*
X60177016Y-85332795D01*
X60264546Y-85314190D01*
X60270577Y-85311505D01*
X60422015Y-85244081D01*
X60422017Y-85244080D01*
X60428045Y-85241396D01*
X60506672Y-85184270D01*
X60567492Y-85140082D01*
X60567494Y-85140080D01*
X60572836Y-85136199D01*
X60626503Y-85076596D01*
X60688172Y-85008105D01*
X60688173Y-85008104D01*
X60692591Y-85003197D01*
X60782077Y-84848203D01*
X60837382Y-84677991D01*
X60856090Y-84500000D01*
X60841775Y-84363801D01*
X60838072Y-84328573D01*
X60838072Y-84328572D01*
X60837382Y-84322009D01*
X60782077Y-84151797D01*
X60692591Y-83996803D01*
X60572836Y-83863801D01*
X60538562Y-83838899D01*
X60433387Y-83762485D01*
X60433386Y-83762484D01*
X60428045Y-83758604D01*
X60422017Y-83755920D01*
X60422015Y-83755919D01*
X60270577Y-83688495D01*
X60270576Y-83688495D01*
X60264546Y-83685810D01*
X60159228Y-83663424D01*
X60095943Y-83649972D01*
X60095939Y-83649972D01*
X60089486Y-83648600D01*
X59910514Y-83648600D01*
X59904061Y-83649972D01*
X59904057Y-83649972D01*
X59840772Y-83663424D01*
X59735454Y-83685810D01*
X59729424Y-83688495D01*
X59729423Y-83688495D01*
X59577985Y-83755919D01*
X59577983Y-83755920D01*
X59571955Y-83758604D01*
X59566614Y-83762484D01*
X59566613Y-83762485D01*
X59461439Y-83838899D01*
X59427164Y-83863801D01*
X59307409Y-83996803D01*
X59217923Y-84151797D01*
X59162618Y-84322009D01*
X59161928Y-84328572D01*
X59161928Y-84328573D01*
X59158225Y-84363801D01*
X59143910Y-84500000D01*
X42194437Y-84500000D01*
X42192591Y-84496803D01*
X42072836Y-84363801D01*
X42015315Y-84322009D01*
X41933387Y-84262485D01*
X41933386Y-84262484D01*
X41928045Y-84258604D01*
X41922017Y-84255920D01*
X41922015Y-84255919D01*
X41770577Y-84188495D01*
X41770576Y-84188495D01*
X41764546Y-84185810D01*
X41677016Y-84167205D01*
X41595943Y-84149972D01*
X41595939Y-84149972D01*
X41589486Y-84148600D01*
X41410514Y-84148600D01*
X41404061Y-84149972D01*
X41404057Y-84149972D01*
X41322984Y-84167205D01*
X41235454Y-84185810D01*
X41229424Y-84188495D01*
X41229423Y-84188495D01*
X41077985Y-84255919D01*
X41077983Y-84255920D01*
X41071955Y-84258604D01*
X41066614Y-84262484D01*
X41066613Y-84262485D01*
X40984686Y-84322009D01*
X40927164Y-84363801D01*
X40807409Y-84496803D01*
X40717923Y-84651797D01*
X40662618Y-84822009D01*
X40643910Y-85000000D01*
X32500000Y-85000000D01*
X32500000Y-84500000D01*
X30500000Y-82500000D01*
X25634500Y-82500000D01*
X25566379Y-82479998D01*
X25519886Y-82426342D01*
X25508500Y-82374000D01*
X25508500Y-82236630D01*
X43953482Y-82236630D01*
X43953998Y-82242774D01*
X43962312Y-82341777D01*
X43969121Y-82422867D01*
X44020636Y-82602520D01*
X44039940Y-82640082D01*
X44090014Y-82737515D01*
X44106064Y-82768746D01*
X44109887Y-82773570D01*
X44109890Y-82773574D01*
X44171575Y-82851400D01*
X44222152Y-82915212D01*
X44226846Y-82919207D01*
X44307649Y-82987976D01*
X44364478Y-83036342D01*
X44527621Y-83127519D01*
X44705367Y-83185272D01*
X44890945Y-83207401D01*
X44897080Y-83206929D01*
X44897082Y-83206929D01*
X44953119Y-83202617D01*
X45077287Y-83193063D01*
X45257296Y-83142804D01*
X45262785Y-83140031D01*
X45262791Y-83140029D01*
X45340159Y-83100947D01*
X45424114Y-83058538D01*
X45452524Y-83036342D01*
X45511455Y-82990299D01*
X45571387Y-82943475D01*
X45575413Y-82938811D01*
X45575416Y-82938808D01*
X45689480Y-82806663D01*
X45693507Y-82801998D01*
X45785821Y-82639495D01*
X45800091Y-82596600D01*
X45842867Y-82468009D01*
X45844814Y-82462157D01*
X45859210Y-82348203D01*
X45867796Y-82280241D01*
X45867797Y-82280232D01*
X45868238Y-82276738D01*
X45868611Y-82250000D01*
X45850373Y-82063999D01*
X45846419Y-82050901D01*
X45831051Y-82000000D01*
X50643910Y-82000000D01*
X50662618Y-82177991D01*
X50717923Y-82348203D01*
X50807409Y-82503197D01*
X50811827Y-82508104D01*
X50811828Y-82508105D01*
X50837481Y-82536596D01*
X50927164Y-82636199D01*
X50932506Y-82640080D01*
X50932508Y-82640082D01*
X51026222Y-82708169D01*
X51071955Y-82741396D01*
X51077983Y-82744080D01*
X51077985Y-82744081D01*
X51133384Y-82768746D01*
X51235454Y-82814190D01*
X51322984Y-82832795D01*
X51404057Y-82850028D01*
X51404061Y-82850028D01*
X51410514Y-82851400D01*
X51589486Y-82851400D01*
X51595939Y-82850028D01*
X51595943Y-82850028D01*
X51677016Y-82832795D01*
X51764546Y-82814190D01*
X51866616Y-82768746D01*
X51922015Y-82744081D01*
X51922017Y-82744080D01*
X51928045Y-82741396D01*
X51973778Y-82708169D01*
X52067492Y-82640082D01*
X52067494Y-82640080D01*
X52072836Y-82636199D01*
X52162519Y-82536596D01*
X52188172Y-82508105D01*
X52188173Y-82508104D01*
X52192591Y-82503197D01*
X52282077Y-82348203D01*
X52337382Y-82177991D01*
X52356090Y-82000000D01*
X59143910Y-82000000D01*
X59162618Y-82177991D01*
X59217923Y-82348203D01*
X59307409Y-82503197D01*
X59311827Y-82508104D01*
X59311828Y-82508105D01*
X59337481Y-82536596D01*
X59427164Y-82636199D01*
X59432506Y-82640080D01*
X59432508Y-82640082D01*
X59526222Y-82708169D01*
X59571955Y-82741396D01*
X59577983Y-82744080D01*
X59577985Y-82744081D01*
X59633384Y-82768746D01*
X59735454Y-82814190D01*
X59822984Y-82832795D01*
X59904057Y-82850028D01*
X59904061Y-82850028D01*
X59910514Y-82851400D01*
X60089486Y-82851400D01*
X60095939Y-82850028D01*
X60095943Y-82850028D01*
X60177016Y-82832795D01*
X60264546Y-82814190D01*
X60366616Y-82768746D01*
X60422015Y-82744081D01*
X60422017Y-82744080D01*
X60428045Y-82741396D01*
X60473778Y-82708169D01*
X60567492Y-82640082D01*
X60567494Y-82640080D01*
X60572836Y-82636199D01*
X60662519Y-82536596D01*
X60688172Y-82508105D01*
X60688173Y-82508104D01*
X60692591Y-82503197D01*
X60782077Y-82348203D01*
X60837382Y-82177991D01*
X60856090Y-82000000D01*
X60848257Y-81925475D01*
X60838072Y-81828573D01*
X60838072Y-81828572D01*
X60837382Y-81822009D01*
X60782077Y-81651797D01*
X60692591Y-81496803D01*
X60653308Y-81453174D01*
X60577258Y-81368712D01*
X60577257Y-81368711D01*
X60572836Y-81363801D01*
X60503975Y-81313770D01*
X60433387Y-81262485D01*
X60433386Y-81262484D01*
X60428045Y-81258604D01*
X60422017Y-81255920D01*
X60422015Y-81255919D01*
X60270577Y-81188495D01*
X60270576Y-81188495D01*
X60264546Y-81185810D01*
X60177016Y-81167205D01*
X60095943Y-81149972D01*
X60095939Y-81149972D01*
X60089486Y-81148600D01*
X59910514Y-81148600D01*
X59904061Y-81149972D01*
X59904057Y-81149972D01*
X59822984Y-81167205D01*
X59735454Y-81185810D01*
X59729424Y-81188495D01*
X59729423Y-81188495D01*
X59577985Y-81255919D01*
X59577983Y-81255920D01*
X59571955Y-81258604D01*
X59566614Y-81262484D01*
X59566613Y-81262485D01*
X59496026Y-81313770D01*
X59427164Y-81363801D01*
X59422743Y-81368711D01*
X59422742Y-81368712D01*
X59346693Y-81453174D01*
X59307409Y-81496803D01*
X59217923Y-81651797D01*
X59162618Y-81822009D01*
X59161928Y-81828572D01*
X59161928Y-81828573D01*
X59151743Y-81925475D01*
X59143910Y-82000000D01*
X52356090Y-82000000D01*
X52348257Y-81925475D01*
X52338072Y-81828573D01*
X52338072Y-81828572D01*
X52337382Y-81822009D01*
X52282077Y-81651797D01*
X52192591Y-81496803D01*
X52153308Y-81453174D01*
X52077258Y-81368712D01*
X52077257Y-81368711D01*
X52072836Y-81363801D01*
X52003975Y-81313770D01*
X51933387Y-81262485D01*
X51933386Y-81262484D01*
X51928045Y-81258604D01*
X51922017Y-81255920D01*
X51922015Y-81255919D01*
X51770577Y-81188495D01*
X51770576Y-81188495D01*
X51764546Y-81185810D01*
X51677016Y-81167205D01*
X51595943Y-81149972D01*
X51595939Y-81149972D01*
X51589486Y-81148600D01*
X51410514Y-81148600D01*
X51404061Y-81149972D01*
X51404057Y-81149972D01*
X51322984Y-81167205D01*
X51235454Y-81185810D01*
X51229424Y-81188495D01*
X51229423Y-81188495D01*
X51077985Y-81255919D01*
X51077983Y-81255920D01*
X51071955Y-81258604D01*
X51066614Y-81262484D01*
X51066613Y-81262485D01*
X50996026Y-81313770D01*
X50927164Y-81363801D01*
X50922743Y-81368711D01*
X50922742Y-81368712D01*
X50846693Y-81453174D01*
X50807409Y-81496803D01*
X50717923Y-81651797D01*
X50662618Y-81822009D01*
X50661928Y-81828572D01*
X50661928Y-81828573D01*
X50651743Y-81925475D01*
X50643910Y-82000000D01*
X45831051Y-82000000D01*
X45798136Y-81890983D01*
X45796355Y-81885083D01*
X45708615Y-81720066D01*
X45695727Y-81704264D01*
X45594388Y-81580010D01*
X45594385Y-81580007D01*
X45590493Y-81575235D01*
X45585744Y-81571306D01*
X45451239Y-81460034D01*
X45451236Y-81460032D01*
X45446489Y-81456105D01*
X45282089Y-81367214D01*
X45192822Y-81339581D01*
X45109441Y-81313770D01*
X45109438Y-81313769D01*
X45103554Y-81311948D01*
X45097429Y-81311304D01*
X45097428Y-81311304D01*
X44923813Y-81293056D01*
X44923812Y-81293056D01*
X44917685Y-81292412D01*
X44799087Y-81303206D01*
X44737703Y-81308792D01*
X44737702Y-81308792D01*
X44731562Y-81309351D01*
X44725648Y-81311092D01*
X44725646Y-81311092D01*
X44603466Y-81347052D01*
X44552273Y-81362119D01*
X44386647Y-81448705D01*
X44240995Y-81565813D01*
X44120862Y-81708981D01*
X44117899Y-81714370D01*
X44117896Y-81714375D01*
X44058725Y-81822009D01*
X44030826Y-81872757D01*
X44028965Y-81878624D01*
X44028964Y-81878626D01*
X44014103Y-81925475D01*
X43974315Y-82050901D01*
X43953482Y-82236630D01*
X25508500Y-82236630D01*
X25508500Y-76748134D01*
X27791500Y-76748134D01*
X27798255Y-76810316D01*
X27849385Y-76946705D01*
X27936739Y-77063261D01*
X28053295Y-77150615D01*
X28189684Y-77201745D01*
X28251866Y-77208500D01*
X30748134Y-77208500D01*
X30810316Y-77201745D01*
X30946705Y-77150615D01*
X31063261Y-77063261D01*
X31110673Y-77000000D01*
X45143910Y-77000000D01*
X45144600Y-77006565D01*
X45159175Y-77145229D01*
X45162618Y-77177991D01*
X45164658Y-77184269D01*
X45164658Y-77184270D01*
X45166031Y-77188495D01*
X45217923Y-77348203D01*
X45221226Y-77353925D01*
X45221227Y-77353926D01*
X45229764Y-77368712D01*
X45307409Y-77503197D01*
X45427164Y-77636199D01*
X45432506Y-77640080D01*
X45432508Y-77640082D01*
X45510443Y-77696705D01*
X45571955Y-77741396D01*
X45577983Y-77744080D01*
X45577985Y-77744081D01*
X45729423Y-77811505D01*
X45735454Y-77814190D01*
X45822984Y-77832795D01*
X45904057Y-77850028D01*
X45904061Y-77850028D01*
X45910514Y-77851400D01*
X46089486Y-77851400D01*
X46095939Y-77850028D01*
X46095943Y-77850028D01*
X46177016Y-77832795D01*
X46264546Y-77814190D01*
X46270577Y-77811505D01*
X46422015Y-77744081D01*
X46422017Y-77744080D01*
X46428045Y-77741396D01*
X46489557Y-77696705D01*
X46567492Y-77640082D01*
X46567494Y-77640080D01*
X46572836Y-77636199D01*
X46692591Y-77503197D01*
X46770236Y-77368712D01*
X46778773Y-77353926D01*
X46778774Y-77353925D01*
X46782077Y-77348203D01*
X46833969Y-77188495D01*
X46835342Y-77184270D01*
X46835342Y-77184269D01*
X46837382Y-77177991D01*
X46840826Y-77145229D01*
X46855400Y-77006565D01*
X46856090Y-77000000D01*
X46837382Y-76822009D01*
X46782077Y-76651797D01*
X46692591Y-76496803D01*
X46572836Y-76363801D01*
X46553880Y-76350028D01*
X46433387Y-76262485D01*
X46433386Y-76262484D01*
X46428045Y-76258604D01*
X46422017Y-76255920D01*
X46422015Y-76255919D01*
X46270577Y-76188495D01*
X46270576Y-76188495D01*
X46264546Y-76185810D01*
X46177016Y-76167205D01*
X46095943Y-76149972D01*
X46095939Y-76149972D01*
X46089486Y-76148600D01*
X45910514Y-76148600D01*
X45904061Y-76149972D01*
X45904057Y-76149972D01*
X45822984Y-76167205D01*
X45735454Y-76185810D01*
X45729424Y-76188495D01*
X45729423Y-76188495D01*
X45577985Y-76255919D01*
X45577983Y-76255920D01*
X45571955Y-76258604D01*
X45566614Y-76262484D01*
X45566613Y-76262485D01*
X45446121Y-76350028D01*
X45427164Y-76363801D01*
X45307409Y-76496803D01*
X45217923Y-76651797D01*
X45162618Y-76822009D01*
X45143910Y-77000000D01*
X31110673Y-77000000D01*
X31150615Y-76946705D01*
X31201745Y-76810316D01*
X31208500Y-76748134D01*
X31208500Y-74601597D01*
X46643910Y-74601597D01*
X46644600Y-74608162D01*
X46653044Y-74688495D01*
X46662618Y-74779588D01*
X46717923Y-74949800D01*
X46807409Y-75104794D01*
X46811827Y-75109701D01*
X46811828Y-75109702D01*
X46922742Y-75232885D01*
X46927164Y-75237796D01*
X46932506Y-75241677D01*
X46932508Y-75241679D01*
X47066613Y-75339112D01*
X47071955Y-75342993D01*
X47077983Y-75345677D01*
X47077985Y-75345678D01*
X47229423Y-75413102D01*
X47235454Y-75415787D01*
X47322984Y-75434392D01*
X47404057Y-75451625D01*
X47404061Y-75451625D01*
X47410514Y-75452997D01*
X47589486Y-75452997D01*
X47595939Y-75451625D01*
X47595943Y-75451625D01*
X47677016Y-75434392D01*
X47764546Y-75415787D01*
X47770577Y-75413102D01*
X47922015Y-75345678D01*
X47922017Y-75345677D01*
X47928045Y-75342993D01*
X47933387Y-75339112D01*
X48067492Y-75241679D01*
X48067494Y-75241677D01*
X48072836Y-75237796D01*
X48077258Y-75232885D01*
X48188172Y-75109702D01*
X48188173Y-75109701D01*
X48192591Y-75104794D01*
X48282077Y-74949800D01*
X48337382Y-74779588D01*
X48346957Y-74688495D01*
X48355400Y-74608162D01*
X48356090Y-74601597D01*
X48337382Y-74423606D01*
X48282077Y-74253394D01*
X48234447Y-74170896D01*
X48217709Y-74101902D01*
X48234447Y-74044897D01*
X48278773Y-73968123D01*
X48278774Y-73968122D01*
X48282077Y-73962400D01*
X48319822Y-73846233D01*
X48335342Y-73798467D01*
X48335342Y-73798466D01*
X48337382Y-73792188D01*
X48356090Y-73614197D01*
X48337382Y-73436206D01*
X48323145Y-73392387D01*
X48284119Y-73272279D01*
X48282077Y-73265994D01*
X48269426Y-73244081D01*
X48210328Y-73141721D01*
X48192591Y-73111000D01*
X48080715Y-72986748D01*
X48077258Y-72982909D01*
X48077257Y-72982908D01*
X48072836Y-72977998D01*
X48046662Y-72958981D01*
X47933387Y-72876682D01*
X47933386Y-72876681D01*
X47928045Y-72872801D01*
X47922017Y-72870117D01*
X47922015Y-72870116D01*
X47770577Y-72802692D01*
X47770576Y-72802692D01*
X47764546Y-72800007D01*
X47671709Y-72780274D01*
X47595943Y-72764169D01*
X47595939Y-72764169D01*
X47589486Y-72762797D01*
X47410514Y-72762797D01*
X47404061Y-72764169D01*
X47404057Y-72764169D01*
X47328291Y-72780274D01*
X47235454Y-72800007D01*
X47229424Y-72802692D01*
X47229423Y-72802692D01*
X47077985Y-72870116D01*
X47077983Y-72870117D01*
X47071955Y-72872801D01*
X47066614Y-72876681D01*
X47066613Y-72876682D01*
X46953339Y-72958981D01*
X46927164Y-72977998D01*
X46922743Y-72982908D01*
X46922742Y-72982909D01*
X46919286Y-72986748D01*
X46807409Y-73111000D01*
X46789672Y-73141721D01*
X46730575Y-73244081D01*
X46717923Y-73265994D01*
X46715881Y-73272279D01*
X46676856Y-73392387D01*
X46662618Y-73436206D01*
X46643910Y-73614197D01*
X46662618Y-73792188D01*
X46664658Y-73798466D01*
X46664658Y-73798467D01*
X46680178Y-73846233D01*
X46717923Y-73962400D01*
X46721226Y-73968122D01*
X46721227Y-73968123D01*
X46765553Y-74044897D01*
X46782291Y-74113892D01*
X46765553Y-74170896D01*
X46717923Y-74253394D01*
X46662618Y-74423606D01*
X46643910Y-74601597D01*
X31208500Y-74601597D01*
X31208500Y-74251866D01*
X31201745Y-74189684D01*
X31150615Y-74053295D01*
X31063261Y-73936739D01*
X30946705Y-73849385D01*
X30810316Y-73798255D01*
X30748134Y-73791500D01*
X28251866Y-73791500D01*
X28189684Y-73798255D01*
X28053295Y-73849385D01*
X27936739Y-73936739D01*
X27849385Y-74053295D01*
X27798255Y-74189684D01*
X27791500Y-74251866D01*
X27791500Y-76748134D01*
X25508500Y-76748134D01*
X25508500Y-73500000D01*
X42143910Y-73500000D01*
X42144600Y-73506565D01*
X42161749Y-73669719D01*
X42162618Y-73677991D01*
X42164658Y-73684269D01*
X42164658Y-73684270D01*
X42180917Y-73734310D01*
X42217923Y-73848203D01*
X42221226Y-73853925D01*
X42221227Y-73853926D01*
X42238719Y-73884223D01*
X42307409Y-74003197D01*
X42311827Y-74008104D01*
X42311828Y-74008105D01*
X42326330Y-74024211D01*
X42427164Y-74136199D01*
X42432506Y-74140080D01*
X42432508Y-74140082D01*
X42540045Y-74218212D01*
X42571955Y-74241396D01*
X42577983Y-74244080D01*
X42577985Y-74244081D01*
X42729423Y-74311505D01*
X42735454Y-74314190D01*
X42822984Y-74332795D01*
X42904057Y-74350028D01*
X42904061Y-74350028D01*
X42910514Y-74351400D01*
X43089486Y-74351400D01*
X43095939Y-74350028D01*
X43095943Y-74350028D01*
X43177016Y-74332795D01*
X43264546Y-74314190D01*
X43270577Y-74311505D01*
X43422015Y-74244081D01*
X43422017Y-74244080D01*
X43428045Y-74241396D01*
X43459955Y-74218212D01*
X43567492Y-74140082D01*
X43567494Y-74140080D01*
X43572836Y-74136199D01*
X43673670Y-74024211D01*
X43688172Y-74008105D01*
X43688173Y-74008104D01*
X43692591Y-74003197D01*
X43761281Y-73884223D01*
X43778773Y-73853926D01*
X43778774Y-73853925D01*
X43782077Y-73848203D01*
X43819083Y-73734310D01*
X43835342Y-73684270D01*
X43835342Y-73684269D01*
X43837382Y-73677991D01*
X43838252Y-73669719D01*
X43855400Y-73506565D01*
X43856090Y-73500000D01*
X43838397Y-73331665D01*
X43851169Y-73261826D01*
X43899671Y-73209980D01*
X43968504Y-73192585D01*
X44037767Y-73216557D01*
X44071955Y-73241396D01*
X44077983Y-73244080D01*
X44077985Y-73244081D01*
X44219747Y-73307197D01*
X44235454Y-73314190D01*
X44317668Y-73331665D01*
X44404057Y-73350028D01*
X44404061Y-73350028D01*
X44410514Y-73351400D01*
X44589486Y-73351400D01*
X44595939Y-73350028D01*
X44595943Y-73350028D01*
X44682332Y-73331665D01*
X44764546Y-73314190D01*
X44780253Y-73307197D01*
X44922015Y-73244081D01*
X44922017Y-73244080D01*
X44928045Y-73241396D01*
X44940310Y-73232485D01*
X45067492Y-73140082D01*
X45067494Y-73140080D01*
X45072836Y-73136199D01*
X45099944Y-73106092D01*
X45188172Y-73008105D01*
X45188173Y-73008104D01*
X45192591Y-73003197D01*
X45268154Y-72872319D01*
X45278773Y-72853926D01*
X45278774Y-72853925D01*
X45282077Y-72848203D01*
X45312062Y-72755919D01*
X45335342Y-72684270D01*
X45335342Y-72684269D01*
X45337382Y-72677991D01*
X45356090Y-72500000D01*
X45337382Y-72322009D01*
X45282077Y-72151797D01*
X45192591Y-71996803D01*
X45176107Y-71978495D01*
X45077258Y-71868712D01*
X45077257Y-71868711D01*
X45072836Y-71863801D01*
X44928045Y-71758604D01*
X44922017Y-71755920D01*
X44922015Y-71755919D01*
X44770577Y-71688495D01*
X44770576Y-71688495D01*
X44764546Y-71685810D01*
X44677016Y-71667205D01*
X44595943Y-71649972D01*
X44595939Y-71649972D01*
X44589486Y-71648600D01*
X44410514Y-71648600D01*
X44404061Y-71649972D01*
X44404057Y-71649972D01*
X44322984Y-71667205D01*
X44235454Y-71685810D01*
X44229424Y-71688495D01*
X44229423Y-71688495D01*
X44077985Y-71755919D01*
X44077983Y-71755920D01*
X44071955Y-71758604D01*
X43927164Y-71863801D01*
X43922743Y-71868711D01*
X43922742Y-71868712D01*
X43823894Y-71978495D01*
X43807409Y-71996803D01*
X43717923Y-72151797D01*
X43662618Y-72322009D01*
X43643910Y-72500000D01*
X43644600Y-72506565D01*
X43661603Y-72668335D01*
X43648831Y-72738174D01*
X43600329Y-72790020D01*
X43531496Y-72807415D01*
X43462233Y-72783443D01*
X43452802Y-72776591D01*
X43428045Y-72758604D01*
X43422017Y-72755920D01*
X43422015Y-72755919D01*
X43270577Y-72688495D01*
X43270576Y-72688495D01*
X43264546Y-72685810D01*
X43177016Y-72667205D01*
X43095943Y-72649972D01*
X43095939Y-72649972D01*
X43089486Y-72648600D01*
X42910514Y-72648600D01*
X42904061Y-72649972D01*
X42904057Y-72649972D01*
X42822984Y-72667205D01*
X42735454Y-72685810D01*
X42729424Y-72688495D01*
X42729423Y-72688495D01*
X42577985Y-72755919D01*
X42577983Y-72755920D01*
X42571955Y-72758604D01*
X42566614Y-72762484D01*
X42566613Y-72762485D01*
X42440756Y-72853926D01*
X42427164Y-72863801D01*
X42422743Y-72868711D01*
X42422742Y-72868712D01*
X42316463Y-72986748D01*
X42307409Y-72996803D01*
X42300884Y-73008105D01*
X42226929Y-73136199D01*
X42217923Y-73151797D01*
X42215881Y-73158082D01*
X42165159Y-73314190D01*
X42162618Y-73322009D01*
X42143910Y-73500000D01*
X25508500Y-73500000D01*
X25508500Y-68000000D01*
X39000000Y-68000000D01*
X39000000Y-68500000D01*
X48784474Y-68500000D01*
X48785928Y-68505995D01*
X48769190Y-68563000D01*
X48717923Y-68651797D01*
X48662618Y-68822009D01*
X48661928Y-68828572D01*
X48661928Y-68828573D01*
X48655525Y-68889495D01*
X48643910Y-69000000D01*
X48662618Y-69177991D01*
X48664658Y-69184269D01*
X48664658Y-69184270D01*
X48667649Y-69193475D01*
X48717923Y-69348203D01*
X48721226Y-69353925D01*
X48721227Y-69353926D01*
X48734849Y-69377519D01*
X48807409Y-69503197D01*
X48927164Y-69636199D01*
X48932506Y-69640080D01*
X48932508Y-69640082D01*
X49000000Y-69689118D01*
X49000000Y-80000000D01*
X54000000Y-80000000D01*
X54000000Y-78000000D01*
X64643910Y-78000000D01*
X64662618Y-78177991D01*
X64717923Y-78348203D01*
X64807409Y-78503197D01*
X64927164Y-78636199D01*
X64932506Y-78640080D01*
X64932508Y-78640082D01*
X65051169Y-78726294D01*
X65071955Y-78741396D01*
X65077983Y-78744080D01*
X65077985Y-78744081D01*
X65229423Y-78811505D01*
X65235454Y-78814190D01*
X65322984Y-78832795D01*
X65404057Y-78850028D01*
X65404061Y-78850028D01*
X65410514Y-78851400D01*
X65589486Y-78851400D01*
X65595939Y-78850028D01*
X65595943Y-78850028D01*
X65677016Y-78832795D01*
X65764546Y-78814190D01*
X65770577Y-78811505D01*
X65922015Y-78744081D01*
X65922017Y-78744080D01*
X65928045Y-78741396D01*
X65948831Y-78726294D01*
X66067492Y-78640082D01*
X66067494Y-78640080D01*
X66072836Y-78636199D01*
X66192591Y-78503197D01*
X66282077Y-78348203D01*
X66337382Y-78177991D01*
X66356090Y-78000000D01*
X66337382Y-77822009D01*
X66334842Y-77814190D01*
X66296668Y-77696705D01*
X66282077Y-77651797D01*
X66273072Y-77636199D01*
X66199116Y-77508105D01*
X66193359Y-77498134D01*
X70791500Y-77498134D01*
X70798255Y-77560316D01*
X70849385Y-77696705D01*
X70936739Y-77813261D01*
X71053295Y-77900615D01*
X71189684Y-77951745D01*
X71251866Y-77958500D01*
X73748134Y-77958500D01*
X73810316Y-77951745D01*
X73946705Y-77900615D01*
X74063261Y-77813261D01*
X74150615Y-77696705D01*
X74201745Y-77560316D01*
X74208500Y-77498134D01*
X74208500Y-75001866D01*
X74201745Y-74939684D01*
X74150615Y-74803295D01*
X74063261Y-74686739D01*
X73946705Y-74599385D01*
X73810316Y-74548255D01*
X73748134Y-74541500D01*
X71251866Y-74541500D01*
X71189684Y-74548255D01*
X71053295Y-74599385D01*
X70936739Y-74686739D01*
X70849385Y-74803295D01*
X70798255Y-74939684D01*
X70791500Y-75001866D01*
X70791500Y-77498134D01*
X66193359Y-77498134D01*
X66192591Y-77496803D01*
X66072836Y-77363801D01*
X66059245Y-77353926D01*
X65933387Y-77262485D01*
X65933386Y-77262484D01*
X65928045Y-77258604D01*
X65922017Y-77255920D01*
X65922015Y-77255919D01*
X65770577Y-77188495D01*
X65770576Y-77188495D01*
X65764546Y-77185810D01*
X65677016Y-77167205D01*
X65595943Y-77149972D01*
X65595939Y-77149972D01*
X65589486Y-77148600D01*
X65410514Y-77148600D01*
X65404061Y-77149972D01*
X65404057Y-77149972D01*
X65322984Y-77167205D01*
X65235454Y-77185810D01*
X65229424Y-77188495D01*
X65229423Y-77188495D01*
X65077985Y-77255919D01*
X65077983Y-77255920D01*
X65071955Y-77258604D01*
X65066614Y-77262484D01*
X65066613Y-77262485D01*
X64940756Y-77353926D01*
X64927164Y-77363801D01*
X64807409Y-77496803D01*
X64800884Y-77508105D01*
X64726929Y-77636199D01*
X64717923Y-77651797D01*
X64703332Y-77696705D01*
X64665159Y-77814190D01*
X64662618Y-77822009D01*
X64643910Y-78000000D01*
X54000000Y-78000000D01*
X54000000Y-77000000D01*
X59143910Y-77000000D01*
X59144600Y-77006565D01*
X59159175Y-77145229D01*
X59162618Y-77177991D01*
X59164658Y-77184269D01*
X59164658Y-77184270D01*
X59166031Y-77188495D01*
X59217923Y-77348203D01*
X59221226Y-77353925D01*
X59221227Y-77353926D01*
X59229764Y-77368712D01*
X59307409Y-77503197D01*
X59427164Y-77636199D01*
X59432506Y-77640080D01*
X59432508Y-77640082D01*
X59510443Y-77696705D01*
X59571955Y-77741396D01*
X59577983Y-77744080D01*
X59577985Y-77744081D01*
X59729423Y-77811505D01*
X59735454Y-77814190D01*
X59822984Y-77832795D01*
X59904057Y-77850028D01*
X59904061Y-77850028D01*
X59910514Y-77851400D01*
X60089486Y-77851400D01*
X60095939Y-77850028D01*
X60095943Y-77850028D01*
X60177016Y-77832795D01*
X60264546Y-77814190D01*
X60270577Y-77811505D01*
X60422015Y-77744081D01*
X60422017Y-77744080D01*
X60428045Y-77741396D01*
X60489557Y-77696705D01*
X60567492Y-77640082D01*
X60567494Y-77640080D01*
X60572836Y-77636199D01*
X60692591Y-77503197D01*
X60770236Y-77368712D01*
X60778773Y-77353926D01*
X60778774Y-77353925D01*
X60782077Y-77348203D01*
X60833969Y-77188495D01*
X60835342Y-77184270D01*
X60835342Y-77184269D01*
X60837382Y-77177991D01*
X60840826Y-77145229D01*
X60855400Y-77006565D01*
X60856090Y-77000000D01*
X60837382Y-76822009D01*
X60782077Y-76651797D01*
X60692591Y-76496803D01*
X60572836Y-76363801D01*
X60553880Y-76350028D01*
X60433387Y-76262485D01*
X60433386Y-76262484D01*
X60428045Y-76258604D01*
X60422017Y-76255920D01*
X60422015Y-76255919D01*
X60270577Y-76188495D01*
X60270576Y-76188495D01*
X60264546Y-76185810D01*
X60177016Y-76167205D01*
X60095943Y-76149972D01*
X60095939Y-76149972D01*
X60089486Y-76148600D01*
X59910514Y-76148600D01*
X59904061Y-76149972D01*
X59904057Y-76149972D01*
X59822984Y-76167205D01*
X59735454Y-76185810D01*
X59729424Y-76188495D01*
X59729423Y-76188495D01*
X59577985Y-76255919D01*
X59577983Y-76255920D01*
X59571955Y-76258604D01*
X59566614Y-76262484D01*
X59566613Y-76262485D01*
X59446121Y-76350028D01*
X59427164Y-76363801D01*
X59307409Y-76496803D01*
X59217923Y-76651797D01*
X59162618Y-76822009D01*
X59143910Y-77000000D01*
X54000000Y-77000000D01*
X54000000Y-73652844D01*
X54684208Y-73652844D01*
X54685889Y-73672867D01*
X54696652Y-73801029D01*
X54699847Y-73839081D01*
X54751362Y-74018734D01*
X54773118Y-74061066D01*
X54829563Y-74170897D01*
X54836790Y-74184960D01*
X54840613Y-74189784D01*
X54840616Y-74189788D01*
X54928684Y-74300901D01*
X54952878Y-74331426D01*
X54957572Y-74335421D01*
X54990545Y-74363483D01*
X55095204Y-74452556D01*
X55258347Y-74543733D01*
X55264207Y-74545637D01*
X55430229Y-74599581D01*
X55430232Y-74599582D01*
X55434654Y-74601018D01*
X55434653Y-74601018D01*
X55436093Y-74601486D01*
X55436004Y-74601760D01*
X55495476Y-74634409D01*
X55529360Y-74696798D01*
X55524135Y-74767602D01*
X55480240Y-74825239D01*
X55427164Y-74863801D01*
X55422743Y-74868711D01*
X55422742Y-74868712D01*
X55344578Y-74955523D01*
X55307409Y-74996803D01*
X55217923Y-75151797D01*
X55162618Y-75322009D01*
X55161928Y-75328572D01*
X55161928Y-75328573D01*
X55148850Y-75452997D01*
X55143910Y-75500000D01*
X55162618Y-75677991D01*
X55164658Y-75684269D01*
X55164658Y-75684270D01*
X55194989Y-75777620D01*
X55217923Y-75848203D01*
X55307409Y-76003197D01*
X55427164Y-76136199D01*
X55432506Y-76140080D01*
X55432508Y-76140082D01*
X55499143Y-76188495D01*
X55571955Y-76241396D01*
X55577983Y-76244080D01*
X55577985Y-76244081D01*
X55729423Y-76311505D01*
X55735454Y-76314190D01*
X55822984Y-76332795D01*
X55904057Y-76350028D01*
X55904061Y-76350028D01*
X55910514Y-76351400D01*
X56089486Y-76351400D01*
X56095939Y-76350028D01*
X56095943Y-76350028D01*
X56177016Y-76332795D01*
X56264546Y-76314190D01*
X56270577Y-76311505D01*
X56422015Y-76244081D01*
X56422017Y-76244080D01*
X56428045Y-76241396D01*
X56500857Y-76188495D01*
X56567492Y-76140082D01*
X56567494Y-76140080D01*
X56572836Y-76136199D01*
X56692591Y-76003197D01*
X56782077Y-75848203D01*
X56805011Y-75777620D01*
X56835342Y-75684270D01*
X56835342Y-75684269D01*
X56837382Y-75677991D01*
X56856090Y-75500000D01*
X56851150Y-75452997D01*
X56838072Y-75328573D01*
X56838072Y-75328572D01*
X56837382Y-75322009D01*
X56782077Y-75151797D01*
X56692591Y-74996803D01*
X56655423Y-74955523D01*
X56577258Y-74868712D01*
X56577257Y-74868711D01*
X56572836Y-74863801D01*
X56557310Y-74852520D01*
X56433387Y-74762485D01*
X56433386Y-74762484D01*
X56428045Y-74758604D01*
X56422017Y-74755920D01*
X56422015Y-74755919D01*
X56270577Y-74688495D01*
X56270576Y-74688495D01*
X56264546Y-74685810D01*
X56258091Y-74684438D01*
X56258082Y-74684435D01*
X56230240Y-74678517D01*
X56167767Y-74644789D01*
X56133446Y-74582639D01*
X56138174Y-74511800D01*
X56178864Y-74455982D01*
X56188360Y-74448563D01*
X56302113Y-74359689D01*
X56306139Y-74355025D01*
X56306142Y-74355022D01*
X56393865Y-74253394D01*
X56424233Y-74218212D01*
X56516547Y-74055709D01*
X56530817Y-74012814D01*
X56573593Y-73884223D01*
X56575540Y-73878371D01*
X56586468Y-73791869D01*
X56598522Y-73696455D01*
X56598523Y-73696446D01*
X56598964Y-73692952D01*
X56599337Y-73666214D01*
X56581099Y-73480213D01*
X56577145Y-73467115D01*
X56553101Y-73387479D01*
X56527081Y-73301297D01*
X56447591Y-73151797D01*
X56442234Y-73141721D01*
X56439341Y-73136280D01*
X56378982Y-73062273D01*
X56325114Y-72996224D01*
X56325111Y-72996221D01*
X56321219Y-72991449D01*
X56316470Y-72987520D01*
X56181965Y-72876248D01*
X56181962Y-72876246D01*
X56177215Y-72872319D01*
X56012815Y-72783428D01*
X55923548Y-72755795D01*
X55840167Y-72729984D01*
X55840164Y-72729983D01*
X55834280Y-72728162D01*
X55828155Y-72727518D01*
X55828154Y-72727518D01*
X55654539Y-72709270D01*
X55654538Y-72709270D01*
X55648411Y-72708626D01*
X55529813Y-72719420D01*
X55468429Y-72725006D01*
X55468428Y-72725006D01*
X55462288Y-72725565D01*
X55456374Y-72727306D01*
X55456372Y-72727306D01*
X55359155Y-72755919D01*
X55282999Y-72778333D01*
X55277534Y-72781190D01*
X55227370Y-72807415D01*
X55117373Y-72864919D01*
X54971721Y-72982027D01*
X54851588Y-73125195D01*
X54848625Y-73130584D01*
X54848622Y-73130589D01*
X54796060Y-73226200D01*
X54761552Y-73288971D01*
X54759691Y-73294838D01*
X54759690Y-73294840D01*
X54742183Y-73350028D01*
X54705041Y-73467115D01*
X54684208Y-73652844D01*
X54000000Y-73652844D01*
X54000000Y-72000000D01*
X54500000Y-72000000D01*
X54500000Y-71575630D01*
X57042482Y-71575630D01*
X57042998Y-71581774D01*
X57051960Y-71688495D01*
X57058121Y-71761867D01*
X57109636Y-71941520D01*
X57195064Y-72107746D01*
X57198887Y-72112570D01*
X57198890Y-72112574D01*
X57231944Y-72154277D01*
X57311152Y-72254212D01*
X57453478Y-72375342D01*
X57458857Y-72378348D01*
X57504763Y-72404004D01*
X57554469Y-72454697D01*
X57568877Y-72524216D01*
X57563126Y-72552928D01*
X57519078Y-72688495D01*
X57513296Y-72706291D01*
X57512606Y-72712854D01*
X57512606Y-72712855D01*
X57496217Y-72868781D01*
X57494588Y-72884282D01*
X57513296Y-73062273D01*
X57515336Y-73068551D01*
X57515336Y-73068552D01*
X57535493Y-73130589D01*
X57568601Y-73232485D01*
X57658087Y-73387479D01*
X57662505Y-73392386D01*
X57662506Y-73392387D01*
X57753490Y-73493435D01*
X57777842Y-73520481D01*
X57783184Y-73524362D01*
X57783186Y-73524364D01*
X57917291Y-73621797D01*
X57922633Y-73625678D01*
X57928661Y-73628362D01*
X57928663Y-73628363D01*
X58080101Y-73695787D01*
X58086132Y-73698472D01*
X58173662Y-73717077D01*
X58254735Y-73734310D01*
X58254739Y-73734310D01*
X58261192Y-73735682D01*
X58440164Y-73735682D01*
X58446617Y-73734310D01*
X58446621Y-73734310D01*
X58527694Y-73717077D01*
X58615224Y-73698472D01*
X58621255Y-73695787D01*
X58772693Y-73628363D01*
X58772695Y-73628362D01*
X58778723Y-73625678D01*
X58784065Y-73621797D01*
X58918170Y-73524364D01*
X58918172Y-73524362D01*
X58923514Y-73520481D01*
X58947866Y-73493435D01*
X59038850Y-73392387D01*
X59038851Y-73392386D01*
X59043269Y-73387479D01*
X59132755Y-73232485D01*
X59165863Y-73130589D01*
X59186020Y-73068552D01*
X59186020Y-73068551D01*
X59188060Y-73062273D01*
X59206768Y-72884282D01*
X59205139Y-72868781D01*
X59188750Y-72712855D01*
X59188750Y-72712854D01*
X59188060Y-72706291D01*
X59175728Y-72668335D01*
X59138239Y-72552958D01*
X59132755Y-72536079D01*
X59110005Y-72496674D01*
X59046570Y-72386803D01*
X59043269Y-72381085D01*
X58984424Y-72315730D01*
X58927936Y-72252994D01*
X58927935Y-72252993D01*
X58923514Y-72248083D01*
X58871784Y-72210499D01*
X58828430Y-72154277D01*
X58822355Y-72083541D01*
X58836288Y-72046327D01*
X58871778Y-71983852D01*
X58871779Y-71983851D01*
X58874821Y-71978495D01*
X58889091Y-71935600D01*
X58931867Y-71807009D01*
X58933814Y-71801157D01*
X58948559Y-71684438D01*
X58956796Y-71619241D01*
X58956797Y-71619232D01*
X58957238Y-71615738D01*
X58957611Y-71589000D01*
X58939373Y-71402999D01*
X58935419Y-71389901D01*
X58887136Y-71229983D01*
X58885355Y-71224083D01*
X58797615Y-71059066D01*
X58749044Y-70999512D01*
X58683388Y-70919010D01*
X58683385Y-70919007D01*
X58679493Y-70914235D01*
X58674744Y-70910306D01*
X58540239Y-70799034D01*
X58540236Y-70799032D01*
X58535489Y-70795105D01*
X58371089Y-70706214D01*
X58281822Y-70678581D01*
X58198441Y-70652770D01*
X58198438Y-70652769D01*
X58192554Y-70650948D01*
X58186429Y-70650304D01*
X58186428Y-70650304D01*
X58012813Y-70632056D01*
X58012812Y-70632056D01*
X58006685Y-70631412D01*
X57888087Y-70642206D01*
X57826703Y-70647792D01*
X57826702Y-70647792D01*
X57820562Y-70648351D01*
X57814648Y-70650092D01*
X57814646Y-70650092D01*
X57692466Y-70686052D01*
X57641273Y-70701119D01*
X57475647Y-70787705D01*
X57329995Y-70904813D01*
X57209862Y-71047981D01*
X57206899Y-71053370D01*
X57206896Y-71053375D01*
X57151300Y-71154506D01*
X57119826Y-71211757D01*
X57063315Y-71389901D01*
X57042482Y-71575630D01*
X54500000Y-71575630D01*
X54500000Y-68486630D01*
X67042482Y-68486630D01*
X67042998Y-68492774D01*
X67056352Y-68651797D01*
X67058121Y-68672867D01*
X67109636Y-68852520D01*
X67195064Y-69018746D01*
X67198887Y-69023570D01*
X67198890Y-69023574D01*
X67304170Y-69156402D01*
X67311152Y-69165212D01*
X67315846Y-69169207D01*
X67348819Y-69197269D01*
X67453478Y-69286342D01*
X67616621Y-69377519D01*
X67794367Y-69435272D01*
X67979945Y-69457401D01*
X67986080Y-69456929D01*
X67986082Y-69456929D01*
X68042119Y-69452617D01*
X68166287Y-69443063D01*
X68346296Y-69392804D01*
X68351785Y-69390031D01*
X68351791Y-69390029D01*
X68447033Y-69341918D01*
X68513114Y-69308538D01*
X68541524Y-69286342D01*
X68565486Y-69267621D01*
X68660387Y-69193475D01*
X68664413Y-69188811D01*
X68664416Y-69188808D01*
X68778480Y-69056663D01*
X68782507Y-69051998D01*
X68874821Y-68889495D01*
X68889091Y-68846600D01*
X68931867Y-68718009D01*
X68933814Y-68712157D01*
X68952657Y-68563000D01*
X68956796Y-68530241D01*
X68956797Y-68530232D01*
X68957238Y-68526738D01*
X68957611Y-68500000D01*
X68939373Y-68313999D01*
X68935419Y-68300901D01*
X68887136Y-68140983D01*
X68885355Y-68135083D01*
X68845332Y-68059810D01*
X68831013Y-67990273D01*
X68847028Y-67938420D01*
X68871776Y-67894855D01*
X68874821Y-67889495D01*
X68889091Y-67846600D01*
X68931867Y-67718009D01*
X68933814Y-67712157D01*
X68954047Y-67551998D01*
X68956796Y-67530241D01*
X68956797Y-67530232D01*
X68957238Y-67526738D01*
X68957611Y-67500000D01*
X68939373Y-67313999D01*
X68935419Y-67300901D01*
X68908625Y-67212157D01*
X68885355Y-67135083D01*
X68797615Y-66970066D01*
X68784727Y-66954264D01*
X68683388Y-66830010D01*
X68683385Y-66830007D01*
X68679493Y-66825235D01*
X68674744Y-66821306D01*
X68540239Y-66710034D01*
X68540236Y-66710032D01*
X68535489Y-66706105D01*
X68371089Y-66617214D01*
X68281822Y-66589581D01*
X68198441Y-66563770D01*
X68198438Y-66563769D01*
X68192554Y-66561948D01*
X68186429Y-66561304D01*
X68186428Y-66561304D01*
X68012813Y-66543056D01*
X68012812Y-66543056D01*
X68006685Y-66542412D01*
X67888087Y-66553206D01*
X67826703Y-66558792D01*
X67826702Y-66558792D01*
X67820562Y-66559351D01*
X67814648Y-66561092D01*
X67814646Y-66561092D01*
X67709709Y-66591977D01*
X67641273Y-66612119D01*
X67635808Y-66614976D01*
X67516766Y-66677209D01*
X67475647Y-66698705D01*
X67329995Y-66815813D01*
X67209862Y-66958981D01*
X67206899Y-66964370D01*
X67206896Y-66964375D01*
X67158726Y-67051998D01*
X67119826Y-67122757D01*
X67063315Y-67300901D01*
X67042482Y-67486630D01*
X67042998Y-67492774D01*
X67056352Y-67651797D01*
X67058121Y-67672867D01*
X67109636Y-67852520D01*
X67130339Y-67892804D01*
X67155716Y-67942183D01*
X67169063Y-68011914D01*
X67154064Y-68060477D01*
X67119826Y-68122757D01*
X67117962Y-68128632D01*
X67117961Y-68128635D01*
X67085254Y-68231739D01*
X67063315Y-68300901D01*
X67042482Y-68486630D01*
X54500000Y-68486630D01*
X54500000Y-68000000D01*
X63500000Y-68000000D01*
X63500000Y-65285469D01*
X86587095Y-65285469D01*
X86587392Y-65290622D01*
X86587392Y-65290625D01*
X86593067Y-65389041D01*
X86600427Y-65516697D01*
X86601564Y-65521743D01*
X86601565Y-65521749D01*
X86633741Y-65664523D01*
X86651346Y-65742642D01*
X86653288Y-65747424D01*
X86653289Y-65747428D01*
X86695963Y-65852520D01*
X86738484Y-65957237D01*
X86859501Y-66154719D01*
X87011147Y-66329784D01*
X87189349Y-66477730D01*
X87389322Y-66594584D01*
X87605694Y-66677209D01*
X87610760Y-66678240D01*
X87610761Y-66678240D01*
X87663846Y-66689040D01*
X87832656Y-66723385D01*
X87963324Y-66728176D01*
X88058949Y-66731683D01*
X88058953Y-66731683D01*
X88064113Y-66731872D01*
X88069233Y-66731216D01*
X88069235Y-66731216D01*
X88142270Y-66721860D01*
X88293847Y-66702442D01*
X88298795Y-66700957D01*
X88298802Y-66700956D01*
X88510747Y-66637369D01*
X88515690Y-66635886D01*
X88542490Y-66622757D01*
X88719049Y-66536262D01*
X88719052Y-66536260D01*
X88723684Y-66533991D01*
X88912243Y-66399494D01*
X89076303Y-66236005D01*
X89211458Y-66047917D01*
X89258641Y-65952450D01*
X89311784Y-65844922D01*
X89311785Y-65844920D01*
X89314078Y-65840280D01*
X89381408Y-65618671D01*
X89411640Y-65389041D01*
X89411722Y-65385691D01*
X89413245Y-65323365D01*
X89413245Y-65323361D01*
X89413327Y-65320000D01*
X89404461Y-65212157D01*
X89394773Y-65094318D01*
X89394772Y-65094312D01*
X89394349Y-65089167D01*
X89337925Y-64864533D01*
X89335866Y-64859797D01*
X89247630Y-64656868D01*
X89247628Y-64656865D01*
X89245570Y-64652131D01*
X89119764Y-64457665D01*
X88963887Y-64286358D01*
X88959836Y-64283159D01*
X88959832Y-64283155D01*
X88786177Y-64146011D01*
X88786172Y-64146008D01*
X88782123Y-64142810D01*
X88777607Y-64140317D01*
X88777604Y-64140315D01*
X88583879Y-64033373D01*
X88583875Y-64033371D01*
X88579355Y-64030876D01*
X88574486Y-64029152D01*
X88574482Y-64029150D01*
X88365903Y-63955288D01*
X88365899Y-63955287D01*
X88361028Y-63953562D01*
X88355935Y-63952655D01*
X88355932Y-63952654D01*
X88138095Y-63913851D01*
X88138089Y-63913850D01*
X88133006Y-63912945D01*
X88060096Y-63912054D01*
X87906581Y-63910179D01*
X87906579Y-63910179D01*
X87901411Y-63910116D01*
X87672464Y-63945150D01*
X87452314Y-64017106D01*
X87447726Y-64019494D01*
X87447722Y-64019496D01*
X87314414Y-64088892D01*
X87246872Y-64124052D01*
X87242739Y-64127155D01*
X87242736Y-64127157D01*
X87154409Y-64193475D01*
X87061655Y-64263117D01*
X86901639Y-64430564D01*
X86898725Y-64434836D01*
X86898724Y-64434837D01*
X86841485Y-64518746D01*
X86771119Y-64621899D01*
X86673602Y-64831981D01*
X86611707Y-65055169D01*
X86587095Y-65285469D01*
X63500000Y-65285469D01*
X63500000Y-61452526D01*
X98687050Y-61452526D01*
X98687274Y-61457192D01*
X98687274Y-61457197D01*
X98689179Y-61496851D01*
X98699947Y-61721019D01*
X98752388Y-61984656D01*
X98843220Y-62237646D01*
X98970450Y-62474431D01*
X98973241Y-62478168D01*
X98973245Y-62478175D01*
X99009509Y-62526738D01*
X99131281Y-62689810D01*
X99134590Y-62693090D01*
X99134595Y-62693096D01*
X99295417Y-62852520D01*
X99322180Y-62879050D01*
X99325942Y-62881808D01*
X99325945Y-62881811D01*
X99336425Y-62889495D01*
X99538954Y-63037995D01*
X99543089Y-63040171D01*
X99543093Y-63040173D01*
X99723486Y-63135083D01*
X99776840Y-63163154D01*
X100030613Y-63251775D01*
X100035206Y-63252647D01*
X100290109Y-63301042D01*
X100290112Y-63301042D01*
X100294698Y-63301913D01*
X100422370Y-63306929D01*
X100558625Y-63312283D01*
X100558630Y-63312283D01*
X100563293Y-63312466D01*
X100667607Y-63301042D01*
X100825844Y-63283713D01*
X100825850Y-63283712D01*
X100830497Y-63283203D01*
X100835021Y-63282012D01*
X101085918Y-63215956D01*
X101085920Y-63215955D01*
X101090441Y-63214765D01*
X101205779Y-63165212D01*
X101333120Y-63110502D01*
X101333122Y-63110501D01*
X101337414Y-63108657D01*
X101561375Y-62970066D01*
X101562017Y-62969669D01*
X101562021Y-62969666D01*
X101565990Y-62967210D01*
X101771149Y-62793530D01*
X101948382Y-62591434D01*
X101995137Y-62518746D01*
X102091269Y-62369291D01*
X102093797Y-62365361D01*
X102204199Y-62120278D01*
X102241892Y-61986630D01*
X102275893Y-61866072D01*
X102275894Y-61866069D01*
X102277163Y-61861568D01*
X102295043Y-61721019D01*
X102310688Y-61598045D01*
X102310688Y-61598041D01*
X102311086Y-61594915D01*
X102313571Y-61500000D01*
X102293650Y-61231937D01*
X102287805Y-61206105D01*
X102235361Y-60974331D01*
X102235360Y-60974326D01*
X102234327Y-60969763D01*
X102136902Y-60719238D01*
X102003518Y-60485864D01*
X101837105Y-60274769D01*
X101641317Y-60090591D01*
X101420457Y-59937374D01*
X101416195Y-59935272D01*
X101183564Y-59820551D01*
X101183561Y-59820550D01*
X101179376Y-59818486D01*
X101148299Y-59808538D01*
X101077621Y-59785914D01*
X100923370Y-59736538D01*
X100918763Y-59735788D01*
X100918760Y-59735787D01*
X100662674Y-59694081D01*
X100662675Y-59694081D01*
X100658063Y-59693330D01*
X100527719Y-59691624D01*
X100393961Y-59689873D01*
X100393958Y-59689873D01*
X100389284Y-59689812D01*
X100122937Y-59726060D01*
X99864874Y-59801278D01*
X99620763Y-59913815D01*
X99616854Y-59916378D01*
X99399881Y-60058631D01*
X99399876Y-60058635D01*
X99395968Y-60061197D01*
X99195426Y-60240188D01*
X99023544Y-60446854D01*
X98884096Y-60676656D01*
X98882287Y-60680970D01*
X98882285Y-60680974D01*
X98805620Y-60863801D01*
X98780148Y-60924545D01*
X98713981Y-61185077D01*
X98687050Y-61452526D01*
X63500000Y-61452526D01*
X63500000Y-59500000D01*
X67000000Y-59500000D01*
X67000000Y-60000000D01*
X75500000Y-60000000D01*
X75500000Y-56748134D01*
X87791500Y-56748134D01*
X87798255Y-56810316D01*
X87849385Y-56946705D01*
X87936739Y-57063261D01*
X88053295Y-57150615D01*
X88189684Y-57201745D01*
X88251866Y-57208500D01*
X90748134Y-57208500D01*
X90810316Y-57201745D01*
X90946705Y-57150615D01*
X91063261Y-57063261D01*
X91150615Y-56946705D01*
X91201745Y-56810316D01*
X91208500Y-56748134D01*
X91208500Y-54251866D01*
X91201745Y-54189684D01*
X91150615Y-54053295D01*
X91063261Y-53936739D01*
X90946705Y-53849385D01*
X90810316Y-53798255D01*
X90748134Y-53791500D01*
X88251866Y-53791500D01*
X88189684Y-53798255D01*
X88053295Y-53849385D01*
X87936739Y-53936739D01*
X87849385Y-54053295D01*
X87798255Y-54189684D01*
X87791500Y-54251866D01*
X87791500Y-56748134D01*
X75500000Y-56748134D01*
X75500000Y-51500000D01*
X104491500Y-51500000D01*
X104491500Y-69737182D01*
G37*
G04 #@! TD.AperFunction*
G04 #@! TA.AperFunction,Conductor*
G36*
X38442121Y-20528502D02*
G01*
X38488614Y-20582158D01*
X38500000Y-20634500D01*
X38500000Y-25500000D01*
X40500000Y-27500000D01*
X43500000Y-27500000D01*
X45500000Y-25500000D01*
X45500000Y-20634500D01*
X45520002Y-20566379D01*
X45573658Y-20519886D01*
X45626000Y-20508500D01*
X87374000Y-20508500D01*
X87442121Y-20528502D01*
X87488614Y-20582158D01*
X87500000Y-20634500D01*
X87500000Y-25500000D01*
X89500000Y-27500000D01*
X92500000Y-27500000D01*
X94500000Y-25500000D01*
X94500000Y-23952526D01*
X98687050Y-23952526D01*
X98699947Y-24221019D01*
X98752388Y-24484656D01*
X98843220Y-24737646D01*
X98970450Y-24974431D01*
X98973241Y-24978168D01*
X98973245Y-24978175D01*
X99054887Y-25087506D01*
X99131281Y-25189810D01*
X99134590Y-25193090D01*
X99134595Y-25193096D01*
X99318863Y-25375762D01*
X99322180Y-25379050D01*
X99325942Y-25381808D01*
X99325945Y-25381811D01*
X99438299Y-25464192D01*
X99538954Y-25537995D01*
X99543089Y-25540171D01*
X99543093Y-25540173D01*
X99772698Y-25660975D01*
X99776840Y-25663154D01*
X100030613Y-25751775D01*
X100035206Y-25752647D01*
X100290109Y-25801042D01*
X100290112Y-25801042D01*
X100294698Y-25801913D01*
X100422370Y-25806929D01*
X100558625Y-25812283D01*
X100558630Y-25812283D01*
X100563293Y-25812466D01*
X100667607Y-25801042D01*
X100825844Y-25783713D01*
X100825850Y-25783712D01*
X100830497Y-25783203D01*
X100835021Y-25782012D01*
X101085918Y-25715956D01*
X101085920Y-25715955D01*
X101090441Y-25714765D01*
X101094738Y-25712919D01*
X101333120Y-25610502D01*
X101333122Y-25610501D01*
X101337414Y-25608657D01*
X101513002Y-25500000D01*
X101562017Y-25469669D01*
X101562021Y-25469666D01*
X101565990Y-25467210D01*
X101771149Y-25293530D01*
X101948382Y-25091434D01*
X102093797Y-24865361D01*
X102204199Y-24620278D01*
X102241209Y-24489051D01*
X102275893Y-24366072D01*
X102275894Y-24366069D01*
X102277163Y-24361568D01*
X102295043Y-24221019D01*
X102310688Y-24098045D01*
X102310688Y-24098041D01*
X102311086Y-24094915D01*
X102313571Y-24000000D01*
X102293650Y-23731937D01*
X102234327Y-23469763D01*
X102136902Y-23219238D01*
X102003518Y-22985864D01*
X101837105Y-22774769D01*
X101641317Y-22590591D01*
X101420457Y-22437374D01*
X101416264Y-22435306D01*
X101183564Y-22320551D01*
X101183561Y-22320550D01*
X101179376Y-22318486D01*
X101131745Y-22303239D01*
X101077621Y-22285914D01*
X100923370Y-22236538D01*
X100918763Y-22235788D01*
X100918760Y-22235787D01*
X100662674Y-22194081D01*
X100662675Y-22194081D01*
X100658063Y-22193330D01*
X100527719Y-22191624D01*
X100393961Y-22189873D01*
X100393958Y-22189873D01*
X100389284Y-22189812D01*
X100122937Y-22226060D01*
X99864874Y-22301278D01*
X99620763Y-22413815D01*
X99616854Y-22416378D01*
X99399881Y-22558631D01*
X99399876Y-22558635D01*
X99395968Y-22561197D01*
X99195426Y-22740188D01*
X99023544Y-22946854D01*
X98884096Y-23176656D01*
X98780148Y-23424545D01*
X98713981Y-23685077D01*
X98687050Y-23952526D01*
X94500000Y-23952526D01*
X94500000Y-20634500D01*
X94520002Y-20566379D01*
X94573658Y-20519886D01*
X94626000Y-20508500D01*
X104365500Y-20508500D01*
X104433621Y-20528502D01*
X104480114Y-20582158D01*
X104491500Y-20634500D01*
X104491500Y-52000000D01*
X67000000Y-52000000D01*
X67000000Y-60000000D01*
X55000000Y-60000000D01*
X55000000Y-72000000D01*
X47500000Y-72000000D01*
X47500000Y-70651309D01*
X51295219Y-70651309D01*
X51313927Y-70829300D01*
X51369232Y-70999512D01*
X51458718Y-71154506D01*
X51578473Y-71287508D01*
X51723264Y-71392705D01*
X51729292Y-71395389D01*
X51729294Y-71395390D01*
X51880732Y-71462814D01*
X51886763Y-71465499D01*
X51974293Y-71484104D01*
X52055366Y-71501337D01*
X52055370Y-71501337D01*
X52061823Y-71502709D01*
X52240795Y-71502709D01*
X52247248Y-71501337D01*
X52247252Y-71501337D01*
X52328325Y-71484104D01*
X52415855Y-71465499D01*
X52421886Y-71462814D01*
X52573324Y-71395390D01*
X52573326Y-71395389D01*
X52579354Y-71392705D01*
X52724145Y-71287508D01*
X52843900Y-71154506D01*
X52933386Y-70999512D01*
X52988691Y-70829300D01*
X53007399Y-70651309D01*
X52988691Y-70473318D01*
X52933386Y-70303106D01*
X52843900Y-70148112D01*
X52809869Y-70110316D01*
X52728567Y-70020021D01*
X52728566Y-70020020D01*
X52724145Y-70015110D01*
X52629214Y-69946138D01*
X52584696Y-69913794D01*
X52584695Y-69913793D01*
X52579354Y-69909913D01*
X52573326Y-69907229D01*
X52573324Y-69907228D01*
X52421886Y-69839804D01*
X52421885Y-69839804D01*
X52415855Y-69837119D01*
X52314437Y-69815562D01*
X52247252Y-69801281D01*
X52247248Y-69801281D01*
X52240795Y-69799909D01*
X52061823Y-69799909D01*
X52055370Y-69801281D01*
X52055366Y-69801281D01*
X51988181Y-69815562D01*
X51886763Y-69837119D01*
X51880733Y-69839804D01*
X51880732Y-69839804D01*
X51729294Y-69907228D01*
X51729292Y-69907229D01*
X51723264Y-69909913D01*
X51717923Y-69913793D01*
X51717922Y-69913794D01*
X51673405Y-69946138D01*
X51578473Y-70015110D01*
X51574052Y-70020020D01*
X51574051Y-70020021D01*
X51492750Y-70110316D01*
X51458718Y-70148112D01*
X51369232Y-70303106D01*
X51313927Y-70473318D01*
X51295219Y-70651309D01*
X47500000Y-70651309D01*
X47500000Y-69000000D01*
X48643910Y-69000000D01*
X48662618Y-69177991D01*
X48717923Y-69348203D01*
X48807409Y-69503197D01*
X48927164Y-69636199D01*
X49071955Y-69741396D01*
X49077983Y-69744080D01*
X49077985Y-69744081D01*
X49229423Y-69811505D01*
X49235454Y-69814190D01*
X49322984Y-69832795D01*
X49404057Y-69850028D01*
X49404061Y-69850028D01*
X49410514Y-69851400D01*
X49589486Y-69851400D01*
X49595939Y-69850028D01*
X49595943Y-69850028D01*
X49677016Y-69832795D01*
X49764546Y-69814190D01*
X49770577Y-69811505D01*
X49922015Y-69744081D01*
X49922017Y-69744080D01*
X49928045Y-69741396D01*
X50072836Y-69636199D01*
X50192591Y-69503197D01*
X50282077Y-69348203D01*
X50337382Y-69177991D01*
X50356090Y-69000000D01*
X50337382Y-68822009D01*
X50282077Y-68651797D01*
X50230810Y-68563000D01*
X50214072Y-68494005D01*
X50230810Y-68437000D01*
X50278773Y-68353926D01*
X50278774Y-68353925D01*
X50282077Y-68348203D01*
X50337382Y-68177991D01*
X50343188Y-68122757D01*
X50355400Y-68006565D01*
X50356090Y-68000000D01*
X50344475Y-67889495D01*
X50338072Y-67828573D01*
X50338072Y-67828572D01*
X50337382Y-67822009D01*
X50282077Y-67651797D01*
X50192591Y-67496803D01*
X50157114Y-67457401D01*
X50077258Y-67368712D01*
X50077257Y-67368711D01*
X50072836Y-67363801D01*
X50057310Y-67352520D01*
X49933387Y-67262485D01*
X49933386Y-67262484D01*
X49928045Y-67258604D01*
X49922017Y-67255920D01*
X49922015Y-67255919D01*
X49770577Y-67188495D01*
X49770576Y-67188495D01*
X49764546Y-67185810D01*
X49667640Y-67165212D01*
X49595943Y-67149972D01*
X49595939Y-67149972D01*
X49589486Y-67148600D01*
X49410514Y-67148600D01*
X49404061Y-67149972D01*
X49404057Y-67149972D01*
X49332360Y-67165212D01*
X49235454Y-67185810D01*
X49229424Y-67188495D01*
X49229423Y-67188495D01*
X49077985Y-67255919D01*
X49077983Y-67255920D01*
X49071955Y-67258604D01*
X49066614Y-67262484D01*
X49066613Y-67262485D01*
X48942691Y-67352520D01*
X48927164Y-67363801D01*
X48922743Y-67368711D01*
X48922742Y-67368712D01*
X48842887Y-67457401D01*
X48807409Y-67496803D01*
X48717923Y-67651797D01*
X48662618Y-67822009D01*
X48661928Y-67828572D01*
X48661928Y-67828573D01*
X48655525Y-67889495D01*
X48643910Y-68000000D01*
X48644600Y-68006565D01*
X48656813Y-68122757D01*
X48662618Y-68177991D01*
X48717923Y-68348203D01*
X48721226Y-68353925D01*
X48721227Y-68353926D01*
X48769190Y-68437000D01*
X48785928Y-68505995D01*
X48769190Y-68563000D01*
X48717923Y-68651797D01*
X48662618Y-68822009D01*
X48643910Y-69000000D01*
X47500000Y-69000000D01*
X47500000Y-60626000D01*
X47520002Y-60557879D01*
X47573658Y-60511386D01*
X47626000Y-60500000D01*
X51060005Y-60500000D01*
X51128126Y-60520002D01*
X51174619Y-60573658D01*
X51184723Y-60643932D01*
X51155229Y-60708512D01*
X51111254Y-60741107D01*
X51077985Y-60755919D01*
X51077983Y-60755920D01*
X51071955Y-60758604D01*
X50927164Y-60863801D01*
X50807409Y-60996803D01*
X50752832Y-61091332D01*
X50737890Y-61117214D01*
X50717923Y-61151797D01*
X50662618Y-61322009D01*
X50643910Y-61500000D01*
X50644600Y-61506565D01*
X50656813Y-61622757D01*
X50662618Y-61677991D01*
X50664658Y-61684269D01*
X50664658Y-61684270D01*
X50694989Y-61777620D01*
X50717923Y-61848203D01*
X50721226Y-61853925D01*
X50721227Y-61853926D01*
X50769190Y-61937000D01*
X50785928Y-62005995D01*
X50769190Y-62063000D01*
X50717923Y-62151797D01*
X50715881Y-62158082D01*
X50665221Y-62313999D01*
X50662618Y-62322009D01*
X50643910Y-62500000D01*
X50662618Y-62677991D01*
X50717923Y-62848203D01*
X50721226Y-62853925D01*
X50721227Y-62853926D01*
X50741763Y-62889495D01*
X50807409Y-63003197D01*
X50927164Y-63136199D01*
X50932506Y-63140080D01*
X50932508Y-63140082D01*
X51066613Y-63237515D01*
X51071955Y-63241396D01*
X51077983Y-63244080D01*
X51077985Y-63244081D01*
X51205606Y-63300901D01*
X51235454Y-63314190D01*
X51322984Y-63332795D01*
X51404057Y-63350028D01*
X51404061Y-63350028D01*
X51410514Y-63351400D01*
X51589486Y-63351400D01*
X51595939Y-63350028D01*
X51595943Y-63350028D01*
X51677016Y-63332795D01*
X51764546Y-63314190D01*
X51794394Y-63300901D01*
X51922015Y-63244081D01*
X51922017Y-63244080D01*
X51928045Y-63241396D01*
X51933387Y-63237515D01*
X52067492Y-63140082D01*
X52067494Y-63140080D01*
X52072836Y-63136199D01*
X52192591Y-63003197D01*
X52258237Y-62889495D01*
X52278773Y-62853926D01*
X52278774Y-62853925D01*
X52282077Y-62848203D01*
X52337382Y-62677991D01*
X52356090Y-62500000D01*
X52337382Y-62322009D01*
X52334780Y-62313999D01*
X52284119Y-62158082D01*
X52282077Y-62151797D01*
X52230810Y-62063000D01*
X52214072Y-61994005D01*
X52230810Y-61937000D01*
X52278773Y-61853926D01*
X52278774Y-61853925D01*
X52282077Y-61848203D01*
X52305011Y-61777620D01*
X52335342Y-61684270D01*
X52335342Y-61684269D01*
X52337382Y-61677991D01*
X52343188Y-61622757D01*
X52355400Y-61506565D01*
X52356090Y-61500000D01*
X52337382Y-61322009D01*
X52282077Y-61151797D01*
X52262111Y-61117214D01*
X52247168Y-61091332D01*
X52192591Y-60996803D01*
X52072836Y-60863801D01*
X51928045Y-60758604D01*
X51922017Y-60755920D01*
X51922015Y-60755919D01*
X51888746Y-60741107D01*
X51834650Y-60695127D01*
X51814001Y-60627200D01*
X51833353Y-60558892D01*
X51886564Y-60511890D01*
X51939995Y-60500000D01*
X52000000Y-60500000D01*
X52000000Y-52500000D01*
X43000000Y-52500000D01*
X43000000Y-60374000D01*
X42979998Y-60442121D01*
X42926342Y-60488614D01*
X42874000Y-60500000D01*
X39000000Y-60500000D01*
X39000000Y-68500000D01*
X25508500Y-68500000D01*
X25508500Y-55248134D01*
X27791500Y-55248134D01*
X27798255Y-55310316D01*
X27849385Y-55446705D01*
X27936739Y-55563261D01*
X28053295Y-55650615D01*
X28189684Y-55701745D01*
X28251866Y-55708500D01*
X30748134Y-55708500D01*
X30810316Y-55701745D01*
X30946705Y-55650615D01*
X31063261Y-55563261D01*
X31150615Y-55446705D01*
X31201745Y-55310316D01*
X31208500Y-55248134D01*
X31208500Y-52751866D01*
X31201745Y-52689684D01*
X31150615Y-52553295D01*
X31063261Y-52436739D01*
X30946705Y-52349385D01*
X30810316Y-52298255D01*
X30748134Y-52291500D01*
X28251866Y-52291500D01*
X28189684Y-52298255D01*
X28053295Y-52349385D01*
X27936739Y-52436739D01*
X27849385Y-52553295D01*
X27798255Y-52689684D01*
X27791500Y-52751866D01*
X27791500Y-55248134D01*
X25508500Y-55248134D01*
X25508500Y-48952526D01*
X98687050Y-48952526D01*
X98699947Y-49221019D01*
X98752388Y-49484656D01*
X98843220Y-49737646D01*
X98970450Y-49974431D01*
X98973241Y-49978168D01*
X98973245Y-49978175D01*
X99054887Y-50087506D01*
X99131281Y-50189810D01*
X99134590Y-50193090D01*
X99134595Y-50193096D01*
X99318863Y-50375762D01*
X99322180Y-50379050D01*
X99325942Y-50381808D01*
X99325945Y-50381811D01*
X99438299Y-50464192D01*
X99538954Y-50537995D01*
X99543089Y-50540171D01*
X99543093Y-50540173D01*
X99772698Y-50660975D01*
X99776840Y-50663154D01*
X100030613Y-50751775D01*
X100035206Y-50752647D01*
X100290109Y-50801042D01*
X100290112Y-50801042D01*
X100294698Y-50801913D01*
X100422370Y-50806929D01*
X100558625Y-50812283D01*
X100558630Y-50812283D01*
X100563293Y-50812466D01*
X100667607Y-50801042D01*
X100825844Y-50783713D01*
X100825850Y-50783712D01*
X100830497Y-50783203D01*
X100835021Y-50782012D01*
X101085918Y-50715956D01*
X101085920Y-50715955D01*
X101090441Y-50714765D01*
X101094738Y-50712919D01*
X101333120Y-50610502D01*
X101333122Y-50610501D01*
X101337414Y-50608657D01*
X101456071Y-50535230D01*
X101562017Y-50469669D01*
X101562021Y-50469666D01*
X101565990Y-50467210D01*
X101771149Y-50293530D01*
X101948382Y-50091434D01*
X102093797Y-49865361D01*
X102204199Y-49620278D01*
X102241209Y-49489051D01*
X102275893Y-49366072D01*
X102275894Y-49366069D01*
X102277163Y-49361568D01*
X102295043Y-49221019D01*
X102310688Y-49098045D01*
X102310688Y-49098041D01*
X102311086Y-49094915D01*
X102313571Y-49000000D01*
X102293650Y-48731937D01*
X102234327Y-48469763D01*
X102136902Y-48219238D01*
X102003518Y-47985864D01*
X101837105Y-47774769D01*
X101641317Y-47590591D01*
X101420457Y-47437374D01*
X101416264Y-47435306D01*
X101183564Y-47320551D01*
X101183561Y-47320550D01*
X101179376Y-47318486D01*
X101131745Y-47303239D01*
X101077621Y-47285914D01*
X100923370Y-47236538D01*
X100918763Y-47235788D01*
X100918760Y-47235787D01*
X100662674Y-47194081D01*
X100662675Y-47194081D01*
X100658063Y-47193330D01*
X100527719Y-47191624D01*
X100393961Y-47189873D01*
X100393958Y-47189873D01*
X100389284Y-47189812D01*
X100122937Y-47226060D01*
X99864874Y-47301278D01*
X99620763Y-47413815D01*
X99616854Y-47416378D01*
X99399881Y-47558631D01*
X99399876Y-47558635D01*
X99395968Y-47561197D01*
X99195426Y-47740188D01*
X99023544Y-47946854D01*
X98884096Y-48176656D01*
X98780148Y-48424545D01*
X98713981Y-48685077D01*
X98687050Y-48952526D01*
X25508500Y-48952526D01*
X25508500Y-41248134D01*
X27791500Y-41248134D01*
X27798255Y-41310316D01*
X27849385Y-41446705D01*
X27936739Y-41563261D01*
X28053295Y-41650615D01*
X28189684Y-41701745D01*
X28251866Y-41708500D01*
X30748134Y-41708500D01*
X30810316Y-41701745D01*
X30946705Y-41650615D01*
X31063261Y-41563261D01*
X31150615Y-41446705D01*
X31201745Y-41310316D01*
X31208500Y-41248134D01*
X31208500Y-38751866D01*
X31201745Y-38689684D01*
X31150615Y-38553295D01*
X31063261Y-38436739D01*
X30946705Y-38349385D01*
X30810316Y-38298255D01*
X30748134Y-38291500D01*
X28251866Y-38291500D01*
X28189684Y-38298255D01*
X28053295Y-38349385D01*
X27936739Y-38436739D01*
X27849385Y-38553295D01*
X27798255Y-38689684D01*
X27791500Y-38751866D01*
X27791500Y-41248134D01*
X25508500Y-41248134D01*
X25508500Y-36452526D01*
X98687050Y-36452526D01*
X98699947Y-36721019D01*
X98752388Y-36984656D01*
X98843220Y-37237646D01*
X98970450Y-37474431D01*
X98973241Y-37478168D01*
X98973245Y-37478175D01*
X99054887Y-37587506D01*
X99131281Y-37689810D01*
X99134590Y-37693090D01*
X99134595Y-37693096D01*
X99318863Y-37875762D01*
X99322180Y-37879050D01*
X99325942Y-37881808D01*
X99325945Y-37881811D01*
X99438299Y-37964192D01*
X99538954Y-38037995D01*
X99543089Y-38040171D01*
X99543093Y-38040173D01*
X99772698Y-38160975D01*
X99776840Y-38163154D01*
X100030613Y-38251775D01*
X100035206Y-38252647D01*
X100290109Y-38301042D01*
X100290112Y-38301042D01*
X100294698Y-38301913D01*
X100422370Y-38306929D01*
X100558625Y-38312283D01*
X100558630Y-38312283D01*
X100563293Y-38312466D01*
X100667726Y-38301029D01*
X100825844Y-38283713D01*
X100825850Y-38283712D01*
X100830497Y-38283203D01*
X100835021Y-38282012D01*
X101085918Y-38215956D01*
X101085920Y-38215955D01*
X101090441Y-38214765D01*
X101094738Y-38212919D01*
X101333120Y-38110502D01*
X101333122Y-38110501D01*
X101337414Y-38108657D01*
X101456071Y-38035230D01*
X101562017Y-37969669D01*
X101562021Y-37969666D01*
X101565990Y-37967210D01*
X101771149Y-37793530D01*
X101948382Y-37591434D01*
X102093797Y-37365361D01*
X102204199Y-37120278D01*
X102241209Y-36989051D01*
X102275893Y-36866072D01*
X102275894Y-36866069D01*
X102277163Y-36861568D01*
X102295043Y-36721019D01*
X102310688Y-36598045D01*
X102310688Y-36598041D01*
X102311086Y-36594915D01*
X102313571Y-36500000D01*
X102293650Y-36231937D01*
X102234327Y-35969763D01*
X102136902Y-35719238D01*
X102003518Y-35485864D01*
X101837105Y-35274769D01*
X101641317Y-35090591D01*
X101444266Y-34953891D01*
X101424299Y-34940039D01*
X101424296Y-34940037D01*
X101420457Y-34937374D01*
X101416264Y-34935306D01*
X101183564Y-34820551D01*
X101183561Y-34820550D01*
X101179376Y-34818486D01*
X101131745Y-34803239D01*
X100970208Y-34751531D01*
X100923370Y-34736538D01*
X100918763Y-34735788D01*
X100918760Y-34735787D01*
X100662674Y-34694081D01*
X100662675Y-34694081D01*
X100658063Y-34693330D01*
X100527719Y-34691624D01*
X100393961Y-34689873D01*
X100393958Y-34689873D01*
X100389284Y-34689812D01*
X100122937Y-34726060D01*
X99864874Y-34801278D01*
X99620763Y-34913815D01*
X99616854Y-34916378D01*
X99399881Y-35058631D01*
X99399876Y-35058635D01*
X99395968Y-35061197D01*
X99392476Y-35064314D01*
X99238498Y-35201745D01*
X99195426Y-35240188D01*
X99023544Y-35446854D01*
X98884096Y-35676656D01*
X98780148Y-35924545D01*
X98713981Y-36185077D01*
X98687050Y-36452526D01*
X25508500Y-36452526D01*
X25508500Y-34748134D01*
X87791500Y-34748134D01*
X87798255Y-34810316D01*
X87849385Y-34946705D01*
X87936739Y-35063261D01*
X88053295Y-35150615D01*
X88189684Y-35201745D01*
X88251866Y-35208500D01*
X90748134Y-35208500D01*
X90810316Y-35201745D01*
X90946705Y-35150615D01*
X91063261Y-35063261D01*
X91150615Y-34946705D01*
X91201745Y-34810316D01*
X91208500Y-34748134D01*
X91208500Y-32251866D01*
X91201745Y-32189684D01*
X91150615Y-32053295D01*
X91063261Y-31936739D01*
X90946705Y-31849385D01*
X90810316Y-31798255D01*
X90748134Y-31791500D01*
X88251866Y-31791500D01*
X88189684Y-31798255D01*
X88053295Y-31849385D01*
X87936739Y-31936739D01*
X87849385Y-32053295D01*
X87798255Y-32189684D01*
X87791500Y-32251866D01*
X87791500Y-34748134D01*
X25508500Y-34748134D01*
X25508500Y-28952526D01*
X27687050Y-28952526D01*
X27699947Y-29221019D01*
X27752388Y-29484656D01*
X27843220Y-29737646D01*
X27970450Y-29974431D01*
X27973241Y-29978168D01*
X27973245Y-29978175D01*
X28054887Y-30087506D01*
X28131281Y-30189810D01*
X28134590Y-30193090D01*
X28134595Y-30193096D01*
X28318863Y-30375762D01*
X28322180Y-30379050D01*
X28325942Y-30381808D01*
X28325945Y-30381811D01*
X28438299Y-30464192D01*
X28538954Y-30537995D01*
X28543089Y-30540171D01*
X28543093Y-30540173D01*
X28772698Y-30660975D01*
X28776840Y-30663154D01*
X29030613Y-30751775D01*
X29035206Y-30752647D01*
X29290109Y-30801042D01*
X29290112Y-30801042D01*
X29294698Y-30801913D01*
X29422370Y-30806929D01*
X29558625Y-30812283D01*
X29558630Y-30812283D01*
X29563293Y-30812466D01*
X29667607Y-30801042D01*
X29825844Y-30783713D01*
X29825850Y-30783712D01*
X29830497Y-30783203D01*
X29835021Y-30782012D01*
X30085918Y-30715956D01*
X30085920Y-30715955D01*
X30090441Y-30714765D01*
X30094738Y-30712919D01*
X30333120Y-30610502D01*
X30333122Y-30610501D01*
X30337414Y-30608657D01*
X30456071Y-30535230D01*
X30562017Y-30469669D01*
X30562021Y-30469666D01*
X30565990Y-30467210D01*
X30771149Y-30293530D01*
X30948382Y-30091434D01*
X31093797Y-29865361D01*
X31204199Y-29620278D01*
X31241209Y-29489051D01*
X31275893Y-29366072D01*
X31275894Y-29366069D01*
X31277163Y-29361568D01*
X31295043Y-29221019D01*
X31310688Y-29098045D01*
X31310688Y-29098041D01*
X31311086Y-29094915D01*
X31313571Y-29000000D01*
X31293650Y-28731937D01*
X31234327Y-28469763D01*
X31136902Y-28219238D01*
X31003518Y-27985864D01*
X30837105Y-27774769D01*
X30641317Y-27590591D01*
X30420457Y-27437374D01*
X30416264Y-27435306D01*
X30183564Y-27320551D01*
X30183561Y-27320550D01*
X30179376Y-27318486D01*
X30131745Y-27303239D01*
X30077621Y-27285914D01*
X29923370Y-27236538D01*
X29918763Y-27235788D01*
X29918760Y-27235787D01*
X29662674Y-27194081D01*
X29662675Y-27194081D01*
X29658063Y-27193330D01*
X29527719Y-27191624D01*
X29393961Y-27189873D01*
X29393958Y-27189873D01*
X29389284Y-27189812D01*
X29122937Y-27226060D01*
X28864874Y-27301278D01*
X28620763Y-27413815D01*
X28616854Y-27416378D01*
X28399881Y-27558631D01*
X28399876Y-27558635D01*
X28395968Y-27561197D01*
X28195426Y-27740188D01*
X28023544Y-27946854D01*
X27884096Y-28176656D01*
X27780148Y-28424545D01*
X27713981Y-28685077D01*
X27687050Y-28952526D01*
X25508500Y-28952526D01*
X25508500Y-20634500D01*
X25528502Y-20566379D01*
X25582158Y-20519886D01*
X25634500Y-20508500D01*
X38374000Y-20508500D01*
X38442121Y-20528502D01*
G37*
G04 #@! TD.AperFunction*
M02*
