G04 #@! TF.GenerationSoftware,KiCad,Pcbnew,5.1.10-88a1d61d58~90~ubuntu20.04.1*
G04 #@! TF.CreationDate,2021-11-04T09:36:55-04:00*
G04 #@! TF.ProjectId,buck_boost,6275636b-5f62-46f6-9f73-742e6b696361,rev?*
G04 #@! TF.SameCoordinates,Original*
G04 #@! TF.FileFunction,Copper,L1,Top*
G04 #@! TF.FilePolarity,Positive*
%FSLAX46Y46*%
G04 Gerber Fmt 4.6, Leading zero omitted, Abs format (unit mm)*
G04 Created by KiCad (PCBNEW 5.1.10-88a1d61d58~90~ubuntu20.04.1) date 2021-11-04 09:36:55*
%MOMM*%
%LPD*%
G01*
G04 APERTURE LIST*
G04 #@! TA.AperFunction,SMDPad,CuDef*
%ADD10R,2.200000X1.200000*%
G04 #@! TD*
G04 #@! TA.AperFunction,SMDPad,CuDef*
%ADD11R,6.400000X5.800000*%
G04 #@! TD*
G04 #@! TA.AperFunction,ComponentPad*
%ADD12C,2.400000*%
G04 #@! TD*
G04 #@! TA.AperFunction,ComponentPad*
%ADD13R,2.400000X2.400000*%
G04 #@! TD*
G04 #@! TA.AperFunction,SMDPad,CuDef*
%ADD14R,1.100000X0.400000*%
G04 #@! TD*
G04 #@! TA.AperFunction,SMDPad,CuDef*
%ADD15R,1.200000X1.542500*%
G04 #@! TD*
G04 #@! TA.AperFunction,ComponentPad*
%ADD16C,1.440000*%
G04 #@! TD*
G04 #@! TA.AperFunction,ComponentPad*
%ADD17C,1.800000*%
G04 #@! TD*
G04 #@! TA.AperFunction,SMDPad,CuDef*
%ADD18R,6.350000X6.500000*%
G04 #@! TD*
G04 #@! TA.AperFunction,SMDPad,CuDef*
%ADD19R,5.330000X5.590000*%
G04 #@! TD*
G04 #@! TA.AperFunction,ComponentPad*
%ADD20C,2.600000*%
G04 #@! TD*
G04 #@! TA.AperFunction,SMDPad,CuDef*
%ADD21R,1.100000X1.100000*%
G04 #@! TD*
G04 #@! TA.AperFunction,ViaPad*
%ADD22C,0.889000*%
G04 #@! TD*
G04 #@! TA.AperFunction,ViaPad*
%ADD23C,0.685800*%
G04 #@! TD*
G04 #@! TA.AperFunction,Conductor*
%ADD24C,0.508000*%
G04 #@! TD*
G04 #@! TA.AperFunction,Conductor*
%ADD25C,0.254000*%
G04 #@! TD*
G04 #@! TA.AperFunction,Conductor*
%ADD26C,0.889000*%
G04 #@! TD*
G04 #@! TA.AperFunction,Conductor*
%ADD27C,1.270000*%
G04 #@! TD*
G04 #@! TA.AperFunction,Conductor*
%ADD28C,0.100000*%
G04 #@! TD*
G04 APERTURE END LIST*
D10*
X65700000Y-66280000D03*
X65700000Y-61720000D03*
D11*
X59400000Y-64000000D03*
X71175000Y-56000000D03*
D10*
X64875000Y-58280000D03*
X64875000Y-53720000D03*
D12*
X84500000Y-34500000D03*
D13*
X89500000Y-34500000D03*
D12*
X84500000Y-48000000D03*
D13*
X89500000Y-48000000D03*
D11*
X47500000Y-56525000D03*
D10*
X41200000Y-58805000D03*
X41200000Y-54245000D03*
X49500000Y-66780000D03*
X49500000Y-62220000D03*
D11*
X43200000Y-64500000D03*
X90325000Y-73525000D03*
D10*
X84025000Y-75805000D03*
X84025000Y-71245000D03*
D14*
X48650000Y-71775000D03*
X48650000Y-72425000D03*
X48650000Y-73075000D03*
X48650000Y-73725000D03*
X48650000Y-74375000D03*
X48650000Y-75025000D03*
X48650000Y-75675000D03*
X48650000Y-76325000D03*
X48650000Y-76975000D03*
X48650000Y-77625000D03*
X48650000Y-78275000D03*
X48650000Y-78925000D03*
X48650000Y-79575000D03*
X48650000Y-80225000D03*
X54350000Y-80225000D03*
X54350000Y-79575000D03*
X54350000Y-78925000D03*
X54350000Y-78275000D03*
X54350000Y-77625000D03*
X54350000Y-76975000D03*
X54350000Y-76325000D03*
X54350000Y-75675000D03*
X54350000Y-75025000D03*
X54350000Y-74375000D03*
X54350000Y-73725000D03*
X54350000Y-73075000D03*
X54350000Y-72425000D03*
X54350000Y-71775000D03*
D15*
X52100000Y-78313750D03*
X52100000Y-76771250D03*
X52100000Y-75228750D03*
X52100000Y-73686250D03*
X50900000Y-78313750D03*
X50900000Y-76771250D03*
X50900000Y-75228750D03*
X50900000Y-73686250D03*
G04 #@! TA.AperFunction,SMDPad,CuDef*
G36*
G01*
X83800000Y-66125000D02*
X83800000Y-65925000D01*
G75*
G02*
X83900000Y-65825000I100000J0D01*
G01*
X85325000Y-65825000D01*
G75*
G02*
X85425000Y-65925000I0J-100000D01*
G01*
X85425000Y-66125000D01*
G75*
G02*
X85325000Y-66225000I-100000J0D01*
G01*
X83900000Y-66225000D01*
G75*
G02*
X83800000Y-66125000I0J100000D01*
G01*
G37*
G04 #@! TD.AperFunction*
G04 #@! TA.AperFunction,SMDPad,CuDef*
G36*
G01*
X83800000Y-66775000D02*
X83800000Y-66575000D01*
G75*
G02*
X83900000Y-66475000I100000J0D01*
G01*
X85325000Y-66475000D01*
G75*
G02*
X85425000Y-66575000I0J-100000D01*
G01*
X85425000Y-66775000D01*
G75*
G02*
X85325000Y-66875000I-100000J0D01*
G01*
X83900000Y-66875000D01*
G75*
G02*
X83800000Y-66775000I0J100000D01*
G01*
G37*
G04 #@! TD.AperFunction*
G04 #@! TA.AperFunction,SMDPad,CuDef*
G36*
G01*
X83800000Y-67425000D02*
X83800000Y-67225000D01*
G75*
G02*
X83900000Y-67125000I100000J0D01*
G01*
X85325000Y-67125000D01*
G75*
G02*
X85425000Y-67225000I0J-100000D01*
G01*
X85425000Y-67425000D01*
G75*
G02*
X85325000Y-67525000I-100000J0D01*
G01*
X83900000Y-67525000D01*
G75*
G02*
X83800000Y-67425000I0J100000D01*
G01*
G37*
G04 #@! TD.AperFunction*
G04 #@! TA.AperFunction,SMDPad,CuDef*
G36*
G01*
X83800000Y-68075000D02*
X83800000Y-67875000D01*
G75*
G02*
X83900000Y-67775000I100000J0D01*
G01*
X85325000Y-67775000D01*
G75*
G02*
X85425000Y-67875000I0J-100000D01*
G01*
X85425000Y-68075000D01*
G75*
G02*
X85325000Y-68175000I-100000J0D01*
G01*
X83900000Y-68175000D01*
G75*
G02*
X83800000Y-68075000I0J100000D01*
G01*
G37*
G04 #@! TD.AperFunction*
G04 #@! TA.AperFunction,SMDPad,CuDef*
G36*
G01*
X79575000Y-68075000D02*
X79575000Y-67875000D01*
G75*
G02*
X79675000Y-67775000I100000J0D01*
G01*
X81100000Y-67775000D01*
G75*
G02*
X81200000Y-67875000I0J-100000D01*
G01*
X81200000Y-68075000D01*
G75*
G02*
X81100000Y-68175000I-100000J0D01*
G01*
X79675000Y-68175000D01*
G75*
G02*
X79575000Y-68075000I0J100000D01*
G01*
G37*
G04 #@! TD.AperFunction*
G04 #@! TA.AperFunction,SMDPad,CuDef*
G36*
G01*
X79575000Y-67425000D02*
X79575000Y-67225000D01*
G75*
G02*
X79675000Y-67125000I100000J0D01*
G01*
X81100000Y-67125000D01*
G75*
G02*
X81200000Y-67225000I0J-100000D01*
G01*
X81200000Y-67425000D01*
G75*
G02*
X81100000Y-67525000I-100000J0D01*
G01*
X79675000Y-67525000D01*
G75*
G02*
X79575000Y-67425000I0J100000D01*
G01*
G37*
G04 #@! TD.AperFunction*
G04 #@! TA.AperFunction,SMDPad,CuDef*
G36*
G01*
X79575000Y-66775000D02*
X79575000Y-66575000D01*
G75*
G02*
X79675000Y-66475000I100000J0D01*
G01*
X81100000Y-66475000D01*
G75*
G02*
X81200000Y-66575000I0J-100000D01*
G01*
X81200000Y-66775000D01*
G75*
G02*
X81100000Y-66875000I-100000J0D01*
G01*
X79675000Y-66875000D01*
G75*
G02*
X79575000Y-66775000I0J100000D01*
G01*
G37*
G04 #@! TD.AperFunction*
G04 #@! TA.AperFunction,SMDPad,CuDef*
G36*
G01*
X79575000Y-66125000D02*
X79575000Y-65925000D01*
G75*
G02*
X79675000Y-65825000I100000J0D01*
G01*
X81100000Y-65825000D01*
G75*
G02*
X81200000Y-65925000I0J-100000D01*
G01*
X81200000Y-66125000D01*
G75*
G02*
X81100000Y-66225000I-100000J0D01*
G01*
X79675000Y-66225000D01*
G75*
G02*
X79575000Y-66125000I0J100000D01*
G01*
G37*
G04 #@! TD.AperFunction*
D16*
X66500000Y-81920000D03*
X66500000Y-84460000D03*
X66500000Y-87000000D03*
D17*
X84000000Y-57866670D03*
X91500000Y-59500000D03*
G04 #@! TA.AperFunction,SMDPad,CuDef*
G36*
G01*
X43487500Y-88950001D02*
X43487500Y-88049999D01*
G75*
G02*
X43737499Y-87800000I249999J0D01*
G01*
X44262501Y-87800000D01*
G75*
G02*
X44512500Y-88049999I0J-249999D01*
G01*
X44512500Y-88950001D01*
G75*
G02*
X44262501Y-89200000I-249999J0D01*
G01*
X43737499Y-89200000D01*
G75*
G02*
X43487500Y-88950001I0J249999D01*
G01*
G37*
G04 #@! TD.AperFunction*
G04 #@! TA.AperFunction,SMDPad,CuDef*
G36*
G01*
X41662500Y-88950001D02*
X41662500Y-88049999D01*
G75*
G02*
X41912499Y-87800000I249999J0D01*
G01*
X42437501Y-87800000D01*
G75*
G02*
X42687500Y-88049999I0J-249999D01*
G01*
X42687500Y-88950001D01*
G75*
G02*
X42437501Y-89200000I-249999J0D01*
G01*
X41912499Y-89200000D01*
G75*
G02*
X41662500Y-88950001I0J249999D01*
G01*
G37*
G04 #@! TD.AperFunction*
G04 #@! TA.AperFunction,SMDPad,CuDef*
G36*
G01*
X58400000Y-87450001D02*
X58400000Y-86549999D01*
G75*
G02*
X58649999Y-86300000I249999J0D01*
G01*
X59175001Y-86300000D01*
G75*
G02*
X59425000Y-86549999I0J-249999D01*
G01*
X59425000Y-87450001D01*
G75*
G02*
X59175001Y-87700000I-249999J0D01*
G01*
X58649999Y-87700000D01*
G75*
G02*
X58400000Y-87450001I0J249999D01*
G01*
G37*
G04 #@! TD.AperFunction*
G04 #@! TA.AperFunction,SMDPad,CuDef*
G36*
G01*
X56575000Y-87450001D02*
X56575000Y-86549999D01*
G75*
G02*
X56824999Y-86300000I249999J0D01*
G01*
X57350001Y-86300000D01*
G75*
G02*
X57600000Y-86549999I0J-249999D01*
G01*
X57600000Y-87450001D01*
G75*
G02*
X57350001Y-87700000I-249999J0D01*
G01*
X56824999Y-87700000D01*
G75*
G02*
X56575000Y-87450001I0J249999D01*
G01*
G37*
G04 #@! TD.AperFunction*
G04 #@! TA.AperFunction,SMDPad,CuDef*
G36*
G01*
X72312500Y-88450001D02*
X72312500Y-87549999D01*
G75*
G02*
X72562499Y-87300000I249999J0D01*
G01*
X73087501Y-87300000D01*
G75*
G02*
X73337500Y-87549999I0J-249999D01*
G01*
X73337500Y-88450001D01*
G75*
G02*
X73087501Y-88700000I-249999J0D01*
G01*
X72562499Y-88700000D01*
G75*
G02*
X72312500Y-88450001I0J249999D01*
G01*
G37*
G04 #@! TD.AperFunction*
G04 #@! TA.AperFunction,SMDPad,CuDef*
G36*
G01*
X70487500Y-88450001D02*
X70487500Y-87549999D01*
G75*
G02*
X70737499Y-87300000I249999J0D01*
G01*
X71262501Y-87300000D01*
G75*
G02*
X71512500Y-87549999I0J-249999D01*
G01*
X71512500Y-88450001D01*
G75*
G02*
X71262501Y-88700000I-249999J0D01*
G01*
X70737499Y-88700000D01*
G75*
G02*
X70487500Y-88450001I0J249999D01*
G01*
G37*
G04 #@! TD.AperFunction*
G04 #@! TA.AperFunction,SMDPad,CuDef*
G36*
G01*
X51987500Y-83950001D02*
X51987500Y-83049999D01*
G75*
G02*
X52237499Y-82800000I249999J0D01*
G01*
X52762501Y-82800000D01*
G75*
G02*
X53012500Y-83049999I0J-249999D01*
G01*
X53012500Y-83950001D01*
G75*
G02*
X52762501Y-84200000I-249999J0D01*
G01*
X52237499Y-84200000D01*
G75*
G02*
X51987500Y-83950001I0J249999D01*
G01*
G37*
G04 #@! TD.AperFunction*
G04 #@! TA.AperFunction,SMDPad,CuDef*
G36*
G01*
X53812500Y-83950001D02*
X53812500Y-83049999D01*
G75*
G02*
X54062499Y-82800000I249999J0D01*
G01*
X54587501Y-82800000D01*
G75*
G02*
X54837500Y-83049999I0J-249999D01*
G01*
X54837500Y-83950001D01*
G75*
G02*
X54587501Y-84200000I-249999J0D01*
G01*
X54062499Y-84200000D01*
G75*
G02*
X53812500Y-83950001I0J249999D01*
G01*
G37*
G04 #@! TD.AperFunction*
G04 #@! TA.AperFunction,SMDPad,CuDef*
G36*
G01*
X72100000Y-83874999D02*
X72100000Y-85125001D01*
G75*
G02*
X71850001Y-85375000I-249999J0D01*
G01*
X71224999Y-85375000D01*
G75*
G02*
X70975000Y-85125001I0J249999D01*
G01*
X70975000Y-83874999D01*
G75*
G02*
X71224999Y-83625000I249999J0D01*
G01*
X71850001Y-83625000D01*
G75*
G02*
X72100000Y-83874999I0J-249999D01*
G01*
G37*
G04 #@! TD.AperFunction*
G04 #@! TA.AperFunction,SMDPad,CuDef*
G36*
G01*
X75025000Y-83874999D02*
X75025000Y-85125001D01*
G75*
G02*
X74775001Y-85375000I-249999J0D01*
G01*
X74149999Y-85375000D01*
G75*
G02*
X73900000Y-85125001I0J249999D01*
G01*
X73900000Y-83874999D01*
G75*
G02*
X74149999Y-83625000I249999J0D01*
G01*
X74775001Y-83625000D01*
G75*
G02*
X75025000Y-83874999I0J-249999D01*
G01*
G37*
G04 #@! TD.AperFunction*
G04 #@! TA.AperFunction,SMDPad,CuDef*
G36*
G01*
X47987500Y-86450001D02*
X47987500Y-85549999D01*
G75*
G02*
X48237499Y-85300000I249999J0D01*
G01*
X48762501Y-85300000D01*
G75*
G02*
X49012500Y-85549999I0J-249999D01*
G01*
X49012500Y-86450001D01*
G75*
G02*
X48762501Y-86700000I-249999J0D01*
G01*
X48237499Y-86700000D01*
G75*
G02*
X47987500Y-86450001I0J249999D01*
G01*
G37*
G04 #@! TD.AperFunction*
G04 #@! TA.AperFunction,SMDPad,CuDef*
G36*
G01*
X49812500Y-86450001D02*
X49812500Y-85549999D01*
G75*
G02*
X50062499Y-85300000I249999J0D01*
G01*
X50587501Y-85300000D01*
G75*
G02*
X50837500Y-85549999I0J-249999D01*
G01*
X50837500Y-86450001D01*
G75*
G02*
X50587501Y-86700000I-249999J0D01*
G01*
X50062499Y-86700000D01*
G75*
G02*
X49812500Y-86450001I0J249999D01*
G01*
G37*
G04 #@! TD.AperFunction*
G04 #@! TA.AperFunction,SMDPad,CuDef*
G36*
G01*
X58312500Y-77450001D02*
X58312500Y-76549999D01*
G75*
G02*
X58562499Y-76300000I249999J0D01*
G01*
X59087501Y-76300000D01*
G75*
G02*
X59337500Y-76549999I0J-249999D01*
G01*
X59337500Y-77450001D01*
G75*
G02*
X59087501Y-77700000I-249999J0D01*
G01*
X58562499Y-77700000D01*
G75*
G02*
X58312500Y-77450001I0J249999D01*
G01*
G37*
G04 #@! TD.AperFunction*
G04 #@! TA.AperFunction,SMDPad,CuDef*
G36*
G01*
X56487500Y-77450001D02*
X56487500Y-76549999D01*
G75*
G02*
X56737499Y-76300000I249999J0D01*
G01*
X57262501Y-76300000D01*
G75*
G02*
X57512500Y-76549999I0J-249999D01*
G01*
X57512500Y-77450001D01*
G75*
G02*
X57262501Y-77700000I-249999J0D01*
G01*
X56737499Y-77700000D01*
G75*
G02*
X56487500Y-77450001I0J249999D01*
G01*
G37*
G04 #@! TD.AperFunction*
G04 #@! TA.AperFunction,SMDPad,CuDef*
G36*
G01*
X58312500Y-79950001D02*
X58312500Y-79049999D01*
G75*
G02*
X58562499Y-78800000I249999J0D01*
G01*
X59087501Y-78800000D01*
G75*
G02*
X59337500Y-79049999I0J-249999D01*
G01*
X59337500Y-79950001D01*
G75*
G02*
X59087501Y-80200000I-249999J0D01*
G01*
X58562499Y-80200000D01*
G75*
G02*
X58312500Y-79950001I0J249999D01*
G01*
G37*
G04 #@! TD.AperFunction*
G04 #@! TA.AperFunction,SMDPad,CuDef*
G36*
G01*
X56487500Y-79950001D02*
X56487500Y-79049999D01*
G75*
G02*
X56737499Y-78800000I249999J0D01*
G01*
X57262501Y-78800000D01*
G75*
G02*
X57512500Y-79049999I0J-249999D01*
G01*
X57512500Y-79950001D01*
G75*
G02*
X57262501Y-80200000I-249999J0D01*
G01*
X56737499Y-80200000D01*
G75*
G02*
X56487500Y-79950001I0J249999D01*
G01*
G37*
G04 #@! TD.AperFunction*
G04 #@! TA.AperFunction,SMDPad,CuDef*
G36*
G01*
X54437500Y-57625001D02*
X54437500Y-56374999D01*
G75*
G02*
X54687499Y-56125000I249999J0D01*
G01*
X55312501Y-56125000D01*
G75*
G02*
X55562500Y-56374999I0J-249999D01*
G01*
X55562500Y-57625001D01*
G75*
G02*
X55312501Y-57875000I-249999J0D01*
G01*
X54687499Y-57875000D01*
G75*
G02*
X54437500Y-57625001I0J249999D01*
G01*
G37*
G04 #@! TD.AperFunction*
G04 #@! TA.AperFunction,SMDPad,CuDef*
G36*
G01*
X51512500Y-57625001D02*
X51512500Y-56374999D01*
G75*
G02*
X51762499Y-56125000I249999J0D01*
G01*
X52387501Y-56125000D01*
G75*
G02*
X52637500Y-56374999I0J-249999D01*
G01*
X52637500Y-57625001D01*
G75*
G02*
X52387501Y-57875000I-249999J0D01*
G01*
X51762499Y-57875000D01*
G75*
G02*
X51512500Y-57625001I0J249999D01*
G01*
G37*
G04 #@! TD.AperFunction*
G04 #@! TA.AperFunction,SMDPad,CuDef*
G36*
G01*
X42687500Y-85549999D02*
X42687500Y-86450001D01*
G75*
G02*
X42437501Y-86700000I-249999J0D01*
G01*
X41912499Y-86700000D01*
G75*
G02*
X41662500Y-86450001I0J249999D01*
G01*
X41662500Y-85549999D01*
G75*
G02*
X41912499Y-85300000I249999J0D01*
G01*
X42437501Y-85300000D01*
G75*
G02*
X42687500Y-85549999I0J-249999D01*
G01*
G37*
G04 #@! TD.AperFunction*
G04 #@! TA.AperFunction,SMDPad,CuDef*
G36*
G01*
X44512500Y-85549999D02*
X44512500Y-86450001D01*
G75*
G02*
X44262501Y-86700000I-249999J0D01*
G01*
X43737499Y-86700000D01*
G75*
G02*
X43487500Y-86450001I0J249999D01*
G01*
X43487500Y-85549999D01*
G75*
G02*
X43737499Y-85300000I249999J0D01*
G01*
X44262501Y-85300000D01*
G75*
G02*
X44512500Y-85549999I0J-249999D01*
G01*
G37*
G04 #@! TD.AperFunction*
G04 #@! TA.AperFunction,SMDPad,CuDef*
G36*
G01*
X43487500Y-83950001D02*
X43487500Y-83049999D01*
G75*
G02*
X43737499Y-82800000I249999J0D01*
G01*
X44262501Y-82800000D01*
G75*
G02*
X44512500Y-83049999I0J-249999D01*
G01*
X44512500Y-83950001D01*
G75*
G02*
X44262501Y-84200000I-249999J0D01*
G01*
X43737499Y-84200000D01*
G75*
G02*
X43487500Y-83950001I0J249999D01*
G01*
G37*
G04 #@! TD.AperFunction*
G04 #@! TA.AperFunction,SMDPad,CuDef*
G36*
G01*
X41662500Y-83950001D02*
X41662500Y-83049999D01*
G75*
G02*
X41912499Y-82800000I249999J0D01*
G01*
X42437501Y-82800000D01*
G75*
G02*
X42687500Y-83049999I0J-249999D01*
G01*
X42687500Y-83950001D01*
G75*
G02*
X42437501Y-84200000I-249999J0D01*
G01*
X41912499Y-84200000D01*
G75*
G02*
X41662500Y-83950001I0J249999D01*
G01*
G37*
G04 #@! TD.AperFunction*
D18*
X61000000Y-25670000D03*
D19*
X66075000Y-48355000D03*
X55925000Y-48355000D03*
G04 #@! TA.AperFunction,SMDPad,CuDef*
G36*
G01*
X86862500Y-80125001D02*
X86862500Y-78874999D01*
G75*
G02*
X87112499Y-78625000I249999J0D01*
G01*
X87737501Y-78625000D01*
G75*
G02*
X87987500Y-78874999I0J-249999D01*
G01*
X87987500Y-80125001D01*
G75*
G02*
X87737501Y-80375000I-249999J0D01*
G01*
X87112499Y-80375000D01*
G75*
G02*
X86862500Y-80125001I0J249999D01*
G01*
G37*
G04 #@! TD.AperFunction*
G04 #@! TA.AperFunction,SMDPad,CuDef*
G36*
G01*
X83937500Y-80125001D02*
X83937500Y-78874999D01*
G75*
G02*
X84187499Y-78625000I249999J0D01*
G01*
X84812501Y-78625000D01*
G75*
G02*
X85062500Y-78874999I0J-249999D01*
G01*
X85062500Y-80125001D01*
G75*
G02*
X84812501Y-80375000I-249999J0D01*
G01*
X84187499Y-80375000D01*
G75*
G02*
X83937500Y-80125001I0J249999D01*
G01*
G37*
G04 #@! TD.AperFunction*
D20*
X100500000Y-49000000D03*
X100500000Y-54000000D03*
X100500000Y-61500000D03*
X100500000Y-66500000D03*
X100500000Y-36500000D03*
X100500000Y-41500000D03*
X100500000Y-24000000D03*
X100500000Y-29000000D03*
X29500000Y-29000000D03*
X29500000Y-24000000D03*
G04 #@! TA.AperFunction,SMDPad,CuDef*
G36*
G01*
X48987500Y-88043750D02*
X48987500Y-88956250D01*
G75*
G02*
X48743750Y-89200000I-243750J0D01*
G01*
X48256250Y-89200000D01*
G75*
G02*
X48012500Y-88956250I0J243750D01*
G01*
X48012500Y-88043750D01*
G75*
G02*
X48256250Y-87800000I243750J0D01*
G01*
X48743750Y-87800000D01*
G75*
G02*
X48987500Y-88043750I0J-243750D01*
G01*
G37*
G04 #@! TD.AperFunction*
G04 #@! TA.AperFunction,SMDPad,CuDef*
G36*
G01*
X50862500Y-88043750D02*
X50862500Y-88956250D01*
G75*
G02*
X50618750Y-89200000I-243750J0D01*
G01*
X50131250Y-89200000D01*
G75*
G02*
X49887500Y-88956250I0J243750D01*
G01*
X49887500Y-88043750D01*
G75*
G02*
X50131250Y-87800000I243750J0D01*
G01*
X50618750Y-87800000D01*
G75*
G02*
X50862500Y-88043750I0J-243750D01*
G01*
G37*
G04 #@! TD.AperFunction*
D21*
X59500000Y-69500000D03*
X59500000Y-72300000D03*
X43000000Y-69600000D03*
X43000000Y-72400000D03*
G04 #@! TA.AperFunction,SMDPad,CuDef*
G36*
G01*
X50900000Y-83025000D02*
X50900000Y-83975000D01*
G75*
G02*
X50650000Y-84225000I-250000J0D01*
G01*
X50150000Y-84225000D01*
G75*
G02*
X49900000Y-83975000I0J250000D01*
G01*
X49900000Y-83025000D01*
G75*
G02*
X50150000Y-82775000I250000J0D01*
G01*
X50650000Y-82775000D01*
G75*
G02*
X50900000Y-83025000I0J-250000D01*
G01*
G37*
G04 #@! TD.AperFunction*
G04 #@! TA.AperFunction,SMDPad,CuDef*
G36*
G01*
X49000000Y-83025000D02*
X49000000Y-83975000D01*
G75*
G02*
X48750000Y-84225000I-250000J0D01*
G01*
X48250000Y-84225000D01*
G75*
G02*
X48000000Y-83975000I0J250000D01*
G01*
X48000000Y-83025000D01*
G75*
G02*
X48250000Y-82775000I250000J0D01*
G01*
X48750000Y-82775000D01*
G75*
G02*
X49000000Y-83025000I0J-250000D01*
G01*
G37*
G04 #@! TD.AperFunction*
G04 #@! TA.AperFunction,SMDPad,CuDef*
G36*
G01*
X78875000Y-59150001D02*
X78875000Y-57849999D01*
G75*
G02*
X79124999Y-57600000I249999J0D01*
G01*
X79775001Y-57600000D01*
G75*
G02*
X80025000Y-57849999I0J-249999D01*
G01*
X80025000Y-59150001D01*
G75*
G02*
X79775001Y-59400000I-249999J0D01*
G01*
X79124999Y-59400000D01*
G75*
G02*
X78875000Y-59150001I0J249999D01*
G01*
G37*
G04 #@! TD.AperFunction*
G04 #@! TA.AperFunction,SMDPad,CuDef*
G36*
G01*
X75925000Y-59150001D02*
X75925000Y-57849999D01*
G75*
G02*
X76174999Y-57600000I249999J0D01*
G01*
X76825001Y-57600000D01*
G75*
G02*
X77075000Y-57849999I0J-249999D01*
G01*
X77075000Y-59150001D01*
G75*
G02*
X76825001Y-59400000I-249999J0D01*
G01*
X76174999Y-59400000D01*
G75*
G02*
X75925000Y-59150001I0J249999D01*
G01*
G37*
G04 #@! TD.AperFunction*
G04 #@! TA.AperFunction,SMDPad,CuDef*
G36*
G01*
X75375000Y-67650001D02*
X75375000Y-66349999D01*
G75*
G02*
X75624999Y-66100000I249999J0D01*
G01*
X76275001Y-66100000D01*
G75*
G02*
X76525000Y-66349999I0J-249999D01*
G01*
X76525000Y-67650001D01*
G75*
G02*
X76275001Y-67900000I-249999J0D01*
G01*
X75624999Y-67900000D01*
G75*
G02*
X75375000Y-67650001I0J249999D01*
G01*
G37*
G04 #@! TD.AperFunction*
G04 #@! TA.AperFunction,SMDPad,CuDef*
G36*
G01*
X72425000Y-67650001D02*
X72425000Y-66349999D01*
G75*
G02*
X72674999Y-66100000I249999J0D01*
G01*
X73325001Y-66100000D01*
G75*
G02*
X73575000Y-66349999I0J-249999D01*
G01*
X73575000Y-67650001D01*
G75*
G02*
X73325001Y-67900000I-249999J0D01*
G01*
X72674999Y-67900000D01*
G75*
G02*
X72425000Y-67650001I0J249999D01*
G01*
G37*
G04 #@! TD.AperFunction*
G04 #@! TA.AperFunction,SMDPad,CuDef*
G36*
G01*
X75375000Y-63650001D02*
X75375000Y-62349999D01*
G75*
G02*
X75624999Y-62100000I249999J0D01*
G01*
X76275001Y-62100000D01*
G75*
G02*
X76525000Y-62349999I0J-249999D01*
G01*
X76525000Y-63650001D01*
G75*
G02*
X76275001Y-63900000I-249999J0D01*
G01*
X75624999Y-63900000D01*
G75*
G02*
X75375000Y-63650001I0J249999D01*
G01*
G37*
G04 #@! TD.AperFunction*
G04 #@! TA.AperFunction,SMDPad,CuDef*
G36*
G01*
X72425000Y-63650001D02*
X72425000Y-62349999D01*
G75*
G02*
X72674999Y-62100000I249999J0D01*
G01*
X73325001Y-62100000D01*
G75*
G02*
X73575000Y-62349999I0J-249999D01*
G01*
X73575000Y-63650001D01*
G75*
G02*
X73325001Y-63900000I-249999J0D01*
G01*
X72674999Y-63900000D01*
G75*
G02*
X72425000Y-63650001I0J249999D01*
G01*
G37*
G04 #@! TD.AperFunction*
G04 #@! TA.AperFunction,SMDPad,CuDef*
G36*
G01*
X78875000Y-55150001D02*
X78875000Y-53849999D01*
G75*
G02*
X79124999Y-53600000I249999J0D01*
G01*
X79775001Y-53600000D01*
G75*
G02*
X80025000Y-53849999I0J-249999D01*
G01*
X80025000Y-55150001D01*
G75*
G02*
X79775001Y-55400000I-249999J0D01*
G01*
X79124999Y-55400000D01*
G75*
G02*
X78875000Y-55150001I0J249999D01*
G01*
G37*
G04 #@! TD.AperFunction*
G04 #@! TA.AperFunction,SMDPad,CuDef*
G36*
G01*
X75925000Y-55150001D02*
X75925000Y-53849999D01*
G75*
G02*
X76174999Y-53600000I249999J0D01*
G01*
X76825001Y-53600000D01*
G75*
G02*
X77075000Y-53849999I0J-249999D01*
G01*
X77075000Y-55150001D01*
G75*
G02*
X76825001Y-55400000I-249999J0D01*
G01*
X76174999Y-55400000D01*
G75*
G02*
X75925000Y-55150001I0J249999D01*
G01*
G37*
G04 #@! TD.AperFunction*
D12*
X77500000Y-75500000D03*
D13*
X72500000Y-75500000D03*
G04 #@! TA.AperFunction,SMDPad,CuDef*
G36*
G01*
X56500000Y-74975000D02*
X56500000Y-74025000D01*
G75*
G02*
X56750000Y-73775000I250000J0D01*
G01*
X57250000Y-73775000D01*
G75*
G02*
X57500000Y-74025000I0J-250000D01*
G01*
X57500000Y-74975000D01*
G75*
G02*
X57250000Y-75225000I-250000J0D01*
G01*
X56750000Y-75225000D01*
G75*
G02*
X56500000Y-74975000I0J250000D01*
G01*
G37*
G04 #@! TD.AperFunction*
G04 #@! TA.AperFunction,SMDPad,CuDef*
G36*
G01*
X58400000Y-74975000D02*
X58400000Y-74025000D01*
G75*
G02*
X58650000Y-73775000I250000J0D01*
G01*
X59150000Y-73775000D01*
G75*
G02*
X59400000Y-74025000I0J-250000D01*
G01*
X59400000Y-74975000D01*
G75*
G02*
X59150000Y-75225000I-250000J0D01*
G01*
X58650000Y-75225000D01*
G75*
G02*
X58400000Y-74975000I0J250000D01*
G01*
G37*
G04 #@! TD.AperFunction*
G04 #@! TA.AperFunction,SMDPad,CuDef*
G36*
G01*
X44600000Y-77525000D02*
X44600000Y-78475000D01*
G75*
G02*
X44350000Y-78725000I-250000J0D01*
G01*
X43850000Y-78725000D01*
G75*
G02*
X43600000Y-78475000I0J250000D01*
G01*
X43600000Y-77525000D01*
G75*
G02*
X43850000Y-77275000I250000J0D01*
G01*
X44350000Y-77275000D01*
G75*
G02*
X44600000Y-77525000I0J-250000D01*
G01*
G37*
G04 #@! TD.AperFunction*
G04 #@! TA.AperFunction,SMDPad,CuDef*
G36*
G01*
X46500000Y-77525000D02*
X46500000Y-78475000D01*
G75*
G02*
X46250000Y-78725000I-250000J0D01*
G01*
X45750000Y-78725000D01*
G75*
G02*
X45500000Y-78475000I0J250000D01*
G01*
X45500000Y-77525000D01*
G75*
G02*
X45750000Y-77275000I250000J0D01*
G01*
X46250000Y-77275000D01*
G75*
G02*
X46500000Y-77525000I0J-250000D01*
G01*
G37*
G04 #@! TD.AperFunction*
G04 #@! TA.AperFunction,SMDPad,CuDef*
G36*
G01*
X57475000Y-72900000D02*
X56525000Y-72900000D01*
G75*
G02*
X56275000Y-72650000I0J250000D01*
G01*
X56275000Y-72150000D01*
G75*
G02*
X56525000Y-71900000I250000J0D01*
G01*
X57475000Y-71900000D01*
G75*
G02*
X57725000Y-72150000I0J-250000D01*
G01*
X57725000Y-72650000D01*
G75*
G02*
X57475000Y-72900000I-250000J0D01*
G01*
G37*
G04 #@! TD.AperFunction*
G04 #@! TA.AperFunction,SMDPad,CuDef*
G36*
G01*
X57475000Y-71000000D02*
X56525000Y-71000000D01*
G75*
G02*
X56275000Y-70750000I0J250000D01*
G01*
X56275000Y-70250000D01*
G75*
G02*
X56525000Y-70000000I250000J0D01*
G01*
X57475000Y-70000000D01*
G75*
G02*
X57725000Y-70250000I0J-250000D01*
G01*
X57725000Y-70750000D01*
G75*
G02*
X57475000Y-71000000I-250000J0D01*
G01*
G37*
G04 #@! TD.AperFunction*
G04 #@! TA.AperFunction,SMDPad,CuDef*
G36*
G01*
X58400000Y-82475000D02*
X58400000Y-81525000D01*
G75*
G02*
X58650000Y-81275000I250000J0D01*
G01*
X59150000Y-81275000D01*
G75*
G02*
X59400000Y-81525000I0J-250000D01*
G01*
X59400000Y-82475000D01*
G75*
G02*
X59150000Y-82725000I-250000J0D01*
G01*
X58650000Y-82725000D01*
G75*
G02*
X58400000Y-82475000I0J250000D01*
G01*
G37*
G04 #@! TD.AperFunction*
G04 #@! TA.AperFunction,SMDPad,CuDef*
G36*
G01*
X56500000Y-82475000D02*
X56500000Y-81525000D01*
G75*
G02*
X56750000Y-81275000I250000J0D01*
G01*
X57250000Y-81275000D01*
G75*
G02*
X57500000Y-81525000I0J-250000D01*
G01*
X57500000Y-82475000D01*
G75*
G02*
X57250000Y-82725000I-250000J0D01*
G01*
X56750000Y-82725000D01*
G75*
G02*
X56500000Y-82475000I0J250000D01*
G01*
G37*
G04 #@! TD.AperFunction*
G04 #@! TA.AperFunction,SMDPad,CuDef*
G36*
G01*
X63900000Y-78475000D02*
X63900000Y-77525000D01*
G75*
G02*
X64150000Y-77275000I250000J0D01*
G01*
X64650000Y-77275000D01*
G75*
G02*
X64900000Y-77525000I0J-250000D01*
G01*
X64900000Y-78475000D01*
G75*
G02*
X64650000Y-78725000I-250000J0D01*
G01*
X64150000Y-78725000D01*
G75*
G02*
X63900000Y-78475000I0J250000D01*
G01*
G37*
G04 #@! TD.AperFunction*
G04 #@! TA.AperFunction,SMDPad,CuDef*
G36*
G01*
X62000000Y-78475000D02*
X62000000Y-77525000D01*
G75*
G02*
X62250000Y-77275000I250000J0D01*
G01*
X62750000Y-77275000D01*
G75*
G02*
X63000000Y-77525000I0J-250000D01*
G01*
X63000000Y-78475000D01*
G75*
G02*
X62750000Y-78725000I-250000J0D01*
G01*
X62250000Y-78725000D01*
G75*
G02*
X62000000Y-78475000I0J250000D01*
G01*
G37*
G04 #@! TD.AperFunction*
G04 #@! TA.AperFunction,SMDPad,CuDef*
G36*
G01*
X58400000Y-84975000D02*
X58400000Y-84025000D01*
G75*
G02*
X58650000Y-83775000I250000J0D01*
G01*
X59150000Y-83775000D01*
G75*
G02*
X59400000Y-84025000I0J-250000D01*
G01*
X59400000Y-84975000D01*
G75*
G02*
X59150000Y-85225000I-250000J0D01*
G01*
X58650000Y-85225000D01*
G75*
G02*
X58400000Y-84975000I0J250000D01*
G01*
G37*
G04 #@! TD.AperFunction*
G04 #@! TA.AperFunction,SMDPad,CuDef*
G36*
G01*
X56500000Y-84975000D02*
X56500000Y-84025000D01*
G75*
G02*
X56750000Y-83775000I250000J0D01*
G01*
X57250000Y-83775000D01*
G75*
G02*
X57500000Y-84025000I0J-250000D01*
G01*
X57500000Y-84975000D01*
G75*
G02*
X57250000Y-85225000I-250000J0D01*
G01*
X56750000Y-85225000D01*
G75*
G02*
X56500000Y-84975000I0J250000D01*
G01*
G37*
G04 #@! TD.AperFunction*
G04 #@! TA.AperFunction,SMDPad,CuDef*
G36*
G01*
X46475000Y-72900000D02*
X45525000Y-72900000D01*
G75*
G02*
X45275000Y-72650000I0J250000D01*
G01*
X45275000Y-72150000D01*
G75*
G02*
X45525000Y-71900000I250000J0D01*
G01*
X46475000Y-71900000D01*
G75*
G02*
X46725000Y-72150000I0J-250000D01*
G01*
X46725000Y-72650000D01*
G75*
G02*
X46475000Y-72900000I-250000J0D01*
G01*
G37*
G04 #@! TD.AperFunction*
G04 #@! TA.AperFunction,SMDPad,CuDef*
G36*
G01*
X46475000Y-71000000D02*
X45525000Y-71000000D01*
G75*
G02*
X45275000Y-70750000I0J250000D01*
G01*
X45275000Y-70250000D01*
G75*
G02*
X45525000Y-70000000I250000J0D01*
G01*
X46475000Y-70000000D01*
G75*
G02*
X46725000Y-70250000I0J-250000D01*
G01*
X46725000Y-70750000D01*
G75*
G02*
X46475000Y-71000000I-250000J0D01*
G01*
G37*
G04 #@! TD.AperFunction*
G04 #@! TA.AperFunction,SMDPad,CuDef*
G36*
G01*
X44600000Y-80525000D02*
X44600000Y-81475000D01*
G75*
G02*
X44350000Y-81725000I-250000J0D01*
G01*
X43850000Y-81725000D01*
G75*
G02*
X43600000Y-81475000I0J250000D01*
G01*
X43600000Y-80525000D01*
G75*
G02*
X43850000Y-80275000I250000J0D01*
G01*
X44350000Y-80275000D01*
G75*
G02*
X44600000Y-80525000I0J-250000D01*
G01*
G37*
G04 #@! TD.AperFunction*
G04 #@! TA.AperFunction,SMDPad,CuDef*
G36*
G01*
X46500000Y-80525000D02*
X46500000Y-81475000D01*
G75*
G02*
X46250000Y-81725000I-250000J0D01*
G01*
X45750000Y-81725000D01*
G75*
G02*
X45500000Y-81475000I0J250000D01*
G01*
X45500000Y-80525000D01*
G75*
G02*
X45750000Y-80275000I250000J0D01*
G01*
X46250000Y-80275000D01*
G75*
G02*
X46500000Y-80525000I0J-250000D01*
G01*
G37*
G04 #@! TD.AperFunction*
G04 #@! TA.AperFunction,SMDPad,CuDef*
G36*
G01*
X46500000Y-74025000D02*
X46500000Y-74975000D01*
G75*
G02*
X46250000Y-75225000I-250000J0D01*
G01*
X45750000Y-75225000D01*
G75*
G02*
X45500000Y-74975000I0J250000D01*
G01*
X45500000Y-74025000D01*
G75*
G02*
X45750000Y-73775000I250000J0D01*
G01*
X46250000Y-73775000D01*
G75*
G02*
X46500000Y-74025000I0J-250000D01*
G01*
G37*
G04 #@! TD.AperFunction*
G04 #@! TA.AperFunction,SMDPad,CuDef*
G36*
G01*
X44600000Y-74025000D02*
X44600000Y-74975000D01*
G75*
G02*
X44350000Y-75225000I-250000J0D01*
G01*
X43850000Y-75225000D01*
G75*
G02*
X43600000Y-74975000I0J250000D01*
G01*
X43600000Y-74025000D01*
G75*
G02*
X43850000Y-73775000I250000J0D01*
G01*
X44350000Y-73775000D01*
G75*
G02*
X44600000Y-74025000I0J-250000D01*
G01*
G37*
G04 #@! TD.AperFunction*
G04 #@! TA.AperFunction,SMDPad,CuDef*
G36*
G01*
X28125000Y-62349999D02*
X28125000Y-63650001D01*
G75*
G02*
X27875001Y-63900000I-249999J0D01*
G01*
X27224999Y-63900000D01*
G75*
G02*
X26975000Y-63650001I0J249999D01*
G01*
X26975000Y-62349999D01*
G75*
G02*
X27224999Y-62100000I249999J0D01*
G01*
X27875001Y-62100000D01*
G75*
G02*
X28125000Y-62349999I0J-249999D01*
G01*
G37*
G04 #@! TD.AperFunction*
G04 #@! TA.AperFunction,SMDPad,CuDef*
G36*
G01*
X31075000Y-62349999D02*
X31075000Y-63650001D01*
G75*
G02*
X30825001Y-63900000I-249999J0D01*
G01*
X30174999Y-63900000D01*
G75*
G02*
X29925000Y-63650001I0J249999D01*
G01*
X29925000Y-62349999D01*
G75*
G02*
X30174999Y-62100000I249999J0D01*
G01*
X30825001Y-62100000D01*
G75*
G02*
X31075000Y-62349999I0J-249999D01*
G01*
G37*
G04 #@! TD.AperFunction*
G04 #@! TA.AperFunction,SMDPad,CuDef*
G36*
G01*
X28075000Y-66349999D02*
X28075000Y-67650001D01*
G75*
G02*
X27825001Y-67900000I-249999J0D01*
G01*
X27174999Y-67900000D01*
G75*
G02*
X26925000Y-67650001I0J249999D01*
G01*
X26925000Y-66349999D01*
G75*
G02*
X27174999Y-66100000I249999J0D01*
G01*
X27825001Y-66100000D01*
G75*
G02*
X28075000Y-66349999I0J-249999D01*
G01*
G37*
G04 #@! TD.AperFunction*
G04 #@! TA.AperFunction,SMDPad,CuDef*
G36*
G01*
X31025000Y-66349999D02*
X31025000Y-67650001D01*
G75*
G02*
X30775001Y-67900000I-249999J0D01*
G01*
X30124999Y-67900000D01*
G75*
G02*
X29875000Y-67650001I0J249999D01*
G01*
X29875000Y-66349999D01*
G75*
G02*
X30124999Y-66100000I249999J0D01*
G01*
X30775001Y-66100000D01*
G75*
G02*
X31025000Y-66349999I0J-249999D01*
G01*
G37*
G04 #@! TD.AperFunction*
G04 #@! TA.AperFunction,SMDPad,CuDef*
G36*
G01*
X35375000Y-63650001D02*
X35375000Y-62349999D01*
G75*
G02*
X35624999Y-62100000I249999J0D01*
G01*
X36275001Y-62100000D01*
G75*
G02*
X36525000Y-62349999I0J-249999D01*
G01*
X36525000Y-63650001D01*
G75*
G02*
X36275001Y-63900000I-249999J0D01*
G01*
X35624999Y-63900000D01*
G75*
G02*
X35375000Y-63650001I0J249999D01*
G01*
G37*
G04 #@! TD.AperFunction*
G04 #@! TA.AperFunction,SMDPad,CuDef*
G36*
G01*
X32425000Y-63650001D02*
X32425000Y-62349999D01*
G75*
G02*
X32674999Y-62100000I249999J0D01*
G01*
X33325001Y-62100000D01*
G75*
G02*
X33575000Y-62349999I0J-249999D01*
G01*
X33575000Y-63650001D01*
G75*
G02*
X33325001Y-63900000I-249999J0D01*
G01*
X32674999Y-63900000D01*
G75*
G02*
X32425000Y-63650001I0J249999D01*
G01*
G37*
G04 #@! TD.AperFunction*
G04 #@! TA.AperFunction,SMDPad,CuDef*
G36*
G01*
X35375000Y-67650001D02*
X35375000Y-66349999D01*
G75*
G02*
X35624999Y-66100000I249999J0D01*
G01*
X36275001Y-66100000D01*
G75*
G02*
X36525000Y-66349999I0J-249999D01*
G01*
X36525000Y-67650001D01*
G75*
G02*
X36275001Y-67900000I-249999J0D01*
G01*
X35624999Y-67900000D01*
G75*
G02*
X35375000Y-67650001I0J249999D01*
G01*
G37*
G04 #@! TD.AperFunction*
G04 #@! TA.AperFunction,SMDPad,CuDef*
G36*
G01*
X32425000Y-67650001D02*
X32425000Y-66349999D01*
G75*
G02*
X32674999Y-66100000I249999J0D01*
G01*
X33325001Y-66100000D01*
G75*
G02*
X33575000Y-66349999I0J-249999D01*
G01*
X33575000Y-67650001D01*
G75*
G02*
X33325001Y-67900000I-249999J0D01*
G01*
X32674999Y-67900000D01*
G75*
G02*
X32425000Y-67650001I0J249999D01*
G01*
G37*
G04 #@! TD.AperFunction*
G04 #@! TA.AperFunction,SMDPad,CuDef*
G36*
G01*
X83500000Y-63525000D02*
X83500000Y-64475000D01*
G75*
G02*
X83250000Y-64725000I-250000J0D01*
G01*
X82750000Y-64725000D01*
G75*
G02*
X82500000Y-64475000I0J250000D01*
G01*
X82500000Y-63525000D01*
G75*
G02*
X82750000Y-63275000I250000J0D01*
G01*
X83250000Y-63275000D01*
G75*
G02*
X83500000Y-63525000I0J-250000D01*
G01*
G37*
G04 #@! TD.AperFunction*
G04 #@! TA.AperFunction,SMDPad,CuDef*
G36*
G01*
X85400000Y-63525000D02*
X85400000Y-64475000D01*
G75*
G02*
X85150000Y-64725000I-250000J0D01*
G01*
X84650000Y-64725000D01*
G75*
G02*
X84400000Y-64475000I0J250000D01*
G01*
X84400000Y-63525000D01*
G75*
G02*
X84650000Y-63275000I250000J0D01*
G01*
X85150000Y-63275000D01*
G75*
G02*
X85400000Y-63525000I0J-250000D01*
G01*
G37*
G04 #@! TD.AperFunction*
D12*
X34500000Y-75500000D03*
D13*
X29500000Y-75500000D03*
D12*
X34500000Y-40000000D03*
D13*
X29500000Y-40000000D03*
D12*
X34500000Y-54000000D03*
D13*
X29500000Y-54000000D03*
D22*
X50500000Y-78500000D03*
X51500000Y-78500000D03*
X52500000Y-78500000D03*
X52500000Y-77500000D03*
X51500000Y-77500000D03*
X50500000Y-77500000D03*
X50500000Y-76500000D03*
X51500000Y-76500000D03*
X52500000Y-76500000D03*
X52500000Y-75500000D03*
X51500000Y-75500000D03*
X50500000Y-75500000D03*
X50500000Y-74500000D03*
X51500000Y-74500000D03*
X52500000Y-74500000D03*
X52500000Y-73500000D03*
X51500000Y-73500000D03*
X50500000Y-73500000D03*
X56000000Y-87000000D03*
D23*
X60000000Y-84500000D03*
X60000000Y-82000000D03*
X60000000Y-77000000D03*
X41500000Y-85000000D03*
X65500000Y-78000000D03*
D22*
X44911000Y-82250000D03*
X45500000Y-62500000D03*
X44000000Y-62500000D03*
X42500000Y-62500000D03*
X41000000Y-62500000D03*
X45500000Y-64000000D03*
X44000000Y-64000000D03*
X42500000Y-64000000D03*
X41000000Y-64000000D03*
X45500000Y-65500000D03*
X44000000Y-65500000D03*
X42500000Y-65500000D03*
X41000000Y-65500000D03*
X45500000Y-67000000D03*
X44000000Y-67000000D03*
X42500000Y-67000000D03*
X41000000Y-67000000D03*
X45000000Y-56000000D03*
X46500000Y-56000000D03*
X48000000Y-56000000D03*
X48000000Y-57500000D03*
X46500000Y-57500000D03*
X45000000Y-57500000D03*
X45000000Y-59000000D03*
X46500000Y-59000000D03*
X48000000Y-59000000D03*
X49500000Y-59000000D03*
X49500000Y-57500000D03*
X49500000Y-56000000D03*
X49500000Y-54500000D03*
X48000000Y-54500000D03*
X46500000Y-54500000D03*
X45000000Y-54500000D03*
D23*
X51500000Y-62500000D03*
X52151309Y-70651309D03*
X44500000Y-72500000D03*
X47500000Y-74601597D03*
X51500000Y-61500000D03*
D22*
X57000000Y-62000000D03*
X58500000Y-62000000D03*
X60000000Y-62000000D03*
X61500000Y-62000000D03*
X61500000Y-63500000D03*
X60000000Y-63500000D03*
X58500000Y-63500000D03*
X57000000Y-63500000D03*
X57000000Y-65000000D03*
X58500000Y-65000000D03*
X60000000Y-65000000D03*
X61500000Y-65000000D03*
X61500000Y-66500000D03*
X60000000Y-66500000D03*
X58500000Y-66500000D03*
X57000000Y-66500000D03*
X58000000Y-71589000D03*
D23*
X43000000Y-73500000D03*
X56000000Y-75500000D03*
X58350678Y-72884282D03*
X45000000Y-87000000D03*
X46000000Y-77000000D03*
D22*
X68500000Y-58500000D03*
X70000000Y-58500000D03*
X71500000Y-58500000D03*
X73000000Y-58500000D03*
X73000000Y-57000000D03*
X71500000Y-57000000D03*
X70000000Y-57000000D03*
X68500000Y-57000000D03*
X68500000Y-55500000D03*
X70000000Y-55500000D03*
X71500000Y-55500000D03*
X73000000Y-55500000D03*
X73000000Y-54000000D03*
X71500000Y-54000000D03*
X70000000Y-54000000D03*
X68500000Y-54000000D03*
D23*
X51500000Y-82000000D03*
X51500000Y-87500000D03*
D22*
X52864664Y-88635336D03*
X54500000Y-85500000D03*
X54000000Y-87000000D03*
D23*
X47500000Y-73614197D03*
X49500000Y-69000000D03*
X49500000Y-68000000D03*
D22*
X68000000Y-67500000D03*
X68000000Y-68500000D03*
X55641726Y-73666214D03*
X70000000Y-88000000D03*
X66000000Y-61500000D03*
X65000000Y-61500000D03*
D23*
X59000000Y-75000000D03*
X59000000Y-74000000D03*
X44000000Y-78500000D03*
X44000000Y-77500000D03*
X44000000Y-75000000D03*
X44000000Y-74000000D03*
D22*
X30000000Y-67500000D03*
X31000000Y-67500000D03*
X31000000Y-66500000D03*
X30000000Y-66500000D03*
X30000000Y-63500000D03*
X31000000Y-63500000D03*
X31000000Y-62500000D03*
X30000000Y-62500000D03*
X75500000Y-67500000D03*
X76500000Y-67500000D03*
X76500000Y-66500000D03*
X75500000Y-66500000D03*
X75500000Y-63500000D03*
X76500000Y-63500000D03*
X76500000Y-62500000D03*
X75500000Y-62500000D03*
X79000000Y-59000000D03*
X80000000Y-59000000D03*
X80000000Y-58000000D03*
X79000000Y-58000000D03*
X79000000Y-55000000D03*
X80000000Y-55000000D03*
X80000000Y-54000000D03*
X79000000Y-54000000D03*
X41000000Y-58500000D03*
X42000000Y-58500000D03*
X32500000Y-67500000D03*
X33500000Y-67500000D03*
X33500000Y-66500000D03*
X32500000Y-66500000D03*
X32500000Y-62500000D03*
X32500000Y-63500000D03*
X33500000Y-63500000D03*
X33500000Y-62500000D03*
X40000000Y-58500000D03*
X40000000Y-59500000D03*
X41000000Y-59500000D03*
X42000000Y-59500000D03*
D23*
X83169900Y-66500000D03*
X83000000Y-62500000D03*
D22*
X67000000Y-61500000D03*
X67000000Y-62500000D03*
X66000000Y-62500000D03*
X65000000Y-62500000D03*
D24*
X57087500Y-87000000D02*
X56000000Y-87000000D01*
X58900000Y-84500000D02*
X60000000Y-84500000D01*
X58900000Y-82000000D02*
X60000000Y-82000000D01*
X58825000Y-77000000D02*
X60000000Y-77000000D01*
D25*
X50375000Y-77625000D02*
X50500000Y-77500000D01*
X48650000Y-77625000D02*
X50375000Y-77625000D01*
D24*
X42175000Y-85675000D02*
X41500000Y-85000000D01*
X42175000Y-86000000D02*
X42175000Y-85675000D01*
X64400000Y-78000000D02*
X65500000Y-78000000D01*
X44100000Y-81439000D02*
X44911000Y-82250000D01*
X44100000Y-81000000D02*
X44100000Y-81439000D01*
D26*
X43200000Y-63300000D02*
X44000000Y-62500000D01*
X43200000Y-64500000D02*
X43200000Y-63300000D01*
X43200000Y-63200000D02*
X42500000Y-62500000D01*
X43200000Y-64500000D02*
X43200000Y-63200000D01*
X45000000Y-64500000D02*
X45500000Y-64000000D01*
X43200000Y-64500000D02*
X45000000Y-64500000D01*
X43500000Y-64500000D02*
X44000000Y-64000000D01*
X43200000Y-64500000D02*
X43500000Y-64500000D01*
X44000000Y-64000000D02*
X45500000Y-62500000D01*
X43000000Y-64500000D02*
X42500000Y-64000000D01*
X43200000Y-64500000D02*
X43000000Y-64500000D01*
X42500000Y-64000000D02*
X41000000Y-62500000D01*
X41500000Y-64500000D02*
X41000000Y-64000000D01*
X43200000Y-64500000D02*
X41500000Y-64500000D01*
X44500000Y-64500000D02*
X45500000Y-65500000D01*
X43200000Y-64500000D02*
X44500000Y-64500000D01*
X43200000Y-64700000D02*
X44000000Y-65500000D01*
X43200000Y-64500000D02*
X43200000Y-64700000D01*
X43200000Y-64800000D02*
X42500000Y-65500000D01*
X43200000Y-64500000D02*
X43200000Y-64800000D01*
X42000000Y-64500000D02*
X41000000Y-65500000D01*
X43200000Y-64500000D02*
X42000000Y-64500000D01*
X43200000Y-64700000D02*
X45500000Y-67000000D01*
X43200000Y-66200000D02*
X44000000Y-67000000D01*
X43200000Y-64500000D02*
X43200000Y-66200000D01*
X43200000Y-66300000D02*
X42500000Y-67000000D01*
X43200000Y-64500000D02*
X43200000Y-66300000D01*
X43200000Y-64800000D02*
X41000000Y-67000000D01*
X46000000Y-74500000D02*
X46000000Y-75500000D01*
X46000000Y-75500000D02*
X45500000Y-76000000D01*
X45500000Y-76000000D02*
X43000000Y-76000000D01*
X43000000Y-76000000D02*
X42000000Y-77000000D01*
X42000000Y-83325000D02*
X42175000Y-83500000D01*
X42000000Y-77000000D02*
X42000000Y-83325000D01*
X42175000Y-83500000D02*
X40000000Y-83500000D01*
D25*
X46175000Y-75675000D02*
X46000000Y-75500000D01*
X48650000Y-75675000D02*
X46175000Y-75675000D01*
X84612500Y-66025000D02*
X85975000Y-66025000D01*
X46000000Y-81000000D02*
X46000000Y-80000000D01*
X46425000Y-79575000D02*
X46000000Y-80000000D01*
X48650000Y-78275000D02*
X47725000Y-78275000D01*
X47725000Y-78275000D02*
X47575000Y-78425000D01*
X47575000Y-79575000D02*
X46425000Y-79575000D01*
X48650000Y-79575000D02*
X47575000Y-79575000D01*
X48650000Y-78925000D02*
X47575000Y-78925000D01*
X47575000Y-78925000D02*
X47575000Y-79575000D01*
X47575000Y-78425000D02*
X47575000Y-78925000D01*
X47925000Y-72425000D02*
X48650000Y-72425000D01*
X46000000Y-70500000D02*
X47000000Y-70500000D01*
X47500000Y-71000000D02*
X47500000Y-72000000D01*
X47000000Y-70500000D02*
X47500000Y-71000000D01*
X47500000Y-72000000D02*
X47925000Y-72425000D01*
D26*
X43900000Y-70500000D02*
X43000000Y-69600000D01*
X46000000Y-70500000D02*
X43900000Y-70500000D01*
D25*
X53000000Y-57000000D02*
X52075000Y-57000000D01*
X53295990Y-57295990D02*
X53000000Y-57000000D01*
X53295990Y-69811944D02*
X53295990Y-57295990D01*
D27*
X49500000Y-62220000D02*
X50220000Y-62220000D01*
D25*
X52248651Y-70553967D02*
X52151309Y-70651309D01*
X52553967Y-70553967D02*
X52248651Y-70553967D01*
X52553967Y-70553967D02*
X53295990Y-69811944D01*
D24*
X45900000Y-72500000D02*
X46000000Y-72400000D01*
D25*
X47726597Y-74375000D02*
X47500000Y-74601597D01*
X48650000Y-74375000D02*
X47726597Y-74375000D01*
X47821553Y-72944296D02*
X47444296Y-72944296D01*
X47952257Y-73075000D02*
X47821553Y-72944296D01*
X48650000Y-73075000D02*
X47952257Y-73075000D01*
X46900000Y-72400000D02*
X46000000Y-72400000D01*
X47444296Y-72944296D02*
X46900000Y-72400000D01*
D26*
X51220000Y-62220000D02*
X51500000Y-62500000D01*
X49500000Y-62220000D02*
X51220000Y-62220000D01*
X44600000Y-72400000D02*
X44500000Y-72500000D01*
X46000000Y-72400000D02*
X44600000Y-72400000D01*
D25*
X55154000Y-78275000D02*
X55500000Y-78621000D01*
X54350000Y-78275000D02*
X55154000Y-78275000D01*
X55500000Y-83000000D02*
X57000000Y-84500000D01*
X55500000Y-78621000D02*
X55500000Y-83000000D01*
D24*
X62500000Y-78000000D02*
X61500000Y-78000000D01*
X60000000Y-79500000D02*
X58825000Y-79500000D01*
X61500000Y-78000000D02*
X60000000Y-79500000D01*
D25*
X55446482Y-76975000D02*
X54350000Y-76975000D01*
X57000000Y-78528518D02*
X55446482Y-76975000D01*
X57000000Y-79500000D02*
X57000000Y-78528518D01*
D24*
X57000000Y-79500000D02*
X57000000Y-82000000D01*
D25*
X57000000Y-70579000D02*
X57000000Y-70500000D01*
X55154000Y-72425000D02*
X57000000Y-70579000D01*
X54350000Y-72425000D02*
X55154000Y-72425000D01*
D26*
X58500000Y-70500000D02*
X59500000Y-69500000D01*
X57000000Y-70500000D02*
X58500000Y-70500000D01*
X59400000Y-62900000D02*
X58500000Y-62000000D01*
X59400000Y-64000000D02*
X59400000Y-62900000D01*
X59400000Y-62600000D02*
X60000000Y-62000000D01*
X59400000Y-64000000D02*
X59400000Y-62600000D01*
X61000000Y-64000000D02*
X61500000Y-63500000D01*
X59400000Y-64000000D02*
X61000000Y-64000000D01*
X59500000Y-64000000D02*
X60000000Y-63500000D01*
X59400000Y-64000000D02*
X59500000Y-64000000D01*
X60000000Y-63500000D02*
X61500000Y-62000000D01*
X59000000Y-64000000D02*
X58500000Y-63500000D01*
X59400000Y-64000000D02*
X59000000Y-64000000D01*
X58500000Y-63500000D02*
X57000000Y-62000000D01*
X57500000Y-64000000D02*
X57000000Y-63500000D01*
X59400000Y-64000000D02*
X57500000Y-64000000D01*
X58000000Y-64000000D02*
X57000000Y-65000000D01*
X59400000Y-64000000D02*
X58000000Y-64000000D01*
X59400000Y-64100000D02*
X58500000Y-65000000D01*
X59400000Y-64000000D02*
X59400000Y-64100000D01*
X59400000Y-64400000D02*
X60000000Y-65000000D01*
X59400000Y-64000000D02*
X59400000Y-64400000D01*
X60500000Y-64000000D02*
X61500000Y-65000000D01*
X59400000Y-64000000D02*
X60500000Y-64000000D01*
X59400000Y-64400000D02*
X61500000Y-66500000D01*
X59400000Y-65900000D02*
X60000000Y-66500000D01*
X59400000Y-64000000D02*
X59400000Y-65900000D01*
X59400000Y-65600000D02*
X58500000Y-66500000D01*
X59400000Y-64000000D02*
X59400000Y-65600000D01*
X59400000Y-64100000D02*
X57000000Y-66500000D01*
X57189000Y-72400000D02*
X58000000Y-71589000D01*
X57000000Y-72400000D02*
X57189000Y-72400000D01*
D25*
X54350000Y-73075000D02*
X55146067Y-73074999D01*
X55821066Y-72400000D02*
X57000000Y-72400000D01*
X55146067Y-73074999D02*
X55821066Y-72400000D01*
X46000000Y-77857933D02*
X46000000Y-78000000D01*
X47532933Y-76325000D02*
X46000000Y-77857933D01*
X48650000Y-76325000D02*
X47532933Y-76325000D01*
D24*
X43329010Y-87345990D02*
X42175000Y-88500000D01*
X44654010Y-87345990D02*
X43329010Y-87345990D01*
X45000000Y-87000000D02*
X44654010Y-87345990D01*
D25*
X55825000Y-75675000D02*
X56000000Y-75500000D01*
X54350000Y-75675000D02*
X55825000Y-75675000D01*
D26*
X46000000Y-78000000D02*
X46000000Y-77000000D01*
X43000000Y-73500000D02*
X43000000Y-72400000D01*
X58915718Y-72884282D02*
X59500000Y-72300000D01*
X58350678Y-72884282D02*
X58915718Y-72884282D01*
D25*
X71537500Y-84500000D02*
X72500000Y-84500000D01*
X72500000Y-84500000D02*
X72750000Y-84750000D01*
X72750000Y-84750000D02*
X72750000Y-85250000D01*
X72750000Y-85250000D02*
X72750000Y-85750000D01*
X72750000Y-85750000D02*
X72500000Y-86000000D01*
D24*
X72000000Y-86500000D02*
X72500000Y-86000000D01*
X70000000Y-86500000D02*
X72000000Y-86500000D01*
X51500000Y-86000000D02*
X50325000Y-86000000D01*
X53958010Y-88458010D02*
X51500000Y-86000000D01*
X68041990Y-88458010D02*
X68500000Y-88000000D01*
X53958010Y-88458010D02*
X68041990Y-88458010D01*
X68500000Y-88000000D02*
X70000000Y-86500000D01*
X72203099Y-75796901D02*
X72500000Y-75500000D01*
X57000000Y-74500000D02*
X58296901Y-75796901D01*
D26*
X72500000Y-75500000D02*
X60000000Y-75500000D01*
D24*
X59703099Y-75796901D02*
X60000000Y-75500000D01*
X58296901Y-75796901D02*
X59703099Y-75796901D01*
D25*
X54350000Y-74375000D02*
X55125000Y-74375000D01*
X55187715Y-74437715D02*
X55187715Y-74987715D01*
X55125000Y-74375000D02*
X55187715Y-74437715D01*
X55150430Y-75025000D02*
X55187715Y-74987715D01*
X54350000Y-75025000D02*
X55150430Y-75025000D01*
X55250000Y-74500000D02*
X55187715Y-74437715D01*
X57000000Y-74500000D02*
X55250000Y-74500000D01*
D24*
X48500000Y-83500000D02*
X48500000Y-86000000D01*
D25*
X48650000Y-83350000D02*
X48500000Y-83500000D01*
X48650000Y-80225000D02*
X48650000Y-83350000D01*
D24*
X50400000Y-83500000D02*
X52500000Y-83500000D01*
D25*
X52500000Y-82500000D02*
X52500000Y-83500000D01*
X54350000Y-80650000D02*
X54350000Y-80225000D01*
X52500000Y-82500000D02*
X54350000Y-80650000D01*
D24*
X48500000Y-88500000D02*
X44000000Y-88500000D01*
D25*
X51500000Y-80971000D02*
X51500000Y-82000000D01*
X53546000Y-78925000D02*
X51500000Y-80971000D01*
X54350000Y-78925000D02*
X53546000Y-78925000D01*
D24*
X51375000Y-87500000D02*
X50375000Y-88500000D01*
X51500000Y-87500000D02*
X51375000Y-87500000D01*
D25*
X73204010Y-87620990D02*
X72825000Y-88000000D01*
X73204010Y-84795990D02*
X73204010Y-87620990D01*
X73500000Y-84500000D02*
X73204010Y-84795990D01*
X74462500Y-84500000D02*
X73500000Y-84500000D01*
D24*
X72825000Y-88000000D02*
X72825000Y-88175000D01*
X72825000Y-88175000D02*
X71750000Y-89250000D01*
X71750000Y-89250000D02*
X60500000Y-89250000D01*
X53050079Y-88635336D02*
X52864664Y-88635336D01*
X53664743Y-89250000D02*
X53050079Y-88635336D01*
X60500000Y-89250000D02*
X53664743Y-89250000D01*
X54500000Y-83675000D02*
X54325000Y-83500000D01*
X54500000Y-85500000D02*
X54500000Y-83675000D01*
X54325000Y-86675000D02*
X54000000Y-87000000D01*
X54325000Y-83500000D02*
X54325000Y-86675000D01*
D25*
X82805000Y-75805000D02*
X84025000Y-75805000D01*
X81675000Y-66675000D02*
X82000000Y-67000000D01*
X82000000Y-75000000D02*
X82805000Y-75805000D01*
X80387500Y-66675000D02*
X81675000Y-66675000D01*
X81975000Y-67975000D02*
X82000000Y-68000000D01*
X80387500Y-67975000D02*
X81975000Y-67975000D01*
X82000000Y-68000000D02*
X82000000Y-75000000D01*
X82000000Y-67000000D02*
X82000000Y-68000000D01*
X85000000Y-74830000D02*
X84025000Y-75805000D01*
X85000000Y-73500000D02*
X85000000Y-74830000D01*
X86000000Y-72500000D02*
X85000000Y-73500000D01*
X84612500Y-69112500D02*
X86000000Y-70500000D01*
X86000000Y-70500000D02*
X86000000Y-72500000D01*
X84612500Y-67975000D02*
X84612500Y-69112500D01*
X49728499Y-72897899D02*
X50126398Y-72500000D01*
X54000000Y-57000000D02*
X55000000Y-57000000D01*
X50126398Y-72500000D02*
X51250000Y-72500000D01*
X53750000Y-70000000D02*
X53750000Y-57250000D01*
X53750000Y-57250000D02*
X54000000Y-57000000D01*
X51250000Y-72500000D02*
X53750000Y-70000000D01*
X49728499Y-72897899D02*
X49728499Y-74771501D01*
X49475000Y-75025000D02*
X48650000Y-75025000D01*
X49728499Y-74771501D02*
X49475000Y-75025000D01*
X80387500Y-66025000D02*
X82025000Y-66025000D01*
X82025000Y-66025000D02*
X82500000Y-66500000D01*
X82500000Y-66500000D02*
X82500000Y-68000000D01*
X84025000Y-69525000D02*
X84025000Y-71245000D01*
X82500000Y-68000000D02*
X84025000Y-69525000D01*
X48650000Y-73725000D02*
X47610803Y-73725000D01*
X47610803Y-73725000D02*
X47500000Y-73614197D01*
D26*
X49500000Y-68000000D02*
X49500000Y-66780000D01*
X49500000Y-69000000D02*
X49500000Y-68000000D01*
X43089010Y-56134010D02*
X43089010Y-60089010D01*
X43089010Y-60089010D02*
X43500000Y-60500000D01*
X41200000Y-54245000D02*
X43089010Y-56134010D01*
X43500000Y-60500000D02*
X46500000Y-60500000D01*
X46500000Y-60500000D02*
X47000000Y-61000000D01*
X47000000Y-61039898D02*
X47500000Y-61539898D01*
X47000000Y-61000000D02*
X47000000Y-61039898D01*
X47500000Y-61539898D02*
X47500000Y-69000000D01*
X47500000Y-69000000D02*
X47500000Y-69500000D01*
X47500000Y-69500000D02*
X48500000Y-70500000D01*
D25*
X48650000Y-70650000D02*
X48500000Y-70500000D01*
X48650000Y-71775000D02*
X48650000Y-70650000D01*
D26*
X65700000Y-66280000D02*
X63980000Y-68000000D01*
X63980000Y-68000000D02*
X57000000Y-68000000D01*
X57000000Y-68000000D02*
X54500000Y-70500000D01*
D25*
X54350000Y-70650000D02*
X54500000Y-70500000D01*
X54350000Y-71775000D02*
X54350000Y-70650000D01*
D26*
X68000000Y-67500000D02*
X68000000Y-68500000D01*
D25*
X55582940Y-73725000D02*
X55641726Y-73666214D01*
X54350000Y-73725000D02*
X55582940Y-73725000D01*
D26*
X68089010Y-67410990D02*
X68000000Y-67500000D01*
X68089010Y-60589010D02*
X68089010Y-67410990D01*
X67000000Y-59500000D02*
X68089010Y-60589010D01*
X67000000Y-54500000D02*
X67000000Y-59500000D01*
X66220000Y-53720000D02*
X67000000Y-54500000D01*
X64875000Y-53720000D02*
X66220000Y-53720000D01*
D24*
X44000000Y-86000000D02*
X44000000Y-83500000D01*
D25*
X43363057Y-79386943D02*
X43000000Y-79750000D01*
X45970990Y-79386943D02*
X43363057Y-79386943D01*
X46236943Y-79120990D02*
X45970990Y-79386943D01*
X46879010Y-79120990D02*
X46236943Y-79120990D01*
X47000000Y-79000000D02*
X46879010Y-79120990D01*
X47000000Y-77499999D02*
X47000000Y-79000000D01*
X47525000Y-76975000D02*
X47000000Y-77499999D01*
X48650000Y-76975000D02*
X47525000Y-76975000D01*
X44000000Y-83250000D02*
X43000000Y-82250000D01*
X44000000Y-83500000D02*
X44000000Y-83250000D01*
X43000000Y-79750000D02*
X43000000Y-82250000D01*
X57000000Y-77000000D02*
X56113548Y-77000000D01*
X55438548Y-76325000D02*
X54350000Y-76325000D01*
X56113548Y-77000000D02*
X55438548Y-76325000D01*
D24*
X71000000Y-88000000D02*
X70000000Y-88000000D01*
X66500000Y-87000000D02*
X58912500Y-87000000D01*
D25*
X58072990Y-86160490D02*
X58912500Y-87000000D01*
X58072990Y-84031972D02*
X58072990Y-86160490D01*
X57093028Y-83052010D02*
X58072990Y-84031972D01*
X56510992Y-83052010D02*
X57093028Y-83052010D01*
X56000000Y-82541018D02*
X56510992Y-83052010D01*
X56000000Y-78478935D02*
X56000000Y-82541018D01*
X55146065Y-77625000D02*
X56000000Y-78478935D01*
X54350000Y-77625000D02*
X55146065Y-77625000D01*
D26*
X30000000Y-63500000D02*
X33500000Y-63500000D01*
X30000000Y-62500000D02*
X33500000Y-62500000D01*
X33500000Y-63500000D02*
X33500000Y-62500000D01*
X30000000Y-63500000D02*
X30000000Y-62500000D01*
X31500000Y-62500000D02*
X32500000Y-63500000D01*
X31000000Y-62500000D02*
X31500000Y-62500000D01*
X31500000Y-63000000D02*
X31500000Y-62500000D01*
X31000000Y-63500000D02*
X31500000Y-63000000D01*
X30000000Y-66500000D02*
X33500000Y-66500000D01*
X33500000Y-66500000D02*
X33500000Y-67500000D01*
X33500000Y-67500000D02*
X30000000Y-67500000D01*
X30000000Y-67500000D02*
X30000000Y-66500000D01*
X32000000Y-67000000D02*
X32500000Y-67500000D01*
X30450000Y-67000000D02*
X32000000Y-67000000D01*
X40000000Y-58500000D02*
X42000000Y-58500000D01*
X42000000Y-59500000D02*
X42000000Y-58500000D01*
X42000000Y-59500000D02*
X40000000Y-59500000D01*
X40000000Y-59500000D02*
X40000000Y-58500000D01*
X79000000Y-54000000D02*
X80000000Y-54000000D01*
X79500000Y-54500000D02*
X80000000Y-54000000D01*
X79450000Y-54500000D02*
X79500000Y-54500000D01*
X80000000Y-54000000D02*
X80000000Y-55000000D01*
X79450000Y-54550000D02*
X79000000Y-55000000D01*
X79450000Y-54500000D02*
X79450000Y-54550000D01*
X79450000Y-54450000D02*
X79000000Y-54000000D01*
X79450000Y-54500000D02*
X79450000Y-54450000D01*
X79000000Y-54000000D02*
X79000000Y-55000000D01*
X79000000Y-55000000D02*
X80000000Y-55000000D01*
X79000000Y-58000000D02*
X80000000Y-58000000D01*
X80000000Y-58000000D02*
X80000000Y-59000000D01*
X79450000Y-58550000D02*
X79000000Y-59000000D01*
X79450000Y-58500000D02*
X79450000Y-58550000D01*
X79000000Y-59000000D02*
X80000000Y-59000000D01*
X79000000Y-59000000D02*
X79000000Y-58000000D01*
X75500000Y-62500000D02*
X76500000Y-62500000D01*
X75950000Y-63050000D02*
X75500000Y-63500000D01*
X75950000Y-63000000D02*
X75950000Y-63050000D01*
X76000000Y-63000000D02*
X76500000Y-63500000D01*
X76000000Y-63000000D02*
X76500000Y-62500000D01*
X75950000Y-63000000D02*
X76000000Y-63000000D01*
X76500000Y-62500000D02*
X76500000Y-63500000D01*
X75500000Y-62500000D02*
X75500000Y-63500000D01*
X75500000Y-63500000D02*
X76500000Y-63500000D01*
X75500000Y-66500000D02*
X76500000Y-66500000D01*
X76500000Y-66500000D02*
X76500000Y-67500000D01*
X76500000Y-67500000D02*
X75500000Y-67500000D01*
X75500000Y-67500000D02*
X75500000Y-66500000D01*
D25*
X83000000Y-64000000D02*
X83000000Y-62500000D01*
X83169900Y-66694900D02*
X83169900Y-66500000D01*
X83800000Y-67325000D02*
X83169900Y-66694900D01*
X84612500Y-67325000D02*
X83800000Y-67325000D01*
D26*
X67000000Y-61500000D02*
X66000000Y-61500000D01*
X66000000Y-61500000D02*
X65000000Y-61500000D01*
X67000000Y-61500000D02*
X67000000Y-62500000D01*
X67000000Y-62500000D02*
X66000000Y-62500000D01*
X66000000Y-62500000D02*
X65000000Y-62500000D01*
X65000000Y-62500000D02*
X65000000Y-61500000D01*
D25*
X38373000Y-25500000D02*
X38375440Y-25524776D01*
X38382667Y-25548601D01*
X38394403Y-25570557D01*
X38410197Y-25589803D01*
X39373000Y-26552606D01*
X39373000Y-57618078D01*
X39356166Y-57631893D01*
X39311859Y-57661498D01*
X39274179Y-57699178D01*
X39232985Y-57732985D01*
X39199178Y-57774179D01*
X39161498Y-57811859D01*
X39131893Y-57856166D01*
X39098086Y-57897360D01*
X39072965Y-57944358D01*
X39043360Y-57988665D01*
X39022968Y-58037897D01*
X38997847Y-58084894D01*
X38982378Y-58135890D01*
X38961985Y-58185122D01*
X38951589Y-58237388D01*
X38936120Y-58288381D01*
X38930897Y-58341410D01*
X38920500Y-58393679D01*
X38920500Y-58446971D01*
X38915277Y-58500000D01*
X38920500Y-58553029D01*
X38920500Y-59446971D01*
X38915277Y-59500000D01*
X38920500Y-59553028D01*
X38920500Y-59606321D01*
X38930897Y-59658590D01*
X38936120Y-59711619D01*
X38951589Y-59762612D01*
X38961985Y-59814878D01*
X38982378Y-59864110D01*
X38997847Y-59915106D01*
X39022968Y-59962103D01*
X39043360Y-60011335D01*
X39072965Y-60055642D01*
X39085717Y-60079500D01*
X39098086Y-60102640D01*
X39131893Y-60143834D01*
X39161498Y-60188141D01*
X39199178Y-60225821D01*
X39232985Y-60267015D01*
X39274179Y-60300822D01*
X39311859Y-60338502D01*
X39356166Y-60368107D01*
X39397360Y-60401914D01*
X39444358Y-60427035D01*
X39488665Y-60456640D01*
X39537897Y-60477032D01*
X39584894Y-60502153D01*
X39635890Y-60517622D01*
X39685122Y-60538015D01*
X39737388Y-60548411D01*
X39788381Y-60563880D01*
X39841410Y-60569103D01*
X39893679Y-60579500D01*
X39899894Y-60579500D01*
X40410197Y-61089803D01*
X40429443Y-61105597D01*
X40451399Y-61117333D01*
X40475224Y-61124560D01*
X40500000Y-61127000D01*
X42600357Y-61127000D01*
X42699177Y-61225820D01*
X42732985Y-61267015D01*
X42897360Y-61401914D01*
X43084894Y-61502153D01*
X43220736Y-61543360D01*
X43288381Y-61563880D01*
X43500000Y-61584723D01*
X43553029Y-61579500D01*
X46052857Y-61579500D01*
X46077636Y-61604279D01*
X46098086Y-61642538D01*
X46232985Y-61806913D01*
X46274184Y-61840724D01*
X46420500Y-61987040D01*
X46420501Y-68373000D01*
X42000000Y-68373000D01*
X41975224Y-68375440D01*
X41951399Y-68382667D01*
X41929443Y-68394403D01*
X41910197Y-68410197D01*
X40910197Y-69410197D01*
X40894403Y-69429443D01*
X40882667Y-69451399D01*
X40875440Y-69475224D01*
X40873000Y-69500000D01*
X40873000Y-84244040D01*
X40740415Y-84376625D01*
X40633396Y-84536790D01*
X40559680Y-84714757D01*
X40522100Y-84903685D01*
X40522100Y-85096315D01*
X40559680Y-85285243D01*
X40633396Y-85463210D01*
X40740415Y-85623375D01*
X40873000Y-85755960D01*
X40873000Y-89340000D01*
X32627000Y-89340000D01*
X32627000Y-84500000D01*
X32624560Y-84475224D01*
X32617333Y-84451399D01*
X32605597Y-84429443D01*
X32589803Y-84410197D01*
X30589803Y-82410197D01*
X30570557Y-82394403D01*
X30548601Y-82382667D01*
X30524776Y-82375440D01*
X30500000Y-82373000D01*
X25660000Y-82373000D01*
X25660000Y-75319268D01*
X32665000Y-75319268D01*
X32665000Y-75680732D01*
X32735518Y-76035250D01*
X32873844Y-76369199D01*
X33074662Y-76669744D01*
X33330256Y-76925338D01*
X33630801Y-77126156D01*
X33964750Y-77264482D01*
X34319268Y-77335000D01*
X34680732Y-77335000D01*
X35035250Y-77264482D01*
X35369199Y-77126156D01*
X35669744Y-76925338D01*
X35925338Y-76669744D01*
X36126156Y-76369199D01*
X36264482Y-76035250D01*
X36335000Y-75680732D01*
X36335000Y-75319268D01*
X36264482Y-74964750D01*
X36126156Y-74630801D01*
X35925338Y-74330256D01*
X35669744Y-74074662D01*
X35369199Y-73873844D01*
X35035250Y-73735518D01*
X34680732Y-73665000D01*
X34319268Y-73665000D01*
X33964750Y-73735518D01*
X33630801Y-73873844D01*
X33330256Y-74074662D01*
X33074662Y-74330256D01*
X32873844Y-74630801D01*
X32735518Y-74964750D01*
X32665000Y-75319268D01*
X25660000Y-75319268D01*
X25660000Y-66500000D01*
X28915277Y-66500000D01*
X28920500Y-66553029D01*
X28920500Y-67446971D01*
X28915277Y-67500000D01*
X28920500Y-67553028D01*
X28920500Y-67606321D01*
X28930897Y-67658590D01*
X28936120Y-67711619D01*
X28951589Y-67762612D01*
X28961985Y-67814878D01*
X28982378Y-67864110D01*
X28997847Y-67915106D01*
X29022968Y-67962103D01*
X29043360Y-68011335D01*
X29072965Y-68055642D01*
X29077368Y-68063880D01*
X29098086Y-68102640D01*
X29131893Y-68143834D01*
X29161498Y-68188141D01*
X29199178Y-68225821D01*
X29232985Y-68267015D01*
X29274179Y-68300822D01*
X29311859Y-68338502D01*
X29356166Y-68368107D01*
X29397360Y-68401914D01*
X29444358Y-68427035D01*
X29488665Y-68456640D01*
X29537897Y-68477032D01*
X29584894Y-68502153D01*
X29635890Y-68517622D01*
X29685122Y-68538015D01*
X29737388Y-68548411D01*
X29788381Y-68563880D01*
X29841410Y-68569103D01*
X29893679Y-68579500D01*
X29946971Y-68579500D01*
X30000000Y-68584723D01*
X30053029Y-68579500D01*
X32446971Y-68579500D01*
X32500000Y-68584723D01*
X32553029Y-68579500D01*
X33446971Y-68579500D01*
X33500000Y-68584723D01*
X33553029Y-68579500D01*
X33606321Y-68579500D01*
X33658590Y-68569103D01*
X33711619Y-68563880D01*
X33762612Y-68548411D01*
X33814878Y-68538015D01*
X33864110Y-68517622D01*
X33915106Y-68502153D01*
X33962103Y-68477032D01*
X34011335Y-68456640D01*
X34055642Y-68427035D01*
X34102640Y-68401914D01*
X34143834Y-68368107D01*
X34188141Y-68338502D01*
X34225821Y-68300822D01*
X34267015Y-68267015D01*
X34300822Y-68225821D01*
X34338502Y-68188141D01*
X34368107Y-68143834D01*
X34401914Y-68102640D01*
X34427035Y-68055642D01*
X34456640Y-68011335D01*
X34477032Y-67962103D01*
X34502153Y-67915106D01*
X34517622Y-67864110D01*
X34538015Y-67814878D01*
X34548411Y-67762612D01*
X34563880Y-67711619D01*
X34569103Y-67658590D01*
X34579500Y-67606321D01*
X34579500Y-67553028D01*
X34584723Y-67500000D01*
X34579500Y-67446971D01*
X34579500Y-66553029D01*
X34584723Y-66500000D01*
X34579500Y-66446971D01*
X34579500Y-66393679D01*
X34569103Y-66341410D01*
X34563880Y-66288381D01*
X34548411Y-66237388D01*
X34538015Y-66185122D01*
X34517622Y-66135890D01*
X34502153Y-66084894D01*
X34477032Y-66037897D01*
X34456640Y-65988665D01*
X34427035Y-65944358D01*
X34401914Y-65897360D01*
X34368107Y-65856166D01*
X34338502Y-65811859D01*
X34300822Y-65774179D01*
X34267015Y-65732985D01*
X34225821Y-65699178D01*
X34188141Y-65661498D01*
X34143834Y-65631893D01*
X34102640Y-65598086D01*
X34055642Y-65572965D01*
X34011335Y-65543360D01*
X33962103Y-65522968D01*
X33915106Y-65497847D01*
X33864110Y-65482378D01*
X33814878Y-65461985D01*
X33762612Y-65451589D01*
X33711619Y-65436120D01*
X33658590Y-65430897D01*
X33606321Y-65420500D01*
X33553029Y-65420500D01*
X33500000Y-65415277D01*
X33446971Y-65420500D01*
X30053029Y-65420500D01*
X30000000Y-65415277D01*
X29946971Y-65420500D01*
X29893679Y-65420500D01*
X29841410Y-65430897D01*
X29788381Y-65436120D01*
X29737388Y-65451589D01*
X29685122Y-65461985D01*
X29635890Y-65482378D01*
X29584894Y-65497847D01*
X29537897Y-65522968D01*
X29488665Y-65543360D01*
X29444358Y-65572965D01*
X29397360Y-65598086D01*
X29356166Y-65631893D01*
X29311859Y-65661498D01*
X29274179Y-65699178D01*
X29232985Y-65732985D01*
X29199178Y-65774179D01*
X29161498Y-65811859D01*
X29131893Y-65856166D01*
X29098086Y-65897360D01*
X29072965Y-65944358D01*
X29043360Y-65988665D01*
X29022968Y-66037897D01*
X28997847Y-66084894D01*
X28982378Y-66135890D01*
X28961985Y-66185122D01*
X28951589Y-66237388D01*
X28936120Y-66288381D01*
X28930897Y-66341410D01*
X28920500Y-66393679D01*
X28920500Y-66446971D01*
X28915277Y-66500000D01*
X25660000Y-66500000D01*
X25660000Y-62500000D01*
X28915277Y-62500000D01*
X28920500Y-62553029D01*
X28920500Y-63446971D01*
X28915277Y-63500000D01*
X28920500Y-63553028D01*
X28920500Y-63606321D01*
X28930897Y-63658590D01*
X28936120Y-63711619D01*
X28951589Y-63762612D01*
X28961985Y-63814878D01*
X28982378Y-63864110D01*
X28997847Y-63915106D01*
X29022968Y-63962103D01*
X29043360Y-64011335D01*
X29072965Y-64055642D01*
X29077368Y-64063880D01*
X29098086Y-64102640D01*
X29131893Y-64143834D01*
X29161498Y-64188141D01*
X29199178Y-64225821D01*
X29232985Y-64267015D01*
X29274179Y-64300822D01*
X29311859Y-64338502D01*
X29356166Y-64368107D01*
X29397360Y-64401914D01*
X29444358Y-64427035D01*
X29488665Y-64456640D01*
X29537897Y-64477032D01*
X29584894Y-64502153D01*
X29635890Y-64517622D01*
X29685122Y-64538015D01*
X29737388Y-64548411D01*
X29788381Y-64563880D01*
X29841410Y-64569103D01*
X29893679Y-64579500D01*
X29946971Y-64579500D01*
X30000000Y-64584723D01*
X30053029Y-64579500D01*
X30946971Y-64579500D01*
X31000000Y-64584723D01*
X31053029Y-64579500D01*
X32446971Y-64579500D01*
X32500000Y-64584723D01*
X32553029Y-64579500D01*
X33446971Y-64579500D01*
X33500000Y-64584723D01*
X33553029Y-64579500D01*
X33606321Y-64579500D01*
X33658590Y-64569103D01*
X33711619Y-64563880D01*
X33762612Y-64548411D01*
X33814878Y-64538015D01*
X33864110Y-64517622D01*
X33915106Y-64502153D01*
X33962103Y-64477032D01*
X34011335Y-64456640D01*
X34055642Y-64427035D01*
X34102640Y-64401914D01*
X34143834Y-64368107D01*
X34188141Y-64338502D01*
X34225821Y-64300822D01*
X34267015Y-64267015D01*
X34300822Y-64225821D01*
X34338502Y-64188141D01*
X34368107Y-64143834D01*
X34401914Y-64102640D01*
X34427035Y-64055642D01*
X34456640Y-64011335D01*
X34477032Y-63962103D01*
X34502153Y-63915106D01*
X34517622Y-63864110D01*
X34538015Y-63814878D01*
X34548411Y-63762612D01*
X34563880Y-63711619D01*
X34569103Y-63658590D01*
X34579500Y-63606321D01*
X34579500Y-63553028D01*
X34584723Y-63500000D01*
X34579500Y-63446971D01*
X34579500Y-62553029D01*
X34584723Y-62500000D01*
X34579500Y-62446971D01*
X34579500Y-62393679D01*
X34569103Y-62341410D01*
X34563880Y-62288381D01*
X34548411Y-62237388D01*
X34538015Y-62185122D01*
X34517622Y-62135890D01*
X34502153Y-62084894D01*
X34477032Y-62037897D01*
X34456640Y-61988665D01*
X34427035Y-61944358D01*
X34401914Y-61897360D01*
X34368107Y-61856166D01*
X34338502Y-61811859D01*
X34300822Y-61774179D01*
X34267015Y-61732985D01*
X34225821Y-61699178D01*
X34188141Y-61661498D01*
X34143834Y-61631893D01*
X34102640Y-61598086D01*
X34055642Y-61572965D01*
X34011335Y-61543360D01*
X33962103Y-61522968D01*
X33915106Y-61497847D01*
X33864110Y-61482378D01*
X33814878Y-61461985D01*
X33762612Y-61451589D01*
X33711619Y-61436120D01*
X33658590Y-61430897D01*
X33606321Y-61420500D01*
X33553029Y-61420500D01*
X33500000Y-61415277D01*
X33446971Y-61420500D01*
X31553029Y-61420500D01*
X31500000Y-61415277D01*
X31446971Y-61420500D01*
X30053029Y-61420500D01*
X30000000Y-61415277D01*
X29946971Y-61420500D01*
X29893679Y-61420500D01*
X29841410Y-61430897D01*
X29788381Y-61436120D01*
X29737388Y-61451589D01*
X29685122Y-61461985D01*
X29635890Y-61482378D01*
X29584894Y-61497847D01*
X29537897Y-61522968D01*
X29488665Y-61543360D01*
X29444358Y-61572965D01*
X29397360Y-61598086D01*
X29356166Y-61631893D01*
X29311859Y-61661498D01*
X29274179Y-61699178D01*
X29232985Y-61732985D01*
X29199178Y-61774179D01*
X29161498Y-61811859D01*
X29131893Y-61856166D01*
X29098086Y-61897360D01*
X29072965Y-61944358D01*
X29043360Y-61988665D01*
X29022968Y-62037897D01*
X28997847Y-62084894D01*
X28982378Y-62135890D01*
X28961985Y-62185122D01*
X28951589Y-62237388D01*
X28936120Y-62288381D01*
X28930897Y-62341410D01*
X28920500Y-62393679D01*
X28920500Y-62446971D01*
X28915277Y-62500000D01*
X25660000Y-62500000D01*
X25660000Y-53819268D01*
X32665000Y-53819268D01*
X32665000Y-54180732D01*
X32735518Y-54535250D01*
X32873844Y-54869199D01*
X33074662Y-55169744D01*
X33330256Y-55425338D01*
X33630801Y-55626156D01*
X33964750Y-55764482D01*
X34319268Y-55835000D01*
X34680732Y-55835000D01*
X35035250Y-55764482D01*
X35369199Y-55626156D01*
X35669744Y-55425338D01*
X35925338Y-55169744D01*
X36126156Y-54869199D01*
X36264482Y-54535250D01*
X36335000Y-54180732D01*
X36335000Y-53819268D01*
X36264482Y-53464750D01*
X36126156Y-53130801D01*
X35925338Y-52830256D01*
X35669744Y-52574662D01*
X35369199Y-52373844D01*
X35035250Y-52235518D01*
X34680732Y-52165000D01*
X34319268Y-52165000D01*
X33964750Y-52235518D01*
X33630801Y-52373844D01*
X33330256Y-52574662D01*
X33074662Y-52830256D01*
X32873844Y-53130801D01*
X32735518Y-53464750D01*
X32665000Y-53819268D01*
X25660000Y-53819268D01*
X25660000Y-39819268D01*
X32665000Y-39819268D01*
X32665000Y-40180732D01*
X32735518Y-40535250D01*
X32873844Y-40869199D01*
X33074662Y-41169744D01*
X33330256Y-41425338D01*
X33630801Y-41626156D01*
X33964750Y-41764482D01*
X34319268Y-41835000D01*
X34680732Y-41835000D01*
X35035250Y-41764482D01*
X35369199Y-41626156D01*
X35669744Y-41425338D01*
X35925338Y-41169744D01*
X36126156Y-40869199D01*
X36264482Y-40535250D01*
X36335000Y-40180732D01*
X36335000Y-39819268D01*
X36264482Y-39464750D01*
X36126156Y-39130801D01*
X35925338Y-38830256D01*
X35669744Y-38574662D01*
X35369199Y-38373844D01*
X35035250Y-38235518D01*
X34680732Y-38165000D01*
X34319268Y-38165000D01*
X33964750Y-38235518D01*
X33630801Y-38373844D01*
X33330256Y-38574662D01*
X33074662Y-38830256D01*
X32873844Y-39130801D01*
X32735518Y-39464750D01*
X32665000Y-39819268D01*
X25660000Y-39819268D01*
X25660000Y-23809419D01*
X27565000Y-23809419D01*
X27565000Y-24190581D01*
X27639361Y-24564419D01*
X27785225Y-24916566D01*
X27996987Y-25233491D01*
X28266509Y-25503013D01*
X28583434Y-25714775D01*
X28935581Y-25860639D01*
X29309419Y-25935000D01*
X29690581Y-25935000D01*
X30064419Y-25860639D01*
X30416566Y-25714775D01*
X30733491Y-25503013D01*
X31003013Y-25233491D01*
X31214775Y-24916566D01*
X31360639Y-24564419D01*
X31435000Y-24190581D01*
X31435000Y-23809419D01*
X31360639Y-23435581D01*
X31214775Y-23083434D01*
X31003013Y-22766509D01*
X30733491Y-22496987D01*
X30416566Y-22285225D01*
X30064419Y-22139361D01*
X29690581Y-22065000D01*
X29309419Y-22065000D01*
X28935581Y-22139361D01*
X28583434Y-22285225D01*
X28266509Y-22496987D01*
X27996987Y-22766509D01*
X27785225Y-23083434D01*
X27639361Y-23435581D01*
X27565000Y-23809419D01*
X25660000Y-23809419D01*
X25660000Y-20660000D01*
X38373000Y-20660000D01*
X38373000Y-25500000D01*
G04 #@! TA.AperFunction,Conductor*
D28*
G36*
X38373000Y-25500000D02*
G01*
X38375440Y-25524776D01*
X38382667Y-25548601D01*
X38394403Y-25570557D01*
X38410197Y-25589803D01*
X39373000Y-26552606D01*
X39373000Y-57618078D01*
X39356166Y-57631893D01*
X39311859Y-57661498D01*
X39274179Y-57699178D01*
X39232985Y-57732985D01*
X39199178Y-57774179D01*
X39161498Y-57811859D01*
X39131893Y-57856166D01*
X39098086Y-57897360D01*
X39072965Y-57944358D01*
X39043360Y-57988665D01*
X39022968Y-58037897D01*
X38997847Y-58084894D01*
X38982378Y-58135890D01*
X38961985Y-58185122D01*
X38951589Y-58237388D01*
X38936120Y-58288381D01*
X38930897Y-58341410D01*
X38920500Y-58393679D01*
X38920500Y-58446971D01*
X38915277Y-58500000D01*
X38920500Y-58553029D01*
X38920500Y-59446971D01*
X38915277Y-59500000D01*
X38920500Y-59553028D01*
X38920500Y-59606321D01*
X38930897Y-59658590D01*
X38936120Y-59711619D01*
X38951589Y-59762612D01*
X38961985Y-59814878D01*
X38982378Y-59864110D01*
X38997847Y-59915106D01*
X39022968Y-59962103D01*
X39043360Y-60011335D01*
X39072965Y-60055642D01*
X39085717Y-60079500D01*
X39098086Y-60102640D01*
X39131893Y-60143834D01*
X39161498Y-60188141D01*
X39199178Y-60225821D01*
X39232985Y-60267015D01*
X39274179Y-60300822D01*
X39311859Y-60338502D01*
X39356166Y-60368107D01*
X39397360Y-60401914D01*
X39444358Y-60427035D01*
X39488665Y-60456640D01*
X39537897Y-60477032D01*
X39584894Y-60502153D01*
X39635890Y-60517622D01*
X39685122Y-60538015D01*
X39737388Y-60548411D01*
X39788381Y-60563880D01*
X39841410Y-60569103D01*
X39893679Y-60579500D01*
X39899894Y-60579500D01*
X40410197Y-61089803D01*
X40429443Y-61105597D01*
X40451399Y-61117333D01*
X40475224Y-61124560D01*
X40500000Y-61127000D01*
X42600357Y-61127000D01*
X42699177Y-61225820D01*
X42732985Y-61267015D01*
X42897360Y-61401914D01*
X43084894Y-61502153D01*
X43220736Y-61543360D01*
X43288381Y-61563880D01*
X43500000Y-61584723D01*
X43553029Y-61579500D01*
X46052857Y-61579500D01*
X46077636Y-61604279D01*
X46098086Y-61642538D01*
X46232985Y-61806913D01*
X46274184Y-61840724D01*
X46420500Y-61987040D01*
X46420501Y-68373000D01*
X42000000Y-68373000D01*
X41975224Y-68375440D01*
X41951399Y-68382667D01*
X41929443Y-68394403D01*
X41910197Y-68410197D01*
X40910197Y-69410197D01*
X40894403Y-69429443D01*
X40882667Y-69451399D01*
X40875440Y-69475224D01*
X40873000Y-69500000D01*
X40873000Y-84244040D01*
X40740415Y-84376625D01*
X40633396Y-84536790D01*
X40559680Y-84714757D01*
X40522100Y-84903685D01*
X40522100Y-85096315D01*
X40559680Y-85285243D01*
X40633396Y-85463210D01*
X40740415Y-85623375D01*
X40873000Y-85755960D01*
X40873000Y-89340000D01*
X32627000Y-89340000D01*
X32627000Y-84500000D01*
X32624560Y-84475224D01*
X32617333Y-84451399D01*
X32605597Y-84429443D01*
X32589803Y-84410197D01*
X30589803Y-82410197D01*
X30570557Y-82394403D01*
X30548601Y-82382667D01*
X30524776Y-82375440D01*
X30500000Y-82373000D01*
X25660000Y-82373000D01*
X25660000Y-75319268D01*
X32665000Y-75319268D01*
X32665000Y-75680732D01*
X32735518Y-76035250D01*
X32873844Y-76369199D01*
X33074662Y-76669744D01*
X33330256Y-76925338D01*
X33630801Y-77126156D01*
X33964750Y-77264482D01*
X34319268Y-77335000D01*
X34680732Y-77335000D01*
X35035250Y-77264482D01*
X35369199Y-77126156D01*
X35669744Y-76925338D01*
X35925338Y-76669744D01*
X36126156Y-76369199D01*
X36264482Y-76035250D01*
X36335000Y-75680732D01*
X36335000Y-75319268D01*
X36264482Y-74964750D01*
X36126156Y-74630801D01*
X35925338Y-74330256D01*
X35669744Y-74074662D01*
X35369199Y-73873844D01*
X35035250Y-73735518D01*
X34680732Y-73665000D01*
X34319268Y-73665000D01*
X33964750Y-73735518D01*
X33630801Y-73873844D01*
X33330256Y-74074662D01*
X33074662Y-74330256D01*
X32873844Y-74630801D01*
X32735518Y-74964750D01*
X32665000Y-75319268D01*
X25660000Y-75319268D01*
X25660000Y-66500000D01*
X28915277Y-66500000D01*
X28920500Y-66553029D01*
X28920500Y-67446971D01*
X28915277Y-67500000D01*
X28920500Y-67553028D01*
X28920500Y-67606321D01*
X28930897Y-67658590D01*
X28936120Y-67711619D01*
X28951589Y-67762612D01*
X28961985Y-67814878D01*
X28982378Y-67864110D01*
X28997847Y-67915106D01*
X29022968Y-67962103D01*
X29043360Y-68011335D01*
X29072965Y-68055642D01*
X29077368Y-68063880D01*
X29098086Y-68102640D01*
X29131893Y-68143834D01*
X29161498Y-68188141D01*
X29199178Y-68225821D01*
X29232985Y-68267015D01*
X29274179Y-68300822D01*
X29311859Y-68338502D01*
X29356166Y-68368107D01*
X29397360Y-68401914D01*
X29444358Y-68427035D01*
X29488665Y-68456640D01*
X29537897Y-68477032D01*
X29584894Y-68502153D01*
X29635890Y-68517622D01*
X29685122Y-68538015D01*
X29737388Y-68548411D01*
X29788381Y-68563880D01*
X29841410Y-68569103D01*
X29893679Y-68579500D01*
X29946971Y-68579500D01*
X30000000Y-68584723D01*
X30053029Y-68579500D01*
X32446971Y-68579500D01*
X32500000Y-68584723D01*
X32553029Y-68579500D01*
X33446971Y-68579500D01*
X33500000Y-68584723D01*
X33553029Y-68579500D01*
X33606321Y-68579500D01*
X33658590Y-68569103D01*
X33711619Y-68563880D01*
X33762612Y-68548411D01*
X33814878Y-68538015D01*
X33864110Y-68517622D01*
X33915106Y-68502153D01*
X33962103Y-68477032D01*
X34011335Y-68456640D01*
X34055642Y-68427035D01*
X34102640Y-68401914D01*
X34143834Y-68368107D01*
X34188141Y-68338502D01*
X34225821Y-68300822D01*
X34267015Y-68267015D01*
X34300822Y-68225821D01*
X34338502Y-68188141D01*
X34368107Y-68143834D01*
X34401914Y-68102640D01*
X34427035Y-68055642D01*
X34456640Y-68011335D01*
X34477032Y-67962103D01*
X34502153Y-67915106D01*
X34517622Y-67864110D01*
X34538015Y-67814878D01*
X34548411Y-67762612D01*
X34563880Y-67711619D01*
X34569103Y-67658590D01*
X34579500Y-67606321D01*
X34579500Y-67553028D01*
X34584723Y-67500000D01*
X34579500Y-67446971D01*
X34579500Y-66553029D01*
X34584723Y-66500000D01*
X34579500Y-66446971D01*
X34579500Y-66393679D01*
X34569103Y-66341410D01*
X34563880Y-66288381D01*
X34548411Y-66237388D01*
X34538015Y-66185122D01*
X34517622Y-66135890D01*
X34502153Y-66084894D01*
X34477032Y-66037897D01*
X34456640Y-65988665D01*
X34427035Y-65944358D01*
X34401914Y-65897360D01*
X34368107Y-65856166D01*
X34338502Y-65811859D01*
X34300822Y-65774179D01*
X34267015Y-65732985D01*
X34225821Y-65699178D01*
X34188141Y-65661498D01*
X34143834Y-65631893D01*
X34102640Y-65598086D01*
X34055642Y-65572965D01*
X34011335Y-65543360D01*
X33962103Y-65522968D01*
X33915106Y-65497847D01*
X33864110Y-65482378D01*
X33814878Y-65461985D01*
X33762612Y-65451589D01*
X33711619Y-65436120D01*
X33658590Y-65430897D01*
X33606321Y-65420500D01*
X33553029Y-65420500D01*
X33500000Y-65415277D01*
X33446971Y-65420500D01*
X30053029Y-65420500D01*
X30000000Y-65415277D01*
X29946971Y-65420500D01*
X29893679Y-65420500D01*
X29841410Y-65430897D01*
X29788381Y-65436120D01*
X29737388Y-65451589D01*
X29685122Y-65461985D01*
X29635890Y-65482378D01*
X29584894Y-65497847D01*
X29537897Y-65522968D01*
X29488665Y-65543360D01*
X29444358Y-65572965D01*
X29397360Y-65598086D01*
X29356166Y-65631893D01*
X29311859Y-65661498D01*
X29274179Y-65699178D01*
X29232985Y-65732985D01*
X29199178Y-65774179D01*
X29161498Y-65811859D01*
X29131893Y-65856166D01*
X29098086Y-65897360D01*
X29072965Y-65944358D01*
X29043360Y-65988665D01*
X29022968Y-66037897D01*
X28997847Y-66084894D01*
X28982378Y-66135890D01*
X28961985Y-66185122D01*
X28951589Y-66237388D01*
X28936120Y-66288381D01*
X28930897Y-66341410D01*
X28920500Y-66393679D01*
X28920500Y-66446971D01*
X28915277Y-66500000D01*
X25660000Y-66500000D01*
X25660000Y-62500000D01*
X28915277Y-62500000D01*
X28920500Y-62553029D01*
X28920500Y-63446971D01*
X28915277Y-63500000D01*
X28920500Y-63553028D01*
X28920500Y-63606321D01*
X28930897Y-63658590D01*
X28936120Y-63711619D01*
X28951589Y-63762612D01*
X28961985Y-63814878D01*
X28982378Y-63864110D01*
X28997847Y-63915106D01*
X29022968Y-63962103D01*
X29043360Y-64011335D01*
X29072965Y-64055642D01*
X29077368Y-64063880D01*
X29098086Y-64102640D01*
X29131893Y-64143834D01*
X29161498Y-64188141D01*
X29199178Y-64225821D01*
X29232985Y-64267015D01*
X29274179Y-64300822D01*
X29311859Y-64338502D01*
X29356166Y-64368107D01*
X29397360Y-64401914D01*
X29444358Y-64427035D01*
X29488665Y-64456640D01*
X29537897Y-64477032D01*
X29584894Y-64502153D01*
X29635890Y-64517622D01*
X29685122Y-64538015D01*
X29737388Y-64548411D01*
X29788381Y-64563880D01*
X29841410Y-64569103D01*
X29893679Y-64579500D01*
X29946971Y-64579500D01*
X30000000Y-64584723D01*
X30053029Y-64579500D01*
X30946971Y-64579500D01*
X31000000Y-64584723D01*
X31053029Y-64579500D01*
X32446971Y-64579500D01*
X32500000Y-64584723D01*
X32553029Y-64579500D01*
X33446971Y-64579500D01*
X33500000Y-64584723D01*
X33553029Y-64579500D01*
X33606321Y-64579500D01*
X33658590Y-64569103D01*
X33711619Y-64563880D01*
X33762612Y-64548411D01*
X33814878Y-64538015D01*
X33864110Y-64517622D01*
X33915106Y-64502153D01*
X33962103Y-64477032D01*
X34011335Y-64456640D01*
X34055642Y-64427035D01*
X34102640Y-64401914D01*
X34143834Y-64368107D01*
X34188141Y-64338502D01*
X34225821Y-64300822D01*
X34267015Y-64267015D01*
X34300822Y-64225821D01*
X34338502Y-64188141D01*
X34368107Y-64143834D01*
X34401914Y-64102640D01*
X34427035Y-64055642D01*
X34456640Y-64011335D01*
X34477032Y-63962103D01*
X34502153Y-63915106D01*
X34517622Y-63864110D01*
X34538015Y-63814878D01*
X34548411Y-63762612D01*
X34563880Y-63711619D01*
X34569103Y-63658590D01*
X34579500Y-63606321D01*
X34579500Y-63553028D01*
X34584723Y-63500000D01*
X34579500Y-63446971D01*
X34579500Y-62553029D01*
X34584723Y-62500000D01*
X34579500Y-62446971D01*
X34579500Y-62393679D01*
X34569103Y-62341410D01*
X34563880Y-62288381D01*
X34548411Y-62237388D01*
X34538015Y-62185122D01*
X34517622Y-62135890D01*
X34502153Y-62084894D01*
X34477032Y-62037897D01*
X34456640Y-61988665D01*
X34427035Y-61944358D01*
X34401914Y-61897360D01*
X34368107Y-61856166D01*
X34338502Y-61811859D01*
X34300822Y-61774179D01*
X34267015Y-61732985D01*
X34225821Y-61699178D01*
X34188141Y-61661498D01*
X34143834Y-61631893D01*
X34102640Y-61598086D01*
X34055642Y-61572965D01*
X34011335Y-61543360D01*
X33962103Y-61522968D01*
X33915106Y-61497847D01*
X33864110Y-61482378D01*
X33814878Y-61461985D01*
X33762612Y-61451589D01*
X33711619Y-61436120D01*
X33658590Y-61430897D01*
X33606321Y-61420500D01*
X33553029Y-61420500D01*
X33500000Y-61415277D01*
X33446971Y-61420500D01*
X31553029Y-61420500D01*
X31500000Y-61415277D01*
X31446971Y-61420500D01*
X30053029Y-61420500D01*
X30000000Y-61415277D01*
X29946971Y-61420500D01*
X29893679Y-61420500D01*
X29841410Y-61430897D01*
X29788381Y-61436120D01*
X29737388Y-61451589D01*
X29685122Y-61461985D01*
X29635890Y-61482378D01*
X29584894Y-61497847D01*
X29537897Y-61522968D01*
X29488665Y-61543360D01*
X29444358Y-61572965D01*
X29397360Y-61598086D01*
X29356166Y-61631893D01*
X29311859Y-61661498D01*
X29274179Y-61699178D01*
X29232985Y-61732985D01*
X29199178Y-61774179D01*
X29161498Y-61811859D01*
X29131893Y-61856166D01*
X29098086Y-61897360D01*
X29072965Y-61944358D01*
X29043360Y-61988665D01*
X29022968Y-62037897D01*
X28997847Y-62084894D01*
X28982378Y-62135890D01*
X28961985Y-62185122D01*
X28951589Y-62237388D01*
X28936120Y-62288381D01*
X28930897Y-62341410D01*
X28920500Y-62393679D01*
X28920500Y-62446971D01*
X28915277Y-62500000D01*
X25660000Y-62500000D01*
X25660000Y-53819268D01*
X32665000Y-53819268D01*
X32665000Y-54180732D01*
X32735518Y-54535250D01*
X32873844Y-54869199D01*
X33074662Y-55169744D01*
X33330256Y-55425338D01*
X33630801Y-55626156D01*
X33964750Y-55764482D01*
X34319268Y-55835000D01*
X34680732Y-55835000D01*
X35035250Y-55764482D01*
X35369199Y-55626156D01*
X35669744Y-55425338D01*
X35925338Y-55169744D01*
X36126156Y-54869199D01*
X36264482Y-54535250D01*
X36335000Y-54180732D01*
X36335000Y-53819268D01*
X36264482Y-53464750D01*
X36126156Y-53130801D01*
X35925338Y-52830256D01*
X35669744Y-52574662D01*
X35369199Y-52373844D01*
X35035250Y-52235518D01*
X34680732Y-52165000D01*
X34319268Y-52165000D01*
X33964750Y-52235518D01*
X33630801Y-52373844D01*
X33330256Y-52574662D01*
X33074662Y-52830256D01*
X32873844Y-53130801D01*
X32735518Y-53464750D01*
X32665000Y-53819268D01*
X25660000Y-53819268D01*
X25660000Y-39819268D01*
X32665000Y-39819268D01*
X32665000Y-40180732D01*
X32735518Y-40535250D01*
X32873844Y-40869199D01*
X33074662Y-41169744D01*
X33330256Y-41425338D01*
X33630801Y-41626156D01*
X33964750Y-41764482D01*
X34319268Y-41835000D01*
X34680732Y-41835000D01*
X35035250Y-41764482D01*
X35369199Y-41626156D01*
X35669744Y-41425338D01*
X35925338Y-41169744D01*
X36126156Y-40869199D01*
X36264482Y-40535250D01*
X36335000Y-40180732D01*
X36335000Y-39819268D01*
X36264482Y-39464750D01*
X36126156Y-39130801D01*
X35925338Y-38830256D01*
X35669744Y-38574662D01*
X35369199Y-38373844D01*
X35035250Y-38235518D01*
X34680732Y-38165000D01*
X34319268Y-38165000D01*
X33964750Y-38235518D01*
X33630801Y-38373844D01*
X33330256Y-38574662D01*
X33074662Y-38830256D01*
X32873844Y-39130801D01*
X32735518Y-39464750D01*
X32665000Y-39819268D01*
X25660000Y-39819268D01*
X25660000Y-23809419D01*
X27565000Y-23809419D01*
X27565000Y-24190581D01*
X27639361Y-24564419D01*
X27785225Y-24916566D01*
X27996987Y-25233491D01*
X28266509Y-25503013D01*
X28583434Y-25714775D01*
X28935581Y-25860639D01*
X29309419Y-25935000D01*
X29690581Y-25935000D01*
X30064419Y-25860639D01*
X30416566Y-25714775D01*
X30733491Y-25503013D01*
X31003013Y-25233491D01*
X31214775Y-24916566D01*
X31360639Y-24564419D01*
X31435000Y-24190581D01*
X31435000Y-23809419D01*
X31360639Y-23435581D01*
X31214775Y-23083434D01*
X31003013Y-22766509D01*
X30733491Y-22496987D01*
X30416566Y-22285225D01*
X30064419Y-22139361D01*
X29690581Y-22065000D01*
X29309419Y-22065000D01*
X28935581Y-22139361D01*
X28583434Y-22285225D01*
X28266509Y-22496987D01*
X27996987Y-22766509D01*
X27785225Y-23083434D01*
X27639361Y-23435581D01*
X27565000Y-23809419D01*
X25660000Y-23809419D01*
X25660000Y-20660000D01*
X38373000Y-20660000D01*
X38373000Y-25500000D01*
G37*
G04 #@! TD.AperFunction*
D25*
X52373000Y-55052606D02*
X52373000Y-63373000D01*
X48579500Y-63373000D01*
X48579500Y-61592927D01*
X48584723Y-61539898D01*
X48563880Y-61328279D01*
X48545296Y-61267015D01*
X48502153Y-61124792D01*
X48401914Y-60937258D01*
X48267015Y-60772883D01*
X48225820Y-60739075D01*
X47922364Y-60435620D01*
X47901914Y-60397360D01*
X47767015Y-60232985D01*
X47725820Y-60199177D01*
X47300826Y-59774184D01*
X47267015Y-59732985D01*
X47102640Y-59598086D01*
X46915106Y-59497847D01*
X46711619Y-59436120D01*
X46553029Y-59420500D01*
X46500000Y-59415277D01*
X46446971Y-59420500D01*
X44168510Y-59420500D01*
X44168510Y-56187039D01*
X44173733Y-56134010D01*
X44152890Y-55922391D01*
X44091163Y-55718905D01*
X44091163Y-55718904D01*
X43990924Y-55531370D01*
X43856025Y-55366995D01*
X43814836Y-55333192D01*
X43627000Y-55145356D01*
X43627000Y-53127000D01*
X50447394Y-53127000D01*
X52373000Y-55052606D01*
G04 #@! TA.AperFunction,Conductor*
D28*
G36*
X52373000Y-55052606D02*
G01*
X52373000Y-63373000D01*
X48579500Y-63373000D01*
X48579500Y-61592927D01*
X48584723Y-61539898D01*
X48563880Y-61328279D01*
X48545296Y-61267015D01*
X48502153Y-61124792D01*
X48401914Y-60937258D01*
X48267015Y-60772883D01*
X48225820Y-60739075D01*
X47922364Y-60435620D01*
X47901914Y-60397360D01*
X47767015Y-60232985D01*
X47725820Y-60199177D01*
X47300826Y-59774184D01*
X47267015Y-59732985D01*
X47102640Y-59598086D01*
X46915106Y-59497847D01*
X46711619Y-59436120D01*
X46553029Y-59420500D01*
X46500000Y-59415277D01*
X46446971Y-59420500D01*
X44168510Y-59420500D01*
X44168510Y-56187039D01*
X44173733Y-56134010D01*
X44152890Y-55922391D01*
X44091163Y-55718905D01*
X44091163Y-55718904D01*
X43990924Y-55531370D01*
X43856025Y-55366995D01*
X43814836Y-55333192D01*
X43627000Y-55145356D01*
X43627000Y-53127000D01*
X50447394Y-53127000D01*
X52373000Y-55052606D01*
G37*
G04 #@! TD.AperFunction*
D25*
X58873000Y-51947394D02*
X58410197Y-52410197D01*
X58394403Y-52429443D01*
X58382667Y-52451399D01*
X58375440Y-52475224D01*
X58373000Y-52500000D01*
X58373000Y-55947394D01*
X56447394Y-57873000D01*
X54627000Y-57873000D01*
X54627000Y-56000000D01*
X54624560Y-55975224D01*
X54617333Y-55951399D01*
X54605597Y-55929443D01*
X54589803Y-55910197D01*
X52627000Y-53947394D01*
X52627000Y-45127000D01*
X58873000Y-45127000D01*
X58873000Y-51947394D01*
G04 #@! TA.AperFunction,Conductor*
D28*
G36*
X58873000Y-51947394D02*
G01*
X58410197Y-52410197D01*
X58394403Y-52429443D01*
X58382667Y-52451399D01*
X58375440Y-52475224D01*
X58373000Y-52500000D01*
X58373000Y-55947394D01*
X56447394Y-57873000D01*
X54627000Y-57873000D01*
X54627000Y-56000000D01*
X54624560Y-55975224D01*
X54617333Y-55951399D01*
X54605597Y-55929443D01*
X54589803Y-55910197D01*
X52627000Y-53947394D01*
X52627000Y-45127000D01*
X58873000Y-45127000D01*
X58873000Y-51947394D01*
G37*
G04 #@! TD.AperFunction*
D25*
X69873000Y-51873000D02*
X68000000Y-51873000D01*
X67975224Y-51875440D01*
X67951399Y-51882667D01*
X67929443Y-51894403D01*
X67910197Y-51910197D01*
X66921322Y-52899072D01*
X66822640Y-52818086D01*
X66635106Y-52717847D01*
X66431619Y-52656120D01*
X66407865Y-52653780D01*
X66329494Y-52589463D01*
X66219180Y-52530498D01*
X66099482Y-52494188D01*
X65975000Y-52481928D01*
X63775000Y-52481928D01*
X63650518Y-52494188D01*
X63530820Y-52530498D01*
X63420506Y-52589463D01*
X63323815Y-52668815D01*
X63244463Y-52765506D01*
X63185498Y-52875820D01*
X63149188Y-52995518D01*
X63136928Y-53120000D01*
X63136928Y-54320000D01*
X63149188Y-54444482D01*
X63185498Y-54564180D01*
X63244463Y-54674494D01*
X63323815Y-54771185D01*
X63420506Y-54850537D01*
X63530820Y-54909502D01*
X63650518Y-54945812D01*
X63775000Y-54958072D01*
X65920500Y-54958072D01*
X65920501Y-59446961D01*
X65915277Y-59500000D01*
X65936120Y-59711618D01*
X65985075Y-59873000D01*
X65000000Y-59873000D01*
X64975224Y-59875440D01*
X64951399Y-59882667D01*
X64929443Y-59894403D01*
X64910197Y-59910197D01*
X64164228Y-60656166D01*
X64148815Y-60668815D01*
X64136166Y-60684228D01*
X63410197Y-61410197D01*
X63394403Y-61429443D01*
X63382667Y-61451399D01*
X63375440Y-61475224D01*
X63373000Y-61500000D01*
X63373000Y-66920500D01*
X57053029Y-66920500D01*
X57000000Y-66915277D01*
X56946971Y-66920500D01*
X56788381Y-66936120D01*
X56584894Y-66997847D01*
X56397360Y-67098086D01*
X56232985Y-67232985D01*
X56199182Y-67274174D01*
X56100356Y-67373000D01*
X54627000Y-67373000D01*
X54627000Y-59127000D01*
X56500000Y-59127000D01*
X56524776Y-59124560D01*
X56548601Y-59117333D01*
X56570557Y-59105597D01*
X56589803Y-59089803D01*
X59589803Y-56089803D01*
X59605597Y-56070557D01*
X59617333Y-56048601D01*
X59624560Y-56024776D01*
X59627000Y-56000000D01*
X59627000Y-52552606D01*
X60089803Y-52089803D01*
X60105597Y-52070557D01*
X60117333Y-52048601D01*
X60124560Y-52024776D01*
X60127000Y-52000000D01*
X60127000Y-45127000D01*
X69873000Y-45127000D01*
X69873000Y-51873000D01*
G04 #@! TA.AperFunction,Conductor*
D28*
G36*
X69873000Y-51873000D02*
G01*
X68000000Y-51873000D01*
X67975224Y-51875440D01*
X67951399Y-51882667D01*
X67929443Y-51894403D01*
X67910197Y-51910197D01*
X66921322Y-52899072D01*
X66822640Y-52818086D01*
X66635106Y-52717847D01*
X66431619Y-52656120D01*
X66407865Y-52653780D01*
X66329494Y-52589463D01*
X66219180Y-52530498D01*
X66099482Y-52494188D01*
X65975000Y-52481928D01*
X63775000Y-52481928D01*
X63650518Y-52494188D01*
X63530820Y-52530498D01*
X63420506Y-52589463D01*
X63323815Y-52668815D01*
X63244463Y-52765506D01*
X63185498Y-52875820D01*
X63149188Y-52995518D01*
X63136928Y-53120000D01*
X63136928Y-54320000D01*
X63149188Y-54444482D01*
X63185498Y-54564180D01*
X63244463Y-54674494D01*
X63323815Y-54771185D01*
X63420506Y-54850537D01*
X63530820Y-54909502D01*
X63650518Y-54945812D01*
X63775000Y-54958072D01*
X65920500Y-54958072D01*
X65920501Y-59446961D01*
X65915277Y-59500000D01*
X65936120Y-59711618D01*
X65985075Y-59873000D01*
X65000000Y-59873000D01*
X64975224Y-59875440D01*
X64951399Y-59882667D01*
X64929443Y-59894403D01*
X64910197Y-59910197D01*
X64164228Y-60656166D01*
X64148815Y-60668815D01*
X64136166Y-60684228D01*
X63410197Y-61410197D01*
X63394403Y-61429443D01*
X63382667Y-61451399D01*
X63375440Y-61475224D01*
X63373000Y-61500000D01*
X63373000Y-66920500D01*
X57053029Y-66920500D01*
X57000000Y-66915277D01*
X56946971Y-66920500D01*
X56788381Y-66936120D01*
X56584894Y-66997847D01*
X56397360Y-67098086D01*
X56232985Y-67232985D01*
X56199182Y-67274174D01*
X56100356Y-67373000D01*
X54627000Y-67373000D01*
X54627000Y-59127000D01*
X56500000Y-59127000D01*
X56524776Y-59124560D01*
X56548601Y-59117333D01*
X56570557Y-59105597D01*
X56589803Y-59089803D01*
X59589803Y-56089803D01*
X59605597Y-56070557D01*
X59617333Y-56048601D01*
X59624560Y-56024776D01*
X59627000Y-56000000D01*
X59627000Y-52552606D01*
X60089803Y-52089803D01*
X60105597Y-52070557D01*
X60117333Y-52048601D01*
X60124560Y-52024776D01*
X60127000Y-52000000D01*
X60127000Y-45127000D01*
X69873000Y-45127000D01*
X69873000Y-51873000D01*
G37*
G04 #@! TD.AperFunction*
D25*
X77373000Y-59447394D02*
X75399894Y-61420500D01*
X75393679Y-61420500D01*
X75341410Y-61430897D01*
X75288381Y-61436120D01*
X75237388Y-61451589D01*
X75185122Y-61461985D01*
X75135890Y-61482378D01*
X75084894Y-61497847D01*
X75037897Y-61522968D01*
X74988665Y-61543360D01*
X74944358Y-61572965D01*
X74897360Y-61598086D01*
X74856166Y-61631893D01*
X74811859Y-61661498D01*
X74774179Y-61699178D01*
X74732985Y-61732985D01*
X74699178Y-61774179D01*
X74661498Y-61811859D01*
X74631893Y-61856166D01*
X74598086Y-61897360D01*
X74572965Y-61944358D01*
X74543360Y-61988665D01*
X74522968Y-62037897D01*
X74497847Y-62084894D01*
X74482378Y-62135890D01*
X74461985Y-62185122D01*
X74451589Y-62237388D01*
X74436120Y-62288381D01*
X74430897Y-62341410D01*
X74420500Y-62393679D01*
X74420500Y-62446971D01*
X74415277Y-62500000D01*
X74420500Y-62553028D01*
X74420500Y-63446971D01*
X74415277Y-63500000D01*
X74420500Y-63553029D01*
X74420500Y-63606321D01*
X74430897Y-63658590D01*
X74436120Y-63711619D01*
X74451589Y-63762612D01*
X74461985Y-63814878D01*
X74482378Y-63864110D01*
X74497847Y-63915106D01*
X74522968Y-63962103D01*
X74543360Y-64011335D01*
X74572965Y-64055642D01*
X74598086Y-64102640D01*
X74631893Y-64143834D01*
X74661498Y-64188141D01*
X74699178Y-64225821D01*
X74732985Y-64267015D01*
X74774179Y-64300822D01*
X74811859Y-64338502D01*
X74856166Y-64368107D01*
X74873000Y-64381922D01*
X74873000Y-65618078D01*
X74856166Y-65631893D01*
X74811859Y-65661498D01*
X74774179Y-65699178D01*
X74732985Y-65732985D01*
X74699178Y-65774179D01*
X74661498Y-65811859D01*
X74631893Y-65856166D01*
X74598086Y-65897360D01*
X74572965Y-65944358D01*
X74543360Y-65988665D01*
X74522968Y-66037897D01*
X74497847Y-66084894D01*
X74482378Y-66135890D01*
X74461985Y-66185122D01*
X74451589Y-66237388D01*
X74436120Y-66288381D01*
X74430897Y-66341410D01*
X74420500Y-66393679D01*
X74420500Y-66446971D01*
X74415277Y-66500000D01*
X74420500Y-66553029D01*
X74420500Y-67446971D01*
X74415277Y-67500000D01*
X74420500Y-67553028D01*
X74420500Y-67606321D01*
X74430897Y-67658590D01*
X74436120Y-67711619D01*
X74451589Y-67762612D01*
X74461985Y-67814878D01*
X74482378Y-67864110D01*
X74497847Y-67915106D01*
X74522968Y-67962103D01*
X74543360Y-68011335D01*
X74572966Y-68055643D01*
X74598086Y-68102640D01*
X74631893Y-68143834D01*
X74661498Y-68188141D01*
X74699178Y-68225821D01*
X74732985Y-68267015D01*
X74774179Y-68300822D01*
X74811859Y-68338502D01*
X74856166Y-68368107D01*
X74873000Y-68381922D01*
X74873000Y-80447394D01*
X71910197Y-83410197D01*
X71894403Y-83429443D01*
X71882667Y-83451399D01*
X71875440Y-83475224D01*
X71873000Y-83500000D01*
X71873000Y-85373000D01*
X68127000Y-85373000D01*
X68127000Y-79000000D01*
X68124560Y-78975224D01*
X68117333Y-78951399D01*
X68105597Y-78929443D01*
X68089803Y-78910197D01*
X64627000Y-75447394D01*
X64627000Y-69552606D01*
X65552606Y-68627000D01*
X66924613Y-68627000D01*
X66930897Y-68658590D01*
X66936120Y-68711619D01*
X66951588Y-68762610D01*
X66961985Y-68814878D01*
X66982380Y-68864117D01*
X66997848Y-68915106D01*
X67022964Y-68962095D01*
X67043360Y-69011335D01*
X67072970Y-69055650D01*
X67098087Y-69102640D01*
X67131889Y-69143827D01*
X67161498Y-69188141D01*
X67199183Y-69225826D01*
X67232986Y-69267015D01*
X67274175Y-69300818D01*
X67311859Y-69338502D01*
X67356171Y-69368111D01*
X67397361Y-69401914D01*
X67444354Y-69427032D01*
X67488665Y-69456640D01*
X67537901Y-69477034D01*
X67584895Y-69502153D01*
X67635887Y-69517621D01*
X67685122Y-69538015D01*
X67737391Y-69548412D01*
X67788382Y-69563880D01*
X67841410Y-69569103D01*
X67893679Y-69579500D01*
X67946971Y-69579500D01*
X68000000Y-69584723D01*
X68053029Y-69579500D01*
X68106321Y-69579500D01*
X68158590Y-69569103D01*
X68211619Y-69563880D01*
X68262612Y-69548411D01*
X68314878Y-69538015D01*
X68364110Y-69517622D01*
X68415106Y-69502153D01*
X68462103Y-69477032D01*
X68511335Y-69456640D01*
X68555642Y-69427035D01*
X68602640Y-69401914D01*
X68643834Y-69368107D01*
X68688141Y-69338502D01*
X68725821Y-69300822D01*
X68767015Y-69267015D01*
X68800822Y-69225821D01*
X68838502Y-69188141D01*
X68868107Y-69143834D01*
X68901914Y-69102640D01*
X68927035Y-69055642D01*
X68956640Y-69011335D01*
X68977032Y-68962103D01*
X69002153Y-68915106D01*
X69017622Y-68864110D01*
X69038015Y-68814878D01*
X69048411Y-68762612D01*
X69063880Y-68711619D01*
X69069103Y-68658590D01*
X69079500Y-68606321D01*
X69079500Y-67847916D01*
X69091163Y-67826096D01*
X69152890Y-67622609D01*
X69168510Y-67464019D01*
X69168510Y-67464012D01*
X69173732Y-67410991D01*
X69168510Y-67357969D01*
X69168510Y-60642039D01*
X69173733Y-60589010D01*
X69152890Y-60377391D01*
X69091163Y-60173905D01*
X69091163Y-60173904D01*
X68990924Y-59986370D01*
X68856025Y-59821995D01*
X68814836Y-59788192D01*
X68127000Y-59100357D01*
X68127000Y-53127000D01*
X77373000Y-53127000D01*
X77373000Y-59447394D01*
G04 #@! TA.AperFunction,Conductor*
D28*
G36*
X77373000Y-59447394D02*
G01*
X75399894Y-61420500D01*
X75393679Y-61420500D01*
X75341410Y-61430897D01*
X75288381Y-61436120D01*
X75237388Y-61451589D01*
X75185122Y-61461985D01*
X75135890Y-61482378D01*
X75084894Y-61497847D01*
X75037897Y-61522968D01*
X74988665Y-61543360D01*
X74944358Y-61572965D01*
X74897360Y-61598086D01*
X74856166Y-61631893D01*
X74811859Y-61661498D01*
X74774179Y-61699178D01*
X74732985Y-61732985D01*
X74699178Y-61774179D01*
X74661498Y-61811859D01*
X74631893Y-61856166D01*
X74598086Y-61897360D01*
X74572965Y-61944358D01*
X74543360Y-61988665D01*
X74522968Y-62037897D01*
X74497847Y-62084894D01*
X74482378Y-62135890D01*
X74461985Y-62185122D01*
X74451589Y-62237388D01*
X74436120Y-62288381D01*
X74430897Y-62341410D01*
X74420500Y-62393679D01*
X74420500Y-62446971D01*
X74415277Y-62500000D01*
X74420500Y-62553028D01*
X74420500Y-63446971D01*
X74415277Y-63500000D01*
X74420500Y-63553029D01*
X74420500Y-63606321D01*
X74430897Y-63658590D01*
X74436120Y-63711619D01*
X74451589Y-63762612D01*
X74461985Y-63814878D01*
X74482378Y-63864110D01*
X74497847Y-63915106D01*
X74522968Y-63962103D01*
X74543360Y-64011335D01*
X74572965Y-64055642D01*
X74598086Y-64102640D01*
X74631893Y-64143834D01*
X74661498Y-64188141D01*
X74699178Y-64225821D01*
X74732985Y-64267015D01*
X74774179Y-64300822D01*
X74811859Y-64338502D01*
X74856166Y-64368107D01*
X74873000Y-64381922D01*
X74873000Y-65618078D01*
X74856166Y-65631893D01*
X74811859Y-65661498D01*
X74774179Y-65699178D01*
X74732985Y-65732985D01*
X74699178Y-65774179D01*
X74661498Y-65811859D01*
X74631893Y-65856166D01*
X74598086Y-65897360D01*
X74572965Y-65944358D01*
X74543360Y-65988665D01*
X74522968Y-66037897D01*
X74497847Y-66084894D01*
X74482378Y-66135890D01*
X74461985Y-66185122D01*
X74451589Y-66237388D01*
X74436120Y-66288381D01*
X74430897Y-66341410D01*
X74420500Y-66393679D01*
X74420500Y-66446971D01*
X74415277Y-66500000D01*
X74420500Y-66553029D01*
X74420500Y-67446971D01*
X74415277Y-67500000D01*
X74420500Y-67553028D01*
X74420500Y-67606321D01*
X74430897Y-67658590D01*
X74436120Y-67711619D01*
X74451589Y-67762612D01*
X74461985Y-67814878D01*
X74482378Y-67864110D01*
X74497847Y-67915106D01*
X74522968Y-67962103D01*
X74543360Y-68011335D01*
X74572966Y-68055643D01*
X74598086Y-68102640D01*
X74631893Y-68143834D01*
X74661498Y-68188141D01*
X74699178Y-68225821D01*
X74732985Y-68267015D01*
X74774179Y-68300822D01*
X74811859Y-68338502D01*
X74856166Y-68368107D01*
X74873000Y-68381922D01*
X74873000Y-80447394D01*
X71910197Y-83410197D01*
X71894403Y-83429443D01*
X71882667Y-83451399D01*
X71875440Y-83475224D01*
X71873000Y-83500000D01*
X71873000Y-85373000D01*
X68127000Y-85373000D01*
X68127000Y-79000000D01*
X68124560Y-78975224D01*
X68117333Y-78951399D01*
X68105597Y-78929443D01*
X68089803Y-78910197D01*
X64627000Y-75447394D01*
X64627000Y-69552606D01*
X65552606Y-68627000D01*
X66924613Y-68627000D01*
X66930897Y-68658590D01*
X66936120Y-68711619D01*
X66951588Y-68762610D01*
X66961985Y-68814878D01*
X66982380Y-68864117D01*
X66997848Y-68915106D01*
X67022964Y-68962095D01*
X67043360Y-69011335D01*
X67072970Y-69055650D01*
X67098087Y-69102640D01*
X67131889Y-69143827D01*
X67161498Y-69188141D01*
X67199183Y-69225826D01*
X67232986Y-69267015D01*
X67274175Y-69300818D01*
X67311859Y-69338502D01*
X67356171Y-69368111D01*
X67397361Y-69401914D01*
X67444354Y-69427032D01*
X67488665Y-69456640D01*
X67537901Y-69477034D01*
X67584895Y-69502153D01*
X67635887Y-69517621D01*
X67685122Y-69538015D01*
X67737391Y-69548412D01*
X67788382Y-69563880D01*
X67841410Y-69569103D01*
X67893679Y-69579500D01*
X67946971Y-69579500D01*
X68000000Y-69584723D01*
X68053029Y-69579500D01*
X68106321Y-69579500D01*
X68158590Y-69569103D01*
X68211619Y-69563880D01*
X68262612Y-69548411D01*
X68314878Y-69538015D01*
X68364110Y-69517622D01*
X68415106Y-69502153D01*
X68462103Y-69477032D01*
X68511335Y-69456640D01*
X68555642Y-69427035D01*
X68602640Y-69401914D01*
X68643834Y-69368107D01*
X68688141Y-69338502D01*
X68725821Y-69300822D01*
X68767015Y-69267015D01*
X68800822Y-69225821D01*
X68838502Y-69188141D01*
X68868107Y-69143834D01*
X68901914Y-69102640D01*
X68927035Y-69055642D01*
X68956640Y-69011335D01*
X68977032Y-68962103D01*
X69002153Y-68915106D01*
X69017622Y-68864110D01*
X69038015Y-68814878D01*
X69048411Y-68762612D01*
X69063880Y-68711619D01*
X69069103Y-68658590D01*
X69079500Y-68606321D01*
X69079500Y-67847916D01*
X69091163Y-67826096D01*
X69152890Y-67622609D01*
X69168510Y-67464019D01*
X69168510Y-67464012D01*
X69173732Y-67410991D01*
X69168510Y-67357969D01*
X69168510Y-60642039D01*
X69173733Y-60589010D01*
X69152890Y-60377391D01*
X69091163Y-60173905D01*
X69091163Y-60173904D01*
X68990924Y-59986370D01*
X68856025Y-59821995D01*
X68814836Y-59788192D01*
X68127000Y-59100357D01*
X68127000Y-53127000D01*
X77373000Y-53127000D01*
X77373000Y-59447394D01*
G37*
G04 #@! TD.AperFunction*
D25*
X85373000Y-82373000D02*
X81500000Y-82373000D01*
X81475224Y-82375440D01*
X81451399Y-82382667D01*
X81429443Y-82394403D01*
X81410197Y-82410197D01*
X79410197Y-84410197D01*
X79394403Y-84429443D01*
X79382667Y-84451399D01*
X79375440Y-84475224D01*
X79373000Y-84500000D01*
X79373000Y-89340000D01*
X74127000Y-89340000D01*
X74127000Y-83052606D01*
X76089803Y-81089803D01*
X76105597Y-81070557D01*
X76117333Y-81048601D01*
X76124560Y-81024776D01*
X76127000Y-81000000D01*
X76127000Y-77627000D01*
X78500000Y-77627000D01*
X78524776Y-77624560D01*
X78548601Y-77617333D01*
X78570557Y-77605597D01*
X78589803Y-77589803D01*
X79589803Y-76589803D01*
X79605597Y-76570557D01*
X79617333Y-76548601D01*
X79624560Y-76524776D01*
X79627000Y-76500000D01*
X79627000Y-74127000D01*
X85373000Y-74127000D01*
X85373000Y-82373000D01*
G04 #@! TA.AperFunction,Conductor*
D28*
G36*
X85373000Y-82373000D02*
G01*
X81500000Y-82373000D01*
X81475224Y-82375440D01*
X81451399Y-82382667D01*
X81429443Y-82394403D01*
X81410197Y-82410197D01*
X79410197Y-84410197D01*
X79394403Y-84429443D01*
X79382667Y-84451399D01*
X79375440Y-84475224D01*
X79373000Y-84500000D01*
X79373000Y-89340000D01*
X74127000Y-89340000D01*
X74127000Y-83052606D01*
X76089803Y-81089803D01*
X76105597Y-81070557D01*
X76117333Y-81048601D01*
X76124560Y-81024776D01*
X76127000Y-81000000D01*
X76127000Y-77627000D01*
X78500000Y-77627000D01*
X78524776Y-77624560D01*
X78548601Y-77617333D01*
X78570557Y-77605597D01*
X78589803Y-77589803D01*
X79589803Y-76589803D01*
X79605597Y-76570557D01*
X79617333Y-76548601D01*
X79624560Y-76524776D01*
X79627000Y-76500000D01*
X79627000Y-74127000D01*
X85373000Y-74127000D01*
X85373000Y-82373000D01*
G37*
G04 #@! TD.AperFunction*
D25*
X104340000Y-69726620D02*
X88616597Y-85450023D01*
X88605597Y-85429443D01*
X88589803Y-85410197D01*
X86627000Y-83447394D01*
X86627000Y-72937145D01*
X86636645Y-72925393D01*
X86707401Y-72793016D01*
X86707402Y-72793015D01*
X86750974Y-72649378D01*
X86762000Y-72537426D01*
X86762000Y-72537423D01*
X86765686Y-72500000D01*
X86762000Y-72462577D01*
X86762000Y-70537422D01*
X86765686Y-70499999D01*
X86762000Y-70462574D01*
X86750974Y-70350622D01*
X86707402Y-70206985D01*
X86700363Y-70193815D01*
X86645021Y-70090279D01*
X86636645Y-70074608D01*
X86627000Y-70062855D01*
X86627000Y-69500000D01*
X86624560Y-69475224D01*
X86617333Y-69451399D01*
X86605597Y-69429443D01*
X86589803Y-69410197D01*
X85877000Y-68697394D01*
X85877000Y-68560214D01*
X85938684Y-68485051D01*
X86006890Y-68357448D01*
X86048890Y-68218991D01*
X86063072Y-68075000D01*
X86063072Y-67875000D01*
X86048890Y-67731009D01*
X86024316Y-67650000D01*
X86048890Y-67568991D01*
X86063072Y-67425000D01*
X86063072Y-67225000D01*
X86048890Y-67081009D01*
X86024316Y-67000000D01*
X86048890Y-66918991D01*
X86063072Y-66775000D01*
X86063072Y-66575000D01*
X86048890Y-66431009D01*
X86012007Y-66309419D01*
X98565000Y-66309419D01*
X98565000Y-66690581D01*
X98639361Y-67064419D01*
X98785225Y-67416566D01*
X98996987Y-67733491D01*
X99266509Y-68003013D01*
X99583434Y-68214775D01*
X99935581Y-68360639D01*
X100309419Y-68435000D01*
X100690581Y-68435000D01*
X101064419Y-68360639D01*
X101416566Y-68214775D01*
X101733491Y-68003013D01*
X102003013Y-67733491D01*
X102214775Y-67416566D01*
X102360639Y-67064419D01*
X102435000Y-66690581D01*
X102435000Y-66309419D01*
X102360639Y-65935581D01*
X102214775Y-65583434D01*
X102003013Y-65266509D01*
X101733491Y-64996987D01*
X101416566Y-64785225D01*
X101064419Y-64639361D01*
X100690581Y-64565000D01*
X100309419Y-64565000D01*
X99935581Y-64639361D01*
X99583434Y-64785225D01*
X99266509Y-64996987D01*
X98996987Y-65266509D01*
X98785225Y-65583434D01*
X98639361Y-65935581D01*
X98565000Y-66309419D01*
X86012007Y-66309419D01*
X86006890Y-66292552D01*
X85938684Y-66164949D01*
X85877000Y-66089786D01*
X85877000Y-65500000D01*
X85874560Y-65475224D01*
X85867333Y-65451399D01*
X85855597Y-65429443D01*
X85839803Y-65410197D01*
X85820557Y-65394403D01*
X85798601Y-65382667D01*
X85774776Y-65375440D01*
X85750000Y-65373000D01*
X83627000Y-65373000D01*
X83627000Y-65275615D01*
X83743386Y-65213405D01*
X83877962Y-65102962D01*
X83988405Y-64968386D01*
X84070472Y-64814850D01*
X84121008Y-64648254D01*
X84130803Y-64548803D01*
X87089803Y-61589803D01*
X87105597Y-61570557D01*
X87117333Y-61548601D01*
X87124560Y-61524776D01*
X87127000Y-61500000D01*
X87127000Y-53809419D01*
X98565000Y-53809419D01*
X98565000Y-54190581D01*
X98639361Y-54564419D01*
X98785225Y-54916566D01*
X98996987Y-55233491D01*
X99266509Y-55503013D01*
X99583434Y-55714775D01*
X99935581Y-55860639D01*
X100309419Y-55935000D01*
X100690581Y-55935000D01*
X101064419Y-55860639D01*
X101416566Y-55714775D01*
X101733491Y-55503013D01*
X102003013Y-55233491D01*
X102214775Y-54916566D01*
X102360639Y-54564419D01*
X102435000Y-54190581D01*
X102435000Y-53809419D01*
X102360639Y-53435581D01*
X102214775Y-53083434D01*
X102003013Y-52766509D01*
X101733491Y-52496987D01*
X101416566Y-52285225D01*
X101064419Y-52139361D01*
X100690581Y-52065000D01*
X100309419Y-52065000D01*
X99935581Y-52139361D01*
X99583434Y-52285225D01*
X99266509Y-52496987D01*
X98996987Y-52766509D01*
X98785225Y-53083434D01*
X98639361Y-53435581D01*
X98565000Y-53809419D01*
X87127000Y-53809419D01*
X87127000Y-41309419D01*
X98565000Y-41309419D01*
X98565000Y-41690581D01*
X98639361Y-42064419D01*
X98785225Y-42416566D01*
X98996987Y-42733491D01*
X99266509Y-43003013D01*
X99583434Y-43214775D01*
X99935581Y-43360639D01*
X100309419Y-43435000D01*
X100690581Y-43435000D01*
X101064419Y-43360639D01*
X101416566Y-43214775D01*
X101733491Y-43003013D01*
X102003013Y-42733491D01*
X102214775Y-42416566D01*
X102360639Y-42064419D01*
X102435000Y-41690581D01*
X102435000Y-41309419D01*
X102360639Y-40935581D01*
X102214775Y-40583434D01*
X102003013Y-40266509D01*
X101733491Y-39996987D01*
X101416566Y-39785225D01*
X101064419Y-39639361D01*
X100690581Y-39565000D01*
X100309419Y-39565000D01*
X99935581Y-39639361D01*
X99583434Y-39785225D01*
X99266509Y-39996987D01*
X98996987Y-40266509D01*
X98785225Y-40583434D01*
X98639361Y-40935581D01*
X98565000Y-41309419D01*
X87127000Y-41309419D01*
X87127000Y-28809419D01*
X98565000Y-28809419D01*
X98565000Y-29190581D01*
X98639361Y-29564419D01*
X98785225Y-29916566D01*
X98996987Y-30233491D01*
X99266509Y-30503013D01*
X99583434Y-30714775D01*
X99935581Y-30860639D01*
X100309419Y-30935000D01*
X100690581Y-30935000D01*
X101064419Y-30860639D01*
X101416566Y-30714775D01*
X101733491Y-30503013D01*
X102003013Y-30233491D01*
X102214775Y-29916566D01*
X102360639Y-29564419D01*
X102435000Y-29190581D01*
X102435000Y-28809419D01*
X102360639Y-28435581D01*
X102214775Y-28083434D01*
X102003013Y-27766509D01*
X101733491Y-27496987D01*
X101416566Y-27285225D01*
X101064419Y-27139361D01*
X100690581Y-27065000D01*
X100309419Y-27065000D01*
X99935581Y-27139361D01*
X99583434Y-27285225D01*
X99266509Y-27496987D01*
X98996987Y-27766509D01*
X98785225Y-28083434D01*
X98639361Y-28435581D01*
X98565000Y-28809419D01*
X87127000Y-28809419D01*
X87127000Y-27627000D01*
X92500000Y-27627000D01*
X92524776Y-27624560D01*
X92548601Y-27617333D01*
X92570557Y-27605597D01*
X92589803Y-27589803D01*
X94589803Y-25589803D01*
X94605597Y-25570557D01*
X94617333Y-25548601D01*
X94624560Y-25524776D01*
X94627000Y-25500000D01*
X94627000Y-20660000D01*
X104340001Y-20660000D01*
X104340000Y-69726620D01*
G04 #@! TA.AperFunction,Conductor*
D28*
G36*
X104340000Y-69726620D02*
G01*
X88616597Y-85450023D01*
X88605597Y-85429443D01*
X88589803Y-85410197D01*
X86627000Y-83447394D01*
X86627000Y-72937145D01*
X86636645Y-72925393D01*
X86707401Y-72793016D01*
X86707402Y-72793015D01*
X86750974Y-72649378D01*
X86762000Y-72537426D01*
X86762000Y-72537423D01*
X86765686Y-72500000D01*
X86762000Y-72462577D01*
X86762000Y-70537422D01*
X86765686Y-70499999D01*
X86762000Y-70462574D01*
X86750974Y-70350622D01*
X86707402Y-70206985D01*
X86700363Y-70193815D01*
X86645021Y-70090279D01*
X86636645Y-70074608D01*
X86627000Y-70062855D01*
X86627000Y-69500000D01*
X86624560Y-69475224D01*
X86617333Y-69451399D01*
X86605597Y-69429443D01*
X86589803Y-69410197D01*
X85877000Y-68697394D01*
X85877000Y-68560214D01*
X85938684Y-68485051D01*
X86006890Y-68357448D01*
X86048890Y-68218991D01*
X86063072Y-68075000D01*
X86063072Y-67875000D01*
X86048890Y-67731009D01*
X86024316Y-67650000D01*
X86048890Y-67568991D01*
X86063072Y-67425000D01*
X86063072Y-67225000D01*
X86048890Y-67081009D01*
X86024316Y-67000000D01*
X86048890Y-66918991D01*
X86063072Y-66775000D01*
X86063072Y-66575000D01*
X86048890Y-66431009D01*
X86012007Y-66309419D01*
X98565000Y-66309419D01*
X98565000Y-66690581D01*
X98639361Y-67064419D01*
X98785225Y-67416566D01*
X98996987Y-67733491D01*
X99266509Y-68003013D01*
X99583434Y-68214775D01*
X99935581Y-68360639D01*
X100309419Y-68435000D01*
X100690581Y-68435000D01*
X101064419Y-68360639D01*
X101416566Y-68214775D01*
X101733491Y-68003013D01*
X102003013Y-67733491D01*
X102214775Y-67416566D01*
X102360639Y-67064419D01*
X102435000Y-66690581D01*
X102435000Y-66309419D01*
X102360639Y-65935581D01*
X102214775Y-65583434D01*
X102003013Y-65266509D01*
X101733491Y-64996987D01*
X101416566Y-64785225D01*
X101064419Y-64639361D01*
X100690581Y-64565000D01*
X100309419Y-64565000D01*
X99935581Y-64639361D01*
X99583434Y-64785225D01*
X99266509Y-64996987D01*
X98996987Y-65266509D01*
X98785225Y-65583434D01*
X98639361Y-65935581D01*
X98565000Y-66309419D01*
X86012007Y-66309419D01*
X86006890Y-66292552D01*
X85938684Y-66164949D01*
X85877000Y-66089786D01*
X85877000Y-65500000D01*
X85874560Y-65475224D01*
X85867333Y-65451399D01*
X85855597Y-65429443D01*
X85839803Y-65410197D01*
X85820557Y-65394403D01*
X85798601Y-65382667D01*
X85774776Y-65375440D01*
X85750000Y-65373000D01*
X83627000Y-65373000D01*
X83627000Y-65275615D01*
X83743386Y-65213405D01*
X83877962Y-65102962D01*
X83988405Y-64968386D01*
X84070472Y-64814850D01*
X84121008Y-64648254D01*
X84130803Y-64548803D01*
X87089803Y-61589803D01*
X87105597Y-61570557D01*
X87117333Y-61548601D01*
X87124560Y-61524776D01*
X87127000Y-61500000D01*
X87127000Y-53809419D01*
X98565000Y-53809419D01*
X98565000Y-54190581D01*
X98639361Y-54564419D01*
X98785225Y-54916566D01*
X98996987Y-55233491D01*
X99266509Y-55503013D01*
X99583434Y-55714775D01*
X99935581Y-55860639D01*
X100309419Y-55935000D01*
X100690581Y-55935000D01*
X101064419Y-55860639D01*
X101416566Y-55714775D01*
X101733491Y-55503013D01*
X102003013Y-55233491D01*
X102214775Y-54916566D01*
X102360639Y-54564419D01*
X102435000Y-54190581D01*
X102435000Y-53809419D01*
X102360639Y-53435581D01*
X102214775Y-53083434D01*
X102003013Y-52766509D01*
X101733491Y-52496987D01*
X101416566Y-52285225D01*
X101064419Y-52139361D01*
X100690581Y-52065000D01*
X100309419Y-52065000D01*
X99935581Y-52139361D01*
X99583434Y-52285225D01*
X99266509Y-52496987D01*
X98996987Y-52766509D01*
X98785225Y-53083434D01*
X98639361Y-53435581D01*
X98565000Y-53809419D01*
X87127000Y-53809419D01*
X87127000Y-41309419D01*
X98565000Y-41309419D01*
X98565000Y-41690581D01*
X98639361Y-42064419D01*
X98785225Y-42416566D01*
X98996987Y-42733491D01*
X99266509Y-43003013D01*
X99583434Y-43214775D01*
X99935581Y-43360639D01*
X100309419Y-43435000D01*
X100690581Y-43435000D01*
X101064419Y-43360639D01*
X101416566Y-43214775D01*
X101733491Y-43003013D01*
X102003013Y-42733491D01*
X102214775Y-42416566D01*
X102360639Y-42064419D01*
X102435000Y-41690581D01*
X102435000Y-41309419D01*
X102360639Y-40935581D01*
X102214775Y-40583434D01*
X102003013Y-40266509D01*
X101733491Y-39996987D01*
X101416566Y-39785225D01*
X101064419Y-39639361D01*
X100690581Y-39565000D01*
X100309419Y-39565000D01*
X99935581Y-39639361D01*
X99583434Y-39785225D01*
X99266509Y-39996987D01*
X98996987Y-40266509D01*
X98785225Y-40583434D01*
X98639361Y-40935581D01*
X98565000Y-41309419D01*
X87127000Y-41309419D01*
X87127000Y-28809419D01*
X98565000Y-28809419D01*
X98565000Y-29190581D01*
X98639361Y-29564419D01*
X98785225Y-29916566D01*
X98996987Y-30233491D01*
X99266509Y-30503013D01*
X99583434Y-30714775D01*
X99935581Y-30860639D01*
X100309419Y-30935000D01*
X100690581Y-30935000D01*
X101064419Y-30860639D01*
X101416566Y-30714775D01*
X101733491Y-30503013D01*
X102003013Y-30233491D01*
X102214775Y-29916566D01*
X102360639Y-29564419D01*
X102435000Y-29190581D01*
X102435000Y-28809419D01*
X102360639Y-28435581D01*
X102214775Y-28083434D01*
X102003013Y-27766509D01*
X101733491Y-27496987D01*
X101416566Y-27285225D01*
X101064419Y-27139361D01*
X100690581Y-27065000D01*
X100309419Y-27065000D01*
X99935581Y-27139361D01*
X99583434Y-27285225D01*
X99266509Y-27496987D01*
X98996987Y-27766509D01*
X98785225Y-28083434D01*
X98639361Y-28435581D01*
X98565000Y-28809419D01*
X87127000Y-28809419D01*
X87127000Y-27627000D01*
X92500000Y-27627000D01*
X92524776Y-27624560D01*
X92548601Y-27617333D01*
X92570557Y-27605597D01*
X92589803Y-27589803D01*
X94589803Y-25589803D01*
X94605597Y-25570557D01*
X94617333Y-25548601D01*
X94624560Y-25524776D01*
X94627000Y-25500000D01*
X94627000Y-20660000D01*
X104340001Y-20660000D01*
X104340000Y-69726620D01*
G37*
G04 #@! TD.AperFunction*
D25*
X85873000Y-61447394D02*
X84683466Y-62636928D01*
X84650000Y-62636928D01*
X84476746Y-62653992D01*
X84310150Y-62704528D01*
X84156614Y-62786595D01*
X84022038Y-62897038D01*
X83911595Y-63031614D01*
X83829528Y-63185150D01*
X83778992Y-63351746D01*
X83761928Y-63525000D01*
X83761928Y-63558466D01*
X82410197Y-64910197D01*
X82394403Y-64929443D01*
X82382667Y-64951399D01*
X82375440Y-64975224D01*
X82373000Y-65000000D01*
X82373000Y-65346988D01*
X82318015Y-65317598D01*
X82174378Y-65274026D01*
X82062426Y-65263000D01*
X82062423Y-65263000D01*
X82025000Y-65259314D01*
X81987577Y-65263000D01*
X81419659Y-65263000D01*
X81382448Y-65243110D01*
X81243991Y-65201110D01*
X81100000Y-65186928D01*
X79675000Y-65186928D01*
X79531009Y-65201110D01*
X79392552Y-65243110D01*
X79264949Y-65311316D01*
X79153104Y-65403104D01*
X79061316Y-65514949D01*
X78993110Y-65642552D01*
X78951110Y-65781009D01*
X78936928Y-65925000D01*
X78936928Y-66125000D01*
X78951110Y-66268991D01*
X78975684Y-66350000D01*
X78951110Y-66431009D01*
X78936928Y-66575000D01*
X78936928Y-66775000D01*
X78951110Y-66918991D01*
X78975684Y-67000000D01*
X78951110Y-67081009D01*
X78936928Y-67225000D01*
X78936928Y-67425000D01*
X78951110Y-67568991D01*
X78975684Y-67650000D01*
X78951110Y-67731009D01*
X78936928Y-67875000D01*
X78936928Y-68075000D01*
X78951110Y-68218991D01*
X78993110Y-68357448D01*
X79061316Y-68485051D01*
X79153104Y-68596896D01*
X79264949Y-68688684D01*
X79392552Y-68756890D01*
X79531009Y-68798890D01*
X79675000Y-68813072D01*
X81100000Y-68813072D01*
X81238000Y-68799480D01*
X81238001Y-72873000D01*
X76127000Y-72873000D01*
X76127000Y-62052606D01*
X78589803Y-59589803D01*
X78605597Y-59570557D01*
X78617333Y-59548601D01*
X78624560Y-59524776D01*
X78627000Y-59500000D01*
X78627000Y-52000000D01*
X78624560Y-51975224D01*
X78617333Y-51951399D01*
X78605597Y-51929443D01*
X78589803Y-51910197D01*
X78570557Y-51894403D01*
X78548601Y-51882667D01*
X78524776Y-51875440D01*
X78500000Y-51873000D01*
X71127000Y-51873000D01*
X71127000Y-44000000D01*
X71124560Y-43975224D01*
X71117333Y-43951399D01*
X71105597Y-43929443D01*
X71089803Y-43910197D01*
X71070557Y-43894403D01*
X71048601Y-43882667D01*
X71024776Y-43875440D01*
X71000000Y-43873000D01*
X51500000Y-43873000D01*
X51475224Y-43875440D01*
X51451399Y-43882667D01*
X51429443Y-43894403D01*
X51410197Y-43910197D01*
X51394403Y-43929443D01*
X51382667Y-43951399D01*
X51375440Y-43975224D01*
X51373000Y-44000000D01*
X51373000Y-51873000D01*
X40627000Y-51873000D01*
X40627000Y-27627000D01*
X43500000Y-27627000D01*
X43524776Y-27624560D01*
X43548601Y-27617333D01*
X43570557Y-27605597D01*
X43589803Y-27589803D01*
X45589803Y-25589803D01*
X45605597Y-25570557D01*
X45617333Y-25548601D01*
X45624560Y-25524776D01*
X45627000Y-25500000D01*
X45627000Y-22420000D01*
X57186928Y-22420000D01*
X57186928Y-28920000D01*
X57199188Y-29044482D01*
X57235498Y-29164180D01*
X57294463Y-29274494D01*
X57373815Y-29371185D01*
X57470506Y-29450537D01*
X57580820Y-29509502D01*
X57700518Y-29545812D01*
X57825000Y-29558072D01*
X64175000Y-29558072D01*
X64299482Y-29545812D01*
X64419180Y-29509502D01*
X64529494Y-29450537D01*
X64626185Y-29371185D01*
X64705537Y-29274494D01*
X64764502Y-29164180D01*
X64800812Y-29044482D01*
X64813072Y-28920000D01*
X64813072Y-22420000D01*
X64800812Y-22295518D01*
X64764502Y-22175820D01*
X64705537Y-22065506D01*
X64626185Y-21968815D01*
X64529494Y-21889463D01*
X64419180Y-21830498D01*
X64299482Y-21794188D01*
X64175000Y-21781928D01*
X57825000Y-21781928D01*
X57700518Y-21794188D01*
X57580820Y-21830498D01*
X57470506Y-21889463D01*
X57373815Y-21968815D01*
X57294463Y-22065506D01*
X57235498Y-22175820D01*
X57199188Y-22295518D01*
X57186928Y-22420000D01*
X45627000Y-22420000D01*
X45627000Y-20660000D01*
X85873000Y-20660000D01*
X85873000Y-61447394D01*
G04 #@! TA.AperFunction,Conductor*
D28*
G36*
X85873000Y-61447394D02*
G01*
X84683466Y-62636928D01*
X84650000Y-62636928D01*
X84476746Y-62653992D01*
X84310150Y-62704528D01*
X84156614Y-62786595D01*
X84022038Y-62897038D01*
X83911595Y-63031614D01*
X83829528Y-63185150D01*
X83778992Y-63351746D01*
X83761928Y-63525000D01*
X83761928Y-63558466D01*
X82410197Y-64910197D01*
X82394403Y-64929443D01*
X82382667Y-64951399D01*
X82375440Y-64975224D01*
X82373000Y-65000000D01*
X82373000Y-65346988D01*
X82318015Y-65317598D01*
X82174378Y-65274026D01*
X82062426Y-65263000D01*
X82062423Y-65263000D01*
X82025000Y-65259314D01*
X81987577Y-65263000D01*
X81419659Y-65263000D01*
X81382448Y-65243110D01*
X81243991Y-65201110D01*
X81100000Y-65186928D01*
X79675000Y-65186928D01*
X79531009Y-65201110D01*
X79392552Y-65243110D01*
X79264949Y-65311316D01*
X79153104Y-65403104D01*
X79061316Y-65514949D01*
X78993110Y-65642552D01*
X78951110Y-65781009D01*
X78936928Y-65925000D01*
X78936928Y-66125000D01*
X78951110Y-66268991D01*
X78975684Y-66350000D01*
X78951110Y-66431009D01*
X78936928Y-66575000D01*
X78936928Y-66775000D01*
X78951110Y-66918991D01*
X78975684Y-67000000D01*
X78951110Y-67081009D01*
X78936928Y-67225000D01*
X78936928Y-67425000D01*
X78951110Y-67568991D01*
X78975684Y-67650000D01*
X78951110Y-67731009D01*
X78936928Y-67875000D01*
X78936928Y-68075000D01*
X78951110Y-68218991D01*
X78993110Y-68357448D01*
X79061316Y-68485051D01*
X79153104Y-68596896D01*
X79264949Y-68688684D01*
X79392552Y-68756890D01*
X79531009Y-68798890D01*
X79675000Y-68813072D01*
X81100000Y-68813072D01*
X81238000Y-68799480D01*
X81238001Y-72873000D01*
X76127000Y-72873000D01*
X76127000Y-62052606D01*
X78589803Y-59589803D01*
X78605597Y-59570557D01*
X78617333Y-59548601D01*
X78624560Y-59524776D01*
X78627000Y-59500000D01*
X78627000Y-52000000D01*
X78624560Y-51975224D01*
X78617333Y-51951399D01*
X78605597Y-51929443D01*
X78589803Y-51910197D01*
X78570557Y-51894403D01*
X78548601Y-51882667D01*
X78524776Y-51875440D01*
X78500000Y-51873000D01*
X71127000Y-51873000D01*
X71127000Y-44000000D01*
X71124560Y-43975224D01*
X71117333Y-43951399D01*
X71105597Y-43929443D01*
X71089803Y-43910197D01*
X71070557Y-43894403D01*
X71048601Y-43882667D01*
X71024776Y-43875440D01*
X71000000Y-43873000D01*
X51500000Y-43873000D01*
X51475224Y-43875440D01*
X51451399Y-43882667D01*
X51429443Y-43894403D01*
X51410197Y-43910197D01*
X51394403Y-43929443D01*
X51382667Y-43951399D01*
X51375440Y-43975224D01*
X51373000Y-44000000D01*
X51373000Y-51873000D01*
X40627000Y-51873000D01*
X40627000Y-27627000D01*
X43500000Y-27627000D01*
X43524776Y-27624560D01*
X43548601Y-27617333D01*
X43570557Y-27605597D01*
X43589803Y-27589803D01*
X45589803Y-25589803D01*
X45605597Y-25570557D01*
X45617333Y-25548601D01*
X45624560Y-25524776D01*
X45627000Y-25500000D01*
X45627000Y-22420000D01*
X57186928Y-22420000D01*
X57186928Y-28920000D01*
X57199188Y-29044482D01*
X57235498Y-29164180D01*
X57294463Y-29274494D01*
X57373815Y-29371185D01*
X57470506Y-29450537D01*
X57580820Y-29509502D01*
X57700518Y-29545812D01*
X57825000Y-29558072D01*
X64175000Y-29558072D01*
X64299482Y-29545812D01*
X64419180Y-29509502D01*
X64529494Y-29450537D01*
X64626185Y-29371185D01*
X64705537Y-29274494D01*
X64764502Y-29164180D01*
X64800812Y-29044482D01*
X64813072Y-28920000D01*
X64813072Y-22420000D01*
X64800812Y-22295518D01*
X64764502Y-22175820D01*
X64705537Y-22065506D01*
X64626185Y-21968815D01*
X64529494Y-21889463D01*
X64419180Y-21830498D01*
X64299482Y-21794188D01*
X64175000Y-21781928D01*
X57825000Y-21781928D01*
X57700518Y-21794188D01*
X57580820Y-21830498D01*
X57470506Y-21889463D01*
X57373815Y-21968815D01*
X57294463Y-22065506D01*
X57235498Y-22175820D01*
X57199188Y-22295518D01*
X57186928Y-22420000D01*
X45627000Y-22420000D01*
X45627000Y-20660000D01*
X85873000Y-20660000D01*
X85873000Y-61447394D01*
G37*
G04 #@! TD.AperFunction*
M02*
