G04 #@! TF.GenerationSoftware,KiCad,Pcbnew,6.0.9-8da3e8f707~116~ubuntu20.04.1*
G04 #@! TF.CreationDate,2022-11-18T09:21:54-05:00*
G04 #@! TF.ProjectId,buck_boost,6275636b-5f62-46f6-9f73-742e6b696361,rev?*
G04 #@! TF.SameCoordinates,Original*
G04 #@! TF.FileFunction,Copper,L1,Top*
G04 #@! TF.FilePolarity,Positive*
%FSLAX46Y46*%
G04 Gerber Fmt 4.6, Leading zero omitted, Abs format (unit mm)*
G04 Created by KiCad (PCBNEW 6.0.9-8da3e8f707~116~ubuntu20.04.1) date 2022-11-18 09:21:54*
%MOMM*%
%LPD*%
G01*
G04 APERTURE LIST*
G04 Aperture macros list*
%AMRoundRect*
0 Rectangle with rounded corners*
0 $1 Rounding radius*
0 $2 $3 $4 $5 $6 $7 $8 $9 X,Y pos of 4 corners*
0 Add a 4 corners polygon primitive as box body*
4,1,4,$2,$3,$4,$5,$6,$7,$8,$9,$2,$3,0*
0 Add four circle primitives for the rounded corners*
1,1,$1+$1,$2,$3*
1,1,$1+$1,$4,$5*
1,1,$1+$1,$6,$7*
1,1,$1+$1,$8,$9*
0 Add four rect primitives between the rounded corners*
20,1,$1+$1,$2,$3,$4,$5,0*
20,1,$1+$1,$4,$5,$6,$7,0*
20,1,$1+$1,$6,$7,$8,$9,0*
20,1,$1+$1,$8,$9,$2,$3,0*%
G04 Aperture macros list end*
G04 #@! TA.AperFunction,SMDPad,CuDef*
%ADD10RoundRect,0.249999X-0.325001X-0.650001X0.325001X-0.650001X0.325001X0.650001X-0.325001X0.650001X0*%
G04 #@! TD*
G04 #@! TA.AperFunction,SMDPad,CuDef*
%ADD11RoundRect,0.249999X0.325001X0.650001X-0.325001X0.650001X-0.325001X-0.650001X0.325001X-0.650001X0*%
G04 #@! TD*
G04 #@! TA.AperFunction,SMDPad,CuDef*
%ADD12RoundRect,0.250000X-0.250000X-0.475000X0.250000X-0.475000X0.250000X0.475000X-0.250000X0.475000X0*%
G04 #@! TD*
G04 #@! TA.AperFunction,SMDPad,CuDef*
%ADD13RoundRect,0.250000X0.475000X-0.250000X0.475000X0.250000X-0.475000X0.250000X-0.475000X-0.250000X0*%
G04 #@! TD*
G04 #@! TA.AperFunction,SMDPad,CuDef*
%ADD14RoundRect,0.250000X0.250000X0.475000X-0.250000X0.475000X-0.250000X-0.475000X0.250000X-0.475000X0*%
G04 #@! TD*
G04 #@! TA.AperFunction,SMDPad,CuDef*
%ADD15RoundRect,0.243750X0.243750X0.456250X-0.243750X0.456250X-0.243750X-0.456250X0.243750X-0.456250X0*%
G04 #@! TD*
G04 #@! TA.AperFunction,ComponentPad*
%ADD16C,2.600000*%
G04 #@! TD*
G04 #@! TA.AperFunction,SMDPad,CuDef*
%ADD17RoundRect,0.249998X-0.262502X-0.450002X0.262502X-0.450002X0.262502X0.450002X-0.262502X0.450002X0*%
G04 #@! TD*
G04 #@! TA.AperFunction,SMDPad,CuDef*
%ADD18RoundRect,0.249998X0.262502X0.450002X-0.262502X0.450002X-0.262502X-0.450002X0.262502X-0.450002X0*%
G04 #@! TD*
G04 #@! TA.AperFunction,SMDPad,CuDef*
%ADD19RoundRect,0.249998X0.312502X0.625002X-0.312502X0.625002X-0.312502X-0.625002X0.312502X-0.625002X0*%
G04 #@! TD*
G04 #@! TA.AperFunction,ComponentPad*
%ADD20C,1.800000*%
G04 #@! TD*
G04 #@! TA.AperFunction,ComponentPad*
%ADD21R,2.400000X2.400000*%
G04 #@! TD*
G04 #@! TA.AperFunction,ComponentPad*
%ADD22C,2.400000*%
G04 #@! TD*
G04 #@! TA.AperFunction,SMDPad,CuDef*
%ADD23R,2.200000X1.200000*%
G04 #@! TD*
G04 #@! TA.AperFunction,SMDPad,CuDef*
%ADD24R,6.400000X5.800000*%
G04 #@! TD*
G04 #@! TA.AperFunction,SMDPad,CuDef*
%ADD25RoundRect,0.249998X-0.312502X-0.625002X0.312502X-0.625002X0.312502X0.625002X-0.312502X0.625002X0*%
G04 #@! TD*
G04 #@! TA.AperFunction,SMDPad,CuDef*
%ADD26RoundRect,0.250000X-0.475000X0.250000X-0.475000X-0.250000X0.475000X-0.250000X0.475000X0.250000X0*%
G04 #@! TD*
G04 #@! TA.AperFunction,SMDPad,CuDef*
%ADD27RoundRect,0.100000X-0.712500X-0.100000X0.712500X-0.100000X0.712500X0.100000X-0.712500X0.100000X0*%
G04 #@! TD*
G04 #@! TA.AperFunction,SMDPad,CuDef*
%ADD28R,1.100000X1.100000*%
G04 #@! TD*
G04 #@! TA.AperFunction,SMDPad,CuDef*
%ADD29R,1.100000X0.400000*%
G04 #@! TD*
G04 #@! TA.AperFunction,SMDPad,CuDef*
%ADD30R,1.200000X1.542500*%
G04 #@! TD*
G04 #@! TA.AperFunction,ComponentPad*
%ADD31C,1.440000*%
G04 #@! TD*
G04 #@! TA.AperFunction,SMDPad,CuDef*
%ADD32R,6.350000X6.500000*%
G04 #@! TD*
G04 #@! TA.AperFunction,SMDPad,CuDef*
%ADD33R,5.330000X5.590000*%
G04 #@! TD*
G04 #@! TA.AperFunction,SMDPad,CuDef*
%ADD34R,4.000000X1.650000*%
G04 #@! TD*
G04 #@! TA.AperFunction,ViaPad*
%ADD35C,1.016000*%
G04 #@! TD*
G04 #@! TA.AperFunction,ViaPad*
%ADD36C,0.889000*%
G04 #@! TD*
G04 #@! TA.AperFunction,ViaPad*
%ADD37C,0.685800*%
G04 #@! TD*
G04 #@! TA.AperFunction,Conductor*
%ADD38C,0.508000*%
G04 #@! TD*
G04 #@! TA.AperFunction,Conductor*
%ADD39C,0.254000*%
G04 #@! TD*
G04 #@! TA.AperFunction,Conductor*
%ADD40C,0.889000*%
G04 #@! TD*
G04 #@! TA.AperFunction,Conductor*
%ADD41C,1.270000*%
G04 #@! TD*
G04 APERTURE END LIST*
D10*
X33000000Y-63000000D03*
X35950000Y-63000000D03*
D11*
X30450000Y-67000000D03*
X27500000Y-67000000D03*
D12*
X57000000Y-82000000D03*
X58900000Y-82000000D03*
D13*
X57000000Y-72400000D03*
X57000000Y-70500000D03*
D12*
X57000000Y-74500000D03*
X58900000Y-74500000D03*
D10*
X76500000Y-54500000D03*
X79450000Y-54500000D03*
X73000000Y-63000000D03*
X75950000Y-63000000D03*
X73000000Y-67000000D03*
X75950000Y-67000000D03*
X76500000Y-58500000D03*
X79450000Y-58500000D03*
D14*
X50400000Y-83500000D03*
X48500000Y-83500000D03*
D15*
X50375000Y-88500000D03*
X48500000Y-88500000D03*
D16*
X29500000Y-24000000D03*
X29500000Y-29000000D03*
X100500000Y-29000000D03*
X100500000Y-24000000D03*
X100500000Y-41500000D03*
X100500000Y-36500000D03*
X100500000Y-66500000D03*
X100500000Y-61500000D03*
X100500000Y-54000000D03*
X100500000Y-49000000D03*
D17*
X42175000Y-83500000D03*
X44000000Y-83500000D03*
D18*
X44000000Y-86000000D03*
X42175000Y-86000000D03*
D17*
X57000000Y-79500000D03*
X58825000Y-79500000D03*
X57000000Y-77000000D03*
X58825000Y-77000000D03*
D19*
X74462500Y-84500000D03*
X71537500Y-84500000D03*
D17*
X52500000Y-83500000D03*
X54325000Y-83500000D03*
X71000000Y-88000000D03*
X72825000Y-88000000D03*
X42175000Y-88500000D03*
X44000000Y-88500000D03*
D20*
X88000000Y-65320000D03*
X80500000Y-63686670D03*
D10*
X33000000Y-67000000D03*
X35950000Y-67000000D03*
D17*
X48500000Y-86000000D03*
X50325000Y-86000000D03*
D21*
X29500000Y-54000000D03*
D22*
X34500000Y-54000000D03*
D21*
X29500000Y-75500000D03*
D22*
X34500000Y-75500000D03*
D23*
X64875000Y-53720000D03*
D24*
X71175000Y-56000000D03*
D23*
X64875000Y-58280000D03*
D21*
X89500000Y-55500000D03*
D22*
X84500000Y-55500000D03*
D21*
X89500000Y-33500000D03*
D22*
X84500000Y-33500000D03*
D23*
X84050000Y-73970000D03*
D24*
X90350000Y-76250000D03*
D23*
X84050000Y-78530000D03*
D25*
X84500000Y-81250000D03*
X87425000Y-81250000D03*
D26*
X86500000Y-67850000D03*
X86500000Y-69750000D03*
D27*
X79525000Y-67800000D03*
X79525000Y-68450000D03*
X79525000Y-69100000D03*
X79525000Y-69750000D03*
X83750000Y-69750000D03*
X83750000Y-69100000D03*
X83750000Y-68450000D03*
X83750000Y-67800000D03*
D23*
X65700000Y-66280000D03*
D24*
X59400000Y-64000000D03*
D23*
X65700000Y-61720000D03*
D14*
X46000000Y-81000000D03*
X44100000Y-81000000D03*
D13*
X46000000Y-72400000D03*
X46000000Y-70500000D03*
D28*
X43000000Y-69600000D03*
X43000000Y-72400000D03*
D14*
X46000000Y-78000000D03*
X44100000Y-78000000D03*
X46000000Y-74500000D03*
X44100000Y-74500000D03*
D28*
X59500000Y-69500000D03*
X59500000Y-72300000D03*
D29*
X48650000Y-71775000D03*
X48650000Y-72425000D03*
X48650000Y-73075000D03*
X48650000Y-73725000D03*
X48650000Y-74375000D03*
X48650000Y-75025000D03*
X48650000Y-75675000D03*
X48650000Y-76325000D03*
X48650000Y-76975000D03*
X48650000Y-77625000D03*
X48650000Y-78275000D03*
X48650000Y-78925000D03*
X48650000Y-79575000D03*
X48650000Y-80225000D03*
X54350000Y-80225000D03*
X54350000Y-79575000D03*
X54350000Y-78925000D03*
X54350000Y-78275000D03*
X54350000Y-77625000D03*
X54350000Y-76975000D03*
X54350000Y-76325000D03*
X54350000Y-75675000D03*
X54350000Y-75025000D03*
X54350000Y-74375000D03*
X54350000Y-73725000D03*
X54350000Y-73075000D03*
X54350000Y-72425000D03*
X54350000Y-71775000D03*
D30*
X52100000Y-78313750D03*
X52100000Y-75228750D03*
X52100000Y-76771250D03*
X52100000Y-73686250D03*
X50900000Y-78313750D03*
X50900000Y-73686250D03*
X50900000Y-76771250D03*
X50900000Y-75228750D03*
D21*
X72500000Y-76250000D03*
D22*
X77500000Y-76250000D03*
D23*
X41200000Y-54245000D03*
D24*
X47500000Y-56525000D03*
D23*
X41200000Y-58805000D03*
D12*
X57000000Y-84500000D03*
X58900000Y-84500000D03*
D23*
X49500000Y-66780000D03*
D24*
X43200000Y-64500000D03*
D23*
X49500000Y-62220000D03*
D21*
X29500000Y-40000000D03*
D22*
X34500000Y-40000000D03*
D17*
X57087500Y-87000000D03*
X58912500Y-87000000D03*
D12*
X62500000Y-78000000D03*
X64400000Y-78000000D03*
D31*
X66500000Y-87000000D03*
X66500000Y-84460000D03*
X66500000Y-81920000D03*
D11*
X30500000Y-63000000D03*
X27550000Y-63000000D03*
D32*
X61000000Y-25670000D03*
D33*
X55925000Y-48355000D03*
X66075000Y-48355000D03*
D25*
X52075000Y-57000000D03*
X55000000Y-57000000D03*
D34*
X82400000Y-43425000D03*
X90600000Y-45575000D03*
D35*
X51500000Y-77500000D03*
X51500000Y-74500000D03*
X52500000Y-78500000D03*
D36*
X44911000Y-82250000D03*
D35*
X51500000Y-75500000D03*
D37*
X65500000Y-78000000D03*
D35*
X50500000Y-75500000D03*
D37*
X60000000Y-77000000D03*
D36*
X56000000Y-87000000D03*
D35*
X52500000Y-77500000D03*
D36*
X50500000Y-77500000D03*
D35*
X51500000Y-76500000D03*
X50500000Y-78500000D03*
D36*
X50500000Y-74500000D03*
D35*
X52500000Y-74500000D03*
X52500000Y-76500000D03*
D37*
X60000000Y-82000000D03*
D35*
X50500000Y-76500000D03*
X52500000Y-75500000D03*
D37*
X60000000Y-84500000D03*
D36*
X50500000Y-73500000D03*
D35*
X51500000Y-78500000D03*
X52500000Y-73500000D03*
D37*
X41500000Y-85000000D03*
D35*
X51500000Y-73500000D03*
D36*
X42500000Y-65500000D03*
X45500000Y-67000000D03*
X42500000Y-67000000D03*
X45500000Y-65500000D03*
X44000000Y-65500000D03*
X44000000Y-67000000D03*
X42500000Y-62500000D03*
X44000000Y-64000000D03*
X41000000Y-67000000D03*
X42500000Y-64000000D03*
X41000000Y-62500000D03*
X41000000Y-64000000D03*
X45500000Y-64000000D03*
X41000000Y-65500000D03*
X44000000Y-62500000D03*
X45500000Y-62500000D03*
X45000000Y-56000000D03*
X48000000Y-59000000D03*
D37*
X51500000Y-62500000D03*
D36*
X46500000Y-57500000D03*
X46500000Y-59000000D03*
X48000000Y-54500000D03*
X45000000Y-59000000D03*
D37*
X47500000Y-74601597D03*
D36*
X49500000Y-56000000D03*
X49500000Y-57500000D03*
D37*
X52151309Y-70651309D03*
D36*
X45000000Y-54500000D03*
X46500000Y-54500000D03*
X49500000Y-54500000D03*
X48000000Y-57500000D03*
X46500000Y-56000000D03*
X45000000Y-57500000D03*
X48000000Y-56000000D03*
D37*
X44500000Y-72500000D03*
X51500000Y-61500000D03*
D36*
X49500000Y-59000000D03*
X60000000Y-66500000D03*
X60000000Y-65000000D03*
X60000000Y-62000000D03*
X61500000Y-63500000D03*
X57000000Y-66500000D03*
X57000000Y-62000000D03*
X58000000Y-71589000D03*
X60000000Y-63500000D03*
X58500000Y-63500000D03*
X57000000Y-65000000D03*
X58500000Y-65000000D03*
X58500000Y-66500000D03*
X58500000Y-62000000D03*
X61500000Y-62000000D03*
X61500000Y-65000000D03*
X57000000Y-63500000D03*
X61500000Y-66500000D03*
D37*
X58350678Y-72884282D03*
X56000000Y-75500000D03*
X43000000Y-73500000D03*
X46000000Y-77000000D03*
X45000000Y-87000000D03*
D36*
X68500000Y-57000000D03*
X73000000Y-55500000D03*
X68500000Y-55500000D03*
X70000000Y-57000000D03*
X71500000Y-55500000D03*
X70000000Y-58500000D03*
X68500000Y-54000000D03*
X70000000Y-54000000D03*
X73000000Y-58500000D03*
X71500000Y-58500000D03*
X73000000Y-57000000D03*
X71500000Y-54000000D03*
X71500000Y-57000000D03*
X70000000Y-55500000D03*
X68500000Y-58500000D03*
X73000000Y-54000000D03*
D37*
X51500000Y-87500000D03*
X51500000Y-82000000D03*
D36*
X54000000Y-87000000D03*
X52864664Y-88635336D03*
D37*
X47500000Y-73614197D03*
X49500000Y-68000000D03*
X49500000Y-69000000D03*
D36*
X68000000Y-67500000D03*
X55641726Y-73666214D03*
X68000000Y-68500000D03*
X70000000Y-88000000D03*
X30000000Y-62500000D03*
X79000000Y-54000000D03*
X65000000Y-61500000D03*
D37*
X44000000Y-75000000D03*
D36*
X75500000Y-67500000D03*
X32500000Y-62500000D03*
X42000000Y-58500000D03*
X79000000Y-59000000D03*
X75500000Y-63500000D03*
X80000000Y-55000000D03*
X79000000Y-58000000D03*
X40000000Y-59500000D03*
X30000000Y-63500000D03*
D37*
X44000000Y-77500000D03*
D36*
X30000000Y-66500000D03*
X80000000Y-59000000D03*
X67000000Y-62500000D03*
X42000000Y-59500000D03*
X41000000Y-58500000D03*
X80000000Y-54000000D03*
X65000000Y-62500000D03*
X79000000Y-55000000D03*
X32500000Y-63500000D03*
X33500000Y-62500000D03*
X76500000Y-67500000D03*
D37*
X44000000Y-78500000D03*
D36*
X40000000Y-58500000D03*
X31000000Y-63500000D03*
D37*
X59000000Y-75000000D03*
X59000000Y-74000000D03*
D36*
X33500000Y-67500000D03*
X76500000Y-66500000D03*
X76500000Y-62500000D03*
X41000000Y-59500000D03*
D37*
X44000000Y-74000000D03*
D36*
X76500000Y-63500000D03*
X32500000Y-66500000D03*
X32500000Y-67500000D03*
X75500000Y-62500000D03*
X33500000Y-63500000D03*
X33500000Y-66500000D03*
X31000000Y-67500000D03*
X31000000Y-66500000D03*
X67000000Y-61500000D03*
X66000000Y-62500000D03*
X30000000Y-67500000D03*
D37*
X82307400Y-68275000D03*
D36*
X31000000Y-62500000D03*
X66000000Y-61500000D03*
X75500000Y-66500000D03*
X80000000Y-58000000D03*
D38*
X58900000Y-84500000D02*
X60000000Y-84500000D01*
X44100000Y-81000000D02*
X44100000Y-81439000D01*
X42175000Y-85675000D02*
X41500000Y-85000000D01*
X58825000Y-77000000D02*
X60000000Y-77000000D01*
X64400000Y-78000000D02*
X65500000Y-78000000D01*
X44100000Y-81439000D02*
X44911000Y-82250000D01*
D39*
X48650000Y-77625000D02*
X50375000Y-77625000D01*
D38*
X57087500Y-87000000D02*
X56000000Y-87000000D01*
D39*
X50375000Y-77625000D02*
X50500000Y-77500000D01*
D38*
X42175000Y-86000000D02*
X42175000Y-85675000D01*
X58900000Y-82000000D02*
X60000000Y-82000000D01*
D40*
X43200000Y-64500000D02*
X43200000Y-63300000D01*
X43200000Y-66300000D02*
X42500000Y-67000000D01*
X42000000Y-77000000D02*
X42000000Y-83325000D01*
X42000000Y-64500000D02*
X41000000Y-65500000D01*
X46000000Y-75500000D02*
X45500000Y-76000000D01*
X43200000Y-64800000D02*
X41000000Y-67000000D01*
X45000000Y-64500000D02*
X45500000Y-64000000D01*
D39*
X46175000Y-75675000D02*
X46000000Y-75500000D01*
D40*
X45500000Y-76000000D02*
X43000000Y-76000000D01*
X43200000Y-64500000D02*
X45000000Y-64500000D01*
X43200000Y-64500000D02*
X42000000Y-64500000D01*
X43200000Y-64500000D02*
X44500000Y-64500000D01*
X43200000Y-64500000D02*
X43200000Y-66300000D01*
X43200000Y-64700000D02*
X44000000Y-65500000D01*
X43200000Y-64800000D02*
X42500000Y-65500000D01*
X44500000Y-64500000D02*
X45500000Y-65500000D01*
X42500000Y-64000000D02*
X41000000Y-62500000D01*
X46000000Y-74500000D02*
X46000000Y-75500000D01*
X43200000Y-64500000D02*
X43200000Y-66200000D01*
X43200000Y-66200000D02*
X44000000Y-67000000D01*
X43000000Y-64500000D02*
X42500000Y-64000000D01*
X43200000Y-64500000D02*
X43500000Y-64500000D01*
X43200000Y-63300000D02*
X44000000Y-62500000D01*
X41500000Y-64500000D02*
X41000000Y-64000000D01*
X42000000Y-83325000D02*
X42175000Y-83500000D01*
X42175000Y-83500000D02*
X40000000Y-83500000D01*
X43200000Y-64500000D02*
X41500000Y-64500000D01*
X43500000Y-64500000D02*
X44000000Y-64000000D01*
X43200000Y-64700000D02*
X45500000Y-67000000D01*
D39*
X48650000Y-75675000D02*
X46175000Y-75675000D01*
D40*
X43200000Y-63200000D02*
X42500000Y-62500000D01*
X43000000Y-76000000D02*
X42000000Y-77000000D01*
X44000000Y-64000000D02*
X45500000Y-62500000D01*
X43200000Y-64500000D02*
X43200000Y-63200000D01*
X43200000Y-64500000D02*
X43000000Y-64500000D01*
X43200000Y-64500000D02*
X43200000Y-64800000D01*
X43200000Y-64500000D02*
X43200000Y-64700000D01*
D39*
X86450000Y-67800000D02*
X86500000Y-67850000D01*
X83750000Y-67800000D02*
X86450000Y-67800000D01*
X46425000Y-79575000D02*
X46000000Y-80000000D01*
X47725000Y-78275000D02*
X47575000Y-78425000D01*
X47575000Y-78925000D02*
X47575000Y-79575000D01*
X48650000Y-79575000D02*
X47575000Y-79575000D01*
X47575000Y-78425000D02*
X47575000Y-78925000D01*
X48650000Y-78275000D02*
X47725000Y-78275000D01*
X46000000Y-81000000D02*
X46000000Y-80000000D01*
X48650000Y-78925000D02*
X47575000Y-78925000D01*
X47575000Y-79575000D02*
X46425000Y-79575000D01*
X47500000Y-71000000D02*
X47500000Y-72000000D01*
D40*
X43900000Y-70500000D02*
X43000000Y-69600000D01*
D39*
X47925000Y-72425000D02*
X48650000Y-72425000D01*
X46000000Y-70500000D02*
X47000000Y-70500000D01*
X47500000Y-72000000D02*
X47925000Y-72425000D01*
D40*
X46000000Y-70500000D02*
X43900000Y-70500000D01*
D39*
X47000000Y-70500000D02*
X47500000Y-71000000D01*
X53295990Y-69811944D02*
X53295990Y-57295990D01*
X47821553Y-72944296D02*
X47444296Y-72944296D01*
D41*
X49500000Y-62220000D02*
X50220000Y-62220000D01*
D39*
X48650000Y-74375000D02*
X47726597Y-74375000D01*
X53000000Y-57000000D02*
X52075000Y-57000000D01*
D40*
X46000000Y-72400000D02*
X44600000Y-72400000D01*
D39*
X47444296Y-72944296D02*
X46900000Y-72400000D01*
X48650000Y-73075000D02*
X47952257Y-73075000D01*
X46900000Y-72400000D02*
X46000000Y-72400000D01*
X47952257Y-73075000D02*
X47821553Y-72944296D01*
D40*
X49500000Y-62220000D02*
X51220000Y-62220000D01*
D39*
X53295990Y-57295990D02*
X53000000Y-57000000D01*
X52248651Y-70553967D02*
X52151309Y-70651309D01*
D40*
X51220000Y-62220000D02*
X51500000Y-62500000D01*
D39*
X47726597Y-74375000D02*
X47500000Y-74601597D01*
D40*
X44600000Y-72400000D02*
X44500000Y-72500000D01*
D39*
X52553967Y-70553967D02*
X52248651Y-70553967D01*
X52553967Y-70553967D02*
X53295990Y-69811944D01*
X55500000Y-83000000D02*
X57000000Y-84500000D01*
X55500000Y-78621000D02*
X55500000Y-83000000D01*
X54350000Y-78275000D02*
X55154000Y-78275000D01*
X55154000Y-78275000D02*
X55500000Y-78621000D01*
D38*
X61500000Y-78000000D02*
X60000000Y-79500000D01*
X60000000Y-79500000D02*
X58825000Y-79500000D01*
X62500000Y-78000000D02*
X61500000Y-78000000D01*
D39*
X55446482Y-76975000D02*
X54350000Y-76975000D01*
D38*
X57000000Y-79500000D02*
X57000000Y-82000000D01*
D39*
X57000000Y-79500000D02*
X57000000Y-78528518D01*
X57000000Y-78528518D02*
X55446482Y-76975000D01*
X55154000Y-72425000D02*
X57000000Y-70579000D01*
D40*
X57000000Y-70500000D02*
X58500000Y-70500000D01*
X58500000Y-70500000D02*
X59500000Y-69500000D01*
D39*
X54350000Y-72425000D02*
X55154000Y-72425000D01*
X57000000Y-70579000D02*
X57000000Y-70500000D01*
D40*
X57500000Y-64000000D02*
X57000000Y-63500000D01*
X59400000Y-64100000D02*
X58500000Y-65000000D01*
X59400000Y-65900000D02*
X60000000Y-66500000D01*
D39*
X55146067Y-73074999D02*
X55821066Y-72400000D01*
D40*
X60500000Y-64000000D02*
X61500000Y-65000000D01*
D39*
X55821066Y-72400000D02*
X57000000Y-72400000D01*
D40*
X59400000Y-64000000D02*
X59400000Y-62600000D01*
X59400000Y-64000000D02*
X59400000Y-65600000D01*
X59400000Y-65600000D02*
X58500000Y-66500000D01*
X59400000Y-64000000D02*
X59400000Y-64100000D01*
X59400000Y-64000000D02*
X59000000Y-64000000D01*
X58500000Y-63500000D02*
X57000000Y-62000000D01*
X59400000Y-64000000D02*
X59500000Y-64000000D01*
X59400000Y-64400000D02*
X60000000Y-65000000D01*
X60000000Y-63500000D02*
X61500000Y-62000000D01*
X59400000Y-62900000D02*
X58500000Y-62000000D01*
X59500000Y-64000000D02*
X60000000Y-63500000D01*
X59400000Y-62600000D02*
X60000000Y-62000000D01*
D39*
X54350000Y-73075000D02*
X55146067Y-73074999D01*
D40*
X59400000Y-64000000D02*
X59400000Y-65900000D01*
X59400000Y-64000000D02*
X59400000Y-64400000D01*
X59400000Y-64000000D02*
X61000000Y-64000000D01*
X59400000Y-64000000D02*
X59400000Y-62900000D01*
X59400000Y-64100000D02*
X57000000Y-66500000D01*
X61000000Y-64000000D02*
X61500000Y-63500000D01*
X59400000Y-64000000D02*
X58000000Y-64000000D01*
X59400000Y-64000000D02*
X57500000Y-64000000D01*
X58000000Y-64000000D02*
X57000000Y-65000000D01*
X59400000Y-64400000D02*
X61500000Y-66500000D01*
X59400000Y-64000000D02*
X60500000Y-64000000D01*
X57189000Y-72400000D02*
X58000000Y-71589000D01*
X59000000Y-64000000D02*
X58500000Y-63500000D01*
X57000000Y-72400000D02*
X57189000Y-72400000D01*
X46000000Y-78000000D02*
X46000000Y-77000000D01*
X58350678Y-72884282D02*
X58915718Y-72884282D01*
D38*
X45000000Y-87000000D02*
X44654010Y-87345990D01*
D39*
X48650000Y-76325000D02*
X47532933Y-76325000D01*
X54350000Y-75675000D02*
X55825000Y-75675000D01*
X47532933Y-76325000D02*
X46000000Y-77857933D01*
X46000000Y-77857933D02*
X46000000Y-78000000D01*
D40*
X43000000Y-73500000D02*
X43000000Y-72400000D01*
D38*
X43329010Y-87345990D02*
X42175000Y-88500000D01*
X44654010Y-87345990D02*
X43329010Y-87345990D01*
D40*
X58915718Y-72884282D02*
X59500000Y-72300000D01*
D39*
X55825000Y-75675000D02*
X56000000Y-75500000D01*
X72500000Y-84500000D02*
X72750000Y-84750000D01*
X55250000Y-74500000D02*
X55187715Y-74437715D01*
X55125000Y-74375000D02*
X55187715Y-74437715D01*
X72750000Y-85250000D02*
X72750000Y-85750000D01*
X54350000Y-74375000D02*
X55125000Y-74375000D01*
X72750000Y-85750000D02*
X72500000Y-86000000D01*
D38*
X59703099Y-75796901D02*
X60000000Y-75500000D01*
X51500000Y-86000000D02*
X50325000Y-86000000D01*
D39*
X54350000Y-75025000D02*
X55150430Y-75025000D01*
X57000000Y-74500000D02*
X55250000Y-74500000D01*
D40*
X72500000Y-75500000D02*
X60000000Y-75500000D01*
D39*
X55187715Y-74437715D02*
X55187715Y-74987715D01*
X72750000Y-84750000D02*
X72750000Y-85250000D01*
D38*
X72000000Y-86500000D02*
X72500000Y-86000000D01*
D39*
X71537500Y-84500000D02*
X72500000Y-84500000D01*
D38*
X53958010Y-88458010D02*
X68041990Y-88458010D01*
X58296901Y-75796901D02*
X59703099Y-75796901D01*
D39*
X55150430Y-75025000D02*
X55187715Y-74987715D01*
D38*
X68500000Y-88000000D02*
X70000000Y-86500000D01*
X68041990Y-88458010D02*
X68500000Y-88000000D01*
X72203099Y-75796901D02*
X72500000Y-75500000D01*
X57000000Y-74500000D02*
X58296901Y-75796901D01*
X72500000Y-75500000D02*
X72500000Y-76750000D01*
X53958010Y-88458010D02*
X51500000Y-86000000D01*
X70000000Y-86500000D02*
X72000000Y-86500000D01*
X48500000Y-83500000D02*
X48500000Y-86000000D01*
D39*
X48650000Y-83350000D02*
X48500000Y-83500000D01*
X48650000Y-80225000D02*
X48650000Y-83350000D01*
X52500000Y-82500000D02*
X52500000Y-83500000D01*
X52500000Y-82500000D02*
X54350000Y-80650000D01*
D38*
X50400000Y-83500000D02*
X52500000Y-83500000D01*
D39*
X54350000Y-80650000D02*
X54350000Y-80225000D01*
D38*
X48500000Y-88500000D02*
X44000000Y-88500000D01*
D39*
X53546000Y-78925000D02*
X51500000Y-80971000D01*
D38*
X51500000Y-87500000D02*
X51375000Y-87500000D01*
D39*
X51500000Y-80971000D02*
X51500000Y-82000000D01*
D38*
X51375000Y-87500000D02*
X50375000Y-88500000D01*
D39*
X54350000Y-78925000D02*
X53546000Y-78925000D01*
X73500000Y-84500000D02*
X73204010Y-84795990D01*
X85250000Y-72500000D02*
X86000000Y-73250000D01*
X81112500Y-69750000D02*
X81137500Y-69775000D01*
X80812500Y-68450000D02*
X81137500Y-68775000D01*
X81137500Y-69775000D02*
X81137500Y-72887500D01*
X85720000Y-78530000D02*
X84050000Y-78530000D01*
X81137500Y-72887500D02*
X82250000Y-74000000D01*
X81137500Y-68775000D02*
X81137500Y-69775000D01*
D38*
X54325000Y-86675000D02*
X54000000Y-87000000D01*
D39*
X86000000Y-78250000D02*
X85720000Y-78530000D01*
D38*
X71750000Y-89250000D02*
X60500000Y-89250000D01*
X60500000Y-89250000D02*
X53664743Y-89250000D01*
D39*
X84900000Y-69750000D02*
X85250000Y-70100000D01*
X83750000Y-69750000D02*
X84900000Y-69750000D01*
X85250000Y-70100000D02*
X85250000Y-72500000D01*
D38*
X53664743Y-89250000D02*
X53050079Y-88635336D01*
D39*
X79525000Y-68450000D02*
X80812500Y-68450000D01*
X74462500Y-84500000D02*
X73500000Y-84500000D01*
D38*
X54325000Y-83500000D02*
X54325000Y-86675000D01*
X72825000Y-88175000D02*
X71750000Y-89250000D01*
D39*
X82250000Y-76730000D02*
X84050000Y-78530000D01*
X86000000Y-73250000D02*
X86000000Y-78250000D01*
X79525000Y-69750000D02*
X81112500Y-69750000D01*
X73204010Y-84795990D02*
X73204010Y-87620990D01*
X82250000Y-74000000D02*
X82250000Y-76730000D01*
X73204010Y-87620990D02*
X72825000Y-88000000D01*
D38*
X53050079Y-88635336D02*
X52864664Y-88635336D01*
X72825000Y-88000000D02*
X72825000Y-88175000D01*
D39*
X49728499Y-72897899D02*
X49728499Y-74771501D01*
X49728499Y-72897899D02*
X50126398Y-72500000D01*
X53750000Y-57250000D02*
X54000000Y-57000000D01*
X49728499Y-74771501D02*
X49475000Y-75025000D01*
X50126398Y-72500000D02*
X51250000Y-72500000D01*
X51250000Y-72500000D02*
X53750000Y-70000000D01*
X49475000Y-75025000D02*
X48650000Y-75025000D01*
X53750000Y-70000000D02*
X53750000Y-57250000D01*
X54000000Y-57000000D02*
X55000000Y-57000000D01*
X81637500Y-70887500D02*
X82750000Y-72000000D01*
X84050000Y-72300000D02*
X84050000Y-73970000D01*
X81637500Y-68275000D02*
X81637500Y-70887500D01*
X82750000Y-72000000D02*
X83750000Y-72000000D01*
X81162500Y-67800000D02*
X81637500Y-68275000D01*
X83750000Y-72000000D02*
X84050000Y-72300000D01*
X79525000Y-67800000D02*
X81162500Y-67800000D01*
X48650000Y-73725000D02*
X47610803Y-73725000D01*
D40*
X49500000Y-68000000D02*
X49500000Y-66780000D01*
D39*
X47610803Y-73725000D02*
X47500000Y-73614197D01*
D40*
X49500000Y-69000000D02*
X49500000Y-68000000D01*
X47000000Y-61039898D02*
X47500000Y-61539898D01*
X46500000Y-60500000D02*
X47000000Y-61000000D01*
X43089010Y-60089010D02*
X43500000Y-60500000D01*
D39*
X48650000Y-71775000D02*
X48650000Y-70650000D01*
D40*
X47500000Y-69000000D02*
X47500000Y-69500000D01*
X47000000Y-61000000D02*
X47000000Y-61039898D01*
X47500000Y-61539898D02*
X47500000Y-69000000D01*
X47500000Y-69500000D02*
X48500000Y-70500000D01*
D39*
X48650000Y-70650000D02*
X48500000Y-70500000D01*
D40*
X41200000Y-54245000D02*
X43089010Y-56134010D01*
X43500000Y-60500000D02*
X46500000Y-60500000D01*
X43089010Y-56134010D02*
X43089010Y-60089010D01*
X63980000Y-68000000D02*
X57000000Y-68000000D01*
X57000000Y-68000000D02*
X54500000Y-70500000D01*
D39*
X54350000Y-70650000D02*
X54500000Y-70500000D01*
X54350000Y-71775000D02*
X54350000Y-70650000D01*
D40*
X65700000Y-66280000D02*
X63980000Y-68000000D01*
X67000000Y-54500000D02*
X67000000Y-59500000D01*
X68089010Y-67410990D02*
X68000000Y-67500000D01*
D39*
X55582940Y-73725000D02*
X55641726Y-73666214D01*
D40*
X66220000Y-53720000D02*
X67000000Y-54500000D01*
X67000000Y-59500000D02*
X68089010Y-60589010D01*
X68000000Y-67500000D02*
X68000000Y-68500000D01*
D39*
X54350000Y-73725000D02*
X55582940Y-73725000D01*
D40*
X68089010Y-60589010D02*
X68089010Y-67410990D01*
X64875000Y-53720000D02*
X66220000Y-53720000D01*
D39*
X43000000Y-79750000D02*
X43000000Y-82250000D01*
X47000000Y-77499999D02*
X47000000Y-79000000D01*
D38*
X44000000Y-86000000D02*
X44000000Y-83500000D01*
D39*
X46879010Y-79120990D02*
X46236943Y-79120990D01*
X46236943Y-79120990D02*
X45970990Y-79386943D01*
X47000000Y-79000000D02*
X46879010Y-79120990D01*
X43363057Y-79386943D02*
X43000000Y-79750000D01*
X44000000Y-83500000D02*
X44000000Y-83250000D01*
X48650000Y-76975000D02*
X47525000Y-76975000D01*
X47525000Y-76975000D02*
X47000000Y-77499999D01*
X45970990Y-79386943D02*
X43363057Y-79386943D01*
X44000000Y-83250000D02*
X43000000Y-82250000D01*
X57000000Y-77000000D02*
X56113548Y-77000000D01*
X56113548Y-77000000D02*
X55438548Y-76325000D01*
X55438548Y-76325000D02*
X54350000Y-76325000D01*
D38*
X70000000Y-88000000D02*
X71000000Y-88000000D01*
D39*
X56510992Y-83052010D02*
X57093028Y-83052010D01*
X54350000Y-77625000D02*
X55146065Y-77625000D01*
X57093028Y-83052010D02*
X58072990Y-84031972D01*
X58072990Y-86160490D02*
X58912500Y-87000000D01*
X58072990Y-84031972D02*
X58072990Y-86160490D01*
X55146065Y-77625000D02*
X56000000Y-78478935D01*
X56000000Y-82541018D02*
X56510992Y-83052010D01*
X56000000Y-78478935D02*
X56000000Y-82541018D01*
D38*
X66500000Y-87000000D02*
X58912500Y-87000000D01*
D40*
X67000000Y-61500000D02*
X66000000Y-61500000D01*
X42000000Y-59500000D02*
X40000000Y-59500000D01*
D39*
X82307400Y-68469900D02*
X82307400Y-68275000D01*
D40*
X76000000Y-63000000D02*
X76500000Y-62500000D01*
X75500000Y-66500000D02*
X76500000Y-66500000D01*
X30000000Y-63500000D02*
X33500000Y-63500000D01*
X30000000Y-62500000D02*
X33500000Y-62500000D01*
X76000000Y-63000000D02*
X76500000Y-63500000D01*
X67000000Y-61500000D02*
X67000000Y-62500000D01*
X75950000Y-63000000D02*
X75950000Y-63050000D01*
D39*
X85250000Y-69100000D02*
X85900000Y-69750000D01*
D40*
X76500000Y-67500000D02*
X75500000Y-67500000D01*
X42000000Y-59500000D02*
X42000000Y-58500000D01*
X30450000Y-67000000D02*
X32000000Y-67000000D01*
X75950000Y-63000000D02*
X76000000Y-63000000D01*
X76500000Y-66500000D02*
X76500000Y-67500000D01*
X79000000Y-54000000D02*
X80000000Y-54000000D01*
D39*
X82937500Y-69100000D02*
X82307400Y-68469900D01*
D40*
X79450000Y-54550000D02*
X79000000Y-55000000D01*
X67000000Y-62500000D02*
X66000000Y-62500000D01*
X80000000Y-54000000D02*
X80000000Y-55000000D01*
X79450000Y-54500000D02*
X79450000Y-54450000D01*
X79450000Y-54500000D02*
X79450000Y-54550000D01*
X30000000Y-67500000D02*
X30000000Y-66500000D01*
X79450000Y-54450000D02*
X79000000Y-54000000D01*
X66000000Y-62500000D02*
X65000000Y-62500000D01*
X33500000Y-63500000D02*
X33500000Y-62500000D01*
X75500000Y-62500000D02*
X76500000Y-62500000D01*
D39*
X83750000Y-69100000D02*
X82937500Y-69100000D01*
X83750000Y-69100000D02*
X85250000Y-69100000D01*
D40*
X79450000Y-58550000D02*
X79000000Y-59000000D01*
X66000000Y-61500000D02*
X65000000Y-61500000D01*
X32000000Y-67000000D02*
X32500000Y-67500000D01*
X33500000Y-66500000D02*
X33500000Y-67500000D01*
X79000000Y-58000000D02*
X80000000Y-58000000D01*
X33500000Y-67500000D02*
X30000000Y-67500000D01*
X31000000Y-62500000D02*
X31500000Y-62500000D01*
X31000000Y-63500000D02*
X31500000Y-63000000D01*
X31500000Y-63000000D02*
X31500000Y-62500000D01*
X40000000Y-58500000D02*
X42000000Y-58500000D01*
X79000000Y-55000000D02*
X80000000Y-55000000D01*
X79450000Y-58500000D02*
X79450000Y-58550000D01*
X75500000Y-67500000D02*
X75500000Y-66500000D01*
X80000000Y-58000000D02*
X80000000Y-59000000D01*
D39*
X85900000Y-69750000D02*
X86500000Y-69750000D01*
D40*
X76500000Y-62500000D02*
X76500000Y-63500000D01*
X79450000Y-54500000D02*
X79500000Y-54500000D01*
X31500000Y-62500000D02*
X32500000Y-63500000D01*
X79000000Y-54000000D02*
X79000000Y-55000000D01*
X40000000Y-59500000D02*
X40000000Y-58500000D01*
X75500000Y-62500000D02*
X75500000Y-63500000D01*
X79000000Y-59000000D02*
X80000000Y-59000000D01*
X30000000Y-66500000D02*
X33500000Y-66500000D01*
X79500000Y-54500000D02*
X80000000Y-54000000D01*
X75950000Y-63050000D02*
X75500000Y-63500000D01*
X65000000Y-62500000D02*
X65000000Y-61500000D01*
X30000000Y-63500000D02*
X30000000Y-62500000D01*
X79000000Y-59000000D02*
X79000000Y-58000000D01*
X75500000Y-63500000D02*
X76500000Y-63500000D01*
G04 #@! TA.AperFunction,Conductor*
G36*
X84692121Y-20528502D02*
G01*
X84738614Y-20582158D01*
X84750000Y-20634500D01*
X84750000Y-39624000D01*
X84729998Y-39692121D01*
X84676342Y-39738614D01*
X84624000Y-39750000D01*
X79250000Y-39750000D01*
X79250000Y-49250000D01*
X82232283Y-52002876D01*
X82459463Y-52212581D01*
X82495952Y-52273483D01*
X82500000Y-52305166D01*
X82500000Y-67382489D01*
X82490409Y-67430707D01*
X82450413Y-67527267D01*
X82444662Y-67541150D01*
X82429000Y-67660115D01*
X82429000Y-67664237D01*
X82429001Y-67896434D01*
X82408999Y-67964555D01*
X82355344Y-68011048D01*
X82285070Y-68021153D01*
X82220489Y-67991660D01*
X82199615Y-67965835D01*
X82198820Y-67966413D01*
X82172733Y-67930507D01*
X82166216Y-67920585D01*
X82147672Y-67889228D01*
X82147670Y-67889225D01*
X82143634Y-67882401D01*
X82129247Y-67868014D01*
X82116406Y-67852980D01*
X82109102Y-67842927D01*
X82104442Y-67836513D01*
X82097313Y-67830615D01*
X82070251Y-67808228D01*
X82061471Y-67800238D01*
X81667750Y-67406517D01*
X81660174Y-67398191D01*
X81656053Y-67391697D01*
X81606234Y-67344914D01*
X81603393Y-67342160D01*
X81583594Y-67322361D01*
X81580469Y-67319937D01*
X81580460Y-67319929D01*
X81580374Y-67319863D01*
X81571349Y-67312155D01*
X81544785Y-67287210D01*
X81539006Y-67281783D01*
X81521169Y-67271977D01*
X81504653Y-67261127D01*
X81488567Y-67248650D01*
X81447834Y-67231024D01*
X81437186Y-67225807D01*
X81425558Y-67219415D01*
X81398303Y-67204431D01*
X81390628Y-67202460D01*
X81390622Y-67202458D01*
X81378589Y-67199369D01*
X81359887Y-67192966D01*
X81341208Y-67184883D01*
X81307372Y-67179524D01*
X81297373Y-67177940D01*
X81285760Y-67175535D01*
X81242782Y-67164500D01*
X81222435Y-67164500D01*
X81202724Y-67162949D01*
X81190450Y-67161005D01*
X81182621Y-67159765D01*
X81174729Y-67160511D01*
X81138444Y-67163941D01*
X81126586Y-67164500D01*
X80559839Y-67164500D01*
X80511621Y-67154909D01*
X80403979Y-67110322D01*
X80396350Y-67107162D01*
X80388162Y-67106084D01*
X80281472Y-67092038D01*
X80281471Y-67092038D01*
X80277385Y-67091500D01*
X79525092Y-67091500D01*
X78772616Y-67091501D01*
X78768531Y-67092039D01*
X78768527Y-67092039D01*
X78661837Y-67106084D01*
X78661835Y-67106084D01*
X78653650Y-67107162D01*
X78579637Y-67137819D01*
X78513252Y-67165316D01*
X78513250Y-67165317D01*
X78505624Y-67168476D01*
X78499074Y-67173502D01*
X78401141Y-67248650D01*
X78378513Y-67266013D01*
X78373487Y-67272563D01*
X78373484Y-67272566D01*
X78336595Y-67320641D01*
X78280976Y-67393125D01*
X78219662Y-67541150D01*
X78204000Y-67660115D01*
X78204001Y-67939884D01*
X78204539Y-67943969D01*
X78204539Y-67943973D01*
X78214699Y-68021153D01*
X78219662Y-68058850D01*
X78227089Y-68076780D01*
X78234679Y-68147370D01*
X78227090Y-68173218D01*
X78219662Y-68191150D01*
X78218584Y-68199338D01*
X78212115Y-68248479D01*
X78204000Y-68310115D01*
X78204001Y-68589884D01*
X78204539Y-68593969D01*
X78204539Y-68593973D01*
X78212843Y-68657052D01*
X78219662Y-68708850D01*
X78222822Y-68716478D01*
X78227089Y-68726780D01*
X78234679Y-68797370D01*
X78227090Y-68823218D01*
X78219662Y-68841150D01*
X78204000Y-68960115D01*
X78204001Y-69239884D01*
X78204539Y-69243969D01*
X78204539Y-69243973D01*
X78216136Y-69332067D01*
X78219662Y-69358850D01*
X78227089Y-69376780D01*
X78234679Y-69447370D01*
X78227090Y-69473218D01*
X78219662Y-69491150D01*
X78204000Y-69610115D01*
X78204001Y-69889884D01*
X78204539Y-69893969D01*
X78204539Y-69893973D01*
X78218470Y-69999795D01*
X78219662Y-70008850D01*
X78222822Y-70016478D01*
X78277346Y-70148112D01*
X78280976Y-70156876D01*
X78378513Y-70283987D01*
X78385063Y-70289013D01*
X78385066Y-70289016D01*
X78395087Y-70296705D01*
X78505625Y-70381524D01*
X78653650Y-70442838D01*
X78661838Y-70443916D01*
X78768521Y-70457961D01*
X78772615Y-70458500D01*
X79524908Y-70458500D01*
X80277384Y-70458499D01*
X80281468Y-70457961D01*
X80281474Y-70457961D01*
X80359555Y-70447682D01*
X80429704Y-70458622D01*
X80482802Y-70505751D01*
X80502000Y-70572604D01*
X80502000Y-72808480D01*
X80501470Y-72819714D01*
X80499792Y-72827219D01*
X80501920Y-72894929D01*
X80501938Y-72895512D01*
X80502000Y-72899469D01*
X80502000Y-72927483D01*
X80502496Y-72931408D01*
X80502496Y-72931409D01*
X80502508Y-72931504D01*
X80503441Y-72943349D01*
X80504835Y-72987705D01*
X80507047Y-72995317D01*
X80510513Y-73007248D01*
X80514523Y-73026612D01*
X80517073Y-73046799D01*
X80519989Y-73054163D01*
X80519990Y-73054168D01*
X80533407Y-73088056D01*
X80537252Y-73099285D01*
X80549631Y-73141893D01*
X80553669Y-73148720D01*
X80553670Y-73148723D01*
X80559988Y-73159406D01*
X80568688Y-73177164D01*
X80573261Y-73188715D01*
X80573265Y-73188721D01*
X80576181Y-73196088D01*
X80580839Y-73202499D01*
X80580840Y-73202501D01*
X80602264Y-73231988D01*
X80608781Y-73241910D01*
X80627326Y-73273268D01*
X80627329Y-73273272D01*
X80631366Y-73280098D01*
X80645750Y-73294482D01*
X80658591Y-73309516D01*
X80670558Y-73325987D01*
X80701694Y-73351745D01*
X80704750Y-73354273D01*
X80713531Y-73362263D01*
X81136172Y-73784905D01*
X81170197Y-73847217D01*
X81165132Y-73918033D01*
X81122585Y-73974868D01*
X81056065Y-73999679D01*
X81047076Y-74000000D01*
X76126000Y-74000000D01*
X76057879Y-73979998D01*
X76011386Y-73926342D01*
X76000000Y-73874000D01*
X76000000Y-62052190D01*
X76020002Y-61984069D01*
X76036905Y-61963095D01*
X78500000Y-59500000D01*
X78500000Y-52000000D01*
X71126000Y-52000000D01*
X71057879Y-51979998D01*
X71011386Y-51926342D01*
X71000000Y-51874000D01*
X71000000Y-44000000D01*
X51500000Y-44000000D01*
X51500000Y-51874000D01*
X51479998Y-51942121D01*
X51426342Y-51988614D01*
X51374000Y-52000000D01*
X40626000Y-52000000D01*
X40557879Y-51979998D01*
X40511386Y-51926342D01*
X40500000Y-51874000D01*
X40500000Y-28968134D01*
X57316500Y-28968134D01*
X57323255Y-29030316D01*
X57374385Y-29166705D01*
X57461739Y-29283261D01*
X57578295Y-29370615D01*
X57714684Y-29421745D01*
X57776866Y-29428500D01*
X64223134Y-29428500D01*
X64285316Y-29421745D01*
X64421705Y-29370615D01*
X64538261Y-29283261D01*
X64625615Y-29166705D01*
X64676745Y-29030316D01*
X64683500Y-28968134D01*
X64683500Y-22371866D01*
X64676745Y-22309684D01*
X64625615Y-22173295D01*
X64538261Y-22056739D01*
X64421705Y-21969385D01*
X64285316Y-21918255D01*
X64223134Y-21911500D01*
X57776866Y-21911500D01*
X57714684Y-21918255D01*
X57578295Y-21969385D01*
X57461739Y-22056739D01*
X57374385Y-22173295D01*
X57323255Y-22309684D01*
X57316500Y-22371866D01*
X57316500Y-28968134D01*
X40500000Y-28968134D01*
X40500000Y-27626000D01*
X40520002Y-27557879D01*
X40573658Y-27511386D01*
X40626000Y-27500000D01*
X43500000Y-27500000D01*
X45500000Y-25500000D01*
X45500000Y-20634500D01*
X45520002Y-20566379D01*
X45573658Y-20519886D01*
X45626000Y-20508500D01*
X84624000Y-20508500D01*
X84692121Y-20528502D01*
G37*
G04 #@! TD.AperFunction*
G04 #@! TA.AperFunction,Conductor*
G36*
X87442121Y-41020002D02*
G01*
X87488614Y-41073658D01*
X87500000Y-41126000D01*
X87500000Y-46500000D01*
X88500000Y-47500000D01*
X91874000Y-47500000D01*
X91942121Y-47520002D01*
X91988614Y-47573658D01*
X92000000Y-47626000D01*
X92000000Y-57750000D01*
X98250000Y-64000000D01*
X104365500Y-64000000D01*
X104433621Y-64020002D01*
X104480114Y-64073658D01*
X104491500Y-64126000D01*
X104491500Y-69737182D01*
X104471498Y-69805303D01*
X104454595Y-69826277D01*
X94642373Y-79638500D01*
X88709064Y-85571809D01*
X88646752Y-85605835D01*
X88575937Y-85600770D01*
X88519101Y-85558223D01*
X88498502Y-85502995D01*
X88497916Y-85502084D01*
X88500000Y-85500000D01*
X86536905Y-83536905D01*
X86502879Y-83474593D01*
X86500000Y-83447810D01*
X86500000Y-78690830D01*
X86518793Y-78626825D01*
X86518216Y-78626508D01*
X86519655Y-78623890D01*
X86528023Y-78608669D01*
X86538873Y-78592153D01*
X86551350Y-78576067D01*
X86568976Y-78535334D01*
X86574193Y-78524686D01*
X86591749Y-78492751D01*
X86595569Y-78485803D01*
X86597540Y-78478128D01*
X86597542Y-78478122D01*
X86600631Y-78466089D01*
X86607034Y-78447387D01*
X86615117Y-78428708D01*
X86622060Y-78384873D01*
X86624467Y-78373251D01*
X86635500Y-78330282D01*
X86635500Y-78309935D01*
X86637051Y-78290224D01*
X86638995Y-78277950D01*
X86640235Y-78270121D01*
X86636059Y-78225944D01*
X86635500Y-78214086D01*
X86635500Y-73329020D01*
X86636030Y-73317786D01*
X86637708Y-73310281D01*
X86635562Y-73241988D01*
X86635500Y-73238031D01*
X86635500Y-73210017D01*
X86634992Y-73205996D01*
X86634058Y-73194144D01*
X86632914Y-73157718D01*
X86632914Y-73157717D01*
X86632665Y-73149795D01*
X86626987Y-73130251D01*
X86622977Y-73110888D01*
X86621420Y-73098560D01*
X86621420Y-73098558D01*
X86620427Y-73090701D01*
X86617511Y-73083337D01*
X86617510Y-73083332D01*
X86604093Y-73049444D01*
X86600248Y-73038215D01*
X86590080Y-73003219D01*
X86587869Y-72995607D01*
X86577510Y-72978091D01*
X86568813Y-72960341D01*
X86561319Y-72941412D01*
X86535240Y-72905517D01*
X86528722Y-72895595D01*
X86517546Y-72876697D01*
X86500000Y-72812559D01*
X86500000Y-70884500D01*
X86520002Y-70816379D01*
X86573658Y-70769886D01*
X86626000Y-70758500D01*
X87025400Y-70758500D01*
X87028646Y-70758163D01*
X87028650Y-70758163D01*
X87124308Y-70748238D01*
X87124312Y-70748237D01*
X87131166Y-70747526D01*
X87137702Y-70745345D01*
X87137704Y-70745345D01*
X87291998Y-70693868D01*
X87298946Y-70691550D01*
X87449348Y-70598478D01*
X87574305Y-70473303D01*
X87583430Y-70458500D01*
X87663275Y-70328968D01*
X87663276Y-70328966D01*
X87667115Y-70322738D01*
X87722797Y-70154861D01*
X87733500Y-70050400D01*
X87733500Y-69449600D01*
X87722526Y-69343834D01*
X87687846Y-69239884D01*
X87668868Y-69183002D01*
X87666550Y-69176054D01*
X87573478Y-69025652D01*
X87448303Y-68900695D01*
X87297738Y-68807885D01*
X87181685Y-68769392D01*
X87136389Y-68754368D01*
X87136387Y-68754368D01*
X87129861Y-68752203D01*
X87123025Y-68751503D01*
X87123022Y-68751502D01*
X87079969Y-68747091D01*
X87025400Y-68741500D01*
X85974600Y-68741500D01*
X85971356Y-68741837D01*
X85971348Y-68741837D01*
X85889003Y-68750381D01*
X85819182Y-68737516D01*
X85767400Y-68688945D01*
X85750000Y-68625054D01*
X85750000Y-68000000D01*
X85023069Y-68000000D01*
X84954948Y-67979998D01*
X84923107Y-67950705D01*
X84914804Y-67939884D01*
X84896487Y-67916013D01*
X84769375Y-67818476D01*
X84621350Y-67757162D01*
X84613162Y-67756084D01*
X84506472Y-67742038D01*
X84506471Y-67742038D01*
X84502385Y-67741500D01*
X84492579Y-67741500D01*
X83625999Y-67741501D01*
X83557879Y-67721499D01*
X83511386Y-67667843D01*
X83500000Y-67615501D01*
X83500000Y-66452526D01*
X98687050Y-66452526D01*
X98699947Y-66721019D01*
X98752388Y-66984656D01*
X98843220Y-67237646D01*
X98845432Y-67241762D01*
X98845433Y-67241765D01*
X98909555Y-67361100D01*
X98970450Y-67474431D01*
X98973241Y-67478168D01*
X98973245Y-67478175D01*
X99020271Y-67541150D01*
X99131281Y-67689810D01*
X99134590Y-67693090D01*
X99134595Y-67693096D01*
X99257887Y-67815316D01*
X99322180Y-67879050D01*
X99325942Y-67881808D01*
X99325945Y-67881811D01*
X99372591Y-67916013D01*
X99538954Y-68037995D01*
X99543089Y-68040171D01*
X99543093Y-68040173D01*
X99772698Y-68160975D01*
X99776840Y-68163154D01*
X100030613Y-68251775D01*
X100035206Y-68252647D01*
X100290109Y-68301042D01*
X100290112Y-68301042D01*
X100294698Y-68301913D01*
X100422370Y-68306929D01*
X100558625Y-68312283D01*
X100558630Y-68312283D01*
X100563293Y-68312466D01*
X100667607Y-68301042D01*
X100825844Y-68283713D01*
X100825850Y-68283712D01*
X100830497Y-68283203D01*
X100835021Y-68282012D01*
X101085918Y-68215956D01*
X101085920Y-68215955D01*
X101090441Y-68214765D01*
X101094738Y-68212919D01*
X101333120Y-68110502D01*
X101333122Y-68110501D01*
X101337414Y-68108657D01*
X101545325Y-67979998D01*
X101562017Y-67969669D01*
X101562021Y-67969666D01*
X101565990Y-67967210D01*
X101771149Y-67793530D01*
X101948382Y-67591434D01*
X101985580Y-67533604D01*
X102056609Y-67423176D01*
X102093797Y-67365361D01*
X102204199Y-67120278D01*
X102241209Y-66989051D01*
X102275893Y-66866072D01*
X102275894Y-66866069D01*
X102277163Y-66861568D01*
X102295043Y-66721019D01*
X102310688Y-66598045D01*
X102310688Y-66598041D01*
X102311086Y-66594915D01*
X102313571Y-66500000D01*
X102293650Y-66231937D01*
X102234327Y-65969763D01*
X102136902Y-65719238D01*
X102003518Y-65485864D01*
X101837105Y-65274769D01*
X101641317Y-65090591D01*
X101420457Y-64937374D01*
X101416264Y-64935306D01*
X101183564Y-64820551D01*
X101183561Y-64820550D01*
X101179376Y-64818486D01*
X101131745Y-64803239D01*
X101077621Y-64785914D01*
X100923370Y-64736538D01*
X100918763Y-64735788D01*
X100918760Y-64735787D01*
X100662674Y-64694081D01*
X100662675Y-64694081D01*
X100658063Y-64693330D01*
X100527719Y-64691624D01*
X100393961Y-64689873D01*
X100393958Y-64689873D01*
X100389284Y-64689812D01*
X100122937Y-64726060D01*
X99864874Y-64801278D01*
X99620763Y-64913815D01*
X99616854Y-64916378D01*
X99399881Y-65058631D01*
X99399876Y-65058635D01*
X99395968Y-65061197D01*
X99195426Y-65240188D01*
X99023544Y-65446854D01*
X98884096Y-65676656D01*
X98780148Y-65924545D01*
X98713981Y-66185077D01*
X98687050Y-66452526D01*
X83500000Y-66452526D01*
X83500000Y-57113167D01*
X83520002Y-57045046D01*
X83573658Y-56998553D01*
X83643932Y-56988449D01*
X83684666Y-57001658D01*
X83749317Y-57035672D01*
X83798693Y-57061650D01*
X83816827Y-57071191D01*
X84056568Y-57154912D01*
X84306050Y-57202278D01*
X84426532Y-57207011D01*
X84555125Y-57212064D01*
X84555130Y-57212064D01*
X84559793Y-57212247D01*
X84658774Y-57201407D01*
X84807569Y-57185112D01*
X84807575Y-57185111D01*
X84812222Y-57184602D01*
X84840041Y-57177278D01*
X85053273Y-57121138D01*
X85057793Y-57119948D01*
X85192793Y-57061948D01*
X85286807Y-57021557D01*
X85286810Y-57021555D01*
X85291110Y-57019708D01*
X85295090Y-57017245D01*
X85295094Y-57017243D01*
X85503064Y-56888547D01*
X85503066Y-56888545D01*
X85507047Y-56886082D01*
X85700862Y-56722006D01*
X85868295Y-56531084D01*
X86005669Y-56317512D01*
X86109967Y-56085980D01*
X86178896Y-55841575D01*
X86201594Y-55663154D01*
X86210545Y-55592798D01*
X86210545Y-55592792D01*
X86210943Y-55589667D01*
X86211029Y-55586412D01*
X86212506Y-55529967D01*
X86213291Y-55500000D01*
X86194472Y-55246759D01*
X86189913Y-55226609D01*
X86149224Y-55046794D01*
X86138428Y-54999082D01*
X86046391Y-54762409D01*
X86032238Y-54737646D01*
X85922702Y-54545997D01*
X85922700Y-54545995D01*
X85920383Y-54541940D01*
X85763171Y-54342517D01*
X85578209Y-54168523D01*
X85538182Y-54140755D01*
X85373393Y-54026437D01*
X85373390Y-54026435D01*
X85369561Y-54023779D01*
X85365384Y-54021719D01*
X85365377Y-54021715D01*
X85145996Y-53913528D01*
X85145992Y-53913527D01*
X85141810Y-53911464D01*
X84899960Y-53834047D01*
X84895355Y-53833297D01*
X84653935Y-53793980D01*
X84653934Y-53793980D01*
X84649323Y-53793229D01*
X84522364Y-53791567D01*
X84400083Y-53789966D01*
X84400080Y-53789966D01*
X84395406Y-53789905D01*
X84143787Y-53824149D01*
X83899993Y-53895208D01*
X83719766Y-53978294D01*
X83678751Y-53997202D01*
X83608514Y-54007557D01*
X83543828Y-53978294D01*
X83505231Y-53918706D01*
X83500000Y-53882776D01*
X83500000Y-52250000D01*
X80290537Y-49287418D01*
X80254048Y-49226517D01*
X80250000Y-49194834D01*
X80250000Y-41126000D01*
X80270002Y-41057879D01*
X80323658Y-41011386D01*
X80376000Y-41000000D01*
X87374000Y-41000000D01*
X87442121Y-41020002D01*
G37*
G04 #@! TD.AperFunction*
G04 #@! TA.AperFunction,Conductor*
G36*
X82696379Y-75015432D02*
G01*
X82703295Y-75020615D01*
X82839684Y-75071745D01*
X82901866Y-75078500D01*
X85198134Y-75078500D01*
X85260316Y-75071745D01*
X85267712Y-75068973D01*
X85267718Y-75068971D01*
X85329771Y-75045708D01*
X85400578Y-75040525D01*
X85462947Y-75074446D01*
X85497076Y-75136702D01*
X85500000Y-75163690D01*
X85500000Y-82374000D01*
X85479998Y-82442121D01*
X85426342Y-82488614D01*
X85374000Y-82500000D01*
X81500000Y-82500000D01*
X79500000Y-84500000D01*
X79500000Y-89365500D01*
X79479998Y-89433621D01*
X79426342Y-89480114D01*
X79374000Y-89491500D01*
X74126000Y-89491500D01*
X74057879Y-89471498D01*
X74011386Y-89417842D01*
X74000000Y-89365500D01*
X74000000Y-83052190D01*
X74020002Y-82984069D01*
X74036905Y-82963095D01*
X76000000Y-81000000D01*
X76000000Y-77626000D01*
X76020002Y-77557879D01*
X76073658Y-77511386D01*
X76126000Y-77500000D01*
X76282177Y-77500000D01*
X76350298Y-77520002D01*
X76370882Y-77536516D01*
X76383984Y-77549504D01*
X76383992Y-77549511D01*
X76387307Y-77552797D01*
X76391073Y-77555559D01*
X76391075Y-77555560D01*
X76487143Y-77626000D01*
X76592094Y-77702953D01*
X76596229Y-77705129D01*
X76596233Y-77705131D01*
X76714289Y-77767243D01*
X76816827Y-77821191D01*
X77056568Y-77904912D01*
X77306050Y-77952278D01*
X77426532Y-77957011D01*
X77555125Y-77962064D01*
X77555130Y-77962064D01*
X77559793Y-77962247D01*
X77658774Y-77951407D01*
X77807569Y-77935112D01*
X77807575Y-77935111D01*
X77812222Y-77934602D01*
X77921680Y-77905784D01*
X78053273Y-77871138D01*
X78057793Y-77869948D01*
X78189737Y-77813261D01*
X78286807Y-77771557D01*
X78286810Y-77771555D01*
X78291110Y-77769708D01*
X78295090Y-77767245D01*
X78295094Y-77767243D01*
X78503064Y-77638547D01*
X78503066Y-77638545D01*
X78507047Y-77636082D01*
X78510624Y-77633054D01*
X78697289Y-77475031D01*
X78697291Y-77475029D01*
X78700862Y-77472006D01*
X78868295Y-77281084D01*
X79005669Y-77067512D01*
X79056184Y-76955372D01*
X79081971Y-76918029D01*
X79500000Y-76500000D01*
X79500000Y-75126000D01*
X79520002Y-75057879D01*
X79573658Y-75011386D01*
X79626000Y-75000000D01*
X82636056Y-75000000D01*
X82696379Y-75015432D01*
G37*
G04 #@! TD.AperFunction*
G04 #@! TA.AperFunction,Conductor*
G36*
X77442121Y-53020002D02*
G01*
X77488614Y-53073658D01*
X77500000Y-53126000D01*
X77500000Y-59447810D01*
X77479998Y-59515931D01*
X77463095Y-59536905D01*
X75486700Y-61513300D01*
X75424388Y-61547326D01*
X75416452Y-61548787D01*
X75389639Y-61552842D01*
X75382239Y-61553737D01*
X75320562Y-61559351D01*
X75316889Y-61560432D01*
X75315637Y-61560615D01*
X75313736Y-61561005D01*
X75307384Y-61561650D01*
X75301294Y-61563559D01*
X75301287Y-61563560D01*
X75294236Y-61565770D01*
X75275392Y-61570121D01*
X75261776Y-61572180D01*
X75204918Y-61593100D01*
X75197034Y-61595707D01*
X75141273Y-61612119D01*
X75135815Y-61614972D01*
X75135611Y-61615055D01*
X75130405Y-61616919D01*
X75128731Y-61617636D01*
X75122637Y-61619546D01*
X75110581Y-61626229D01*
X75093010Y-61634274D01*
X75080078Y-61639032D01*
X75074658Y-61642392D01*
X75074657Y-61642393D01*
X75031780Y-61668978D01*
X75023763Y-61673551D01*
X74975647Y-61698705D01*
X74970843Y-61702567D01*
X74965690Y-61705939D01*
X74965495Y-61705641D01*
X74964073Y-61706597D01*
X74964126Y-61706673D01*
X74958886Y-61710315D01*
X74953305Y-61713409D01*
X74948461Y-61717561D01*
X74942843Y-61722376D01*
X74927249Y-61733790D01*
X74915533Y-61741054D01*
X74910893Y-61745442D01*
X74876962Y-61777529D01*
X74869340Y-61784178D01*
X74829995Y-61815813D01*
X74826033Y-61820535D01*
X74821633Y-61824844D01*
X74821629Y-61824840D01*
X74812314Y-61834253D01*
X74806305Y-61839403D01*
X74797859Y-61850291D01*
X74784877Y-61864610D01*
X74774863Y-61874079D01*
X74771203Y-61879306D01*
X74746556Y-61914505D01*
X74739865Y-61923225D01*
X74709862Y-61958981D01*
X74705662Y-61966622D01*
X74694811Y-61983140D01*
X74691554Y-61987338D01*
X74691551Y-61987342D01*
X74687642Y-61992382D01*
X74684827Y-61998104D01*
X74684824Y-61998108D01*
X74681560Y-62004743D01*
X74671716Y-62021388D01*
X74663815Y-62032672D01*
X74661279Y-62038531D01*
X74661279Y-62038532D01*
X74645700Y-62074532D01*
X74640485Y-62085178D01*
X74619826Y-62122757D01*
X74616040Y-62134692D01*
X74608996Y-62152213D01*
X74602164Y-62166098D01*
X74600556Y-62172271D01*
X74600555Y-62172274D01*
X74598691Y-62179429D01*
X74592398Y-62197705D01*
X74586924Y-62210355D01*
X74585618Y-62216607D01*
X74578367Y-62251319D01*
X74575130Y-62263656D01*
X74565177Y-62295028D01*
X74565175Y-62295039D01*
X74563315Y-62300901D01*
X74562628Y-62307021D01*
X74562627Y-62307028D01*
X74561495Y-62317116D01*
X74558215Y-62334817D01*
X74553361Y-62353453D01*
X74553027Y-62359825D01*
X74552640Y-62367211D01*
X74550151Y-62386383D01*
X74547333Y-62399871D01*
X74547000Y-62406224D01*
X74547000Y-62439304D01*
X74546215Y-62453349D01*
X74542482Y-62486630D01*
X74544165Y-62506677D01*
X74544434Y-62523798D01*
X74543229Y-62546794D01*
X74544184Y-62553108D01*
X74544184Y-62553111D01*
X74545583Y-62562358D01*
X74547000Y-62581200D01*
X74547000Y-63439304D01*
X74546215Y-63453349D01*
X74542482Y-63486630D01*
X74542998Y-63492772D01*
X74543052Y-63493415D01*
X74543123Y-63513633D01*
X74542371Y-63523404D01*
X74543171Y-63529733D01*
X74543300Y-63535032D01*
X74543563Y-63540414D01*
X74543229Y-63546794D01*
X74548255Y-63580024D01*
X74552283Y-63606663D01*
X74553258Y-63614960D01*
X74555911Y-63646547D01*
X74558121Y-63672867D01*
X74559820Y-63678793D01*
X74559863Y-63679028D01*
X74560639Y-63684481D01*
X74561004Y-63686261D01*
X74561650Y-63692616D01*
X74563558Y-63698706D01*
X74564633Y-63703944D01*
X74565836Y-63709155D01*
X74566636Y-63715484D01*
X74568692Y-63721524D01*
X74569897Y-63726743D01*
X74571226Y-63731919D01*
X74572180Y-63738224D01*
X74574382Y-63744208D01*
X74591802Y-63791555D01*
X74594670Y-63800329D01*
X74609636Y-63852520D01*
X74612451Y-63857997D01*
X74614721Y-63863731D01*
X74614391Y-63863862D01*
X74615040Y-63865445D01*
X74615125Y-63865409D01*
X74617636Y-63871268D01*
X74619546Y-63877363D01*
X74622641Y-63882947D01*
X74624729Y-63887819D01*
X74626972Y-63892718D01*
X74629030Y-63898762D01*
X74632261Y-63904269D01*
X74634498Y-63909154D01*
X74636829Y-63913933D01*
X74639032Y-63919922D01*
X74667020Y-63965061D01*
X74671990Y-63973848D01*
X74695064Y-64018746D01*
X74698893Y-64023577D01*
X74702231Y-64028757D01*
X74702227Y-64028760D01*
X74709573Y-64039776D01*
X74713409Y-64046695D01*
X74717561Y-64051540D01*
X74720602Y-64055915D01*
X74723772Y-64060247D01*
X74727001Y-64065750D01*
X74731270Y-64070492D01*
X74734427Y-64074805D01*
X74737691Y-64079043D01*
X74741054Y-64084467D01*
X74774968Y-64120330D01*
X74782157Y-64128630D01*
X74811152Y-64165212D01*
X74815845Y-64169206D01*
X74815846Y-64169207D01*
X74817786Y-64170858D01*
X74831792Y-64184815D01*
X74839403Y-64193695D01*
X74844443Y-64197604D01*
X74848319Y-64201296D01*
X74852282Y-64204890D01*
X74856549Y-64209628D01*
X74861680Y-64213411D01*
X74865604Y-64216969D01*
X74869692Y-64220497D01*
X74874079Y-64225137D01*
X74879309Y-64228799D01*
X74879310Y-64228800D01*
X74911432Y-64251292D01*
X74920824Y-64258551D01*
X74953477Y-64286341D01*
X74952066Y-64287999D01*
X74990427Y-64335640D01*
X75000000Y-64383814D01*
X75000000Y-65615869D01*
X74979998Y-65683990D01*
X74952516Y-65712484D01*
X74953307Y-65713407D01*
X74942843Y-65722376D01*
X74927249Y-65733790D01*
X74915533Y-65741054D01*
X74910893Y-65745442D01*
X74876962Y-65777529D01*
X74869340Y-65784178D01*
X74829995Y-65815813D01*
X74826033Y-65820535D01*
X74821633Y-65824844D01*
X74821629Y-65824840D01*
X74812314Y-65834253D01*
X74806305Y-65839403D01*
X74797859Y-65850291D01*
X74784877Y-65864610D01*
X74774863Y-65874079D01*
X74771203Y-65879306D01*
X74746556Y-65914505D01*
X74739865Y-65923225D01*
X74709862Y-65958981D01*
X74705662Y-65966622D01*
X74694811Y-65983140D01*
X74691554Y-65987338D01*
X74691551Y-65987342D01*
X74687642Y-65992382D01*
X74684827Y-65998104D01*
X74684824Y-65998108D01*
X74681560Y-66004743D01*
X74671716Y-66021388D01*
X74663815Y-66032672D01*
X74661279Y-66038531D01*
X74661279Y-66038532D01*
X74645700Y-66074532D01*
X74640485Y-66085178D01*
X74619826Y-66122757D01*
X74616040Y-66134692D01*
X74608996Y-66152213D01*
X74602164Y-66166098D01*
X74600556Y-66172271D01*
X74600555Y-66172274D01*
X74598691Y-66179429D01*
X74592398Y-66197705D01*
X74586924Y-66210355D01*
X74585618Y-66216607D01*
X74578367Y-66251319D01*
X74575130Y-66263656D01*
X74565177Y-66295028D01*
X74565175Y-66295039D01*
X74563315Y-66300901D01*
X74562628Y-66307021D01*
X74562627Y-66307028D01*
X74561495Y-66317116D01*
X74558215Y-66334817D01*
X74553361Y-66353453D01*
X74553027Y-66359825D01*
X74552640Y-66367211D01*
X74550151Y-66386383D01*
X74547333Y-66399871D01*
X74547000Y-66406224D01*
X74547000Y-66439304D01*
X74546215Y-66453349D01*
X74542482Y-66486630D01*
X74544165Y-66506677D01*
X74544434Y-66523798D01*
X74543229Y-66546794D01*
X74544184Y-66553108D01*
X74544184Y-66553111D01*
X74545583Y-66562358D01*
X74547000Y-66581200D01*
X74547000Y-67439304D01*
X74546215Y-67453349D01*
X74542482Y-67486630D01*
X74544165Y-67506677D01*
X74544434Y-67523798D01*
X74544280Y-67526738D01*
X74543712Y-67537585D01*
X74543229Y-67546794D01*
X74548255Y-67580024D01*
X74552283Y-67606663D01*
X74553258Y-67614960D01*
X74557605Y-67666724D01*
X74558121Y-67672867D01*
X74559820Y-67678793D01*
X74559863Y-67679028D01*
X74560638Y-67684474D01*
X74561004Y-67686256D01*
X74561650Y-67692616D01*
X74563560Y-67698709D01*
X74563561Y-67698716D01*
X74565770Y-67705764D01*
X74570121Y-67724608D01*
X74572180Y-67738224D01*
X74590468Y-67787929D01*
X74591802Y-67791555D01*
X74594670Y-67800329D01*
X74609636Y-67852520D01*
X74612451Y-67857997D01*
X74614721Y-67863731D01*
X74614391Y-67863862D01*
X74615038Y-67865439D01*
X74615122Y-67865403D01*
X74617637Y-67871270D01*
X74619546Y-67877363D01*
X74626229Y-67889419D01*
X74634274Y-67906990D01*
X74639032Y-67919922D01*
X74667020Y-67965061D01*
X74671990Y-67973848D01*
X74689345Y-68007618D01*
X74695064Y-68018746D01*
X74698893Y-68023577D01*
X74702231Y-68028757D01*
X74702227Y-68028760D01*
X74709573Y-68039776D01*
X74713409Y-68046695D01*
X74717562Y-68051540D01*
X74717563Y-68051542D01*
X74722376Y-68057157D01*
X74733790Y-68072751D01*
X74741054Y-68084467D01*
X74774968Y-68120330D01*
X74782157Y-68128630D01*
X74811152Y-68165212D01*
X74815845Y-68169206D01*
X74815846Y-68169207D01*
X74817786Y-68170858D01*
X74831792Y-68184815D01*
X74835249Y-68188849D01*
X74835252Y-68188852D01*
X74839403Y-68193695D01*
X74850291Y-68202141D01*
X74864610Y-68215123D01*
X74874079Y-68225137D01*
X74879305Y-68228796D01*
X74911432Y-68251292D01*
X74920824Y-68258551D01*
X74953477Y-68286341D01*
X74952066Y-68287999D01*
X74990427Y-68335640D01*
X75000000Y-68383814D01*
X75000000Y-80447810D01*
X74979998Y-80515931D01*
X74963095Y-80536905D01*
X72000000Y-83500000D01*
X72000000Y-85374000D01*
X71979998Y-85442121D01*
X71926342Y-85488614D01*
X71874000Y-85500000D01*
X68126000Y-85500000D01*
X68057879Y-85479998D01*
X68011386Y-85426342D01*
X68000000Y-85374000D01*
X68000000Y-79000000D01*
X64536905Y-75536905D01*
X64502879Y-75474593D01*
X64500000Y-75447810D01*
X64500000Y-69552190D01*
X64520002Y-69484069D01*
X64536905Y-69463095D01*
X65463095Y-68536905D01*
X65525407Y-68502879D01*
X65552190Y-68500000D01*
X66927742Y-68500000D01*
X66995863Y-68520002D01*
X67042356Y-68573658D01*
X67053300Y-68615455D01*
X67058121Y-68672867D01*
X67059820Y-68678793D01*
X67059863Y-68679028D01*
X67060639Y-68684485D01*
X67061005Y-68686267D01*
X67061650Y-68692616D01*
X67086315Y-68771322D01*
X67087171Y-68774175D01*
X67109636Y-68852520D01*
X67112452Y-68857999D01*
X67114722Y-68863733D01*
X67114392Y-68863864D01*
X67115039Y-68865442D01*
X67115124Y-68865406D01*
X67117635Y-68871264D01*
X67119546Y-68877363D01*
X67122644Y-68882952D01*
X67157813Y-68946398D01*
X67159644Y-68949826D01*
X67195064Y-69018746D01*
X67198895Y-69023579D01*
X67202232Y-69028758D01*
X67202227Y-69028761D01*
X67209573Y-69039776D01*
X67213409Y-69046695D01*
X67217560Y-69051538D01*
X67217562Y-69051541D01*
X67262420Y-69103877D01*
X67265497Y-69107610D01*
X67302801Y-69154676D01*
X67311152Y-69165212D01*
X67315845Y-69169206D01*
X67315846Y-69169207D01*
X67317786Y-69170858D01*
X67331792Y-69184815D01*
X67339403Y-69193695D01*
X67344445Y-69197606D01*
X67344447Y-69197608D01*
X67396025Y-69237616D01*
X67400461Y-69241221D01*
X67453478Y-69286342D01*
X67458860Y-69289350D01*
X67464401Y-69292447D01*
X67480150Y-69302871D01*
X67487335Y-69308444D01*
X67487340Y-69308447D01*
X67492382Y-69312358D01*
X67553394Y-69342379D01*
X67559191Y-69345423D01*
X67616621Y-69377519D01*
X67622482Y-69379423D01*
X67622486Y-69379425D01*
X67632134Y-69382560D01*
X67648829Y-69389339D01*
X67660365Y-69395016D01*
X67660374Y-69395019D01*
X67666098Y-69397836D01*
X67728297Y-69414038D01*
X67735470Y-69416136D01*
X67788506Y-69433368D01*
X67788509Y-69433369D01*
X67794367Y-69435272D01*
X67800481Y-69436001D01*
X67814328Y-69437652D01*
X67831172Y-69440835D01*
X67847274Y-69445030D01*
X67847279Y-69445031D01*
X67853453Y-69446639D01*
X67882613Y-69448167D01*
X67913922Y-69449808D01*
X67922247Y-69450521D01*
X67956396Y-69454593D01*
X67979945Y-69457401D01*
X67986079Y-69456929D01*
X67986083Y-69456929D01*
X68003780Y-69455567D01*
X68020041Y-69455369D01*
X68040412Y-69456437D01*
X68040417Y-69456437D01*
X68046794Y-69456771D01*
X68102977Y-69448274D01*
X68112152Y-69447228D01*
X68166287Y-69443063D01*
X68192965Y-69435614D01*
X68208001Y-69432390D01*
X68216560Y-69431096D01*
X68231917Y-69428774D01*
X68231919Y-69428773D01*
X68238224Y-69427820D01*
X68244210Y-69425617D01*
X68244212Y-69425617D01*
X68288043Y-69409490D01*
X68297668Y-69406381D01*
X68340365Y-69394460D01*
X68340366Y-69394460D01*
X68346296Y-69392804D01*
X68374417Y-69378599D01*
X68387709Y-69372820D01*
X68393079Y-69370844D01*
X68419922Y-69360968D01*
X68461863Y-69334964D01*
X68471439Y-69329590D01*
X68513114Y-69308538D01*
X68540928Y-69286808D01*
X68552098Y-69279016D01*
X68584467Y-69258946D01*
X68589102Y-69254563D01*
X68589107Y-69254559D01*
X68617600Y-69227613D01*
X68626593Y-69219877D01*
X68644395Y-69205970D01*
X68655534Y-69197267D01*
X68655537Y-69197265D01*
X68660387Y-69193475D01*
X68664409Y-69188816D01*
X68664416Y-69188809D01*
X68685924Y-69163892D01*
X68694730Y-69154676D01*
X68720503Y-69130303D01*
X68725137Y-69125921D01*
X68749139Y-69091642D01*
X68756972Y-69081580D01*
X68778480Y-69056663D01*
X68782507Y-69051998D01*
X68795708Y-69028761D01*
X68803685Y-69014718D01*
X68810029Y-69004682D01*
X68832524Y-68972557D01*
X68832526Y-68972554D01*
X68836185Y-68967328D01*
X68851316Y-68932365D01*
X68857393Y-68920175D01*
X68871778Y-68894852D01*
X68871778Y-68894851D01*
X68874821Y-68889495D01*
X68882823Y-68865442D01*
X68889549Y-68845221D01*
X68893470Y-68834952D01*
X68910542Y-68795502D01*
X68910544Y-68795497D01*
X68913076Y-68789645D01*
X68916916Y-68771262D01*
X68920097Y-68756036D01*
X68923877Y-68742028D01*
X68931870Y-68718000D01*
X68933814Y-68712157D01*
X68934585Y-68706053D01*
X68934588Y-68706040D01*
X68940143Y-68662065D01*
X68941812Y-68652091D01*
X68951675Y-68604878D01*
X68951675Y-68604876D01*
X68952667Y-68600129D01*
X68953000Y-68593776D01*
X68953000Y-68568209D01*
X68953994Y-68552417D01*
X68956796Y-68530241D01*
X68956797Y-68530232D01*
X68957238Y-68526738D01*
X68957611Y-68500000D01*
X68953601Y-68459104D01*
X68953000Y-68446808D01*
X68953000Y-67846304D01*
X68967338Y-67787929D01*
X68975466Y-67772381D01*
X68978421Y-67766729D01*
X68985872Y-67740743D01*
X68991351Y-67725442D01*
X68999551Y-67706494D01*
X68999552Y-67706490D01*
X69002086Y-67700635D01*
X69013793Y-67644598D01*
X69016010Y-67635638D01*
X69030024Y-67586764D01*
X69030024Y-67586763D01*
X69031785Y-67580622D01*
X69033859Y-67553677D01*
X69036149Y-67537585D01*
X69040687Y-67515857D01*
X69041677Y-67511119D01*
X69042010Y-67504766D01*
X69042010Y-67452588D01*
X69042381Y-67442921D01*
X69046150Y-67393945D01*
X69046150Y-67393942D01*
X69046639Y-67387586D01*
X69043002Y-67358797D01*
X69042010Y-67343019D01*
X69042010Y-60604475D01*
X69042059Y-60600957D01*
X69044174Y-60525237D01*
X69044174Y-60525234D01*
X69044352Y-60518854D01*
X69034414Y-60462491D01*
X69033145Y-60453345D01*
X69028005Y-60402740D01*
X69028004Y-60402736D01*
X69027360Y-60396394D01*
X69019276Y-60370599D01*
X69015425Y-60354800D01*
X69011842Y-60334476D01*
X69011841Y-60334472D01*
X69010733Y-60328189D01*
X68989661Y-60274967D01*
X68986580Y-60266265D01*
X68971375Y-60217746D01*
X68969464Y-60211647D01*
X68966367Y-60206060D01*
X68966364Y-60206053D01*
X68956362Y-60188009D01*
X68949413Y-60173309D01*
X68941816Y-60154121D01*
X68941812Y-60154113D01*
X68939462Y-60148178D01*
X68908116Y-60100277D01*
X68903349Y-60092374D01*
X68878696Y-60047899D01*
X68875601Y-60042315D01*
X68858005Y-60021785D01*
X68848248Y-60008789D01*
X68836100Y-59990225D01*
X68836095Y-59990219D01*
X68833449Y-59986175D01*
X68829193Y-59981447D01*
X68792294Y-59944548D01*
X68785721Y-59937450D01*
X68749607Y-59895315D01*
X68726688Y-59877537D01*
X68714820Y-59867074D01*
X68384651Y-59536905D01*
X68036905Y-59189160D01*
X68002880Y-59126847D01*
X68000000Y-59100064D01*
X68000000Y-53126000D01*
X68020002Y-53057879D01*
X68073658Y-53011386D01*
X68126000Y-53000000D01*
X77374000Y-53000000D01*
X77442121Y-53020002D01*
G37*
G04 #@! TD.AperFunction*
G04 #@! TA.AperFunction,Conductor*
G36*
X69942121Y-45020002D02*
G01*
X69988614Y-45073658D01*
X70000000Y-45126000D01*
X70000000Y-51874000D01*
X69979998Y-51942121D01*
X69926342Y-51988614D01*
X69874000Y-52000000D01*
X68000000Y-52000000D01*
X67013710Y-52986290D01*
X66951398Y-53020316D01*
X66880583Y-53015251D01*
X66845988Y-52994767D01*
X66845921Y-52994863D01*
X66844669Y-52993986D01*
X66844666Y-52993984D01*
X66840696Y-52991204D01*
X66840692Y-52991201D01*
X66799041Y-52962037D01*
X66791676Y-52956467D01*
X66752257Y-52924317D01*
X66752254Y-52924315D01*
X66747314Y-52920286D01*
X66723359Y-52907763D01*
X66709461Y-52899313D01*
X66692556Y-52887476D01*
X66687328Y-52883815D01*
X66634802Y-52861084D01*
X66626473Y-52857111D01*
X66581399Y-52833547D01*
X66581391Y-52833544D01*
X66575739Y-52830589D01*
X66569607Y-52828831D01*
X66569603Y-52828829D01*
X66549755Y-52823138D01*
X66534453Y-52817659D01*
X66509645Y-52806924D01*
X66453596Y-52795215D01*
X66444673Y-52793007D01*
X66389632Y-52777224D01*
X66387011Y-52777022D01*
X66335270Y-52754498D01*
X66221705Y-52669385D01*
X66085316Y-52618255D01*
X66023134Y-52611500D01*
X63726866Y-52611500D01*
X63664684Y-52618255D01*
X63528295Y-52669385D01*
X63411739Y-52756739D01*
X63324385Y-52873295D01*
X63273255Y-53009684D01*
X63266500Y-53071866D01*
X63266500Y-54368134D01*
X63273255Y-54430316D01*
X63324385Y-54566705D01*
X63411739Y-54683261D01*
X63528295Y-54770615D01*
X63664684Y-54821745D01*
X63726866Y-54828500D01*
X65921000Y-54828500D01*
X65989121Y-54848502D01*
X66035614Y-54902158D01*
X66047000Y-54954500D01*
X66047000Y-59484550D01*
X66046951Y-59488068D01*
X66044658Y-59570156D01*
X66045767Y-59576444D01*
X66054596Y-59626519D01*
X66055865Y-59635665D01*
X66061650Y-59692616D01*
X66063558Y-59698703D01*
X66069733Y-59718408D01*
X66073585Y-59734209D01*
X66078277Y-59760821D01*
X66099348Y-59814040D01*
X66102431Y-59822749D01*
X66106685Y-59836325D01*
X66107967Y-59907310D01*
X66070668Y-59967719D01*
X66006631Y-59998373D01*
X65986450Y-60000000D01*
X65000000Y-60000000D01*
X64269120Y-60730880D01*
X64255591Y-60742611D01*
X64236739Y-60756739D01*
X64231358Y-60763919D01*
X64222611Y-60775590D01*
X64210880Y-60789120D01*
X63500000Y-61500000D01*
X63500000Y-66921000D01*
X63479998Y-66989121D01*
X63426342Y-67035614D01*
X63374000Y-67047000D01*
X57015465Y-67047000D01*
X57011947Y-67046951D01*
X56936227Y-67044836D01*
X56936224Y-67044836D01*
X56929844Y-67044658D01*
X56884947Y-67052574D01*
X56873481Y-67054596D01*
X56864335Y-67055865D01*
X56813730Y-67061005D01*
X56813726Y-67061006D01*
X56807384Y-67061650D01*
X56781589Y-67069734D01*
X56765790Y-67073585D01*
X56745466Y-67077168D01*
X56745462Y-67077169D01*
X56739179Y-67078277D01*
X56685960Y-67099348D01*
X56677258Y-67102429D01*
X56622637Y-67119546D01*
X56617050Y-67122643D01*
X56617043Y-67122646D01*
X56598999Y-67132648D01*
X56584299Y-67139597D01*
X56565111Y-67147194D01*
X56565103Y-67147198D01*
X56559168Y-67149548D01*
X56553825Y-67153045D01*
X56553824Y-67153045D01*
X56511272Y-67180891D01*
X56503369Y-67185658D01*
X56453305Y-67213409D01*
X56432775Y-67231005D01*
X56419779Y-67240762D01*
X56401222Y-67252906D01*
X56397165Y-67255561D01*
X56392437Y-67259818D01*
X56355545Y-67296710D01*
X56348447Y-67303283D01*
X56306305Y-67339403D01*
X56302398Y-67344440D01*
X56302396Y-67344442D01*
X56288521Y-67362330D01*
X56278056Y-67374199D01*
X56189160Y-67463095D01*
X56126848Y-67497121D01*
X56100065Y-67500000D01*
X54626000Y-67500000D01*
X54557879Y-67479998D01*
X54511386Y-67426342D01*
X54500000Y-67374000D01*
X54500000Y-59126000D01*
X54520002Y-59057879D01*
X54573658Y-59011386D01*
X54626000Y-59000000D01*
X56500000Y-59000000D01*
X59500000Y-56000000D01*
X59500000Y-52552190D01*
X59520002Y-52484069D01*
X59536905Y-52463095D01*
X60000000Y-52000000D01*
X60000000Y-45126000D01*
X60020002Y-45057879D01*
X60073658Y-45011386D01*
X60126000Y-45000000D01*
X69874000Y-45000000D01*
X69942121Y-45020002D01*
G37*
G04 #@! TD.AperFunction*
G04 #@! TA.AperFunction,Conductor*
G36*
X58942121Y-45020002D02*
G01*
X58988614Y-45073658D01*
X59000000Y-45126000D01*
X59000000Y-51947810D01*
X58979998Y-52015931D01*
X58963095Y-52036905D01*
X58500000Y-52500000D01*
X58500000Y-55947810D01*
X58479998Y-56015931D01*
X58463095Y-56036905D01*
X56536905Y-57963095D01*
X56474593Y-57997121D01*
X56447810Y-58000000D01*
X54626000Y-58000000D01*
X54557879Y-57979998D01*
X54511386Y-57926342D01*
X54500000Y-57874000D01*
X54500000Y-56000000D01*
X52536905Y-54036905D01*
X52502879Y-53974593D01*
X52500000Y-53947810D01*
X52500000Y-45126000D01*
X52520002Y-45057879D01*
X52573658Y-45011386D01*
X52626000Y-45000000D01*
X58874000Y-45000000D01*
X58942121Y-45020002D01*
G37*
G04 #@! TD.AperFunction*
G04 #@! TA.AperFunction,Conductor*
G36*
X50515931Y-53020002D02*
G01*
X50536905Y-53036905D01*
X52463095Y-54963095D01*
X52497121Y-55025407D01*
X52500000Y-55052190D01*
X52500000Y-63374000D01*
X52479998Y-63442121D01*
X52426342Y-63488614D01*
X52374000Y-63500000D01*
X48579000Y-63500000D01*
X48510879Y-63479998D01*
X48464386Y-63426342D01*
X48453000Y-63374000D01*
X48453000Y-61555363D01*
X48453049Y-61551845D01*
X48455164Y-61476125D01*
X48455164Y-61476122D01*
X48455342Y-61469742D01*
X48445404Y-61413379D01*
X48444135Y-61404233D01*
X48438995Y-61353628D01*
X48438994Y-61353624D01*
X48438350Y-61347282D01*
X48430266Y-61321487D01*
X48426415Y-61305688D01*
X48422832Y-61285364D01*
X48422831Y-61285360D01*
X48421723Y-61279077D01*
X48400651Y-61225855D01*
X48397570Y-61217153D01*
X48382365Y-61168634D01*
X48380454Y-61162535D01*
X48377357Y-61156948D01*
X48377354Y-61156941D01*
X48367352Y-61138897D01*
X48360403Y-61124197D01*
X48352806Y-61105009D01*
X48352802Y-61105001D01*
X48350452Y-61099066D01*
X48319106Y-61051165D01*
X48314339Y-61043262D01*
X48289686Y-60998787D01*
X48286591Y-60993203D01*
X48268995Y-60972673D01*
X48259238Y-60959677D01*
X48247090Y-60941113D01*
X48247085Y-60941107D01*
X48244439Y-60937063D01*
X48240183Y-60932335D01*
X48203284Y-60895436D01*
X48196711Y-60888338D01*
X48164754Y-60851053D01*
X48160597Y-60846203D01*
X48137676Y-60828425D01*
X48125806Y-60817959D01*
X47830749Y-60522901D01*
X47809643Y-60494892D01*
X47786591Y-60453305D01*
X47768995Y-60432775D01*
X47759238Y-60419779D01*
X47747090Y-60401215D01*
X47747085Y-60401209D01*
X47744439Y-60397165D01*
X47740183Y-60392437D01*
X47703284Y-60355538D01*
X47696711Y-60348440D01*
X47664754Y-60311155D01*
X47660597Y-60306305D01*
X47655558Y-60302396D01*
X47655548Y-60302387D01*
X47637672Y-60288522D01*
X47625802Y-60278057D01*
X47184819Y-59837074D01*
X47182366Y-59834552D01*
X47130310Y-59779504D01*
X47130309Y-59779503D01*
X47125921Y-59774863D01*
X47079041Y-59742037D01*
X47071676Y-59736467D01*
X47032257Y-59704317D01*
X47032254Y-59704315D01*
X47027314Y-59700286D01*
X47003359Y-59687763D01*
X46989461Y-59679313D01*
X46972556Y-59667476D01*
X46967328Y-59663815D01*
X46914802Y-59641084D01*
X46906473Y-59637111D01*
X46861399Y-59613547D01*
X46861391Y-59613544D01*
X46855739Y-59610589D01*
X46849607Y-59608831D01*
X46849603Y-59608829D01*
X46829755Y-59603138D01*
X46814453Y-59597659D01*
X46789645Y-59586924D01*
X46733596Y-59575215D01*
X46724673Y-59573007D01*
X46669632Y-59557224D01*
X46645918Y-59555399D01*
X46642680Y-59555150D01*
X46626582Y-59552859D01*
X46604861Y-59548321D01*
X46604855Y-59548320D01*
X46600129Y-59547333D01*
X46593776Y-59547000D01*
X46541600Y-59547000D01*
X46531936Y-59546629D01*
X46518996Y-59545633D01*
X46482955Y-59542860D01*
X46482952Y-59542860D01*
X46476596Y-59542371D01*
X46447807Y-59546008D01*
X46432029Y-59547000D01*
X44168010Y-59547000D01*
X44099889Y-59526998D01*
X44053396Y-59473342D01*
X44042010Y-59421000D01*
X44042010Y-56149496D01*
X44042059Y-56145978D01*
X44044175Y-56070236D01*
X44044175Y-56070233D01*
X44044353Y-56063854D01*
X44034413Y-56007480D01*
X44033144Y-55998335D01*
X44028005Y-55947744D01*
X44027360Y-55941394D01*
X44019278Y-55915603D01*
X44015426Y-55899803D01*
X44011841Y-55879473D01*
X44010733Y-55873189D01*
X43989661Y-55819967D01*
X43986580Y-55811265D01*
X43971375Y-55762746D01*
X43969464Y-55756647D01*
X43966367Y-55751060D01*
X43966364Y-55751053D01*
X43956362Y-55733009D01*
X43949413Y-55718309D01*
X43941816Y-55699121D01*
X43941812Y-55699113D01*
X43939462Y-55693178D01*
X43908114Y-55645274D01*
X43903355Y-55637385D01*
X43875601Y-55587315D01*
X43858012Y-55566793D01*
X43848255Y-55553798D01*
X43833450Y-55531175D01*
X43829193Y-55526447D01*
X43792294Y-55489548D01*
X43785721Y-55482450D01*
X43749607Y-55440315D01*
X43726684Y-55422534D01*
X43714816Y-55412070D01*
X43536905Y-55234159D01*
X43502879Y-55171847D01*
X43500000Y-55145064D01*
X43500000Y-53126000D01*
X43520002Y-53057879D01*
X43573658Y-53011386D01*
X43626000Y-53000000D01*
X50447810Y-53000000D01*
X50515931Y-53020002D01*
G37*
G04 #@! TD.AperFunction*
G04 #@! TA.AperFunction,Conductor*
G36*
X38442121Y-20528502D02*
G01*
X38488614Y-20582158D01*
X38500000Y-20634500D01*
X38500000Y-25500000D01*
X39463095Y-26463095D01*
X39497121Y-26525407D01*
X39500000Y-26552190D01*
X39500000Y-57615869D01*
X39479998Y-57683990D01*
X39452516Y-57712484D01*
X39453307Y-57713407D01*
X39442843Y-57722376D01*
X39427249Y-57733790D01*
X39415533Y-57741054D01*
X39410893Y-57745442D01*
X39376962Y-57777529D01*
X39369340Y-57784178D01*
X39329995Y-57815813D01*
X39326033Y-57820535D01*
X39321633Y-57824844D01*
X39321629Y-57824840D01*
X39312314Y-57834253D01*
X39306305Y-57839403D01*
X39297859Y-57850291D01*
X39284877Y-57864610D01*
X39274863Y-57874079D01*
X39271203Y-57879306D01*
X39246556Y-57914505D01*
X39239865Y-57923225D01*
X39209862Y-57958981D01*
X39205662Y-57966622D01*
X39194811Y-57983140D01*
X39191554Y-57987338D01*
X39191551Y-57987342D01*
X39187642Y-57992382D01*
X39184827Y-57998104D01*
X39184824Y-57998108D01*
X39181560Y-58004743D01*
X39171716Y-58021388D01*
X39163815Y-58032672D01*
X39161279Y-58038531D01*
X39161279Y-58038532D01*
X39145700Y-58074532D01*
X39140485Y-58085178D01*
X39119826Y-58122757D01*
X39116040Y-58134692D01*
X39108996Y-58152213D01*
X39102164Y-58166098D01*
X39100556Y-58172271D01*
X39100555Y-58172274D01*
X39098691Y-58179429D01*
X39092398Y-58197705D01*
X39086924Y-58210355D01*
X39085618Y-58216607D01*
X39078367Y-58251319D01*
X39075130Y-58263656D01*
X39065177Y-58295028D01*
X39065175Y-58295039D01*
X39063315Y-58300901D01*
X39062628Y-58307021D01*
X39062627Y-58307028D01*
X39061495Y-58317116D01*
X39058215Y-58334817D01*
X39053361Y-58353453D01*
X39053027Y-58359825D01*
X39052640Y-58367211D01*
X39050151Y-58386383D01*
X39047333Y-58399871D01*
X39047000Y-58406224D01*
X39047000Y-58439304D01*
X39046215Y-58453349D01*
X39042482Y-58486630D01*
X39044165Y-58506677D01*
X39044434Y-58523798D01*
X39043229Y-58546794D01*
X39044184Y-58553108D01*
X39044184Y-58553111D01*
X39045583Y-58562358D01*
X39047000Y-58581200D01*
X39047000Y-59439304D01*
X39046215Y-59453349D01*
X39042482Y-59486630D01*
X39044165Y-59506677D01*
X39044434Y-59523798D01*
X39043229Y-59546794D01*
X39044185Y-59553113D01*
X39052283Y-59606663D01*
X39053258Y-59614960D01*
X39058121Y-59672867D01*
X39059820Y-59678793D01*
X39059863Y-59679028D01*
X39060638Y-59684474D01*
X39061004Y-59686256D01*
X39061650Y-59692616D01*
X39063560Y-59698709D01*
X39063561Y-59698716D01*
X39065770Y-59705764D01*
X39070121Y-59724608D01*
X39072180Y-59738224D01*
X39090590Y-59788261D01*
X39091802Y-59791555D01*
X39094670Y-59800329D01*
X39109636Y-59852520D01*
X39112451Y-59857997D01*
X39114721Y-59863731D01*
X39114391Y-59863862D01*
X39115038Y-59865439D01*
X39115122Y-59865403D01*
X39117637Y-59871270D01*
X39119546Y-59877363D01*
X39126229Y-59889419D01*
X39134274Y-59906990D01*
X39139032Y-59919922D01*
X39167020Y-59965061D01*
X39171990Y-59973848D01*
X39195064Y-60018746D01*
X39198893Y-60023577D01*
X39202231Y-60028757D01*
X39202227Y-60028760D01*
X39209573Y-60039776D01*
X39213409Y-60046695D01*
X39217562Y-60051540D01*
X39217563Y-60051542D01*
X39222376Y-60057157D01*
X39233790Y-60072751D01*
X39241054Y-60084467D01*
X39274968Y-60120330D01*
X39282157Y-60128630D01*
X39311152Y-60165212D01*
X39315845Y-60169206D01*
X39315846Y-60169207D01*
X39317786Y-60170858D01*
X39331792Y-60184815D01*
X39335249Y-60188849D01*
X39335252Y-60188852D01*
X39339403Y-60193695D01*
X39350291Y-60202141D01*
X39364610Y-60215123D01*
X39374079Y-60225137D01*
X39379305Y-60228796D01*
X39411432Y-60251292D01*
X39420824Y-60258551D01*
X39453478Y-60286342D01*
X39458857Y-60289348D01*
X39458858Y-60289349D01*
X39464401Y-60292447D01*
X39480150Y-60302871D01*
X39487335Y-60308444D01*
X39487340Y-60308447D01*
X39492382Y-60312358D01*
X39504743Y-60318440D01*
X39521388Y-60328284D01*
X39532672Y-60336185D01*
X39571083Y-60352807D01*
X39582507Y-60358454D01*
X39616621Y-60377519D01*
X39622482Y-60379423D01*
X39622486Y-60379425D01*
X39632134Y-60382560D01*
X39648829Y-60389339D01*
X39660371Y-60395019D01*
X39660380Y-60395023D01*
X39666098Y-60397836D01*
X39672271Y-60399444D01*
X39672274Y-60399445D01*
X39679429Y-60401309D01*
X39697705Y-60407602D01*
X39710355Y-60413076D01*
X39716602Y-60414381D01*
X39716605Y-60414382D01*
X39734974Y-60418219D01*
X39747642Y-60420866D01*
X39760809Y-60424369D01*
X39788507Y-60433369D01*
X39788516Y-60433371D01*
X39794367Y-60435272D01*
X39800479Y-60436001D01*
X39800480Y-60436001D01*
X39814328Y-60437652D01*
X39831172Y-60440835D01*
X39853453Y-60446639D01*
X39867214Y-60447360D01*
X39886383Y-60449849D01*
X39899871Y-60452667D01*
X39906224Y-60453000D01*
X39906218Y-60453117D01*
X39909500Y-60453543D01*
X39909358Y-60454639D01*
X39971526Y-60474669D01*
X39989759Y-60489759D01*
X40500000Y-61000000D01*
X42600064Y-61000000D01*
X42668185Y-61020002D01*
X42689159Y-61036905D01*
X42815196Y-61162942D01*
X42817648Y-61165463D01*
X42874079Y-61225137D01*
X42920958Y-61257962D01*
X42928322Y-61263532D01*
X42967740Y-61295680D01*
X42967744Y-61295683D01*
X42972687Y-61299714D01*
X42996642Y-61312238D01*
X43010536Y-61320685D01*
X43027441Y-61332523D01*
X43027447Y-61332526D01*
X43032672Y-61336185D01*
X43038526Y-61338718D01*
X43038529Y-61338720D01*
X43085201Y-61358917D01*
X43093534Y-61362892D01*
X43138606Y-61386455D01*
X43138609Y-61386456D01*
X43144261Y-61389411D01*
X43150393Y-61391169D01*
X43150397Y-61391171D01*
X43170245Y-61396862D01*
X43185547Y-61402341D01*
X43210355Y-61413076D01*
X43266404Y-61424785D01*
X43275327Y-61426993D01*
X43330368Y-61442776D01*
X43354082Y-61444601D01*
X43357320Y-61444850D01*
X43373418Y-61447141D01*
X43395139Y-61451679D01*
X43395145Y-61451680D01*
X43399871Y-61452667D01*
X43406224Y-61453000D01*
X43458400Y-61453000D01*
X43468064Y-61453371D01*
X43481004Y-61454367D01*
X43517045Y-61457140D01*
X43517048Y-61457140D01*
X43523404Y-61457629D01*
X43552193Y-61453992D01*
X43567971Y-61453000D01*
X46053065Y-61453000D01*
X46121186Y-61473002D01*
X46142160Y-61489905D01*
X46169247Y-61516992D01*
X46190354Y-61545001D01*
X46191462Y-61547000D01*
X46213409Y-61586593D01*
X46231005Y-61607123D01*
X46240762Y-61620119D01*
X46250028Y-61634278D01*
X46255561Y-61642733D01*
X46259818Y-61647461D01*
X46296710Y-61684353D01*
X46303283Y-61691451D01*
X46339403Y-61733593D01*
X46344440Y-61737500D01*
X46344442Y-61737502D01*
X46362330Y-61751377D01*
X46374199Y-61761842D01*
X46510095Y-61897738D01*
X46544121Y-61960050D01*
X46547000Y-61986833D01*
X46547000Y-68374000D01*
X46526998Y-68442121D01*
X46473342Y-68488614D01*
X46421000Y-68500000D01*
X42000000Y-68500000D01*
X41000000Y-69500000D01*
X41000000Y-84246682D01*
X40979998Y-84314803D01*
X40948062Y-84348617D01*
X40932511Y-84359916D01*
X40927164Y-84363801D01*
X40922743Y-84368711D01*
X40922742Y-84368712D01*
X40872647Y-84424349D01*
X40807409Y-84496803D01*
X40717923Y-84651797D01*
X40662618Y-84822009D01*
X40643910Y-85000000D01*
X40662618Y-85177991D01*
X40717923Y-85348203D01*
X40807409Y-85503197D01*
X40927164Y-85636199D01*
X40932510Y-85640083D01*
X40932511Y-85640084D01*
X40948062Y-85651383D01*
X40991415Y-85707606D01*
X41000000Y-85753318D01*
X41000000Y-89365500D01*
X40979998Y-89433621D01*
X40926342Y-89480114D01*
X40874000Y-89491500D01*
X32626000Y-89491500D01*
X32557879Y-89471498D01*
X32511386Y-89417842D01*
X32500000Y-89365500D01*
X32500000Y-84500000D01*
X30500000Y-82500000D01*
X25634500Y-82500000D01*
X25566379Y-82479998D01*
X25519886Y-82426342D01*
X25508500Y-82374000D01*
X25508500Y-75455151D01*
X32787296Y-75455151D01*
X32799480Y-75708798D01*
X32820444Y-75814190D01*
X32840834Y-75916697D01*
X32849021Y-75957857D01*
X32850600Y-75962255D01*
X32850602Y-75962262D01*
X32895022Y-76085980D01*
X32934831Y-76196858D01*
X33055025Y-76420551D01*
X33057820Y-76424294D01*
X33057822Y-76424297D01*
X33204171Y-76620282D01*
X33204176Y-76620288D01*
X33206963Y-76624020D01*
X33210272Y-76627300D01*
X33210277Y-76627306D01*
X33383990Y-76799509D01*
X33387307Y-76802797D01*
X33391069Y-76805555D01*
X33391072Y-76805558D01*
X33554919Y-76925695D01*
X33592094Y-76952953D01*
X33596229Y-76955129D01*
X33596233Y-76955131D01*
X33638233Y-76977228D01*
X33816827Y-77071191D01*
X34056568Y-77154912D01*
X34306050Y-77202278D01*
X34426532Y-77207011D01*
X34555125Y-77212064D01*
X34555130Y-77212064D01*
X34559793Y-77212247D01*
X34658774Y-77201407D01*
X34807569Y-77185112D01*
X34807575Y-77185111D01*
X34812222Y-77184602D01*
X34921680Y-77155784D01*
X35053273Y-77121138D01*
X35057793Y-77119948D01*
X35216653Y-77051697D01*
X35286807Y-77021557D01*
X35286810Y-77021555D01*
X35291110Y-77019708D01*
X35295090Y-77017245D01*
X35295094Y-77017243D01*
X35503064Y-76888547D01*
X35503066Y-76888545D01*
X35507047Y-76886082D01*
X35510624Y-76883054D01*
X35697289Y-76725031D01*
X35697291Y-76725029D01*
X35700862Y-76722006D01*
X35868295Y-76531084D01*
X36005669Y-76317512D01*
X36109967Y-76085980D01*
X36178896Y-75841575D01*
X36190223Y-75752539D01*
X36210545Y-75592798D01*
X36210545Y-75592792D01*
X36210943Y-75589667D01*
X36213291Y-75500000D01*
X36207033Y-75415787D01*
X36194818Y-75251411D01*
X36194817Y-75251407D01*
X36194472Y-75246759D01*
X36168021Y-75129861D01*
X36139459Y-75003639D01*
X36138428Y-74999082D01*
X36046391Y-74762409D01*
X36025866Y-74726498D01*
X35922702Y-74545997D01*
X35922700Y-74545995D01*
X35920383Y-74541940D01*
X35763171Y-74342517D01*
X35604968Y-74193695D01*
X35581610Y-74171722D01*
X35581608Y-74171720D01*
X35578209Y-74168523D01*
X35490817Y-74107897D01*
X35373393Y-74026437D01*
X35373390Y-74026435D01*
X35369561Y-74023779D01*
X35365384Y-74021719D01*
X35365377Y-74021715D01*
X35145996Y-73913528D01*
X35145992Y-73913527D01*
X35141810Y-73911464D01*
X34899960Y-73834047D01*
X34895355Y-73833297D01*
X34653935Y-73793980D01*
X34653934Y-73793980D01*
X34649323Y-73793229D01*
X34522365Y-73791567D01*
X34400083Y-73789966D01*
X34400080Y-73789966D01*
X34395406Y-73789905D01*
X34143787Y-73824149D01*
X33899993Y-73895208D01*
X33669380Y-74001522D01*
X33665471Y-74004085D01*
X33460928Y-74138189D01*
X33460923Y-74138193D01*
X33457015Y-74140755D01*
X33267562Y-74309848D01*
X33105183Y-74505087D01*
X32973447Y-74722182D01*
X32971638Y-74726496D01*
X32971637Y-74726498D01*
X32949375Y-74779588D01*
X32875246Y-74956365D01*
X32812738Y-75202490D01*
X32787296Y-75455151D01*
X25508500Y-75455151D01*
X25508500Y-67486630D01*
X29042482Y-67486630D01*
X29044165Y-67506677D01*
X29044434Y-67523798D01*
X29043229Y-67546794D01*
X29046468Y-67568209D01*
X29052283Y-67606663D01*
X29053258Y-67614960D01*
X29057605Y-67666724D01*
X29058121Y-67672867D01*
X29059820Y-67678793D01*
X29059863Y-67679028D01*
X29060638Y-67684474D01*
X29061004Y-67686256D01*
X29061650Y-67692616D01*
X29063560Y-67698709D01*
X29063561Y-67698716D01*
X29065770Y-67705764D01*
X29070121Y-67724608D01*
X29072180Y-67738224D01*
X29088799Y-67783394D01*
X29091802Y-67791555D01*
X29094670Y-67800329D01*
X29102524Y-67827718D01*
X29109636Y-67852520D01*
X29112451Y-67857997D01*
X29114721Y-67863731D01*
X29114391Y-67863862D01*
X29115038Y-67865439D01*
X29115122Y-67865403D01*
X29117637Y-67871270D01*
X29119546Y-67877363D01*
X29126229Y-67889419D01*
X29134274Y-67906990D01*
X29139032Y-67919922D01*
X29167020Y-67965061D01*
X29171990Y-67973848D01*
X29186402Y-68001892D01*
X29195064Y-68018746D01*
X29198893Y-68023577D01*
X29202231Y-68028757D01*
X29202227Y-68028760D01*
X29209573Y-68039776D01*
X29213409Y-68046695D01*
X29217562Y-68051540D01*
X29217563Y-68051542D01*
X29222376Y-68057157D01*
X29233790Y-68072751D01*
X29241054Y-68084467D01*
X29274968Y-68120330D01*
X29282157Y-68128630D01*
X29292792Y-68142048D01*
X29311152Y-68165212D01*
X29315845Y-68169206D01*
X29315846Y-68169207D01*
X29317786Y-68170858D01*
X29331792Y-68184815D01*
X29335249Y-68188849D01*
X29335252Y-68188852D01*
X29339403Y-68193695D01*
X29350291Y-68202141D01*
X29364610Y-68215123D01*
X29374079Y-68225137D01*
X29379305Y-68228796D01*
X29411432Y-68251292D01*
X29420824Y-68258551D01*
X29435822Y-68271315D01*
X29453478Y-68286342D01*
X29458857Y-68289348D01*
X29458858Y-68289349D01*
X29464401Y-68292447D01*
X29480150Y-68302871D01*
X29487335Y-68308444D01*
X29487340Y-68308447D01*
X29492382Y-68312358D01*
X29504743Y-68318440D01*
X29521388Y-68328284D01*
X29532672Y-68336185D01*
X29538528Y-68338719D01*
X29571083Y-68352807D01*
X29582507Y-68358454D01*
X29616621Y-68377519D01*
X29622482Y-68379423D01*
X29622486Y-68379425D01*
X29632134Y-68382560D01*
X29648829Y-68389339D01*
X29660371Y-68395019D01*
X29660380Y-68395023D01*
X29666098Y-68397836D01*
X29672271Y-68399444D01*
X29672274Y-68399445D01*
X29679429Y-68401309D01*
X29697705Y-68407602D01*
X29710355Y-68413076D01*
X29716602Y-68414381D01*
X29716605Y-68414382D01*
X29734974Y-68418219D01*
X29747642Y-68420866D01*
X29760809Y-68424369D01*
X29788507Y-68433369D01*
X29788516Y-68433371D01*
X29794367Y-68435272D01*
X29800479Y-68436001D01*
X29800480Y-68436001D01*
X29814328Y-68437652D01*
X29831172Y-68440835D01*
X29853453Y-68446639D01*
X29867214Y-68447360D01*
X29886383Y-68449849D01*
X29899871Y-68452667D01*
X29906224Y-68453000D01*
X29935548Y-68453000D01*
X29950467Y-68453886D01*
X29953527Y-68454251D01*
X29979945Y-68457401D01*
X29986079Y-68456929D01*
X29986083Y-68456929D01*
X30003780Y-68455567D01*
X30020041Y-68455369D01*
X30040412Y-68456437D01*
X30040417Y-68456437D01*
X30046794Y-68456771D01*
X30062361Y-68454417D01*
X30081200Y-68453000D01*
X30935548Y-68453000D01*
X30950467Y-68453886D01*
X30953527Y-68454251D01*
X30979945Y-68457401D01*
X30986080Y-68456929D01*
X30986081Y-68456929D01*
X31018726Y-68454417D01*
X31032322Y-68453371D01*
X31041986Y-68453000D01*
X32435548Y-68453000D01*
X32450467Y-68453886D01*
X32453527Y-68454251D01*
X32479945Y-68457401D01*
X32486080Y-68456929D01*
X32486085Y-68456929D01*
X32490528Y-68456587D01*
X32509858Y-68456587D01*
X32517042Y-68457140D01*
X32517047Y-68457140D01*
X32523404Y-68457629D01*
X32552193Y-68453992D01*
X32567971Y-68453000D01*
X33435548Y-68453000D01*
X33450467Y-68453886D01*
X33453527Y-68454251D01*
X33479945Y-68457401D01*
X33486079Y-68456929D01*
X33486083Y-68456929D01*
X33503780Y-68455567D01*
X33520041Y-68455369D01*
X33540412Y-68456437D01*
X33540417Y-68456437D01*
X33546794Y-68456771D01*
X33602977Y-68448274D01*
X33612152Y-68447228D01*
X33666287Y-68443063D01*
X33672217Y-68441408D01*
X33678290Y-68440337D01*
X33678352Y-68440688D01*
X33680033Y-68440370D01*
X33680014Y-68440279D01*
X33686269Y-68438995D01*
X33692616Y-68438350D01*
X33698704Y-68436442D01*
X33698709Y-68436441D01*
X33705764Y-68434230D01*
X33724608Y-68429879D01*
X33731918Y-68428774D01*
X33731922Y-68428773D01*
X33738224Y-68427820D01*
X33744206Y-68425619D01*
X33744210Y-68425618D01*
X33788043Y-68409490D01*
X33797668Y-68406381D01*
X33813226Y-68402037D01*
X33846296Y-68392804D01*
X33851803Y-68390022D01*
X33857542Y-68387796D01*
X33857544Y-68387802D01*
X33869822Y-68382817D01*
X33870642Y-68382560D01*
X33877363Y-68380454D01*
X33889419Y-68373771D01*
X33906990Y-68365726D01*
X33919922Y-68360968D01*
X33933085Y-68352807D01*
X33961859Y-68334966D01*
X33971439Y-68329590D01*
X34013114Y-68308538D01*
X34019984Y-68303171D01*
X34036459Y-68292265D01*
X34046695Y-68286591D01*
X34051536Y-68282442D01*
X34051540Y-68282439D01*
X34057157Y-68277624D01*
X34072751Y-68266210D01*
X34084467Y-68258946D01*
X34089102Y-68254563D01*
X34089107Y-68254559D01*
X34117600Y-68227613D01*
X34126593Y-68219877D01*
X34160387Y-68193475D01*
X34168563Y-68184003D01*
X34181939Y-68170673D01*
X34193695Y-68160597D01*
X34202141Y-68149709D01*
X34215123Y-68135390D01*
X34225137Y-68125921D01*
X34249139Y-68091642D01*
X34256972Y-68081580D01*
X34271700Y-68064518D01*
X34282507Y-68051998D01*
X34290563Y-68037817D01*
X34300552Y-68022837D01*
X34312358Y-68007618D01*
X34315173Y-68001896D01*
X34315176Y-68001892D01*
X34318440Y-67995257D01*
X34328284Y-67978612D01*
X34332522Y-67972559D01*
X34336185Y-67967328D01*
X34351316Y-67932365D01*
X34357393Y-67920175D01*
X34371779Y-67894850D01*
X34374821Y-67889495D01*
X34377001Y-67882944D01*
X34381168Y-67870415D01*
X34387666Y-67854569D01*
X34397836Y-67833902D01*
X34399447Y-67827718D01*
X34401309Y-67820571D01*
X34407603Y-67802291D01*
X34410540Y-67795505D01*
X34413076Y-67789645D01*
X34420097Y-67756036D01*
X34423877Y-67742028D01*
X34431868Y-67718007D01*
X34431868Y-67718006D01*
X34433814Y-67712157D01*
X34436810Y-67688442D01*
X34439882Y-67672490D01*
X34446639Y-67646547D01*
X34447360Y-67632786D01*
X34449850Y-67613613D01*
X34451678Y-67604864D01*
X34451678Y-67604863D01*
X34452667Y-67600129D01*
X34453000Y-67593776D01*
X34453000Y-67568209D01*
X34453994Y-67552417D01*
X34456796Y-67530241D01*
X34456797Y-67530232D01*
X34457238Y-67526738D01*
X34457611Y-67500000D01*
X34456390Y-67487550D01*
X34455961Y-67468655D01*
X34456771Y-67453206D01*
X34454417Y-67437639D01*
X34453000Y-67418800D01*
X34453000Y-66568209D01*
X34453994Y-66552417D01*
X34456796Y-66530241D01*
X34456797Y-66530232D01*
X34457238Y-66526738D01*
X34457611Y-66500000D01*
X34456390Y-66487550D01*
X34455961Y-66468655D01*
X34456771Y-66453206D01*
X34446604Y-66385981D01*
X34445791Y-66379456D01*
X34444591Y-66367211D01*
X34442637Y-66347286D01*
X34439750Y-66317839D01*
X34439749Y-66317830D01*
X34439373Y-66313999D01*
X34438844Y-66312247D01*
X34438350Y-66307384D01*
X34436443Y-66301299D01*
X34436442Y-66301294D01*
X34434230Y-66294236D01*
X34429879Y-66275392D01*
X34428774Y-66268085D01*
X34427820Y-66261776D01*
X34405615Y-66201424D01*
X34403251Y-66194358D01*
X34392992Y-66160376D01*
X34385355Y-66135083D01*
X34383561Y-66131710D01*
X34383127Y-66130510D01*
X34382361Y-66128724D01*
X34380454Y-66122637D01*
X34373771Y-66110581D01*
X34365726Y-66093010D01*
X34360968Y-66080078D01*
X34329058Y-66028613D01*
X34324892Y-66021368D01*
X34300507Y-65975505D01*
X34300506Y-65975504D01*
X34297615Y-65970066D01*
X34293722Y-65965292D01*
X34293587Y-65965089D01*
X34290728Y-65960387D01*
X34289685Y-65958887D01*
X34286591Y-65953305D01*
X34277624Y-65942842D01*
X34266210Y-65927249D01*
X34258946Y-65915533D01*
X34219891Y-65874234D01*
X34213796Y-65867295D01*
X34191048Y-65839403D01*
X34179493Y-65825235D01*
X34174747Y-65821309D01*
X34170400Y-65816931D01*
X34170654Y-65816679D01*
X34169437Y-65815483D01*
X34169371Y-65815552D01*
X34164754Y-65811155D01*
X34160597Y-65806305D01*
X34149709Y-65797859D01*
X34135390Y-65784877D01*
X34125921Y-65774863D01*
X34082413Y-65744398D01*
X34074377Y-65738276D01*
X34073674Y-65737694D01*
X34062784Y-65728685D01*
X34040239Y-65710034D01*
X34040236Y-65710032D01*
X34035489Y-65706105D01*
X34030068Y-65703174D01*
X34024959Y-65699728D01*
X34024962Y-65699723D01*
X34013879Y-65692498D01*
X34007618Y-65687642D01*
X34001896Y-65684827D01*
X34001892Y-65684824D01*
X33995257Y-65681560D01*
X33978612Y-65671716D01*
X33972559Y-65667478D01*
X33967328Y-65663815D01*
X33961468Y-65661279D01*
X33922023Y-65644209D01*
X33912147Y-65639414D01*
X33871089Y-65617214D01*
X33862762Y-65614636D01*
X33844393Y-65607326D01*
X33839632Y-65604983D01*
X33839628Y-65604981D01*
X33833902Y-65602164D01*
X33827727Y-65600556D01*
X33827720Y-65600553D01*
X33820571Y-65598691D01*
X33802295Y-65592398D01*
X33789645Y-65586924D01*
X33772260Y-65583292D01*
X33744996Y-65577596D01*
X33733512Y-65574626D01*
X33692554Y-65561948D01*
X33680110Y-65560640D01*
X33661519Y-65557261D01*
X33652729Y-65554971D01*
X33652726Y-65554971D01*
X33646547Y-65553361D01*
X33632786Y-65552640D01*
X33613617Y-65550151D01*
X33600129Y-65547333D01*
X33593776Y-65547000D01*
X33556942Y-65547000D01*
X33543771Y-65546310D01*
X33512813Y-65543056D01*
X33512812Y-65543056D01*
X33506685Y-65542412D01*
X33490434Y-65543891D01*
X33472429Y-65544236D01*
X33459589Y-65543563D01*
X33459584Y-65543563D01*
X33453206Y-65543229D01*
X33446892Y-65544184D01*
X33446889Y-65544184D01*
X33441134Y-65545055D01*
X33437639Y-65545583D01*
X33418800Y-65547000D01*
X32556942Y-65547000D01*
X32543771Y-65546310D01*
X32512813Y-65543056D01*
X32512812Y-65543056D01*
X32506685Y-65542412D01*
X32463855Y-65546310D01*
X32461976Y-65546481D01*
X32450556Y-65547000D01*
X31056942Y-65547000D01*
X31043771Y-65546310D01*
X31012813Y-65543056D01*
X31012812Y-65543056D01*
X31006685Y-65542412D01*
X30963855Y-65546310D01*
X30961976Y-65546481D01*
X30950556Y-65547000D01*
X30056942Y-65547000D01*
X30043771Y-65546310D01*
X30012813Y-65543056D01*
X30012812Y-65543056D01*
X30006685Y-65542412D01*
X29990434Y-65543891D01*
X29972429Y-65544236D01*
X29959589Y-65543563D01*
X29959584Y-65543563D01*
X29953206Y-65543229D01*
X29889647Y-65552841D01*
X29882239Y-65553737D01*
X29820562Y-65559351D01*
X29816889Y-65560432D01*
X29815637Y-65560615D01*
X29813736Y-65561005D01*
X29807384Y-65561650D01*
X29801294Y-65563559D01*
X29801287Y-65563560D01*
X29794236Y-65565770D01*
X29775392Y-65570121D01*
X29761776Y-65572180D01*
X29704918Y-65593100D01*
X29697034Y-65595707D01*
X29641273Y-65612119D01*
X29635815Y-65614972D01*
X29635611Y-65615055D01*
X29630405Y-65616919D01*
X29628731Y-65617636D01*
X29622637Y-65619546D01*
X29610581Y-65626229D01*
X29593010Y-65634274D01*
X29580078Y-65639032D01*
X29574658Y-65642392D01*
X29574657Y-65642393D01*
X29531780Y-65668978D01*
X29523763Y-65673551D01*
X29475647Y-65698705D01*
X29470843Y-65702567D01*
X29465690Y-65705939D01*
X29465495Y-65705641D01*
X29464073Y-65706597D01*
X29464126Y-65706673D01*
X29458886Y-65710315D01*
X29453305Y-65713409D01*
X29448461Y-65717561D01*
X29442843Y-65722376D01*
X29427249Y-65733790D01*
X29415533Y-65741054D01*
X29410893Y-65745442D01*
X29376962Y-65777529D01*
X29369340Y-65784178D01*
X29329995Y-65815813D01*
X29326033Y-65820535D01*
X29321633Y-65824844D01*
X29321629Y-65824840D01*
X29312314Y-65834253D01*
X29306305Y-65839403D01*
X29297859Y-65850291D01*
X29284877Y-65864610D01*
X29274863Y-65874079D01*
X29271203Y-65879306D01*
X29246556Y-65914505D01*
X29239865Y-65923225D01*
X29209862Y-65958981D01*
X29205662Y-65966622D01*
X29194811Y-65983140D01*
X29191554Y-65987338D01*
X29191551Y-65987342D01*
X29187642Y-65992382D01*
X29184827Y-65998104D01*
X29184824Y-65998108D01*
X29181560Y-66004743D01*
X29171716Y-66021388D01*
X29163815Y-66032672D01*
X29161279Y-66038531D01*
X29161279Y-66038532D01*
X29145700Y-66074532D01*
X29140485Y-66085178D01*
X29119826Y-66122757D01*
X29116040Y-66134692D01*
X29108996Y-66152213D01*
X29102164Y-66166098D01*
X29100556Y-66172271D01*
X29100555Y-66172274D01*
X29098691Y-66179429D01*
X29092398Y-66197705D01*
X29086924Y-66210355D01*
X29085618Y-66216607D01*
X29078367Y-66251319D01*
X29075130Y-66263656D01*
X29065177Y-66295028D01*
X29065175Y-66295039D01*
X29063315Y-66300901D01*
X29062628Y-66307021D01*
X29062627Y-66307028D01*
X29061495Y-66317116D01*
X29058215Y-66334817D01*
X29053361Y-66353453D01*
X29053027Y-66359825D01*
X29052640Y-66367211D01*
X29050151Y-66386383D01*
X29047333Y-66399871D01*
X29047000Y-66406224D01*
X29047000Y-66439304D01*
X29046215Y-66453349D01*
X29042482Y-66486630D01*
X29044165Y-66506677D01*
X29044434Y-66523798D01*
X29043229Y-66546794D01*
X29044184Y-66553108D01*
X29044184Y-66553111D01*
X29045583Y-66562358D01*
X29047000Y-66581200D01*
X29047000Y-67439304D01*
X29046215Y-67453349D01*
X29042482Y-67486630D01*
X25508500Y-67486630D01*
X25508500Y-63486630D01*
X29042482Y-63486630D01*
X29044165Y-63506677D01*
X29044434Y-63523798D01*
X29043229Y-63546794D01*
X29046468Y-63568209D01*
X29052283Y-63606663D01*
X29053258Y-63614960D01*
X29057605Y-63666724D01*
X29058121Y-63672867D01*
X29059820Y-63678793D01*
X29059863Y-63679028D01*
X29060638Y-63684474D01*
X29061004Y-63686256D01*
X29061650Y-63692616D01*
X29063560Y-63698709D01*
X29063561Y-63698716D01*
X29065770Y-63705764D01*
X29070121Y-63724608D01*
X29072180Y-63738224D01*
X29088799Y-63783394D01*
X29091802Y-63791555D01*
X29094670Y-63800329D01*
X29102524Y-63827718D01*
X29109636Y-63852520D01*
X29112451Y-63857997D01*
X29114721Y-63863731D01*
X29114391Y-63863862D01*
X29115038Y-63865439D01*
X29115122Y-63865403D01*
X29117637Y-63871270D01*
X29119546Y-63877363D01*
X29126229Y-63889419D01*
X29134274Y-63906990D01*
X29139032Y-63919922D01*
X29167020Y-63965061D01*
X29171990Y-63973848D01*
X29186402Y-64001892D01*
X29195064Y-64018746D01*
X29198893Y-64023577D01*
X29202231Y-64028757D01*
X29202227Y-64028760D01*
X29209573Y-64039776D01*
X29213409Y-64046695D01*
X29217562Y-64051540D01*
X29217563Y-64051542D01*
X29222376Y-64057157D01*
X29233790Y-64072751D01*
X29241054Y-64084467D01*
X29274968Y-64120330D01*
X29282157Y-64128630D01*
X29292792Y-64142048D01*
X29311152Y-64165212D01*
X29315845Y-64169206D01*
X29315846Y-64169207D01*
X29317786Y-64170858D01*
X29331792Y-64184815D01*
X29335249Y-64188849D01*
X29335252Y-64188852D01*
X29339403Y-64193695D01*
X29350291Y-64202141D01*
X29364610Y-64215123D01*
X29374079Y-64225137D01*
X29379305Y-64228796D01*
X29411432Y-64251292D01*
X29420824Y-64258551D01*
X29435822Y-64271315D01*
X29453478Y-64286342D01*
X29458857Y-64289348D01*
X29458858Y-64289349D01*
X29464401Y-64292447D01*
X29480150Y-64302871D01*
X29487335Y-64308444D01*
X29487340Y-64308447D01*
X29492382Y-64312358D01*
X29504743Y-64318440D01*
X29521388Y-64328284D01*
X29532672Y-64336185D01*
X29538528Y-64338719D01*
X29571083Y-64352807D01*
X29582507Y-64358454D01*
X29616621Y-64377519D01*
X29622482Y-64379423D01*
X29622486Y-64379425D01*
X29632134Y-64382560D01*
X29648829Y-64389339D01*
X29660371Y-64395019D01*
X29660380Y-64395023D01*
X29666098Y-64397836D01*
X29672271Y-64399444D01*
X29672274Y-64399445D01*
X29679429Y-64401309D01*
X29697705Y-64407602D01*
X29710355Y-64413076D01*
X29716602Y-64414381D01*
X29716605Y-64414382D01*
X29734974Y-64418219D01*
X29747642Y-64420866D01*
X29760809Y-64424369D01*
X29788507Y-64433369D01*
X29788516Y-64433371D01*
X29794367Y-64435272D01*
X29800479Y-64436001D01*
X29800480Y-64436001D01*
X29814328Y-64437652D01*
X29831172Y-64440835D01*
X29853453Y-64446639D01*
X29867214Y-64447360D01*
X29886383Y-64449849D01*
X29899871Y-64452667D01*
X29906224Y-64453000D01*
X29935548Y-64453000D01*
X29950467Y-64453886D01*
X29951574Y-64454018D01*
X29979945Y-64457401D01*
X29986079Y-64456929D01*
X29986083Y-64456929D01*
X30003780Y-64455567D01*
X30020041Y-64455369D01*
X30040412Y-64456437D01*
X30040417Y-64456437D01*
X30046794Y-64456771D01*
X30062361Y-64454417D01*
X30081200Y-64453000D01*
X30935548Y-64453000D01*
X30950467Y-64453886D01*
X30951574Y-64454018D01*
X30979945Y-64457401D01*
X30986080Y-64456929D01*
X30986081Y-64456929D01*
X30992475Y-64456437D01*
X31017030Y-64454548D01*
X31030199Y-64454226D01*
X31051666Y-64454826D01*
X31063774Y-64455164D01*
X31063776Y-64455164D01*
X31070156Y-64455342D01*
X31076442Y-64454234D01*
X31082808Y-64453766D01*
X31082827Y-64454018D01*
X31094463Y-64453000D01*
X32435548Y-64453000D01*
X32450467Y-64453886D01*
X32451574Y-64454018D01*
X32479945Y-64457401D01*
X32486080Y-64456929D01*
X32486085Y-64456929D01*
X32490528Y-64456587D01*
X32509858Y-64456587D01*
X32517042Y-64457140D01*
X32517047Y-64457140D01*
X32523404Y-64457629D01*
X32552193Y-64453992D01*
X32567971Y-64453000D01*
X33435548Y-64453000D01*
X33450467Y-64453886D01*
X33451574Y-64454018D01*
X33479945Y-64457401D01*
X33486079Y-64456929D01*
X33486083Y-64456929D01*
X33503780Y-64455567D01*
X33520041Y-64455369D01*
X33540412Y-64456437D01*
X33540417Y-64456437D01*
X33546794Y-64456771D01*
X33602977Y-64448274D01*
X33612152Y-64447228D01*
X33666287Y-64443063D01*
X33672217Y-64441408D01*
X33678290Y-64440337D01*
X33678352Y-64440688D01*
X33680033Y-64440370D01*
X33680014Y-64440279D01*
X33686269Y-64438995D01*
X33692616Y-64438350D01*
X33698704Y-64436442D01*
X33698709Y-64436441D01*
X33705764Y-64434230D01*
X33724608Y-64429879D01*
X33731918Y-64428774D01*
X33731922Y-64428773D01*
X33738224Y-64427820D01*
X33744206Y-64425619D01*
X33744210Y-64425618D01*
X33788043Y-64409490D01*
X33797668Y-64406381D01*
X33813226Y-64402037D01*
X33846296Y-64392804D01*
X33851803Y-64390022D01*
X33857542Y-64387796D01*
X33857544Y-64387802D01*
X33869822Y-64382817D01*
X33870642Y-64382560D01*
X33877363Y-64380454D01*
X33889419Y-64373771D01*
X33906990Y-64365726D01*
X33919922Y-64360968D01*
X33933085Y-64352807D01*
X33961859Y-64334966D01*
X33971439Y-64329590D01*
X34013114Y-64308538D01*
X34019984Y-64303171D01*
X34036459Y-64292265D01*
X34046695Y-64286591D01*
X34051536Y-64282442D01*
X34051540Y-64282439D01*
X34057157Y-64277624D01*
X34072751Y-64266210D01*
X34084467Y-64258946D01*
X34089102Y-64254563D01*
X34089107Y-64254559D01*
X34117600Y-64227613D01*
X34126593Y-64219877D01*
X34160387Y-64193475D01*
X34168563Y-64184003D01*
X34181939Y-64170673D01*
X34193695Y-64160597D01*
X34202141Y-64149709D01*
X34215123Y-64135390D01*
X34225137Y-64125921D01*
X34249139Y-64091642D01*
X34256972Y-64081580D01*
X34271700Y-64064518D01*
X34282507Y-64051998D01*
X34290563Y-64037817D01*
X34300552Y-64022837D01*
X34312358Y-64007618D01*
X34315173Y-64001896D01*
X34315176Y-64001892D01*
X34318440Y-63995257D01*
X34328284Y-63978612D01*
X34332522Y-63972559D01*
X34336185Y-63967328D01*
X34351316Y-63932365D01*
X34357393Y-63920175D01*
X34371779Y-63894850D01*
X34374821Y-63889495D01*
X34377001Y-63882944D01*
X34381168Y-63870415D01*
X34387666Y-63854569D01*
X34397836Y-63833902D01*
X34399447Y-63827718D01*
X34401309Y-63820571D01*
X34407603Y-63802291D01*
X34410540Y-63795505D01*
X34413076Y-63789645D01*
X34420097Y-63756036D01*
X34423877Y-63742028D01*
X34431868Y-63718007D01*
X34431868Y-63718006D01*
X34433814Y-63712157D01*
X34436810Y-63688442D01*
X34439882Y-63672490D01*
X34446639Y-63646547D01*
X34447360Y-63632786D01*
X34449850Y-63613613D01*
X34451678Y-63604864D01*
X34451678Y-63604863D01*
X34452667Y-63600129D01*
X34453000Y-63593776D01*
X34453000Y-63568209D01*
X34453994Y-63552417D01*
X34456796Y-63530241D01*
X34456797Y-63530232D01*
X34457238Y-63526738D01*
X34457611Y-63500000D01*
X34456390Y-63487550D01*
X34455961Y-63468655D01*
X34456771Y-63453206D01*
X34454417Y-63437639D01*
X34453000Y-63418800D01*
X34453000Y-62568209D01*
X34453994Y-62552417D01*
X34456796Y-62530241D01*
X34456797Y-62530232D01*
X34457238Y-62526738D01*
X34457611Y-62500000D01*
X34456390Y-62487550D01*
X34455961Y-62468655D01*
X34456771Y-62453206D01*
X34446604Y-62385981D01*
X34445791Y-62379456D01*
X34444591Y-62367211D01*
X34442637Y-62347286D01*
X34439750Y-62317839D01*
X34439749Y-62317830D01*
X34439373Y-62313999D01*
X34438844Y-62312247D01*
X34438350Y-62307384D01*
X34436443Y-62301299D01*
X34436442Y-62301294D01*
X34434230Y-62294236D01*
X34429879Y-62275392D01*
X34428774Y-62268085D01*
X34427820Y-62261776D01*
X34405615Y-62201424D01*
X34403251Y-62194358D01*
X34392992Y-62160376D01*
X34385355Y-62135083D01*
X34383561Y-62131710D01*
X34383127Y-62130510D01*
X34382361Y-62128724D01*
X34380454Y-62122637D01*
X34373771Y-62110581D01*
X34365726Y-62093010D01*
X34360968Y-62080078D01*
X34329058Y-62028613D01*
X34324892Y-62021368D01*
X34300507Y-61975505D01*
X34300506Y-61975504D01*
X34297615Y-61970066D01*
X34293722Y-61965292D01*
X34293587Y-61965089D01*
X34290728Y-61960387D01*
X34289685Y-61958887D01*
X34286591Y-61953305D01*
X34277624Y-61942842D01*
X34266210Y-61927249D01*
X34258946Y-61915533D01*
X34219891Y-61874234D01*
X34213796Y-61867295D01*
X34191048Y-61839403D01*
X34179493Y-61825235D01*
X34174747Y-61821309D01*
X34170400Y-61816931D01*
X34170654Y-61816679D01*
X34169437Y-61815483D01*
X34169371Y-61815552D01*
X34164754Y-61811155D01*
X34160597Y-61806305D01*
X34149709Y-61797859D01*
X34135390Y-61784877D01*
X34125921Y-61774863D01*
X34082413Y-61744398D01*
X34074377Y-61738276D01*
X34073674Y-61737694D01*
X34062784Y-61728685D01*
X34040239Y-61710034D01*
X34040236Y-61710032D01*
X34035489Y-61706105D01*
X34030068Y-61703174D01*
X34024959Y-61699728D01*
X34024962Y-61699723D01*
X34013879Y-61692498D01*
X34007618Y-61687642D01*
X34001896Y-61684827D01*
X34001892Y-61684824D01*
X33995257Y-61681560D01*
X33978612Y-61671716D01*
X33972559Y-61667478D01*
X33967328Y-61663815D01*
X33932271Y-61648644D01*
X33922023Y-61644209D01*
X33912147Y-61639414D01*
X33871089Y-61617214D01*
X33862762Y-61614636D01*
X33844393Y-61607326D01*
X33839632Y-61604983D01*
X33839628Y-61604981D01*
X33833902Y-61602164D01*
X33827727Y-61600556D01*
X33827720Y-61600553D01*
X33820571Y-61598691D01*
X33802295Y-61592398D01*
X33789645Y-61586924D01*
X33761332Y-61581009D01*
X33744996Y-61577596D01*
X33733512Y-61574626D01*
X33692554Y-61561948D01*
X33680110Y-61560640D01*
X33661519Y-61557261D01*
X33652729Y-61554971D01*
X33652726Y-61554971D01*
X33646547Y-61553361D01*
X33632786Y-61552640D01*
X33613617Y-61550151D01*
X33600129Y-61547333D01*
X33593776Y-61547000D01*
X33556942Y-61547000D01*
X33543771Y-61546310D01*
X33512813Y-61543056D01*
X33512812Y-61543056D01*
X33506685Y-61542412D01*
X33490434Y-61543891D01*
X33472429Y-61544236D01*
X33459589Y-61543563D01*
X33459584Y-61543563D01*
X33453206Y-61543229D01*
X33446892Y-61544184D01*
X33446889Y-61544184D01*
X33441489Y-61545001D01*
X33437639Y-61545583D01*
X33418800Y-61547000D01*
X32556942Y-61547000D01*
X32543771Y-61546310D01*
X32512813Y-61543056D01*
X32512812Y-61543056D01*
X32506685Y-61542412D01*
X32463855Y-61546310D01*
X32461976Y-61546481D01*
X32450556Y-61547000D01*
X31541600Y-61547000D01*
X31531936Y-61546629D01*
X31518340Y-61545583D01*
X31482955Y-61542860D01*
X31482952Y-61542860D01*
X31476596Y-61542371D01*
X31470264Y-61543171D01*
X31464965Y-61543301D01*
X31459592Y-61543564D01*
X31453206Y-61543229D01*
X31437639Y-61545583D01*
X31418800Y-61547000D01*
X31056942Y-61547000D01*
X31043771Y-61546310D01*
X31012813Y-61543056D01*
X31012812Y-61543056D01*
X31006685Y-61542412D01*
X30963855Y-61546310D01*
X30961976Y-61546481D01*
X30950556Y-61547000D01*
X30056942Y-61547000D01*
X30043771Y-61546310D01*
X30012813Y-61543056D01*
X30012812Y-61543056D01*
X30006685Y-61542412D01*
X29990434Y-61543891D01*
X29972429Y-61544236D01*
X29959589Y-61543563D01*
X29959584Y-61543563D01*
X29953206Y-61543229D01*
X29889647Y-61552841D01*
X29882239Y-61553737D01*
X29820562Y-61559351D01*
X29816889Y-61560432D01*
X29815637Y-61560615D01*
X29813736Y-61561005D01*
X29807384Y-61561650D01*
X29801294Y-61563559D01*
X29801287Y-61563560D01*
X29794236Y-61565770D01*
X29775392Y-61570121D01*
X29761776Y-61572180D01*
X29704918Y-61593100D01*
X29697034Y-61595707D01*
X29641273Y-61612119D01*
X29635815Y-61614972D01*
X29635611Y-61615055D01*
X29630405Y-61616919D01*
X29628731Y-61617636D01*
X29622637Y-61619546D01*
X29610581Y-61626229D01*
X29593010Y-61634274D01*
X29580078Y-61639032D01*
X29574658Y-61642392D01*
X29574657Y-61642393D01*
X29531780Y-61668978D01*
X29523763Y-61673551D01*
X29475647Y-61698705D01*
X29470843Y-61702567D01*
X29465690Y-61705939D01*
X29465495Y-61705641D01*
X29464073Y-61706597D01*
X29464126Y-61706673D01*
X29458886Y-61710315D01*
X29453305Y-61713409D01*
X29448461Y-61717561D01*
X29442843Y-61722376D01*
X29427249Y-61733790D01*
X29415533Y-61741054D01*
X29389358Y-61765806D01*
X29376962Y-61777529D01*
X29369340Y-61784178D01*
X29329995Y-61815813D01*
X29326033Y-61820535D01*
X29321633Y-61824844D01*
X29321629Y-61824840D01*
X29312314Y-61834253D01*
X29306305Y-61839403D01*
X29297859Y-61850291D01*
X29284877Y-61864610D01*
X29274863Y-61874079D01*
X29271203Y-61879306D01*
X29246556Y-61914505D01*
X29239865Y-61923225D01*
X29209862Y-61958981D01*
X29205662Y-61966622D01*
X29194811Y-61983140D01*
X29191554Y-61987338D01*
X29191551Y-61987342D01*
X29187642Y-61992382D01*
X29184827Y-61998104D01*
X29184824Y-61998108D01*
X29181560Y-62004743D01*
X29171716Y-62021388D01*
X29163815Y-62032672D01*
X29161279Y-62038531D01*
X29161279Y-62038532D01*
X29145700Y-62074532D01*
X29140485Y-62085178D01*
X29119826Y-62122757D01*
X29116040Y-62134692D01*
X29108996Y-62152213D01*
X29102164Y-62166098D01*
X29100556Y-62172271D01*
X29100555Y-62172274D01*
X29098691Y-62179429D01*
X29092398Y-62197705D01*
X29086924Y-62210355D01*
X29085618Y-62216607D01*
X29078367Y-62251319D01*
X29075130Y-62263656D01*
X29065177Y-62295028D01*
X29065175Y-62295039D01*
X29063315Y-62300901D01*
X29062628Y-62307021D01*
X29062627Y-62307028D01*
X29061495Y-62317116D01*
X29058215Y-62334817D01*
X29053361Y-62353453D01*
X29053027Y-62359825D01*
X29052640Y-62367211D01*
X29050151Y-62386383D01*
X29047333Y-62399871D01*
X29047000Y-62406224D01*
X29047000Y-62439304D01*
X29046215Y-62453349D01*
X29042482Y-62486630D01*
X29044165Y-62506677D01*
X29044434Y-62523798D01*
X29043229Y-62546794D01*
X29044184Y-62553108D01*
X29044184Y-62553111D01*
X29045583Y-62562358D01*
X29047000Y-62581200D01*
X29047000Y-63439304D01*
X29046215Y-63453349D01*
X29042482Y-63486630D01*
X25508500Y-63486630D01*
X25508500Y-53955151D01*
X32787296Y-53955151D01*
X32799480Y-54208798D01*
X32849021Y-54457857D01*
X32850600Y-54462255D01*
X32850602Y-54462262D01*
X32895022Y-54585980D01*
X32934831Y-54696858D01*
X33055025Y-54920551D01*
X33057820Y-54924294D01*
X33057822Y-54924297D01*
X33204171Y-55120282D01*
X33204176Y-55120288D01*
X33206963Y-55124020D01*
X33210272Y-55127300D01*
X33210277Y-55127306D01*
X33308859Y-55225031D01*
X33387307Y-55302797D01*
X33391069Y-55305555D01*
X33391072Y-55305558D01*
X33456457Y-55353500D01*
X33592094Y-55452953D01*
X33596229Y-55455129D01*
X33596233Y-55455131D01*
X33660140Y-55488754D01*
X33816827Y-55571191D01*
X34056568Y-55654912D01*
X34306050Y-55702278D01*
X34426532Y-55707011D01*
X34555125Y-55712064D01*
X34555130Y-55712064D01*
X34559793Y-55712247D01*
X34658774Y-55701407D01*
X34807569Y-55685112D01*
X34807575Y-55685111D01*
X34812222Y-55684602D01*
X34921680Y-55655784D01*
X35053273Y-55621138D01*
X35057793Y-55619948D01*
X35176353Y-55569011D01*
X35286807Y-55521557D01*
X35286810Y-55521555D01*
X35291110Y-55519708D01*
X35295090Y-55517245D01*
X35295094Y-55517243D01*
X35503064Y-55388547D01*
X35503066Y-55388545D01*
X35507047Y-55386082D01*
X35605428Y-55302797D01*
X35697289Y-55225031D01*
X35697291Y-55225029D01*
X35700862Y-55222006D01*
X35868295Y-55031084D01*
X36005669Y-54817512D01*
X36109967Y-54585980D01*
X36178896Y-54341575D01*
X36210943Y-54089667D01*
X36213291Y-54000000D01*
X36194472Y-53746759D01*
X36160555Y-53596866D01*
X36139459Y-53503639D01*
X36138428Y-53499082D01*
X36046391Y-53262409D01*
X36025866Y-53226498D01*
X35922702Y-53045997D01*
X35922700Y-53045995D01*
X35920383Y-53041940D01*
X35763171Y-52842517D01*
X35578209Y-52668523D01*
X35534483Y-52638189D01*
X35373393Y-52526437D01*
X35373390Y-52526435D01*
X35369561Y-52523779D01*
X35365384Y-52521719D01*
X35365377Y-52521715D01*
X35145996Y-52413528D01*
X35145992Y-52413527D01*
X35141810Y-52411464D01*
X34899960Y-52334047D01*
X34895355Y-52333297D01*
X34653935Y-52293980D01*
X34653934Y-52293980D01*
X34649323Y-52293229D01*
X34522364Y-52291567D01*
X34400083Y-52289966D01*
X34400080Y-52289966D01*
X34395406Y-52289905D01*
X34143787Y-52324149D01*
X33899993Y-52395208D01*
X33669380Y-52501522D01*
X33665471Y-52504085D01*
X33460928Y-52638189D01*
X33460923Y-52638193D01*
X33457015Y-52640755D01*
X33267562Y-52809848D01*
X33105183Y-53005087D01*
X32973447Y-53222182D01*
X32971638Y-53226496D01*
X32971637Y-53226498D01*
X32899597Y-53398295D01*
X32875246Y-53456365D01*
X32812738Y-53702490D01*
X32787296Y-53955151D01*
X25508500Y-53955151D01*
X25508500Y-39955151D01*
X32787296Y-39955151D01*
X32799480Y-40208798D01*
X32849021Y-40457857D01*
X32850600Y-40462255D01*
X32850602Y-40462262D01*
X32895022Y-40585980D01*
X32934831Y-40696858D01*
X33055025Y-40920551D01*
X33057820Y-40924294D01*
X33057822Y-40924297D01*
X33204171Y-41120282D01*
X33204176Y-41120288D01*
X33206963Y-41124020D01*
X33210272Y-41127300D01*
X33210277Y-41127306D01*
X33308859Y-41225031D01*
X33387307Y-41302797D01*
X33391069Y-41305555D01*
X33391072Y-41305558D01*
X33496764Y-41383054D01*
X33592094Y-41452953D01*
X33596229Y-41455129D01*
X33596233Y-41455131D01*
X33714289Y-41517243D01*
X33816827Y-41571191D01*
X34056568Y-41654912D01*
X34306050Y-41702278D01*
X34426532Y-41707011D01*
X34555125Y-41712064D01*
X34555130Y-41712064D01*
X34559793Y-41712247D01*
X34658774Y-41701407D01*
X34807569Y-41685112D01*
X34807575Y-41685111D01*
X34812222Y-41684602D01*
X34921680Y-41655784D01*
X35053273Y-41621138D01*
X35057793Y-41619948D01*
X35176353Y-41569011D01*
X35286807Y-41521557D01*
X35286810Y-41521555D01*
X35291110Y-41519708D01*
X35295090Y-41517245D01*
X35295094Y-41517243D01*
X35503064Y-41388547D01*
X35503066Y-41388545D01*
X35507047Y-41386082D01*
X35605428Y-41302797D01*
X35697289Y-41225031D01*
X35697291Y-41225029D01*
X35700862Y-41222006D01*
X35868295Y-41031084D01*
X36005669Y-40817512D01*
X36109967Y-40585980D01*
X36178896Y-40341575D01*
X36210943Y-40089667D01*
X36213291Y-40000000D01*
X36194472Y-39746759D01*
X36138428Y-39499082D01*
X36046391Y-39262409D01*
X36025866Y-39226498D01*
X35922702Y-39045997D01*
X35922700Y-39045995D01*
X35920383Y-39041940D01*
X35763171Y-38842517D01*
X35578209Y-38668523D01*
X35534483Y-38638189D01*
X35373393Y-38526437D01*
X35373390Y-38526435D01*
X35369561Y-38523779D01*
X35365384Y-38521719D01*
X35365377Y-38521715D01*
X35145996Y-38413528D01*
X35145992Y-38413527D01*
X35141810Y-38411464D01*
X34899960Y-38334047D01*
X34895355Y-38333297D01*
X34653935Y-38293980D01*
X34653934Y-38293980D01*
X34649323Y-38293229D01*
X34522365Y-38291567D01*
X34400083Y-38289966D01*
X34400080Y-38289966D01*
X34395406Y-38289905D01*
X34143787Y-38324149D01*
X33899993Y-38395208D01*
X33669380Y-38501522D01*
X33665471Y-38504085D01*
X33460928Y-38638189D01*
X33460923Y-38638193D01*
X33457015Y-38640755D01*
X33267562Y-38809848D01*
X33105183Y-39005087D01*
X32973447Y-39222182D01*
X32875246Y-39456365D01*
X32812738Y-39702490D01*
X32787296Y-39955151D01*
X25508500Y-39955151D01*
X25508500Y-23952526D01*
X27687050Y-23952526D01*
X27699947Y-24221019D01*
X27752388Y-24484656D01*
X27843220Y-24737646D01*
X27970450Y-24974431D01*
X27973241Y-24978168D01*
X27973245Y-24978175D01*
X28054887Y-25087506D01*
X28131281Y-25189810D01*
X28134590Y-25193090D01*
X28134595Y-25193096D01*
X28318863Y-25375762D01*
X28322180Y-25379050D01*
X28325942Y-25381808D01*
X28325945Y-25381811D01*
X28438299Y-25464192D01*
X28538954Y-25537995D01*
X28543089Y-25540171D01*
X28543093Y-25540173D01*
X28772698Y-25660975D01*
X28776840Y-25663154D01*
X29030613Y-25751775D01*
X29035206Y-25752647D01*
X29290109Y-25801042D01*
X29290112Y-25801042D01*
X29294698Y-25801913D01*
X29422370Y-25806929D01*
X29558625Y-25812283D01*
X29558630Y-25812283D01*
X29563293Y-25812466D01*
X29667607Y-25801042D01*
X29825844Y-25783713D01*
X29825850Y-25783712D01*
X29830497Y-25783203D01*
X29835021Y-25782012D01*
X30085918Y-25715956D01*
X30085920Y-25715955D01*
X30090441Y-25714765D01*
X30094738Y-25712919D01*
X30333120Y-25610502D01*
X30333122Y-25610501D01*
X30337414Y-25608657D01*
X30513002Y-25500000D01*
X30562017Y-25469669D01*
X30562021Y-25469666D01*
X30565990Y-25467210D01*
X30771149Y-25293530D01*
X30948382Y-25091434D01*
X31093797Y-24865361D01*
X31204199Y-24620278D01*
X31241209Y-24489051D01*
X31275893Y-24366072D01*
X31275894Y-24366069D01*
X31277163Y-24361568D01*
X31295043Y-24221019D01*
X31310688Y-24098045D01*
X31310688Y-24098041D01*
X31311086Y-24094915D01*
X31313571Y-24000000D01*
X31293650Y-23731937D01*
X31234327Y-23469763D01*
X31136902Y-23219238D01*
X31003518Y-22985864D01*
X30837105Y-22774769D01*
X30641317Y-22590591D01*
X30420457Y-22437374D01*
X30416264Y-22435306D01*
X30183564Y-22320551D01*
X30183561Y-22320550D01*
X30179376Y-22318486D01*
X30131745Y-22303239D01*
X30077621Y-22285914D01*
X29923370Y-22236538D01*
X29918763Y-22235788D01*
X29918760Y-22235787D01*
X29662674Y-22194081D01*
X29662675Y-22194081D01*
X29658063Y-22193330D01*
X29527719Y-22191624D01*
X29393961Y-22189873D01*
X29393958Y-22189873D01*
X29389284Y-22189812D01*
X29122937Y-22226060D01*
X28864874Y-22301278D01*
X28620763Y-22413815D01*
X28616854Y-22416378D01*
X28399881Y-22558631D01*
X28399876Y-22558635D01*
X28395968Y-22561197D01*
X28195426Y-22740188D01*
X28023544Y-22946854D01*
X27884096Y-23176656D01*
X27780148Y-23424545D01*
X27713981Y-23685077D01*
X27687050Y-23952526D01*
X25508500Y-23952526D01*
X25508500Y-20634500D01*
X25528502Y-20566379D01*
X25582158Y-20519886D01*
X25634500Y-20508500D01*
X38374000Y-20508500D01*
X38442121Y-20528502D01*
G37*
G04 #@! TD.AperFunction*
G04 #@! TA.AperFunction,Conductor*
G36*
X87442121Y-20528502D02*
G01*
X87488614Y-20582158D01*
X87500000Y-20634500D01*
X87500000Y-25500000D01*
X89500000Y-27500000D01*
X92500000Y-27500000D01*
X94500000Y-25500000D01*
X94500000Y-20634500D01*
X94520002Y-20566379D01*
X94573658Y-20519886D01*
X94626000Y-20508500D01*
X104365500Y-20508500D01*
X104433621Y-20528502D01*
X104480114Y-20582158D01*
X104491500Y-20634500D01*
X104491500Y-62874000D01*
X104471498Y-62942121D01*
X104417842Y-62988614D01*
X104365500Y-63000000D01*
X98552190Y-63000000D01*
X98484069Y-62979998D01*
X98463095Y-62963095D01*
X93286905Y-57786905D01*
X93252879Y-57724593D01*
X93250000Y-57697810D01*
X93250000Y-53952526D01*
X98687050Y-53952526D01*
X98687274Y-53957192D01*
X98687274Y-53957197D01*
X98691890Y-54053295D01*
X98699947Y-54221019D01*
X98752388Y-54484656D01*
X98843220Y-54737646D01*
X98970450Y-54974431D01*
X98973241Y-54978168D01*
X98973245Y-54978175D01*
X99054887Y-55087506D01*
X99131281Y-55189810D01*
X99134590Y-55193090D01*
X99134595Y-55193096D01*
X99318863Y-55375762D01*
X99322180Y-55379050D01*
X99325942Y-55381808D01*
X99325945Y-55381811D01*
X99425969Y-55455151D01*
X99538954Y-55537995D01*
X99543089Y-55540171D01*
X99543093Y-55540173D01*
X99772698Y-55660975D01*
X99776840Y-55663154D01*
X100030613Y-55751775D01*
X100035206Y-55752647D01*
X100290109Y-55801042D01*
X100290112Y-55801042D01*
X100294698Y-55801913D01*
X100422370Y-55806929D01*
X100558625Y-55812283D01*
X100558630Y-55812283D01*
X100563293Y-55812466D01*
X100667607Y-55801042D01*
X100825844Y-55783713D01*
X100825850Y-55783712D01*
X100830497Y-55783203D01*
X100835021Y-55782012D01*
X101085918Y-55715956D01*
X101085920Y-55715955D01*
X101090441Y-55714765D01*
X101104330Y-55708798D01*
X101333120Y-55610502D01*
X101333122Y-55610501D01*
X101337414Y-55608657D01*
X101513002Y-55500000D01*
X101562017Y-55469669D01*
X101562021Y-55469666D01*
X101565990Y-55467210D01*
X101771149Y-55293530D01*
X101948382Y-55091434D01*
X102093797Y-54865361D01*
X102204199Y-54620278D01*
X102241209Y-54489051D01*
X102275893Y-54366072D01*
X102275894Y-54366069D01*
X102277163Y-54361568D01*
X102295043Y-54221019D01*
X102310688Y-54098045D01*
X102310688Y-54098041D01*
X102311086Y-54094915D01*
X102313571Y-54000000D01*
X102308870Y-53936739D01*
X102293996Y-53736592D01*
X102293996Y-53736591D01*
X102293650Y-53731937D01*
X102234327Y-53469763D01*
X102136902Y-53219238D01*
X102003518Y-52985864D01*
X101837105Y-52774769D01*
X101641317Y-52590591D01*
X101420457Y-52437374D01*
X101416264Y-52435306D01*
X101183564Y-52320551D01*
X101183561Y-52320550D01*
X101179376Y-52318486D01*
X101131745Y-52303239D01*
X101077621Y-52285914D01*
X100923370Y-52236538D01*
X100918763Y-52235788D01*
X100918760Y-52235787D01*
X100662674Y-52194081D01*
X100662675Y-52194081D01*
X100658063Y-52193330D01*
X100527719Y-52191624D01*
X100393961Y-52189873D01*
X100393958Y-52189873D01*
X100389284Y-52189812D01*
X100122937Y-52226060D01*
X99864874Y-52301278D01*
X99620763Y-52413815D01*
X99616854Y-52416378D01*
X99399881Y-52558631D01*
X99399876Y-52558635D01*
X99395968Y-52561197D01*
X99195426Y-52740188D01*
X99023544Y-52946854D01*
X98884096Y-53176656D01*
X98780148Y-53424545D01*
X98713981Y-53685077D01*
X98687050Y-53952526D01*
X93250000Y-53952526D01*
X93250000Y-46500000D01*
X88626000Y-46500000D01*
X88557879Y-46479998D01*
X88511386Y-46426342D01*
X88500000Y-46374000D01*
X88500000Y-41452526D01*
X98687050Y-41452526D01*
X98699947Y-41721019D01*
X98752388Y-41984656D01*
X98843220Y-42237646D01*
X98970450Y-42474431D01*
X98973241Y-42478168D01*
X98973245Y-42478175D01*
X99054887Y-42587506D01*
X99131281Y-42689810D01*
X99134590Y-42693090D01*
X99134595Y-42693096D01*
X99318863Y-42875762D01*
X99322180Y-42879050D01*
X99325942Y-42881808D01*
X99325945Y-42881811D01*
X99438299Y-42964192D01*
X99538954Y-43037995D01*
X99543089Y-43040171D01*
X99543093Y-43040173D01*
X99772698Y-43160975D01*
X99776840Y-43163154D01*
X100030613Y-43251775D01*
X100035206Y-43252647D01*
X100290109Y-43301042D01*
X100290112Y-43301042D01*
X100294698Y-43301913D01*
X100422370Y-43306929D01*
X100558625Y-43312283D01*
X100558630Y-43312283D01*
X100563293Y-43312466D01*
X100667607Y-43301042D01*
X100825844Y-43283713D01*
X100825850Y-43283712D01*
X100830497Y-43283203D01*
X100835021Y-43282012D01*
X101085918Y-43215956D01*
X101085920Y-43215955D01*
X101090441Y-43214765D01*
X101094738Y-43212919D01*
X101333120Y-43110502D01*
X101333122Y-43110501D01*
X101337414Y-43108657D01*
X101456071Y-43035230D01*
X101562017Y-42969669D01*
X101562021Y-42969666D01*
X101565990Y-42967210D01*
X101771149Y-42793530D01*
X101948382Y-42591434D01*
X102093797Y-42365361D01*
X102204199Y-42120278D01*
X102241209Y-41989051D01*
X102275893Y-41866072D01*
X102275894Y-41866069D01*
X102277163Y-41861568D01*
X102295043Y-41721019D01*
X102310688Y-41598045D01*
X102310688Y-41598041D01*
X102311086Y-41594915D01*
X102313571Y-41500000D01*
X102293650Y-41231937D01*
X102234327Y-40969763D01*
X102136902Y-40719238D01*
X102003518Y-40485864D01*
X101837105Y-40274769D01*
X101641317Y-40090591D01*
X101420457Y-39937374D01*
X101416264Y-39935306D01*
X101183564Y-39820551D01*
X101183561Y-39820550D01*
X101179376Y-39818486D01*
X101131745Y-39803239D01*
X100965425Y-39750000D01*
X100923370Y-39736538D01*
X100918763Y-39735788D01*
X100918760Y-39735787D01*
X100662674Y-39694081D01*
X100662675Y-39694081D01*
X100658063Y-39693330D01*
X100527719Y-39691624D01*
X100393961Y-39689873D01*
X100393958Y-39689873D01*
X100389284Y-39689812D01*
X100122937Y-39726060D01*
X99864874Y-39801278D01*
X99620763Y-39913815D01*
X99616854Y-39916378D01*
X99399881Y-40058631D01*
X99399876Y-40058635D01*
X99395968Y-40061197D01*
X99195426Y-40240188D01*
X99023544Y-40446854D01*
X98884096Y-40676656D01*
X98780148Y-40924545D01*
X98713981Y-41185077D01*
X98687050Y-41452526D01*
X88500000Y-41452526D01*
X88500000Y-39750000D01*
X85876000Y-39750000D01*
X85807879Y-39729998D01*
X85761386Y-39676342D01*
X85750000Y-39624000D01*
X85750000Y-34713397D01*
X85770002Y-34645276D01*
X85781268Y-34630320D01*
X85865214Y-34534598D01*
X85865218Y-34534593D01*
X85868295Y-34531084D01*
X86005669Y-34317512D01*
X86109967Y-34085980D01*
X86178896Y-33841575D01*
X86210943Y-33589667D01*
X86213291Y-33500000D01*
X86194472Y-33246759D01*
X86138428Y-32999082D01*
X86046391Y-32762409D01*
X86044073Y-32758353D01*
X85922702Y-32545997D01*
X85922700Y-32545995D01*
X85920383Y-32541940D01*
X85777050Y-32360122D01*
X85750585Y-32294242D01*
X85750000Y-32282116D01*
X85750000Y-28952526D01*
X98687050Y-28952526D01*
X98699947Y-29221019D01*
X98752388Y-29484656D01*
X98843220Y-29737646D01*
X98970450Y-29974431D01*
X98973241Y-29978168D01*
X98973245Y-29978175D01*
X99054887Y-30087506D01*
X99131281Y-30189810D01*
X99134590Y-30193090D01*
X99134595Y-30193096D01*
X99318863Y-30375762D01*
X99322180Y-30379050D01*
X99325942Y-30381808D01*
X99325945Y-30381811D01*
X99438299Y-30464192D01*
X99538954Y-30537995D01*
X99543089Y-30540171D01*
X99543093Y-30540173D01*
X99772698Y-30660975D01*
X99776840Y-30663154D01*
X100030613Y-30751775D01*
X100035206Y-30752647D01*
X100290109Y-30801042D01*
X100290112Y-30801042D01*
X100294698Y-30801913D01*
X100422370Y-30806929D01*
X100558625Y-30812283D01*
X100558630Y-30812283D01*
X100563293Y-30812466D01*
X100667607Y-30801042D01*
X100825844Y-30783713D01*
X100825850Y-30783712D01*
X100830497Y-30783203D01*
X100835021Y-30782012D01*
X101085918Y-30715956D01*
X101085920Y-30715955D01*
X101090441Y-30714765D01*
X101094738Y-30712919D01*
X101333120Y-30610502D01*
X101333122Y-30610501D01*
X101337414Y-30608657D01*
X101456071Y-30535230D01*
X101562017Y-30469669D01*
X101562021Y-30469666D01*
X101565990Y-30467210D01*
X101771149Y-30293530D01*
X101948382Y-30091434D01*
X102093797Y-29865361D01*
X102204199Y-29620278D01*
X102241209Y-29489051D01*
X102275893Y-29366072D01*
X102275894Y-29366069D01*
X102277163Y-29361568D01*
X102295043Y-29221019D01*
X102310688Y-29098045D01*
X102310688Y-29098041D01*
X102311086Y-29094915D01*
X102313571Y-29000000D01*
X102293650Y-28731937D01*
X102234327Y-28469763D01*
X102136902Y-28219238D01*
X102003518Y-27985864D01*
X101837105Y-27774769D01*
X101641317Y-27590591D01*
X101420457Y-27437374D01*
X101416264Y-27435306D01*
X101183564Y-27320551D01*
X101183561Y-27320550D01*
X101179376Y-27318486D01*
X101131745Y-27303239D01*
X101077621Y-27285914D01*
X100923370Y-27236538D01*
X100918763Y-27235788D01*
X100918760Y-27235787D01*
X100662674Y-27194081D01*
X100662675Y-27194081D01*
X100658063Y-27193330D01*
X100527719Y-27191624D01*
X100393961Y-27189873D01*
X100393958Y-27189873D01*
X100389284Y-27189812D01*
X100122937Y-27226060D01*
X99864874Y-27301278D01*
X99620763Y-27413815D01*
X99616854Y-27416378D01*
X99399881Y-27558631D01*
X99399876Y-27558635D01*
X99395968Y-27561197D01*
X99195426Y-27740188D01*
X99023544Y-27946854D01*
X98884096Y-28176656D01*
X98780148Y-28424545D01*
X98713981Y-28685077D01*
X98687050Y-28952526D01*
X85750000Y-28952526D01*
X85750000Y-20634500D01*
X85770002Y-20566379D01*
X85823658Y-20519886D01*
X85876000Y-20508500D01*
X87374000Y-20508500D01*
X87442121Y-20528502D01*
G37*
G04 #@! TD.AperFunction*
M02*
