G04 #@! TF.GenerationSoftware,KiCad,Pcbnew,5.1.10-88a1d61d58~90~ubuntu20.04.1*
G04 #@! TF.CreationDate,2021-11-04T09:36:55-04:00*
G04 #@! TF.ProjectId,buck_boost,6275636b-5f62-46f6-9f73-742e6b696361,rev?*
G04 #@! TF.SameCoordinates,Original*
G04 #@! TF.FileFunction,Soldermask,Bot*
G04 #@! TF.FilePolarity,Negative*
%FSLAX46Y46*%
G04 Gerber Fmt 4.6, Leading zero omitted, Abs format (unit mm)*
G04 Created by KiCad (PCBNEW 5.1.10-88a1d61d58~90~ubuntu20.04.1) date 2021-11-04 09:36:55*
%MOMM*%
%LPD*%
G01*
G04 APERTURE LIST*
%ADD10C,2.400000*%
%ADD11R,2.400000X2.400000*%
%ADD12C,3.200000*%
%ADD13C,1.440000*%
%ADD14C,1.800000*%
%ADD15C,2.600000*%
G04 APERTURE END LIST*
D10*
X84500000Y-34500000D03*
D11*
X89500000Y-34500000D03*
D10*
X84500000Y-48000000D03*
D11*
X89500000Y-48000000D03*
G36*
G01*
X38625001Y-59637500D02*
X37374999Y-59637500D01*
G75*
G02*
X37125000Y-59387501I0J249999D01*
G01*
X37125000Y-58762499D01*
G75*
G02*
X37374999Y-58512500I249999J0D01*
G01*
X38625001Y-58512500D01*
G75*
G02*
X38875000Y-58762499I0J-249999D01*
G01*
X38875000Y-59387501D01*
G75*
G02*
X38625001Y-59637500I-249999J0D01*
G01*
G37*
G36*
G01*
X38625001Y-62562500D02*
X37374999Y-62562500D01*
G75*
G02*
X37125000Y-62312501I0J249999D01*
G01*
X37125000Y-61687499D01*
G75*
G02*
X37374999Y-61437500I249999J0D01*
G01*
X38625001Y-61437500D01*
G75*
G02*
X38875000Y-61687499I0J-249999D01*
G01*
X38875000Y-62312501D01*
G75*
G02*
X38625001Y-62562500I-249999J0D01*
G01*
G37*
D12*
X91000000Y-24000000D03*
X83000000Y-86000000D03*
X42000000Y-24000000D03*
X29000000Y-86000000D03*
D13*
X66500000Y-81920000D03*
X66500000Y-84460000D03*
X66500000Y-87000000D03*
D14*
X84000000Y-57866670D03*
X91500000Y-59500000D03*
D15*
X100500000Y-49000000D03*
X100500000Y-54000000D03*
X100500000Y-61500000D03*
X100500000Y-66500000D03*
X100500000Y-36500000D03*
X100500000Y-41500000D03*
X100500000Y-24000000D03*
X100500000Y-29000000D03*
X29500000Y-29000000D03*
X29500000Y-24000000D03*
D10*
X77500000Y-75500000D03*
D11*
X72500000Y-75500000D03*
D10*
X34500000Y-75500000D03*
D11*
X29500000Y-75500000D03*
D10*
X34500000Y-40000000D03*
D11*
X29500000Y-40000000D03*
D10*
X34500000Y-54000000D03*
D11*
X29500000Y-54000000D03*
M02*
