G04 #@! TF.GenerationSoftware,KiCad,Pcbnew,5.1.10-88a1d61d58~90~ubuntu20.04.1*
G04 #@! TF.CreationDate,2022-02-24T16:01:44-05:00*
G04 #@! TF.ProjectId,buck_boost,6275636b-5f62-46f6-9f73-742e6b696361,rev?*
G04 #@! TF.SameCoordinates,Original*
G04 #@! TF.FileFunction,Copper,L4,Bot*
G04 #@! TF.FilePolarity,Positive*
%FSLAX46Y46*%
G04 Gerber Fmt 4.6, Leading zero omitted, Abs format (unit mm)*
G04 Created by KiCad (PCBNEW 5.1.10-88a1d61d58~90~ubuntu20.04.1) date 2022-02-24 16:01:44*
%MOMM*%
%LPD*%
G01*
G04 APERTURE LIST*
G04 #@! TA.AperFunction,ComponentPad*
%ADD10C,2.400000*%
G04 #@! TD*
G04 #@! TA.AperFunction,ComponentPad*
%ADD11R,2.400000X2.400000*%
G04 #@! TD*
G04 #@! TA.AperFunction,ComponentPad*
%ADD12C,1.440000*%
G04 #@! TD*
G04 #@! TA.AperFunction,ComponentPad*
%ADD13C,1.800000*%
G04 #@! TD*
G04 #@! TA.AperFunction,ComponentPad*
%ADD14C,2.600000*%
G04 #@! TD*
G04 #@! TA.AperFunction,ViaPad*
%ADD15C,0.889000*%
G04 #@! TD*
G04 #@! TA.AperFunction,ViaPad*
%ADD16C,1.016000*%
G04 #@! TD*
G04 #@! TA.AperFunction,ViaPad*
%ADD17C,0.685800*%
G04 #@! TD*
G04 #@! TA.AperFunction,Conductor*
%ADD18C,0.889000*%
G04 #@! TD*
G04 #@! TA.AperFunction,Conductor*
%ADD19C,0.508000*%
G04 #@! TD*
G04 #@! TA.AperFunction,Conductor*
%ADD20C,0.254000*%
G04 #@! TD*
G04 #@! TA.AperFunction,Conductor*
%ADD21C,0.100000*%
G04 #@! TD*
G04 APERTURE END LIST*
D10*
X84500000Y-34500000D03*
D11*
X89500000Y-34500000D03*
D10*
X84500000Y-48000000D03*
D11*
X89500000Y-48000000D03*
G04 #@! TA.AperFunction,SMDPad,CuDef*
G36*
G01*
X38625002Y-59637500D02*
X37374998Y-59637500D01*
G75*
G02*
X37125000Y-59387502I0J249998D01*
G01*
X37125000Y-58762498D01*
G75*
G02*
X37374998Y-58512500I249998J0D01*
G01*
X38625002Y-58512500D01*
G75*
G02*
X38875000Y-58762498I0J-249998D01*
G01*
X38875000Y-59387502D01*
G75*
G02*
X38625002Y-59637500I-249998J0D01*
G01*
G37*
G04 #@! TD.AperFunction*
G04 #@! TA.AperFunction,SMDPad,CuDef*
G36*
G01*
X38625002Y-62562500D02*
X37374998Y-62562500D01*
G75*
G02*
X37125000Y-62312502I0J249998D01*
G01*
X37125000Y-61687498D01*
G75*
G02*
X37374998Y-61437500I249998J0D01*
G01*
X38625002Y-61437500D01*
G75*
G02*
X38875000Y-61687498I0J-249998D01*
G01*
X38875000Y-62312502D01*
G75*
G02*
X38625002Y-62562500I-249998J0D01*
G01*
G37*
G04 #@! TD.AperFunction*
D12*
X66500000Y-81920000D03*
X66500000Y-84460000D03*
X66500000Y-87000000D03*
D13*
X84000000Y-57866670D03*
X91500000Y-59500000D03*
D14*
X100500000Y-49000000D03*
X100500000Y-54000000D03*
X100500000Y-61500000D03*
X100500000Y-66500000D03*
X100500000Y-36500000D03*
X100500000Y-41500000D03*
X100500000Y-24000000D03*
X100500000Y-29000000D03*
X29500000Y-29000000D03*
X29500000Y-24000000D03*
D10*
X77500000Y-75500000D03*
D11*
X72500000Y-75500000D03*
D10*
X34500000Y-75500000D03*
D11*
X29500000Y-75500000D03*
D10*
X34500000Y-40000000D03*
D11*
X29500000Y-40000000D03*
D10*
X34500000Y-54000000D03*
D11*
X29500000Y-54000000D03*
D15*
X50500000Y-74500000D03*
X50500000Y-73500000D03*
D16*
X51500000Y-78500000D03*
X50500000Y-78500000D03*
X52500000Y-78500000D03*
X52500000Y-77500000D03*
X51500000Y-77500000D03*
X50500000Y-76500000D03*
X51500000Y-76500000D03*
X52500000Y-76500000D03*
X50500000Y-75500000D03*
X51500000Y-75500000D03*
X52500000Y-75500000D03*
X51500000Y-74500000D03*
X52500000Y-74500000D03*
X52500000Y-73500000D03*
X51500000Y-73500000D03*
D15*
X56000000Y-87000000D03*
D17*
X60000000Y-84500000D03*
X60000000Y-82000000D03*
X60000000Y-77000000D03*
X41500000Y-85000000D03*
X65500000Y-78000000D03*
D15*
X44911000Y-82250000D03*
X50500000Y-77500000D03*
X45500000Y-62500000D03*
X44000000Y-62500000D03*
X42500000Y-62500000D03*
X41000000Y-62500000D03*
X45500000Y-64000000D03*
X44000000Y-64000000D03*
X42500000Y-64000000D03*
X41000000Y-64000000D03*
X45500000Y-65500000D03*
X44000000Y-65500000D03*
X42500000Y-65500000D03*
X41000000Y-65500000D03*
X45500000Y-67000000D03*
X44000000Y-67000000D03*
X42500000Y-67000000D03*
X41000000Y-67000000D03*
X45000000Y-56000000D03*
X46500000Y-56000000D03*
X48000000Y-56000000D03*
X48000000Y-57500000D03*
X46500000Y-57500000D03*
X45000000Y-57500000D03*
X45000000Y-59000000D03*
X46500000Y-59000000D03*
X48000000Y-59000000D03*
X49500000Y-59000000D03*
X49500000Y-57500000D03*
X49500000Y-56000000D03*
X49500000Y-54500000D03*
X48000000Y-54500000D03*
X46500000Y-54500000D03*
X45000000Y-54500000D03*
D17*
X51500000Y-62500000D03*
X52151309Y-70651309D03*
X44500000Y-72500000D03*
X47500000Y-74601597D03*
X51500000Y-61500000D03*
D15*
X57000000Y-62000000D03*
X58500000Y-62000000D03*
X60000000Y-62000000D03*
X61500000Y-62000000D03*
X61500000Y-63500000D03*
X60000000Y-63500000D03*
X58500000Y-63500000D03*
X57000000Y-63500000D03*
X57000000Y-65000000D03*
X58500000Y-65000000D03*
X60000000Y-65000000D03*
X61500000Y-65000000D03*
X61500000Y-66500000D03*
X60000000Y-66500000D03*
X58500000Y-66500000D03*
X57000000Y-66500000D03*
X58000000Y-71589000D03*
D17*
X43000000Y-73500000D03*
X56000000Y-75500000D03*
X58350678Y-72884282D03*
X45000000Y-87000000D03*
X46000000Y-77000000D03*
D15*
X68500000Y-58500000D03*
X70000000Y-58500000D03*
X71500000Y-58500000D03*
X73000000Y-58500000D03*
X73000000Y-57000000D03*
X71500000Y-57000000D03*
X70000000Y-57000000D03*
X68500000Y-57000000D03*
X68500000Y-55500000D03*
X70000000Y-55500000D03*
X71500000Y-55500000D03*
X73000000Y-55500000D03*
X73000000Y-54000000D03*
X71500000Y-54000000D03*
X70000000Y-54000000D03*
X68500000Y-54000000D03*
D17*
X51500000Y-82000000D03*
X51500000Y-87500000D03*
D15*
X52864664Y-88635336D03*
X54500000Y-85500000D03*
X54000000Y-87000000D03*
D17*
X47500000Y-73614197D03*
X49500000Y-69000000D03*
X49500000Y-68000000D03*
D15*
X68000000Y-67500000D03*
X68000000Y-68500000D03*
X55641726Y-73666214D03*
X70000000Y-88000000D03*
X66000000Y-61500000D03*
X65000000Y-61500000D03*
D17*
X59000000Y-75000000D03*
X59000000Y-74000000D03*
X44000000Y-78500000D03*
X44000000Y-77500000D03*
X44000000Y-75000000D03*
X44000000Y-74000000D03*
D15*
X30000000Y-67500000D03*
X31000000Y-67500000D03*
X31000000Y-66500000D03*
X30000000Y-66500000D03*
X30000000Y-63500000D03*
X31000000Y-63500000D03*
X31000000Y-62500000D03*
X30000000Y-62500000D03*
X75500000Y-67500000D03*
X76500000Y-67500000D03*
X76500000Y-66500000D03*
X75500000Y-66500000D03*
X75500000Y-63500000D03*
X76500000Y-63500000D03*
X76500000Y-62500000D03*
X75500000Y-62500000D03*
X79000000Y-59000000D03*
X80000000Y-59000000D03*
X80000000Y-58000000D03*
X79000000Y-58000000D03*
X79000000Y-55000000D03*
X80000000Y-55000000D03*
X80000000Y-54000000D03*
X79000000Y-54000000D03*
X41000000Y-58500000D03*
X42000000Y-58500000D03*
X32500000Y-67500000D03*
X33500000Y-67500000D03*
X33500000Y-66500000D03*
X32500000Y-66500000D03*
X32500000Y-62500000D03*
X32500000Y-63500000D03*
X33500000Y-63500000D03*
X33500000Y-62500000D03*
X40000000Y-58500000D03*
X40000000Y-59500000D03*
X41000000Y-59500000D03*
X42000000Y-59500000D03*
D17*
X83169900Y-66500000D03*
X83000000Y-62500000D03*
D15*
X67000000Y-61500000D03*
X67000000Y-62500000D03*
X66000000Y-62500000D03*
X65000000Y-62500000D03*
D18*
X57977278Y-70000000D02*
X58000000Y-70000000D01*
X58000000Y-70000000D02*
X59000000Y-69000000D01*
X59000000Y-69000000D02*
X67500000Y-69000000D01*
X68000000Y-68500000D02*
X68000000Y-67500000D01*
X67500000Y-69000000D02*
X68000000Y-68500000D01*
X55641726Y-72335552D02*
X56238639Y-71738639D01*
X55641726Y-73666214D02*
X55641726Y-72335552D01*
X56238639Y-71738639D02*
X57977278Y-70000000D01*
D19*
X70000000Y-88000000D02*
X70000000Y-87960000D01*
D20*
X38873000Y-67500000D02*
X38875440Y-67524776D01*
X38882667Y-67548601D01*
X38894403Y-67570557D01*
X38910197Y-67589803D01*
X39910197Y-68589803D01*
X39929443Y-68605597D01*
X39951399Y-68617333D01*
X39975224Y-68624560D01*
X40000000Y-68627000D01*
X48596030Y-68627000D01*
X48559680Y-68714757D01*
X48522100Y-68903685D01*
X48522100Y-69096315D01*
X48559680Y-69285243D01*
X48633396Y-69463210D01*
X48740415Y-69623375D01*
X48876625Y-69759585D01*
X49036790Y-69866604D01*
X49214757Y-69940320D01*
X49403685Y-69977900D01*
X49596315Y-69977900D01*
X49785243Y-69940320D01*
X49963210Y-69866604D01*
X50123375Y-69759585D01*
X50259585Y-69623375D01*
X50366604Y-69463210D01*
X50440320Y-69285243D01*
X50477900Y-69096315D01*
X50477900Y-68903685D01*
X50440320Y-68714757D01*
X50403970Y-68627000D01*
X57846356Y-68627000D01*
X57375999Y-69097358D01*
X57374638Y-69098086D01*
X57264906Y-69188141D01*
X57210263Y-69232985D01*
X57176460Y-69274174D01*
X55512815Y-70937821D01*
X54915906Y-71534730D01*
X54874712Y-71568537D01*
X54739813Y-71732912D01*
X54639574Y-71920446D01*
X54577846Y-72123933D01*
X54564355Y-72260907D01*
X54557003Y-72335552D01*
X54562226Y-72388581D01*
X54562226Y-73772535D01*
X54572623Y-73824805D01*
X54577846Y-73877832D01*
X54593314Y-73928823D01*
X54603711Y-73981092D01*
X54624105Y-74030327D01*
X54639573Y-74081319D01*
X54664692Y-74128314D01*
X54685086Y-74177549D01*
X54714692Y-74221857D01*
X54739812Y-74268854D01*
X54773619Y-74310048D01*
X54803224Y-74354355D01*
X54840904Y-74392035D01*
X54874711Y-74433229D01*
X54915905Y-74467036D01*
X54953585Y-74504716D01*
X54997892Y-74534321D01*
X55039086Y-74568128D01*
X55086084Y-74593249D01*
X55130391Y-74622854D01*
X55179623Y-74643246D01*
X55226620Y-74668367D01*
X55277616Y-74683836D01*
X55326848Y-74704229D01*
X55379114Y-74714625D01*
X55403948Y-74722159D01*
X55376625Y-74740415D01*
X55240415Y-74876625D01*
X55133396Y-75036790D01*
X55059680Y-75214757D01*
X55022100Y-75403685D01*
X55022100Y-75596315D01*
X55059680Y-75785243D01*
X55133396Y-75963210D01*
X55240415Y-76123375D01*
X55376625Y-76259585D01*
X55536790Y-76366604D01*
X55714757Y-76440320D01*
X55903685Y-76477900D01*
X56096315Y-76477900D01*
X56285243Y-76440320D01*
X56463210Y-76366604D01*
X56623375Y-76259585D01*
X56759585Y-76123375D01*
X56866604Y-75963210D01*
X56940320Y-75785243D01*
X56977900Y-75596315D01*
X56977900Y-75403685D01*
X56940320Y-75214757D01*
X56866604Y-75036790D01*
X56759585Y-74876625D01*
X56623375Y-74740415D01*
X56463210Y-74633396D01*
X56285243Y-74559680D01*
X56260626Y-74554783D01*
X56285560Y-74534321D01*
X56329867Y-74504716D01*
X56367547Y-74467036D01*
X56408741Y-74433229D01*
X56442548Y-74392035D01*
X56480228Y-74354355D01*
X56509833Y-74310048D01*
X56543640Y-74268854D01*
X56568761Y-74221856D01*
X56598366Y-74177549D01*
X56618758Y-74128317D01*
X56643879Y-74081320D01*
X56659348Y-74030324D01*
X56679741Y-73981092D01*
X56690137Y-73928826D01*
X56705606Y-73877833D01*
X56710829Y-73824804D01*
X56721226Y-73772535D01*
X56721226Y-72782694D01*
X57039457Y-72464463D01*
X57194139Y-72309782D01*
X57311859Y-72427502D01*
X57444657Y-72516235D01*
X57410358Y-72599039D01*
X57372778Y-72787967D01*
X57372778Y-72980597D01*
X57410358Y-73169525D01*
X57484074Y-73347492D01*
X57591093Y-73507657D01*
X57727303Y-73643867D01*
X57887468Y-73750886D01*
X58039932Y-73814038D01*
X58022100Y-73903685D01*
X58022100Y-74096315D01*
X58059680Y-74285243D01*
X58133396Y-74463210D01*
X58157978Y-74500000D01*
X58133396Y-74536790D01*
X58059680Y-74714757D01*
X58022100Y-74903685D01*
X58022100Y-75096315D01*
X58059680Y-75285243D01*
X58133396Y-75463210D01*
X58240415Y-75623375D01*
X58376625Y-75759585D01*
X58536790Y-75866604D01*
X58714757Y-75940320D01*
X58903685Y-75977900D01*
X59096315Y-75977900D01*
X59285243Y-75940320D01*
X59463210Y-75866604D01*
X59623375Y-75759585D01*
X59759585Y-75623375D01*
X59866604Y-75463210D01*
X59940320Y-75285243D01*
X59977900Y-75096315D01*
X59977900Y-74903685D01*
X59940320Y-74714757D01*
X59866604Y-74536790D01*
X59842022Y-74500000D01*
X59866604Y-74463210D01*
X59940320Y-74285243D01*
X59977900Y-74096315D01*
X59977900Y-73903685D01*
X59940320Y-73714757D01*
X59866604Y-73536790D01*
X59759585Y-73376625D01*
X59623375Y-73240415D01*
X59463210Y-73133396D01*
X59310746Y-73070244D01*
X59328578Y-72980597D01*
X59328578Y-72787967D01*
X59290998Y-72599039D01*
X59217282Y-72421072D01*
X59110263Y-72260907D01*
X58974053Y-72124697D01*
X58950761Y-72109134D01*
X58956640Y-72100335D01*
X59038015Y-71903878D01*
X59079500Y-71695321D01*
X59079500Y-71482679D01*
X59038015Y-71274122D01*
X58956640Y-71077665D01*
X58838502Y-70900859D01*
X58732766Y-70795123D01*
X58767015Y-70767015D01*
X58800826Y-70725816D01*
X59447143Y-70079500D01*
X67446971Y-70079500D01*
X67500000Y-70084723D01*
X67553029Y-70079500D01*
X67711619Y-70063880D01*
X67873000Y-70014926D01*
X67873000Y-89340000D01*
X53686643Y-89340000D01*
X53703166Y-89323477D01*
X53821304Y-89146671D01*
X53902679Y-88950214D01*
X53944164Y-88741657D01*
X53944164Y-88529015D01*
X53902679Y-88320458D01*
X53821304Y-88124001D01*
X53775918Y-88056076D01*
X53893679Y-88079500D01*
X54106321Y-88079500D01*
X54314878Y-88038015D01*
X54511335Y-87956640D01*
X54688141Y-87838502D01*
X54838502Y-87688141D01*
X54956640Y-87511335D01*
X55038015Y-87314878D01*
X55079500Y-87106321D01*
X55079500Y-86893679D01*
X55038015Y-86685122D01*
X54956640Y-86488665D01*
X54951737Y-86481326D01*
X55011335Y-86456640D01*
X55188141Y-86338502D01*
X55338502Y-86188141D01*
X55456640Y-86011335D01*
X55538015Y-85814878D01*
X55579500Y-85606321D01*
X55579500Y-85393679D01*
X55538015Y-85185122D01*
X55456640Y-84988665D01*
X55338502Y-84811859D01*
X55188141Y-84661498D01*
X55011335Y-84543360D01*
X54814878Y-84461985D01*
X54606321Y-84420500D01*
X54393679Y-84420500D01*
X54185122Y-84461985D01*
X53988665Y-84543360D01*
X53811859Y-84661498D01*
X53661498Y-84811859D01*
X53543360Y-84988665D01*
X53461985Y-85185122D01*
X53420500Y-85393679D01*
X53420500Y-85606321D01*
X53461985Y-85814878D01*
X53543360Y-86011335D01*
X53548263Y-86018674D01*
X53488665Y-86043360D01*
X53311859Y-86161498D01*
X53161498Y-86311859D01*
X53043360Y-86488665D01*
X52961985Y-86685122D01*
X52920500Y-86893679D01*
X52920500Y-87106321D01*
X52961985Y-87314878D01*
X53043360Y-87511335D01*
X53088746Y-87579260D01*
X52970985Y-87555836D01*
X52758343Y-87555836D01*
X52549786Y-87597321D01*
X52471227Y-87629861D01*
X52477900Y-87596315D01*
X52477900Y-87403685D01*
X52440320Y-87214757D01*
X52366604Y-87036790D01*
X52259585Y-86876625D01*
X52123375Y-86740415D01*
X51963210Y-86633396D01*
X51785243Y-86559680D01*
X51596315Y-86522100D01*
X51403685Y-86522100D01*
X51214757Y-86559680D01*
X51036790Y-86633396D01*
X50876625Y-86740415D01*
X50740415Y-86876625D01*
X50633396Y-87036790D01*
X50559680Y-87214757D01*
X50522100Y-87403685D01*
X50522100Y-87596315D01*
X50559680Y-87785243D01*
X50633396Y-87963210D01*
X50740415Y-88123375D01*
X50876625Y-88259585D01*
X51036790Y-88366604D01*
X51214757Y-88440320D01*
X51403685Y-88477900D01*
X51596315Y-88477900D01*
X51785243Y-88440320D01*
X51804384Y-88432392D01*
X51785164Y-88529015D01*
X51785164Y-88741657D01*
X51826649Y-88950214D01*
X51908024Y-89146671D01*
X52026162Y-89323477D01*
X52042685Y-89340000D01*
X37127000Y-89340000D01*
X37127000Y-86903685D01*
X44022100Y-86903685D01*
X44022100Y-87096315D01*
X44059680Y-87285243D01*
X44133396Y-87463210D01*
X44240415Y-87623375D01*
X44376625Y-87759585D01*
X44536790Y-87866604D01*
X44714757Y-87940320D01*
X44903685Y-87977900D01*
X45096315Y-87977900D01*
X45285243Y-87940320D01*
X45463210Y-87866604D01*
X45623375Y-87759585D01*
X45759585Y-87623375D01*
X45866604Y-87463210D01*
X45940320Y-87285243D01*
X45977900Y-87096315D01*
X45977900Y-86903685D01*
X45940320Y-86714757D01*
X45866604Y-86536790D01*
X45759585Y-86376625D01*
X45623375Y-86240415D01*
X45463210Y-86133396D01*
X45285243Y-86059680D01*
X45096315Y-86022100D01*
X44903685Y-86022100D01*
X44714757Y-86059680D01*
X44536790Y-86133396D01*
X44376625Y-86240415D01*
X44240415Y-86376625D01*
X44133396Y-86536790D01*
X44059680Y-86714757D01*
X44022100Y-86903685D01*
X37127000Y-86903685D01*
X37127000Y-81903685D01*
X50522100Y-81903685D01*
X50522100Y-82096315D01*
X50559680Y-82285243D01*
X50633396Y-82463210D01*
X50740415Y-82623375D01*
X50876625Y-82759585D01*
X51036790Y-82866604D01*
X51214757Y-82940320D01*
X51403685Y-82977900D01*
X51596315Y-82977900D01*
X51785243Y-82940320D01*
X51963210Y-82866604D01*
X52123375Y-82759585D01*
X52259585Y-82623375D01*
X52366604Y-82463210D01*
X52440320Y-82285243D01*
X52477900Y-82096315D01*
X52477900Y-81903685D01*
X52454600Y-81786544D01*
X65145000Y-81786544D01*
X65145000Y-82053456D01*
X65197072Y-82315239D01*
X65299215Y-82561833D01*
X65447503Y-82783762D01*
X65636238Y-82972497D01*
X65858167Y-83120785D01*
X66025266Y-83190000D01*
X65858167Y-83259215D01*
X65636238Y-83407503D01*
X65447503Y-83596238D01*
X65299215Y-83818167D01*
X65197072Y-84064761D01*
X65145000Y-84326544D01*
X65145000Y-84593456D01*
X65197072Y-84855239D01*
X65299215Y-85101833D01*
X65447503Y-85323762D01*
X65636238Y-85512497D01*
X65858167Y-85660785D01*
X66025266Y-85730000D01*
X65858167Y-85799215D01*
X65636238Y-85947503D01*
X65447503Y-86136238D01*
X65299215Y-86358167D01*
X65197072Y-86604761D01*
X65145000Y-86866544D01*
X65145000Y-87133456D01*
X65197072Y-87395239D01*
X65299215Y-87641833D01*
X65447503Y-87863762D01*
X65636238Y-88052497D01*
X65858167Y-88200785D01*
X66104761Y-88302928D01*
X66366544Y-88355000D01*
X66633456Y-88355000D01*
X66895239Y-88302928D01*
X67141833Y-88200785D01*
X67363762Y-88052497D01*
X67552497Y-87863762D01*
X67700785Y-87641833D01*
X67802928Y-87395239D01*
X67855000Y-87133456D01*
X67855000Y-86866544D01*
X67802928Y-86604761D01*
X67700785Y-86358167D01*
X67552497Y-86136238D01*
X67363762Y-85947503D01*
X67141833Y-85799215D01*
X66974734Y-85730000D01*
X67141833Y-85660785D01*
X67363762Y-85512497D01*
X67552497Y-85323762D01*
X67700785Y-85101833D01*
X67802928Y-84855239D01*
X67855000Y-84593456D01*
X67855000Y-84326544D01*
X67802928Y-84064761D01*
X67700785Y-83818167D01*
X67552497Y-83596238D01*
X67363762Y-83407503D01*
X67141833Y-83259215D01*
X66974734Y-83190000D01*
X67141833Y-83120785D01*
X67363762Y-82972497D01*
X67552497Y-82783762D01*
X67700785Y-82561833D01*
X67802928Y-82315239D01*
X67855000Y-82053456D01*
X67855000Y-81786544D01*
X67802928Y-81524761D01*
X67700785Y-81278167D01*
X67552497Y-81056238D01*
X67363762Y-80867503D01*
X67141833Y-80719215D01*
X66895239Y-80617072D01*
X66633456Y-80565000D01*
X66366544Y-80565000D01*
X66104761Y-80617072D01*
X65858167Y-80719215D01*
X65636238Y-80867503D01*
X65447503Y-81056238D01*
X65299215Y-81278167D01*
X65197072Y-81524761D01*
X65145000Y-81786544D01*
X52454600Y-81786544D01*
X52440320Y-81714757D01*
X52366604Y-81536790D01*
X52259585Y-81376625D01*
X52123375Y-81240415D01*
X51963210Y-81133396D01*
X51785243Y-81059680D01*
X51596315Y-81022100D01*
X51403685Y-81022100D01*
X51214757Y-81059680D01*
X51036790Y-81133396D01*
X50876625Y-81240415D01*
X50740415Y-81376625D01*
X50633396Y-81536790D01*
X50559680Y-81714757D01*
X50522100Y-81903685D01*
X37127000Y-81903685D01*
X37127000Y-77403685D01*
X43022100Y-77403685D01*
X43022100Y-77596315D01*
X43059680Y-77785243D01*
X43133396Y-77963210D01*
X43157978Y-78000000D01*
X43133396Y-78036790D01*
X43059680Y-78214757D01*
X43022100Y-78403685D01*
X43022100Y-78596315D01*
X43059680Y-78785243D01*
X43133396Y-78963210D01*
X43240415Y-79123375D01*
X43376625Y-79259585D01*
X43536790Y-79366604D01*
X43714757Y-79440320D01*
X43903685Y-79477900D01*
X44096315Y-79477900D01*
X44285243Y-79440320D01*
X44463210Y-79366604D01*
X44623375Y-79259585D01*
X44759585Y-79123375D01*
X44866604Y-78963210D01*
X44940320Y-78785243D01*
X44977900Y-78596315D01*
X44977900Y-78403685D01*
X44940320Y-78214757D01*
X44866604Y-78036790D01*
X44842022Y-78000000D01*
X44866604Y-77963210D01*
X44940320Y-77785243D01*
X44977900Y-77596315D01*
X44977900Y-77403685D01*
X44940320Y-77214757D01*
X44866604Y-77036790D01*
X44777666Y-76903685D01*
X45022100Y-76903685D01*
X45022100Y-77096315D01*
X45059680Y-77285243D01*
X45133396Y-77463210D01*
X45240415Y-77623375D01*
X45376625Y-77759585D01*
X45536790Y-77866604D01*
X45714757Y-77940320D01*
X45903685Y-77977900D01*
X46096315Y-77977900D01*
X46285243Y-77940320D01*
X46463210Y-77866604D01*
X46623375Y-77759585D01*
X46759585Y-77623375D01*
X46866604Y-77463210D01*
X46940320Y-77285243D01*
X46977900Y-77096315D01*
X46977900Y-76903685D01*
X46940320Y-76714757D01*
X46866604Y-76536790D01*
X46759585Y-76376625D01*
X46623375Y-76240415D01*
X46463210Y-76133396D01*
X46285243Y-76059680D01*
X46096315Y-76022100D01*
X45903685Y-76022100D01*
X45714757Y-76059680D01*
X45536790Y-76133396D01*
X45376625Y-76240415D01*
X45240415Y-76376625D01*
X45133396Y-76536790D01*
X45059680Y-76714757D01*
X45022100Y-76903685D01*
X44777666Y-76903685D01*
X44759585Y-76876625D01*
X44623375Y-76740415D01*
X44463210Y-76633396D01*
X44285243Y-76559680D01*
X44096315Y-76522100D01*
X43903685Y-76522100D01*
X43714757Y-76559680D01*
X43536790Y-76633396D01*
X43376625Y-76740415D01*
X43240415Y-76876625D01*
X43133396Y-77036790D01*
X43059680Y-77214757D01*
X43022100Y-77403685D01*
X37127000Y-77403685D01*
X37127000Y-73403685D01*
X42022100Y-73403685D01*
X42022100Y-73596315D01*
X42059680Y-73785243D01*
X42133396Y-73963210D01*
X42240415Y-74123375D01*
X42376625Y-74259585D01*
X42536790Y-74366604D01*
X42714757Y-74440320D01*
X42903685Y-74477900D01*
X43096315Y-74477900D01*
X43137710Y-74469666D01*
X43157978Y-74500000D01*
X43133396Y-74536790D01*
X43059680Y-74714757D01*
X43022100Y-74903685D01*
X43022100Y-75096315D01*
X43059680Y-75285243D01*
X43133396Y-75463210D01*
X43240415Y-75623375D01*
X43376625Y-75759585D01*
X43536790Y-75866604D01*
X43714757Y-75940320D01*
X43903685Y-75977900D01*
X44096315Y-75977900D01*
X44285243Y-75940320D01*
X44463210Y-75866604D01*
X44623375Y-75759585D01*
X44759585Y-75623375D01*
X44866604Y-75463210D01*
X44940320Y-75285243D01*
X44977900Y-75096315D01*
X44977900Y-74903685D01*
X44940320Y-74714757D01*
X44866604Y-74536790D01*
X44842022Y-74500000D01*
X44866604Y-74463210D01*
X44940320Y-74285243D01*
X44977900Y-74096315D01*
X44977900Y-73903685D01*
X44940320Y-73714757D01*
X44866604Y-73536790D01*
X44853971Y-73517882D01*
X46522100Y-73517882D01*
X46522100Y-73710512D01*
X46559680Y-73899440D01*
X46633396Y-74077407D01*
X46653769Y-74107897D01*
X46633396Y-74138387D01*
X46559680Y-74316354D01*
X46522100Y-74505282D01*
X46522100Y-74697912D01*
X46559680Y-74886840D01*
X46633396Y-75064807D01*
X46740415Y-75224972D01*
X46876625Y-75361182D01*
X47036790Y-75468201D01*
X47214757Y-75541917D01*
X47403685Y-75579497D01*
X47596315Y-75579497D01*
X47785243Y-75541917D01*
X47963210Y-75468201D01*
X48123375Y-75361182D01*
X48259585Y-75224972D01*
X48366604Y-75064807D01*
X48440320Y-74886840D01*
X48477900Y-74697912D01*
X48477900Y-74505282D01*
X48440320Y-74316354D01*
X48366604Y-74138387D01*
X48346231Y-74107897D01*
X48366604Y-74077407D01*
X48440320Y-73899440D01*
X48477900Y-73710512D01*
X48477900Y-73517882D01*
X48440320Y-73328954D01*
X48366604Y-73150987D01*
X48259585Y-72990822D01*
X48123375Y-72854612D01*
X47963210Y-72747593D01*
X47785243Y-72673877D01*
X47596315Y-72636297D01*
X47403685Y-72636297D01*
X47214757Y-72673877D01*
X47036790Y-72747593D01*
X46876625Y-72854612D01*
X46740415Y-72990822D01*
X46633396Y-73150987D01*
X46559680Y-73328954D01*
X46522100Y-73517882D01*
X44853971Y-73517882D01*
X44798481Y-73434837D01*
X44963210Y-73366604D01*
X45123375Y-73259585D01*
X45259585Y-73123375D01*
X45366604Y-72963210D01*
X45440320Y-72785243D01*
X45477900Y-72596315D01*
X45477900Y-72403685D01*
X45440320Y-72214757D01*
X45366604Y-72036790D01*
X45259585Y-71876625D01*
X45123375Y-71740415D01*
X44963210Y-71633396D01*
X44785243Y-71559680D01*
X44596315Y-71522100D01*
X44403685Y-71522100D01*
X44214757Y-71559680D01*
X44036790Y-71633396D01*
X43876625Y-71740415D01*
X43740415Y-71876625D01*
X43633396Y-72036790D01*
X43559680Y-72214757D01*
X43522100Y-72403685D01*
X43522100Y-72596315D01*
X43539633Y-72684460D01*
X43463210Y-72633396D01*
X43285243Y-72559680D01*
X43096315Y-72522100D01*
X42903685Y-72522100D01*
X42714757Y-72559680D01*
X42536790Y-72633396D01*
X42376625Y-72740415D01*
X42240415Y-72876625D01*
X42133396Y-73036790D01*
X42059680Y-73214757D01*
X42022100Y-73403685D01*
X37127000Y-73403685D01*
X37127000Y-70554994D01*
X51173409Y-70554994D01*
X51173409Y-70747624D01*
X51210989Y-70936552D01*
X51284705Y-71114519D01*
X51391724Y-71274684D01*
X51527934Y-71410894D01*
X51688099Y-71517913D01*
X51866066Y-71591629D01*
X52054994Y-71629209D01*
X52247624Y-71629209D01*
X52436552Y-71591629D01*
X52614519Y-71517913D01*
X52774684Y-71410894D01*
X52910894Y-71274684D01*
X53017913Y-71114519D01*
X53091629Y-70936552D01*
X53129209Y-70747624D01*
X53129209Y-70554994D01*
X53091629Y-70366066D01*
X53017913Y-70188099D01*
X52910894Y-70027934D01*
X52774684Y-69891724D01*
X52614519Y-69784705D01*
X52436552Y-69710989D01*
X52247624Y-69673409D01*
X52054994Y-69673409D01*
X51866066Y-69710989D01*
X51688099Y-69784705D01*
X51527934Y-69891724D01*
X51391724Y-70027934D01*
X51284705Y-70188099D01*
X51210989Y-70366066D01*
X51173409Y-70554994D01*
X37127000Y-70554994D01*
X37127000Y-61127000D01*
X38873000Y-61127000D01*
X38873000Y-67500000D01*
G04 #@! TA.AperFunction,Conductor*
D21*
G36*
X38873000Y-67500000D02*
G01*
X38875440Y-67524776D01*
X38882667Y-67548601D01*
X38894403Y-67570557D01*
X38910197Y-67589803D01*
X39910197Y-68589803D01*
X39929443Y-68605597D01*
X39951399Y-68617333D01*
X39975224Y-68624560D01*
X40000000Y-68627000D01*
X48596030Y-68627000D01*
X48559680Y-68714757D01*
X48522100Y-68903685D01*
X48522100Y-69096315D01*
X48559680Y-69285243D01*
X48633396Y-69463210D01*
X48740415Y-69623375D01*
X48876625Y-69759585D01*
X49036790Y-69866604D01*
X49214757Y-69940320D01*
X49403685Y-69977900D01*
X49596315Y-69977900D01*
X49785243Y-69940320D01*
X49963210Y-69866604D01*
X50123375Y-69759585D01*
X50259585Y-69623375D01*
X50366604Y-69463210D01*
X50440320Y-69285243D01*
X50477900Y-69096315D01*
X50477900Y-68903685D01*
X50440320Y-68714757D01*
X50403970Y-68627000D01*
X57846356Y-68627000D01*
X57375999Y-69097358D01*
X57374638Y-69098086D01*
X57264906Y-69188141D01*
X57210263Y-69232985D01*
X57176460Y-69274174D01*
X55512815Y-70937821D01*
X54915906Y-71534730D01*
X54874712Y-71568537D01*
X54739813Y-71732912D01*
X54639574Y-71920446D01*
X54577846Y-72123933D01*
X54564355Y-72260907D01*
X54557003Y-72335552D01*
X54562226Y-72388581D01*
X54562226Y-73772535D01*
X54572623Y-73824805D01*
X54577846Y-73877832D01*
X54593314Y-73928823D01*
X54603711Y-73981092D01*
X54624105Y-74030327D01*
X54639573Y-74081319D01*
X54664692Y-74128314D01*
X54685086Y-74177549D01*
X54714692Y-74221857D01*
X54739812Y-74268854D01*
X54773619Y-74310048D01*
X54803224Y-74354355D01*
X54840904Y-74392035D01*
X54874711Y-74433229D01*
X54915905Y-74467036D01*
X54953585Y-74504716D01*
X54997892Y-74534321D01*
X55039086Y-74568128D01*
X55086084Y-74593249D01*
X55130391Y-74622854D01*
X55179623Y-74643246D01*
X55226620Y-74668367D01*
X55277616Y-74683836D01*
X55326848Y-74704229D01*
X55379114Y-74714625D01*
X55403948Y-74722159D01*
X55376625Y-74740415D01*
X55240415Y-74876625D01*
X55133396Y-75036790D01*
X55059680Y-75214757D01*
X55022100Y-75403685D01*
X55022100Y-75596315D01*
X55059680Y-75785243D01*
X55133396Y-75963210D01*
X55240415Y-76123375D01*
X55376625Y-76259585D01*
X55536790Y-76366604D01*
X55714757Y-76440320D01*
X55903685Y-76477900D01*
X56096315Y-76477900D01*
X56285243Y-76440320D01*
X56463210Y-76366604D01*
X56623375Y-76259585D01*
X56759585Y-76123375D01*
X56866604Y-75963210D01*
X56940320Y-75785243D01*
X56977900Y-75596315D01*
X56977900Y-75403685D01*
X56940320Y-75214757D01*
X56866604Y-75036790D01*
X56759585Y-74876625D01*
X56623375Y-74740415D01*
X56463210Y-74633396D01*
X56285243Y-74559680D01*
X56260626Y-74554783D01*
X56285560Y-74534321D01*
X56329867Y-74504716D01*
X56367547Y-74467036D01*
X56408741Y-74433229D01*
X56442548Y-74392035D01*
X56480228Y-74354355D01*
X56509833Y-74310048D01*
X56543640Y-74268854D01*
X56568761Y-74221856D01*
X56598366Y-74177549D01*
X56618758Y-74128317D01*
X56643879Y-74081320D01*
X56659348Y-74030324D01*
X56679741Y-73981092D01*
X56690137Y-73928826D01*
X56705606Y-73877833D01*
X56710829Y-73824804D01*
X56721226Y-73772535D01*
X56721226Y-72782694D01*
X57039457Y-72464463D01*
X57194139Y-72309782D01*
X57311859Y-72427502D01*
X57444657Y-72516235D01*
X57410358Y-72599039D01*
X57372778Y-72787967D01*
X57372778Y-72980597D01*
X57410358Y-73169525D01*
X57484074Y-73347492D01*
X57591093Y-73507657D01*
X57727303Y-73643867D01*
X57887468Y-73750886D01*
X58039932Y-73814038D01*
X58022100Y-73903685D01*
X58022100Y-74096315D01*
X58059680Y-74285243D01*
X58133396Y-74463210D01*
X58157978Y-74500000D01*
X58133396Y-74536790D01*
X58059680Y-74714757D01*
X58022100Y-74903685D01*
X58022100Y-75096315D01*
X58059680Y-75285243D01*
X58133396Y-75463210D01*
X58240415Y-75623375D01*
X58376625Y-75759585D01*
X58536790Y-75866604D01*
X58714757Y-75940320D01*
X58903685Y-75977900D01*
X59096315Y-75977900D01*
X59285243Y-75940320D01*
X59463210Y-75866604D01*
X59623375Y-75759585D01*
X59759585Y-75623375D01*
X59866604Y-75463210D01*
X59940320Y-75285243D01*
X59977900Y-75096315D01*
X59977900Y-74903685D01*
X59940320Y-74714757D01*
X59866604Y-74536790D01*
X59842022Y-74500000D01*
X59866604Y-74463210D01*
X59940320Y-74285243D01*
X59977900Y-74096315D01*
X59977900Y-73903685D01*
X59940320Y-73714757D01*
X59866604Y-73536790D01*
X59759585Y-73376625D01*
X59623375Y-73240415D01*
X59463210Y-73133396D01*
X59310746Y-73070244D01*
X59328578Y-72980597D01*
X59328578Y-72787967D01*
X59290998Y-72599039D01*
X59217282Y-72421072D01*
X59110263Y-72260907D01*
X58974053Y-72124697D01*
X58950761Y-72109134D01*
X58956640Y-72100335D01*
X59038015Y-71903878D01*
X59079500Y-71695321D01*
X59079500Y-71482679D01*
X59038015Y-71274122D01*
X58956640Y-71077665D01*
X58838502Y-70900859D01*
X58732766Y-70795123D01*
X58767015Y-70767015D01*
X58800826Y-70725816D01*
X59447143Y-70079500D01*
X67446971Y-70079500D01*
X67500000Y-70084723D01*
X67553029Y-70079500D01*
X67711619Y-70063880D01*
X67873000Y-70014926D01*
X67873000Y-89340000D01*
X53686643Y-89340000D01*
X53703166Y-89323477D01*
X53821304Y-89146671D01*
X53902679Y-88950214D01*
X53944164Y-88741657D01*
X53944164Y-88529015D01*
X53902679Y-88320458D01*
X53821304Y-88124001D01*
X53775918Y-88056076D01*
X53893679Y-88079500D01*
X54106321Y-88079500D01*
X54314878Y-88038015D01*
X54511335Y-87956640D01*
X54688141Y-87838502D01*
X54838502Y-87688141D01*
X54956640Y-87511335D01*
X55038015Y-87314878D01*
X55079500Y-87106321D01*
X55079500Y-86893679D01*
X55038015Y-86685122D01*
X54956640Y-86488665D01*
X54951737Y-86481326D01*
X55011335Y-86456640D01*
X55188141Y-86338502D01*
X55338502Y-86188141D01*
X55456640Y-86011335D01*
X55538015Y-85814878D01*
X55579500Y-85606321D01*
X55579500Y-85393679D01*
X55538015Y-85185122D01*
X55456640Y-84988665D01*
X55338502Y-84811859D01*
X55188141Y-84661498D01*
X55011335Y-84543360D01*
X54814878Y-84461985D01*
X54606321Y-84420500D01*
X54393679Y-84420500D01*
X54185122Y-84461985D01*
X53988665Y-84543360D01*
X53811859Y-84661498D01*
X53661498Y-84811859D01*
X53543360Y-84988665D01*
X53461985Y-85185122D01*
X53420500Y-85393679D01*
X53420500Y-85606321D01*
X53461985Y-85814878D01*
X53543360Y-86011335D01*
X53548263Y-86018674D01*
X53488665Y-86043360D01*
X53311859Y-86161498D01*
X53161498Y-86311859D01*
X53043360Y-86488665D01*
X52961985Y-86685122D01*
X52920500Y-86893679D01*
X52920500Y-87106321D01*
X52961985Y-87314878D01*
X53043360Y-87511335D01*
X53088746Y-87579260D01*
X52970985Y-87555836D01*
X52758343Y-87555836D01*
X52549786Y-87597321D01*
X52471227Y-87629861D01*
X52477900Y-87596315D01*
X52477900Y-87403685D01*
X52440320Y-87214757D01*
X52366604Y-87036790D01*
X52259585Y-86876625D01*
X52123375Y-86740415D01*
X51963210Y-86633396D01*
X51785243Y-86559680D01*
X51596315Y-86522100D01*
X51403685Y-86522100D01*
X51214757Y-86559680D01*
X51036790Y-86633396D01*
X50876625Y-86740415D01*
X50740415Y-86876625D01*
X50633396Y-87036790D01*
X50559680Y-87214757D01*
X50522100Y-87403685D01*
X50522100Y-87596315D01*
X50559680Y-87785243D01*
X50633396Y-87963210D01*
X50740415Y-88123375D01*
X50876625Y-88259585D01*
X51036790Y-88366604D01*
X51214757Y-88440320D01*
X51403685Y-88477900D01*
X51596315Y-88477900D01*
X51785243Y-88440320D01*
X51804384Y-88432392D01*
X51785164Y-88529015D01*
X51785164Y-88741657D01*
X51826649Y-88950214D01*
X51908024Y-89146671D01*
X52026162Y-89323477D01*
X52042685Y-89340000D01*
X37127000Y-89340000D01*
X37127000Y-86903685D01*
X44022100Y-86903685D01*
X44022100Y-87096315D01*
X44059680Y-87285243D01*
X44133396Y-87463210D01*
X44240415Y-87623375D01*
X44376625Y-87759585D01*
X44536790Y-87866604D01*
X44714757Y-87940320D01*
X44903685Y-87977900D01*
X45096315Y-87977900D01*
X45285243Y-87940320D01*
X45463210Y-87866604D01*
X45623375Y-87759585D01*
X45759585Y-87623375D01*
X45866604Y-87463210D01*
X45940320Y-87285243D01*
X45977900Y-87096315D01*
X45977900Y-86903685D01*
X45940320Y-86714757D01*
X45866604Y-86536790D01*
X45759585Y-86376625D01*
X45623375Y-86240415D01*
X45463210Y-86133396D01*
X45285243Y-86059680D01*
X45096315Y-86022100D01*
X44903685Y-86022100D01*
X44714757Y-86059680D01*
X44536790Y-86133396D01*
X44376625Y-86240415D01*
X44240415Y-86376625D01*
X44133396Y-86536790D01*
X44059680Y-86714757D01*
X44022100Y-86903685D01*
X37127000Y-86903685D01*
X37127000Y-81903685D01*
X50522100Y-81903685D01*
X50522100Y-82096315D01*
X50559680Y-82285243D01*
X50633396Y-82463210D01*
X50740415Y-82623375D01*
X50876625Y-82759585D01*
X51036790Y-82866604D01*
X51214757Y-82940320D01*
X51403685Y-82977900D01*
X51596315Y-82977900D01*
X51785243Y-82940320D01*
X51963210Y-82866604D01*
X52123375Y-82759585D01*
X52259585Y-82623375D01*
X52366604Y-82463210D01*
X52440320Y-82285243D01*
X52477900Y-82096315D01*
X52477900Y-81903685D01*
X52454600Y-81786544D01*
X65145000Y-81786544D01*
X65145000Y-82053456D01*
X65197072Y-82315239D01*
X65299215Y-82561833D01*
X65447503Y-82783762D01*
X65636238Y-82972497D01*
X65858167Y-83120785D01*
X66025266Y-83190000D01*
X65858167Y-83259215D01*
X65636238Y-83407503D01*
X65447503Y-83596238D01*
X65299215Y-83818167D01*
X65197072Y-84064761D01*
X65145000Y-84326544D01*
X65145000Y-84593456D01*
X65197072Y-84855239D01*
X65299215Y-85101833D01*
X65447503Y-85323762D01*
X65636238Y-85512497D01*
X65858167Y-85660785D01*
X66025266Y-85730000D01*
X65858167Y-85799215D01*
X65636238Y-85947503D01*
X65447503Y-86136238D01*
X65299215Y-86358167D01*
X65197072Y-86604761D01*
X65145000Y-86866544D01*
X65145000Y-87133456D01*
X65197072Y-87395239D01*
X65299215Y-87641833D01*
X65447503Y-87863762D01*
X65636238Y-88052497D01*
X65858167Y-88200785D01*
X66104761Y-88302928D01*
X66366544Y-88355000D01*
X66633456Y-88355000D01*
X66895239Y-88302928D01*
X67141833Y-88200785D01*
X67363762Y-88052497D01*
X67552497Y-87863762D01*
X67700785Y-87641833D01*
X67802928Y-87395239D01*
X67855000Y-87133456D01*
X67855000Y-86866544D01*
X67802928Y-86604761D01*
X67700785Y-86358167D01*
X67552497Y-86136238D01*
X67363762Y-85947503D01*
X67141833Y-85799215D01*
X66974734Y-85730000D01*
X67141833Y-85660785D01*
X67363762Y-85512497D01*
X67552497Y-85323762D01*
X67700785Y-85101833D01*
X67802928Y-84855239D01*
X67855000Y-84593456D01*
X67855000Y-84326544D01*
X67802928Y-84064761D01*
X67700785Y-83818167D01*
X67552497Y-83596238D01*
X67363762Y-83407503D01*
X67141833Y-83259215D01*
X66974734Y-83190000D01*
X67141833Y-83120785D01*
X67363762Y-82972497D01*
X67552497Y-82783762D01*
X67700785Y-82561833D01*
X67802928Y-82315239D01*
X67855000Y-82053456D01*
X67855000Y-81786544D01*
X67802928Y-81524761D01*
X67700785Y-81278167D01*
X67552497Y-81056238D01*
X67363762Y-80867503D01*
X67141833Y-80719215D01*
X66895239Y-80617072D01*
X66633456Y-80565000D01*
X66366544Y-80565000D01*
X66104761Y-80617072D01*
X65858167Y-80719215D01*
X65636238Y-80867503D01*
X65447503Y-81056238D01*
X65299215Y-81278167D01*
X65197072Y-81524761D01*
X65145000Y-81786544D01*
X52454600Y-81786544D01*
X52440320Y-81714757D01*
X52366604Y-81536790D01*
X52259585Y-81376625D01*
X52123375Y-81240415D01*
X51963210Y-81133396D01*
X51785243Y-81059680D01*
X51596315Y-81022100D01*
X51403685Y-81022100D01*
X51214757Y-81059680D01*
X51036790Y-81133396D01*
X50876625Y-81240415D01*
X50740415Y-81376625D01*
X50633396Y-81536790D01*
X50559680Y-81714757D01*
X50522100Y-81903685D01*
X37127000Y-81903685D01*
X37127000Y-77403685D01*
X43022100Y-77403685D01*
X43022100Y-77596315D01*
X43059680Y-77785243D01*
X43133396Y-77963210D01*
X43157978Y-78000000D01*
X43133396Y-78036790D01*
X43059680Y-78214757D01*
X43022100Y-78403685D01*
X43022100Y-78596315D01*
X43059680Y-78785243D01*
X43133396Y-78963210D01*
X43240415Y-79123375D01*
X43376625Y-79259585D01*
X43536790Y-79366604D01*
X43714757Y-79440320D01*
X43903685Y-79477900D01*
X44096315Y-79477900D01*
X44285243Y-79440320D01*
X44463210Y-79366604D01*
X44623375Y-79259585D01*
X44759585Y-79123375D01*
X44866604Y-78963210D01*
X44940320Y-78785243D01*
X44977900Y-78596315D01*
X44977900Y-78403685D01*
X44940320Y-78214757D01*
X44866604Y-78036790D01*
X44842022Y-78000000D01*
X44866604Y-77963210D01*
X44940320Y-77785243D01*
X44977900Y-77596315D01*
X44977900Y-77403685D01*
X44940320Y-77214757D01*
X44866604Y-77036790D01*
X44777666Y-76903685D01*
X45022100Y-76903685D01*
X45022100Y-77096315D01*
X45059680Y-77285243D01*
X45133396Y-77463210D01*
X45240415Y-77623375D01*
X45376625Y-77759585D01*
X45536790Y-77866604D01*
X45714757Y-77940320D01*
X45903685Y-77977900D01*
X46096315Y-77977900D01*
X46285243Y-77940320D01*
X46463210Y-77866604D01*
X46623375Y-77759585D01*
X46759585Y-77623375D01*
X46866604Y-77463210D01*
X46940320Y-77285243D01*
X46977900Y-77096315D01*
X46977900Y-76903685D01*
X46940320Y-76714757D01*
X46866604Y-76536790D01*
X46759585Y-76376625D01*
X46623375Y-76240415D01*
X46463210Y-76133396D01*
X46285243Y-76059680D01*
X46096315Y-76022100D01*
X45903685Y-76022100D01*
X45714757Y-76059680D01*
X45536790Y-76133396D01*
X45376625Y-76240415D01*
X45240415Y-76376625D01*
X45133396Y-76536790D01*
X45059680Y-76714757D01*
X45022100Y-76903685D01*
X44777666Y-76903685D01*
X44759585Y-76876625D01*
X44623375Y-76740415D01*
X44463210Y-76633396D01*
X44285243Y-76559680D01*
X44096315Y-76522100D01*
X43903685Y-76522100D01*
X43714757Y-76559680D01*
X43536790Y-76633396D01*
X43376625Y-76740415D01*
X43240415Y-76876625D01*
X43133396Y-77036790D01*
X43059680Y-77214757D01*
X43022100Y-77403685D01*
X37127000Y-77403685D01*
X37127000Y-73403685D01*
X42022100Y-73403685D01*
X42022100Y-73596315D01*
X42059680Y-73785243D01*
X42133396Y-73963210D01*
X42240415Y-74123375D01*
X42376625Y-74259585D01*
X42536790Y-74366604D01*
X42714757Y-74440320D01*
X42903685Y-74477900D01*
X43096315Y-74477900D01*
X43137710Y-74469666D01*
X43157978Y-74500000D01*
X43133396Y-74536790D01*
X43059680Y-74714757D01*
X43022100Y-74903685D01*
X43022100Y-75096315D01*
X43059680Y-75285243D01*
X43133396Y-75463210D01*
X43240415Y-75623375D01*
X43376625Y-75759585D01*
X43536790Y-75866604D01*
X43714757Y-75940320D01*
X43903685Y-75977900D01*
X44096315Y-75977900D01*
X44285243Y-75940320D01*
X44463210Y-75866604D01*
X44623375Y-75759585D01*
X44759585Y-75623375D01*
X44866604Y-75463210D01*
X44940320Y-75285243D01*
X44977900Y-75096315D01*
X44977900Y-74903685D01*
X44940320Y-74714757D01*
X44866604Y-74536790D01*
X44842022Y-74500000D01*
X44866604Y-74463210D01*
X44940320Y-74285243D01*
X44977900Y-74096315D01*
X44977900Y-73903685D01*
X44940320Y-73714757D01*
X44866604Y-73536790D01*
X44853971Y-73517882D01*
X46522100Y-73517882D01*
X46522100Y-73710512D01*
X46559680Y-73899440D01*
X46633396Y-74077407D01*
X46653769Y-74107897D01*
X46633396Y-74138387D01*
X46559680Y-74316354D01*
X46522100Y-74505282D01*
X46522100Y-74697912D01*
X46559680Y-74886840D01*
X46633396Y-75064807D01*
X46740415Y-75224972D01*
X46876625Y-75361182D01*
X47036790Y-75468201D01*
X47214757Y-75541917D01*
X47403685Y-75579497D01*
X47596315Y-75579497D01*
X47785243Y-75541917D01*
X47963210Y-75468201D01*
X48123375Y-75361182D01*
X48259585Y-75224972D01*
X48366604Y-75064807D01*
X48440320Y-74886840D01*
X48477900Y-74697912D01*
X48477900Y-74505282D01*
X48440320Y-74316354D01*
X48366604Y-74138387D01*
X48346231Y-74107897D01*
X48366604Y-74077407D01*
X48440320Y-73899440D01*
X48477900Y-73710512D01*
X48477900Y-73517882D01*
X48440320Y-73328954D01*
X48366604Y-73150987D01*
X48259585Y-72990822D01*
X48123375Y-72854612D01*
X47963210Y-72747593D01*
X47785243Y-72673877D01*
X47596315Y-72636297D01*
X47403685Y-72636297D01*
X47214757Y-72673877D01*
X47036790Y-72747593D01*
X46876625Y-72854612D01*
X46740415Y-72990822D01*
X46633396Y-73150987D01*
X46559680Y-73328954D01*
X46522100Y-73517882D01*
X44853971Y-73517882D01*
X44798481Y-73434837D01*
X44963210Y-73366604D01*
X45123375Y-73259585D01*
X45259585Y-73123375D01*
X45366604Y-72963210D01*
X45440320Y-72785243D01*
X45477900Y-72596315D01*
X45477900Y-72403685D01*
X45440320Y-72214757D01*
X45366604Y-72036790D01*
X45259585Y-71876625D01*
X45123375Y-71740415D01*
X44963210Y-71633396D01*
X44785243Y-71559680D01*
X44596315Y-71522100D01*
X44403685Y-71522100D01*
X44214757Y-71559680D01*
X44036790Y-71633396D01*
X43876625Y-71740415D01*
X43740415Y-71876625D01*
X43633396Y-72036790D01*
X43559680Y-72214757D01*
X43522100Y-72403685D01*
X43522100Y-72596315D01*
X43539633Y-72684460D01*
X43463210Y-72633396D01*
X43285243Y-72559680D01*
X43096315Y-72522100D01*
X42903685Y-72522100D01*
X42714757Y-72559680D01*
X42536790Y-72633396D01*
X42376625Y-72740415D01*
X42240415Y-72876625D01*
X42133396Y-73036790D01*
X42059680Y-73214757D01*
X42022100Y-73403685D01*
X37127000Y-73403685D01*
X37127000Y-70554994D01*
X51173409Y-70554994D01*
X51173409Y-70747624D01*
X51210989Y-70936552D01*
X51284705Y-71114519D01*
X51391724Y-71274684D01*
X51527934Y-71410894D01*
X51688099Y-71517913D01*
X51866066Y-71591629D01*
X52054994Y-71629209D01*
X52247624Y-71629209D01*
X52436552Y-71591629D01*
X52614519Y-71517913D01*
X52774684Y-71410894D01*
X52910894Y-71274684D01*
X53017913Y-71114519D01*
X53091629Y-70936552D01*
X53129209Y-70747624D01*
X53129209Y-70554994D01*
X53091629Y-70366066D01*
X53017913Y-70188099D01*
X52910894Y-70027934D01*
X52774684Y-69891724D01*
X52614519Y-69784705D01*
X52436552Y-69710989D01*
X52247624Y-69673409D01*
X52054994Y-69673409D01*
X51866066Y-69710989D01*
X51688099Y-69784705D01*
X51527934Y-69891724D01*
X51391724Y-70027934D01*
X51284705Y-70188099D01*
X51210989Y-70366066D01*
X51173409Y-70554994D01*
X37127000Y-70554994D01*
X37127000Y-61127000D01*
X38873000Y-61127000D01*
X38873000Y-67500000D01*
G37*
G04 #@! TD.AperFunction*
D20*
X46873000Y-67373000D02*
X40127000Y-67373000D01*
X40127000Y-61127000D01*
X46873000Y-61127000D01*
X46873000Y-67373000D01*
G04 #@! TA.AperFunction,Conductor*
D21*
G36*
X46873000Y-67373000D02*
G01*
X40127000Y-67373000D01*
X40127000Y-61127000D01*
X46873000Y-61127000D01*
X46873000Y-67373000D01*
G37*
G04 #@! TD.AperFunction*
D20*
X52373000Y-63373000D02*
X48127000Y-63373000D01*
X48127000Y-61000000D01*
X48124560Y-60975224D01*
X48117333Y-60951399D01*
X48105597Y-60929443D01*
X48089803Y-60910197D01*
X47089803Y-59910197D01*
X47070557Y-59894403D01*
X47048601Y-59882667D01*
X47024776Y-59875440D01*
X47000000Y-59873000D01*
X43627000Y-59873000D01*
X43627000Y-53127000D01*
X52373000Y-53127000D01*
X52373000Y-63373000D01*
G04 #@! TA.AperFunction,Conductor*
D21*
G36*
X52373000Y-63373000D02*
G01*
X48127000Y-63373000D01*
X48127000Y-61000000D01*
X48124560Y-60975224D01*
X48117333Y-60951399D01*
X48105597Y-60929443D01*
X48089803Y-60910197D01*
X47089803Y-59910197D01*
X47070557Y-59894403D01*
X47048601Y-59882667D01*
X47024776Y-59875440D01*
X47000000Y-59873000D01*
X43627000Y-59873000D01*
X43627000Y-53127000D01*
X52373000Y-53127000D01*
X52373000Y-63373000D01*
G37*
G04 #@! TD.AperFunction*
D20*
X63373000Y-67373000D02*
X56127000Y-67373000D01*
X56127000Y-60627000D01*
X63373000Y-60627000D01*
X63373000Y-67373000D01*
G04 #@! TA.AperFunction,Conductor*
D21*
G36*
X63373000Y-67373000D02*
G01*
X56127000Y-67373000D01*
X56127000Y-60627000D01*
X63373000Y-60627000D01*
X63373000Y-67373000D01*
G37*
G04 #@! TD.AperFunction*
D20*
X73873000Y-59373000D02*
X56127000Y-59373000D01*
X56127000Y-53127000D01*
X73873000Y-53127000D01*
X73873000Y-59373000D01*
G04 #@! TA.AperFunction,Conductor*
D21*
G36*
X73873000Y-59373000D02*
G01*
X56127000Y-59373000D01*
X56127000Y-53127000D01*
X73873000Y-53127000D01*
X73873000Y-59373000D01*
G37*
G04 #@! TD.AperFunction*
D20*
X38373000Y-25500000D02*
X38375440Y-25524776D01*
X38382667Y-25548601D01*
X38394403Y-25570557D01*
X38410197Y-25589803D01*
X40410197Y-27589803D01*
X40429443Y-27605597D01*
X40451399Y-27617333D01*
X40475224Y-27624560D01*
X40500000Y-27627000D01*
X43500000Y-27627000D01*
X43524776Y-27624560D01*
X43548601Y-27617333D01*
X43570557Y-27605597D01*
X43589803Y-27589803D01*
X45589803Y-25589803D01*
X45605597Y-25570557D01*
X45617333Y-25548601D01*
X45624560Y-25524776D01*
X45627000Y-25500000D01*
X45627000Y-20660000D01*
X87373000Y-20660000D01*
X87373000Y-25500000D01*
X87375440Y-25524776D01*
X87382667Y-25548601D01*
X87394403Y-25570557D01*
X87410197Y-25589803D01*
X89410197Y-27589803D01*
X89429443Y-27605597D01*
X89451399Y-27617333D01*
X89475224Y-27624560D01*
X89500000Y-27627000D01*
X92500000Y-27627000D01*
X92524776Y-27624560D01*
X92548601Y-27617333D01*
X92570557Y-27605597D01*
X92589803Y-27589803D01*
X94589803Y-25589803D01*
X94605597Y-25570557D01*
X94617333Y-25548601D01*
X94624560Y-25524776D01*
X94627000Y-25500000D01*
X94627000Y-23809419D01*
X98565000Y-23809419D01*
X98565000Y-24190581D01*
X98639361Y-24564419D01*
X98785225Y-24916566D01*
X98996987Y-25233491D01*
X99266509Y-25503013D01*
X99583434Y-25714775D01*
X99935581Y-25860639D01*
X100309419Y-25935000D01*
X100690581Y-25935000D01*
X101064419Y-25860639D01*
X101416566Y-25714775D01*
X101733491Y-25503013D01*
X102003013Y-25233491D01*
X102214775Y-24916566D01*
X102360639Y-24564419D01*
X102435000Y-24190581D01*
X102435000Y-23809419D01*
X102360639Y-23435581D01*
X102214775Y-23083434D01*
X102003013Y-22766509D01*
X101733491Y-22496987D01*
X101416566Y-22285225D01*
X101064419Y-22139361D01*
X100690581Y-22065000D01*
X100309419Y-22065000D01*
X99935581Y-22139361D01*
X99583434Y-22285225D01*
X99266509Y-22496987D01*
X98996987Y-22766509D01*
X98785225Y-23083434D01*
X98639361Y-23435581D01*
X98565000Y-23809419D01*
X94627000Y-23809419D01*
X94627000Y-20660000D01*
X104340001Y-20660000D01*
X104340000Y-69726620D01*
X88616597Y-85450023D01*
X88605597Y-85429443D01*
X88589803Y-85410197D01*
X85589803Y-82410197D01*
X85570557Y-82394403D01*
X85548601Y-82382667D01*
X85524776Y-82375440D01*
X85500000Y-82373000D01*
X81500000Y-82373000D01*
X81475224Y-82375440D01*
X81451399Y-82382667D01*
X81429443Y-82394403D01*
X81410197Y-82410197D01*
X79410197Y-84410197D01*
X79394403Y-84429443D01*
X79382667Y-84451399D01*
X79375440Y-84475224D01*
X79373000Y-84500000D01*
X79373000Y-89340000D01*
X69127000Y-89340000D01*
X69127000Y-88636511D01*
X69161498Y-88688141D01*
X69311859Y-88838502D01*
X69488665Y-88956640D01*
X69685122Y-89038015D01*
X69893679Y-89079500D01*
X70106321Y-89079500D01*
X70314878Y-89038015D01*
X70511335Y-88956640D01*
X70688141Y-88838502D01*
X70838502Y-88688141D01*
X70956640Y-88511335D01*
X71038015Y-88314878D01*
X71079500Y-88106321D01*
X71079500Y-87893679D01*
X71038015Y-87685122D01*
X70956640Y-87488665D01*
X70838502Y-87311859D01*
X70688141Y-87161498D01*
X70511335Y-87043360D01*
X70314878Y-86961985D01*
X70106321Y-86920500D01*
X69893679Y-86920500D01*
X69685122Y-86961985D01*
X69488665Y-87043360D01*
X69311859Y-87161498D01*
X69161498Y-87311859D01*
X69127000Y-87363489D01*
X69127000Y-74300000D01*
X70661928Y-74300000D01*
X70661928Y-76700000D01*
X70674188Y-76824482D01*
X70710498Y-76944180D01*
X70769463Y-77054494D01*
X70848815Y-77151185D01*
X70945506Y-77230537D01*
X71055820Y-77289502D01*
X71175518Y-77325812D01*
X71300000Y-77338072D01*
X73700000Y-77338072D01*
X73824482Y-77325812D01*
X73944180Y-77289502D01*
X74054494Y-77230537D01*
X74151185Y-77151185D01*
X74230537Y-77054494D01*
X74289502Y-76944180D01*
X74325812Y-76824482D01*
X74338072Y-76700000D01*
X74338072Y-74300000D01*
X74325812Y-74175518D01*
X74289502Y-74055820D01*
X74230537Y-73945506D01*
X74151185Y-73848815D01*
X74054494Y-73769463D01*
X73944180Y-73710498D01*
X73824482Y-73674188D01*
X73700000Y-73661928D01*
X71300000Y-73661928D01*
X71175518Y-73674188D01*
X71055820Y-73710498D01*
X70945506Y-73769463D01*
X70848815Y-73848815D01*
X70769463Y-73945506D01*
X70710498Y-74055820D01*
X70674188Y-74175518D01*
X70661928Y-74300000D01*
X69127000Y-74300000D01*
X69127000Y-67500000D01*
X69124560Y-67475224D01*
X69117333Y-67451399D01*
X69105597Y-67429443D01*
X69089803Y-67410197D01*
X69079500Y-67401742D01*
X69079500Y-67393679D01*
X69069103Y-67341410D01*
X69063880Y-67288381D01*
X69048411Y-67237388D01*
X69038015Y-67185122D01*
X69017622Y-67135890D01*
X69002153Y-67084894D01*
X68977032Y-67037897D01*
X68956640Y-66988665D01*
X68927035Y-66944358D01*
X68901914Y-66897360D01*
X68868107Y-66856166D01*
X68838502Y-66811859D01*
X68800822Y-66774179D01*
X68767015Y-66732985D01*
X68725821Y-66699178D01*
X68688141Y-66661498D01*
X68643834Y-66631893D01*
X68602640Y-66598086D01*
X68555642Y-66572965D01*
X68511335Y-66543360D01*
X68462103Y-66522968D01*
X68415106Y-66497847D01*
X68364110Y-66482378D01*
X68314878Y-66461985D01*
X68262612Y-66451589D01*
X68211619Y-66436120D01*
X68158590Y-66430897D01*
X68106321Y-66420500D01*
X68053029Y-66420500D01*
X68000000Y-66415277D01*
X67946971Y-66420500D01*
X67893679Y-66420500D01*
X67841410Y-66430897D01*
X67788382Y-66436120D01*
X67737391Y-66451588D01*
X67685122Y-66461985D01*
X67635887Y-66482379D01*
X67584895Y-66497847D01*
X67537901Y-66522966D01*
X67488665Y-66543360D01*
X67444354Y-66572968D01*
X67397361Y-66598086D01*
X67356171Y-66631889D01*
X67311859Y-66661498D01*
X67274175Y-66699182D01*
X67232986Y-66732985D01*
X67199183Y-66774174D01*
X67161498Y-66811859D01*
X67131889Y-66856173D01*
X67098087Y-66897360D01*
X67072970Y-66944350D01*
X67043360Y-66988665D01*
X67022964Y-67037905D01*
X66997848Y-67084894D01*
X66982380Y-67135883D01*
X66961985Y-67185122D01*
X66951588Y-67237390D01*
X66936120Y-67288381D01*
X66930897Y-67341410D01*
X66924613Y-67373000D01*
X64627000Y-67373000D01*
X64627000Y-61309419D01*
X98565000Y-61309419D01*
X98565000Y-61690581D01*
X98639361Y-62064419D01*
X98785225Y-62416566D01*
X98996987Y-62733491D01*
X99266509Y-63003013D01*
X99583434Y-63214775D01*
X99935581Y-63360639D01*
X100309419Y-63435000D01*
X100690581Y-63435000D01*
X101064419Y-63360639D01*
X101416566Y-63214775D01*
X101733491Y-63003013D01*
X102003013Y-62733491D01*
X102214775Y-62416566D01*
X102360639Y-62064419D01*
X102435000Y-61690581D01*
X102435000Y-61309419D01*
X102360639Y-60935581D01*
X102214775Y-60583434D01*
X102003013Y-60266509D01*
X101733491Y-59996987D01*
X101416566Y-59785225D01*
X101064419Y-59639361D01*
X100690581Y-59565000D01*
X100309419Y-59565000D01*
X99935581Y-59639361D01*
X99583434Y-59785225D01*
X99266509Y-59996987D01*
X98996987Y-60266509D01*
X98785225Y-60583434D01*
X98639361Y-60935581D01*
X98565000Y-61309419D01*
X64627000Y-61309419D01*
X64627000Y-60627000D01*
X75000000Y-60627000D01*
X75024776Y-60624560D01*
X75048601Y-60617333D01*
X75070557Y-60605597D01*
X75089803Y-60589803D01*
X75105597Y-60570557D01*
X75117333Y-60548601D01*
X75124560Y-60524776D01*
X75127000Y-60500000D01*
X75127000Y-59348816D01*
X89965000Y-59348816D01*
X89965000Y-59651184D01*
X90023989Y-59947743D01*
X90139701Y-60227095D01*
X90307688Y-60478505D01*
X90521495Y-60692312D01*
X90772905Y-60860299D01*
X91052257Y-60976011D01*
X91348816Y-61035000D01*
X91651184Y-61035000D01*
X91947743Y-60976011D01*
X92227095Y-60860299D01*
X92478505Y-60692312D01*
X92692312Y-60478505D01*
X92860299Y-60227095D01*
X92976011Y-59947743D01*
X93035000Y-59651184D01*
X93035000Y-59348816D01*
X92976011Y-59052257D01*
X92860299Y-58772905D01*
X92692312Y-58521495D01*
X92478505Y-58307688D01*
X92227095Y-58139701D01*
X91947743Y-58023989D01*
X91651184Y-57965000D01*
X91348816Y-57965000D01*
X91052257Y-58023989D01*
X90772905Y-58139701D01*
X90521495Y-58307688D01*
X90307688Y-58521495D01*
X90139701Y-58772905D01*
X90023989Y-59052257D01*
X89965000Y-59348816D01*
X75127000Y-59348816D01*
X75127000Y-52000000D01*
X75124560Y-51975224D01*
X75117333Y-51951399D01*
X75105597Y-51929443D01*
X75089803Y-51910197D01*
X75070557Y-51894403D01*
X75048601Y-51882667D01*
X75024776Y-51875440D01*
X75000000Y-51873000D01*
X42500000Y-51873000D01*
X42475224Y-51875440D01*
X42451399Y-51882667D01*
X42429443Y-51894403D01*
X42410197Y-51910197D01*
X42394403Y-51929443D01*
X42382667Y-51951399D01*
X42375440Y-51975224D01*
X42373000Y-52000000D01*
X42373000Y-59873000D01*
X36000000Y-59873000D01*
X35975224Y-59875440D01*
X35951399Y-59882667D01*
X35929443Y-59894403D01*
X35910197Y-59910197D01*
X35894403Y-59929443D01*
X35882667Y-59951399D01*
X35875440Y-59975224D01*
X35873000Y-60000000D01*
X35873000Y-89340000D01*
X32627000Y-89340000D01*
X32627000Y-84500000D01*
X32624560Y-84475224D01*
X32617333Y-84451399D01*
X32605597Y-84429443D01*
X32589803Y-84410197D01*
X30589803Y-82410197D01*
X30570557Y-82394403D01*
X30548601Y-82382667D01*
X30524776Y-82375440D01*
X30500000Y-82373000D01*
X25660000Y-82373000D01*
X25660000Y-74300000D01*
X27661928Y-74300000D01*
X27661928Y-76700000D01*
X27674188Y-76824482D01*
X27710498Y-76944180D01*
X27769463Y-77054494D01*
X27848815Y-77151185D01*
X27945506Y-77230537D01*
X28055820Y-77289502D01*
X28175518Y-77325812D01*
X28300000Y-77338072D01*
X30700000Y-77338072D01*
X30824482Y-77325812D01*
X30944180Y-77289502D01*
X31054494Y-77230537D01*
X31151185Y-77151185D01*
X31230537Y-77054494D01*
X31289502Y-76944180D01*
X31325812Y-76824482D01*
X31338072Y-76700000D01*
X31338072Y-74300000D01*
X31325812Y-74175518D01*
X31289502Y-74055820D01*
X31230537Y-73945506D01*
X31151185Y-73848815D01*
X31054494Y-73769463D01*
X30944180Y-73710498D01*
X30824482Y-73674188D01*
X30700000Y-73661928D01*
X28300000Y-73661928D01*
X28175518Y-73674188D01*
X28055820Y-73710498D01*
X27945506Y-73769463D01*
X27848815Y-73848815D01*
X27769463Y-73945506D01*
X27710498Y-74055820D01*
X27674188Y-74175518D01*
X27661928Y-74300000D01*
X25660000Y-74300000D01*
X25660000Y-52800000D01*
X27661928Y-52800000D01*
X27661928Y-55200000D01*
X27674188Y-55324482D01*
X27710498Y-55444180D01*
X27769463Y-55554494D01*
X27848815Y-55651185D01*
X27945506Y-55730537D01*
X28055820Y-55789502D01*
X28175518Y-55825812D01*
X28300000Y-55838072D01*
X30700000Y-55838072D01*
X30824482Y-55825812D01*
X30944180Y-55789502D01*
X31054494Y-55730537D01*
X31151185Y-55651185D01*
X31230537Y-55554494D01*
X31289502Y-55444180D01*
X31325812Y-55324482D01*
X31338072Y-55200000D01*
X31338072Y-52800000D01*
X31325812Y-52675518D01*
X31289502Y-52555820D01*
X31230537Y-52445506D01*
X31151185Y-52348815D01*
X31054494Y-52269463D01*
X30944180Y-52210498D01*
X30824482Y-52174188D01*
X30700000Y-52161928D01*
X28300000Y-52161928D01*
X28175518Y-52174188D01*
X28055820Y-52210498D01*
X27945506Y-52269463D01*
X27848815Y-52348815D01*
X27769463Y-52445506D01*
X27710498Y-52555820D01*
X27674188Y-52675518D01*
X27661928Y-52800000D01*
X25660000Y-52800000D01*
X25660000Y-46800000D01*
X87661928Y-46800000D01*
X87661928Y-49200000D01*
X87674188Y-49324482D01*
X87710498Y-49444180D01*
X87769463Y-49554494D01*
X87848815Y-49651185D01*
X87945506Y-49730537D01*
X88055820Y-49789502D01*
X88175518Y-49825812D01*
X88300000Y-49838072D01*
X90700000Y-49838072D01*
X90824482Y-49825812D01*
X90944180Y-49789502D01*
X91054494Y-49730537D01*
X91151185Y-49651185D01*
X91230537Y-49554494D01*
X91289502Y-49444180D01*
X91325812Y-49324482D01*
X91338072Y-49200000D01*
X91338072Y-48809419D01*
X98565000Y-48809419D01*
X98565000Y-49190581D01*
X98639361Y-49564419D01*
X98785225Y-49916566D01*
X98996987Y-50233491D01*
X99266509Y-50503013D01*
X99583434Y-50714775D01*
X99935581Y-50860639D01*
X100309419Y-50935000D01*
X100690581Y-50935000D01*
X101064419Y-50860639D01*
X101416566Y-50714775D01*
X101733491Y-50503013D01*
X102003013Y-50233491D01*
X102214775Y-49916566D01*
X102360639Y-49564419D01*
X102435000Y-49190581D01*
X102435000Y-48809419D01*
X102360639Y-48435581D01*
X102214775Y-48083434D01*
X102003013Y-47766509D01*
X101733491Y-47496987D01*
X101416566Y-47285225D01*
X101064419Y-47139361D01*
X100690581Y-47065000D01*
X100309419Y-47065000D01*
X99935581Y-47139361D01*
X99583434Y-47285225D01*
X99266509Y-47496987D01*
X98996987Y-47766509D01*
X98785225Y-48083434D01*
X98639361Y-48435581D01*
X98565000Y-48809419D01*
X91338072Y-48809419D01*
X91338072Y-46800000D01*
X91325812Y-46675518D01*
X91289502Y-46555820D01*
X91230537Y-46445506D01*
X91151185Y-46348815D01*
X91054494Y-46269463D01*
X90944180Y-46210498D01*
X90824482Y-46174188D01*
X90700000Y-46161928D01*
X88300000Y-46161928D01*
X88175518Y-46174188D01*
X88055820Y-46210498D01*
X87945506Y-46269463D01*
X87848815Y-46348815D01*
X87769463Y-46445506D01*
X87710498Y-46555820D01*
X87674188Y-46675518D01*
X87661928Y-46800000D01*
X25660000Y-46800000D01*
X25660000Y-38800000D01*
X27661928Y-38800000D01*
X27661928Y-41200000D01*
X27674188Y-41324482D01*
X27710498Y-41444180D01*
X27769463Y-41554494D01*
X27848815Y-41651185D01*
X27945506Y-41730537D01*
X28055820Y-41789502D01*
X28175518Y-41825812D01*
X28300000Y-41838072D01*
X30700000Y-41838072D01*
X30824482Y-41825812D01*
X30944180Y-41789502D01*
X31054494Y-41730537D01*
X31151185Y-41651185D01*
X31230537Y-41554494D01*
X31289502Y-41444180D01*
X31325812Y-41324482D01*
X31338072Y-41200000D01*
X31338072Y-38800000D01*
X31325812Y-38675518D01*
X31289502Y-38555820D01*
X31230537Y-38445506D01*
X31151185Y-38348815D01*
X31054494Y-38269463D01*
X30944180Y-38210498D01*
X30824482Y-38174188D01*
X30700000Y-38161928D01*
X28300000Y-38161928D01*
X28175518Y-38174188D01*
X28055820Y-38210498D01*
X27945506Y-38269463D01*
X27848815Y-38348815D01*
X27769463Y-38445506D01*
X27710498Y-38555820D01*
X27674188Y-38675518D01*
X27661928Y-38800000D01*
X25660000Y-38800000D01*
X25660000Y-33300000D01*
X87661928Y-33300000D01*
X87661928Y-35700000D01*
X87674188Y-35824482D01*
X87710498Y-35944180D01*
X87769463Y-36054494D01*
X87848815Y-36151185D01*
X87945506Y-36230537D01*
X88055820Y-36289502D01*
X88175518Y-36325812D01*
X88300000Y-36338072D01*
X90700000Y-36338072D01*
X90824482Y-36325812D01*
X90878522Y-36309419D01*
X98565000Y-36309419D01*
X98565000Y-36690581D01*
X98639361Y-37064419D01*
X98785225Y-37416566D01*
X98996987Y-37733491D01*
X99266509Y-38003013D01*
X99583434Y-38214775D01*
X99935581Y-38360639D01*
X100309419Y-38435000D01*
X100690581Y-38435000D01*
X101064419Y-38360639D01*
X101416566Y-38214775D01*
X101733491Y-38003013D01*
X102003013Y-37733491D01*
X102214775Y-37416566D01*
X102360639Y-37064419D01*
X102435000Y-36690581D01*
X102435000Y-36309419D01*
X102360639Y-35935581D01*
X102214775Y-35583434D01*
X102003013Y-35266509D01*
X101733491Y-34996987D01*
X101416566Y-34785225D01*
X101064419Y-34639361D01*
X100690581Y-34565000D01*
X100309419Y-34565000D01*
X99935581Y-34639361D01*
X99583434Y-34785225D01*
X99266509Y-34996987D01*
X98996987Y-35266509D01*
X98785225Y-35583434D01*
X98639361Y-35935581D01*
X98565000Y-36309419D01*
X90878522Y-36309419D01*
X90944180Y-36289502D01*
X91054494Y-36230537D01*
X91151185Y-36151185D01*
X91230537Y-36054494D01*
X91289502Y-35944180D01*
X91325812Y-35824482D01*
X91338072Y-35700000D01*
X91338072Y-33300000D01*
X91325812Y-33175518D01*
X91289502Y-33055820D01*
X91230537Y-32945506D01*
X91151185Y-32848815D01*
X91054494Y-32769463D01*
X90944180Y-32710498D01*
X90824482Y-32674188D01*
X90700000Y-32661928D01*
X88300000Y-32661928D01*
X88175518Y-32674188D01*
X88055820Y-32710498D01*
X87945506Y-32769463D01*
X87848815Y-32848815D01*
X87769463Y-32945506D01*
X87710498Y-33055820D01*
X87674188Y-33175518D01*
X87661928Y-33300000D01*
X25660000Y-33300000D01*
X25660000Y-28809419D01*
X27565000Y-28809419D01*
X27565000Y-29190581D01*
X27639361Y-29564419D01*
X27785225Y-29916566D01*
X27996987Y-30233491D01*
X28266509Y-30503013D01*
X28583434Y-30714775D01*
X28935581Y-30860639D01*
X29309419Y-30935000D01*
X29690581Y-30935000D01*
X30064419Y-30860639D01*
X30416566Y-30714775D01*
X30733491Y-30503013D01*
X31003013Y-30233491D01*
X31214775Y-29916566D01*
X31360639Y-29564419D01*
X31435000Y-29190581D01*
X31435000Y-28809419D01*
X31360639Y-28435581D01*
X31214775Y-28083434D01*
X31003013Y-27766509D01*
X30733491Y-27496987D01*
X30416566Y-27285225D01*
X30064419Y-27139361D01*
X29690581Y-27065000D01*
X29309419Y-27065000D01*
X28935581Y-27139361D01*
X28583434Y-27285225D01*
X28266509Y-27496987D01*
X27996987Y-27766509D01*
X27785225Y-28083434D01*
X27639361Y-28435581D01*
X27565000Y-28809419D01*
X25660000Y-28809419D01*
X25660000Y-20660000D01*
X38373000Y-20660000D01*
X38373000Y-25500000D01*
G04 #@! TA.AperFunction,Conductor*
D21*
G36*
X38373000Y-25500000D02*
G01*
X38375440Y-25524776D01*
X38382667Y-25548601D01*
X38394403Y-25570557D01*
X38410197Y-25589803D01*
X40410197Y-27589803D01*
X40429443Y-27605597D01*
X40451399Y-27617333D01*
X40475224Y-27624560D01*
X40500000Y-27627000D01*
X43500000Y-27627000D01*
X43524776Y-27624560D01*
X43548601Y-27617333D01*
X43570557Y-27605597D01*
X43589803Y-27589803D01*
X45589803Y-25589803D01*
X45605597Y-25570557D01*
X45617333Y-25548601D01*
X45624560Y-25524776D01*
X45627000Y-25500000D01*
X45627000Y-20660000D01*
X87373000Y-20660000D01*
X87373000Y-25500000D01*
X87375440Y-25524776D01*
X87382667Y-25548601D01*
X87394403Y-25570557D01*
X87410197Y-25589803D01*
X89410197Y-27589803D01*
X89429443Y-27605597D01*
X89451399Y-27617333D01*
X89475224Y-27624560D01*
X89500000Y-27627000D01*
X92500000Y-27627000D01*
X92524776Y-27624560D01*
X92548601Y-27617333D01*
X92570557Y-27605597D01*
X92589803Y-27589803D01*
X94589803Y-25589803D01*
X94605597Y-25570557D01*
X94617333Y-25548601D01*
X94624560Y-25524776D01*
X94627000Y-25500000D01*
X94627000Y-23809419D01*
X98565000Y-23809419D01*
X98565000Y-24190581D01*
X98639361Y-24564419D01*
X98785225Y-24916566D01*
X98996987Y-25233491D01*
X99266509Y-25503013D01*
X99583434Y-25714775D01*
X99935581Y-25860639D01*
X100309419Y-25935000D01*
X100690581Y-25935000D01*
X101064419Y-25860639D01*
X101416566Y-25714775D01*
X101733491Y-25503013D01*
X102003013Y-25233491D01*
X102214775Y-24916566D01*
X102360639Y-24564419D01*
X102435000Y-24190581D01*
X102435000Y-23809419D01*
X102360639Y-23435581D01*
X102214775Y-23083434D01*
X102003013Y-22766509D01*
X101733491Y-22496987D01*
X101416566Y-22285225D01*
X101064419Y-22139361D01*
X100690581Y-22065000D01*
X100309419Y-22065000D01*
X99935581Y-22139361D01*
X99583434Y-22285225D01*
X99266509Y-22496987D01*
X98996987Y-22766509D01*
X98785225Y-23083434D01*
X98639361Y-23435581D01*
X98565000Y-23809419D01*
X94627000Y-23809419D01*
X94627000Y-20660000D01*
X104340001Y-20660000D01*
X104340000Y-69726620D01*
X88616597Y-85450023D01*
X88605597Y-85429443D01*
X88589803Y-85410197D01*
X85589803Y-82410197D01*
X85570557Y-82394403D01*
X85548601Y-82382667D01*
X85524776Y-82375440D01*
X85500000Y-82373000D01*
X81500000Y-82373000D01*
X81475224Y-82375440D01*
X81451399Y-82382667D01*
X81429443Y-82394403D01*
X81410197Y-82410197D01*
X79410197Y-84410197D01*
X79394403Y-84429443D01*
X79382667Y-84451399D01*
X79375440Y-84475224D01*
X79373000Y-84500000D01*
X79373000Y-89340000D01*
X69127000Y-89340000D01*
X69127000Y-88636511D01*
X69161498Y-88688141D01*
X69311859Y-88838502D01*
X69488665Y-88956640D01*
X69685122Y-89038015D01*
X69893679Y-89079500D01*
X70106321Y-89079500D01*
X70314878Y-89038015D01*
X70511335Y-88956640D01*
X70688141Y-88838502D01*
X70838502Y-88688141D01*
X70956640Y-88511335D01*
X71038015Y-88314878D01*
X71079500Y-88106321D01*
X71079500Y-87893679D01*
X71038015Y-87685122D01*
X70956640Y-87488665D01*
X70838502Y-87311859D01*
X70688141Y-87161498D01*
X70511335Y-87043360D01*
X70314878Y-86961985D01*
X70106321Y-86920500D01*
X69893679Y-86920500D01*
X69685122Y-86961985D01*
X69488665Y-87043360D01*
X69311859Y-87161498D01*
X69161498Y-87311859D01*
X69127000Y-87363489D01*
X69127000Y-74300000D01*
X70661928Y-74300000D01*
X70661928Y-76700000D01*
X70674188Y-76824482D01*
X70710498Y-76944180D01*
X70769463Y-77054494D01*
X70848815Y-77151185D01*
X70945506Y-77230537D01*
X71055820Y-77289502D01*
X71175518Y-77325812D01*
X71300000Y-77338072D01*
X73700000Y-77338072D01*
X73824482Y-77325812D01*
X73944180Y-77289502D01*
X74054494Y-77230537D01*
X74151185Y-77151185D01*
X74230537Y-77054494D01*
X74289502Y-76944180D01*
X74325812Y-76824482D01*
X74338072Y-76700000D01*
X74338072Y-74300000D01*
X74325812Y-74175518D01*
X74289502Y-74055820D01*
X74230537Y-73945506D01*
X74151185Y-73848815D01*
X74054494Y-73769463D01*
X73944180Y-73710498D01*
X73824482Y-73674188D01*
X73700000Y-73661928D01*
X71300000Y-73661928D01*
X71175518Y-73674188D01*
X71055820Y-73710498D01*
X70945506Y-73769463D01*
X70848815Y-73848815D01*
X70769463Y-73945506D01*
X70710498Y-74055820D01*
X70674188Y-74175518D01*
X70661928Y-74300000D01*
X69127000Y-74300000D01*
X69127000Y-67500000D01*
X69124560Y-67475224D01*
X69117333Y-67451399D01*
X69105597Y-67429443D01*
X69089803Y-67410197D01*
X69079500Y-67401742D01*
X69079500Y-67393679D01*
X69069103Y-67341410D01*
X69063880Y-67288381D01*
X69048411Y-67237388D01*
X69038015Y-67185122D01*
X69017622Y-67135890D01*
X69002153Y-67084894D01*
X68977032Y-67037897D01*
X68956640Y-66988665D01*
X68927035Y-66944358D01*
X68901914Y-66897360D01*
X68868107Y-66856166D01*
X68838502Y-66811859D01*
X68800822Y-66774179D01*
X68767015Y-66732985D01*
X68725821Y-66699178D01*
X68688141Y-66661498D01*
X68643834Y-66631893D01*
X68602640Y-66598086D01*
X68555642Y-66572965D01*
X68511335Y-66543360D01*
X68462103Y-66522968D01*
X68415106Y-66497847D01*
X68364110Y-66482378D01*
X68314878Y-66461985D01*
X68262612Y-66451589D01*
X68211619Y-66436120D01*
X68158590Y-66430897D01*
X68106321Y-66420500D01*
X68053029Y-66420500D01*
X68000000Y-66415277D01*
X67946971Y-66420500D01*
X67893679Y-66420500D01*
X67841410Y-66430897D01*
X67788382Y-66436120D01*
X67737391Y-66451588D01*
X67685122Y-66461985D01*
X67635887Y-66482379D01*
X67584895Y-66497847D01*
X67537901Y-66522966D01*
X67488665Y-66543360D01*
X67444354Y-66572968D01*
X67397361Y-66598086D01*
X67356171Y-66631889D01*
X67311859Y-66661498D01*
X67274175Y-66699182D01*
X67232986Y-66732985D01*
X67199183Y-66774174D01*
X67161498Y-66811859D01*
X67131889Y-66856173D01*
X67098087Y-66897360D01*
X67072970Y-66944350D01*
X67043360Y-66988665D01*
X67022964Y-67037905D01*
X66997848Y-67084894D01*
X66982380Y-67135883D01*
X66961985Y-67185122D01*
X66951588Y-67237390D01*
X66936120Y-67288381D01*
X66930897Y-67341410D01*
X66924613Y-67373000D01*
X64627000Y-67373000D01*
X64627000Y-61309419D01*
X98565000Y-61309419D01*
X98565000Y-61690581D01*
X98639361Y-62064419D01*
X98785225Y-62416566D01*
X98996987Y-62733491D01*
X99266509Y-63003013D01*
X99583434Y-63214775D01*
X99935581Y-63360639D01*
X100309419Y-63435000D01*
X100690581Y-63435000D01*
X101064419Y-63360639D01*
X101416566Y-63214775D01*
X101733491Y-63003013D01*
X102003013Y-62733491D01*
X102214775Y-62416566D01*
X102360639Y-62064419D01*
X102435000Y-61690581D01*
X102435000Y-61309419D01*
X102360639Y-60935581D01*
X102214775Y-60583434D01*
X102003013Y-60266509D01*
X101733491Y-59996987D01*
X101416566Y-59785225D01*
X101064419Y-59639361D01*
X100690581Y-59565000D01*
X100309419Y-59565000D01*
X99935581Y-59639361D01*
X99583434Y-59785225D01*
X99266509Y-59996987D01*
X98996987Y-60266509D01*
X98785225Y-60583434D01*
X98639361Y-60935581D01*
X98565000Y-61309419D01*
X64627000Y-61309419D01*
X64627000Y-60627000D01*
X75000000Y-60627000D01*
X75024776Y-60624560D01*
X75048601Y-60617333D01*
X75070557Y-60605597D01*
X75089803Y-60589803D01*
X75105597Y-60570557D01*
X75117333Y-60548601D01*
X75124560Y-60524776D01*
X75127000Y-60500000D01*
X75127000Y-59348816D01*
X89965000Y-59348816D01*
X89965000Y-59651184D01*
X90023989Y-59947743D01*
X90139701Y-60227095D01*
X90307688Y-60478505D01*
X90521495Y-60692312D01*
X90772905Y-60860299D01*
X91052257Y-60976011D01*
X91348816Y-61035000D01*
X91651184Y-61035000D01*
X91947743Y-60976011D01*
X92227095Y-60860299D01*
X92478505Y-60692312D01*
X92692312Y-60478505D01*
X92860299Y-60227095D01*
X92976011Y-59947743D01*
X93035000Y-59651184D01*
X93035000Y-59348816D01*
X92976011Y-59052257D01*
X92860299Y-58772905D01*
X92692312Y-58521495D01*
X92478505Y-58307688D01*
X92227095Y-58139701D01*
X91947743Y-58023989D01*
X91651184Y-57965000D01*
X91348816Y-57965000D01*
X91052257Y-58023989D01*
X90772905Y-58139701D01*
X90521495Y-58307688D01*
X90307688Y-58521495D01*
X90139701Y-58772905D01*
X90023989Y-59052257D01*
X89965000Y-59348816D01*
X75127000Y-59348816D01*
X75127000Y-52000000D01*
X75124560Y-51975224D01*
X75117333Y-51951399D01*
X75105597Y-51929443D01*
X75089803Y-51910197D01*
X75070557Y-51894403D01*
X75048601Y-51882667D01*
X75024776Y-51875440D01*
X75000000Y-51873000D01*
X42500000Y-51873000D01*
X42475224Y-51875440D01*
X42451399Y-51882667D01*
X42429443Y-51894403D01*
X42410197Y-51910197D01*
X42394403Y-51929443D01*
X42382667Y-51951399D01*
X42375440Y-51975224D01*
X42373000Y-52000000D01*
X42373000Y-59873000D01*
X36000000Y-59873000D01*
X35975224Y-59875440D01*
X35951399Y-59882667D01*
X35929443Y-59894403D01*
X35910197Y-59910197D01*
X35894403Y-59929443D01*
X35882667Y-59951399D01*
X35875440Y-59975224D01*
X35873000Y-60000000D01*
X35873000Y-89340000D01*
X32627000Y-89340000D01*
X32627000Y-84500000D01*
X32624560Y-84475224D01*
X32617333Y-84451399D01*
X32605597Y-84429443D01*
X32589803Y-84410197D01*
X30589803Y-82410197D01*
X30570557Y-82394403D01*
X30548601Y-82382667D01*
X30524776Y-82375440D01*
X30500000Y-82373000D01*
X25660000Y-82373000D01*
X25660000Y-74300000D01*
X27661928Y-74300000D01*
X27661928Y-76700000D01*
X27674188Y-76824482D01*
X27710498Y-76944180D01*
X27769463Y-77054494D01*
X27848815Y-77151185D01*
X27945506Y-77230537D01*
X28055820Y-77289502D01*
X28175518Y-77325812D01*
X28300000Y-77338072D01*
X30700000Y-77338072D01*
X30824482Y-77325812D01*
X30944180Y-77289502D01*
X31054494Y-77230537D01*
X31151185Y-77151185D01*
X31230537Y-77054494D01*
X31289502Y-76944180D01*
X31325812Y-76824482D01*
X31338072Y-76700000D01*
X31338072Y-74300000D01*
X31325812Y-74175518D01*
X31289502Y-74055820D01*
X31230537Y-73945506D01*
X31151185Y-73848815D01*
X31054494Y-73769463D01*
X30944180Y-73710498D01*
X30824482Y-73674188D01*
X30700000Y-73661928D01*
X28300000Y-73661928D01*
X28175518Y-73674188D01*
X28055820Y-73710498D01*
X27945506Y-73769463D01*
X27848815Y-73848815D01*
X27769463Y-73945506D01*
X27710498Y-74055820D01*
X27674188Y-74175518D01*
X27661928Y-74300000D01*
X25660000Y-74300000D01*
X25660000Y-52800000D01*
X27661928Y-52800000D01*
X27661928Y-55200000D01*
X27674188Y-55324482D01*
X27710498Y-55444180D01*
X27769463Y-55554494D01*
X27848815Y-55651185D01*
X27945506Y-55730537D01*
X28055820Y-55789502D01*
X28175518Y-55825812D01*
X28300000Y-55838072D01*
X30700000Y-55838072D01*
X30824482Y-55825812D01*
X30944180Y-55789502D01*
X31054494Y-55730537D01*
X31151185Y-55651185D01*
X31230537Y-55554494D01*
X31289502Y-55444180D01*
X31325812Y-55324482D01*
X31338072Y-55200000D01*
X31338072Y-52800000D01*
X31325812Y-52675518D01*
X31289502Y-52555820D01*
X31230537Y-52445506D01*
X31151185Y-52348815D01*
X31054494Y-52269463D01*
X30944180Y-52210498D01*
X30824482Y-52174188D01*
X30700000Y-52161928D01*
X28300000Y-52161928D01*
X28175518Y-52174188D01*
X28055820Y-52210498D01*
X27945506Y-52269463D01*
X27848815Y-52348815D01*
X27769463Y-52445506D01*
X27710498Y-52555820D01*
X27674188Y-52675518D01*
X27661928Y-52800000D01*
X25660000Y-52800000D01*
X25660000Y-46800000D01*
X87661928Y-46800000D01*
X87661928Y-49200000D01*
X87674188Y-49324482D01*
X87710498Y-49444180D01*
X87769463Y-49554494D01*
X87848815Y-49651185D01*
X87945506Y-49730537D01*
X88055820Y-49789502D01*
X88175518Y-49825812D01*
X88300000Y-49838072D01*
X90700000Y-49838072D01*
X90824482Y-49825812D01*
X90944180Y-49789502D01*
X91054494Y-49730537D01*
X91151185Y-49651185D01*
X91230537Y-49554494D01*
X91289502Y-49444180D01*
X91325812Y-49324482D01*
X91338072Y-49200000D01*
X91338072Y-48809419D01*
X98565000Y-48809419D01*
X98565000Y-49190581D01*
X98639361Y-49564419D01*
X98785225Y-49916566D01*
X98996987Y-50233491D01*
X99266509Y-50503013D01*
X99583434Y-50714775D01*
X99935581Y-50860639D01*
X100309419Y-50935000D01*
X100690581Y-50935000D01*
X101064419Y-50860639D01*
X101416566Y-50714775D01*
X101733491Y-50503013D01*
X102003013Y-50233491D01*
X102214775Y-49916566D01*
X102360639Y-49564419D01*
X102435000Y-49190581D01*
X102435000Y-48809419D01*
X102360639Y-48435581D01*
X102214775Y-48083434D01*
X102003013Y-47766509D01*
X101733491Y-47496987D01*
X101416566Y-47285225D01*
X101064419Y-47139361D01*
X100690581Y-47065000D01*
X100309419Y-47065000D01*
X99935581Y-47139361D01*
X99583434Y-47285225D01*
X99266509Y-47496987D01*
X98996987Y-47766509D01*
X98785225Y-48083434D01*
X98639361Y-48435581D01*
X98565000Y-48809419D01*
X91338072Y-48809419D01*
X91338072Y-46800000D01*
X91325812Y-46675518D01*
X91289502Y-46555820D01*
X91230537Y-46445506D01*
X91151185Y-46348815D01*
X91054494Y-46269463D01*
X90944180Y-46210498D01*
X90824482Y-46174188D01*
X90700000Y-46161928D01*
X88300000Y-46161928D01*
X88175518Y-46174188D01*
X88055820Y-46210498D01*
X87945506Y-46269463D01*
X87848815Y-46348815D01*
X87769463Y-46445506D01*
X87710498Y-46555820D01*
X87674188Y-46675518D01*
X87661928Y-46800000D01*
X25660000Y-46800000D01*
X25660000Y-38800000D01*
X27661928Y-38800000D01*
X27661928Y-41200000D01*
X27674188Y-41324482D01*
X27710498Y-41444180D01*
X27769463Y-41554494D01*
X27848815Y-41651185D01*
X27945506Y-41730537D01*
X28055820Y-41789502D01*
X28175518Y-41825812D01*
X28300000Y-41838072D01*
X30700000Y-41838072D01*
X30824482Y-41825812D01*
X30944180Y-41789502D01*
X31054494Y-41730537D01*
X31151185Y-41651185D01*
X31230537Y-41554494D01*
X31289502Y-41444180D01*
X31325812Y-41324482D01*
X31338072Y-41200000D01*
X31338072Y-38800000D01*
X31325812Y-38675518D01*
X31289502Y-38555820D01*
X31230537Y-38445506D01*
X31151185Y-38348815D01*
X31054494Y-38269463D01*
X30944180Y-38210498D01*
X30824482Y-38174188D01*
X30700000Y-38161928D01*
X28300000Y-38161928D01*
X28175518Y-38174188D01*
X28055820Y-38210498D01*
X27945506Y-38269463D01*
X27848815Y-38348815D01*
X27769463Y-38445506D01*
X27710498Y-38555820D01*
X27674188Y-38675518D01*
X27661928Y-38800000D01*
X25660000Y-38800000D01*
X25660000Y-33300000D01*
X87661928Y-33300000D01*
X87661928Y-35700000D01*
X87674188Y-35824482D01*
X87710498Y-35944180D01*
X87769463Y-36054494D01*
X87848815Y-36151185D01*
X87945506Y-36230537D01*
X88055820Y-36289502D01*
X88175518Y-36325812D01*
X88300000Y-36338072D01*
X90700000Y-36338072D01*
X90824482Y-36325812D01*
X90878522Y-36309419D01*
X98565000Y-36309419D01*
X98565000Y-36690581D01*
X98639361Y-37064419D01*
X98785225Y-37416566D01*
X98996987Y-37733491D01*
X99266509Y-38003013D01*
X99583434Y-38214775D01*
X99935581Y-38360639D01*
X100309419Y-38435000D01*
X100690581Y-38435000D01*
X101064419Y-38360639D01*
X101416566Y-38214775D01*
X101733491Y-38003013D01*
X102003013Y-37733491D01*
X102214775Y-37416566D01*
X102360639Y-37064419D01*
X102435000Y-36690581D01*
X102435000Y-36309419D01*
X102360639Y-35935581D01*
X102214775Y-35583434D01*
X102003013Y-35266509D01*
X101733491Y-34996987D01*
X101416566Y-34785225D01*
X101064419Y-34639361D01*
X100690581Y-34565000D01*
X100309419Y-34565000D01*
X99935581Y-34639361D01*
X99583434Y-34785225D01*
X99266509Y-34996987D01*
X98996987Y-35266509D01*
X98785225Y-35583434D01*
X98639361Y-35935581D01*
X98565000Y-36309419D01*
X90878522Y-36309419D01*
X90944180Y-36289502D01*
X91054494Y-36230537D01*
X91151185Y-36151185D01*
X91230537Y-36054494D01*
X91289502Y-35944180D01*
X91325812Y-35824482D01*
X91338072Y-35700000D01*
X91338072Y-33300000D01*
X91325812Y-33175518D01*
X91289502Y-33055820D01*
X91230537Y-32945506D01*
X91151185Y-32848815D01*
X91054494Y-32769463D01*
X90944180Y-32710498D01*
X90824482Y-32674188D01*
X90700000Y-32661928D01*
X88300000Y-32661928D01*
X88175518Y-32674188D01*
X88055820Y-32710498D01*
X87945506Y-32769463D01*
X87848815Y-32848815D01*
X87769463Y-32945506D01*
X87710498Y-33055820D01*
X87674188Y-33175518D01*
X87661928Y-33300000D01*
X25660000Y-33300000D01*
X25660000Y-28809419D01*
X27565000Y-28809419D01*
X27565000Y-29190581D01*
X27639361Y-29564419D01*
X27785225Y-29916566D01*
X27996987Y-30233491D01*
X28266509Y-30503013D01*
X28583434Y-30714775D01*
X28935581Y-30860639D01*
X29309419Y-30935000D01*
X29690581Y-30935000D01*
X30064419Y-30860639D01*
X30416566Y-30714775D01*
X30733491Y-30503013D01*
X31003013Y-30233491D01*
X31214775Y-29916566D01*
X31360639Y-29564419D01*
X31435000Y-29190581D01*
X31435000Y-28809419D01*
X31360639Y-28435581D01*
X31214775Y-28083434D01*
X31003013Y-27766509D01*
X30733491Y-27496987D01*
X30416566Y-27285225D01*
X30064419Y-27139361D01*
X29690581Y-27065000D01*
X29309419Y-27065000D01*
X28935581Y-27139361D01*
X28583434Y-27285225D01*
X28266509Y-27496987D01*
X27996987Y-27766509D01*
X27785225Y-28083434D01*
X27639361Y-28435581D01*
X27565000Y-28809419D01*
X25660000Y-28809419D01*
X25660000Y-20660000D01*
X38373000Y-20660000D01*
X38373000Y-25500000D01*
G37*
G04 #@! TD.AperFunction*
M02*
