G04 #@! TF.GenerationSoftware,KiCad,Pcbnew,6.0.10-86aedd382b~118~ubuntu20.04.1*
G04 #@! TF.CreationDate,2023-01-31T09:06:45-05:00*
G04 #@! TF.ProjectId,psu_control,7073755f-636f-46e7-9472-6f6c2e6b6963,rev?*
G04 #@! TF.SameCoordinates,Original*
G04 #@! TF.FileFunction,Legend,Bot*
G04 #@! TF.FilePolarity,Positive*
%FSLAX46Y46*%
G04 Gerber Fmt 4.6, Leading zero omitted, Abs format (unit mm)*
G04 Created by KiCad (PCBNEW 6.0.10-86aedd382b~118~ubuntu20.04.1) date 2023-01-31 09:06:45*
%MOMM*%
%LPD*%
G01*
G04 APERTURE LIST*
G04 Aperture macros list*
%AMRoundRect*
0 Rectangle with rounded corners*
0 $1 Rounding radius*
0 $2 $3 $4 $5 $6 $7 $8 $9 X,Y pos of 4 corners*
0 Add a 4 corners polygon primitive as box body*
4,1,4,$2,$3,$4,$5,$6,$7,$8,$9,$2,$3,0*
0 Add four circle primitives for the rounded corners*
1,1,$1+$1,$2,$3*
1,1,$1+$1,$4,$5*
1,1,$1+$1,$6,$7*
1,1,$1+$1,$8,$9*
0 Add four rect primitives between the rounded corners*
20,1,$1+$1,$2,$3,$4,$5,0*
20,1,$1+$1,$4,$5,$6,$7,0*
20,1,$1+$1,$6,$7,$8,$9,0*
20,1,$1+$1,$8,$9,$2,$3,0*%
G04 Aperture macros list end*
%ADD10C,0.150000*%
%ADD11C,0.120000*%
%ADD12R,2.000000X2.000000*%
%ADD13C,2.000000*%
%ADD14C,1.750000*%
%ADD15RoundRect,0.250000X-0.350000X-0.625000X0.350000X-0.625000X0.350000X0.625000X-0.350000X0.625000X0*%
%ADD16O,1.200000X1.750000*%
%ADD17R,1.600000X1.600000*%
%ADD18C,1.600000*%
%ADD19C,2.600000*%
%ADD20C,3.200000*%
%ADD21C,3.000000*%
%ADD22RoundRect,0.250000X0.350000X0.625000X-0.350000X0.625000X-0.350000X-0.625000X0.350000X-0.625000X0*%
%ADD23RoundRect,0.250000X-0.725000X0.600000X-0.725000X-0.600000X0.725000X-0.600000X0.725000X0.600000X0*%
%ADD24O,1.950000X1.700000*%
%ADD25O,1.270000X1.651000*%
%ADD26RoundRect,0.250000X-0.262500X-0.450000X0.262500X-0.450000X0.262500X0.450000X-0.262500X0.450000X0*%
%ADD27RoundRect,0.250000X0.262500X0.450000X-0.262500X0.450000X-0.262500X-0.450000X0.262500X-0.450000X0*%
G04 APERTURE END LIST*
D10*
X95230357Y-19602380D02*
X95563690Y-19126190D01*
X95801785Y-19602380D02*
X95801785Y-18602380D01*
X95420833Y-18602380D01*
X95325595Y-18650000D01*
X95277976Y-18697619D01*
X95230357Y-18792857D01*
X95230357Y-18935714D01*
X95277976Y-19030952D01*
X95325595Y-19078571D01*
X95420833Y-19126190D01*
X95801785Y-19126190D01*
X94277976Y-19602380D02*
X94849404Y-19602380D01*
X94563690Y-19602380D02*
X94563690Y-18602380D01*
X94658928Y-18745238D01*
X94754166Y-18840476D01*
X94849404Y-18888095D01*
X93944642Y-18602380D02*
X93277976Y-18602380D01*
X93706547Y-19602380D01*
X63555357Y-22952380D02*
X63888690Y-22476190D01*
X64126785Y-22952380D02*
X64126785Y-21952380D01*
X63745833Y-21952380D01*
X63650595Y-22000000D01*
X63602976Y-22047619D01*
X63555357Y-22142857D01*
X63555357Y-22285714D01*
X63602976Y-22380952D01*
X63650595Y-22428571D01*
X63745833Y-22476190D01*
X64126785Y-22476190D01*
X62602976Y-22952380D02*
X63174404Y-22952380D01*
X62888690Y-22952380D02*
X62888690Y-21952380D01*
X62983928Y-22095238D01*
X63079166Y-22190476D01*
X63174404Y-22238095D01*
X61745833Y-21952380D02*
X61936309Y-21952380D01*
X62031547Y-22000000D01*
X62079166Y-22047619D01*
X62174404Y-22190476D01*
X62222023Y-22380952D01*
X62222023Y-22761904D01*
X62174404Y-22857142D01*
X62126785Y-22904761D01*
X62031547Y-22952380D01*
X61841071Y-22952380D01*
X61745833Y-22904761D01*
X61698214Y-22857142D01*
X61650595Y-22761904D01*
X61650595Y-22523809D01*
X61698214Y-22428571D01*
X61745833Y-22380952D01*
X61841071Y-22333333D01*
X62031547Y-22333333D01*
X62126785Y-22380952D01*
X62174404Y-22428571D01*
X62222023Y-22523809D01*
X63555357Y-26452380D02*
X63888690Y-25976190D01*
X64126785Y-26452380D02*
X64126785Y-25452380D01*
X63745833Y-25452380D01*
X63650595Y-25500000D01*
X63602976Y-25547619D01*
X63555357Y-25642857D01*
X63555357Y-25785714D01*
X63602976Y-25880952D01*
X63650595Y-25928571D01*
X63745833Y-25976190D01*
X64126785Y-25976190D01*
X62602976Y-26452380D02*
X63174404Y-26452380D01*
X62888690Y-26452380D02*
X62888690Y-25452380D01*
X62983928Y-25595238D01*
X63079166Y-25690476D01*
X63174404Y-25738095D01*
X62126785Y-26452380D02*
X61936309Y-26452380D01*
X61841071Y-26404761D01*
X61793452Y-26357142D01*
X61698214Y-26214285D01*
X61650595Y-26023809D01*
X61650595Y-25642857D01*
X61698214Y-25547619D01*
X61745833Y-25500000D01*
X61841071Y-25452380D01*
X62031547Y-25452380D01*
X62126785Y-25500000D01*
X62174404Y-25547619D01*
X62222023Y-25642857D01*
X62222023Y-25880952D01*
X62174404Y-25976190D01*
X62126785Y-26023809D01*
X62031547Y-26071428D01*
X61841071Y-26071428D01*
X61745833Y-26023809D01*
X61698214Y-25976190D01*
X61650595Y-25880952D01*
X95230357Y-22952380D02*
X95563690Y-22476190D01*
X95801785Y-22952380D02*
X95801785Y-21952380D01*
X95420833Y-21952380D01*
X95325595Y-22000000D01*
X95277976Y-22047619D01*
X95230357Y-22142857D01*
X95230357Y-22285714D01*
X95277976Y-22380952D01*
X95325595Y-22428571D01*
X95420833Y-22476190D01*
X95801785Y-22476190D01*
X94849404Y-22047619D02*
X94801785Y-22000000D01*
X94706547Y-21952380D01*
X94468452Y-21952380D01*
X94373214Y-22000000D01*
X94325595Y-22047619D01*
X94277976Y-22142857D01*
X94277976Y-22238095D01*
X94325595Y-22380952D01*
X94897023Y-22952380D01*
X94277976Y-22952380D01*
X93658928Y-21952380D02*
X93563690Y-21952380D01*
X93468452Y-22000000D01*
X93420833Y-22047619D01*
X93373214Y-22142857D01*
X93325595Y-22333333D01*
X93325595Y-22571428D01*
X93373214Y-22761904D01*
X93420833Y-22857142D01*
X93468452Y-22904761D01*
X93563690Y-22952380D01*
X93658928Y-22952380D01*
X93754166Y-22904761D01*
X93801785Y-22857142D01*
X93849404Y-22761904D01*
X93897023Y-22571428D01*
X93897023Y-22333333D01*
X93849404Y-22142857D01*
X93801785Y-22047619D01*
X93754166Y-22000000D01*
X93658928Y-21952380D01*
D11*
X94360436Y-18235000D02*
X94814564Y-18235000D01*
X94360436Y-16765000D02*
X94814564Y-16765000D01*
X63139564Y-21735000D02*
X62685436Y-21735000D01*
X63139564Y-20265000D02*
X62685436Y-20265000D01*
X63139564Y-25235000D02*
X62685436Y-25235000D01*
X63139564Y-23765000D02*
X62685436Y-23765000D01*
X94360436Y-20265000D02*
X94814564Y-20265000D01*
X94360436Y-21735000D02*
X94814564Y-21735000D01*
%LPC*%
D12*
X65000000Y-28632323D03*
D13*
X65000000Y-33632323D03*
D14*
X80250000Y-32500000D03*
X73750000Y-32500000D03*
D15*
X49000000Y-81450000D03*
D16*
X51000000Y-81450000D03*
D17*
X109817621Y-28500000D03*
D18*
X112317621Y-28500000D03*
D15*
X108000000Y-73450000D03*
D16*
X110000000Y-73450000D03*
X112000000Y-73450000D03*
D17*
X90500000Y-29000000D03*
D18*
X88000000Y-29000000D03*
D15*
X25000000Y-52950000D03*
D16*
X27000000Y-52950000D03*
X29000000Y-52950000D03*
X31000000Y-52950000D03*
D19*
X55500000Y-19000000D03*
X50500000Y-19000000D03*
D15*
X99000000Y-73450000D03*
D16*
X101000000Y-73450000D03*
X103000000Y-73450000D03*
D15*
X66000000Y-81500000D03*
D16*
X68000000Y-81500000D03*
X70000000Y-81500000D03*
D13*
X62030000Y-17750000D03*
X67110000Y-17750000D03*
X69650000Y-17750000D03*
X64570000Y-17750000D03*
X74730000Y-17750000D03*
X72190000Y-17750000D03*
X77270000Y-17750000D03*
X79810000Y-17750000D03*
X84890000Y-17750000D03*
X87430000Y-17750000D03*
X82350000Y-17750000D03*
X89970000Y-17750000D03*
D15*
X41500000Y-75450000D03*
D16*
X43500000Y-75450000D03*
D20*
X111500000Y-81500000D03*
X50000000Y-73500000D03*
D15*
X81500000Y-42000000D03*
D16*
X83500000Y-42000000D03*
D15*
X85000000Y-81500000D03*
D16*
X87000000Y-81500000D03*
X89000000Y-81500000D03*
D19*
X43500000Y-19000000D03*
X38500000Y-19000000D03*
X31500000Y-19000000D03*
X26500000Y-19000000D03*
D15*
X75500000Y-81500000D03*
D16*
X77500000Y-81500000D03*
X79500000Y-81500000D03*
D20*
X111500000Y-18500000D03*
D15*
X94500000Y-81500000D03*
D16*
X96500000Y-81500000D03*
D15*
X36000000Y-69950000D03*
D16*
X38000000Y-69950000D03*
D15*
X102000000Y-81500000D03*
D16*
X104000000Y-81500000D03*
D15*
X25000000Y-58950000D03*
D16*
X27000000Y-58950000D03*
D17*
X42000000Y-30817621D03*
D18*
X42000000Y-33317621D03*
D21*
X19100000Y-24445000D03*
X19100000Y-31205000D03*
X19100000Y-40795000D03*
X19100000Y-47555000D03*
D15*
X82500000Y-73500000D03*
D16*
X84500000Y-73500000D03*
X86500000Y-73500000D03*
X88500000Y-73500000D03*
X90500000Y-73500000D03*
D22*
X112500000Y-66000000D03*
D16*
X110500000Y-66000000D03*
X108500000Y-66000000D03*
D23*
X111525000Y-36500000D03*
D24*
X111525000Y-39000000D03*
X111525000Y-41500000D03*
D15*
X56500000Y-73000000D03*
D16*
X58500000Y-73000000D03*
D25*
X94580000Y-48380000D03*
X92040000Y-48380000D03*
X89500000Y-48380000D03*
X86960000Y-48380000D03*
X92040000Y-63620000D03*
X84420000Y-48380000D03*
X81880000Y-48380000D03*
X79340000Y-48380000D03*
X76800000Y-48380000D03*
X74260000Y-48380000D03*
X71720000Y-48380000D03*
X69180000Y-48380000D03*
X66640000Y-48380000D03*
X64100000Y-48380000D03*
X64100000Y-63620000D03*
X66640000Y-63620000D03*
X69180000Y-63620000D03*
X71720000Y-63620000D03*
X74260000Y-63620000D03*
X76800000Y-63620000D03*
X79340000Y-63620000D03*
X81880000Y-63620000D03*
X84420000Y-63620000D03*
X86960000Y-63620000D03*
X89500000Y-63620000D03*
X86960000Y-61080000D03*
X84420000Y-61080000D03*
X89500000Y-61080000D03*
X97120000Y-48380000D03*
X94580000Y-63620000D03*
X97120000Y-63620000D03*
D20*
X18500000Y-18500000D03*
D15*
X56500000Y-81500000D03*
D16*
X58500000Y-81500000D03*
X60500000Y-81500000D03*
D20*
X18500000Y-53500000D03*
D15*
X89000000Y-42000000D03*
D16*
X91000000Y-42000000D03*
D20*
X70000000Y-73500000D03*
D15*
X30500000Y-64450000D03*
D16*
X32500000Y-64450000D03*
D26*
X93675000Y-17500000D03*
X95500000Y-17500000D03*
D27*
X63825000Y-21000000D03*
X62000000Y-21000000D03*
X63825000Y-24500000D03*
X62000000Y-24500000D03*
D26*
X93675000Y-21000000D03*
X95500000Y-21000000D03*
M02*
