M48
; DRILL file {KiCad 6.0.9-8da3e8f707~116~ubuntu20.04.1} date lun 14 nov 2022 19:44:26
; FORMAT={-:-/ absolute / metric / decimal}
; #@! TF.CreationDate,2022-11-14T19:44:26-05:00
; #@! TF.GenerationSoftware,Kicad,Pcbnew,6.0.9-8da3e8f707~116~ubuntu20.04.1
; #@! TF.FileFunction,Plated,1,4,PTH
FMAT,2
METRIC
; #@! TA.AperFunction,Plated,PTH,ViaDrill
T1C0.330
; #@! TA.AperFunction,Plated,PTH,ViaDrill
T2C0.381
; #@! TA.AperFunction,Plated,PTH,ComponentDrill
T3C0.600
; #@! TA.AperFunction,Plated,PTH,ComponentDrill
T4C0.750
; #@! TA.AperFunction,Plated,PTH,ComponentDrill
T5C0.800
; #@! TA.AperFunction,Plated,PTH,ComponentDrill
T6C0.950
; #@! TA.AperFunction,Plated,PTH,ComponentDrill
T7C1.000
; #@! TA.AperFunction,Plated,PTH,ComponentDrill
T8C1.200
; #@! TA.AperFunction,Plated,PTH,ComponentDrill
T9C1.300
; #@! TA.AperFunction,Plated,PTH,ComponentDrill
T10C1.750
%
G90
G05
T1
X23.0Y-55.5
X29.0Y-45.0
X31.0Y-58.0
X32.0Y-45.5
X35.0Y-48.5
X35.0Y-64.5
X36.0Y-57.0
X36.0Y-62.5
X37.0Y-46.5
X39.5Y-50.5
X40.5Y-70.0
X41.5Y-52.0
X41.5Y-68.0
X42.0Y-47.0
X44.5Y-47.0
X46.0Y-76.0
X46.5Y-50.0
X46.5Y-74.0
X48.0Y-46.5
X53.5Y-46.5
X55.0Y-43.0
X56.5Y-46.0
X60.0Y-56.0
X60.5Y-17.0
X76.75Y-56.0
X79.75Y-66.25
X80.766Y-66.593
X93.5Y-34.25
X98.5Y-33.0
X102.75Y-41.0
X103.5Y-49.5
X103.5Y-51.976
X103.5Y-60.0
X104.25Y-18.5
X107.0Y-21.25
X108.0Y-52.5
X109.133Y-53.921
X110.0Y-59.5
X110.5Y-53.5
X110.5Y-54.5
X111.0Y-59.5
X111.5Y-53.5
X111.5Y-54.5
X112.5Y-59.5
X113.5Y-59.5
T2
X27.5Y-36.0
X27.5Y-37.0
X27.5Y-38.0
X27.5Y-39.0
X28.5Y-36.0
X28.5Y-37.0
X28.5Y-38.0
X28.5Y-39.0
X29.5Y-36.0
X29.5Y-37.0
X29.5Y-38.0
X29.5Y-39.0
X30.5Y-36.0
X30.5Y-37.0
X30.5Y-38.0
X30.5Y-39.0
X34.564Y-39.186
X38.5Y-37.5
X57.5Y-64.0
X64.5Y-64.0
X82.75Y-64.5
X84.75Y-64.5
X89.0Y-61.5
X92.75Y-37.0
X93.0Y-39.5
X94.0Y-62.0
X101.0Y-57.0
X101.75Y-34.0
X102.0Y-57.0
X104.0Y-35.0
X105.5Y-29.0
X107.0Y-45.25
X113.5Y-49.5
T3
X83.6Y-33.0
X85.4Y-28.0
T4
X25.0Y-58.95
X26.0Y-50.95
X27.0Y-58.95
X28.0Y-50.95
X30.0Y-50.95
X30.5Y-64.45
X32.0Y-50.95
X32.5Y-64.45
X36.0Y-69.95
X38.0Y-69.95
X41.5Y-75.45
X43.5Y-75.45
X49.0Y-81.45
X51.0Y-81.45
X56.5Y-81.5
X58.5Y-81.5
X60.0Y-70.95
X60.5Y-81.5
X62.0Y-70.95
X66.0Y-81.5
X68.0Y-81.5
X70.0Y-81.5
X73.5Y-70.95
X75.5Y-70.95
X75.5Y-81.5
X77.5Y-70.95
X77.5Y-81.5
X79.5Y-70.95
X79.5Y-81.5
X81.5Y-70.95
X85.0Y-81.5
X87.0Y-81.5
X89.0Y-81.5
X90.0Y-29.45
X92.0Y-29.45
X94.5Y-81.5
X94.55Y-70.0
X94.55Y-72.0
X94.55Y-74.0
X96.5Y-81.5
X97.5Y-29.45
X99.5Y-29.45
X100.55Y-70.0
X100.55Y-72.0
X100.55Y-74.0
X102.0Y-81.5
X104.0Y-81.5
X106.55Y-70.0
X106.55Y-72.0
X106.55Y-74.0
X108.5Y-63.5
X110.5Y-63.5
X112.5Y-63.5
X112.55Y-70.0
X112.55Y-72.0
X112.55Y-74.0
T5
X65.0Y-21.318
X65.0Y-23.818
X78.682Y-37.0
X81.182Y-37.0
T6
X111.525Y-34.5
X111.525Y-37.0
X111.525Y-39.5
T7
X58.5Y-30.132
X58.5Y-35.132
X64.1Y-43.88
X64.1Y-59.12
X66.64Y-43.88
X66.64Y-59.12
X67.25Y-33.0
X69.18Y-43.88
X69.18Y-59.12
X71.72Y-43.88
X71.72Y-59.12
X73.75Y-33.0
X74.26Y-43.88
X74.26Y-59.12
X76.8Y-43.88
X76.8Y-59.12
X79.34Y-43.88
X79.34Y-59.12
X81.88Y-43.88
X81.88Y-59.12
X84.42Y-43.88
X84.42Y-56.58
X84.42Y-59.12
X86.96Y-43.88
X86.96Y-56.58
X86.96Y-59.12
X89.5Y-43.88
X89.5Y-56.58
X89.5Y-59.12
X92.04Y-43.88
X92.04Y-59.12
X94.58Y-43.88
X94.58Y-59.12
X97.12Y-43.88
X97.12Y-59.12
X111.525Y-25.75
X111.525Y-28.25
T8
X73.03Y-18.0
X75.57Y-18.0
X78.11Y-18.0
X80.65Y-18.0
X83.19Y-18.0
X85.73Y-18.0
X88.27Y-18.0
X90.81Y-18.0
X93.35Y-18.0
X95.89Y-18.0
X98.43Y-18.0
X100.97Y-18.0
T9
X26.5Y-19.0
X31.5Y-19.0
X39.0Y-19.0
X44.0Y-19.0
X51.5Y-19.0
X56.5Y-19.0
T10
X19.1Y-24.445
X19.1Y-31.205
X19.1Y-40.795
X19.1Y-47.555
T0
M30
