G04 #@! TF.GenerationSoftware,KiCad,Pcbnew,5.1.10-88a1d61d58~90~ubuntu20.04.1*
G04 #@! TF.CreationDate,2021-11-04T10:14:28-04:00*
G04 #@! TF.ProjectId,psu_control,7073755f-636f-46e7-9472-6f6c2e6b6963,rev?*
G04 #@! TF.SameCoordinates,Original*
G04 #@! TF.FileFunction,Copper,L1,Top*
G04 #@! TF.FilePolarity,Positive*
%FSLAX46Y46*%
G04 Gerber Fmt 4.6, Leading zero omitted, Abs format (unit mm)*
G04 Created by KiCad (PCBNEW 5.1.10-88a1d61d58~90~ubuntu20.04.1) date 2021-11-04 10:14:28*
%MOMM*%
%LPD*%
G01*
G04 APERTURE LIST*
G04 #@! TA.AperFunction,ComponentPad*
%ADD10C,1.750000*%
G04 #@! TD*
G04 #@! TA.AperFunction,ComponentPad*
%ADD11C,1.524000*%
G04 #@! TD*
G04 #@! TA.AperFunction,ComponentPad*
%ADD12O,2.000000X1.700000*%
G04 #@! TD*
G04 #@! TA.AperFunction,ComponentPad*
%ADD13O,1.950000X1.700000*%
G04 #@! TD*
G04 #@! TA.AperFunction,SMDPad,CuDef*
%ADD14R,0.300000X1.400000*%
G04 #@! TD*
G04 #@! TA.AperFunction,SMDPad,CuDef*
%ADD15R,0.900000X0.800000*%
G04 #@! TD*
G04 #@! TA.AperFunction,ComponentPad*
%ADD16C,2.600000*%
G04 #@! TD*
G04 #@! TA.AperFunction,ComponentPad*
%ADD17C,1.500000*%
G04 #@! TD*
G04 #@! TA.AperFunction,ComponentPad*
%ADD18O,1.700000X2.000000*%
G04 #@! TD*
G04 #@! TA.AperFunction,ComponentPad*
%ADD19C,1.600000*%
G04 #@! TD*
G04 #@! TA.AperFunction,SMDPad,CuDef*
%ADD20R,0.800000X0.900000*%
G04 #@! TD*
G04 #@! TA.AperFunction,SMDPad,CuDef*
%ADD21R,10.800000X9.400000*%
G04 #@! TD*
G04 #@! TA.AperFunction,SMDPad,CuDef*
%ADD22R,1.100000X4.600000*%
G04 #@! TD*
G04 #@! TA.AperFunction,ComponentPad*
%ADD23O,1.700000X1.950000*%
G04 #@! TD*
G04 #@! TA.AperFunction,ComponentPad*
%ADD24C,3.000000*%
G04 #@! TD*
G04 #@! TA.AperFunction,SMDPad,CuDef*
%ADD25R,1.100000X1.100000*%
G04 #@! TD*
G04 #@! TA.AperFunction,SMDPad,CuDef*
%ADD26R,1.200000X0.900000*%
G04 #@! TD*
G04 #@! TA.AperFunction,SMDPad,CuDef*
%ADD27R,0.900000X1.200000*%
G04 #@! TD*
G04 #@! TA.AperFunction,ComponentPad*
%ADD28R,1.600000X1.600000*%
G04 #@! TD*
G04 #@! TA.AperFunction,ViaPad*
%ADD29C,0.889000*%
G04 #@! TD*
G04 #@! TA.AperFunction,Conductor*
%ADD30C,0.508000*%
G04 #@! TD*
G04 #@! TA.AperFunction,Conductor*
%ADD31C,0.254000*%
G04 #@! TD*
G04 #@! TA.AperFunction,Conductor*
%ADD32C,1.270000*%
G04 #@! TD*
G04 #@! TA.AperFunction,Conductor*
%ADD33C,0.100000*%
G04 #@! TD*
G04 APERTURE END LIST*
D10*
X85000000Y-53250000D03*
X85000000Y-59750000D03*
G04 #@! TA.AperFunction,SMDPad,CuDef*
G36*
G01*
X83950000Y-72975000D02*
X83950000Y-72025000D01*
G75*
G02*
X84200000Y-71775000I250000J0D01*
G01*
X84700000Y-71775000D01*
G75*
G02*
X84950000Y-72025000I0J-250000D01*
G01*
X84950000Y-72975000D01*
G75*
G02*
X84700000Y-73225000I-250000J0D01*
G01*
X84200000Y-73225000D01*
G75*
G02*
X83950000Y-72975000I0J250000D01*
G01*
G37*
G04 #@! TD.AperFunction*
G04 #@! TA.AperFunction,SMDPad,CuDef*
G36*
G01*
X82050000Y-72975000D02*
X82050000Y-72025000D01*
G75*
G02*
X82300000Y-71775000I250000J0D01*
G01*
X82800000Y-71775000D01*
G75*
G02*
X83050000Y-72025000I0J-250000D01*
G01*
X83050000Y-72975000D01*
G75*
G02*
X82800000Y-73225000I-250000J0D01*
G01*
X82300000Y-73225000D01*
G75*
G02*
X82050000Y-72975000I0J250000D01*
G01*
G37*
G04 #@! TD.AperFunction*
D11*
X80280000Y-20880000D03*
X77740000Y-20880000D03*
X75200000Y-20880000D03*
X72660000Y-20880000D03*
X70120000Y-20880000D03*
X67580000Y-20880000D03*
X65040000Y-20880000D03*
X62500000Y-20880000D03*
X59960000Y-20880000D03*
X57420000Y-20880000D03*
X54880000Y-20880000D03*
X52340000Y-20880000D03*
X49800000Y-20880000D03*
X47260000Y-20880000D03*
X47260000Y-36120000D03*
X49800000Y-36120000D03*
X52340000Y-36120000D03*
X54880000Y-36120000D03*
X57420000Y-36120000D03*
X59960000Y-36120000D03*
X62500000Y-36120000D03*
X65040000Y-36120000D03*
X67580000Y-36120000D03*
X70120000Y-36120000D03*
X72660000Y-36120000D03*
X75200000Y-36120000D03*
X77740000Y-36120000D03*
X80280000Y-36120000D03*
D12*
X59500000Y-44500000D03*
G04 #@! TA.AperFunction,ComponentPad*
G36*
G01*
X58750000Y-41150000D02*
X60250000Y-41150000D01*
G75*
G02*
X60500000Y-41400000I0J-250000D01*
G01*
X60500000Y-42600000D01*
G75*
G02*
X60250000Y-42850000I-250000J0D01*
G01*
X58750000Y-42850000D01*
G75*
G02*
X58500000Y-42600000I0J250000D01*
G01*
X58500000Y-41400000D01*
G75*
G02*
X58750000Y-41150000I250000J0D01*
G01*
G37*
G04 #@! TD.AperFunction*
D13*
X66500000Y-47000000D03*
X66500000Y-44500000D03*
G04 #@! TA.AperFunction,ComponentPad*
G36*
G01*
X65775000Y-41150000D02*
X67225000Y-41150000D01*
G75*
G02*
X67475000Y-41400000I0J-250000D01*
G01*
X67475000Y-42600000D01*
G75*
G02*
X67225000Y-42850000I-250000J0D01*
G01*
X65775000Y-42850000D01*
G75*
G02*
X65525000Y-42600000I0J250000D01*
G01*
X65525000Y-41400000D01*
G75*
G02*
X65775000Y-41150000I250000J0D01*
G01*
G37*
G04 #@! TD.AperFunction*
X73500000Y-47000000D03*
X73500000Y-44500000D03*
G04 #@! TA.AperFunction,ComponentPad*
G36*
G01*
X72775000Y-41150000D02*
X74225000Y-41150000D01*
G75*
G02*
X74475000Y-41400000I0J-250000D01*
G01*
X74475000Y-42600000D01*
G75*
G02*
X74225000Y-42850000I-250000J0D01*
G01*
X72775000Y-42850000D01*
G75*
G02*
X72525000Y-42600000I0J250000D01*
G01*
X72525000Y-41400000D01*
G75*
G02*
X72775000Y-41150000I250000J0D01*
G01*
G37*
G04 #@! TD.AperFunction*
X80500000Y-47000000D03*
X80500000Y-44500000D03*
G04 #@! TA.AperFunction,ComponentPad*
G36*
G01*
X79775000Y-41150000D02*
X81225000Y-41150000D01*
G75*
G02*
X81475000Y-41400000I0J-250000D01*
G01*
X81475000Y-42600000D01*
G75*
G02*
X81225000Y-42850000I-250000J0D01*
G01*
X79775000Y-42850000D01*
G75*
G02*
X79525000Y-42600000I0J250000D01*
G01*
X79525000Y-41400000D01*
G75*
G02*
X79775000Y-41150000I250000J0D01*
G01*
G37*
G04 #@! TD.AperFunction*
D14*
X40500000Y-31700000D03*
X40000000Y-31700000D03*
X39500000Y-31700000D03*
X39000000Y-31700000D03*
X38500000Y-31700000D03*
X38500000Y-27300000D03*
X39000000Y-27300000D03*
X39500000Y-27300000D03*
X40000000Y-27300000D03*
X40500000Y-27300000D03*
D15*
X88750000Y-72750000D03*
X90750000Y-71800000D03*
X90750000Y-73700000D03*
G04 #@! TA.AperFunction,SMDPad,CuDef*
G36*
G01*
X103295000Y-35125000D02*
X103595000Y-35125000D01*
G75*
G02*
X103745000Y-35275000I0J-150000D01*
G01*
X103745000Y-37025000D01*
G75*
G02*
X103595000Y-37175000I-150000J0D01*
G01*
X103295000Y-37175000D01*
G75*
G02*
X103145000Y-37025000I0J150000D01*
G01*
X103145000Y-35275000D01*
G75*
G02*
X103295000Y-35125000I150000J0D01*
G01*
G37*
G04 #@! TD.AperFunction*
G04 #@! TA.AperFunction,SMDPad,CuDef*
G36*
G01*
X102025000Y-35125000D02*
X102325000Y-35125000D01*
G75*
G02*
X102475000Y-35275000I0J-150000D01*
G01*
X102475000Y-37025000D01*
G75*
G02*
X102325000Y-37175000I-150000J0D01*
G01*
X102025000Y-37175000D01*
G75*
G02*
X101875000Y-37025000I0J150000D01*
G01*
X101875000Y-35275000D01*
G75*
G02*
X102025000Y-35125000I150000J0D01*
G01*
G37*
G04 #@! TD.AperFunction*
G04 #@! TA.AperFunction,SMDPad,CuDef*
G36*
G01*
X100755000Y-35125000D02*
X101055000Y-35125000D01*
G75*
G02*
X101205000Y-35275000I0J-150000D01*
G01*
X101205000Y-37025000D01*
G75*
G02*
X101055000Y-37175000I-150000J0D01*
G01*
X100755000Y-37175000D01*
G75*
G02*
X100605000Y-37025000I0J150000D01*
G01*
X100605000Y-35275000D01*
G75*
G02*
X100755000Y-35125000I150000J0D01*
G01*
G37*
G04 #@! TD.AperFunction*
G04 #@! TA.AperFunction,SMDPad,CuDef*
G36*
G01*
X99485000Y-35125000D02*
X99785000Y-35125000D01*
G75*
G02*
X99935000Y-35275000I0J-150000D01*
G01*
X99935000Y-37025000D01*
G75*
G02*
X99785000Y-37175000I-150000J0D01*
G01*
X99485000Y-37175000D01*
G75*
G02*
X99335000Y-37025000I0J150000D01*
G01*
X99335000Y-35275000D01*
G75*
G02*
X99485000Y-35125000I150000J0D01*
G01*
G37*
G04 #@! TD.AperFunction*
G04 #@! TA.AperFunction,SMDPad,CuDef*
G36*
G01*
X98215000Y-35125000D02*
X98515000Y-35125000D01*
G75*
G02*
X98665000Y-35275000I0J-150000D01*
G01*
X98665000Y-37025000D01*
G75*
G02*
X98515000Y-37175000I-150000J0D01*
G01*
X98215000Y-37175000D01*
G75*
G02*
X98065000Y-37025000I0J150000D01*
G01*
X98065000Y-35275000D01*
G75*
G02*
X98215000Y-35125000I150000J0D01*
G01*
G37*
G04 #@! TD.AperFunction*
G04 #@! TA.AperFunction,SMDPad,CuDef*
G36*
G01*
X96945000Y-35125000D02*
X97245000Y-35125000D01*
G75*
G02*
X97395000Y-35275000I0J-150000D01*
G01*
X97395000Y-37025000D01*
G75*
G02*
X97245000Y-37175000I-150000J0D01*
G01*
X96945000Y-37175000D01*
G75*
G02*
X96795000Y-37025000I0J150000D01*
G01*
X96795000Y-35275000D01*
G75*
G02*
X96945000Y-35125000I150000J0D01*
G01*
G37*
G04 #@! TD.AperFunction*
G04 #@! TA.AperFunction,SMDPad,CuDef*
G36*
G01*
X95675000Y-35125000D02*
X95975000Y-35125000D01*
G75*
G02*
X96125000Y-35275000I0J-150000D01*
G01*
X96125000Y-37025000D01*
G75*
G02*
X95975000Y-37175000I-150000J0D01*
G01*
X95675000Y-37175000D01*
G75*
G02*
X95525000Y-37025000I0J150000D01*
G01*
X95525000Y-35275000D01*
G75*
G02*
X95675000Y-35125000I150000J0D01*
G01*
G37*
G04 #@! TD.AperFunction*
G04 #@! TA.AperFunction,SMDPad,CuDef*
G36*
G01*
X94405000Y-35125000D02*
X94705000Y-35125000D01*
G75*
G02*
X94855000Y-35275000I0J-150000D01*
G01*
X94855000Y-37025000D01*
G75*
G02*
X94705000Y-37175000I-150000J0D01*
G01*
X94405000Y-37175000D01*
G75*
G02*
X94255000Y-37025000I0J150000D01*
G01*
X94255000Y-35275000D01*
G75*
G02*
X94405000Y-35125000I150000J0D01*
G01*
G37*
G04 #@! TD.AperFunction*
G04 #@! TA.AperFunction,SMDPad,CuDef*
G36*
G01*
X94405000Y-25825000D02*
X94705000Y-25825000D01*
G75*
G02*
X94855000Y-25975000I0J-150000D01*
G01*
X94855000Y-27725000D01*
G75*
G02*
X94705000Y-27875000I-150000J0D01*
G01*
X94405000Y-27875000D01*
G75*
G02*
X94255000Y-27725000I0J150000D01*
G01*
X94255000Y-25975000D01*
G75*
G02*
X94405000Y-25825000I150000J0D01*
G01*
G37*
G04 #@! TD.AperFunction*
G04 #@! TA.AperFunction,SMDPad,CuDef*
G36*
G01*
X95675000Y-25825000D02*
X95975000Y-25825000D01*
G75*
G02*
X96125000Y-25975000I0J-150000D01*
G01*
X96125000Y-27725000D01*
G75*
G02*
X95975000Y-27875000I-150000J0D01*
G01*
X95675000Y-27875000D01*
G75*
G02*
X95525000Y-27725000I0J150000D01*
G01*
X95525000Y-25975000D01*
G75*
G02*
X95675000Y-25825000I150000J0D01*
G01*
G37*
G04 #@! TD.AperFunction*
G04 #@! TA.AperFunction,SMDPad,CuDef*
G36*
G01*
X96945000Y-25825000D02*
X97245000Y-25825000D01*
G75*
G02*
X97395000Y-25975000I0J-150000D01*
G01*
X97395000Y-27725000D01*
G75*
G02*
X97245000Y-27875000I-150000J0D01*
G01*
X96945000Y-27875000D01*
G75*
G02*
X96795000Y-27725000I0J150000D01*
G01*
X96795000Y-25975000D01*
G75*
G02*
X96945000Y-25825000I150000J0D01*
G01*
G37*
G04 #@! TD.AperFunction*
G04 #@! TA.AperFunction,SMDPad,CuDef*
G36*
G01*
X98215000Y-25825000D02*
X98515000Y-25825000D01*
G75*
G02*
X98665000Y-25975000I0J-150000D01*
G01*
X98665000Y-27725000D01*
G75*
G02*
X98515000Y-27875000I-150000J0D01*
G01*
X98215000Y-27875000D01*
G75*
G02*
X98065000Y-27725000I0J150000D01*
G01*
X98065000Y-25975000D01*
G75*
G02*
X98215000Y-25825000I150000J0D01*
G01*
G37*
G04 #@! TD.AperFunction*
G04 #@! TA.AperFunction,SMDPad,CuDef*
G36*
G01*
X99485000Y-25825000D02*
X99785000Y-25825000D01*
G75*
G02*
X99935000Y-25975000I0J-150000D01*
G01*
X99935000Y-27725000D01*
G75*
G02*
X99785000Y-27875000I-150000J0D01*
G01*
X99485000Y-27875000D01*
G75*
G02*
X99335000Y-27725000I0J150000D01*
G01*
X99335000Y-25975000D01*
G75*
G02*
X99485000Y-25825000I150000J0D01*
G01*
G37*
G04 #@! TD.AperFunction*
G04 #@! TA.AperFunction,SMDPad,CuDef*
G36*
G01*
X100755000Y-25825000D02*
X101055000Y-25825000D01*
G75*
G02*
X101205000Y-25975000I0J-150000D01*
G01*
X101205000Y-27725000D01*
G75*
G02*
X101055000Y-27875000I-150000J0D01*
G01*
X100755000Y-27875000D01*
G75*
G02*
X100605000Y-27725000I0J150000D01*
G01*
X100605000Y-25975000D01*
G75*
G02*
X100755000Y-25825000I150000J0D01*
G01*
G37*
G04 #@! TD.AperFunction*
G04 #@! TA.AperFunction,SMDPad,CuDef*
G36*
G01*
X102025000Y-25825000D02*
X102325000Y-25825000D01*
G75*
G02*
X102475000Y-25975000I0J-150000D01*
G01*
X102475000Y-27725000D01*
G75*
G02*
X102325000Y-27875000I-150000J0D01*
G01*
X102025000Y-27875000D01*
G75*
G02*
X101875000Y-27725000I0J150000D01*
G01*
X101875000Y-25975000D01*
G75*
G02*
X102025000Y-25825000I150000J0D01*
G01*
G37*
G04 #@! TD.AperFunction*
G04 #@! TA.AperFunction,SMDPad,CuDef*
G36*
G01*
X103295000Y-25825000D02*
X103595000Y-25825000D01*
G75*
G02*
X103745000Y-25975000I0J-150000D01*
G01*
X103745000Y-27725000D01*
G75*
G02*
X103595000Y-27875000I-150000J0D01*
G01*
X103295000Y-27875000D01*
G75*
G02*
X103145000Y-27725000I0J150000D01*
G01*
X103145000Y-25975000D01*
G75*
G02*
X103295000Y-25825000I150000J0D01*
G01*
G37*
G04 #@! TD.AperFunction*
D16*
X75000000Y-80500000D03*
X70000000Y-80500000D03*
D17*
X67040000Y-65500000D03*
X64500000Y-65500000D03*
X61960000Y-65500000D03*
D15*
X87500000Y-47500000D03*
X85500000Y-48450000D03*
X85500000Y-46550000D03*
G04 #@! TA.AperFunction,SMDPad,CuDef*
G36*
G01*
X50049998Y-41487500D02*
X50950002Y-41487500D01*
G75*
G02*
X51200000Y-41737498I0J-249998D01*
G01*
X51200000Y-42262502D01*
G75*
G02*
X50950002Y-42512500I-249998J0D01*
G01*
X50049998Y-42512500D01*
G75*
G02*
X49800000Y-42262502I0J249998D01*
G01*
X49800000Y-41737498D01*
G75*
G02*
X50049998Y-41487500I249998J0D01*
G01*
G37*
G04 #@! TD.AperFunction*
G04 #@! TA.AperFunction,SMDPad,CuDef*
G36*
G01*
X50049998Y-39662500D02*
X50950002Y-39662500D01*
G75*
G02*
X51200000Y-39912498I0J-249998D01*
G01*
X51200000Y-40437502D01*
G75*
G02*
X50950002Y-40687500I-249998J0D01*
G01*
X50049998Y-40687500D01*
G75*
G02*
X49800000Y-40437502I0J249998D01*
G01*
X49800000Y-39912498D01*
G75*
G02*
X50049998Y-39662500I249998J0D01*
G01*
G37*
G04 #@! TD.AperFunction*
D18*
X42000000Y-18500000D03*
G04 #@! TA.AperFunction,ComponentPad*
G36*
G01*
X38650000Y-19250000D02*
X38650000Y-17750000D01*
G75*
G02*
X38900000Y-17500000I250000J0D01*
G01*
X40100000Y-17500000D01*
G75*
G02*
X40350000Y-17750000I0J-250000D01*
G01*
X40350000Y-19250000D01*
G75*
G02*
X40100000Y-19500000I-250000J0D01*
G01*
X38900000Y-19500000D01*
G75*
G02*
X38650000Y-19250000I0J250000D01*
G01*
G37*
G04 #@! TD.AperFunction*
D19*
X75000000Y-65500000D03*
X72500000Y-70500000D03*
G04 #@! TA.AperFunction,SMDPad,CuDef*
G36*
G01*
X50950002Y-44512500D02*
X50049998Y-44512500D01*
G75*
G02*
X49800000Y-44262502I0J249998D01*
G01*
X49800000Y-43737498D01*
G75*
G02*
X50049998Y-43487500I249998J0D01*
G01*
X50950002Y-43487500D01*
G75*
G02*
X51200000Y-43737498I0J-249998D01*
G01*
X51200000Y-44262502D01*
G75*
G02*
X50950002Y-44512500I-249998J0D01*
G01*
G37*
G04 #@! TD.AperFunction*
G04 #@! TA.AperFunction,SMDPad,CuDef*
G36*
G01*
X50950002Y-46337500D02*
X50049998Y-46337500D01*
G75*
G02*
X49800000Y-46087502I0J249998D01*
G01*
X49800000Y-45562498D01*
G75*
G02*
X50049998Y-45312500I249998J0D01*
G01*
X50950002Y-45312500D01*
G75*
G02*
X51200000Y-45562498I0J-249998D01*
G01*
X51200000Y-46087502D01*
G75*
G02*
X50950002Y-46337500I-249998J0D01*
G01*
G37*
G04 #@! TD.AperFunction*
G04 #@! TA.AperFunction,SMDPad,CuDef*
G36*
G01*
X90062500Y-68700002D02*
X90062500Y-67799998D01*
G75*
G02*
X90312498Y-67550000I249998J0D01*
G01*
X90837502Y-67550000D01*
G75*
G02*
X91087500Y-67799998I0J-249998D01*
G01*
X91087500Y-68700002D01*
G75*
G02*
X90837502Y-68950000I-249998J0D01*
G01*
X90312498Y-68950000D01*
G75*
G02*
X90062500Y-68700002I0J249998D01*
G01*
G37*
G04 #@! TD.AperFunction*
G04 #@! TA.AperFunction,SMDPad,CuDef*
G36*
G01*
X88237500Y-68700002D02*
X88237500Y-67799998D01*
G75*
G02*
X88487498Y-67550000I249998J0D01*
G01*
X89012502Y-67550000D01*
G75*
G02*
X89262500Y-67799998I0J-249998D01*
G01*
X89262500Y-68700002D01*
G75*
G02*
X89012502Y-68950000I-249998J0D01*
G01*
X88487498Y-68950000D01*
G75*
G02*
X88237500Y-68700002I0J249998D01*
G01*
G37*
G04 #@! TD.AperFunction*
G04 #@! TA.AperFunction,SMDPad,CuDef*
G36*
G01*
X90150000Y-65200002D02*
X90150000Y-64299998D01*
G75*
G02*
X90399998Y-64050000I249998J0D01*
G01*
X90925002Y-64050000D01*
G75*
G02*
X91175000Y-64299998I0J-249998D01*
G01*
X91175000Y-65200002D01*
G75*
G02*
X90925002Y-65450000I-249998J0D01*
G01*
X90399998Y-65450000D01*
G75*
G02*
X90150000Y-65200002I0J249998D01*
G01*
G37*
G04 #@! TD.AperFunction*
G04 #@! TA.AperFunction,SMDPad,CuDef*
G36*
G01*
X88325000Y-65200002D02*
X88325000Y-64299998D01*
G75*
G02*
X88574998Y-64050000I249998J0D01*
G01*
X89100002Y-64050000D01*
G75*
G02*
X89350000Y-64299998I0J-249998D01*
G01*
X89350000Y-65200002D01*
G75*
G02*
X89100002Y-65450000I-249998J0D01*
G01*
X88574998Y-65450000D01*
G75*
G02*
X88325000Y-65200002I0J249998D01*
G01*
G37*
G04 #@! TD.AperFunction*
G04 #@! TA.AperFunction,SMDPad,CuDef*
G36*
G01*
X53950002Y-40687500D02*
X53049998Y-40687500D01*
G75*
G02*
X52800000Y-40437502I0J249998D01*
G01*
X52800000Y-39912498D01*
G75*
G02*
X53049998Y-39662500I249998J0D01*
G01*
X53950002Y-39662500D01*
G75*
G02*
X54200000Y-39912498I0J-249998D01*
G01*
X54200000Y-40437502D01*
G75*
G02*
X53950002Y-40687500I-249998J0D01*
G01*
G37*
G04 #@! TD.AperFunction*
G04 #@! TA.AperFunction,SMDPad,CuDef*
G36*
G01*
X53950002Y-42512500D02*
X53049998Y-42512500D01*
G75*
G02*
X52800000Y-42262502I0J249998D01*
G01*
X52800000Y-41737498D01*
G75*
G02*
X53049998Y-41487500I249998J0D01*
G01*
X53950002Y-41487500D01*
G75*
G02*
X54200000Y-41737498I0J-249998D01*
G01*
X54200000Y-42262502D01*
G75*
G02*
X53950002Y-42512500I-249998J0D01*
G01*
G37*
G04 #@! TD.AperFunction*
G04 #@! TA.AperFunction,SMDPad,CuDef*
G36*
G01*
X66049998Y-30987500D02*
X66950002Y-30987500D01*
G75*
G02*
X67200000Y-31237498I0J-249998D01*
G01*
X67200000Y-31762502D01*
G75*
G02*
X66950002Y-32012500I-249998J0D01*
G01*
X66049998Y-32012500D01*
G75*
G02*
X65800000Y-31762502I0J249998D01*
G01*
X65800000Y-31237498D01*
G75*
G02*
X66049998Y-30987500I249998J0D01*
G01*
G37*
G04 #@! TD.AperFunction*
G04 #@! TA.AperFunction,SMDPad,CuDef*
G36*
G01*
X66049998Y-29162500D02*
X66950002Y-29162500D01*
G75*
G02*
X67200000Y-29412498I0J-249998D01*
G01*
X67200000Y-29937502D01*
G75*
G02*
X66950002Y-30187500I-249998J0D01*
G01*
X66049998Y-30187500D01*
G75*
G02*
X65800000Y-29937502I0J249998D01*
G01*
X65800000Y-29412498D01*
G75*
G02*
X66049998Y-29162500I249998J0D01*
G01*
G37*
G04 #@! TD.AperFunction*
G04 #@! TA.AperFunction,SMDPad,CuDef*
G36*
G01*
X69049998Y-30987500D02*
X69950002Y-30987500D01*
G75*
G02*
X70200000Y-31237498I0J-249998D01*
G01*
X70200000Y-31762502D01*
G75*
G02*
X69950002Y-32012500I-249998J0D01*
G01*
X69049998Y-32012500D01*
G75*
G02*
X68800000Y-31762502I0J249998D01*
G01*
X68800000Y-31237498D01*
G75*
G02*
X69049998Y-30987500I249998J0D01*
G01*
G37*
G04 #@! TD.AperFunction*
G04 #@! TA.AperFunction,SMDPad,CuDef*
G36*
G01*
X69049998Y-29162500D02*
X69950002Y-29162500D01*
G75*
G02*
X70200000Y-29412498I0J-249998D01*
G01*
X70200000Y-29937502D01*
G75*
G02*
X69950002Y-30187500I-249998J0D01*
G01*
X69049998Y-30187500D01*
G75*
G02*
X68800000Y-29937502I0J249998D01*
G01*
X68800000Y-29412498D01*
G75*
G02*
X69049998Y-29162500I249998J0D01*
G01*
G37*
G04 #@! TD.AperFunction*
G04 #@! TA.AperFunction,SMDPad,CuDef*
G36*
G01*
X72049998Y-30987500D02*
X72950002Y-30987500D01*
G75*
G02*
X73200000Y-31237498I0J-249998D01*
G01*
X73200000Y-31762502D01*
G75*
G02*
X72950002Y-32012500I-249998J0D01*
G01*
X72049998Y-32012500D01*
G75*
G02*
X71800000Y-31762502I0J249998D01*
G01*
X71800000Y-31237498D01*
G75*
G02*
X72049998Y-30987500I249998J0D01*
G01*
G37*
G04 #@! TD.AperFunction*
G04 #@! TA.AperFunction,SMDPad,CuDef*
G36*
G01*
X72049998Y-29162500D02*
X72950002Y-29162500D01*
G75*
G02*
X73200000Y-29412498I0J-249998D01*
G01*
X73200000Y-29937502D01*
G75*
G02*
X72950002Y-30187500I-249998J0D01*
G01*
X72049998Y-30187500D01*
G75*
G02*
X71800000Y-29937502I0J249998D01*
G01*
X71800000Y-29412498D01*
G75*
G02*
X72049998Y-29162500I249998J0D01*
G01*
G37*
G04 #@! TD.AperFunction*
G04 #@! TA.AperFunction,SMDPad,CuDef*
G36*
G01*
X86987500Y-40950002D02*
X86987500Y-40049998D01*
G75*
G02*
X87237498Y-39800000I249998J0D01*
G01*
X87762502Y-39800000D01*
G75*
G02*
X88012500Y-40049998I0J-249998D01*
G01*
X88012500Y-40950002D01*
G75*
G02*
X87762502Y-41200000I-249998J0D01*
G01*
X87237498Y-41200000D01*
G75*
G02*
X86987500Y-40950002I0J249998D01*
G01*
G37*
G04 #@! TD.AperFunction*
G04 #@! TA.AperFunction,SMDPad,CuDef*
G36*
G01*
X85162500Y-40950002D02*
X85162500Y-40049998D01*
G75*
G02*
X85412498Y-39800000I249998J0D01*
G01*
X85937502Y-39800000D01*
G75*
G02*
X86187500Y-40049998I0J-249998D01*
G01*
X86187500Y-40950002D01*
G75*
G02*
X85937502Y-41200000I-249998J0D01*
G01*
X85412498Y-41200000D01*
G75*
G02*
X85162500Y-40950002I0J249998D01*
G01*
G37*
G04 #@! TD.AperFunction*
G04 #@! TA.AperFunction,SMDPad,CuDef*
G36*
G01*
X86900000Y-44450002D02*
X86900000Y-43549998D01*
G75*
G02*
X87149998Y-43300000I249998J0D01*
G01*
X87675002Y-43300000D01*
G75*
G02*
X87925000Y-43549998I0J-249998D01*
G01*
X87925000Y-44450002D01*
G75*
G02*
X87675002Y-44700000I-249998J0D01*
G01*
X87149998Y-44700000D01*
G75*
G02*
X86900000Y-44450002I0J249998D01*
G01*
G37*
G04 #@! TD.AperFunction*
G04 #@! TA.AperFunction,SMDPad,CuDef*
G36*
G01*
X85075000Y-44450002D02*
X85075000Y-43549998D01*
G75*
G02*
X85324998Y-43300000I249998J0D01*
G01*
X85850002Y-43300000D01*
G75*
G02*
X86100000Y-43549998I0J-249998D01*
G01*
X86100000Y-44450002D01*
G75*
G02*
X85850002Y-44700000I-249998J0D01*
G01*
X85324998Y-44700000D01*
G75*
G02*
X85075000Y-44450002I0J249998D01*
G01*
G37*
G04 #@! TD.AperFunction*
G04 #@! TA.AperFunction,SMDPad,CuDef*
G36*
G01*
X75687500Y-53049998D02*
X75687500Y-53950002D01*
G75*
G02*
X75437502Y-54200000I-249998J0D01*
G01*
X74912498Y-54200000D01*
G75*
G02*
X74662500Y-53950002I0J249998D01*
G01*
X74662500Y-53049998D01*
G75*
G02*
X74912498Y-52800000I249998J0D01*
G01*
X75437502Y-52800000D01*
G75*
G02*
X75687500Y-53049998I0J-249998D01*
G01*
G37*
G04 #@! TD.AperFunction*
G04 #@! TA.AperFunction,SMDPad,CuDef*
G36*
G01*
X77512500Y-53049998D02*
X77512500Y-53950002D01*
G75*
G02*
X77262502Y-54200000I-249998J0D01*
G01*
X76737498Y-54200000D01*
G75*
G02*
X76487500Y-53950002I0J249998D01*
G01*
X76487500Y-53049998D01*
G75*
G02*
X76737498Y-52800000I249998J0D01*
G01*
X77262502Y-52800000D01*
G75*
G02*
X77512500Y-53049998I0J-249998D01*
G01*
G37*
G04 #@! TD.AperFunction*
G04 #@! TA.AperFunction,SMDPad,CuDef*
G36*
G01*
X76487500Y-51450002D02*
X76487500Y-50549998D01*
G75*
G02*
X76737498Y-50300000I249998J0D01*
G01*
X77262502Y-50300000D01*
G75*
G02*
X77512500Y-50549998I0J-249998D01*
G01*
X77512500Y-51450002D01*
G75*
G02*
X77262502Y-51700000I-249998J0D01*
G01*
X76737498Y-51700000D01*
G75*
G02*
X76487500Y-51450002I0J249998D01*
G01*
G37*
G04 #@! TD.AperFunction*
G04 #@! TA.AperFunction,SMDPad,CuDef*
G36*
G01*
X74662500Y-51450002D02*
X74662500Y-50549998D01*
G75*
G02*
X74912498Y-50300000I249998J0D01*
G01*
X75437502Y-50300000D01*
G75*
G02*
X75687500Y-50549998I0J-249998D01*
G01*
X75687500Y-51450002D01*
G75*
G02*
X75437502Y-51700000I-249998J0D01*
G01*
X74912498Y-51700000D01*
G75*
G02*
X74662500Y-51450002I0J249998D01*
G01*
G37*
G04 #@! TD.AperFunction*
G04 #@! TA.AperFunction,SMDPad,CuDef*
G36*
G01*
X53950002Y-59512500D02*
X53049998Y-59512500D01*
G75*
G02*
X52800000Y-59262502I0J249998D01*
G01*
X52800000Y-58737498D01*
G75*
G02*
X53049998Y-58487500I249998J0D01*
G01*
X53950002Y-58487500D01*
G75*
G02*
X54200000Y-58737498I0J-249998D01*
G01*
X54200000Y-59262502D01*
G75*
G02*
X53950002Y-59512500I-249998J0D01*
G01*
G37*
G04 #@! TD.AperFunction*
G04 #@! TA.AperFunction,SMDPad,CuDef*
G36*
G01*
X53950002Y-61337500D02*
X53049998Y-61337500D01*
G75*
G02*
X52800000Y-61087502I0J249998D01*
G01*
X52800000Y-60562498D01*
G75*
G02*
X53049998Y-60312500I249998J0D01*
G01*
X53950002Y-60312500D01*
G75*
G02*
X54200000Y-60562498I0J-249998D01*
G01*
X54200000Y-61087502D01*
G75*
G02*
X53950002Y-61337500I-249998J0D01*
G01*
G37*
G04 #@! TD.AperFunction*
G04 #@! TA.AperFunction,SMDPad,CuDef*
G36*
G01*
X57450002Y-59512500D02*
X56549998Y-59512500D01*
G75*
G02*
X56300000Y-59262502I0J249998D01*
G01*
X56300000Y-58737498D01*
G75*
G02*
X56549998Y-58487500I249998J0D01*
G01*
X57450002Y-58487500D01*
G75*
G02*
X57700000Y-58737498I0J-249998D01*
G01*
X57700000Y-59262502D01*
G75*
G02*
X57450002Y-59512500I-249998J0D01*
G01*
G37*
G04 #@! TD.AperFunction*
G04 #@! TA.AperFunction,SMDPad,CuDef*
G36*
G01*
X57450002Y-61337500D02*
X56549998Y-61337500D01*
G75*
G02*
X56300000Y-61087502I0J249998D01*
G01*
X56300000Y-60562498D01*
G75*
G02*
X56549998Y-60312500I249998J0D01*
G01*
X57450002Y-60312500D01*
G75*
G02*
X57700000Y-60562498I0J-249998D01*
G01*
X57700000Y-61087502D01*
G75*
G02*
X57450002Y-61337500I-249998J0D01*
G01*
G37*
G04 #@! TD.AperFunction*
G04 #@! TA.AperFunction,SMDPad,CuDef*
G36*
G01*
X48012500Y-26549998D02*
X48012500Y-27450002D01*
G75*
G02*
X47762502Y-27700000I-249998J0D01*
G01*
X47237498Y-27700000D01*
G75*
G02*
X46987500Y-27450002I0J249998D01*
G01*
X46987500Y-26549998D01*
G75*
G02*
X47237498Y-26300000I249998J0D01*
G01*
X47762502Y-26300000D01*
G75*
G02*
X48012500Y-26549998I0J-249998D01*
G01*
G37*
G04 #@! TD.AperFunction*
G04 #@! TA.AperFunction,SMDPad,CuDef*
G36*
G01*
X49837500Y-26549998D02*
X49837500Y-27450002D01*
G75*
G02*
X49587502Y-27700000I-249998J0D01*
G01*
X49062498Y-27700000D01*
G75*
G02*
X48812500Y-27450002I0J249998D01*
G01*
X48812500Y-26549998D01*
G75*
G02*
X49062498Y-26300000I249998J0D01*
G01*
X49587502Y-26300000D01*
G75*
G02*
X49837500Y-26549998I0J-249998D01*
G01*
G37*
G04 #@! TD.AperFunction*
G04 #@! TA.AperFunction,SMDPad,CuDef*
G36*
G01*
X48012500Y-29049998D02*
X48012500Y-29950002D01*
G75*
G02*
X47762502Y-30200000I-249998J0D01*
G01*
X47237498Y-30200000D01*
G75*
G02*
X46987500Y-29950002I0J249998D01*
G01*
X46987500Y-29049998D01*
G75*
G02*
X47237498Y-28800000I249998J0D01*
G01*
X47762502Y-28800000D01*
G75*
G02*
X48012500Y-29049998I0J-249998D01*
G01*
G37*
G04 #@! TD.AperFunction*
G04 #@! TA.AperFunction,SMDPad,CuDef*
G36*
G01*
X49837500Y-29049998D02*
X49837500Y-29950002D01*
G75*
G02*
X49587502Y-30200000I-249998J0D01*
G01*
X49062498Y-30200000D01*
G75*
G02*
X48812500Y-29950002I0J249998D01*
G01*
X48812500Y-29049998D01*
G75*
G02*
X49062498Y-28800000I249998J0D01*
G01*
X49587502Y-28800000D01*
G75*
G02*
X49837500Y-29049998I0J-249998D01*
G01*
G37*
G04 #@! TD.AperFunction*
G04 #@! TA.AperFunction,SMDPad,CuDef*
G36*
G01*
X56549998Y-73487500D02*
X57450002Y-73487500D01*
G75*
G02*
X57700000Y-73737498I0J-249998D01*
G01*
X57700000Y-74262502D01*
G75*
G02*
X57450002Y-74512500I-249998J0D01*
G01*
X56549998Y-74512500D01*
G75*
G02*
X56300000Y-74262502I0J249998D01*
G01*
X56300000Y-73737498D01*
G75*
G02*
X56549998Y-73487500I249998J0D01*
G01*
G37*
G04 #@! TD.AperFunction*
G04 #@! TA.AperFunction,SMDPad,CuDef*
G36*
G01*
X56549998Y-71662500D02*
X57450002Y-71662500D01*
G75*
G02*
X57700000Y-71912498I0J-249998D01*
G01*
X57700000Y-72437502D01*
G75*
G02*
X57450002Y-72687500I-249998J0D01*
G01*
X56549998Y-72687500D01*
G75*
G02*
X56300000Y-72437502I0J249998D01*
G01*
X56300000Y-71912498D01*
G75*
G02*
X56549998Y-71662500I249998J0D01*
G01*
G37*
G04 #@! TD.AperFunction*
G04 #@! TA.AperFunction,SMDPad,CuDef*
G36*
G01*
X44187500Y-26549998D02*
X44187500Y-27450002D01*
G75*
G02*
X43937502Y-27700000I-249998J0D01*
G01*
X43412498Y-27700000D01*
G75*
G02*
X43162500Y-27450002I0J249998D01*
G01*
X43162500Y-26549998D01*
G75*
G02*
X43412498Y-26300000I249998J0D01*
G01*
X43937502Y-26300000D01*
G75*
G02*
X44187500Y-26549998I0J-249998D01*
G01*
G37*
G04 #@! TD.AperFunction*
G04 #@! TA.AperFunction,SMDPad,CuDef*
G36*
G01*
X46012500Y-26549998D02*
X46012500Y-27450002D01*
G75*
G02*
X45762502Y-27700000I-249998J0D01*
G01*
X45237498Y-27700000D01*
G75*
G02*
X44987500Y-27450002I0J249998D01*
G01*
X44987500Y-26549998D01*
G75*
G02*
X45237498Y-26300000I249998J0D01*
G01*
X45762502Y-26300000D01*
G75*
G02*
X46012500Y-26549998I0J-249998D01*
G01*
G37*
G04 #@! TD.AperFunction*
G04 #@! TA.AperFunction,SMDPad,CuDef*
G36*
G01*
X44187500Y-29049998D02*
X44187500Y-29950002D01*
G75*
G02*
X43937502Y-30200000I-249998J0D01*
G01*
X43412498Y-30200000D01*
G75*
G02*
X43162500Y-29950002I0J249998D01*
G01*
X43162500Y-29049998D01*
G75*
G02*
X43412498Y-28800000I249998J0D01*
G01*
X43937502Y-28800000D01*
G75*
G02*
X44187500Y-29049998I0J-249998D01*
G01*
G37*
G04 #@! TD.AperFunction*
G04 #@! TA.AperFunction,SMDPad,CuDef*
G36*
G01*
X46012500Y-29049998D02*
X46012500Y-29950002D01*
G75*
G02*
X45762502Y-30200000I-249998J0D01*
G01*
X45237498Y-30200000D01*
G75*
G02*
X44987500Y-29950002I0J249998D01*
G01*
X44987500Y-29049998D01*
G75*
G02*
X45237498Y-28800000I249998J0D01*
G01*
X45762502Y-28800000D01*
G75*
G02*
X46012500Y-29049998I0J-249998D01*
G01*
G37*
G04 #@! TD.AperFunction*
G04 #@! TA.AperFunction,SMDPad,CuDef*
G36*
G01*
X53049998Y-73487500D02*
X53950002Y-73487500D01*
G75*
G02*
X54200000Y-73737498I0J-249998D01*
G01*
X54200000Y-74262502D01*
G75*
G02*
X53950002Y-74512500I-249998J0D01*
G01*
X53049998Y-74512500D01*
G75*
G02*
X52800000Y-74262502I0J249998D01*
G01*
X52800000Y-73737498D01*
G75*
G02*
X53049998Y-73487500I249998J0D01*
G01*
G37*
G04 #@! TD.AperFunction*
G04 #@! TA.AperFunction,SMDPad,CuDef*
G36*
G01*
X53049998Y-71662500D02*
X53950002Y-71662500D01*
G75*
G02*
X54200000Y-71912498I0J-249998D01*
G01*
X54200000Y-72437502D01*
G75*
G02*
X53950002Y-72687500I-249998J0D01*
G01*
X53049998Y-72687500D01*
G75*
G02*
X52800000Y-72437502I0J249998D01*
G01*
X52800000Y-71912498D01*
G75*
G02*
X53049998Y-71662500I249998J0D01*
G01*
G37*
G04 #@! TD.AperFunction*
G04 #@! TA.AperFunction,SMDPad,CuDef*
G36*
G01*
X46950002Y-59512500D02*
X46049998Y-59512500D01*
G75*
G02*
X45800000Y-59262502I0J249998D01*
G01*
X45800000Y-58737498D01*
G75*
G02*
X46049998Y-58487500I249998J0D01*
G01*
X46950002Y-58487500D01*
G75*
G02*
X47200000Y-58737498I0J-249998D01*
G01*
X47200000Y-59262502D01*
G75*
G02*
X46950002Y-59512500I-249998J0D01*
G01*
G37*
G04 #@! TD.AperFunction*
G04 #@! TA.AperFunction,SMDPad,CuDef*
G36*
G01*
X46950002Y-61337500D02*
X46049998Y-61337500D01*
G75*
G02*
X45800000Y-61087502I0J249998D01*
G01*
X45800000Y-60562498D01*
G75*
G02*
X46049998Y-60312500I249998J0D01*
G01*
X46950002Y-60312500D01*
G75*
G02*
X47200000Y-60562498I0J-249998D01*
G01*
X47200000Y-61087502D01*
G75*
G02*
X46950002Y-61337500I-249998J0D01*
G01*
G37*
G04 #@! TD.AperFunction*
G04 #@! TA.AperFunction,SMDPad,CuDef*
G36*
G01*
X50450002Y-59512500D02*
X49549998Y-59512500D01*
G75*
G02*
X49300000Y-59262502I0J249998D01*
G01*
X49300000Y-58737498D01*
G75*
G02*
X49549998Y-58487500I249998J0D01*
G01*
X50450002Y-58487500D01*
G75*
G02*
X50700000Y-58737498I0J-249998D01*
G01*
X50700000Y-59262502D01*
G75*
G02*
X50450002Y-59512500I-249998J0D01*
G01*
G37*
G04 #@! TD.AperFunction*
G04 #@! TA.AperFunction,SMDPad,CuDef*
G36*
G01*
X50450002Y-61337500D02*
X49549998Y-61337500D01*
G75*
G02*
X49300000Y-61087502I0J249998D01*
G01*
X49300000Y-60562498D01*
G75*
G02*
X49549998Y-60312500I249998J0D01*
G01*
X50450002Y-60312500D01*
G75*
G02*
X50700000Y-60562498I0J-249998D01*
G01*
X50700000Y-61087502D01*
G75*
G02*
X50450002Y-61337500I-249998J0D01*
G01*
G37*
G04 #@! TD.AperFunction*
G04 #@! TA.AperFunction,SMDPad,CuDef*
G36*
G01*
X39362500Y-43125003D02*
X39362500Y-41874997D01*
G75*
G02*
X39612497Y-41625000I249997J0D01*
G01*
X40237503Y-41625000D01*
G75*
G02*
X40487500Y-41874997I0J-249997D01*
G01*
X40487500Y-43125003D01*
G75*
G02*
X40237503Y-43375000I-249997J0D01*
G01*
X39612497Y-43375000D01*
G75*
G02*
X39362500Y-43125003I0J249997D01*
G01*
G37*
G04 #@! TD.AperFunction*
G04 #@! TA.AperFunction,SMDPad,CuDef*
G36*
G01*
X36437500Y-43125003D02*
X36437500Y-41874997D01*
G75*
G02*
X36687497Y-41625000I249997J0D01*
G01*
X37312503Y-41625000D01*
G75*
G02*
X37562500Y-41874997I0J-249997D01*
G01*
X37562500Y-43125003D01*
G75*
G02*
X37312503Y-43375000I-249997J0D01*
G01*
X36687497Y-43375000D01*
G75*
G02*
X36437500Y-43125003I0J249997D01*
G01*
G37*
G04 #@! TD.AperFunction*
G04 #@! TA.AperFunction,SMDPad,CuDef*
G36*
G01*
X40950002Y-38187500D02*
X40049998Y-38187500D01*
G75*
G02*
X39800000Y-37937502I0J249998D01*
G01*
X39800000Y-37412498D01*
G75*
G02*
X40049998Y-37162500I249998J0D01*
G01*
X40950002Y-37162500D01*
G75*
G02*
X41200000Y-37412498I0J-249998D01*
G01*
X41200000Y-37937502D01*
G75*
G02*
X40950002Y-38187500I-249998J0D01*
G01*
G37*
G04 #@! TD.AperFunction*
G04 #@! TA.AperFunction,SMDPad,CuDef*
G36*
G01*
X40950002Y-40012500D02*
X40049998Y-40012500D01*
G75*
G02*
X39800000Y-39762502I0J249998D01*
G01*
X39800000Y-39237498D01*
G75*
G02*
X40049998Y-38987500I249998J0D01*
G01*
X40950002Y-38987500D01*
G75*
G02*
X41200000Y-39237498I0J-249998D01*
G01*
X41200000Y-39762502D01*
G75*
G02*
X40950002Y-40012500I-249998J0D01*
G01*
G37*
G04 #@! TD.AperFunction*
G04 #@! TA.AperFunction,SMDPad,CuDef*
G36*
G01*
X37450002Y-38187500D02*
X36549998Y-38187500D01*
G75*
G02*
X36300000Y-37937502I0J249998D01*
G01*
X36300000Y-37412498D01*
G75*
G02*
X36549998Y-37162500I249998J0D01*
G01*
X37450002Y-37162500D01*
G75*
G02*
X37700000Y-37412498I0J-249998D01*
G01*
X37700000Y-37937502D01*
G75*
G02*
X37450002Y-38187500I-249998J0D01*
G01*
G37*
G04 #@! TD.AperFunction*
G04 #@! TA.AperFunction,SMDPad,CuDef*
G36*
G01*
X37450002Y-40012500D02*
X36549998Y-40012500D01*
G75*
G02*
X36300000Y-39762502I0J249998D01*
G01*
X36300000Y-39237498D01*
G75*
G02*
X36549998Y-38987500I249998J0D01*
G01*
X37450002Y-38987500D01*
G75*
G02*
X37700000Y-39237498I0J-249998D01*
G01*
X37700000Y-39762502D01*
G75*
G02*
X37450002Y-40012500I-249998J0D01*
G01*
G37*
G04 #@! TD.AperFunction*
G04 #@! TA.AperFunction,SMDPad,CuDef*
G36*
G01*
X42549998Y-61812500D02*
X43450002Y-61812500D01*
G75*
G02*
X43700000Y-62062498I0J-249998D01*
G01*
X43700000Y-62587502D01*
G75*
G02*
X43450002Y-62837500I-249998J0D01*
G01*
X42549998Y-62837500D01*
G75*
G02*
X42300000Y-62587502I0J249998D01*
G01*
X42300000Y-62062498D01*
G75*
G02*
X42549998Y-61812500I249998J0D01*
G01*
G37*
G04 #@! TD.AperFunction*
G04 #@! TA.AperFunction,SMDPad,CuDef*
G36*
G01*
X42549998Y-59987500D02*
X43450002Y-59987500D01*
G75*
G02*
X43700000Y-60237498I0J-249998D01*
G01*
X43700000Y-60762502D01*
G75*
G02*
X43450002Y-61012500I-249998J0D01*
G01*
X42549998Y-61012500D01*
G75*
G02*
X42300000Y-60762502I0J249998D01*
G01*
X42300000Y-60237498D01*
G75*
G02*
X42549998Y-59987500I249998J0D01*
G01*
G37*
G04 #@! TD.AperFunction*
G04 #@! TA.AperFunction,SMDPad,CuDef*
G36*
G01*
X39049998Y-61812500D02*
X39950002Y-61812500D01*
G75*
G02*
X40200000Y-62062498I0J-249998D01*
G01*
X40200000Y-62587502D01*
G75*
G02*
X39950002Y-62837500I-249998J0D01*
G01*
X39049998Y-62837500D01*
G75*
G02*
X38800000Y-62587502I0J249998D01*
G01*
X38800000Y-62062498D01*
G75*
G02*
X39049998Y-61812500I249998J0D01*
G01*
G37*
G04 #@! TD.AperFunction*
G04 #@! TA.AperFunction,SMDPad,CuDef*
G36*
G01*
X39049998Y-59987500D02*
X39950002Y-59987500D01*
G75*
G02*
X40200000Y-60237498I0J-249998D01*
G01*
X40200000Y-60762502D01*
G75*
G02*
X39950002Y-61012500I-249998J0D01*
G01*
X39049998Y-61012500D01*
G75*
G02*
X38800000Y-60762502I0J249998D01*
G01*
X38800000Y-60237498D01*
G75*
G02*
X39049998Y-59987500I249998J0D01*
G01*
G37*
G04 #@! TD.AperFunction*
G04 #@! TA.AperFunction,SMDPad,CuDef*
G36*
G01*
X28450002Y-29687500D02*
X27549998Y-29687500D01*
G75*
G02*
X27300000Y-29437502I0J249998D01*
G01*
X27300000Y-28912498D01*
G75*
G02*
X27549998Y-28662500I249998J0D01*
G01*
X28450002Y-28662500D01*
G75*
G02*
X28700000Y-28912498I0J-249998D01*
G01*
X28700000Y-29437502D01*
G75*
G02*
X28450002Y-29687500I-249998J0D01*
G01*
G37*
G04 #@! TD.AperFunction*
G04 #@! TA.AperFunction,SMDPad,CuDef*
G36*
G01*
X28450002Y-31512500D02*
X27549998Y-31512500D01*
G75*
G02*
X27300000Y-31262502I0J249998D01*
G01*
X27300000Y-30737498D01*
G75*
G02*
X27549998Y-30487500I249998J0D01*
G01*
X28450002Y-30487500D01*
G75*
G02*
X28700000Y-30737498I0J-249998D01*
G01*
X28700000Y-31262502D01*
G75*
G02*
X28450002Y-31512500I-249998J0D01*
G01*
G37*
G04 #@! TD.AperFunction*
G04 #@! TA.AperFunction,SMDPad,CuDef*
G36*
G01*
X25049998Y-30487500D02*
X25950002Y-30487500D01*
G75*
G02*
X26200000Y-30737498I0J-249998D01*
G01*
X26200000Y-31262502D01*
G75*
G02*
X25950002Y-31512500I-249998J0D01*
G01*
X25049998Y-31512500D01*
G75*
G02*
X24800000Y-31262502I0J249998D01*
G01*
X24800000Y-30737498D01*
G75*
G02*
X25049998Y-30487500I249998J0D01*
G01*
G37*
G04 #@! TD.AperFunction*
G04 #@! TA.AperFunction,SMDPad,CuDef*
G36*
G01*
X25049998Y-28662500D02*
X25950002Y-28662500D01*
G75*
G02*
X26200000Y-28912498I0J-249998D01*
G01*
X26200000Y-29437502D01*
G75*
G02*
X25950002Y-29687500I-249998J0D01*
G01*
X25049998Y-29687500D01*
G75*
G02*
X24800000Y-29437502I0J249998D01*
G01*
X24800000Y-28912498D01*
G75*
G02*
X25049998Y-28662500I249998J0D01*
G01*
G37*
G04 #@! TD.AperFunction*
G04 #@! TA.AperFunction,SMDPad,CuDef*
G36*
G01*
X35549998Y-54812500D02*
X36450002Y-54812500D01*
G75*
G02*
X36700000Y-55062498I0J-249998D01*
G01*
X36700000Y-55587502D01*
G75*
G02*
X36450002Y-55837500I-249998J0D01*
G01*
X35549998Y-55837500D01*
G75*
G02*
X35300000Y-55587502I0J249998D01*
G01*
X35300000Y-55062498D01*
G75*
G02*
X35549998Y-54812500I249998J0D01*
G01*
G37*
G04 #@! TD.AperFunction*
G04 #@! TA.AperFunction,SMDPad,CuDef*
G36*
G01*
X35549998Y-52987500D02*
X36450002Y-52987500D01*
G75*
G02*
X36700000Y-53237498I0J-249998D01*
G01*
X36700000Y-53762502D01*
G75*
G02*
X36450002Y-54012500I-249998J0D01*
G01*
X35549998Y-54012500D01*
G75*
G02*
X35300000Y-53762502I0J249998D01*
G01*
X35300000Y-53237498D01*
G75*
G02*
X35549998Y-52987500I249998J0D01*
G01*
G37*
G04 #@! TD.AperFunction*
G04 #@! TA.AperFunction,SMDPad,CuDef*
G36*
G01*
X32049998Y-54812500D02*
X32950002Y-54812500D01*
G75*
G02*
X33200000Y-55062498I0J-249998D01*
G01*
X33200000Y-55587502D01*
G75*
G02*
X32950002Y-55837500I-249998J0D01*
G01*
X32049998Y-55837500D01*
G75*
G02*
X31800000Y-55587502I0J249998D01*
G01*
X31800000Y-55062498D01*
G75*
G02*
X32049998Y-54812500I249998J0D01*
G01*
G37*
G04 #@! TD.AperFunction*
G04 #@! TA.AperFunction,SMDPad,CuDef*
G36*
G01*
X32049998Y-52987500D02*
X32950002Y-52987500D01*
G75*
G02*
X33200000Y-53237498I0J-249998D01*
G01*
X33200000Y-53762502D01*
G75*
G02*
X32950002Y-54012500I-249998J0D01*
G01*
X32049998Y-54012500D01*
G75*
G02*
X31800000Y-53762502I0J249998D01*
G01*
X31800000Y-53237498D01*
G75*
G02*
X32049998Y-52987500I249998J0D01*
G01*
G37*
G04 #@! TD.AperFunction*
D15*
X83000000Y-36500000D03*
X85000000Y-35550000D03*
X85000000Y-37450000D03*
D20*
X76000000Y-57500000D03*
X75050000Y-55500000D03*
X76950000Y-55500000D03*
G04 #@! TA.AperFunction,SMDPad,CuDef*
G36*
G01*
X56755000Y-67500000D02*
X57055000Y-67500000D01*
G75*
G02*
X57205000Y-67650000I0J-150000D01*
G01*
X57205000Y-69300000D01*
G75*
G02*
X57055000Y-69450000I-150000J0D01*
G01*
X56755000Y-69450000D01*
G75*
G02*
X56605000Y-69300000I0J150000D01*
G01*
X56605000Y-67650000D01*
G75*
G02*
X56755000Y-67500000I150000J0D01*
G01*
G37*
G04 #@! TD.AperFunction*
G04 #@! TA.AperFunction,SMDPad,CuDef*
G36*
G01*
X55485000Y-67500000D02*
X55785000Y-67500000D01*
G75*
G02*
X55935000Y-67650000I0J-150000D01*
G01*
X55935000Y-69300000D01*
G75*
G02*
X55785000Y-69450000I-150000J0D01*
G01*
X55485000Y-69450000D01*
G75*
G02*
X55335000Y-69300000I0J150000D01*
G01*
X55335000Y-67650000D01*
G75*
G02*
X55485000Y-67500000I150000J0D01*
G01*
G37*
G04 #@! TD.AperFunction*
G04 #@! TA.AperFunction,SMDPad,CuDef*
G36*
G01*
X54215000Y-67500000D02*
X54515000Y-67500000D01*
G75*
G02*
X54665000Y-67650000I0J-150000D01*
G01*
X54665000Y-69300000D01*
G75*
G02*
X54515000Y-69450000I-150000J0D01*
G01*
X54215000Y-69450000D01*
G75*
G02*
X54065000Y-69300000I0J150000D01*
G01*
X54065000Y-67650000D01*
G75*
G02*
X54215000Y-67500000I150000J0D01*
G01*
G37*
G04 #@! TD.AperFunction*
G04 #@! TA.AperFunction,SMDPad,CuDef*
G36*
G01*
X52945000Y-67500000D02*
X53245000Y-67500000D01*
G75*
G02*
X53395000Y-67650000I0J-150000D01*
G01*
X53395000Y-69300000D01*
G75*
G02*
X53245000Y-69450000I-150000J0D01*
G01*
X52945000Y-69450000D01*
G75*
G02*
X52795000Y-69300000I0J150000D01*
G01*
X52795000Y-67650000D01*
G75*
G02*
X52945000Y-67500000I150000J0D01*
G01*
G37*
G04 #@! TD.AperFunction*
G04 #@! TA.AperFunction,SMDPad,CuDef*
G36*
G01*
X52945000Y-62550000D02*
X53245000Y-62550000D01*
G75*
G02*
X53395000Y-62700000I0J-150000D01*
G01*
X53395000Y-64350000D01*
G75*
G02*
X53245000Y-64500000I-150000J0D01*
G01*
X52945000Y-64500000D01*
G75*
G02*
X52795000Y-64350000I0J150000D01*
G01*
X52795000Y-62700000D01*
G75*
G02*
X52945000Y-62550000I150000J0D01*
G01*
G37*
G04 #@! TD.AperFunction*
G04 #@! TA.AperFunction,SMDPad,CuDef*
G36*
G01*
X54215000Y-62550000D02*
X54515000Y-62550000D01*
G75*
G02*
X54665000Y-62700000I0J-150000D01*
G01*
X54665000Y-64350000D01*
G75*
G02*
X54515000Y-64500000I-150000J0D01*
G01*
X54215000Y-64500000D01*
G75*
G02*
X54065000Y-64350000I0J150000D01*
G01*
X54065000Y-62700000D01*
G75*
G02*
X54215000Y-62550000I150000J0D01*
G01*
G37*
G04 #@! TD.AperFunction*
G04 #@! TA.AperFunction,SMDPad,CuDef*
G36*
G01*
X55485000Y-62550000D02*
X55785000Y-62550000D01*
G75*
G02*
X55935000Y-62700000I0J-150000D01*
G01*
X55935000Y-64350000D01*
G75*
G02*
X55785000Y-64500000I-150000J0D01*
G01*
X55485000Y-64500000D01*
G75*
G02*
X55335000Y-64350000I0J150000D01*
G01*
X55335000Y-62700000D01*
G75*
G02*
X55485000Y-62550000I150000J0D01*
G01*
G37*
G04 #@! TD.AperFunction*
G04 #@! TA.AperFunction,SMDPad,CuDef*
G36*
G01*
X56755000Y-62550000D02*
X57055000Y-62550000D01*
G75*
G02*
X57205000Y-62700000I0J-150000D01*
G01*
X57205000Y-64350000D01*
G75*
G02*
X57055000Y-64500000I-150000J0D01*
G01*
X56755000Y-64500000D01*
G75*
G02*
X56605000Y-64350000I0J150000D01*
G01*
X56605000Y-62700000D01*
G75*
G02*
X56755000Y-62550000I150000J0D01*
G01*
G37*
G04 #@! TD.AperFunction*
D21*
X29725000Y-43925000D03*
D22*
X27185000Y-34775000D03*
X32265000Y-34775000D03*
G04 #@! TA.AperFunction,SMDPad,CuDef*
G36*
G01*
X49755000Y-67500000D02*
X50055000Y-67500000D01*
G75*
G02*
X50205000Y-67650000I0J-150000D01*
G01*
X50205000Y-69300000D01*
G75*
G02*
X50055000Y-69450000I-150000J0D01*
G01*
X49755000Y-69450000D01*
G75*
G02*
X49605000Y-69300000I0J150000D01*
G01*
X49605000Y-67650000D01*
G75*
G02*
X49755000Y-67500000I150000J0D01*
G01*
G37*
G04 #@! TD.AperFunction*
G04 #@! TA.AperFunction,SMDPad,CuDef*
G36*
G01*
X48485000Y-67500000D02*
X48785000Y-67500000D01*
G75*
G02*
X48935000Y-67650000I0J-150000D01*
G01*
X48935000Y-69300000D01*
G75*
G02*
X48785000Y-69450000I-150000J0D01*
G01*
X48485000Y-69450000D01*
G75*
G02*
X48335000Y-69300000I0J150000D01*
G01*
X48335000Y-67650000D01*
G75*
G02*
X48485000Y-67500000I150000J0D01*
G01*
G37*
G04 #@! TD.AperFunction*
G04 #@! TA.AperFunction,SMDPad,CuDef*
G36*
G01*
X47215000Y-67500000D02*
X47515000Y-67500000D01*
G75*
G02*
X47665000Y-67650000I0J-150000D01*
G01*
X47665000Y-69300000D01*
G75*
G02*
X47515000Y-69450000I-150000J0D01*
G01*
X47215000Y-69450000D01*
G75*
G02*
X47065000Y-69300000I0J150000D01*
G01*
X47065000Y-67650000D01*
G75*
G02*
X47215000Y-67500000I150000J0D01*
G01*
G37*
G04 #@! TD.AperFunction*
G04 #@! TA.AperFunction,SMDPad,CuDef*
G36*
G01*
X45945000Y-67500000D02*
X46245000Y-67500000D01*
G75*
G02*
X46395000Y-67650000I0J-150000D01*
G01*
X46395000Y-69300000D01*
G75*
G02*
X46245000Y-69450000I-150000J0D01*
G01*
X45945000Y-69450000D01*
G75*
G02*
X45795000Y-69300000I0J150000D01*
G01*
X45795000Y-67650000D01*
G75*
G02*
X45945000Y-67500000I150000J0D01*
G01*
G37*
G04 #@! TD.AperFunction*
G04 #@! TA.AperFunction,SMDPad,CuDef*
G36*
G01*
X45945000Y-62550000D02*
X46245000Y-62550000D01*
G75*
G02*
X46395000Y-62700000I0J-150000D01*
G01*
X46395000Y-64350000D01*
G75*
G02*
X46245000Y-64500000I-150000J0D01*
G01*
X45945000Y-64500000D01*
G75*
G02*
X45795000Y-64350000I0J150000D01*
G01*
X45795000Y-62700000D01*
G75*
G02*
X45945000Y-62550000I150000J0D01*
G01*
G37*
G04 #@! TD.AperFunction*
G04 #@! TA.AperFunction,SMDPad,CuDef*
G36*
G01*
X47215000Y-62550000D02*
X47515000Y-62550000D01*
G75*
G02*
X47665000Y-62700000I0J-150000D01*
G01*
X47665000Y-64350000D01*
G75*
G02*
X47515000Y-64500000I-150000J0D01*
G01*
X47215000Y-64500000D01*
G75*
G02*
X47065000Y-64350000I0J150000D01*
G01*
X47065000Y-62700000D01*
G75*
G02*
X47215000Y-62550000I150000J0D01*
G01*
G37*
G04 #@! TD.AperFunction*
G04 #@! TA.AperFunction,SMDPad,CuDef*
G36*
G01*
X48485000Y-62550000D02*
X48785000Y-62550000D01*
G75*
G02*
X48935000Y-62700000I0J-150000D01*
G01*
X48935000Y-64350000D01*
G75*
G02*
X48785000Y-64500000I-150000J0D01*
G01*
X48485000Y-64500000D01*
G75*
G02*
X48335000Y-64350000I0J150000D01*
G01*
X48335000Y-62700000D01*
G75*
G02*
X48485000Y-62550000I150000J0D01*
G01*
G37*
G04 #@! TD.AperFunction*
G04 #@! TA.AperFunction,SMDPad,CuDef*
G36*
G01*
X49755000Y-62550000D02*
X50055000Y-62550000D01*
G75*
G02*
X50205000Y-62700000I0J-150000D01*
G01*
X50205000Y-64350000D01*
G75*
G02*
X50055000Y-64500000I-150000J0D01*
G01*
X49755000Y-64500000D01*
G75*
G02*
X49605000Y-64350000I0J150000D01*
G01*
X49605000Y-62700000D01*
G75*
G02*
X49755000Y-62550000I150000J0D01*
G01*
G37*
G04 #@! TD.AperFunction*
D12*
X84000000Y-81500000D03*
G04 #@! TA.AperFunction,ComponentPad*
G36*
G01*
X83250000Y-78150000D02*
X84750000Y-78150000D01*
G75*
G02*
X85000000Y-78400000I0J-250000D01*
G01*
X85000000Y-79600000D01*
G75*
G02*
X84750000Y-79850000I-250000J0D01*
G01*
X83250000Y-79850000D01*
G75*
G02*
X83000000Y-79600000I0J250000D01*
G01*
X83000000Y-78400000D01*
G75*
G02*
X83250000Y-78150000I250000J0D01*
G01*
G37*
G04 #@! TD.AperFunction*
X91500000Y-81500000D03*
G04 #@! TA.AperFunction,ComponentPad*
G36*
G01*
X90750000Y-78150000D02*
X92250000Y-78150000D01*
G75*
G02*
X92500000Y-78400000I0J-250000D01*
G01*
X92500000Y-79600000D01*
G75*
G02*
X92250000Y-79850000I-250000J0D01*
G01*
X90750000Y-79850000D01*
G75*
G02*
X90500000Y-79600000I0J250000D01*
G01*
X90500000Y-78400000D01*
G75*
G02*
X90750000Y-78150000I250000J0D01*
G01*
G37*
G04 #@! TD.AperFunction*
D23*
X50000000Y-54500000D03*
X52500000Y-54500000D03*
X55000000Y-54500000D03*
X57500000Y-54500000D03*
X60000000Y-54500000D03*
G04 #@! TA.AperFunction,ComponentPad*
G36*
G01*
X63350000Y-53775000D02*
X63350000Y-55225000D01*
G75*
G02*
X63100000Y-55475000I-250000J0D01*
G01*
X61900000Y-55475000D01*
G75*
G02*
X61650000Y-55225000I0J250000D01*
G01*
X61650000Y-53775000D01*
G75*
G02*
X61900000Y-53525000I250000J0D01*
G01*
X63100000Y-53525000D01*
G75*
G02*
X63350000Y-53775000I0J-250000D01*
G01*
G37*
G04 #@! TD.AperFunction*
D16*
X100500000Y-42000000D03*
X100500000Y-47000000D03*
D23*
X101500000Y-18000000D03*
X99000000Y-18000000D03*
X96500000Y-18000000D03*
G04 #@! TA.AperFunction,ComponentPad*
G36*
G01*
X93150000Y-18725000D02*
X93150000Y-17275000D01*
G75*
G02*
X93400000Y-17025000I250000J0D01*
G01*
X94600000Y-17025000D01*
G75*
G02*
X94850000Y-17275000I0J-250000D01*
G01*
X94850000Y-18725000D01*
G75*
G02*
X94600000Y-18975000I-250000J0D01*
G01*
X93400000Y-18975000D01*
G75*
G02*
X93150000Y-18725000I0J250000D01*
G01*
G37*
G04 #@! TD.AperFunction*
D16*
X100500000Y-55000000D03*
X100500000Y-60000000D03*
X100500000Y-68000000D03*
X100500000Y-73000000D03*
X27500000Y-19500000D03*
X32500000Y-19500000D03*
D24*
X19500000Y-40795000D03*
X19500000Y-31205000D03*
X19500000Y-24445000D03*
X19500000Y-47555000D03*
D25*
X78250000Y-72900000D03*
X78250000Y-70100000D03*
D26*
X78250000Y-63350000D03*
X78250000Y-66650000D03*
D27*
X78000000Y-60000000D03*
X74700000Y-60000000D03*
D12*
X61000000Y-78500000D03*
G04 #@! TA.AperFunction,ComponentPad*
G36*
G01*
X61750000Y-81850000D02*
X60250000Y-81850000D01*
G75*
G02*
X60000000Y-81600000I0J250000D01*
G01*
X60000000Y-80400000D01*
G75*
G02*
X60250000Y-80150000I250000J0D01*
G01*
X61750000Y-80150000D01*
G75*
G02*
X62000000Y-80400000I0J-250000D01*
G01*
X62000000Y-81600000D01*
G75*
G02*
X61750000Y-81850000I-250000J0D01*
G01*
G37*
G04 #@! TD.AperFunction*
X54000000Y-78500000D03*
G04 #@! TA.AperFunction,ComponentPad*
G36*
G01*
X54750000Y-81850000D02*
X53250000Y-81850000D01*
G75*
G02*
X53000000Y-81600000I0J250000D01*
G01*
X53000000Y-80400000D01*
G75*
G02*
X53250000Y-80150000I250000J0D01*
G01*
X54750000Y-80150000D01*
G75*
G02*
X55000000Y-80400000I0J-250000D01*
G01*
X55000000Y-81600000D01*
G75*
G02*
X54750000Y-81850000I-250000J0D01*
G01*
G37*
G04 #@! TD.AperFunction*
X47000000Y-73500000D03*
G04 #@! TA.AperFunction,ComponentPad*
G36*
G01*
X47750000Y-76850000D02*
X46250000Y-76850000D01*
G75*
G02*
X46000000Y-76600000I0J250000D01*
G01*
X46000000Y-75400000D01*
G75*
G02*
X46250000Y-75150000I250000J0D01*
G01*
X47750000Y-75150000D01*
G75*
G02*
X48000000Y-75400000I0J-250000D01*
G01*
X48000000Y-76600000D01*
G75*
G02*
X47750000Y-76850000I-250000J0D01*
G01*
G37*
G04 #@! TD.AperFunction*
X40000000Y-66500000D03*
G04 #@! TA.AperFunction,ComponentPad*
G36*
G01*
X40750000Y-69850000D02*
X39250000Y-69850000D01*
G75*
G02*
X39000000Y-69600000I0J250000D01*
G01*
X39000000Y-68400000D01*
G75*
G02*
X39250000Y-68150000I250000J0D01*
G01*
X40750000Y-68150000D01*
G75*
G02*
X41000000Y-68400000I0J-250000D01*
G01*
X41000000Y-69600000D01*
G75*
G02*
X40750000Y-69850000I-250000J0D01*
G01*
G37*
G04 #@! TD.AperFunction*
X33000000Y-59500000D03*
G04 #@! TA.AperFunction,ComponentPad*
G36*
G01*
X33750000Y-62850000D02*
X32250000Y-62850000D01*
G75*
G02*
X32000000Y-62600000I0J250000D01*
G01*
X32000000Y-61400000D01*
G75*
G02*
X32250000Y-61150000I250000J0D01*
G01*
X33750000Y-61150000D01*
G75*
G02*
X34000000Y-61400000I0J-250000D01*
G01*
X34000000Y-62600000D01*
G75*
G02*
X33750000Y-62850000I-250000J0D01*
G01*
G37*
G04 #@! TD.AperFunction*
X26000000Y-52500000D03*
G04 #@! TA.AperFunction,ComponentPad*
G36*
G01*
X26750000Y-55850000D02*
X25250000Y-55850000D01*
G75*
G02*
X25000000Y-55600000I0J250000D01*
G01*
X25000000Y-54400000D01*
G75*
G02*
X25250000Y-54150000I250000J0D01*
G01*
X26750000Y-54150000D01*
G75*
G02*
X27000000Y-54400000I0J-250000D01*
G01*
X27000000Y-55600000D01*
G75*
G02*
X26750000Y-55850000I-250000J0D01*
G01*
G37*
G04 #@! TD.AperFunction*
D19*
X85000000Y-66500000D03*
D28*
X82500000Y-66500000D03*
G04 #@! TA.AperFunction,SMDPad,CuDef*
G36*
G01*
X68875000Y-61100001D02*
X68875000Y-58899999D01*
G75*
G02*
X69124999Y-58650000I249999J0D01*
G01*
X69775001Y-58650000D01*
G75*
G02*
X70025000Y-58899999I0J-249999D01*
G01*
X70025000Y-61100001D01*
G75*
G02*
X69775001Y-61350000I-249999J0D01*
G01*
X69124999Y-61350000D01*
G75*
G02*
X68875000Y-61100001I0J249999D01*
G01*
G37*
G04 #@! TD.AperFunction*
G04 #@! TA.AperFunction,SMDPad,CuDef*
G36*
G01*
X65925000Y-61100001D02*
X65925000Y-58899999D01*
G75*
G02*
X66174999Y-58650000I249999J0D01*
G01*
X66825001Y-58650000D01*
G75*
G02*
X67075000Y-58899999I0J-249999D01*
G01*
X67075000Y-61100001D01*
G75*
G02*
X66825001Y-61350000I-249999J0D01*
G01*
X66174999Y-61350000D01*
G75*
G02*
X65925000Y-61100001I0J249999D01*
G01*
G37*
G04 #@! TD.AperFunction*
G04 #@! TA.AperFunction,SMDPad,CuDef*
G36*
G01*
X62950000Y-60975000D02*
X62950000Y-60025000D01*
G75*
G02*
X63200000Y-59775000I250000J0D01*
G01*
X63700000Y-59775000D01*
G75*
G02*
X63950000Y-60025000I0J-250000D01*
G01*
X63950000Y-60975000D01*
G75*
G02*
X63700000Y-61225000I-250000J0D01*
G01*
X63200000Y-61225000D01*
G75*
G02*
X62950000Y-60975000I0J250000D01*
G01*
G37*
G04 #@! TD.AperFunction*
G04 #@! TA.AperFunction,SMDPad,CuDef*
G36*
G01*
X61050000Y-60975000D02*
X61050000Y-60025000D01*
G75*
G02*
X61300000Y-59775000I250000J0D01*
G01*
X61800000Y-59775000D01*
G75*
G02*
X62050000Y-60025000I0J-250000D01*
G01*
X62050000Y-60975000D01*
G75*
G02*
X61800000Y-61225000I-250000J0D01*
G01*
X61300000Y-61225000D01*
G75*
G02*
X61050000Y-60975000I0J250000D01*
G01*
G37*
G04 #@! TD.AperFunction*
G04 #@! TA.AperFunction,SMDPad,CuDef*
G36*
G01*
X35525000Y-30000000D02*
X36475000Y-30000000D01*
G75*
G02*
X36725000Y-30250000I0J-250000D01*
G01*
X36725000Y-30750000D01*
G75*
G02*
X36475000Y-31000000I-250000J0D01*
G01*
X35525000Y-31000000D01*
G75*
G02*
X35275000Y-30750000I0J250000D01*
G01*
X35275000Y-30250000D01*
G75*
G02*
X35525000Y-30000000I250000J0D01*
G01*
G37*
G04 #@! TD.AperFunction*
G04 #@! TA.AperFunction,SMDPad,CuDef*
G36*
G01*
X35525000Y-28100000D02*
X36475000Y-28100000D01*
G75*
G02*
X36725000Y-28350000I0J-250000D01*
G01*
X36725000Y-28850000D01*
G75*
G02*
X36475000Y-29100000I-250000J0D01*
G01*
X35525000Y-29100000D01*
G75*
G02*
X35275000Y-28850000I0J250000D01*
G01*
X35275000Y-28350000D01*
G75*
G02*
X35525000Y-28100000I250000J0D01*
G01*
G37*
G04 #@! TD.AperFunction*
G04 #@! TA.AperFunction,SMDPad,CuDef*
G36*
G01*
X90025000Y-40900000D02*
X90975000Y-40900000D01*
G75*
G02*
X91225000Y-41150000I0J-250000D01*
G01*
X91225000Y-41650000D01*
G75*
G02*
X90975000Y-41900000I-250000J0D01*
G01*
X90025000Y-41900000D01*
G75*
G02*
X89775000Y-41650000I0J250000D01*
G01*
X89775000Y-41150000D01*
G75*
G02*
X90025000Y-40900000I250000J0D01*
G01*
G37*
G04 #@! TD.AperFunction*
G04 #@! TA.AperFunction,SMDPad,CuDef*
G36*
G01*
X90025000Y-39000000D02*
X90975000Y-39000000D01*
G75*
G02*
X91225000Y-39250000I0J-250000D01*
G01*
X91225000Y-39750000D01*
G75*
G02*
X90975000Y-40000000I-250000J0D01*
G01*
X90025000Y-40000000D01*
G75*
G02*
X89775000Y-39750000I0J250000D01*
G01*
X89775000Y-39250000D01*
G75*
G02*
X90025000Y-39000000I250000J0D01*
G01*
G37*
G04 #@! TD.AperFunction*
G04 #@! TA.AperFunction,SMDPad,CuDef*
G36*
G01*
X38450000Y-34975000D02*
X38450000Y-34025000D01*
G75*
G02*
X38700000Y-33775000I250000J0D01*
G01*
X39200000Y-33775000D01*
G75*
G02*
X39450000Y-34025000I0J-250000D01*
G01*
X39450000Y-34975000D01*
G75*
G02*
X39200000Y-35225000I-250000J0D01*
G01*
X38700000Y-35225000D01*
G75*
G02*
X38450000Y-34975000I0J250000D01*
G01*
G37*
G04 #@! TD.AperFunction*
G04 #@! TA.AperFunction,SMDPad,CuDef*
G36*
G01*
X36550000Y-34975000D02*
X36550000Y-34025000D01*
G75*
G02*
X36800000Y-33775000I250000J0D01*
G01*
X37300000Y-33775000D01*
G75*
G02*
X37550000Y-34025000I0J-250000D01*
G01*
X37550000Y-34975000D01*
G75*
G02*
X37300000Y-35225000I-250000J0D01*
G01*
X36800000Y-35225000D01*
G75*
G02*
X36550000Y-34975000I0J250000D01*
G01*
G37*
G04 #@! TD.AperFunction*
G04 #@! TA.AperFunction,SMDPad,CuDef*
G36*
G01*
X32875000Y-31100001D02*
X32875000Y-28899999D01*
G75*
G02*
X33124999Y-28650000I249999J0D01*
G01*
X33775001Y-28650000D01*
G75*
G02*
X34025000Y-28899999I0J-249999D01*
G01*
X34025000Y-31100001D01*
G75*
G02*
X33775001Y-31350000I-249999J0D01*
G01*
X33124999Y-31350000D01*
G75*
G02*
X32875000Y-31100001I0J249999D01*
G01*
G37*
G04 #@! TD.AperFunction*
G04 #@! TA.AperFunction,SMDPad,CuDef*
G36*
G01*
X29925000Y-31100001D02*
X29925000Y-28899999D01*
G75*
G02*
X30174999Y-28650000I249999J0D01*
G01*
X30825001Y-28650000D01*
G75*
G02*
X31075000Y-28899999I0J-249999D01*
G01*
X31075000Y-31100001D01*
G75*
G02*
X30825001Y-31350000I-249999J0D01*
G01*
X30174999Y-31350000D01*
G75*
G02*
X29925000Y-31100001I0J249999D01*
G01*
G37*
G04 #@! TD.AperFunction*
G04 #@! TA.AperFunction,SMDPad,CuDef*
G36*
G01*
X103000000Y-24475000D02*
X103000000Y-23525000D01*
G75*
G02*
X103250000Y-23275000I250000J0D01*
G01*
X103750000Y-23275000D01*
G75*
G02*
X104000000Y-23525000I0J-250000D01*
G01*
X104000000Y-24475000D01*
G75*
G02*
X103750000Y-24725000I-250000J0D01*
G01*
X103250000Y-24725000D01*
G75*
G02*
X103000000Y-24475000I0J250000D01*
G01*
G37*
G04 #@! TD.AperFunction*
G04 #@! TA.AperFunction,SMDPad,CuDef*
G36*
G01*
X101100000Y-24475000D02*
X101100000Y-23525000D01*
G75*
G02*
X101350000Y-23275000I250000J0D01*
G01*
X101850000Y-23275000D01*
G75*
G02*
X102100000Y-23525000I0J-250000D01*
G01*
X102100000Y-24475000D01*
G75*
G02*
X101850000Y-24725000I-250000J0D01*
G01*
X101350000Y-24725000D01*
G75*
G02*
X101100000Y-24475000I0J250000D01*
G01*
G37*
G04 #@! TD.AperFunction*
D29*
X40500000Y-34500000D03*
X35771500Y-34500000D03*
X92000000Y-72000000D03*
X63500000Y-59000000D03*
X71000000Y-60000000D03*
X54500000Y-65500000D03*
X57000000Y-65500000D03*
X50000000Y-65500000D03*
X47999664Y-60499664D03*
X86500000Y-72500000D03*
X86500000Y-73500000D03*
X86500000Y-71500000D03*
X71000000Y-61000000D03*
X71000000Y-59000000D03*
X62500000Y-59000000D03*
X92000000Y-68500000D03*
X74000000Y-55500000D03*
X74000000Y-54500000D03*
X74000000Y-53500000D03*
X39017244Y-30279500D03*
X23500000Y-31500000D03*
X36000000Y-27500000D03*
X84500000Y-46500000D03*
X54552779Y-42947221D03*
X50500000Y-47000000D03*
X57000000Y-28000000D03*
X91500000Y-42500000D03*
X103500000Y-38000000D03*
X93000000Y-35500000D03*
X48500000Y-65500000D03*
X47000000Y-66500000D03*
X55500000Y-70500000D03*
X58500000Y-70500000D03*
X38500000Y-24500000D03*
X38000000Y-25500000D03*
X34500000Y-42000000D03*
X32000000Y-40000000D03*
X32000000Y-42000000D03*
X29500000Y-42000000D03*
X29500000Y-40000000D03*
X27000000Y-40000000D03*
X27000000Y-42000000D03*
X25000000Y-42000000D03*
X25000000Y-46000000D03*
X27000000Y-46000000D03*
X29500000Y-46000000D03*
X34500000Y-46000000D03*
X32000000Y-46000000D03*
X32000000Y-44000000D03*
X29500000Y-44000000D03*
X27000000Y-44000000D03*
X27000000Y-48000000D03*
X29500000Y-48000000D03*
X32000000Y-48000000D03*
X25000000Y-44000000D03*
X34500000Y-44000000D03*
X34500000Y-48000000D03*
X25000000Y-48000000D03*
X25000000Y-40000000D03*
X34500000Y-40000000D03*
X48500000Y-59000000D03*
X45000000Y-59500000D03*
X58500000Y-59000000D03*
X71000000Y-51000000D03*
X39000000Y-23500000D03*
X52052780Y-40447220D03*
X90500000Y-61500000D03*
X52000000Y-44000000D03*
X42000000Y-43000000D03*
X43500000Y-43000000D03*
X45000000Y-43000000D03*
X46500000Y-43000000D03*
X46500000Y-44500000D03*
X45000000Y-44500000D03*
X45000000Y-46000000D03*
X46500000Y-46000000D03*
X43500000Y-46000000D03*
X43500000Y-44500000D03*
X42000000Y-44500000D03*
X42000000Y-46000000D03*
X40500000Y-46000000D03*
X40500000Y-44500000D03*
X42000000Y-41500000D03*
X43500000Y-41500000D03*
X45000000Y-41500000D03*
X46500000Y-41500000D03*
X40500000Y-47500000D03*
X40500000Y-49000000D03*
X42000000Y-49000000D03*
X42000000Y-47500000D03*
X43500000Y-47500000D03*
X43500000Y-49000000D03*
X45000000Y-49000000D03*
X45000000Y-47500000D03*
X46500000Y-47500000D03*
X46500000Y-49000000D03*
D30*
X95825000Y-19825000D02*
X94000000Y-18000000D01*
X95825000Y-26350000D02*
X95825000Y-19825000D01*
X95825000Y-26350000D02*
X95825000Y-27375000D01*
X103500000Y-26795000D02*
X103445000Y-26850000D01*
X103500000Y-24000000D02*
X103500000Y-26795000D01*
X103445000Y-28445000D02*
X103445000Y-26850000D01*
X102890000Y-29000000D02*
X103445000Y-28445000D01*
X96500000Y-29000000D02*
X102890000Y-29000000D01*
X95825000Y-26850000D02*
X95825000Y-28325000D01*
X95825000Y-28325000D02*
X96500000Y-29000000D01*
X100905000Y-24695000D02*
X100905000Y-26850000D01*
X101600000Y-24000000D02*
X100905000Y-24695000D01*
X101600000Y-18100000D02*
X101500000Y-18000000D01*
X101600000Y-24000000D02*
X101600000Y-18100000D01*
X32265000Y-34775000D02*
X32265000Y-33235000D01*
X33450000Y-32050000D02*
X33450000Y-30000000D01*
X32265000Y-33235000D02*
X33450000Y-32050000D01*
X33450000Y-30000000D02*
X33450000Y-28050000D01*
X29125000Y-28050000D02*
X28000000Y-29175000D01*
X33450000Y-28050000D02*
X29125000Y-28050000D01*
X42000000Y-19170218D02*
X42000000Y-18500000D01*
X33450000Y-27720218D02*
X42000000Y-19170218D01*
X33450000Y-28050000D02*
X33450000Y-27720218D01*
X28000000Y-31000000D02*
X29000000Y-31000000D01*
X29000000Y-31000000D02*
X30000000Y-31000000D01*
X30500000Y-30000000D02*
X30500000Y-31000000D01*
X30500000Y-31000000D02*
X28000000Y-31000000D01*
X27185000Y-31815000D02*
X28000000Y-31000000D01*
X27185000Y-34775000D02*
X27185000Y-31815000D01*
D31*
X40000000Y-33450000D02*
X40000000Y-31700000D01*
X38950000Y-34500000D02*
X40000000Y-33450000D01*
D30*
X40500000Y-37675000D02*
X40175000Y-37675000D01*
X38950000Y-36450000D02*
X38950000Y-34500000D01*
X40175000Y-37675000D02*
X38950000Y-36450000D01*
X37000000Y-34550000D02*
X37050000Y-34500000D01*
X37000000Y-37675000D02*
X37000000Y-34550000D01*
D31*
X37050000Y-34500000D02*
X36000000Y-34500000D01*
X40500000Y-34500000D02*
X40500000Y-31700000D01*
X37050000Y-34500000D02*
X35771500Y-34500000D01*
D30*
X91800000Y-71800000D02*
X92000000Y-72000000D01*
X90750000Y-71800000D02*
X91800000Y-71800000D01*
D32*
X63450000Y-59050000D02*
X63500000Y-59000000D01*
X63450000Y-60500000D02*
X63450000Y-59050000D01*
X69450000Y-60000000D02*
X71000000Y-60000000D01*
D30*
X54365000Y-65365000D02*
X54500000Y-65500000D01*
X54365000Y-63525000D02*
X54365000Y-65365000D01*
X56905000Y-65405000D02*
X57000000Y-65500000D01*
X56905000Y-63525000D02*
X56905000Y-65405000D01*
X49905000Y-65405000D02*
X50000000Y-65500000D01*
X49905000Y-63525000D02*
X49905000Y-65405000D01*
X47665000Y-60834328D02*
X47999664Y-60499664D01*
X47665000Y-63225000D02*
X47665000Y-60834328D01*
X47365000Y-63525000D02*
X47665000Y-63225000D01*
D32*
X84975000Y-72500000D02*
X84975000Y-73475000D01*
X85000000Y-73500000D02*
X86500000Y-73500000D01*
X84975000Y-73475000D02*
X85000000Y-73500000D01*
X86500000Y-73500000D02*
X86500000Y-72500000D01*
X86500000Y-72500000D02*
X84975000Y-72500000D01*
X86500000Y-72500000D02*
X86500000Y-71500000D01*
X84975000Y-72500000D02*
X84975000Y-71525000D01*
X85000000Y-71500000D02*
X86500000Y-71500000D01*
X84975000Y-71525000D02*
X85000000Y-71500000D01*
X71000000Y-60000000D02*
X71000000Y-61000000D01*
X71000000Y-60000000D02*
X71000000Y-59000000D01*
X69450000Y-60000000D02*
X69450000Y-60950000D01*
X69500000Y-61000000D02*
X71000000Y-61000000D01*
X69450000Y-60950000D02*
X69500000Y-61000000D01*
X69450000Y-60000000D02*
X69450000Y-59050000D01*
X69500000Y-59000000D02*
X71000000Y-59000000D01*
X69450000Y-59050000D02*
X69500000Y-59000000D01*
X63450000Y-59950000D02*
X62500000Y-59000000D01*
X63450000Y-60500000D02*
X63450000Y-59950000D01*
X63500000Y-59000000D02*
X62500000Y-59000000D01*
D30*
X91750000Y-68250000D02*
X92000000Y-68500000D01*
X90575000Y-68250000D02*
X91750000Y-68250000D01*
D32*
X75175000Y-55375000D02*
X75050000Y-55500000D01*
X75175000Y-53500000D02*
X75175000Y-55375000D01*
X75050000Y-55500000D02*
X74000000Y-55500000D01*
X74000000Y-55500000D02*
X74000000Y-54500000D01*
X74000000Y-54500000D02*
X74000000Y-53500000D01*
X75175000Y-53500000D02*
X74000000Y-53500000D01*
D31*
X39000000Y-30296744D02*
X39017244Y-30279500D01*
X39000000Y-31700000D02*
X39000000Y-30296744D01*
D30*
X24000000Y-31000000D02*
X23500000Y-31500000D01*
X25500000Y-31000000D02*
X24000000Y-31000000D01*
X36000000Y-28600000D02*
X36000000Y-27500000D01*
X85500000Y-46550000D02*
X84550000Y-46550000D01*
X53605558Y-42000000D02*
X54552779Y-42947221D01*
X53500000Y-42000000D02*
X53605558Y-42000000D01*
X50500000Y-45825000D02*
X50500000Y-47000000D01*
X49325000Y-27000000D02*
X49325000Y-29500000D01*
X56000000Y-27000000D02*
X57000000Y-28000000D01*
X49325000Y-27000000D02*
X56000000Y-27000000D01*
D32*
X90500000Y-41500000D02*
X91500000Y-42500000D01*
X90500000Y-41400000D02*
X90500000Y-41500000D01*
D30*
X103445000Y-37945000D02*
X103500000Y-38000000D01*
X103445000Y-36150000D02*
X103445000Y-37945000D01*
X93650000Y-36150000D02*
X93000000Y-35500000D01*
X94555000Y-36150000D02*
X93650000Y-36150000D01*
D31*
X36000000Y-31400000D02*
X36300000Y-31700000D01*
X36000000Y-30500000D02*
X36000000Y-31400000D01*
X38500000Y-31700000D02*
X36300000Y-31700000D01*
D32*
X75200000Y-36120000D02*
X75200000Y-30700000D01*
X74175000Y-29675000D02*
X72500000Y-29675000D01*
X75200000Y-30700000D02*
X74175000Y-29675000D01*
X69500000Y-29675000D02*
X72500000Y-29675000D01*
X69500000Y-29675000D02*
X66500000Y-29675000D01*
X75200000Y-30650000D02*
X76175000Y-29675000D01*
X75200000Y-36120000D02*
X75200000Y-30650000D01*
X74175000Y-29675000D02*
X76175000Y-29675000D01*
X66500000Y-29675000D02*
X56825000Y-29675000D01*
X56825000Y-29675000D02*
X55000000Y-31500000D01*
X43675000Y-30200000D02*
X43675000Y-29500000D01*
X44975000Y-31500000D02*
X43675000Y-30200000D01*
X55000000Y-31500000D02*
X44975000Y-31500000D01*
X43675000Y-29500000D02*
X43000000Y-29500000D01*
X43000000Y-29500000D02*
X42500000Y-29000000D01*
X36903082Y-30500000D02*
X36000000Y-30500000D01*
X38403083Y-28999999D02*
X36903082Y-30500000D01*
X42500000Y-29000000D02*
X38403083Y-28999999D01*
X43675000Y-29500000D02*
X43675000Y-27000000D01*
X43675000Y-27825000D02*
X42500000Y-29000000D01*
X43675000Y-27000000D02*
X43675000Y-27825000D01*
X44975000Y-31475000D02*
X42500000Y-29000000D01*
X44975000Y-31500000D02*
X44975000Y-31475000D01*
X50500000Y-40175000D02*
X47675000Y-40175000D01*
X44975000Y-37475000D02*
X44975000Y-31500000D01*
X47675000Y-40175000D02*
X44975000Y-37475000D01*
X50500000Y-40175000D02*
X50500000Y-40000000D01*
X56250000Y-38750000D02*
X57000000Y-39500000D01*
X51750000Y-38750000D02*
X56250000Y-38750000D01*
X50500000Y-40000000D02*
X51750000Y-38750000D01*
X57000000Y-39500000D02*
X59500000Y-42000000D01*
D30*
X100905000Y-37095000D02*
X100905000Y-36150000D01*
X98500000Y-39500000D02*
X100905000Y-37095000D01*
X90500000Y-39500000D02*
X98500000Y-39500000D01*
D32*
X90500000Y-38196998D02*
X90500000Y-39500000D01*
X81978002Y-29675000D02*
X90500000Y-38196998D01*
X76175000Y-29675000D02*
X81978002Y-29675000D01*
X57000000Y-72175000D02*
X66325000Y-72175000D01*
X67040000Y-71460000D02*
X67040000Y-65500000D01*
X66325000Y-72175000D02*
X67040000Y-71460000D01*
X57000000Y-72175000D02*
X53500000Y-72175000D01*
X53500000Y-72175000D02*
X51175000Y-72175000D01*
X51175000Y-72175000D02*
X50000000Y-71000000D01*
X50000000Y-71000000D02*
X45500000Y-71000000D01*
X45500000Y-71000000D02*
X44500000Y-70000000D01*
X43421938Y-60500000D02*
X43000000Y-60500000D01*
X44535010Y-63036928D02*
X44535010Y-61613072D01*
X44535010Y-61613072D02*
X43421938Y-60500000D01*
X44500000Y-63071938D02*
X44535010Y-63036928D01*
X44500000Y-70000000D02*
X44500000Y-63071938D01*
X43000000Y-60500000D02*
X39500000Y-60500000D01*
X83250000Y-61500000D02*
X85000000Y-59750000D01*
X74900000Y-61500000D02*
X83250000Y-61500000D01*
X74700000Y-61300000D02*
X74900000Y-61500000D01*
X74700000Y-60000000D02*
X74700000Y-61300000D01*
X74700000Y-61300000D02*
X73000000Y-63000000D01*
X73000000Y-63000000D02*
X68000000Y-63000000D01*
X67040000Y-63960000D02*
X67040000Y-65500000D01*
X68000000Y-63000000D02*
X67040000Y-63960000D01*
X87500000Y-57250000D02*
X87500000Y-47500000D01*
X85000000Y-59750000D02*
X87500000Y-57250000D01*
X87500000Y-47500000D02*
X87500000Y-47000000D01*
X88760010Y-45739990D02*
X88760010Y-43100572D01*
X87500000Y-47000000D02*
X88760010Y-45739990D01*
X87500000Y-41840562D02*
X87500000Y-40500000D01*
X88760010Y-43100572D02*
X87500000Y-41840562D01*
X87500000Y-40500000D02*
X87500000Y-38000000D01*
X87500000Y-37596998D02*
X87500000Y-40500000D01*
X85453002Y-35550000D02*
X87500000Y-37596998D01*
X85000000Y-35550000D02*
X85453002Y-35550000D01*
X91500000Y-79000000D02*
X84000000Y-79000000D01*
X84000000Y-79000000D02*
X83500000Y-79000000D01*
X82025000Y-77525000D02*
X82025000Y-72500000D01*
X83500000Y-79000000D02*
X82025000Y-77525000D01*
X82025000Y-72500000D02*
X82025000Y-71025000D01*
X81100000Y-70100000D02*
X78250000Y-70100000D01*
X82500000Y-66500000D02*
X82500000Y-68000000D01*
X82500000Y-68000000D02*
X82025000Y-68475000D01*
X78375000Y-69975000D02*
X78250000Y-70100000D01*
X82025000Y-68475000D02*
X82025000Y-69975000D01*
X82025000Y-69975000D02*
X82025000Y-72500000D01*
X82025000Y-71025000D02*
X81100000Y-70100000D01*
X82025000Y-69175000D02*
X81100000Y-70100000D01*
X82025000Y-68475000D02*
X82025000Y-69175000D01*
X72900000Y-70100000D02*
X72500000Y-70500000D01*
X78250000Y-69450000D02*
X77600000Y-70100000D01*
X78250000Y-68750000D02*
X78250000Y-69450000D01*
X77600000Y-70100000D02*
X72900000Y-70100000D01*
X78250000Y-70100000D02*
X77600000Y-70100000D01*
X78250000Y-66650000D02*
X78250000Y-68750000D01*
X78250000Y-68750000D02*
X78250000Y-70100000D01*
X78250000Y-69200000D02*
X79025000Y-69975000D01*
X78250000Y-68750000D02*
X78250000Y-69200000D01*
X79025000Y-69975000D02*
X78375000Y-69975000D01*
X82025000Y-69975000D02*
X79025000Y-69975000D01*
D30*
X32500000Y-55325000D02*
X31325000Y-55325000D01*
X28500000Y-52500000D02*
X26000000Y-52500000D01*
X31325000Y-55325000D02*
X28500000Y-52500000D01*
X33000000Y-57000000D02*
X33000000Y-59500000D01*
X34675000Y-55325000D02*
X33000000Y-57000000D01*
X36000000Y-55325000D02*
X34675000Y-55325000D01*
X40000000Y-65000000D02*
X40000000Y-66500000D01*
X39500000Y-64500000D02*
X40000000Y-65000000D01*
X39500000Y-62325000D02*
X39500000Y-64500000D01*
X49905000Y-66905000D02*
X48500000Y-65500000D01*
X49905000Y-68475000D02*
X49905000Y-66905000D01*
X49905000Y-69595000D02*
X49905000Y-68475000D01*
X49589010Y-69910990D02*
X49905000Y-69595000D01*
X48635000Y-69635000D02*
X48910990Y-69910990D01*
X48635000Y-68475000D02*
X48635000Y-69635000D01*
X48910990Y-69910990D02*
X49589010Y-69910990D01*
X47000000Y-73500000D02*
X45000000Y-73500000D01*
X43000000Y-71500000D02*
X43000000Y-68500000D01*
X45000000Y-73500000D02*
X43000000Y-71500000D01*
X43000000Y-62325000D02*
X43000000Y-68500000D01*
X47365000Y-66865000D02*
X47000000Y-66500000D01*
X47365000Y-68475000D02*
X47365000Y-66865000D01*
X47365000Y-69545990D02*
X47000000Y-69910990D01*
X47365000Y-68475000D02*
X47365000Y-69545990D01*
X46410990Y-69910990D02*
X46095000Y-69595000D01*
X47000000Y-69910990D02*
X46410990Y-69910990D01*
X46095000Y-68475000D02*
X46095000Y-69595000D01*
X53500000Y-74000000D02*
X53500000Y-75500000D01*
X54000000Y-76000000D02*
X54000000Y-78500000D01*
X53500000Y-75500000D02*
X54000000Y-76000000D01*
X56975000Y-68475000D02*
X56905000Y-68475000D01*
X56905000Y-68475000D02*
X56905000Y-70095000D01*
X56500000Y-70500000D02*
X55500000Y-70500000D01*
X56905000Y-70095000D02*
X56500000Y-70500000D01*
X55635000Y-70365000D02*
X55500000Y-70500000D01*
X55635000Y-68475000D02*
X55635000Y-70365000D01*
X58000000Y-78500000D02*
X61000000Y-78500000D01*
X57000000Y-77500000D02*
X58000000Y-78500000D01*
X57000000Y-74000000D02*
X57000000Y-77500000D01*
X54365000Y-67500000D02*
X54865000Y-67000000D01*
X54365000Y-68475000D02*
X54365000Y-67500000D01*
X58500000Y-68240800D02*
X58500000Y-70500000D01*
X57259200Y-67000000D02*
X58500000Y-68240800D01*
X54865000Y-67000000D02*
X57259200Y-67000000D01*
X53095000Y-68475000D02*
X53095000Y-69595000D01*
X53095000Y-69595000D02*
X53500000Y-70000000D01*
X53500000Y-70000000D02*
X54000000Y-70000000D01*
X54365000Y-69635000D02*
X54000000Y-70000000D01*
X54365000Y-68475000D02*
X54365000Y-69635000D01*
D32*
X78000000Y-60000000D02*
X78250000Y-60000000D01*
X76000000Y-57500000D02*
X76000000Y-58000000D01*
X78625000Y-59625000D02*
X85000000Y-53250000D01*
X78250000Y-60000000D02*
X78625000Y-59625000D01*
X78000000Y-60000000D02*
X77970010Y-60029990D01*
X77970010Y-60029990D02*
X77029990Y-60029990D01*
X76000000Y-59000000D02*
X76000000Y-57500000D01*
X77029990Y-60029990D02*
X76000000Y-59000000D01*
X84000000Y-81500000D02*
X84500000Y-81500000D01*
X91500000Y-81500000D02*
X84500000Y-81500000D01*
X91500000Y-81500000D02*
X92500000Y-81500000D01*
X92500000Y-81500000D02*
X94000000Y-80000000D01*
X94000000Y-80000000D02*
X94000000Y-78500000D01*
X94000000Y-78500000D02*
X91500000Y-76000000D01*
X91500000Y-76000000D02*
X90000000Y-76000000D01*
X88750000Y-74750000D02*
X88750000Y-72750000D01*
X90000000Y-76000000D02*
X88750000Y-74750000D01*
X85350000Y-63350000D02*
X78250000Y-63350000D01*
X86635001Y-64635001D02*
X85350000Y-63350000D01*
X86635001Y-69135001D02*
X86635001Y-64635001D01*
X88750000Y-71250000D02*
X86635001Y-69135001D01*
X88750000Y-72750000D02*
X88750000Y-71250000D01*
D30*
X99635000Y-18635000D02*
X99000000Y-18000000D01*
X99635000Y-26350000D02*
X99635000Y-18635000D01*
X98365000Y-19865000D02*
X96500000Y-18000000D01*
X98365000Y-26350000D02*
X98365000Y-19865000D01*
X49045990Y-51045990D02*
X52500000Y-54500000D01*
X34954010Y-51045990D02*
X49045990Y-51045990D01*
X32500000Y-53500000D02*
X34954010Y-51045990D01*
X55000000Y-54500000D02*
X55000000Y-56000000D01*
X40811940Y-58954010D02*
X38000000Y-56142070D01*
X44188058Y-58954010D02*
X40811940Y-58954010D01*
X45142070Y-58000000D02*
X44188058Y-58954010D01*
X53000000Y-58000000D02*
X45142070Y-58000000D01*
X55000000Y-56000000D02*
X53000000Y-58000000D01*
X38000000Y-55500000D02*
X36000000Y-53500000D01*
X38000000Y-56142070D02*
X38000000Y-55500000D01*
X63500000Y-56500000D02*
X59500000Y-56500000D01*
X64500000Y-55500000D02*
X63500000Y-56500000D01*
X64500000Y-53000000D02*
X64500000Y-55500000D01*
X62500000Y-51000000D02*
X64500000Y-53000000D01*
X59500000Y-56500000D02*
X57500000Y-54500000D01*
X62500000Y-36120000D02*
X62500000Y-51000000D01*
X60954010Y-37114010D02*
X59960000Y-36120000D01*
X60954010Y-53545990D02*
X60954010Y-37114010D01*
X60000000Y-54500000D02*
X60954010Y-53545990D01*
D31*
X39000000Y-25000000D02*
X38500000Y-24500000D01*
X39000000Y-27300000D02*
X39000000Y-25000000D01*
D30*
X80500000Y-47000000D02*
X73500000Y-47000000D01*
X72660000Y-36120000D02*
X71500000Y-37280000D01*
X71500000Y-37280000D02*
X71500000Y-47000000D01*
X71500000Y-47000000D02*
X66500000Y-47000000D01*
X73500000Y-47000000D02*
X71500000Y-47000000D01*
X72660000Y-31660000D02*
X72500000Y-31500000D01*
X72660000Y-36120000D02*
X72660000Y-31660000D01*
D31*
X38500000Y-26000000D02*
X38000000Y-25500000D01*
X38500000Y-27300000D02*
X38500000Y-26000000D01*
D30*
X80500000Y-44500000D02*
X73500000Y-44500000D01*
X70120000Y-43380000D02*
X70120000Y-36120000D01*
X69000000Y-44500000D02*
X70120000Y-43380000D01*
X66500000Y-44500000D02*
X69000000Y-44500000D01*
X70120000Y-32120000D02*
X69500000Y-31500000D01*
X70120000Y-36120000D02*
X70120000Y-32120000D01*
X46095000Y-61230000D02*
X46500000Y-60825000D01*
X46095000Y-63525000D02*
X46095000Y-61230000D01*
X48945000Y-60825000D02*
X48635000Y-61135000D01*
X50000000Y-60825000D02*
X48945000Y-60825000D01*
X48635000Y-61135000D02*
X48635000Y-63525000D01*
X37000000Y-39500000D02*
X38000000Y-40500000D01*
X38000000Y-40500000D02*
X38000000Y-42500000D01*
X38000000Y-42500000D02*
X37000000Y-42500000D01*
D31*
X36000000Y-39500000D02*
X37000000Y-39500000D01*
X35000000Y-38500000D02*
X36000000Y-39500000D01*
X35000000Y-33500000D02*
X35000000Y-38500000D01*
X35500000Y-33000000D02*
X35000000Y-33500000D01*
X39500000Y-32654000D02*
X39154000Y-33000000D01*
X39154000Y-33000000D02*
X35500000Y-33000000D01*
X39500000Y-31700000D02*
X39500000Y-32654000D01*
D30*
X53095000Y-61230000D02*
X53500000Y-60825000D01*
X53095000Y-63525000D02*
X53095000Y-61230000D01*
X55635000Y-61015000D02*
X55825000Y-60825000D01*
X55635000Y-63525000D02*
X55635000Y-61015000D01*
X57000000Y-60825000D02*
X55825000Y-60825000D01*
X77000000Y-51000000D02*
X77000000Y-53500000D01*
X77000000Y-55450000D02*
X76950000Y-55500000D01*
X77000000Y-53500000D02*
X77000000Y-55450000D01*
D32*
X80660000Y-36500000D02*
X80280000Y-36120000D01*
X83000000Y-36500000D02*
X80660000Y-36500000D01*
D30*
X85587500Y-40587500D02*
X85675000Y-40500000D01*
X85587500Y-44000000D02*
X85587500Y-40587500D01*
X85000000Y-37450000D02*
X85000000Y-38500000D01*
X85675000Y-39175000D02*
X85675000Y-40500000D01*
X85000000Y-38500000D02*
X85675000Y-39175000D01*
X88750000Y-64837500D02*
X88837500Y-64750000D01*
X88750000Y-68250000D02*
X88750000Y-64837500D01*
X90750000Y-73700000D02*
X91800000Y-73700000D01*
X91800000Y-73700000D02*
X93000000Y-72500000D01*
X93000000Y-71670218D02*
X91329782Y-70000000D01*
X93000000Y-72500000D02*
X93000000Y-71670218D01*
X91329782Y-70000000D02*
X89500000Y-70000000D01*
X88750000Y-69250000D02*
X88750000Y-68250000D01*
X89500000Y-70000000D02*
X88750000Y-69250000D01*
X39500000Y-18500000D02*
X39500000Y-20668942D01*
X39500000Y-20668942D02*
X32826952Y-27341990D01*
X28124888Y-27341990D02*
X26500000Y-28966878D01*
X32826952Y-27341990D02*
X28124888Y-27341990D01*
X25708122Y-28966878D02*
X25500000Y-29175000D01*
X26500000Y-28966878D02*
X25708122Y-28966878D01*
X48500000Y-59000000D02*
X50000000Y-59000000D01*
X45000000Y-59500000D02*
X45500000Y-59000000D01*
X45500000Y-59000000D02*
X46500000Y-59000000D01*
D31*
X41827010Y-25972990D02*
X40500000Y-27300000D01*
X44176508Y-25972990D02*
X41827010Y-25972990D01*
X44637010Y-26433492D02*
X44176508Y-25972990D01*
X44637010Y-29500000D02*
X44637010Y-26433492D01*
X45500000Y-29500000D02*
X44637010Y-29500000D01*
D30*
X47500000Y-29500000D02*
X45500000Y-29500000D01*
D31*
X40827020Y-25518980D02*
X45018980Y-25518980D01*
X40000000Y-26346000D02*
X40827020Y-25518980D01*
X40000000Y-27300000D02*
X40000000Y-26346000D01*
X45500000Y-26000000D02*
X45500000Y-27000000D01*
X45018980Y-25518980D02*
X45500000Y-26000000D01*
D30*
X45500000Y-27000000D02*
X47500000Y-27000000D01*
X58500000Y-59000000D02*
X57000000Y-59000000D01*
X65040000Y-36120000D02*
X65040000Y-38960000D01*
X64000000Y-51498724D02*
X65208010Y-52706733D01*
X64000000Y-40000000D02*
X64000000Y-51498724D01*
X65040000Y-38960000D02*
X64000000Y-40000000D01*
X65208010Y-55793267D02*
X63793267Y-57208010D01*
X65208010Y-52706733D02*
X65208010Y-55793267D01*
X53500000Y-59000000D02*
X55000000Y-59000000D01*
X56791990Y-57208010D02*
X55000000Y-59000000D01*
X63793267Y-57208010D02*
X56791990Y-57208010D01*
X71000000Y-51000000D02*
X75175000Y-51000000D01*
X83601499Y-46068719D02*
X83601499Y-47101499D01*
X84950000Y-48450000D02*
X85500000Y-48450000D01*
X83601499Y-47101499D02*
X84950000Y-48450000D01*
X84170218Y-45500000D02*
X83601499Y-46068719D01*
X87000000Y-45500000D02*
X84170218Y-45500000D01*
X87412500Y-45087500D02*
X87000000Y-45500000D01*
X87412500Y-44000000D02*
X87412500Y-45087500D01*
D31*
X39500000Y-24000000D02*
X39000000Y-23500000D01*
X39500000Y-27300000D02*
X39500000Y-24000000D01*
D30*
X67580000Y-32580000D02*
X66500000Y-31500000D01*
X67580000Y-36120000D02*
X67580000Y-32580000D01*
X59500000Y-44500000D02*
X59000000Y-44500000D01*
X54675000Y-40175000D02*
X53500000Y-40175000D01*
X59000000Y-44500000D02*
X54675000Y-40175000D01*
X52325000Y-40175000D02*
X52052780Y-40447220D01*
X53500000Y-40175000D02*
X52325000Y-40175000D01*
X90500000Y-64587500D02*
X90662500Y-64750000D01*
X90500000Y-61500000D02*
X90500000Y-64587500D01*
X50500000Y-42000000D02*
X50500000Y-44000000D01*
X50500000Y-44000000D02*
X52000000Y-44000000D01*
X75200000Y-21356906D02*
X75200000Y-20880000D01*
X92635084Y-38791990D02*
X75200000Y-21356906D01*
X98206734Y-38791990D02*
X92635084Y-38791990D01*
X99635000Y-37363724D02*
X99635000Y-36150000D01*
X98206734Y-38791990D02*
X99635000Y-37363724D01*
X77740000Y-22895630D02*
X77740000Y-20880000D01*
X92928350Y-38083980D02*
X77740000Y-22895630D01*
X97913468Y-38083980D02*
X92928350Y-38083980D01*
X98365000Y-37632448D02*
X97913468Y-38083980D01*
X98365000Y-36150000D02*
X98365000Y-37632448D01*
D32*
X61550000Y-65090000D02*
X61960000Y-65500000D01*
X61550000Y-60500000D02*
X61550000Y-65090000D01*
D30*
X39925000Y-42500000D02*
X39000000Y-42500000D01*
X38750000Y-41250000D02*
X40500000Y-39500000D01*
X38750000Y-42500000D02*
X38750000Y-41250000D01*
X39925000Y-42500000D02*
X38750000Y-42500000D01*
D31*
X30873000Y-18452069D02*
X30785225Y-18583434D01*
X30639361Y-18935581D01*
X30565000Y-19309419D01*
X30565000Y-19690581D01*
X30639361Y-20064419D01*
X30785225Y-20416566D01*
X30873000Y-20547931D01*
X30873000Y-26452990D01*
X28168548Y-26452990D01*
X28124888Y-26448690D01*
X28081228Y-26452990D01*
X28081221Y-26452990D01*
X27967213Y-26464219D01*
X27950613Y-26465854D01*
X27899780Y-26481274D01*
X27783037Y-26516687D01*
X27628597Y-26599237D01*
X27493229Y-26710331D01*
X27465394Y-26744248D01*
X26836642Y-27373000D01*
X26000000Y-27373000D01*
X25975224Y-27375440D01*
X25951399Y-27382667D01*
X25929443Y-27394403D01*
X25910197Y-27410197D01*
X25295966Y-28024428D01*
X25049998Y-28024428D01*
X24876744Y-28041492D01*
X24710148Y-28092028D01*
X24556613Y-28174095D01*
X24422038Y-28284538D01*
X24311595Y-28419113D01*
X24229528Y-28572648D01*
X24178992Y-28739244D01*
X24161928Y-28912498D01*
X24161928Y-29158466D01*
X19947394Y-33373000D01*
X15660000Y-33373000D01*
X15660000Y-22627000D01*
X20500000Y-22627000D01*
X20524776Y-22624560D01*
X20548601Y-22617333D01*
X20570557Y-22605597D01*
X20589803Y-22589803D01*
X22589803Y-20589803D01*
X22605597Y-20570557D01*
X22617333Y-20548601D01*
X22624560Y-20524776D01*
X22627000Y-20500000D01*
X22627000Y-15660000D01*
X30873000Y-15660000D01*
X30873000Y-18452069D01*
G04 #@! TA.AperFunction,Conductor*
D33*
G36*
X30873000Y-18452069D02*
G01*
X30785225Y-18583434D01*
X30639361Y-18935581D01*
X30565000Y-19309419D01*
X30565000Y-19690581D01*
X30639361Y-20064419D01*
X30785225Y-20416566D01*
X30873000Y-20547931D01*
X30873000Y-26452990D01*
X28168548Y-26452990D01*
X28124888Y-26448690D01*
X28081228Y-26452990D01*
X28081221Y-26452990D01*
X27967213Y-26464219D01*
X27950613Y-26465854D01*
X27899780Y-26481274D01*
X27783037Y-26516687D01*
X27628597Y-26599237D01*
X27493229Y-26710331D01*
X27465394Y-26744248D01*
X26836642Y-27373000D01*
X26000000Y-27373000D01*
X25975224Y-27375440D01*
X25951399Y-27382667D01*
X25929443Y-27394403D01*
X25910197Y-27410197D01*
X25295966Y-28024428D01*
X25049998Y-28024428D01*
X24876744Y-28041492D01*
X24710148Y-28092028D01*
X24556613Y-28174095D01*
X24422038Y-28284538D01*
X24311595Y-28419113D01*
X24229528Y-28572648D01*
X24178992Y-28739244D01*
X24161928Y-28912498D01*
X24161928Y-29158466D01*
X19947394Y-33373000D01*
X15660000Y-33373000D01*
X15660000Y-22627000D01*
X20500000Y-22627000D01*
X20524776Y-22624560D01*
X20548601Y-22617333D01*
X20570557Y-22605597D01*
X20589803Y-22589803D01*
X22589803Y-20589803D01*
X22605597Y-20570557D01*
X22617333Y-20548601D01*
X22624560Y-20524776D01*
X22627000Y-20500000D01*
X22627000Y-15660000D01*
X30873000Y-15660000D01*
X30873000Y-18452069D01*
G37*
G04 #@! TD.AperFunction*
D31*
X28623000Y-37373000D02*
X25500000Y-37373000D01*
X25475224Y-37375440D01*
X25451399Y-37382667D01*
X25429443Y-37394403D01*
X25410197Y-37410197D01*
X24223466Y-38596928D01*
X24200518Y-38599188D01*
X24080820Y-38635498D01*
X23970506Y-38694463D01*
X23873815Y-38773815D01*
X23794463Y-38870506D01*
X23735498Y-38980820D01*
X23699188Y-39100518D01*
X23696928Y-39123466D01*
X23410197Y-39410197D01*
X23394403Y-39429443D01*
X23382667Y-39451399D01*
X23375440Y-39475224D01*
X23373000Y-39500000D01*
X23373000Y-49373000D01*
X15660000Y-49373000D01*
X15660000Y-34627000D01*
X20500000Y-34627000D01*
X20524776Y-34624560D01*
X20548601Y-34617333D01*
X20570557Y-34605597D01*
X20589803Y-34589803D01*
X22552606Y-32627000D01*
X28623000Y-32627000D01*
X28623000Y-37373000D01*
G04 #@! TA.AperFunction,Conductor*
D33*
G36*
X28623000Y-37373000D02*
G01*
X25500000Y-37373000D01*
X25475224Y-37375440D01*
X25451399Y-37382667D01*
X25429443Y-37394403D01*
X25410197Y-37410197D01*
X24223466Y-38596928D01*
X24200518Y-38599188D01*
X24080820Y-38635498D01*
X23970506Y-38694463D01*
X23873815Y-38773815D01*
X23794463Y-38870506D01*
X23735498Y-38980820D01*
X23699188Y-39100518D01*
X23696928Y-39123466D01*
X23410197Y-39410197D01*
X23394403Y-39429443D01*
X23382667Y-39451399D01*
X23375440Y-39475224D01*
X23373000Y-39500000D01*
X23373000Y-49373000D01*
X15660000Y-49373000D01*
X15660000Y-34627000D01*
X20500000Y-34627000D01*
X20524776Y-34624560D01*
X20548601Y-34617333D01*
X20570557Y-34605597D01*
X20589803Y-34589803D01*
X22552606Y-32627000D01*
X28623000Y-32627000D01*
X28623000Y-37373000D01*
G37*
G04 #@! TD.AperFunction*
D31*
X36410197Y-41089803D02*
X36429443Y-41105597D01*
X36451399Y-41117333D01*
X36475224Y-41124560D01*
X36500000Y-41127000D01*
X37373000Y-41127000D01*
X37373000Y-49373000D01*
X24627000Y-49373000D01*
X24627000Y-40552606D01*
X26052606Y-39127000D01*
X34447394Y-39127000D01*
X36410197Y-41089803D01*
G04 #@! TA.AperFunction,Conductor*
D33*
G36*
X36410197Y-41089803D02*
G01*
X36429443Y-41105597D01*
X36451399Y-41117333D01*
X36475224Y-41124560D01*
X36500000Y-41127000D01*
X37373000Y-41127000D01*
X37373000Y-49373000D01*
X24627000Y-49373000D01*
X24627000Y-40552606D01*
X26052606Y-39127000D01*
X34447394Y-39127000D01*
X36410197Y-41089803D01*
G37*
G04 #@! TD.AperFunction*
D31*
X67373000Y-61500000D02*
X67375440Y-61524776D01*
X67382667Y-61548601D01*
X67394403Y-61570557D01*
X67410197Y-61589803D01*
X68410197Y-62589803D01*
X68429443Y-62605597D01*
X68451399Y-62617333D01*
X68475224Y-62624560D01*
X68500000Y-62627000D01*
X69373000Y-62627000D01*
X69373000Y-70500000D01*
X69375440Y-70524776D01*
X69382667Y-70548601D01*
X69394403Y-70570557D01*
X69410197Y-70589803D01*
X70910197Y-72089803D01*
X70929443Y-72105597D01*
X70951399Y-72117333D01*
X70975224Y-72124560D01*
X71000000Y-72127000D01*
X79373000Y-72127000D01*
X79373000Y-84340000D01*
X65127000Y-84340000D01*
X65127000Y-80309419D01*
X68065000Y-80309419D01*
X68065000Y-80690581D01*
X68139361Y-81064419D01*
X68285225Y-81416566D01*
X68496987Y-81733491D01*
X68766509Y-82003013D01*
X69083434Y-82214775D01*
X69435581Y-82360639D01*
X69809419Y-82435000D01*
X70190581Y-82435000D01*
X70564419Y-82360639D01*
X70916566Y-82214775D01*
X71233491Y-82003013D01*
X71503013Y-81733491D01*
X71714775Y-81416566D01*
X71860639Y-81064419D01*
X71935000Y-80690581D01*
X71935000Y-80309419D01*
X71860639Y-79935581D01*
X71714775Y-79583434D01*
X71503013Y-79266509D01*
X71233491Y-78996987D01*
X70916566Y-78785225D01*
X70564419Y-78639361D01*
X70190581Y-78565000D01*
X69809419Y-78565000D01*
X69435581Y-78639361D01*
X69083434Y-78785225D01*
X68766509Y-78996987D01*
X68496987Y-79266509D01*
X68285225Y-79583434D01*
X68139361Y-79935581D01*
X68065000Y-80309419D01*
X65127000Y-80309419D01*
X65127000Y-66739401D01*
X65156043Y-66727371D01*
X65382886Y-66575799D01*
X65575799Y-66382886D01*
X65727371Y-66156043D01*
X65831775Y-65903989D01*
X65885000Y-65636411D01*
X65885000Y-65363589D01*
X65831775Y-65096011D01*
X65727371Y-64843957D01*
X65575799Y-64617114D01*
X65382886Y-64424201D01*
X65156043Y-64272629D01*
X65127000Y-64260599D01*
X65127000Y-58627000D01*
X67373000Y-58627000D01*
X67373000Y-61500000D01*
G04 #@! TA.AperFunction,Conductor*
D33*
G36*
X67373000Y-61500000D02*
G01*
X67375440Y-61524776D01*
X67382667Y-61548601D01*
X67394403Y-61570557D01*
X67410197Y-61589803D01*
X68410197Y-62589803D01*
X68429443Y-62605597D01*
X68451399Y-62617333D01*
X68475224Y-62624560D01*
X68500000Y-62627000D01*
X69373000Y-62627000D01*
X69373000Y-70500000D01*
X69375440Y-70524776D01*
X69382667Y-70548601D01*
X69394403Y-70570557D01*
X69410197Y-70589803D01*
X70910197Y-72089803D01*
X70929443Y-72105597D01*
X70951399Y-72117333D01*
X70975224Y-72124560D01*
X71000000Y-72127000D01*
X79373000Y-72127000D01*
X79373000Y-84340000D01*
X65127000Y-84340000D01*
X65127000Y-80309419D01*
X68065000Y-80309419D01*
X68065000Y-80690581D01*
X68139361Y-81064419D01*
X68285225Y-81416566D01*
X68496987Y-81733491D01*
X68766509Y-82003013D01*
X69083434Y-82214775D01*
X69435581Y-82360639D01*
X69809419Y-82435000D01*
X70190581Y-82435000D01*
X70564419Y-82360639D01*
X70916566Y-82214775D01*
X71233491Y-82003013D01*
X71503013Y-81733491D01*
X71714775Y-81416566D01*
X71860639Y-81064419D01*
X71935000Y-80690581D01*
X71935000Y-80309419D01*
X71860639Y-79935581D01*
X71714775Y-79583434D01*
X71503013Y-79266509D01*
X71233491Y-78996987D01*
X70916566Y-78785225D01*
X70564419Y-78639361D01*
X70190581Y-78565000D01*
X69809419Y-78565000D01*
X69435581Y-78639361D01*
X69083434Y-78785225D01*
X68766509Y-78996987D01*
X68496987Y-79266509D01*
X68285225Y-79583434D01*
X68139361Y-79935581D01*
X68065000Y-80309419D01*
X65127000Y-80309419D01*
X65127000Y-66739401D01*
X65156043Y-66727371D01*
X65382886Y-66575799D01*
X65575799Y-66382886D01*
X65727371Y-66156043D01*
X65831775Y-65903989D01*
X65885000Y-65636411D01*
X65885000Y-65363589D01*
X65831775Y-65096011D01*
X65727371Y-64843957D01*
X65575799Y-64617114D01*
X65382886Y-64424201D01*
X65156043Y-64272629D01*
X65127000Y-64260599D01*
X65127000Y-58627000D01*
X67373000Y-58627000D01*
X67373000Y-61500000D01*
G37*
G04 #@! TD.AperFunction*
D31*
X46732868Y-41028920D02*
X46772630Y-41077370D01*
X46821080Y-41117132D01*
X46821083Y-41117135D01*
X46871086Y-41158171D01*
X46966012Y-41236075D01*
X47186641Y-41354003D01*
X47373000Y-41410534D01*
X47373000Y-49873000D01*
X39627000Y-49873000D01*
X39627000Y-41552606D01*
X40552606Y-40627000D01*
X46330948Y-40627000D01*
X46732868Y-41028920D01*
G04 #@! TA.AperFunction,Conductor*
D33*
G36*
X46732868Y-41028920D02*
G01*
X46772630Y-41077370D01*
X46821080Y-41117132D01*
X46821083Y-41117135D01*
X46871086Y-41158171D01*
X46966012Y-41236075D01*
X47186641Y-41354003D01*
X47373000Y-41410534D01*
X47373000Y-49873000D01*
X39627000Y-49873000D01*
X39627000Y-41552606D01*
X40552606Y-40627000D01*
X46330948Y-40627000D01*
X46732868Y-41028920D01*
G37*
G04 #@! TD.AperFunction*
M02*
