G04 #@! TF.GenerationSoftware,KiCad,Pcbnew,6.0.9-8da3e8f707~116~ubuntu20.04.1*
G04 #@! TF.CreationDate,2022-11-14T19:44:17-05:00*
G04 #@! TF.ProjectId,psu_control,7073755f-636f-46e7-9472-6f6c2e6b6963,rev?*
G04 #@! TF.SameCoordinates,Original*
G04 #@! TF.FileFunction,Soldermask,Bot*
G04 #@! TF.FilePolarity,Negative*
%FSLAX46Y46*%
G04 Gerber Fmt 4.6, Leading zero omitted, Abs format (unit mm)*
G04 Created by KiCad (PCBNEW 6.0.9-8da3e8f707~116~ubuntu20.04.1) date 2022-11-14 19:44:17*
%MOMM*%
%LPD*%
G01*
G04 APERTURE LIST*
G04 Aperture macros list*
%AMRoundRect*
0 Rectangle with rounded corners*
0 $1 Rounding radius*
0 $2 $3 $4 $5 $6 $7 $8 $9 X,Y pos of 4 corners*
0 Add a 4 corners polygon primitive as box body*
4,1,4,$2,$3,$4,$5,$6,$7,$8,$9,$2,$3,0*
0 Add four circle primitives for the rounded corners*
1,1,$1+$1,$2,$3*
1,1,$1+$1,$4,$5*
1,1,$1+$1,$6,$7*
1,1,$1+$1,$8,$9*
0 Add four rect primitives between the rounded corners*
20,1,$1+$1,$2,$3,$4,$5,0*
20,1,$1+$1,$4,$5,$6,$7,0*
20,1,$1+$1,$6,$7,$8,$9,0*
20,1,$1+$1,$8,$9,$2,$3,0*%
G04 Aperture macros list end*
%ADD10RoundRect,0.250000X-0.625000X0.350000X-0.625000X-0.350000X0.625000X-0.350000X0.625000X0.350000X0*%
%ADD11O,1.750000X1.200000*%
%ADD12R,2.000000X2.000000*%
%ADD13C,2.000000*%
%ADD14RoundRect,0.250000X-0.750000X0.600000X-0.750000X-0.600000X0.750000X-0.600000X0.750000X0.600000X0*%
%ADD15O,2.000000X1.700000*%
%ADD16C,1.750000*%
%ADD17RoundRect,0.250000X-0.350000X-0.625000X0.350000X-0.625000X0.350000X0.625000X-0.350000X0.625000X0*%
%ADD18O,1.200000X1.750000*%
%ADD19R,1.600000X1.600000*%
%ADD20C,1.600000*%
%ADD21C,2.600000*%
%ADD22C,3.200000*%
%ADD23C,3.000000*%
%ADD24RoundRect,0.250000X0.350000X0.625000X-0.350000X0.625000X-0.350000X-0.625000X0.350000X-0.625000X0*%
%ADD25RoundRect,0.250000X-0.725000X0.600000X-0.725000X-0.600000X0.725000X-0.600000X0.725000X0.600000X0*%
%ADD26O,1.950000X1.700000*%
%ADD27O,1.270000X1.651000*%
G04 APERTURE END LIST*
D10*
X112550000Y-70000000D03*
D11*
X112550000Y-72000000D03*
X112550000Y-74000000D03*
D12*
X58500000Y-30132323D03*
D13*
X58500000Y-35132323D03*
D14*
X111525000Y-25750000D03*
D15*
X111525000Y-28250000D03*
D16*
X67250000Y-33000000D03*
X73750000Y-33000000D03*
D17*
X49000000Y-81450000D03*
D18*
X51000000Y-81450000D03*
D10*
X100550000Y-70000000D03*
D11*
X100550000Y-72000000D03*
X100550000Y-74000000D03*
D19*
X81182380Y-37000000D03*
D20*
X78682380Y-37000000D03*
D17*
X26000000Y-50950000D03*
D18*
X28000000Y-50950000D03*
X30000000Y-50950000D03*
X32000000Y-50950000D03*
D21*
X56500000Y-19000000D03*
X51500000Y-19000000D03*
D10*
X94550000Y-70000000D03*
D11*
X94550000Y-72000000D03*
X94550000Y-74000000D03*
D17*
X66000000Y-81500000D03*
D18*
X68000000Y-81500000D03*
X70000000Y-81500000D03*
D13*
X73030000Y-18000000D03*
X78110000Y-18000000D03*
X80650000Y-18000000D03*
X75570000Y-18000000D03*
X85730000Y-18000000D03*
X83190000Y-18000000D03*
X88270000Y-18000000D03*
X90810000Y-18000000D03*
X95890000Y-18000000D03*
X98430000Y-18000000D03*
X93350000Y-18000000D03*
X100970000Y-18000000D03*
D17*
X41500000Y-75450000D03*
D18*
X43500000Y-75450000D03*
D22*
X111500000Y-81500000D03*
D17*
X90000000Y-29450000D03*
D18*
X92000000Y-29450000D03*
D17*
X85000000Y-81500000D03*
D18*
X87000000Y-81500000D03*
X89000000Y-81500000D03*
D10*
X106550000Y-70000000D03*
D11*
X106550000Y-72000000D03*
X106550000Y-74000000D03*
D21*
X44000000Y-19000000D03*
X39000000Y-19000000D03*
X31500000Y-19000000D03*
X26500000Y-19000000D03*
D17*
X75500000Y-81500000D03*
D18*
X77500000Y-81500000D03*
X79500000Y-81500000D03*
D22*
X111500000Y-18500000D03*
D17*
X94500000Y-81500000D03*
D18*
X96500000Y-81500000D03*
D17*
X36000000Y-69950000D03*
D18*
X38000000Y-69950000D03*
D17*
X102000000Y-81500000D03*
D18*
X104000000Y-81500000D03*
D17*
X25000000Y-58950000D03*
D18*
X27000000Y-58950000D03*
D20*
X83600000Y-33000000D03*
X85400000Y-28000000D03*
D19*
X65000000Y-21317621D03*
D20*
X65000000Y-23817621D03*
D23*
X19100000Y-24445000D03*
X19100000Y-31205000D03*
X19100000Y-40795000D03*
X19100000Y-47555000D03*
D17*
X73500000Y-70950000D03*
D18*
X75500000Y-70950000D03*
X77500000Y-70950000D03*
X79500000Y-70950000D03*
X81500000Y-70950000D03*
D24*
X112500000Y-63500000D03*
D18*
X110500000Y-63500000D03*
X108500000Y-63500000D03*
D25*
X111525000Y-34500000D03*
D26*
X111525000Y-37000000D03*
X111525000Y-39500000D03*
D17*
X60000000Y-70950000D03*
D18*
X62000000Y-70950000D03*
D27*
X94580000Y-43880000D03*
X92040000Y-43880000D03*
X89500000Y-43880000D03*
X86960000Y-43880000D03*
X92040000Y-59120000D03*
X84420000Y-43880000D03*
X81880000Y-43880000D03*
X79340000Y-43880000D03*
X76800000Y-43880000D03*
X74260000Y-43880000D03*
X71720000Y-43880000D03*
X69180000Y-43880000D03*
X66640000Y-43880000D03*
X64100000Y-43880000D03*
X64100000Y-59120000D03*
X66640000Y-59120000D03*
X69180000Y-59120000D03*
X71720000Y-59120000D03*
X74260000Y-59120000D03*
X76800000Y-59120000D03*
X79340000Y-59120000D03*
X81880000Y-59120000D03*
X84420000Y-59120000D03*
X86960000Y-59120000D03*
X89500000Y-59120000D03*
X86960000Y-56580000D03*
X84420000Y-56580000D03*
X89500000Y-56580000D03*
X97120000Y-43880000D03*
X94580000Y-59120000D03*
X97120000Y-59120000D03*
D22*
X18500000Y-18500000D03*
D17*
X56500000Y-81500000D03*
D18*
X58500000Y-81500000D03*
X60500000Y-81500000D03*
D22*
X18500000Y-53500000D03*
D17*
X97500000Y-29450000D03*
D18*
X99500000Y-29450000D03*
D17*
X30500000Y-64450000D03*
D18*
X32500000Y-64450000D03*
M02*
