G04 #@! TF.GenerationSoftware,KiCad,Pcbnew,6.0.11-2627ca5db0~126~ubuntu20.04.1*
G04 #@! TF.CreationDate,2023-05-31T16:20:07-04:00*
G04 #@! TF.ProjectId,psu_control,7073755f-636f-46e7-9472-6f6c2e6b6963,rev?*
G04 #@! TF.SameCoordinates,Original*
G04 #@! TF.FileFunction,Soldermask,Bot*
G04 #@! TF.FilePolarity,Negative*
%FSLAX46Y46*%
G04 Gerber Fmt 4.6, Leading zero omitted, Abs format (unit mm)*
G04 Created by KiCad (PCBNEW 6.0.11-2627ca5db0~126~ubuntu20.04.1) date 2023-05-31 16:20:07*
%MOMM*%
%LPD*%
G01*
G04 APERTURE LIST*
G04 Aperture macros list*
%AMRoundRect*
0 Rectangle with rounded corners*
0 $1 Rounding radius*
0 $2 $3 $4 $5 $6 $7 $8 $9 X,Y pos of 4 corners*
0 Add a 4 corners polygon primitive as box body*
4,1,4,$2,$3,$4,$5,$6,$7,$8,$9,$2,$3,0*
0 Add four circle primitives for the rounded corners*
1,1,$1+$1,$2,$3*
1,1,$1+$1,$4,$5*
1,1,$1+$1,$6,$7*
1,1,$1+$1,$8,$9*
0 Add four rect primitives between the rounded corners*
20,1,$1+$1,$2,$3,$4,$5,0*
20,1,$1+$1,$4,$5,$6,$7,0*
20,1,$1+$1,$6,$7,$8,$9,0*
20,1,$1+$1,$8,$9,$2,$3,0*%
G04 Aperture macros list end*
%ADD10R,2.000000X2.000000*%
%ADD11C,2.000000*%
%ADD12C,1.750000*%
%ADD13RoundRect,0.250000X-0.350000X-0.625000X0.350000X-0.625000X0.350000X0.625000X-0.350000X0.625000X0*%
%ADD14O,1.200000X1.750000*%
%ADD15R,1.600000X1.600000*%
%ADD16C,1.600000*%
%ADD17C,2.600000*%
%ADD18C,3.200000*%
%ADD19C,3.000000*%
%ADD20RoundRect,0.250000X0.350000X0.625000X-0.350000X0.625000X-0.350000X-0.625000X0.350000X-0.625000X0*%
%ADD21RoundRect,0.250000X-0.725000X0.600000X-0.725000X-0.600000X0.725000X-0.600000X0.725000X0.600000X0*%
%ADD22O,1.950000X1.700000*%
%ADD23O,1.270000X1.651000*%
%ADD24RoundRect,0.250000X-0.262500X-0.450000X0.262500X-0.450000X0.262500X0.450000X-0.262500X0.450000X0*%
%ADD25RoundRect,0.250000X0.262500X0.450000X-0.262500X0.450000X-0.262500X-0.450000X0.262500X-0.450000X0*%
%ADD26R,2.500000X1.800000*%
G04 APERTURE END LIST*
D10*
X65000000Y-28632323D03*
D11*
X65000000Y-33632323D03*
D12*
X80250000Y-32500000D03*
X73750000Y-32500000D03*
D13*
X49000000Y-81450000D03*
D14*
X51000000Y-81450000D03*
D15*
X109817621Y-28500000D03*
D16*
X112317621Y-28500000D03*
D13*
X108000000Y-73450000D03*
D14*
X110000000Y-73450000D03*
X112000000Y-73450000D03*
D15*
X90500000Y-29000000D03*
D16*
X88000000Y-29000000D03*
D13*
X25000000Y-52950000D03*
D14*
X27000000Y-52950000D03*
X29000000Y-52950000D03*
X31000000Y-52950000D03*
D17*
X55500000Y-19000000D03*
X50500000Y-19000000D03*
D13*
X99000000Y-73450000D03*
D14*
X101000000Y-73450000D03*
X103000000Y-73450000D03*
D13*
X66000000Y-81500000D03*
D14*
X68000000Y-81500000D03*
X70000000Y-81500000D03*
D11*
X62030000Y-17750000D03*
X67110000Y-17750000D03*
X69650000Y-17750000D03*
X64570000Y-17750000D03*
X74730000Y-17750000D03*
X72190000Y-17750000D03*
X77270000Y-17750000D03*
X79810000Y-17750000D03*
X84890000Y-17750000D03*
X87430000Y-17750000D03*
X82350000Y-17750000D03*
X89970000Y-17750000D03*
D13*
X41500000Y-75450000D03*
D14*
X43500000Y-75450000D03*
D18*
X111500000Y-81500000D03*
X50000000Y-73500000D03*
D13*
X81500000Y-42000000D03*
D14*
X83500000Y-42000000D03*
D13*
X85000000Y-81500000D03*
D14*
X87000000Y-81500000D03*
X89000000Y-81500000D03*
D17*
X43500000Y-19000000D03*
X38500000Y-19000000D03*
X31500000Y-19000000D03*
X26500000Y-19000000D03*
D13*
X75500000Y-81500000D03*
D14*
X77500000Y-81500000D03*
X79500000Y-81500000D03*
D18*
X111500000Y-18500000D03*
D13*
X94500000Y-81500000D03*
D14*
X96500000Y-81500000D03*
D13*
X36000000Y-69950000D03*
D14*
X38000000Y-69950000D03*
D13*
X102000000Y-81500000D03*
D14*
X104000000Y-81500000D03*
D13*
X25000000Y-58950000D03*
D14*
X27000000Y-58950000D03*
D15*
X42000000Y-30817621D03*
D16*
X42000000Y-33317621D03*
D19*
X19100000Y-24445000D03*
X19100000Y-31205000D03*
X19100000Y-40795000D03*
X19100000Y-47555000D03*
D13*
X82500000Y-73500000D03*
D14*
X84500000Y-73500000D03*
X86500000Y-73500000D03*
X88500000Y-73500000D03*
X90500000Y-73500000D03*
D20*
X112500000Y-66000000D03*
D14*
X110500000Y-66000000D03*
X108500000Y-66000000D03*
D21*
X111525000Y-36500000D03*
D22*
X111525000Y-39000000D03*
X111525000Y-41500000D03*
D13*
X56500000Y-73000000D03*
D14*
X58500000Y-73000000D03*
D23*
X94580000Y-48380000D03*
X92040000Y-48380000D03*
X89500000Y-48380000D03*
X86960000Y-48380000D03*
X92040000Y-63620000D03*
X84420000Y-48380000D03*
X81880000Y-48380000D03*
X79340000Y-48380000D03*
X76800000Y-48380000D03*
X74260000Y-48380000D03*
X71720000Y-48380000D03*
X69180000Y-48380000D03*
X66640000Y-48380000D03*
X64100000Y-48380000D03*
X64100000Y-63620000D03*
X66640000Y-63620000D03*
X69180000Y-63620000D03*
X71720000Y-63620000D03*
X74260000Y-63620000D03*
X76800000Y-63620000D03*
X79340000Y-63620000D03*
X81880000Y-63620000D03*
X84420000Y-63620000D03*
X86960000Y-63620000D03*
X89500000Y-63620000D03*
X86960000Y-61080000D03*
X84420000Y-61080000D03*
X89500000Y-61080000D03*
X97120000Y-48380000D03*
X94580000Y-63620000D03*
X97120000Y-63620000D03*
D18*
X18500000Y-18500000D03*
D13*
X56500000Y-81500000D03*
D14*
X58500000Y-81500000D03*
X60500000Y-81500000D03*
D18*
X18500000Y-53500000D03*
D13*
X89000000Y-42000000D03*
D14*
X91000000Y-42000000D03*
D18*
X70000000Y-73500000D03*
D13*
X30500000Y-64450000D03*
D14*
X32500000Y-64450000D03*
D24*
X93675000Y-17500000D03*
X95500000Y-17500000D03*
D25*
X63825000Y-21000000D03*
X62000000Y-21000000D03*
X63825000Y-24500000D03*
X62000000Y-24500000D03*
D26*
X27000000Y-22800000D03*
X31000000Y-22800000D03*
D24*
X93675000Y-21000000D03*
X95500000Y-21000000D03*
M02*
