M48
; DRILL file {KiCad 5.1.10-88a1d61d58~90~ubuntu20.04.1} date Thu Nov  4 10:14:30 2021
; FORMAT={-:-/ absolute / metric / decimal}
; #@! TF.CreationDate,2021-11-04T10:14:30-04:00
; #@! TF.GenerationSoftware,Kicad,Pcbnew,5.1.10-88a1d61d58~90~ubuntu20.04.1
; #@! TF.FileFunction,Plated,1,4,PTH
FMAT,2
METRIC
T1C0.381
T2C0.600
T3C0.800
T4C0.950
T5C1.000
T6C1.016
T7C1.300
T8C1.750
%
G90
G05
T1
X23.5Y-31.5
X25.0Y-40.0
X25.0Y-42.0
X25.0Y-44.0
X25.0Y-46.0
X25.0Y-48.0
X27.0Y-40.0
X27.0Y-42.0
X27.0Y-44.0
X27.0Y-46.0
X27.0Y-48.0
X29.5Y-40.0
X29.5Y-42.0
X29.5Y-44.0
X29.5Y-46.0
X29.5Y-48.0
X32.0Y-40.0
X32.0Y-42.0
X32.0Y-44.0
X32.0Y-46.0
X32.0Y-48.0
X34.5Y-40.0
X34.5Y-42.0
X34.5Y-44.0
X34.5Y-46.0
X34.5Y-48.0
X35.771Y-34.5
X36.0Y-27.5
X38.0Y-25.5
X38.5Y-24.5
X39.0Y-23.5
X39.017Y-30.279
X40.5Y-34.5
X40.5Y-44.5
X40.5Y-46.0
X40.5Y-47.5
X40.5Y-49.0
X42.0Y-41.5
X42.0Y-43.0
X42.0Y-44.5
X42.0Y-46.0
X42.0Y-47.5
X42.0Y-49.0
X43.5Y-41.5
X43.5Y-43.0
X43.5Y-44.5
X43.5Y-46.0
X43.5Y-47.5
X43.5Y-49.0
X45.0Y-41.5
X45.0Y-43.0
X45.0Y-44.5
X45.0Y-46.0
X45.0Y-47.5
X45.0Y-49.0
X45.0Y-59.5
X46.5Y-41.5
X46.5Y-43.0
X46.5Y-44.5
X46.5Y-46.0
X46.5Y-47.5
X46.5Y-49.0
X47.0Y-66.5
X48.0Y-60.5
X48.5Y-59.0
X48.5Y-65.5
X50.0Y-65.5
X50.5Y-47.0
X52.0Y-44.0
X52.053Y-40.447
X54.5Y-65.5
X54.553Y-42.947
X55.5Y-70.5
X57.0Y-28.0
X57.0Y-65.5
X58.5Y-59.0
X58.5Y-70.5
X62.5Y-59.0
X63.5Y-59.0
X71.0Y-51.0
X71.0Y-59.0
X71.0Y-60.0
X71.0Y-61.0
X74.0Y-53.5
X74.0Y-54.5
X74.0Y-55.5
X84.5Y-46.5
X86.5Y-71.5
X86.5Y-72.5
X86.5Y-73.5
X90.5Y-61.5
X91.5Y-42.5
X92.0Y-68.5
X92.0Y-72.0
X93.0Y-35.5
X103.5Y-38.0
T2
X72.5Y-70.5
X75.0Y-65.5
T3
X82.5Y-66.5
X85.0Y-66.5
T4
X50.0Y-54.5
X52.5Y-54.5
X55.0Y-54.5
X57.5Y-54.5
X60.0Y-54.5
X62.5Y-54.5
X66.5Y-42.0
X66.5Y-44.5
X66.5Y-47.0
X73.5Y-42.0
X73.5Y-44.5
X73.5Y-47.0
X80.5Y-42.0
X80.5Y-44.5
X80.5Y-47.0
X94.0Y-18.0
X96.5Y-18.0
X99.0Y-18.0
X101.5Y-18.0
T5
X26.0Y-52.5
X26.0Y-55.0
X33.0Y-59.5
X33.0Y-62.0
X39.5Y-18.5
X40.0Y-66.5
X40.0Y-69.0
X42.0Y-18.5
X47.0Y-73.5
X47.0Y-76.0
X54.0Y-78.5
X54.0Y-81.0
X59.5Y-42.0
X59.5Y-44.5
X61.0Y-78.5
X61.0Y-81.0
X61.96Y-65.5
X64.5Y-65.5
X67.04Y-65.5
X84.0Y-79.0
X84.0Y-81.5
X85.0Y-53.25
X85.0Y-59.75
X91.5Y-79.0
X91.5Y-81.5
T6
X47.26Y-20.88
X47.26Y-36.12
X49.8Y-20.88
X49.8Y-36.12
X52.34Y-20.88
X52.34Y-36.12
X54.88Y-20.88
X54.88Y-36.12
X57.42Y-20.88
X57.42Y-36.12
X59.96Y-20.88
X59.96Y-36.12
X62.5Y-20.88
X62.5Y-36.12
X65.04Y-20.88
X65.04Y-36.12
X67.58Y-20.88
X67.58Y-36.12
X70.12Y-20.88
X70.12Y-36.12
X72.66Y-20.88
X72.66Y-36.12
X75.2Y-20.88
X75.2Y-36.12
X77.74Y-20.88
X77.74Y-36.12
X80.28Y-20.88
X80.28Y-36.12
T7
X27.5Y-19.5
X32.5Y-19.5
X70.0Y-80.5
X75.0Y-80.5
X100.5Y-42.0
X100.5Y-47.0
X100.5Y-55.0
X100.5Y-60.0
X100.5Y-68.0
X100.5Y-73.0
T8
X19.5Y-24.445
X19.5Y-31.205
X19.5Y-40.795
X19.5Y-47.555
T0
M30
