G04 #@! TF.GenerationSoftware,KiCad,Pcbnew,5.1.10-88a1d61d58~90~ubuntu20.04.1*
G04 #@! TF.CreationDate,2022-02-24T15:52:57-05:00*
G04 #@! TF.ProjectId,psu_control,7073755f-636f-46e7-9472-6f6c2e6b6963,rev?*
G04 #@! TF.SameCoordinates,Original*
G04 #@! TF.FileFunction,Copper,L4,Bot*
G04 #@! TF.FilePolarity,Positive*
%FSLAX46Y46*%
G04 Gerber Fmt 4.6, Leading zero omitted, Abs format (unit mm)*
G04 Created by KiCad (PCBNEW 5.1.10-88a1d61d58~90~ubuntu20.04.1) date 2022-02-24 15:52:57*
%MOMM*%
%LPD*%
G01*
G04 APERTURE LIST*
G04 #@! TA.AperFunction,ComponentPad*
%ADD10C,1.750000*%
G04 #@! TD*
G04 #@! TA.AperFunction,ComponentPad*
%ADD11C,1.524000*%
G04 #@! TD*
G04 #@! TA.AperFunction,ComponentPad*
%ADD12O,2.000000X1.700000*%
G04 #@! TD*
G04 #@! TA.AperFunction,ComponentPad*
%ADD13O,1.950000X1.700000*%
G04 #@! TD*
G04 #@! TA.AperFunction,ComponentPad*
%ADD14C,2.600000*%
G04 #@! TD*
G04 #@! TA.AperFunction,ComponentPad*
%ADD15C,1.500000*%
G04 #@! TD*
G04 #@! TA.AperFunction,ComponentPad*
%ADD16O,1.700000X2.000000*%
G04 #@! TD*
G04 #@! TA.AperFunction,ComponentPad*
%ADD17C,1.600000*%
G04 #@! TD*
G04 #@! TA.AperFunction,ComponentPad*
%ADD18O,1.700000X1.950000*%
G04 #@! TD*
G04 #@! TA.AperFunction,ComponentPad*
%ADD19C,3.000000*%
G04 #@! TD*
G04 #@! TA.AperFunction,ComponentPad*
%ADD20R,1.600000X1.600000*%
G04 #@! TD*
G04 #@! TA.AperFunction,ViaPad*
%ADD21C,0.889000*%
G04 #@! TD*
G04 #@! TA.AperFunction,Conductor*
%ADD22C,0.508000*%
G04 #@! TD*
G04 #@! TA.AperFunction,Conductor*
%ADD23C,0.254000*%
G04 #@! TD*
G04 #@! TA.AperFunction,Conductor*
%ADD24C,0.100000*%
G04 #@! TD*
G04 APERTURE END LIST*
D10*
X85000000Y-53250000D03*
X85000000Y-59750000D03*
D11*
X80280000Y-20880000D03*
X77740000Y-20880000D03*
X75200000Y-20880000D03*
X72660000Y-20880000D03*
X70120000Y-20880000D03*
X67580000Y-20880000D03*
X65040000Y-20880000D03*
X62500000Y-20880000D03*
X59960000Y-20880000D03*
X57420000Y-20880000D03*
X54880000Y-20880000D03*
X52340000Y-20880000D03*
X49800000Y-20880000D03*
X47260000Y-20880000D03*
X47260000Y-36120000D03*
X49800000Y-36120000D03*
X52340000Y-36120000D03*
X54880000Y-36120000D03*
X57420000Y-36120000D03*
X59960000Y-36120000D03*
X62500000Y-36120000D03*
X65040000Y-36120000D03*
X67580000Y-36120000D03*
X70120000Y-36120000D03*
X72660000Y-36120000D03*
X75200000Y-36120000D03*
X77740000Y-36120000D03*
X80280000Y-36120000D03*
D12*
X59500000Y-44500000D03*
G04 #@! TA.AperFunction,ComponentPad*
G36*
G01*
X58750000Y-41150000D02*
X60250000Y-41150000D01*
G75*
G02*
X60500000Y-41400000I0J-250000D01*
G01*
X60500000Y-42600000D01*
G75*
G02*
X60250000Y-42850000I-250000J0D01*
G01*
X58750000Y-42850000D01*
G75*
G02*
X58500000Y-42600000I0J250000D01*
G01*
X58500000Y-41400000D01*
G75*
G02*
X58750000Y-41150000I250000J0D01*
G01*
G37*
G04 #@! TD.AperFunction*
D13*
X66500000Y-47000000D03*
X66500000Y-44500000D03*
G04 #@! TA.AperFunction,ComponentPad*
G36*
G01*
X65775000Y-41150000D02*
X67225000Y-41150000D01*
G75*
G02*
X67475000Y-41400000I0J-250000D01*
G01*
X67475000Y-42600000D01*
G75*
G02*
X67225000Y-42850000I-250000J0D01*
G01*
X65775000Y-42850000D01*
G75*
G02*
X65525000Y-42600000I0J250000D01*
G01*
X65525000Y-41400000D01*
G75*
G02*
X65775000Y-41150000I250000J0D01*
G01*
G37*
G04 #@! TD.AperFunction*
X73500000Y-47000000D03*
X73500000Y-44500000D03*
G04 #@! TA.AperFunction,ComponentPad*
G36*
G01*
X72775000Y-41150000D02*
X74225000Y-41150000D01*
G75*
G02*
X74475000Y-41400000I0J-250000D01*
G01*
X74475000Y-42600000D01*
G75*
G02*
X74225000Y-42850000I-250000J0D01*
G01*
X72775000Y-42850000D01*
G75*
G02*
X72525000Y-42600000I0J250000D01*
G01*
X72525000Y-41400000D01*
G75*
G02*
X72775000Y-41150000I250000J0D01*
G01*
G37*
G04 #@! TD.AperFunction*
X80500000Y-47000000D03*
X80500000Y-44500000D03*
G04 #@! TA.AperFunction,ComponentPad*
G36*
G01*
X79775000Y-41150000D02*
X81225000Y-41150000D01*
G75*
G02*
X81475000Y-41400000I0J-250000D01*
G01*
X81475000Y-42600000D01*
G75*
G02*
X81225000Y-42850000I-250000J0D01*
G01*
X79775000Y-42850000D01*
G75*
G02*
X79525000Y-42600000I0J250000D01*
G01*
X79525000Y-41400000D01*
G75*
G02*
X79775000Y-41150000I250000J0D01*
G01*
G37*
G04 #@! TD.AperFunction*
D14*
X75000000Y-80500000D03*
X70000000Y-80500000D03*
D15*
X67040000Y-65500000D03*
X64500000Y-65500000D03*
X61960000Y-65500000D03*
D16*
X42000000Y-18500000D03*
G04 #@! TA.AperFunction,ComponentPad*
G36*
G01*
X38650000Y-19250000D02*
X38650000Y-17750000D01*
G75*
G02*
X38900000Y-17500000I250000J0D01*
G01*
X40100000Y-17500000D01*
G75*
G02*
X40350000Y-17750000I0J-250000D01*
G01*
X40350000Y-19250000D01*
G75*
G02*
X40100000Y-19500000I-250000J0D01*
G01*
X38900000Y-19500000D01*
G75*
G02*
X38650000Y-19250000I0J250000D01*
G01*
G37*
G04 #@! TD.AperFunction*
D17*
X75000000Y-65500000D03*
X72500000Y-70500000D03*
D12*
X84000000Y-81500000D03*
G04 #@! TA.AperFunction,ComponentPad*
G36*
G01*
X83250000Y-78150000D02*
X84750000Y-78150000D01*
G75*
G02*
X85000000Y-78400000I0J-250000D01*
G01*
X85000000Y-79600000D01*
G75*
G02*
X84750000Y-79850000I-250000J0D01*
G01*
X83250000Y-79850000D01*
G75*
G02*
X83000000Y-79600000I0J250000D01*
G01*
X83000000Y-78400000D01*
G75*
G02*
X83250000Y-78150000I250000J0D01*
G01*
G37*
G04 #@! TD.AperFunction*
X91500000Y-81500000D03*
G04 #@! TA.AperFunction,ComponentPad*
G36*
G01*
X90750000Y-78150000D02*
X92250000Y-78150000D01*
G75*
G02*
X92500000Y-78400000I0J-250000D01*
G01*
X92500000Y-79600000D01*
G75*
G02*
X92250000Y-79850000I-250000J0D01*
G01*
X90750000Y-79850000D01*
G75*
G02*
X90500000Y-79600000I0J250000D01*
G01*
X90500000Y-78400000D01*
G75*
G02*
X90750000Y-78150000I250000J0D01*
G01*
G37*
G04 #@! TD.AperFunction*
D18*
X50000000Y-54500000D03*
X52500000Y-54500000D03*
X55000000Y-54500000D03*
X57500000Y-54500000D03*
X60000000Y-54500000D03*
G04 #@! TA.AperFunction,ComponentPad*
G36*
G01*
X63350000Y-53775000D02*
X63350000Y-55225000D01*
G75*
G02*
X63100000Y-55475000I-250000J0D01*
G01*
X61900000Y-55475000D01*
G75*
G02*
X61650000Y-55225000I0J250000D01*
G01*
X61650000Y-53775000D01*
G75*
G02*
X61900000Y-53525000I250000J0D01*
G01*
X63100000Y-53525000D01*
G75*
G02*
X63350000Y-53775000I0J-250000D01*
G01*
G37*
G04 #@! TD.AperFunction*
D14*
X100500000Y-42000000D03*
X100500000Y-47000000D03*
D18*
X101500000Y-18000000D03*
X99000000Y-18000000D03*
X96500000Y-18000000D03*
G04 #@! TA.AperFunction,ComponentPad*
G36*
G01*
X93150000Y-18725000D02*
X93150000Y-17275000D01*
G75*
G02*
X93400000Y-17025000I250000J0D01*
G01*
X94600000Y-17025000D01*
G75*
G02*
X94850000Y-17275000I0J-250000D01*
G01*
X94850000Y-18725000D01*
G75*
G02*
X94600000Y-18975000I-250000J0D01*
G01*
X93400000Y-18975000D01*
G75*
G02*
X93150000Y-18725000I0J250000D01*
G01*
G37*
G04 #@! TD.AperFunction*
D14*
X100500000Y-55000000D03*
X100500000Y-60000000D03*
X100500000Y-68000000D03*
X100500000Y-73000000D03*
X27500000Y-19500000D03*
X32500000Y-19500000D03*
D19*
X19500000Y-40795000D03*
X19500000Y-31205000D03*
X19500000Y-24445000D03*
X19500000Y-47555000D03*
D12*
X61000000Y-78500000D03*
G04 #@! TA.AperFunction,ComponentPad*
G36*
G01*
X61750000Y-81850000D02*
X60250000Y-81850000D01*
G75*
G02*
X60000000Y-81600000I0J250000D01*
G01*
X60000000Y-80400000D01*
G75*
G02*
X60250000Y-80150000I250000J0D01*
G01*
X61750000Y-80150000D01*
G75*
G02*
X62000000Y-80400000I0J-250000D01*
G01*
X62000000Y-81600000D01*
G75*
G02*
X61750000Y-81850000I-250000J0D01*
G01*
G37*
G04 #@! TD.AperFunction*
X54000000Y-78500000D03*
G04 #@! TA.AperFunction,ComponentPad*
G36*
G01*
X54750000Y-81850000D02*
X53250000Y-81850000D01*
G75*
G02*
X53000000Y-81600000I0J250000D01*
G01*
X53000000Y-80400000D01*
G75*
G02*
X53250000Y-80150000I250000J0D01*
G01*
X54750000Y-80150000D01*
G75*
G02*
X55000000Y-80400000I0J-250000D01*
G01*
X55000000Y-81600000D01*
G75*
G02*
X54750000Y-81850000I-250000J0D01*
G01*
G37*
G04 #@! TD.AperFunction*
X47000000Y-73500000D03*
G04 #@! TA.AperFunction,ComponentPad*
G36*
G01*
X47750000Y-76850000D02*
X46250000Y-76850000D01*
G75*
G02*
X46000000Y-76600000I0J250000D01*
G01*
X46000000Y-75400000D01*
G75*
G02*
X46250000Y-75150000I250000J0D01*
G01*
X47750000Y-75150000D01*
G75*
G02*
X48000000Y-75400000I0J-250000D01*
G01*
X48000000Y-76600000D01*
G75*
G02*
X47750000Y-76850000I-250000J0D01*
G01*
G37*
G04 #@! TD.AperFunction*
X40000000Y-66500000D03*
G04 #@! TA.AperFunction,ComponentPad*
G36*
G01*
X40750000Y-69850000D02*
X39250000Y-69850000D01*
G75*
G02*
X39000000Y-69600000I0J250000D01*
G01*
X39000000Y-68400000D01*
G75*
G02*
X39250000Y-68150000I250000J0D01*
G01*
X40750000Y-68150000D01*
G75*
G02*
X41000000Y-68400000I0J-250000D01*
G01*
X41000000Y-69600000D01*
G75*
G02*
X40750000Y-69850000I-250000J0D01*
G01*
G37*
G04 #@! TD.AperFunction*
X33000000Y-59500000D03*
G04 #@! TA.AperFunction,ComponentPad*
G36*
G01*
X33750000Y-62850000D02*
X32250000Y-62850000D01*
G75*
G02*
X32000000Y-62600000I0J250000D01*
G01*
X32000000Y-61400000D01*
G75*
G02*
X32250000Y-61150000I250000J0D01*
G01*
X33750000Y-61150000D01*
G75*
G02*
X34000000Y-61400000I0J-250000D01*
G01*
X34000000Y-62600000D01*
G75*
G02*
X33750000Y-62850000I-250000J0D01*
G01*
G37*
G04 #@! TD.AperFunction*
X26000000Y-52500000D03*
G04 #@! TA.AperFunction,ComponentPad*
G36*
G01*
X26750000Y-55850000D02*
X25250000Y-55850000D01*
G75*
G02*
X25000000Y-55600000I0J250000D01*
G01*
X25000000Y-54400000D01*
G75*
G02*
X25250000Y-54150000I250000J0D01*
G01*
X26750000Y-54150000D01*
G75*
G02*
X27000000Y-54400000I0J-250000D01*
G01*
X27000000Y-55600000D01*
G75*
G02*
X26750000Y-55850000I-250000J0D01*
G01*
G37*
G04 #@! TD.AperFunction*
D17*
X85000000Y-66500000D03*
D20*
X82500000Y-66500000D03*
D21*
X40500000Y-34500000D03*
X35771500Y-34500000D03*
X92000000Y-72000000D03*
X63500000Y-59000000D03*
X71000000Y-60000000D03*
X54500000Y-65500000D03*
X57000000Y-65500000D03*
X50000000Y-65500000D03*
X47999664Y-60499664D03*
X86500000Y-72500000D03*
X86500000Y-73500000D03*
X86500000Y-71500000D03*
X71000000Y-61000000D03*
X71000000Y-59000000D03*
X62500000Y-59000000D03*
X92000000Y-68500000D03*
X74000000Y-55500000D03*
X74000000Y-54500000D03*
X74000000Y-53500000D03*
X39017244Y-30279500D03*
X23500000Y-31500000D03*
X36000000Y-27500000D03*
X84500000Y-46500000D03*
X54552779Y-42947221D03*
X50500000Y-47000000D03*
X57000000Y-28000000D03*
X91500000Y-42500000D03*
X103500000Y-38000000D03*
X93000000Y-35500000D03*
X48500000Y-65500000D03*
X47000000Y-66500000D03*
X55500000Y-70500000D03*
X58500000Y-70500000D03*
X38500000Y-24500000D03*
X38000000Y-25500000D03*
X34500000Y-42000000D03*
X32000000Y-40000000D03*
X32000000Y-42000000D03*
X29500000Y-42000000D03*
X29500000Y-40000000D03*
X27000000Y-40000000D03*
X27000000Y-42000000D03*
X25000000Y-42000000D03*
X25000000Y-46000000D03*
X27000000Y-46000000D03*
X29500000Y-46000000D03*
X34500000Y-46000000D03*
X32000000Y-46000000D03*
X32000000Y-44000000D03*
X29500000Y-44000000D03*
X27000000Y-44000000D03*
X27000000Y-48000000D03*
X29500000Y-48000000D03*
X32000000Y-48000000D03*
X25000000Y-44000000D03*
X34500000Y-44000000D03*
X34500000Y-48000000D03*
X25000000Y-48000000D03*
X25000000Y-40000000D03*
X34500000Y-40000000D03*
X48500000Y-59000000D03*
X45000000Y-59500000D03*
X58500000Y-59000000D03*
X71000000Y-51000000D03*
X39000000Y-23500000D03*
X52052780Y-40447220D03*
X90500000Y-61500000D03*
X52000000Y-44000000D03*
X42000000Y-43000000D03*
X43500000Y-43000000D03*
X45000000Y-43000000D03*
X46500000Y-43000000D03*
X46500000Y-44500000D03*
X45000000Y-44500000D03*
X45000000Y-46000000D03*
X46500000Y-46000000D03*
X43500000Y-46000000D03*
X43500000Y-44500000D03*
X42000000Y-44500000D03*
X42000000Y-46000000D03*
X40500000Y-46000000D03*
X40500000Y-44500000D03*
X42000000Y-41500000D03*
X43500000Y-41500000D03*
X45000000Y-41500000D03*
X46500000Y-41500000D03*
X40500000Y-47500000D03*
X40500000Y-49000000D03*
X42000000Y-49000000D03*
X42000000Y-47500000D03*
X43500000Y-47500000D03*
X43500000Y-49000000D03*
X45000000Y-49000000D03*
X45000000Y-47500000D03*
X46500000Y-47500000D03*
X46500000Y-49000000D03*
D22*
X42000000Y-69000000D02*
X40000000Y-69000000D01*
X45500000Y-65500000D02*
X42000000Y-69000000D01*
X48500000Y-65500000D02*
X45500000Y-65500000D01*
X47000000Y-66500000D02*
X47000000Y-70000000D01*
X47000000Y-70000000D02*
X45000000Y-72000000D01*
X45000000Y-72000000D02*
X45000000Y-75500000D01*
X45500000Y-76000000D02*
X47000000Y-76000000D01*
X45000000Y-75500000D02*
X45500000Y-76000000D01*
X54000000Y-81000000D02*
X55500000Y-81000000D01*
X55500000Y-81000000D02*
X56000000Y-80500000D01*
X56000000Y-75500000D02*
X55500000Y-75000000D01*
X56000000Y-80500000D02*
X56000000Y-75500000D01*
X55500000Y-75000000D02*
X55500000Y-70500000D01*
X58500000Y-70500000D02*
X58500000Y-80000000D01*
X59500000Y-81000000D02*
X61000000Y-81000000D01*
X58500000Y-80000000D02*
X59500000Y-81000000D01*
X38500000Y-24500000D02*
X65040000Y-24500000D01*
X72660000Y-32120000D02*
X72660000Y-36120000D01*
X65040000Y-24500000D02*
X72660000Y-32120000D01*
X70120000Y-32120000D02*
X70120000Y-36120000D01*
X63500000Y-25500000D02*
X70120000Y-32120000D01*
X38000000Y-25500000D02*
X63500000Y-25500000D01*
X38170218Y-23500000D02*
X37101499Y-24568719D01*
X37101499Y-25931281D02*
X37670218Y-26500000D01*
X37101499Y-24568719D02*
X37101499Y-25931281D01*
X39000000Y-23500000D02*
X38170218Y-23500000D01*
X37670218Y-26500000D02*
X61960000Y-26500000D01*
X61960000Y-26500000D02*
X62000000Y-26500000D01*
X62000000Y-26500000D02*
X64000000Y-28500000D01*
X67580000Y-32080000D02*
X67580000Y-36120000D01*
X64000000Y-28500000D02*
X67580000Y-32080000D01*
D23*
X37373000Y-49373000D02*
X24127000Y-49373000D01*
X24127000Y-34393679D01*
X34692000Y-34393679D01*
X34692000Y-34606321D01*
X34733485Y-34814878D01*
X34814860Y-35011335D01*
X34932998Y-35188141D01*
X35083359Y-35338502D01*
X35260165Y-35456640D01*
X35456622Y-35538015D01*
X35665179Y-35579500D01*
X35877821Y-35579500D01*
X36086378Y-35538015D01*
X36282835Y-35456640D01*
X36459641Y-35338502D01*
X36610002Y-35188141D01*
X36728140Y-35011335D01*
X36809515Y-34814878D01*
X36851000Y-34606321D01*
X36851000Y-34393679D01*
X36809515Y-34185122D01*
X36728140Y-33988665D01*
X36610002Y-33811859D01*
X36459641Y-33661498D01*
X36282835Y-33543360D01*
X36086378Y-33461985D01*
X35877821Y-33420500D01*
X35665179Y-33420500D01*
X35456622Y-33461985D01*
X35260165Y-33543360D01*
X35083359Y-33661498D01*
X34932998Y-33811859D01*
X34814860Y-33988665D01*
X34733485Y-34185122D01*
X34692000Y-34393679D01*
X24127000Y-34393679D01*
X24127000Y-32627000D01*
X37373000Y-32627000D01*
X37373000Y-49373000D01*
G04 #@! TA.AperFunction,Conductor*
D24*
G36*
X37373000Y-49373000D02*
G01*
X24127000Y-49373000D01*
X24127000Y-34393679D01*
X34692000Y-34393679D01*
X34692000Y-34606321D01*
X34733485Y-34814878D01*
X34814860Y-35011335D01*
X34932998Y-35188141D01*
X35083359Y-35338502D01*
X35260165Y-35456640D01*
X35456622Y-35538015D01*
X35665179Y-35579500D01*
X35877821Y-35579500D01*
X36086378Y-35538015D01*
X36282835Y-35456640D01*
X36459641Y-35338502D01*
X36610002Y-35188141D01*
X36728140Y-35011335D01*
X36809515Y-34814878D01*
X36851000Y-34606321D01*
X36851000Y-34393679D01*
X36809515Y-34185122D01*
X36728140Y-33988665D01*
X36610002Y-33811859D01*
X36459641Y-33661498D01*
X36282835Y-33543360D01*
X36086378Y-33461985D01*
X35877821Y-33420500D01*
X35665179Y-33420500D01*
X35456622Y-33461985D01*
X35260165Y-33543360D01*
X35083359Y-33661498D01*
X34932998Y-33811859D01*
X34814860Y-33988665D01*
X34733485Y-34185122D01*
X34692000Y-34393679D01*
X24127000Y-34393679D01*
X24127000Y-32627000D01*
X37373000Y-32627000D01*
X37373000Y-49373000D01*
G37*
G04 #@! TD.AperFunction*
D23*
X46174880Y-35229465D02*
X46021995Y-35458273D01*
X45916686Y-35712510D01*
X45863000Y-35982408D01*
X45863000Y-36257592D01*
X45916686Y-36527490D01*
X46021995Y-36781727D01*
X46174880Y-37010535D01*
X46369465Y-37205120D01*
X46598273Y-37358005D01*
X46852510Y-37463314D01*
X47122408Y-37517000D01*
X47397592Y-37517000D01*
X47667490Y-37463314D01*
X47921727Y-37358005D01*
X48150535Y-37205120D01*
X48345120Y-37010535D01*
X48498005Y-36781727D01*
X48530000Y-36704485D01*
X48561995Y-36781727D01*
X48714880Y-37010535D01*
X48909465Y-37205120D01*
X49138273Y-37358005D01*
X49392510Y-37463314D01*
X49662408Y-37517000D01*
X49937592Y-37517000D01*
X50207490Y-37463314D01*
X50461727Y-37358005D01*
X50690535Y-37205120D01*
X50885120Y-37010535D01*
X51038005Y-36781727D01*
X51070000Y-36704485D01*
X51101995Y-36781727D01*
X51254880Y-37010535D01*
X51449465Y-37205120D01*
X51678273Y-37358005D01*
X51932510Y-37463314D01*
X52202408Y-37517000D01*
X52477592Y-37517000D01*
X52747490Y-37463314D01*
X53001727Y-37358005D01*
X53230535Y-37205120D01*
X53425120Y-37010535D01*
X53578005Y-36781727D01*
X53610000Y-36704485D01*
X53641995Y-36781727D01*
X53794880Y-37010535D01*
X53989465Y-37205120D01*
X54218273Y-37358005D01*
X54472510Y-37463314D01*
X54742408Y-37517000D01*
X55017592Y-37517000D01*
X55287490Y-37463314D01*
X55541727Y-37358005D01*
X55770535Y-37205120D01*
X55965120Y-37010535D01*
X56118005Y-36781727D01*
X56150000Y-36704485D01*
X56181995Y-36781727D01*
X56334880Y-37010535D01*
X56529465Y-37205120D01*
X56758273Y-37358005D01*
X57012510Y-37463314D01*
X57282408Y-37517000D01*
X57557592Y-37517000D01*
X57827490Y-37463314D01*
X58081727Y-37358005D01*
X58310535Y-37205120D01*
X58505120Y-37010535D01*
X58658005Y-36781727D01*
X58690000Y-36704485D01*
X58721995Y-36781727D01*
X58874880Y-37010535D01*
X59069465Y-37205120D01*
X59298273Y-37358005D01*
X59552510Y-37463314D01*
X59822408Y-37517000D01*
X60097592Y-37517000D01*
X60367490Y-37463314D01*
X60621727Y-37358005D01*
X60850535Y-37205120D01*
X61045120Y-37010535D01*
X61198005Y-36781727D01*
X61230000Y-36704485D01*
X61261995Y-36781727D01*
X61414880Y-37010535D01*
X61609465Y-37205120D01*
X61838273Y-37358005D01*
X62092510Y-37463314D01*
X62362408Y-37517000D01*
X62637592Y-37517000D01*
X62907490Y-37463314D01*
X63161727Y-37358005D01*
X63390535Y-37205120D01*
X63585120Y-37010535D01*
X63738005Y-36781727D01*
X63770000Y-36704485D01*
X63801995Y-36781727D01*
X63954880Y-37010535D01*
X64149465Y-37205120D01*
X64378273Y-37358005D01*
X64632510Y-37463314D01*
X64902408Y-37517000D01*
X65177592Y-37517000D01*
X65447490Y-37463314D01*
X65701727Y-37358005D01*
X65930535Y-37205120D01*
X66125120Y-37010535D01*
X66278005Y-36781727D01*
X66310000Y-36704485D01*
X66341995Y-36781727D01*
X66494880Y-37010535D01*
X66689465Y-37205120D01*
X66918273Y-37358005D01*
X67172510Y-37463314D01*
X67442408Y-37517000D01*
X67717592Y-37517000D01*
X67987490Y-37463314D01*
X68241727Y-37358005D01*
X68470535Y-37205120D01*
X68665120Y-37010535D01*
X68818005Y-36781727D01*
X68850000Y-36704485D01*
X68881995Y-36781727D01*
X69034880Y-37010535D01*
X69229465Y-37205120D01*
X69458273Y-37358005D01*
X69712510Y-37463314D01*
X69982408Y-37517000D01*
X70257592Y-37517000D01*
X70527490Y-37463314D01*
X70781727Y-37358005D01*
X71010535Y-37205120D01*
X71205120Y-37010535D01*
X71358005Y-36781727D01*
X71390000Y-36704485D01*
X71421995Y-36781727D01*
X71574880Y-37010535D01*
X71769465Y-37205120D01*
X71998273Y-37358005D01*
X72252510Y-37463314D01*
X72522408Y-37517000D01*
X72797592Y-37517000D01*
X73067490Y-37463314D01*
X73321727Y-37358005D01*
X73550535Y-37205120D01*
X73745120Y-37010535D01*
X73898005Y-36781727D01*
X73930000Y-36704485D01*
X73961995Y-36781727D01*
X74114880Y-37010535D01*
X74309465Y-37205120D01*
X74538273Y-37358005D01*
X74792510Y-37463314D01*
X75062408Y-37517000D01*
X75337592Y-37517000D01*
X75607490Y-37463314D01*
X75861727Y-37358005D01*
X76090535Y-37205120D01*
X76285120Y-37010535D01*
X76438005Y-36781727D01*
X76470000Y-36704485D01*
X76501995Y-36781727D01*
X76654880Y-37010535D01*
X76849465Y-37205120D01*
X77078273Y-37358005D01*
X77332510Y-37463314D01*
X77602408Y-37517000D01*
X77877592Y-37517000D01*
X78147490Y-37463314D01*
X78401727Y-37358005D01*
X78630535Y-37205120D01*
X78825120Y-37010535D01*
X78978005Y-36781727D01*
X79010000Y-36704485D01*
X79041995Y-36781727D01*
X79194880Y-37010535D01*
X79389465Y-37205120D01*
X79618273Y-37358005D01*
X79872510Y-37463314D01*
X80142408Y-37517000D01*
X80417592Y-37517000D01*
X80687490Y-37463314D01*
X80941727Y-37358005D01*
X81170535Y-37205120D01*
X81365120Y-37010535D01*
X81518005Y-36781727D01*
X81623314Y-36527490D01*
X81677000Y-36257592D01*
X81677000Y-35982408D01*
X81623314Y-35712510D01*
X81518005Y-35458273D01*
X81365120Y-35229465D01*
X81262655Y-35127000D01*
X91986060Y-35127000D01*
X91961985Y-35185122D01*
X91920500Y-35393679D01*
X91920500Y-35606321D01*
X91961985Y-35814878D01*
X92043360Y-36011335D01*
X92161498Y-36188141D01*
X92311859Y-36338502D01*
X92488665Y-36456640D01*
X92685122Y-36538015D01*
X92893679Y-36579500D01*
X93106321Y-36579500D01*
X93314878Y-36538015D01*
X93511335Y-36456640D01*
X93688141Y-36338502D01*
X93838502Y-36188141D01*
X93956640Y-36011335D01*
X94038015Y-35814878D01*
X94079500Y-35606321D01*
X94079500Y-35393679D01*
X94038015Y-35185122D01*
X94013940Y-35127000D01*
X104340000Y-35127000D01*
X104340000Y-37314101D01*
X104338502Y-37311859D01*
X104188141Y-37161498D01*
X104011335Y-37043360D01*
X103814878Y-36961985D01*
X103606321Y-36920500D01*
X103393679Y-36920500D01*
X103185122Y-36961985D01*
X102988665Y-37043360D01*
X102811859Y-37161498D01*
X102661498Y-37311859D01*
X102543360Y-37488665D01*
X102461985Y-37685122D01*
X102420500Y-37893679D01*
X102420500Y-38106321D01*
X102461985Y-38314878D01*
X102543360Y-38511335D01*
X102661498Y-38688141D01*
X102811859Y-38838502D01*
X102988665Y-38956640D01*
X103185122Y-39038015D01*
X103393679Y-39079500D01*
X103606321Y-39079500D01*
X103814878Y-39038015D01*
X104011335Y-38956640D01*
X104188141Y-38838502D01*
X104338502Y-38688141D01*
X104340000Y-38685899D01*
X104340001Y-76873000D01*
X61127000Y-76873000D01*
X61127000Y-71500000D01*
X61124560Y-71475224D01*
X61117333Y-71451399D01*
X61105597Y-71429443D01*
X61084778Y-71405440D01*
X59917222Y-70358665D01*
X71065000Y-70358665D01*
X71065000Y-70641335D01*
X71120147Y-70918574D01*
X71228320Y-71179727D01*
X71385363Y-71414759D01*
X71585241Y-71614637D01*
X71820273Y-71771680D01*
X72081426Y-71879853D01*
X72358665Y-71935000D01*
X72641335Y-71935000D01*
X72918574Y-71879853D01*
X73179727Y-71771680D01*
X73414759Y-71614637D01*
X73614637Y-71414759D01*
X73628722Y-71393679D01*
X85420500Y-71393679D01*
X85420500Y-71606321D01*
X85461985Y-71814878D01*
X85538665Y-72000000D01*
X85461985Y-72185122D01*
X85420500Y-72393679D01*
X85420500Y-72606321D01*
X85461985Y-72814878D01*
X85538665Y-73000000D01*
X85461985Y-73185122D01*
X85420500Y-73393679D01*
X85420500Y-73606321D01*
X85461985Y-73814878D01*
X85543360Y-74011335D01*
X85661498Y-74188141D01*
X85811859Y-74338502D01*
X85988665Y-74456640D01*
X86185122Y-74538015D01*
X86393679Y-74579500D01*
X86606321Y-74579500D01*
X86814878Y-74538015D01*
X87011335Y-74456640D01*
X87188141Y-74338502D01*
X87338502Y-74188141D01*
X87456640Y-74011335D01*
X87538015Y-73814878D01*
X87579500Y-73606321D01*
X87579500Y-73393679D01*
X87538015Y-73185122D01*
X87461335Y-73000000D01*
X87538015Y-72814878D01*
X87579500Y-72606321D01*
X87579500Y-72393679D01*
X87538015Y-72185122D01*
X87461335Y-72000000D01*
X87505374Y-71893679D01*
X90920500Y-71893679D01*
X90920500Y-72106321D01*
X90961985Y-72314878D01*
X91043360Y-72511335D01*
X91161498Y-72688141D01*
X91311859Y-72838502D01*
X91488665Y-72956640D01*
X91685122Y-73038015D01*
X91893679Y-73079500D01*
X92106321Y-73079500D01*
X92314878Y-73038015D01*
X92511335Y-72956640D01*
X92688141Y-72838502D01*
X92717224Y-72809419D01*
X98565000Y-72809419D01*
X98565000Y-73190581D01*
X98639361Y-73564419D01*
X98785225Y-73916566D01*
X98996987Y-74233491D01*
X99266509Y-74503013D01*
X99583434Y-74714775D01*
X99935581Y-74860639D01*
X100309419Y-74935000D01*
X100690581Y-74935000D01*
X101064419Y-74860639D01*
X101416566Y-74714775D01*
X101733491Y-74503013D01*
X102003013Y-74233491D01*
X102214775Y-73916566D01*
X102360639Y-73564419D01*
X102435000Y-73190581D01*
X102435000Y-72809419D01*
X102360639Y-72435581D01*
X102214775Y-72083434D01*
X102003013Y-71766509D01*
X101733491Y-71496987D01*
X101416566Y-71285225D01*
X101064419Y-71139361D01*
X100690581Y-71065000D01*
X100309419Y-71065000D01*
X99935581Y-71139361D01*
X99583434Y-71285225D01*
X99266509Y-71496987D01*
X98996987Y-71766509D01*
X98785225Y-72083434D01*
X98639361Y-72435581D01*
X98565000Y-72809419D01*
X92717224Y-72809419D01*
X92838502Y-72688141D01*
X92956640Y-72511335D01*
X93038015Y-72314878D01*
X93079500Y-72106321D01*
X93079500Y-71893679D01*
X93038015Y-71685122D01*
X92956640Y-71488665D01*
X92838502Y-71311859D01*
X92688141Y-71161498D01*
X92511335Y-71043360D01*
X92314878Y-70961985D01*
X92106321Y-70920500D01*
X91893679Y-70920500D01*
X91685122Y-70961985D01*
X91488665Y-71043360D01*
X91311859Y-71161498D01*
X91161498Y-71311859D01*
X91043360Y-71488665D01*
X90961985Y-71685122D01*
X90920500Y-71893679D01*
X87505374Y-71893679D01*
X87538015Y-71814878D01*
X87579500Y-71606321D01*
X87579500Y-71393679D01*
X87538015Y-71185122D01*
X87456640Y-70988665D01*
X87338502Y-70811859D01*
X87188141Y-70661498D01*
X87011335Y-70543360D01*
X86814878Y-70461985D01*
X86606321Y-70420500D01*
X86393679Y-70420500D01*
X86185122Y-70461985D01*
X85988665Y-70543360D01*
X85811859Y-70661498D01*
X85661498Y-70811859D01*
X85543360Y-70988665D01*
X85461985Y-71185122D01*
X85420500Y-71393679D01*
X73628722Y-71393679D01*
X73771680Y-71179727D01*
X73879853Y-70918574D01*
X73935000Y-70641335D01*
X73935000Y-70358665D01*
X73879853Y-70081426D01*
X73771680Y-69820273D01*
X73614637Y-69585241D01*
X73414759Y-69385363D01*
X73179727Y-69228320D01*
X72918574Y-69120147D01*
X72641335Y-69065000D01*
X72358665Y-69065000D01*
X72081426Y-69120147D01*
X71820273Y-69228320D01*
X71585241Y-69385363D01*
X71385363Y-69585241D01*
X71228320Y-69820273D01*
X71120147Y-70081426D01*
X71065000Y-70358665D01*
X59917222Y-70358665D01*
X59385088Y-69881580D01*
X59338502Y-69811859D01*
X59188141Y-69661498D01*
X59011335Y-69543360D01*
X59004844Y-69540671D01*
X57725507Y-68393679D01*
X90920500Y-68393679D01*
X90920500Y-68606321D01*
X90961985Y-68814878D01*
X91043360Y-69011335D01*
X91161498Y-69188141D01*
X91311859Y-69338502D01*
X91488665Y-69456640D01*
X91685122Y-69538015D01*
X91893679Y-69579500D01*
X92106321Y-69579500D01*
X92314878Y-69538015D01*
X92511335Y-69456640D01*
X92688141Y-69338502D01*
X92838502Y-69188141D01*
X92956640Y-69011335D01*
X93038015Y-68814878D01*
X93079500Y-68606321D01*
X93079500Y-68393679D01*
X93038015Y-68185122D01*
X92956640Y-67988665D01*
X92838502Y-67811859D01*
X92688141Y-67661498D01*
X92511335Y-67543360D01*
X92314878Y-67461985D01*
X92106321Y-67420500D01*
X91893679Y-67420500D01*
X91685122Y-67461985D01*
X91488665Y-67543360D01*
X91311859Y-67661498D01*
X91161498Y-67811859D01*
X91043360Y-67988665D01*
X90961985Y-68185122D01*
X90920500Y-68393679D01*
X57725507Y-68393679D01*
X55303984Y-66222659D01*
X55338502Y-66188141D01*
X55456640Y-66011335D01*
X55538015Y-65814878D01*
X55579500Y-65606321D01*
X55579500Y-65393679D01*
X55920500Y-65393679D01*
X55920500Y-65606321D01*
X55961985Y-65814878D01*
X56043360Y-66011335D01*
X56161498Y-66188141D01*
X56311859Y-66338502D01*
X56488665Y-66456640D01*
X56685122Y-66538015D01*
X56893679Y-66579500D01*
X57106321Y-66579500D01*
X57314878Y-66538015D01*
X57511335Y-66456640D01*
X57688141Y-66338502D01*
X57838502Y-66188141D01*
X57956640Y-66011335D01*
X58038015Y-65814878D01*
X58079500Y-65606321D01*
X58079500Y-65393679D01*
X58073515Y-65363589D01*
X63115000Y-65363589D01*
X63115000Y-65636411D01*
X63168225Y-65903989D01*
X63272629Y-66156043D01*
X63424201Y-66382886D01*
X63617114Y-66575799D01*
X63843957Y-66727371D01*
X64096011Y-66831775D01*
X64363589Y-66885000D01*
X64636411Y-66885000D01*
X64903989Y-66831775D01*
X65156043Y-66727371D01*
X65382886Y-66575799D01*
X65575799Y-66382886D01*
X65727371Y-66156043D01*
X65770000Y-66053127D01*
X65812629Y-66156043D01*
X65964201Y-66382886D01*
X66157114Y-66575799D01*
X66383957Y-66727371D01*
X66636011Y-66831775D01*
X66903589Y-66885000D01*
X67176411Y-66885000D01*
X67443989Y-66831775D01*
X67696043Y-66727371D01*
X67922886Y-66575799D01*
X68115799Y-66382886D01*
X68267371Y-66156043D01*
X68371775Y-65903989D01*
X68425000Y-65636411D01*
X68425000Y-65363589D01*
X68424021Y-65358665D01*
X73565000Y-65358665D01*
X73565000Y-65641335D01*
X73620147Y-65918574D01*
X73728320Y-66179727D01*
X73885363Y-66414759D01*
X74085241Y-66614637D01*
X74320273Y-66771680D01*
X74581426Y-66879853D01*
X74858665Y-66935000D01*
X75141335Y-66935000D01*
X75418574Y-66879853D01*
X75679727Y-66771680D01*
X75914759Y-66614637D01*
X76114637Y-66414759D01*
X76271680Y-66179727D01*
X76379853Y-65918574D01*
X76423330Y-65700000D01*
X81061928Y-65700000D01*
X81061928Y-67300000D01*
X81074188Y-67424482D01*
X81110498Y-67544180D01*
X81169463Y-67654494D01*
X81248815Y-67751185D01*
X81345506Y-67830537D01*
X81455820Y-67889502D01*
X81575518Y-67925812D01*
X81700000Y-67938072D01*
X83300000Y-67938072D01*
X83424482Y-67925812D01*
X83544180Y-67889502D01*
X83654494Y-67830537D01*
X83751185Y-67751185D01*
X83830537Y-67654494D01*
X83889502Y-67544180D01*
X83918661Y-67448057D01*
X84085241Y-67614637D01*
X84320273Y-67771680D01*
X84581426Y-67879853D01*
X84858665Y-67935000D01*
X85141335Y-67935000D01*
X85418574Y-67879853D01*
X85679727Y-67771680D01*
X85914759Y-67614637D01*
X86114637Y-67414759D01*
X86271680Y-67179727D01*
X86379853Y-66918574D01*
X86435000Y-66641335D01*
X86435000Y-66358665D01*
X86379853Y-66081426D01*
X86271680Y-65820273D01*
X86114637Y-65585241D01*
X85914759Y-65385363D01*
X85679727Y-65228320D01*
X85418574Y-65120147D01*
X85141335Y-65065000D01*
X84858665Y-65065000D01*
X84581426Y-65120147D01*
X84320273Y-65228320D01*
X84085241Y-65385363D01*
X83918661Y-65551943D01*
X83889502Y-65455820D01*
X83830537Y-65345506D01*
X83751185Y-65248815D01*
X83654494Y-65169463D01*
X83544180Y-65110498D01*
X83424482Y-65074188D01*
X83300000Y-65061928D01*
X81700000Y-65061928D01*
X81575518Y-65074188D01*
X81455820Y-65110498D01*
X81345506Y-65169463D01*
X81248815Y-65248815D01*
X81169463Y-65345506D01*
X81110498Y-65455820D01*
X81074188Y-65575518D01*
X81061928Y-65700000D01*
X76423330Y-65700000D01*
X76435000Y-65641335D01*
X76435000Y-65358665D01*
X76379853Y-65081426D01*
X76271680Y-64820273D01*
X76114637Y-64585241D01*
X75914759Y-64385363D01*
X75679727Y-64228320D01*
X75418574Y-64120147D01*
X75141335Y-64065000D01*
X74858665Y-64065000D01*
X74581426Y-64120147D01*
X74320273Y-64228320D01*
X74085241Y-64385363D01*
X73885363Y-64585241D01*
X73728320Y-64820273D01*
X73620147Y-65081426D01*
X73565000Y-65358665D01*
X68424021Y-65358665D01*
X68371775Y-65096011D01*
X68267371Y-64843957D01*
X68115799Y-64617114D01*
X67922886Y-64424201D01*
X67696043Y-64272629D01*
X67443989Y-64168225D01*
X67176411Y-64115000D01*
X66903589Y-64115000D01*
X66636011Y-64168225D01*
X66383957Y-64272629D01*
X66157114Y-64424201D01*
X65964201Y-64617114D01*
X65812629Y-64843957D01*
X65770000Y-64946873D01*
X65727371Y-64843957D01*
X65575799Y-64617114D01*
X65382886Y-64424201D01*
X65156043Y-64272629D01*
X64903989Y-64168225D01*
X64636411Y-64115000D01*
X64363589Y-64115000D01*
X64096011Y-64168225D01*
X63843957Y-64272629D01*
X63617114Y-64424201D01*
X63424201Y-64617114D01*
X63272629Y-64843957D01*
X63168225Y-65096011D01*
X63115000Y-65363589D01*
X58073515Y-65363589D01*
X58038015Y-65185122D01*
X57956640Y-64988665D01*
X57838502Y-64811859D01*
X57688141Y-64661498D01*
X57511335Y-64543360D01*
X57314878Y-64461985D01*
X57106321Y-64420500D01*
X56893679Y-64420500D01*
X56685122Y-64461985D01*
X56488665Y-64543360D01*
X56311859Y-64661498D01*
X56161498Y-64811859D01*
X56043360Y-64988665D01*
X55961985Y-65185122D01*
X55920500Y-65393679D01*
X55579500Y-65393679D01*
X55538015Y-65185122D01*
X55456640Y-64988665D01*
X55338502Y-64811859D01*
X55188141Y-64661498D01*
X55011335Y-64543360D01*
X54814878Y-64461985D01*
X54606321Y-64420500D01*
X54393679Y-64420500D01*
X54185122Y-64461985D01*
X53988665Y-64543360D01*
X53811859Y-64661498D01*
X53694070Y-64779287D01*
X49073120Y-60636368D01*
X49079164Y-60605985D01*
X49079164Y-60393343D01*
X49037679Y-60184786D01*
X48956304Y-59988329D01*
X48951649Y-59981363D01*
X49011335Y-59956640D01*
X49188141Y-59838502D01*
X49338502Y-59688141D01*
X49456640Y-59511335D01*
X49538015Y-59314878D01*
X49579500Y-59106321D01*
X49579500Y-58893679D01*
X57420500Y-58893679D01*
X57420500Y-59106321D01*
X57461985Y-59314878D01*
X57543360Y-59511335D01*
X57661498Y-59688141D01*
X57811859Y-59838502D01*
X57988665Y-59956640D01*
X58185122Y-60038015D01*
X58393679Y-60079500D01*
X58606321Y-60079500D01*
X58814878Y-60038015D01*
X59011335Y-59956640D01*
X59188141Y-59838502D01*
X59338502Y-59688141D01*
X59456640Y-59511335D01*
X59538015Y-59314878D01*
X59579500Y-59106321D01*
X59579500Y-58893679D01*
X61420500Y-58893679D01*
X61420500Y-59106321D01*
X61461985Y-59314878D01*
X61543360Y-59511335D01*
X61661498Y-59688141D01*
X61811859Y-59838502D01*
X61988665Y-59956640D01*
X62185122Y-60038015D01*
X62393679Y-60079500D01*
X62606321Y-60079500D01*
X62814878Y-60038015D01*
X63000000Y-59961335D01*
X63185122Y-60038015D01*
X63393679Y-60079500D01*
X63606321Y-60079500D01*
X63814878Y-60038015D01*
X64011335Y-59956640D01*
X64188141Y-59838502D01*
X64338502Y-59688141D01*
X64456640Y-59511335D01*
X64538015Y-59314878D01*
X64579500Y-59106321D01*
X64579500Y-58893679D01*
X69920500Y-58893679D01*
X69920500Y-59106321D01*
X69961985Y-59314878D01*
X70038665Y-59500000D01*
X69961985Y-59685122D01*
X69920500Y-59893679D01*
X69920500Y-60106321D01*
X69961985Y-60314878D01*
X70038665Y-60500000D01*
X69961985Y-60685122D01*
X69920500Y-60893679D01*
X69920500Y-61106321D01*
X69961985Y-61314878D01*
X70043360Y-61511335D01*
X70161498Y-61688141D01*
X70311859Y-61838502D01*
X70488665Y-61956640D01*
X70685122Y-62038015D01*
X70893679Y-62079500D01*
X71106321Y-62079500D01*
X71314878Y-62038015D01*
X71511335Y-61956640D01*
X71688141Y-61838502D01*
X71838502Y-61688141D01*
X71956640Y-61511335D01*
X72005374Y-61393679D01*
X89420500Y-61393679D01*
X89420500Y-61606321D01*
X89461985Y-61814878D01*
X89543360Y-62011335D01*
X89661498Y-62188141D01*
X89811859Y-62338502D01*
X89988665Y-62456640D01*
X90185122Y-62538015D01*
X90393679Y-62579500D01*
X90606321Y-62579500D01*
X90814878Y-62538015D01*
X91011335Y-62456640D01*
X91188141Y-62338502D01*
X91338502Y-62188141D01*
X91456640Y-62011335D01*
X91538015Y-61814878D01*
X91579500Y-61606321D01*
X91579500Y-61393679D01*
X91538015Y-61185122D01*
X91456640Y-60988665D01*
X91338502Y-60811859D01*
X91188141Y-60661498D01*
X91011335Y-60543360D01*
X90814878Y-60461985D01*
X90606321Y-60420500D01*
X90393679Y-60420500D01*
X90185122Y-60461985D01*
X89988665Y-60543360D01*
X89811859Y-60661498D01*
X89661498Y-60811859D01*
X89543360Y-60988665D01*
X89461985Y-61185122D01*
X89420500Y-61393679D01*
X72005374Y-61393679D01*
X72038015Y-61314878D01*
X72079500Y-61106321D01*
X72079500Y-60893679D01*
X72038015Y-60685122D01*
X71961335Y-60500000D01*
X72038015Y-60314878D01*
X72079500Y-60106321D01*
X72079500Y-59893679D01*
X72038015Y-59685122D01*
X72003286Y-59601278D01*
X83490000Y-59601278D01*
X83490000Y-59898722D01*
X83548029Y-60190451D01*
X83661856Y-60465253D01*
X83827107Y-60712569D01*
X84037431Y-60922893D01*
X84284747Y-61088144D01*
X84559549Y-61201971D01*
X84851278Y-61260000D01*
X85148722Y-61260000D01*
X85440451Y-61201971D01*
X85715253Y-61088144D01*
X85962569Y-60922893D01*
X86172893Y-60712569D01*
X86338144Y-60465253D01*
X86451971Y-60190451D01*
X86510000Y-59898722D01*
X86510000Y-59809419D01*
X98565000Y-59809419D01*
X98565000Y-60190581D01*
X98639361Y-60564419D01*
X98785225Y-60916566D01*
X98996987Y-61233491D01*
X99266509Y-61503013D01*
X99583434Y-61714775D01*
X99935581Y-61860639D01*
X100309419Y-61935000D01*
X100690581Y-61935000D01*
X101064419Y-61860639D01*
X101416566Y-61714775D01*
X101733491Y-61503013D01*
X102003013Y-61233491D01*
X102214775Y-60916566D01*
X102360639Y-60564419D01*
X102435000Y-60190581D01*
X102435000Y-59809419D01*
X102360639Y-59435581D01*
X102214775Y-59083434D01*
X102003013Y-58766509D01*
X101733491Y-58496987D01*
X101416566Y-58285225D01*
X101064419Y-58139361D01*
X100690581Y-58065000D01*
X100309419Y-58065000D01*
X99935581Y-58139361D01*
X99583434Y-58285225D01*
X99266509Y-58496987D01*
X98996987Y-58766509D01*
X98785225Y-59083434D01*
X98639361Y-59435581D01*
X98565000Y-59809419D01*
X86510000Y-59809419D01*
X86510000Y-59601278D01*
X86451971Y-59309549D01*
X86338144Y-59034747D01*
X86172893Y-58787431D01*
X85962569Y-58577107D01*
X85715253Y-58411856D01*
X85440451Y-58298029D01*
X85148722Y-58240000D01*
X84851278Y-58240000D01*
X84559549Y-58298029D01*
X84284747Y-58411856D01*
X84037431Y-58577107D01*
X83827107Y-58787431D01*
X83661856Y-59034747D01*
X83548029Y-59309549D01*
X83490000Y-59601278D01*
X72003286Y-59601278D01*
X71961335Y-59500000D01*
X72038015Y-59314878D01*
X72079500Y-59106321D01*
X72079500Y-58893679D01*
X72038015Y-58685122D01*
X71956640Y-58488665D01*
X71838502Y-58311859D01*
X71688141Y-58161498D01*
X71511335Y-58043360D01*
X71314878Y-57961985D01*
X71106321Y-57920500D01*
X70893679Y-57920500D01*
X70685122Y-57961985D01*
X70488665Y-58043360D01*
X70311859Y-58161498D01*
X70161498Y-58311859D01*
X70043360Y-58488665D01*
X69961985Y-58685122D01*
X69920500Y-58893679D01*
X64579500Y-58893679D01*
X64538015Y-58685122D01*
X64456640Y-58488665D01*
X64338502Y-58311859D01*
X64188141Y-58161498D01*
X64011335Y-58043360D01*
X63814878Y-57961985D01*
X63606321Y-57920500D01*
X63393679Y-57920500D01*
X63185122Y-57961985D01*
X63000000Y-58038665D01*
X62814878Y-57961985D01*
X62606321Y-57920500D01*
X62393679Y-57920500D01*
X62185122Y-57961985D01*
X61988665Y-58043360D01*
X61811859Y-58161498D01*
X61661498Y-58311859D01*
X61543360Y-58488665D01*
X61461985Y-58685122D01*
X61420500Y-58893679D01*
X59579500Y-58893679D01*
X59538015Y-58685122D01*
X59456640Y-58488665D01*
X59338502Y-58311859D01*
X59188141Y-58161498D01*
X59011335Y-58043360D01*
X58814878Y-57961985D01*
X58606321Y-57920500D01*
X58393679Y-57920500D01*
X58185122Y-57961985D01*
X57988665Y-58043360D01*
X57811859Y-58161498D01*
X57661498Y-58311859D01*
X57543360Y-58488665D01*
X57461985Y-58685122D01*
X57420500Y-58893679D01*
X49579500Y-58893679D01*
X49538015Y-58685122D01*
X49456640Y-58488665D01*
X49338502Y-58311859D01*
X49188141Y-58161498D01*
X49011335Y-58043360D01*
X48814878Y-57961985D01*
X48606321Y-57920500D01*
X48393679Y-57920500D01*
X48185122Y-57961985D01*
X47988665Y-58043360D01*
X47811859Y-58161498D01*
X47661498Y-58311859D01*
X47543360Y-58488665D01*
X47461985Y-58685122D01*
X47420500Y-58893679D01*
X47420500Y-59106321D01*
X47432214Y-59165210D01*
X46627000Y-58443294D01*
X46627000Y-54302050D01*
X48515000Y-54302050D01*
X48515000Y-54697949D01*
X48536487Y-54916110D01*
X48621401Y-55196033D01*
X48759294Y-55454013D01*
X48944866Y-55680134D01*
X49170986Y-55865706D01*
X49428966Y-56003599D01*
X49708889Y-56088513D01*
X50000000Y-56117185D01*
X50291110Y-56088513D01*
X50571033Y-56003599D01*
X50829013Y-55865706D01*
X51055134Y-55680134D01*
X51240706Y-55454014D01*
X51250000Y-55436626D01*
X51259294Y-55454013D01*
X51444866Y-55680134D01*
X51670986Y-55865706D01*
X51928966Y-56003599D01*
X52208889Y-56088513D01*
X52500000Y-56117185D01*
X52791110Y-56088513D01*
X53071033Y-56003599D01*
X53329013Y-55865706D01*
X53555134Y-55680134D01*
X53740706Y-55454014D01*
X53750000Y-55436626D01*
X53759294Y-55454013D01*
X53944866Y-55680134D01*
X54170986Y-55865706D01*
X54428966Y-56003599D01*
X54708889Y-56088513D01*
X55000000Y-56117185D01*
X55291110Y-56088513D01*
X55571033Y-56003599D01*
X55829013Y-55865706D01*
X56055134Y-55680134D01*
X56240706Y-55454014D01*
X56250000Y-55436626D01*
X56259294Y-55454013D01*
X56444866Y-55680134D01*
X56670986Y-55865706D01*
X56928966Y-56003599D01*
X57208889Y-56088513D01*
X57500000Y-56117185D01*
X57791110Y-56088513D01*
X58071033Y-56003599D01*
X58329013Y-55865706D01*
X58555134Y-55680134D01*
X58740706Y-55454014D01*
X58750000Y-55436626D01*
X58759294Y-55454013D01*
X58944866Y-55680134D01*
X59170986Y-55865706D01*
X59428966Y-56003599D01*
X59708889Y-56088513D01*
X60000000Y-56117185D01*
X60291110Y-56088513D01*
X60571033Y-56003599D01*
X60829013Y-55865706D01*
X61055134Y-55680134D01*
X61107223Y-55616663D01*
X61161595Y-55718386D01*
X61272038Y-55852962D01*
X61406614Y-55963405D01*
X61560150Y-56045472D01*
X61726746Y-56096008D01*
X61900000Y-56113072D01*
X63100000Y-56113072D01*
X63273254Y-56096008D01*
X63439850Y-56045472D01*
X63593386Y-55963405D01*
X63727962Y-55852962D01*
X63838405Y-55718386D01*
X63920472Y-55564850D01*
X63971008Y-55398254D01*
X63988072Y-55225000D01*
X63988072Y-53775000D01*
X63971008Y-53601746D01*
X63920472Y-53435150D01*
X63898306Y-53393679D01*
X72920500Y-53393679D01*
X72920500Y-53606321D01*
X72961985Y-53814878D01*
X73038665Y-54000000D01*
X72961985Y-54185122D01*
X72920500Y-54393679D01*
X72920500Y-54606321D01*
X72961985Y-54814878D01*
X73038665Y-55000000D01*
X72961985Y-55185122D01*
X72920500Y-55393679D01*
X72920500Y-55606321D01*
X72961985Y-55814878D01*
X73043360Y-56011335D01*
X73161498Y-56188141D01*
X73311859Y-56338502D01*
X73488665Y-56456640D01*
X73685122Y-56538015D01*
X73893679Y-56579500D01*
X74106321Y-56579500D01*
X74314878Y-56538015D01*
X74511335Y-56456640D01*
X74688141Y-56338502D01*
X74838502Y-56188141D01*
X74956640Y-56011335D01*
X75038015Y-55814878D01*
X75079500Y-55606321D01*
X75079500Y-55393679D01*
X75038015Y-55185122D01*
X74961335Y-55000000D01*
X75038015Y-54814878D01*
X75079500Y-54606321D01*
X75079500Y-54393679D01*
X75038015Y-54185122D01*
X74961335Y-54000000D01*
X75038015Y-53814878D01*
X75079500Y-53606321D01*
X75079500Y-53393679D01*
X75038015Y-53185122D01*
X75003286Y-53101278D01*
X83490000Y-53101278D01*
X83490000Y-53398722D01*
X83548029Y-53690451D01*
X83661856Y-53965253D01*
X83827107Y-54212569D01*
X84037431Y-54422893D01*
X84284747Y-54588144D01*
X84559549Y-54701971D01*
X84851278Y-54760000D01*
X85148722Y-54760000D01*
X85440451Y-54701971D01*
X85715253Y-54588144D01*
X85962569Y-54422893D01*
X86172893Y-54212569D01*
X86338144Y-53965253D01*
X86451971Y-53690451D01*
X86510000Y-53398722D01*
X86510000Y-53101278D01*
X86451971Y-52809549D01*
X86338144Y-52534747D01*
X86172893Y-52287431D01*
X85962569Y-52077107D01*
X85715253Y-51911856D01*
X85440451Y-51798029D01*
X85148722Y-51740000D01*
X84851278Y-51740000D01*
X84559549Y-51798029D01*
X84284747Y-51911856D01*
X84037431Y-52077107D01*
X83827107Y-52287431D01*
X83661856Y-52534747D01*
X83548029Y-52809549D01*
X83490000Y-53101278D01*
X75003286Y-53101278D01*
X74956640Y-52988665D01*
X74838502Y-52811859D01*
X74688141Y-52661498D01*
X74511335Y-52543360D01*
X74314878Y-52461985D01*
X74106321Y-52420500D01*
X73893679Y-52420500D01*
X73685122Y-52461985D01*
X73488665Y-52543360D01*
X73311859Y-52661498D01*
X73161498Y-52811859D01*
X73043360Y-52988665D01*
X72961985Y-53185122D01*
X72920500Y-53393679D01*
X63898306Y-53393679D01*
X63838405Y-53281614D01*
X63727962Y-53147038D01*
X63593386Y-53036595D01*
X63439850Y-52954528D01*
X63273254Y-52903992D01*
X63100000Y-52886928D01*
X61900000Y-52886928D01*
X61726746Y-52903992D01*
X61560150Y-52954528D01*
X61406614Y-53036595D01*
X61272038Y-53147038D01*
X61161595Y-53281614D01*
X61107223Y-53383337D01*
X61055134Y-53319866D01*
X60829014Y-53134294D01*
X60571034Y-52996401D01*
X60291111Y-52911487D01*
X60000000Y-52882815D01*
X59708890Y-52911487D01*
X59428967Y-52996401D01*
X59170987Y-53134294D01*
X58944866Y-53319866D01*
X58759294Y-53545986D01*
X58750000Y-53563374D01*
X58740706Y-53545986D01*
X58555134Y-53319866D01*
X58329014Y-53134294D01*
X58071034Y-52996401D01*
X57791111Y-52911487D01*
X57500000Y-52882815D01*
X57208890Y-52911487D01*
X56928967Y-52996401D01*
X56670987Y-53134294D01*
X56444866Y-53319866D01*
X56259294Y-53545986D01*
X56250000Y-53563374D01*
X56240706Y-53545986D01*
X56055134Y-53319866D01*
X55829014Y-53134294D01*
X55571034Y-52996401D01*
X55291111Y-52911487D01*
X55000000Y-52882815D01*
X54708890Y-52911487D01*
X54428967Y-52996401D01*
X54170987Y-53134294D01*
X53944866Y-53319866D01*
X53759294Y-53545986D01*
X53750000Y-53563374D01*
X53740706Y-53545986D01*
X53555134Y-53319866D01*
X53329014Y-53134294D01*
X53071034Y-52996401D01*
X52791111Y-52911487D01*
X52500000Y-52882815D01*
X52208890Y-52911487D01*
X51928967Y-52996401D01*
X51670987Y-53134294D01*
X51444866Y-53319866D01*
X51259294Y-53545986D01*
X51250000Y-53563374D01*
X51240706Y-53545986D01*
X51055134Y-53319866D01*
X50829014Y-53134294D01*
X50571034Y-52996401D01*
X50291111Y-52911487D01*
X50000000Y-52882815D01*
X49708890Y-52911487D01*
X49428967Y-52996401D01*
X49170987Y-53134294D01*
X48944866Y-53319866D01*
X48759294Y-53545986D01*
X48621401Y-53803966D01*
X48536487Y-54083889D01*
X48515000Y-54302050D01*
X46627000Y-54302050D01*
X46627000Y-53000000D01*
X46624560Y-52975224D01*
X46617333Y-52951399D01*
X46605597Y-52929443D01*
X46589803Y-52910197D01*
X44589803Y-50910197D01*
X44570557Y-50894403D01*
X44569203Y-50893679D01*
X69920500Y-50893679D01*
X69920500Y-51106321D01*
X69961985Y-51314878D01*
X70043360Y-51511335D01*
X70161498Y-51688141D01*
X70311859Y-51838502D01*
X70488665Y-51956640D01*
X70685122Y-52038015D01*
X70893679Y-52079500D01*
X71106321Y-52079500D01*
X71314878Y-52038015D01*
X71511335Y-51956640D01*
X71688141Y-51838502D01*
X71838502Y-51688141D01*
X71956640Y-51511335D01*
X72038015Y-51314878D01*
X72079500Y-51106321D01*
X72079500Y-50893679D01*
X72038015Y-50685122D01*
X71956640Y-50488665D01*
X71838502Y-50311859D01*
X71688141Y-50161498D01*
X71511335Y-50043360D01*
X71314878Y-49961985D01*
X71106321Y-49920500D01*
X70893679Y-49920500D01*
X70685122Y-49961985D01*
X70488665Y-50043360D01*
X70311859Y-50161498D01*
X70161498Y-50311859D01*
X70043360Y-50488665D01*
X69961985Y-50685122D01*
X69920500Y-50893679D01*
X44569203Y-50893679D01*
X44548601Y-50882667D01*
X44524776Y-50875440D01*
X44500000Y-50873000D01*
X39627000Y-50873000D01*
X39627000Y-46893679D01*
X49420500Y-46893679D01*
X49420500Y-47106321D01*
X49461985Y-47314878D01*
X49543360Y-47511335D01*
X49661498Y-47688141D01*
X49811859Y-47838502D01*
X49988665Y-47956640D01*
X50185122Y-48038015D01*
X50393679Y-48079500D01*
X50606321Y-48079500D01*
X50814878Y-48038015D01*
X51011335Y-47956640D01*
X51188141Y-47838502D01*
X51338502Y-47688141D01*
X51456640Y-47511335D01*
X51538015Y-47314878D01*
X51579500Y-47106321D01*
X51579500Y-46893679D01*
X51538015Y-46685122D01*
X51456640Y-46488665D01*
X51338502Y-46311859D01*
X51188141Y-46161498D01*
X51011335Y-46043360D01*
X50814878Y-45961985D01*
X50606321Y-45920500D01*
X50393679Y-45920500D01*
X50185122Y-45961985D01*
X49988665Y-46043360D01*
X49811859Y-46161498D01*
X49661498Y-46311859D01*
X49543360Y-46488665D01*
X49461985Y-46685122D01*
X49420500Y-46893679D01*
X39627000Y-46893679D01*
X39627000Y-43893679D01*
X50920500Y-43893679D01*
X50920500Y-44106321D01*
X50961985Y-44314878D01*
X51043360Y-44511335D01*
X51161498Y-44688141D01*
X51311859Y-44838502D01*
X51488665Y-44956640D01*
X51685122Y-45038015D01*
X51893679Y-45079500D01*
X52106321Y-45079500D01*
X52314878Y-45038015D01*
X52511335Y-44956640D01*
X52688141Y-44838502D01*
X52838502Y-44688141D01*
X52956640Y-44511335D01*
X52961335Y-44500000D01*
X57857815Y-44500000D01*
X57886487Y-44791111D01*
X57971401Y-45071034D01*
X58109294Y-45329014D01*
X58294866Y-45555134D01*
X58520986Y-45740706D01*
X58778966Y-45878599D01*
X59058889Y-45963513D01*
X59277050Y-45985000D01*
X59722950Y-45985000D01*
X59941111Y-45963513D01*
X60221034Y-45878599D01*
X60479014Y-45740706D01*
X60705134Y-45555134D01*
X60890706Y-45329014D01*
X61028599Y-45071034D01*
X61113513Y-44791111D01*
X61142185Y-44500000D01*
X64882815Y-44500000D01*
X64911487Y-44791111D01*
X64996401Y-45071034D01*
X65134294Y-45329014D01*
X65319866Y-45555134D01*
X65545986Y-45740706D01*
X65563374Y-45750000D01*
X65545986Y-45759294D01*
X65319866Y-45944866D01*
X65134294Y-46170986D01*
X64996401Y-46428966D01*
X64911487Y-46708889D01*
X64882815Y-47000000D01*
X64911487Y-47291111D01*
X64996401Y-47571034D01*
X65134294Y-47829014D01*
X65319866Y-48055134D01*
X65545986Y-48240706D01*
X65803966Y-48378599D01*
X66083889Y-48463513D01*
X66302050Y-48485000D01*
X66697950Y-48485000D01*
X66916111Y-48463513D01*
X67196034Y-48378599D01*
X67454014Y-48240706D01*
X67680134Y-48055134D01*
X67865706Y-47829014D01*
X68003599Y-47571034D01*
X68088513Y-47291111D01*
X68117185Y-47000000D01*
X68088513Y-46708889D01*
X68003599Y-46428966D01*
X67865706Y-46170986D01*
X67680134Y-45944866D01*
X67454014Y-45759294D01*
X67436626Y-45750000D01*
X67454014Y-45740706D01*
X67680134Y-45555134D01*
X67865706Y-45329014D01*
X68003599Y-45071034D01*
X68088513Y-44791111D01*
X68117185Y-44500000D01*
X71882815Y-44500000D01*
X71911487Y-44791111D01*
X71996401Y-45071034D01*
X72134294Y-45329014D01*
X72319866Y-45555134D01*
X72545986Y-45740706D01*
X72563374Y-45750000D01*
X72545986Y-45759294D01*
X72319866Y-45944866D01*
X72134294Y-46170986D01*
X71996401Y-46428966D01*
X71911487Y-46708889D01*
X71882815Y-47000000D01*
X71911487Y-47291111D01*
X71996401Y-47571034D01*
X72134294Y-47829014D01*
X72319866Y-48055134D01*
X72545986Y-48240706D01*
X72803966Y-48378599D01*
X73083889Y-48463513D01*
X73302050Y-48485000D01*
X73697950Y-48485000D01*
X73916111Y-48463513D01*
X74196034Y-48378599D01*
X74454014Y-48240706D01*
X74680134Y-48055134D01*
X74865706Y-47829014D01*
X75003599Y-47571034D01*
X75088513Y-47291111D01*
X75117185Y-47000000D01*
X75088513Y-46708889D01*
X75003599Y-46428966D01*
X74865706Y-46170986D01*
X74680134Y-45944866D01*
X74454014Y-45759294D01*
X74436626Y-45750000D01*
X74454014Y-45740706D01*
X74680134Y-45555134D01*
X74865706Y-45329014D01*
X75003599Y-45071034D01*
X75088513Y-44791111D01*
X75117185Y-44500000D01*
X78882815Y-44500000D01*
X78911487Y-44791111D01*
X78996401Y-45071034D01*
X79134294Y-45329014D01*
X79319866Y-45555134D01*
X79545986Y-45740706D01*
X79563374Y-45750000D01*
X79545986Y-45759294D01*
X79319866Y-45944866D01*
X79134294Y-46170986D01*
X78996401Y-46428966D01*
X78911487Y-46708889D01*
X78882815Y-47000000D01*
X78911487Y-47291111D01*
X78996401Y-47571034D01*
X79134294Y-47829014D01*
X79319866Y-48055134D01*
X79545986Y-48240706D01*
X79803966Y-48378599D01*
X80083889Y-48463513D01*
X80302050Y-48485000D01*
X80697950Y-48485000D01*
X80916111Y-48463513D01*
X81196034Y-48378599D01*
X81454014Y-48240706D01*
X81680134Y-48055134D01*
X81865706Y-47829014D01*
X82003599Y-47571034D01*
X82088513Y-47291111D01*
X82117185Y-47000000D01*
X82088513Y-46708889D01*
X82003599Y-46428966D01*
X81984738Y-46393679D01*
X83420500Y-46393679D01*
X83420500Y-46606321D01*
X83461985Y-46814878D01*
X83543360Y-47011335D01*
X83661498Y-47188141D01*
X83811859Y-47338502D01*
X83988665Y-47456640D01*
X84185122Y-47538015D01*
X84393679Y-47579500D01*
X84606321Y-47579500D01*
X84814878Y-47538015D01*
X85011335Y-47456640D01*
X85188141Y-47338502D01*
X85338502Y-47188141D01*
X85456640Y-47011335D01*
X85538015Y-46814878D01*
X85539100Y-46809419D01*
X98565000Y-46809419D01*
X98565000Y-47190581D01*
X98639361Y-47564419D01*
X98785225Y-47916566D01*
X98996987Y-48233491D01*
X99266509Y-48503013D01*
X99583434Y-48714775D01*
X99935581Y-48860639D01*
X100309419Y-48935000D01*
X100690581Y-48935000D01*
X101064419Y-48860639D01*
X101416566Y-48714775D01*
X101733491Y-48503013D01*
X102003013Y-48233491D01*
X102214775Y-47916566D01*
X102360639Y-47564419D01*
X102435000Y-47190581D01*
X102435000Y-46809419D01*
X102360639Y-46435581D01*
X102214775Y-46083434D01*
X102003013Y-45766509D01*
X101733491Y-45496987D01*
X101416566Y-45285225D01*
X101064419Y-45139361D01*
X100690581Y-45065000D01*
X100309419Y-45065000D01*
X99935581Y-45139361D01*
X99583434Y-45285225D01*
X99266509Y-45496987D01*
X98996987Y-45766509D01*
X98785225Y-46083434D01*
X98639361Y-46435581D01*
X98565000Y-46809419D01*
X85539100Y-46809419D01*
X85579500Y-46606321D01*
X85579500Y-46393679D01*
X85538015Y-46185122D01*
X85456640Y-45988665D01*
X85338502Y-45811859D01*
X85188141Y-45661498D01*
X85011335Y-45543360D01*
X84814878Y-45461985D01*
X84606321Y-45420500D01*
X84393679Y-45420500D01*
X84185122Y-45461985D01*
X83988665Y-45543360D01*
X83811859Y-45661498D01*
X83661498Y-45811859D01*
X83543360Y-45988665D01*
X83461985Y-46185122D01*
X83420500Y-46393679D01*
X81984738Y-46393679D01*
X81865706Y-46170986D01*
X81680134Y-45944866D01*
X81454014Y-45759294D01*
X81436626Y-45750000D01*
X81454014Y-45740706D01*
X81680134Y-45555134D01*
X81865706Y-45329014D01*
X82003599Y-45071034D01*
X82088513Y-44791111D01*
X82117185Y-44500000D01*
X82088513Y-44208889D01*
X82003599Y-43928966D01*
X81865706Y-43670986D01*
X81680134Y-43444866D01*
X81616663Y-43392777D01*
X81718386Y-43338405D01*
X81852962Y-43227962D01*
X81963405Y-43093386D01*
X82045472Y-42939850D01*
X82096008Y-42773254D01*
X82113072Y-42600000D01*
X82113072Y-42393679D01*
X90420500Y-42393679D01*
X90420500Y-42606321D01*
X90461985Y-42814878D01*
X90543360Y-43011335D01*
X90661498Y-43188141D01*
X90811859Y-43338502D01*
X90988665Y-43456640D01*
X91185122Y-43538015D01*
X91393679Y-43579500D01*
X91606321Y-43579500D01*
X91814878Y-43538015D01*
X92011335Y-43456640D01*
X92188141Y-43338502D01*
X92338502Y-43188141D01*
X92456640Y-43011335D01*
X92538015Y-42814878D01*
X92579500Y-42606321D01*
X92579500Y-42393679D01*
X92538015Y-42185122D01*
X92456640Y-41988665D01*
X92338502Y-41811859D01*
X92188141Y-41661498D01*
X92011335Y-41543360D01*
X91814878Y-41461985D01*
X91606321Y-41420500D01*
X91393679Y-41420500D01*
X91185122Y-41461985D01*
X90988665Y-41543360D01*
X90811859Y-41661498D01*
X90661498Y-41811859D01*
X90543360Y-41988665D01*
X90461985Y-42185122D01*
X90420500Y-42393679D01*
X82113072Y-42393679D01*
X82113072Y-41400000D01*
X82096008Y-41226746D01*
X82045472Y-41060150D01*
X81963405Y-40906614D01*
X81852962Y-40772038D01*
X81718386Y-40661595D01*
X81564850Y-40579528D01*
X81398254Y-40528992D01*
X81225000Y-40511928D01*
X79775000Y-40511928D01*
X79601746Y-40528992D01*
X79435150Y-40579528D01*
X79281614Y-40661595D01*
X79147038Y-40772038D01*
X79036595Y-40906614D01*
X78954528Y-41060150D01*
X78903992Y-41226746D01*
X78886928Y-41400000D01*
X78886928Y-42600000D01*
X78903992Y-42773254D01*
X78954528Y-42939850D01*
X79036595Y-43093386D01*
X79147038Y-43227962D01*
X79281614Y-43338405D01*
X79383337Y-43392777D01*
X79319866Y-43444866D01*
X79134294Y-43670986D01*
X78996401Y-43928966D01*
X78911487Y-44208889D01*
X78882815Y-44500000D01*
X75117185Y-44500000D01*
X75088513Y-44208889D01*
X75003599Y-43928966D01*
X74865706Y-43670986D01*
X74680134Y-43444866D01*
X74616663Y-43392777D01*
X74718386Y-43338405D01*
X74852962Y-43227962D01*
X74963405Y-43093386D01*
X75045472Y-42939850D01*
X75096008Y-42773254D01*
X75113072Y-42600000D01*
X75113072Y-41400000D01*
X75096008Y-41226746D01*
X75045472Y-41060150D01*
X74963405Y-40906614D01*
X74852962Y-40772038D01*
X74718386Y-40661595D01*
X74564850Y-40579528D01*
X74398254Y-40528992D01*
X74225000Y-40511928D01*
X72775000Y-40511928D01*
X72601746Y-40528992D01*
X72435150Y-40579528D01*
X72281614Y-40661595D01*
X72147038Y-40772038D01*
X72036595Y-40906614D01*
X71954528Y-41060150D01*
X71903992Y-41226746D01*
X71886928Y-41400000D01*
X71886928Y-42600000D01*
X71903992Y-42773254D01*
X71954528Y-42939850D01*
X72036595Y-43093386D01*
X72147038Y-43227962D01*
X72281614Y-43338405D01*
X72383337Y-43392777D01*
X72319866Y-43444866D01*
X72134294Y-43670986D01*
X71996401Y-43928966D01*
X71911487Y-44208889D01*
X71882815Y-44500000D01*
X68117185Y-44500000D01*
X68088513Y-44208889D01*
X68003599Y-43928966D01*
X67865706Y-43670986D01*
X67680134Y-43444866D01*
X67616663Y-43392777D01*
X67718386Y-43338405D01*
X67852962Y-43227962D01*
X67963405Y-43093386D01*
X68045472Y-42939850D01*
X68096008Y-42773254D01*
X68113072Y-42600000D01*
X68113072Y-41400000D01*
X68096008Y-41226746D01*
X68045472Y-41060150D01*
X67963405Y-40906614D01*
X67852962Y-40772038D01*
X67718386Y-40661595D01*
X67564850Y-40579528D01*
X67398254Y-40528992D01*
X67225000Y-40511928D01*
X65775000Y-40511928D01*
X65601746Y-40528992D01*
X65435150Y-40579528D01*
X65281614Y-40661595D01*
X65147038Y-40772038D01*
X65036595Y-40906614D01*
X64954528Y-41060150D01*
X64903992Y-41226746D01*
X64886928Y-41400000D01*
X64886928Y-42600000D01*
X64903992Y-42773254D01*
X64954528Y-42939850D01*
X65036595Y-43093386D01*
X65147038Y-43227962D01*
X65281614Y-43338405D01*
X65383337Y-43392777D01*
X65319866Y-43444866D01*
X65134294Y-43670986D01*
X64996401Y-43928966D01*
X64911487Y-44208889D01*
X64882815Y-44500000D01*
X61142185Y-44500000D01*
X61113513Y-44208889D01*
X61028599Y-43928966D01*
X60890706Y-43670986D01*
X60705134Y-43444866D01*
X60641663Y-43392777D01*
X60743386Y-43338405D01*
X60877962Y-43227962D01*
X60988405Y-43093386D01*
X61070472Y-42939850D01*
X61121008Y-42773254D01*
X61138072Y-42600000D01*
X61138072Y-41400000D01*
X61121008Y-41226746D01*
X61070472Y-41060150D01*
X60988405Y-40906614D01*
X60877962Y-40772038D01*
X60743386Y-40661595D01*
X60589850Y-40579528D01*
X60423254Y-40528992D01*
X60250000Y-40511928D01*
X58750000Y-40511928D01*
X58576746Y-40528992D01*
X58410150Y-40579528D01*
X58256614Y-40661595D01*
X58122038Y-40772038D01*
X58011595Y-40906614D01*
X57929528Y-41060150D01*
X57878992Y-41226746D01*
X57861928Y-41400000D01*
X57861928Y-42600000D01*
X57878992Y-42773254D01*
X57929528Y-42939850D01*
X58011595Y-43093386D01*
X58122038Y-43227962D01*
X58256614Y-43338405D01*
X58358337Y-43392777D01*
X58294866Y-43444866D01*
X58109294Y-43670986D01*
X57971401Y-43928966D01*
X57886487Y-44208889D01*
X57857815Y-44500000D01*
X52961335Y-44500000D01*
X53038015Y-44314878D01*
X53079500Y-44106321D01*
X53079500Y-43893679D01*
X53038015Y-43685122D01*
X52956640Y-43488665D01*
X52838502Y-43311859D01*
X52688141Y-43161498D01*
X52511335Y-43043360D01*
X52314878Y-42961985D01*
X52106321Y-42920500D01*
X51893679Y-42920500D01*
X51685122Y-42961985D01*
X51488665Y-43043360D01*
X51311859Y-43161498D01*
X51161498Y-43311859D01*
X51043360Y-43488665D01*
X50961985Y-43685122D01*
X50920500Y-43893679D01*
X39627000Y-43893679D01*
X39627000Y-42840900D01*
X53473279Y-42840900D01*
X53473279Y-43053542D01*
X53514764Y-43262099D01*
X53596139Y-43458556D01*
X53714277Y-43635362D01*
X53864638Y-43785723D01*
X54041444Y-43903861D01*
X54237901Y-43985236D01*
X54446458Y-44026721D01*
X54659100Y-44026721D01*
X54867657Y-43985236D01*
X55064114Y-43903861D01*
X55240920Y-43785723D01*
X55391281Y-43635362D01*
X55509419Y-43458556D01*
X55590794Y-43262099D01*
X55632279Y-43053542D01*
X55632279Y-42840900D01*
X55590794Y-42632343D01*
X55509419Y-42435886D01*
X55391281Y-42259080D01*
X55240920Y-42108719D01*
X55064114Y-41990581D01*
X54867657Y-41909206D01*
X54659100Y-41867721D01*
X54446458Y-41867721D01*
X54237901Y-41909206D01*
X54041444Y-41990581D01*
X53864638Y-42108719D01*
X53714277Y-42259080D01*
X53596139Y-42435886D01*
X53514764Y-42632343D01*
X53473279Y-42840900D01*
X39627000Y-42840900D01*
X39627000Y-40340899D01*
X50973280Y-40340899D01*
X50973280Y-40553541D01*
X51014765Y-40762098D01*
X51096140Y-40958555D01*
X51214278Y-41135361D01*
X51364639Y-41285722D01*
X51541445Y-41403860D01*
X51737902Y-41485235D01*
X51946459Y-41526720D01*
X52159101Y-41526720D01*
X52367658Y-41485235D01*
X52564115Y-41403860D01*
X52740921Y-41285722D01*
X52891282Y-41135361D01*
X53009420Y-40958555D01*
X53090795Y-40762098D01*
X53132280Y-40553541D01*
X53132280Y-40340899D01*
X53090795Y-40132342D01*
X53009420Y-39935885D01*
X52891282Y-39759079D01*
X52740921Y-39608718D01*
X52564115Y-39490580D01*
X52367658Y-39409205D01*
X52159101Y-39367720D01*
X51946459Y-39367720D01*
X51737902Y-39409205D01*
X51541445Y-39490580D01*
X51364639Y-39608718D01*
X51214278Y-39759079D01*
X51096140Y-39935885D01*
X51014765Y-40132342D01*
X50973280Y-40340899D01*
X39627000Y-40340899D01*
X39627000Y-35136511D01*
X39661498Y-35188141D01*
X39811859Y-35338502D01*
X39988665Y-35456640D01*
X40185122Y-35538015D01*
X40393679Y-35579500D01*
X40606321Y-35579500D01*
X40814878Y-35538015D01*
X41011335Y-35456640D01*
X41188141Y-35338502D01*
X41338502Y-35188141D01*
X41379355Y-35127000D01*
X46277345Y-35127000D01*
X46174880Y-35229465D01*
G04 #@! TA.AperFunction,Conductor*
D24*
G36*
X46174880Y-35229465D02*
G01*
X46021995Y-35458273D01*
X45916686Y-35712510D01*
X45863000Y-35982408D01*
X45863000Y-36257592D01*
X45916686Y-36527490D01*
X46021995Y-36781727D01*
X46174880Y-37010535D01*
X46369465Y-37205120D01*
X46598273Y-37358005D01*
X46852510Y-37463314D01*
X47122408Y-37517000D01*
X47397592Y-37517000D01*
X47667490Y-37463314D01*
X47921727Y-37358005D01*
X48150535Y-37205120D01*
X48345120Y-37010535D01*
X48498005Y-36781727D01*
X48530000Y-36704485D01*
X48561995Y-36781727D01*
X48714880Y-37010535D01*
X48909465Y-37205120D01*
X49138273Y-37358005D01*
X49392510Y-37463314D01*
X49662408Y-37517000D01*
X49937592Y-37517000D01*
X50207490Y-37463314D01*
X50461727Y-37358005D01*
X50690535Y-37205120D01*
X50885120Y-37010535D01*
X51038005Y-36781727D01*
X51070000Y-36704485D01*
X51101995Y-36781727D01*
X51254880Y-37010535D01*
X51449465Y-37205120D01*
X51678273Y-37358005D01*
X51932510Y-37463314D01*
X52202408Y-37517000D01*
X52477592Y-37517000D01*
X52747490Y-37463314D01*
X53001727Y-37358005D01*
X53230535Y-37205120D01*
X53425120Y-37010535D01*
X53578005Y-36781727D01*
X53610000Y-36704485D01*
X53641995Y-36781727D01*
X53794880Y-37010535D01*
X53989465Y-37205120D01*
X54218273Y-37358005D01*
X54472510Y-37463314D01*
X54742408Y-37517000D01*
X55017592Y-37517000D01*
X55287490Y-37463314D01*
X55541727Y-37358005D01*
X55770535Y-37205120D01*
X55965120Y-37010535D01*
X56118005Y-36781727D01*
X56150000Y-36704485D01*
X56181995Y-36781727D01*
X56334880Y-37010535D01*
X56529465Y-37205120D01*
X56758273Y-37358005D01*
X57012510Y-37463314D01*
X57282408Y-37517000D01*
X57557592Y-37517000D01*
X57827490Y-37463314D01*
X58081727Y-37358005D01*
X58310535Y-37205120D01*
X58505120Y-37010535D01*
X58658005Y-36781727D01*
X58690000Y-36704485D01*
X58721995Y-36781727D01*
X58874880Y-37010535D01*
X59069465Y-37205120D01*
X59298273Y-37358005D01*
X59552510Y-37463314D01*
X59822408Y-37517000D01*
X60097592Y-37517000D01*
X60367490Y-37463314D01*
X60621727Y-37358005D01*
X60850535Y-37205120D01*
X61045120Y-37010535D01*
X61198005Y-36781727D01*
X61230000Y-36704485D01*
X61261995Y-36781727D01*
X61414880Y-37010535D01*
X61609465Y-37205120D01*
X61838273Y-37358005D01*
X62092510Y-37463314D01*
X62362408Y-37517000D01*
X62637592Y-37517000D01*
X62907490Y-37463314D01*
X63161727Y-37358005D01*
X63390535Y-37205120D01*
X63585120Y-37010535D01*
X63738005Y-36781727D01*
X63770000Y-36704485D01*
X63801995Y-36781727D01*
X63954880Y-37010535D01*
X64149465Y-37205120D01*
X64378273Y-37358005D01*
X64632510Y-37463314D01*
X64902408Y-37517000D01*
X65177592Y-37517000D01*
X65447490Y-37463314D01*
X65701727Y-37358005D01*
X65930535Y-37205120D01*
X66125120Y-37010535D01*
X66278005Y-36781727D01*
X66310000Y-36704485D01*
X66341995Y-36781727D01*
X66494880Y-37010535D01*
X66689465Y-37205120D01*
X66918273Y-37358005D01*
X67172510Y-37463314D01*
X67442408Y-37517000D01*
X67717592Y-37517000D01*
X67987490Y-37463314D01*
X68241727Y-37358005D01*
X68470535Y-37205120D01*
X68665120Y-37010535D01*
X68818005Y-36781727D01*
X68850000Y-36704485D01*
X68881995Y-36781727D01*
X69034880Y-37010535D01*
X69229465Y-37205120D01*
X69458273Y-37358005D01*
X69712510Y-37463314D01*
X69982408Y-37517000D01*
X70257592Y-37517000D01*
X70527490Y-37463314D01*
X70781727Y-37358005D01*
X71010535Y-37205120D01*
X71205120Y-37010535D01*
X71358005Y-36781727D01*
X71390000Y-36704485D01*
X71421995Y-36781727D01*
X71574880Y-37010535D01*
X71769465Y-37205120D01*
X71998273Y-37358005D01*
X72252510Y-37463314D01*
X72522408Y-37517000D01*
X72797592Y-37517000D01*
X73067490Y-37463314D01*
X73321727Y-37358005D01*
X73550535Y-37205120D01*
X73745120Y-37010535D01*
X73898005Y-36781727D01*
X73930000Y-36704485D01*
X73961995Y-36781727D01*
X74114880Y-37010535D01*
X74309465Y-37205120D01*
X74538273Y-37358005D01*
X74792510Y-37463314D01*
X75062408Y-37517000D01*
X75337592Y-37517000D01*
X75607490Y-37463314D01*
X75861727Y-37358005D01*
X76090535Y-37205120D01*
X76285120Y-37010535D01*
X76438005Y-36781727D01*
X76470000Y-36704485D01*
X76501995Y-36781727D01*
X76654880Y-37010535D01*
X76849465Y-37205120D01*
X77078273Y-37358005D01*
X77332510Y-37463314D01*
X77602408Y-37517000D01*
X77877592Y-37517000D01*
X78147490Y-37463314D01*
X78401727Y-37358005D01*
X78630535Y-37205120D01*
X78825120Y-37010535D01*
X78978005Y-36781727D01*
X79010000Y-36704485D01*
X79041995Y-36781727D01*
X79194880Y-37010535D01*
X79389465Y-37205120D01*
X79618273Y-37358005D01*
X79872510Y-37463314D01*
X80142408Y-37517000D01*
X80417592Y-37517000D01*
X80687490Y-37463314D01*
X80941727Y-37358005D01*
X81170535Y-37205120D01*
X81365120Y-37010535D01*
X81518005Y-36781727D01*
X81623314Y-36527490D01*
X81677000Y-36257592D01*
X81677000Y-35982408D01*
X81623314Y-35712510D01*
X81518005Y-35458273D01*
X81365120Y-35229465D01*
X81262655Y-35127000D01*
X91986060Y-35127000D01*
X91961985Y-35185122D01*
X91920500Y-35393679D01*
X91920500Y-35606321D01*
X91961985Y-35814878D01*
X92043360Y-36011335D01*
X92161498Y-36188141D01*
X92311859Y-36338502D01*
X92488665Y-36456640D01*
X92685122Y-36538015D01*
X92893679Y-36579500D01*
X93106321Y-36579500D01*
X93314878Y-36538015D01*
X93511335Y-36456640D01*
X93688141Y-36338502D01*
X93838502Y-36188141D01*
X93956640Y-36011335D01*
X94038015Y-35814878D01*
X94079500Y-35606321D01*
X94079500Y-35393679D01*
X94038015Y-35185122D01*
X94013940Y-35127000D01*
X104340000Y-35127000D01*
X104340000Y-37314101D01*
X104338502Y-37311859D01*
X104188141Y-37161498D01*
X104011335Y-37043360D01*
X103814878Y-36961985D01*
X103606321Y-36920500D01*
X103393679Y-36920500D01*
X103185122Y-36961985D01*
X102988665Y-37043360D01*
X102811859Y-37161498D01*
X102661498Y-37311859D01*
X102543360Y-37488665D01*
X102461985Y-37685122D01*
X102420500Y-37893679D01*
X102420500Y-38106321D01*
X102461985Y-38314878D01*
X102543360Y-38511335D01*
X102661498Y-38688141D01*
X102811859Y-38838502D01*
X102988665Y-38956640D01*
X103185122Y-39038015D01*
X103393679Y-39079500D01*
X103606321Y-39079500D01*
X103814878Y-39038015D01*
X104011335Y-38956640D01*
X104188141Y-38838502D01*
X104338502Y-38688141D01*
X104340000Y-38685899D01*
X104340001Y-76873000D01*
X61127000Y-76873000D01*
X61127000Y-71500000D01*
X61124560Y-71475224D01*
X61117333Y-71451399D01*
X61105597Y-71429443D01*
X61084778Y-71405440D01*
X59917222Y-70358665D01*
X71065000Y-70358665D01*
X71065000Y-70641335D01*
X71120147Y-70918574D01*
X71228320Y-71179727D01*
X71385363Y-71414759D01*
X71585241Y-71614637D01*
X71820273Y-71771680D01*
X72081426Y-71879853D01*
X72358665Y-71935000D01*
X72641335Y-71935000D01*
X72918574Y-71879853D01*
X73179727Y-71771680D01*
X73414759Y-71614637D01*
X73614637Y-71414759D01*
X73628722Y-71393679D01*
X85420500Y-71393679D01*
X85420500Y-71606321D01*
X85461985Y-71814878D01*
X85538665Y-72000000D01*
X85461985Y-72185122D01*
X85420500Y-72393679D01*
X85420500Y-72606321D01*
X85461985Y-72814878D01*
X85538665Y-73000000D01*
X85461985Y-73185122D01*
X85420500Y-73393679D01*
X85420500Y-73606321D01*
X85461985Y-73814878D01*
X85543360Y-74011335D01*
X85661498Y-74188141D01*
X85811859Y-74338502D01*
X85988665Y-74456640D01*
X86185122Y-74538015D01*
X86393679Y-74579500D01*
X86606321Y-74579500D01*
X86814878Y-74538015D01*
X87011335Y-74456640D01*
X87188141Y-74338502D01*
X87338502Y-74188141D01*
X87456640Y-74011335D01*
X87538015Y-73814878D01*
X87579500Y-73606321D01*
X87579500Y-73393679D01*
X87538015Y-73185122D01*
X87461335Y-73000000D01*
X87538015Y-72814878D01*
X87579500Y-72606321D01*
X87579500Y-72393679D01*
X87538015Y-72185122D01*
X87461335Y-72000000D01*
X87505374Y-71893679D01*
X90920500Y-71893679D01*
X90920500Y-72106321D01*
X90961985Y-72314878D01*
X91043360Y-72511335D01*
X91161498Y-72688141D01*
X91311859Y-72838502D01*
X91488665Y-72956640D01*
X91685122Y-73038015D01*
X91893679Y-73079500D01*
X92106321Y-73079500D01*
X92314878Y-73038015D01*
X92511335Y-72956640D01*
X92688141Y-72838502D01*
X92717224Y-72809419D01*
X98565000Y-72809419D01*
X98565000Y-73190581D01*
X98639361Y-73564419D01*
X98785225Y-73916566D01*
X98996987Y-74233491D01*
X99266509Y-74503013D01*
X99583434Y-74714775D01*
X99935581Y-74860639D01*
X100309419Y-74935000D01*
X100690581Y-74935000D01*
X101064419Y-74860639D01*
X101416566Y-74714775D01*
X101733491Y-74503013D01*
X102003013Y-74233491D01*
X102214775Y-73916566D01*
X102360639Y-73564419D01*
X102435000Y-73190581D01*
X102435000Y-72809419D01*
X102360639Y-72435581D01*
X102214775Y-72083434D01*
X102003013Y-71766509D01*
X101733491Y-71496987D01*
X101416566Y-71285225D01*
X101064419Y-71139361D01*
X100690581Y-71065000D01*
X100309419Y-71065000D01*
X99935581Y-71139361D01*
X99583434Y-71285225D01*
X99266509Y-71496987D01*
X98996987Y-71766509D01*
X98785225Y-72083434D01*
X98639361Y-72435581D01*
X98565000Y-72809419D01*
X92717224Y-72809419D01*
X92838502Y-72688141D01*
X92956640Y-72511335D01*
X93038015Y-72314878D01*
X93079500Y-72106321D01*
X93079500Y-71893679D01*
X93038015Y-71685122D01*
X92956640Y-71488665D01*
X92838502Y-71311859D01*
X92688141Y-71161498D01*
X92511335Y-71043360D01*
X92314878Y-70961985D01*
X92106321Y-70920500D01*
X91893679Y-70920500D01*
X91685122Y-70961985D01*
X91488665Y-71043360D01*
X91311859Y-71161498D01*
X91161498Y-71311859D01*
X91043360Y-71488665D01*
X90961985Y-71685122D01*
X90920500Y-71893679D01*
X87505374Y-71893679D01*
X87538015Y-71814878D01*
X87579500Y-71606321D01*
X87579500Y-71393679D01*
X87538015Y-71185122D01*
X87456640Y-70988665D01*
X87338502Y-70811859D01*
X87188141Y-70661498D01*
X87011335Y-70543360D01*
X86814878Y-70461985D01*
X86606321Y-70420500D01*
X86393679Y-70420500D01*
X86185122Y-70461985D01*
X85988665Y-70543360D01*
X85811859Y-70661498D01*
X85661498Y-70811859D01*
X85543360Y-70988665D01*
X85461985Y-71185122D01*
X85420500Y-71393679D01*
X73628722Y-71393679D01*
X73771680Y-71179727D01*
X73879853Y-70918574D01*
X73935000Y-70641335D01*
X73935000Y-70358665D01*
X73879853Y-70081426D01*
X73771680Y-69820273D01*
X73614637Y-69585241D01*
X73414759Y-69385363D01*
X73179727Y-69228320D01*
X72918574Y-69120147D01*
X72641335Y-69065000D01*
X72358665Y-69065000D01*
X72081426Y-69120147D01*
X71820273Y-69228320D01*
X71585241Y-69385363D01*
X71385363Y-69585241D01*
X71228320Y-69820273D01*
X71120147Y-70081426D01*
X71065000Y-70358665D01*
X59917222Y-70358665D01*
X59385088Y-69881580D01*
X59338502Y-69811859D01*
X59188141Y-69661498D01*
X59011335Y-69543360D01*
X59004844Y-69540671D01*
X57725507Y-68393679D01*
X90920500Y-68393679D01*
X90920500Y-68606321D01*
X90961985Y-68814878D01*
X91043360Y-69011335D01*
X91161498Y-69188141D01*
X91311859Y-69338502D01*
X91488665Y-69456640D01*
X91685122Y-69538015D01*
X91893679Y-69579500D01*
X92106321Y-69579500D01*
X92314878Y-69538015D01*
X92511335Y-69456640D01*
X92688141Y-69338502D01*
X92838502Y-69188141D01*
X92956640Y-69011335D01*
X93038015Y-68814878D01*
X93079500Y-68606321D01*
X93079500Y-68393679D01*
X93038015Y-68185122D01*
X92956640Y-67988665D01*
X92838502Y-67811859D01*
X92688141Y-67661498D01*
X92511335Y-67543360D01*
X92314878Y-67461985D01*
X92106321Y-67420500D01*
X91893679Y-67420500D01*
X91685122Y-67461985D01*
X91488665Y-67543360D01*
X91311859Y-67661498D01*
X91161498Y-67811859D01*
X91043360Y-67988665D01*
X90961985Y-68185122D01*
X90920500Y-68393679D01*
X57725507Y-68393679D01*
X55303984Y-66222659D01*
X55338502Y-66188141D01*
X55456640Y-66011335D01*
X55538015Y-65814878D01*
X55579500Y-65606321D01*
X55579500Y-65393679D01*
X55920500Y-65393679D01*
X55920500Y-65606321D01*
X55961985Y-65814878D01*
X56043360Y-66011335D01*
X56161498Y-66188141D01*
X56311859Y-66338502D01*
X56488665Y-66456640D01*
X56685122Y-66538015D01*
X56893679Y-66579500D01*
X57106321Y-66579500D01*
X57314878Y-66538015D01*
X57511335Y-66456640D01*
X57688141Y-66338502D01*
X57838502Y-66188141D01*
X57956640Y-66011335D01*
X58038015Y-65814878D01*
X58079500Y-65606321D01*
X58079500Y-65393679D01*
X58073515Y-65363589D01*
X63115000Y-65363589D01*
X63115000Y-65636411D01*
X63168225Y-65903989D01*
X63272629Y-66156043D01*
X63424201Y-66382886D01*
X63617114Y-66575799D01*
X63843957Y-66727371D01*
X64096011Y-66831775D01*
X64363589Y-66885000D01*
X64636411Y-66885000D01*
X64903989Y-66831775D01*
X65156043Y-66727371D01*
X65382886Y-66575799D01*
X65575799Y-66382886D01*
X65727371Y-66156043D01*
X65770000Y-66053127D01*
X65812629Y-66156043D01*
X65964201Y-66382886D01*
X66157114Y-66575799D01*
X66383957Y-66727371D01*
X66636011Y-66831775D01*
X66903589Y-66885000D01*
X67176411Y-66885000D01*
X67443989Y-66831775D01*
X67696043Y-66727371D01*
X67922886Y-66575799D01*
X68115799Y-66382886D01*
X68267371Y-66156043D01*
X68371775Y-65903989D01*
X68425000Y-65636411D01*
X68425000Y-65363589D01*
X68424021Y-65358665D01*
X73565000Y-65358665D01*
X73565000Y-65641335D01*
X73620147Y-65918574D01*
X73728320Y-66179727D01*
X73885363Y-66414759D01*
X74085241Y-66614637D01*
X74320273Y-66771680D01*
X74581426Y-66879853D01*
X74858665Y-66935000D01*
X75141335Y-66935000D01*
X75418574Y-66879853D01*
X75679727Y-66771680D01*
X75914759Y-66614637D01*
X76114637Y-66414759D01*
X76271680Y-66179727D01*
X76379853Y-65918574D01*
X76423330Y-65700000D01*
X81061928Y-65700000D01*
X81061928Y-67300000D01*
X81074188Y-67424482D01*
X81110498Y-67544180D01*
X81169463Y-67654494D01*
X81248815Y-67751185D01*
X81345506Y-67830537D01*
X81455820Y-67889502D01*
X81575518Y-67925812D01*
X81700000Y-67938072D01*
X83300000Y-67938072D01*
X83424482Y-67925812D01*
X83544180Y-67889502D01*
X83654494Y-67830537D01*
X83751185Y-67751185D01*
X83830537Y-67654494D01*
X83889502Y-67544180D01*
X83918661Y-67448057D01*
X84085241Y-67614637D01*
X84320273Y-67771680D01*
X84581426Y-67879853D01*
X84858665Y-67935000D01*
X85141335Y-67935000D01*
X85418574Y-67879853D01*
X85679727Y-67771680D01*
X85914759Y-67614637D01*
X86114637Y-67414759D01*
X86271680Y-67179727D01*
X86379853Y-66918574D01*
X86435000Y-66641335D01*
X86435000Y-66358665D01*
X86379853Y-66081426D01*
X86271680Y-65820273D01*
X86114637Y-65585241D01*
X85914759Y-65385363D01*
X85679727Y-65228320D01*
X85418574Y-65120147D01*
X85141335Y-65065000D01*
X84858665Y-65065000D01*
X84581426Y-65120147D01*
X84320273Y-65228320D01*
X84085241Y-65385363D01*
X83918661Y-65551943D01*
X83889502Y-65455820D01*
X83830537Y-65345506D01*
X83751185Y-65248815D01*
X83654494Y-65169463D01*
X83544180Y-65110498D01*
X83424482Y-65074188D01*
X83300000Y-65061928D01*
X81700000Y-65061928D01*
X81575518Y-65074188D01*
X81455820Y-65110498D01*
X81345506Y-65169463D01*
X81248815Y-65248815D01*
X81169463Y-65345506D01*
X81110498Y-65455820D01*
X81074188Y-65575518D01*
X81061928Y-65700000D01*
X76423330Y-65700000D01*
X76435000Y-65641335D01*
X76435000Y-65358665D01*
X76379853Y-65081426D01*
X76271680Y-64820273D01*
X76114637Y-64585241D01*
X75914759Y-64385363D01*
X75679727Y-64228320D01*
X75418574Y-64120147D01*
X75141335Y-64065000D01*
X74858665Y-64065000D01*
X74581426Y-64120147D01*
X74320273Y-64228320D01*
X74085241Y-64385363D01*
X73885363Y-64585241D01*
X73728320Y-64820273D01*
X73620147Y-65081426D01*
X73565000Y-65358665D01*
X68424021Y-65358665D01*
X68371775Y-65096011D01*
X68267371Y-64843957D01*
X68115799Y-64617114D01*
X67922886Y-64424201D01*
X67696043Y-64272629D01*
X67443989Y-64168225D01*
X67176411Y-64115000D01*
X66903589Y-64115000D01*
X66636011Y-64168225D01*
X66383957Y-64272629D01*
X66157114Y-64424201D01*
X65964201Y-64617114D01*
X65812629Y-64843957D01*
X65770000Y-64946873D01*
X65727371Y-64843957D01*
X65575799Y-64617114D01*
X65382886Y-64424201D01*
X65156043Y-64272629D01*
X64903989Y-64168225D01*
X64636411Y-64115000D01*
X64363589Y-64115000D01*
X64096011Y-64168225D01*
X63843957Y-64272629D01*
X63617114Y-64424201D01*
X63424201Y-64617114D01*
X63272629Y-64843957D01*
X63168225Y-65096011D01*
X63115000Y-65363589D01*
X58073515Y-65363589D01*
X58038015Y-65185122D01*
X57956640Y-64988665D01*
X57838502Y-64811859D01*
X57688141Y-64661498D01*
X57511335Y-64543360D01*
X57314878Y-64461985D01*
X57106321Y-64420500D01*
X56893679Y-64420500D01*
X56685122Y-64461985D01*
X56488665Y-64543360D01*
X56311859Y-64661498D01*
X56161498Y-64811859D01*
X56043360Y-64988665D01*
X55961985Y-65185122D01*
X55920500Y-65393679D01*
X55579500Y-65393679D01*
X55538015Y-65185122D01*
X55456640Y-64988665D01*
X55338502Y-64811859D01*
X55188141Y-64661498D01*
X55011335Y-64543360D01*
X54814878Y-64461985D01*
X54606321Y-64420500D01*
X54393679Y-64420500D01*
X54185122Y-64461985D01*
X53988665Y-64543360D01*
X53811859Y-64661498D01*
X53694070Y-64779287D01*
X49073120Y-60636368D01*
X49079164Y-60605985D01*
X49079164Y-60393343D01*
X49037679Y-60184786D01*
X48956304Y-59988329D01*
X48951649Y-59981363D01*
X49011335Y-59956640D01*
X49188141Y-59838502D01*
X49338502Y-59688141D01*
X49456640Y-59511335D01*
X49538015Y-59314878D01*
X49579500Y-59106321D01*
X49579500Y-58893679D01*
X57420500Y-58893679D01*
X57420500Y-59106321D01*
X57461985Y-59314878D01*
X57543360Y-59511335D01*
X57661498Y-59688141D01*
X57811859Y-59838502D01*
X57988665Y-59956640D01*
X58185122Y-60038015D01*
X58393679Y-60079500D01*
X58606321Y-60079500D01*
X58814878Y-60038015D01*
X59011335Y-59956640D01*
X59188141Y-59838502D01*
X59338502Y-59688141D01*
X59456640Y-59511335D01*
X59538015Y-59314878D01*
X59579500Y-59106321D01*
X59579500Y-58893679D01*
X61420500Y-58893679D01*
X61420500Y-59106321D01*
X61461985Y-59314878D01*
X61543360Y-59511335D01*
X61661498Y-59688141D01*
X61811859Y-59838502D01*
X61988665Y-59956640D01*
X62185122Y-60038015D01*
X62393679Y-60079500D01*
X62606321Y-60079500D01*
X62814878Y-60038015D01*
X63000000Y-59961335D01*
X63185122Y-60038015D01*
X63393679Y-60079500D01*
X63606321Y-60079500D01*
X63814878Y-60038015D01*
X64011335Y-59956640D01*
X64188141Y-59838502D01*
X64338502Y-59688141D01*
X64456640Y-59511335D01*
X64538015Y-59314878D01*
X64579500Y-59106321D01*
X64579500Y-58893679D01*
X69920500Y-58893679D01*
X69920500Y-59106321D01*
X69961985Y-59314878D01*
X70038665Y-59500000D01*
X69961985Y-59685122D01*
X69920500Y-59893679D01*
X69920500Y-60106321D01*
X69961985Y-60314878D01*
X70038665Y-60500000D01*
X69961985Y-60685122D01*
X69920500Y-60893679D01*
X69920500Y-61106321D01*
X69961985Y-61314878D01*
X70043360Y-61511335D01*
X70161498Y-61688141D01*
X70311859Y-61838502D01*
X70488665Y-61956640D01*
X70685122Y-62038015D01*
X70893679Y-62079500D01*
X71106321Y-62079500D01*
X71314878Y-62038015D01*
X71511335Y-61956640D01*
X71688141Y-61838502D01*
X71838502Y-61688141D01*
X71956640Y-61511335D01*
X72005374Y-61393679D01*
X89420500Y-61393679D01*
X89420500Y-61606321D01*
X89461985Y-61814878D01*
X89543360Y-62011335D01*
X89661498Y-62188141D01*
X89811859Y-62338502D01*
X89988665Y-62456640D01*
X90185122Y-62538015D01*
X90393679Y-62579500D01*
X90606321Y-62579500D01*
X90814878Y-62538015D01*
X91011335Y-62456640D01*
X91188141Y-62338502D01*
X91338502Y-62188141D01*
X91456640Y-62011335D01*
X91538015Y-61814878D01*
X91579500Y-61606321D01*
X91579500Y-61393679D01*
X91538015Y-61185122D01*
X91456640Y-60988665D01*
X91338502Y-60811859D01*
X91188141Y-60661498D01*
X91011335Y-60543360D01*
X90814878Y-60461985D01*
X90606321Y-60420500D01*
X90393679Y-60420500D01*
X90185122Y-60461985D01*
X89988665Y-60543360D01*
X89811859Y-60661498D01*
X89661498Y-60811859D01*
X89543360Y-60988665D01*
X89461985Y-61185122D01*
X89420500Y-61393679D01*
X72005374Y-61393679D01*
X72038015Y-61314878D01*
X72079500Y-61106321D01*
X72079500Y-60893679D01*
X72038015Y-60685122D01*
X71961335Y-60500000D01*
X72038015Y-60314878D01*
X72079500Y-60106321D01*
X72079500Y-59893679D01*
X72038015Y-59685122D01*
X72003286Y-59601278D01*
X83490000Y-59601278D01*
X83490000Y-59898722D01*
X83548029Y-60190451D01*
X83661856Y-60465253D01*
X83827107Y-60712569D01*
X84037431Y-60922893D01*
X84284747Y-61088144D01*
X84559549Y-61201971D01*
X84851278Y-61260000D01*
X85148722Y-61260000D01*
X85440451Y-61201971D01*
X85715253Y-61088144D01*
X85962569Y-60922893D01*
X86172893Y-60712569D01*
X86338144Y-60465253D01*
X86451971Y-60190451D01*
X86510000Y-59898722D01*
X86510000Y-59809419D01*
X98565000Y-59809419D01*
X98565000Y-60190581D01*
X98639361Y-60564419D01*
X98785225Y-60916566D01*
X98996987Y-61233491D01*
X99266509Y-61503013D01*
X99583434Y-61714775D01*
X99935581Y-61860639D01*
X100309419Y-61935000D01*
X100690581Y-61935000D01*
X101064419Y-61860639D01*
X101416566Y-61714775D01*
X101733491Y-61503013D01*
X102003013Y-61233491D01*
X102214775Y-60916566D01*
X102360639Y-60564419D01*
X102435000Y-60190581D01*
X102435000Y-59809419D01*
X102360639Y-59435581D01*
X102214775Y-59083434D01*
X102003013Y-58766509D01*
X101733491Y-58496987D01*
X101416566Y-58285225D01*
X101064419Y-58139361D01*
X100690581Y-58065000D01*
X100309419Y-58065000D01*
X99935581Y-58139361D01*
X99583434Y-58285225D01*
X99266509Y-58496987D01*
X98996987Y-58766509D01*
X98785225Y-59083434D01*
X98639361Y-59435581D01*
X98565000Y-59809419D01*
X86510000Y-59809419D01*
X86510000Y-59601278D01*
X86451971Y-59309549D01*
X86338144Y-59034747D01*
X86172893Y-58787431D01*
X85962569Y-58577107D01*
X85715253Y-58411856D01*
X85440451Y-58298029D01*
X85148722Y-58240000D01*
X84851278Y-58240000D01*
X84559549Y-58298029D01*
X84284747Y-58411856D01*
X84037431Y-58577107D01*
X83827107Y-58787431D01*
X83661856Y-59034747D01*
X83548029Y-59309549D01*
X83490000Y-59601278D01*
X72003286Y-59601278D01*
X71961335Y-59500000D01*
X72038015Y-59314878D01*
X72079500Y-59106321D01*
X72079500Y-58893679D01*
X72038015Y-58685122D01*
X71956640Y-58488665D01*
X71838502Y-58311859D01*
X71688141Y-58161498D01*
X71511335Y-58043360D01*
X71314878Y-57961985D01*
X71106321Y-57920500D01*
X70893679Y-57920500D01*
X70685122Y-57961985D01*
X70488665Y-58043360D01*
X70311859Y-58161498D01*
X70161498Y-58311859D01*
X70043360Y-58488665D01*
X69961985Y-58685122D01*
X69920500Y-58893679D01*
X64579500Y-58893679D01*
X64538015Y-58685122D01*
X64456640Y-58488665D01*
X64338502Y-58311859D01*
X64188141Y-58161498D01*
X64011335Y-58043360D01*
X63814878Y-57961985D01*
X63606321Y-57920500D01*
X63393679Y-57920500D01*
X63185122Y-57961985D01*
X63000000Y-58038665D01*
X62814878Y-57961985D01*
X62606321Y-57920500D01*
X62393679Y-57920500D01*
X62185122Y-57961985D01*
X61988665Y-58043360D01*
X61811859Y-58161498D01*
X61661498Y-58311859D01*
X61543360Y-58488665D01*
X61461985Y-58685122D01*
X61420500Y-58893679D01*
X59579500Y-58893679D01*
X59538015Y-58685122D01*
X59456640Y-58488665D01*
X59338502Y-58311859D01*
X59188141Y-58161498D01*
X59011335Y-58043360D01*
X58814878Y-57961985D01*
X58606321Y-57920500D01*
X58393679Y-57920500D01*
X58185122Y-57961985D01*
X57988665Y-58043360D01*
X57811859Y-58161498D01*
X57661498Y-58311859D01*
X57543360Y-58488665D01*
X57461985Y-58685122D01*
X57420500Y-58893679D01*
X49579500Y-58893679D01*
X49538015Y-58685122D01*
X49456640Y-58488665D01*
X49338502Y-58311859D01*
X49188141Y-58161498D01*
X49011335Y-58043360D01*
X48814878Y-57961985D01*
X48606321Y-57920500D01*
X48393679Y-57920500D01*
X48185122Y-57961985D01*
X47988665Y-58043360D01*
X47811859Y-58161498D01*
X47661498Y-58311859D01*
X47543360Y-58488665D01*
X47461985Y-58685122D01*
X47420500Y-58893679D01*
X47420500Y-59106321D01*
X47432214Y-59165210D01*
X46627000Y-58443294D01*
X46627000Y-54302050D01*
X48515000Y-54302050D01*
X48515000Y-54697949D01*
X48536487Y-54916110D01*
X48621401Y-55196033D01*
X48759294Y-55454013D01*
X48944866Y-55680134D01*
X49170986Y-55865706D01*
X49428966Y-56003599D01*
X49708889Y-56088513D01*
X50000000Y-56117185D01*
X50291110Y-56088513D01*
X50571033Y-56003599D01*
X50829013Y-55865706D01*
X51055134Y-55680134D01*
X51240706Y-55454014D01*
X51250000Y-55436626D01*
X51259294Y-55454013D01*
X51444866Y-55680134D01*
X51670986Y-55865706D01*
X51928966Y-56003599D01*
X52208889Y-56088513D01*
X52500000Y-56117185D01*
X52791110Y-56088513D01*
X53071033Y-56003599D01*
X53329013Y-55865706D01*
X53555134Y-55680134D01*
X53740706Y-55454014D01*
X53750000Y-55436626D01*
X53759294Y-55454013D01*
X53944866Y-55680134D01*
X54170986Y-55865706D01*
X54428966Y-56003599D01*
X54708889Y-56088513D01*
X55000000Y-56117185D01*
X55291110Y-56088513D01*
X55571033Y-56003599D01*
X55829013Y-55865706D01*
X56055134Y-55680134D01*
X56240706Y-55454014D01*
X56250000Y-55436626D01*
X56259294Y-55454013D01*
X56444866Y-55680134D01*
X56670986Y-55865706D01*
X56928966Y-56003599D01*
X57208889Y-56088513D01*
X57500000Y-56117185D01*
X57791110Y-56088513D01*
X58071033Y-56003599D01*
X58329013Y-55865706D01*
X58555134Y-55680134D01*
X58740706Y-55454014D01*
X58750000Y-55436626D01*
X58759294Y-55454013D01*
X58944866Y-55680134D01*
X59170986Y-55865706D01*
X59428966Y-56003599D01*
X59708889Y-56088513D01*
X60000000Y-56117185D01*
X60291110Y-56088513D01*
X60571033Y-56003599D01*
X60829013Y-55865706D01*
X61055134Y-55680134D01*
X61107223Y-55616663D01*
X61161595Y-55718386D01*
X61272038Y-55852962D01*
X61406614Y-55963405D01*
X61560150Y-56045472D01*
X61726746Y-56096008D01*
X61900000Y-56113072D01*
X63100000Y-56113072D01*
X63273254Y-56096008D01*
X63439850Y-56045472D01*
X63593386Y-55963405D01*
X63727962Y-55852962D01*
X63838405Y-55718386D01*
X63920472Y-55564850D01*
X63971008Y-55398254D01*
X63988072Y-55225000D01*
X63988072Y-53775000D01*
X63971008Y-53601746D01*
X63920472Y-53435150D01*
X63898306Y-53393679D01*
X72920500Y-53393679D01*
X72920500Y-53606321D01*
X72961985Y-53814878D01*
X73038665Y-54000000D01*
X72961985Y-54185122D01*
X72920500Y-54393679D01*
X72920500Y-54606321D01*
X72961985Y-54814878D01*
X73038665Y-55000000D01*
X72961985Y-55185122D01*
X72920500Y-55393679D01*
X72920500Y-55606321D01*
X72961985Y-55814878D01*
X73043360Y-56011335D01*
X73161498Y-56188141D01*
X73311859Y-56338502D01*
X73488665Y-56456640D01*
X73685122Y-56538015D01*
X73893679Y-56579500D01*
X74106321Y-56579500D01*
X74314878Y-56538015D01*
X74511335Y-56456640D01*
X74688141Y-56338502D01*
X74838502Y-56188141D01*
X74956640Y-56011335D01*
X75038015Y-55814878D01*
X75079500Y-55606321D01*
X75079500Y-55393679D01*
X75038015Y-55185122D01*
X74961335Y-55000000D01*
X75038015Y-54814878D01*
X75079500Y-54606321D01*
X75079500Y-54393679D01*
X75038015Y-54185122D01*
X74961335Y-54000000D01*
X75038015Y-53814878D01*
X75079500Y-53606321D01*
X75079500Y-53393679D01*
X75038015Y-53185122D01*
X75003286Y-53101278D01*
X83490000Y-53101278D01*
X83490000Y-53398722D01*
X83548029Y-53690451D01*
X83661856Y-53965253D01*
X83827107Y-54212569D01*
X84037431Y-54422893D01*
X84284747Y-54588144D01*
X84559549Y-54701971D01*
X84851278Y-54760000D01*
X85148722Y-54760000D01*
X85440451Y-54701971D01*
X85715253Y-54588144D01*
X85962569Y-54422893D01*
X86172893Y-54212569D01*
X86338144Y-53965253D01*
X86451971Y-53690451D01*
X86510000Y-53398722D01*
X86510000Y-53101278D01*
X86451971Y-52809549D01*
X86338144Y-52534747D01*
X86172893Y-52287431D01*
X85962569Y-52077107D01*
X85715253Y-51911856D01*
X85440451Y-51798029D01*
X85148722Y-51740000D01*
X84851278Y-51740000D01*
X84559549Y-51798029D01*
X84284747Y-51911856D01*
X84037431Y-52077107D01*
X83827107Y-52287431D01*
X83661856Y-52534747D01*
X83548029Y-52809549D01*
X83490000Y-53101278D01*
X75003286Y-53101278D01*
X74956640Y-52988665D01*
X74838502Y-52811859D01*
X74688141Y-52661498D01*
X74511335Y-52543360D01*
X74314878Y-52461985D01*
X74106321Y-52420500D01*
X73893679Y-52420500D01*
X73685122Y-52461985D01*
X73488665Y-52543360D01*
X73311859Y-52661498D01*
X73161498Y-52811859D01*
X73043360Y-52988665D01*
X72961985Y-53185122D01*
X72920500Y-53393679D01*
X63898306Y-53393679D01*
X63838405Y-53281614D01*
X63727962Y-53147038D01*
X63593386Y-53036595D01*
X63439850Y-52954528D01*
X63273254Y-52903992D01*
X63100000Y-52886928D01*
X61900000Y-52886928D01*
X61726746Y-52903992D01*
X61560150Y-52954528D01*
X61406614Y-53036595D01*
X61272038Y-53147038D01*
X61161595Y-53281614D01*
X61107223Y-53383337D01*
X61055134Y-53319866D01*
X60829014Y-53134294D01*
X60571034Y-52996401D01*
X60291111Y-52911487D01*
X60000000Y-52882815D01*
X59708890Y-52911487D01*
X59428967Y-52996401D01*
X59170987Y-53134294D01*
X58944866Y-53319866D01*
X58759294Y-53545986D01*
X58750000Y-53563374D01*
X58740706Y-53545986D01*
X58555134Y-53319866D01*
X58329014Y-53134294D01*
X58071034Y-52996401D01*
X57791111Y-52911487D01*
X57500000Y-52882815D01*
X57208890Y-52911487D01*
X56928967Y-52996401D01*
X56670987Y-53134294D01*
X56444866Y-53319866D01*
X56259294Y-53545986D01*
X56250000Y-53563374D01*
X56240706Y-53545986D01*
X56055134Y-53319866D01*
X55829014Y-53134294D01*
X55571034Y-52996401D01*
X55291111Y-52911487D01*
X55000000Y-52882815D01*
X54708890Y-52911487D01*
X54428967Y-52996401D01*
X54170987Y-53134294D01*
X53944866Y-53319866D01*
X53759294Y-53545986D01*
X53750000Y-53563374D01*
X53740706Y-53545986D01*
X53555134Y-53319866D01*
X53329014Y-53134294D01*
X53071034Y-52996401D01*
X52791111Y-52911487D01*
X52500000Y-52882815D01*
X52208890Y-52911487D01*
X51928967Y-52996401D01*
X51670987Y-53134294D01*
X51444866Y-53319866D01*
X51259294Y-53545986D01*
X51250000Y-53563374D01*
X51240706Y-53545986D01*
X51055134Y-53319866D01*
X50829014Y-53134294D01*
X50571034Y-52996401D01*
X50291111Y-52911487D01*
X50000000Y-52882815D01*
X49708890Y-52911487D01*
X49428967Y-52996401D01*
X49170987Y-53134294D01*
X48944866Y-53319866D01*
X48759294Y-53545986D01*
X48621401Y-53803966D01*
X48536487Y-54083889D01*
X48515000Y-54302050D01*
X46627000Y-54302050D01*
X46627000Y-53000000D01*
X46624560Y-52975224D01*
X46617333Y-52951399D01*
X46605597Y-52929443D01*
X46589803Y-52910197D01*
X44589803Y-50910197D01*
X44570557Y-50894403D01*
X44569203Y-50893679D01*
X69920500Y-50893679D01*
X69920500Y-51106321D01*
X69961985Y-51314878D01*
X70043360Y-51511335D01*
X70161498Y-51688141D01*
X70311859Y-51838502D01*
X70488665Y-51956640D01*
X70685122Y-52038015D01*
X70893679Y-52079500D01*
X71106321Y-52079500D01*
X71314878Y-52038015D01*
X71511335Y-51956640D01*
X71688141Y-51838502D01*
X71838502Y-51688141D01*
X71956640Y-51511335D01*
X72038015Y-51314878D01*
X72079500Y-51106321D01*
X72079500Y-50893679D01*
X72038015Y-50685122D01*
X71956640Y-50488665D01*
X71838502Y-50311859D01*
X71688141Y-50161498D01*
X71511335Y-50043360D01*
X71314878Y-49961985D01*
X71106321Y-49920500D01*
X70893679Y-49920500D01*
X70685122Y-49961985D01*
X70488665Y-50043360D01*
X70311859Y-50161498D01*
X70161498Y-50311859D01*
X70043360Y-50488665D01*
X69961985Y-50685122D01*
X69920500Y-50893679D01*
X44569203Y-50893679D01*
X44548601Y-50882667D01*
X44524776Y-50875440D01*
X44500000Y-50873000D01*
X39627000Y-50873000D01*
X39627000Y-46893679D01*
X49420500Y-46893679D01*
X49420500Y-47106321D01*
X49461985Y-47314878D01*
X49543360Y-47511335D01*
X49661498Y-47688141D01*
X49811859Y-47838502D01*
X49988665Y-47956640D01*
X50185122Y-48038015D01*
X50393679Y-48079500D01*
X50606321Y-48079500D01*
X50814878Y-48038015D01*
X51011335Y-47956640D01*
X51188141Y-47838502D01*
X51338502Y-47688141D01*
X51456640Y-47511335D01*
X51538015Y-47314878D01*
X51579500Y-47106321D01*
X51579500Y-46893679D01*
X51538015Y-46685122D01*
X51456640Y-46488665D01*
X51338502Y-46311859D01*
X51188141Y-46161498D01*
X51011335Y-46043360D01*
X50814878Y-45961985D01*
X50606321Y-45920500D01*
X50393679Y-45920500D01*
X50185122Y-45961985D01*
X49988665Y-46043360D01*
X49811859Y-46161498D01*
X49661498Y-46311859D01*
X49543360Y-46488665D01*
X49461985Y-46685122D01*
X49420500Y-46893679D01*
X39627000Y-46893679D01*
X39627000Y-43893679D01*
X50920500Y-43893679D01*
X50920500Y-44106321D01*
X50961985Y-44314878D01*
X51043360Y-44511335D01*
X51161498Y-44688141D01*
X51311859Y-44838502D01*
X51488665Y-44956640D01*
X51685122Y-45038015D01*
X51893679Y-45079500D01*
X52106321Y-45079500D01*
X52314878Y-45038015D01*
X52511335Y-44956640D01*
X52688141Y-44838502D01*
X52838502Y-44688141D01*
X52956640Y-44511335D01*
X52961335Y-44500000D01*
X57857815Y-44500000D01*
X57886487Y-44791111D01*
X57971401Y-45071034D01*
X58109294Y-45329014D01*
X58294866Y-45555134D01*
X58520986Y-45740706D01*
X58778966Y-45878599D01*
X59058889Y-45963513D01*
X59277050Y-45985000D01*
X59722950Y-45985000D01*
X59941111Y-45963513D01*
X60221034Y-45878599D01*
X60479014Y-45740706D01*
X60705134Y-45555134D01*
X60890706Y-45329014D01*
X61028599Y-45071034D01*
X61113513Y-44791111D01*
X61142185Y-44500000D01*
X64882815Y-44500000D01*
X64911487Y-44791111D01*
X64996401Y-45071034D01*
X65134294Y-45329014D01*
X65319866Y-45555134D01*
X65545986Y-45740706D01*
X65563374Y-45750000D01*
X65545986Y-45759294D01*
X65319866Y-45944866D01*
X65134294Y-46170986D01*
X64996401Y-46428966D01*
X64911487Y-46708889D01*
X64882815Y-47000000D01*
X64911487Y-47291111D01*
X64996401Y-47571034D01*
X65134294Y-47829014D01*
X65319866Y-48055134D01*
X65545986Y-48240706D01*
X65803966Y-48378599D01*
X66083889Y-48463513D01*
X66302050Y-48485000D01*
X66697950Y-48485000D01*
X66916111Y-48463513D01*
X67196034Y-48378599D01*
X67454014Y-48240706D01*
X67680134Y-48055134D01*
X67865706Y-47829014D01*
X68003599Y-47571034D01*
X68088513Y-47291111D01*
X68117185Y-47000000D01*
X68088513Y-46708889D01*
X68003599Y-46428966D01*
X67865706Y-46170986D01*
X67680134Y-45944866D01*
X67454014Y-45759294D01*
X67436626Y-45750000D01*
X67454014Y-45740706D01*
X67680134Y-45555134D01*
X67865706Y-45329014D01*
X68003599Y-45071034D01*
X68088513Y-44791111D01*
X68117185Y-44500000D01*
X71882815Y-44500000D01*
X71911487Y-44791111D01*
X71996401Y-45071034D01*
X72134294Y-45329014D01*
X72319866Y-45555134D01*
X72545986Y-45740706D01*
X72563374Y-45750000D01*
X72545986Y-45759294D01*
X72319866Y-45944866D01*
X72134294Y-46170986D01*
X71996401Y-46428966D01*
X71911487Y-46708889D01*
X71882815Y-47000000D01*
X71911487Y-47291111D01*
X71996401Y-47571034D01*
X72134294Y-47829014D01*
X72319866Y-48055134D01*
X72545986Y-48240706D01*
X72803966Y-48378599D01*
X73083889Y-48463513D01*
X73302050Y-48485000D01*
X73697950Y-48485000D01*
X73916111Y-48463513D01*
X74196034Y-48378599D01*
X74454014Y-48240706D01*
X74680134Y-48055134D01*
X74865706Y-47829014D01*
X75003599Y-47571034D01*
X75088513Y-47291111D01*
X75117185Y-47000000D01*
X75088513Y-46708889D01*
X75003599Y-46428966D01*
X74865706Y-46170986D01*
X74680134Y-45944866D01*
X74454014Y-45759294D01*
X74436626Y-45750000D01*
X74454014Y-45740706D01*
X74680134Y-45555134D01*
X74865706Y-45329014D01*
X75003599Y-45071034D01*
X75088513Y-44791111D01*
X75117185Y-44500000D01*
X78882815Y-44500000D01*
X78911487Y-44791111D01*
X78996401Y-45071034D01*
X79134294Y-45329014D01*
X79319866Y-45555134D01*
X79545986Y-45740706D01*
X79563374Y-45750000D01*
X79545986Y-45759294D01*
X79319866Y-45944866D01*
X79134294Y-46170986D01*
X78996401Y-46428966D01*
X78911487Y-46708889D01*
X78882815Y-47000000D01*
X78911487Y-47291111D01*
X78996401Y-47571034D01*
X79134294Y-47829014D01*
X79319866Y-48055134D01*
X79545986Y-48240706D01*
X79803966Y-48378599D01*
X80083889Y-48463513D01*
X80302050Y-48485000D01*
X80697950Y-48485000D01*
X80916111Y-48463513D01*
X81196034Y-48378599D01*
X81454014Y-48240706D01*
X81680134Y-48055134D01*
X81865706Y-47829014D01*
X82003599Y-47571034D01*
X82088513Y-47291111D01*
X82117185Y-47000000D01*
X82088513Y-46708889D01*
X82003599Y-46428966D01*
X81984738Y-46393679D01*
X83420500Y-46393679D01*
X83420500Y-46606321D01*
X83461985Y-46814878D01*
X83543360Y-47011335D01*
X83661498Y-47188141D01*
X83811859Y-47338502D01*
X83988665Y-47456640D01*
X84185122Y-47538015D01*
X84393679Y-47579500D01*
X84606321Y-47579500D01*
X84814878Y-47538015D01*
X85011335Y-47456640D01*
X85188141Y-47338502D01*
X85338502Y-47188141D01*
X85456640Y-47011335D01*
X85538015Y-46814878D01*
X85539100Y-46809419D01*
X98565000Y-46809419D01*
X98565000Y-47190581D01*
X98639361Y-47564419D01*
X98785225Y-47916566D01*
X98996987Y-48233491D01*
X99266509Y-48503013D01*
X99583434Y-48714775D01*
X99935581Y-48860639D01*
X100309419Y-48935000D01*
X100690581Y-48935000D01*
X101064419Y-48860639D01*
X101416566Y-48714775D01*
X101733491Y-48503013D01*
X102003013Y-48233491D01*
X102214775Y-47916566D01*
X102360639Y-47564419D01*
X102435000Y-47190581D01*
X102435000Y-46809419D01*
X102360639Y-46435581D01*
X102214775Y-46083434D01*
X102003013Y-45766509D01*
X101733491Y-45496987D01*
X101416566Y-45285225D01*
X101064419Y-45139361D01*
X100690581Y-45065000D01*
X100309419Y-45065000D01*
X99935581Y-45139361D01*
X99583434Y-45285225D01*
X99266509Y-45496987D01*
X98996987Y-45766509D01*
X98785225Y-46083434D01*
X98639361Y-46435581D01*
X98565000Y-46809419D01*
X85539100Y-46809419D01*
X85579500Y-46606321D01*
X85579500Y-46393679D01*
X85538015Y-46185122D01*
X85456640Y-45988665D01*
X85338502Y-45811859D01*
X85188141Y-45661498D01*
X85011335Y-45543360D01*
X84814878Y-45461985D01*
X84606321Y-45420500D01*
X84393679Y-45420500D01*
X84185122Y-45461985D01*
X83988665Y-45543360D01*
X83811859Y-45661498D01*
X83661498Y-45811859D01*
X83543360Y-45988665D01*
X83461985Y-46185122D01*
X83420500Y-46393679D01*
X81984738Y-46393679D01*
X81865706Y-46170986D01*
X81680134Y-45944866D01*
X81454014Y-45759294D01*
X81436626Y-45750000D01*
X81454014Y-45740706D01*
X81680134Y-45555134D01*
X81865706Y-45329014D01*
X82003599Y-45071034D01*
X82088513Y-44791111D01*
X82117185Y-44500000D01*
X82088513Y-44208889D01*
X82003599Y-43928966D01*
X81865706Y-43670986D01*
X81680134Y-43444866D01*
X81616663Y-43392777D01*
X81718386Y-43338405D01*
X81852962Y-43227962D01*
X81963405Y-43093386D01*
X82045472Y-42939850D01*
X82096008Y-42773254D01*
X82113072Y-42600000D01*
X82113072Y-42393679D01*
X90420500Y-42393679D01*
X90420500Y-42606321D01*
X90461985Y-42814878D01*
X90543360Y-43011335D01*
X90661498Y-43188141D01*
X90811859Y-43338502D01*
X90988665Y-43456640D01*
X91185122Y-43538015D01*
X91393679Y-43579500D01*
X91606321Y-43579500D01*
X91814878Y-43538015D01*
X92011335Y-43456640D01*
X92188141Y-43338502D01*
X92338502Y-43188141D01*
X92456640Y-43011335D01*
X92538015Y-42814878D01*
X92579500Y-42606321D01*
X92579500Y-42393679D01*
X92538015Y-42185122D01*
X92456640Y-41988665D01*
X92338502Y-41811859D01*
X92188141Y-41661498D01*
X92011335Y-41543360D01*
X91814878Y-41461985D01*
X91606321Y-41420500D01*
X91393679Y-41420500D01*
X91185122Y-41461985D01*
X90988665Y-41543360D01*
X90811859Y-41661498D01*
X90661498Y-41811859D01*
X90543360Y-41988665D01*
X90461985Y-42185122D01*
X90420500Y-42393679D01*
X82113072Y-42393679D01*
X82113072Y-41400000D01*
X82096008Y-41226746D01*
X82045472Y-41060150D01*
X81963405Y-40906614D01*
X81852962Y-40772038D01*
X81718386Y-40661595D01*
X81564850Y-40579528D01*
X81398254Y-40528992D01*
X81225000Y-40511928D01*
X79775000Y-40511928D01*
X79601746Y-40528992D01*
X79435150Y-40579528D01*
X79281614Y-40661595D01*
X79147038Y-40772038D01*
X79036595Y-40906614D01*
X78954528Y-41060150D01*
X78903992Y-41226746D01*
X78886928Y-41400000D01*
X78886928Y-42600000D01*
X78903992Y-42773254D01*
X78954528Y-42939850D01*
X79036595Y-43093386D01*
X79147038Y-43227962D01*
X79281614Y-43338405D01*
X79383337Y-43392777D01*
X79319866Y-43444866D01*
X79134294Y-43670986D01*
X78996401Y-43928966D01*
X78911487Y-44208889D01*
X78882815Y-44500000D01*
X75117185Y-44500000D01*
X75088513Y-44208889D01*
X75003599Y-43928966D01*
X74865706Y-43670986D01*
X74680134Y-43444866D01*
X74616663Y-43392777D01*
X74718386Y-43338405D01*
X74852962Y-43227962D01*
X74963405Y-43093386D01*
X75045472Y-42939850D01*
X75096008Y-42773254D01*
X75113072Y-42600000D01*
X75113072Y-41400000D01*
X75096008Y-41226746D01*
X75045472Y-41060150D01*
X74963405Y-40906614D01*
X74852962Y-40772038D01*
X74718386Y-40661595D01*
X74564850Y-40579528D01*
X74398254Y-40528992D01*
X74225000Y-40511928D01*
X72775000Y-40511928D01*
X72601746Y-40528992D01*
X72435150Y-40579528D01*
X72281614Y-40661595D01*
X72147038Y-40772038D01*
X72036595Y-40906614D01*
X71954528Y-41060150D01*
X71903992Y-41226746D01*
X71886928Y-41400000D01*
X71886928Y-42600000D01*
X71903992Y-42773254D01*
X71954528Y-42939850D01*
X72036595Y-43093386D01*
X72147038Y-43227962D01*
X72281614Y-43338405D01*
X72383337Y-43392777D01*
X72319866Y-43444866D01*
X72134294Y-43670986D01*
X71996401Y-43928966D01*
X71911487Y-44208889D01*
X71882815Y-44500000D01*
X68117185Y-44500000D01*
X68088513Y-44208889D01*
X68003599Y-43928966D01*
X67865706Y-43670986D01*
X67680134Y-43444866D01*
X67616663Y-43392777D01*
X67718386Y-43338405D01*
X67852962Y-43227962D01*
X67963405Y-43093386D01*
X68045472Y-42939850D01*
X68096008Y-42773254D01*
X68113072Y-42600000D01*
X68113072Y-41400000D01*
X68096008Y-41226746D01*
X68045472Y-41060150D01*
X67963405Y-40906614D01*
X67852962Y-40772038D01*
X67718386Y-40661595D01*
X67564850Y-40579528D01*
X67398254Y-40528992D01*
X67225000Y-40511928D01*
X65775000Y-40511928D01*
X65601746Y-40528992D01*
X65435150Y-40579528D01*
X65281614Y-40661595D01*
X65147038Y-40772038D01*
X65036595Y-40906614D01*
X64954528Y-41060150D01*
X64903992Y-41226746D01*
X64886928Y-41400000D01*
X64886928Y-42600000D01*
X64903992Y-42773254D01*
X64954528Y-42939850D01*
X65036595Y-43093386D01*
X65147038Y-43227962D01*
X65281614Y-43338405D01*
X65383337Y-43392777D01*
X65319866Y-43444866D01*
X65134294Y-43670986D01*
X64996401Y-43928966D01*
X64911487Y-44208889D01*
X64882815Y-44500000D01*
X61142185Y-44500000D01*
X61113513Y-44208889D01*
X61028599Y-43928966D01*
X60890706Y-43670986D01*
X60705134Y-43444866D01*
X60641663Y-43392777D01*
X60743386Y-43338405D01*
X60877962Y-43227962D01*
X60988405Y-43093386D01*
X61070472Y-42939850D01*
X61121008Y-42773254D01*
X61138072Y-42600000D01*
X61138072Y-41400000D01*
X61121008Y-41226746D01*
X61070472Y-41060150D01*
X60988405Y-40906614D01*
X60877962Y-40772038D01*
X60743386Y-40661595D01*
X60589850Y-40579528D01*
X60423254Y-40528992D01*
X60250000Y-40511928D01*
X58750000Y-40511928D01*
X58576746Y-40528992D01*
X58410150Y-40579528D01*
X58256614Y-40661595D01*
X58122038Y-40772038D01*
X58011595Y-40906614D01*
X57929528Y-41060150D01*
X57878992Y-41226746D01*
X57861928Y-41400000D01*
X57861928Y-42600000D01*
X57878992Y-42773254D01*
X57929528Y-42939850D01*
X58011595Y-43093386D01*
X58122038Y-43227962D01*
X58256614Y-43338405D01*
X58358337Y-43392777D01*
X58294866Y-43444866D01*
X58109294Y-43670986D01*
X57971401Y-43928966D01*
X57886487Y-44208889D01*
X57857815Y-44500000D01*
X52961335Y-44500000D01*
X53038015Y-44314878D01*
X53079500Y-44106321D01*
X53079500Y-43893679D01*
X53038015Y-43685122D01*
X52956640Y-43488665D01*
X52838502Y-43311859D01*
X52688141Y-43161498D01*
X52511335Y-43043360D01*
X52314878Y-42961985D01*
X52106321Y-42920500D01*
X51893679Y-42920500D01*
X51685122Y-42961985D01*
X51488665Y-43043360D01*
X51311859Y-43161498D01*
X51161498Y-43311859D01*
X51043360Y-43488665D01*
X50961985Y-43685122D01*
X50920500Y-43893679D01*
X39627000Y-43893679D01*
X39627000Y-42840900D01*
X53473279Y-42840900D01*
X53473279Y-43053542D01*
X53514764Y-43262099D01*
X53596139Y-43458556D01*
X53714277Y-43635362D01*
X53864638Y-43785723D01*
X54041444Y-43903861D01*
X54237901Y-43985236D01*
X54446458Y-44026721D01*
X54659100Y-44026721D01*
X54867657Y-43985236D01*
X55064114Y-43903861D01*
X55240920Y-43785723D01*
X55391281Y-43635362D01*
X55509419Y-43458556D01*
X55590794Y-43262099D01*
X55632279Y-43053542D01*
X55632279Y-42840900D01*
X55590794Y-42632343D01*
X55509419Y-42435886D01*
X55391281Y-42259080D01*
X55240920Y-42108719D01*
X55064114Y-41990581D01*
X54867657Y-41909206D01*
X54659100Y-41867721D01*
X54446458Y-41867721D01*
X54237901Y-41909206D01*
X54041444Y-41990581D01*
X53864638Y-42108719D01*
X53714277Y-42259080D01*
X53596139Y-42435886D01*
X53514764Y-42632343D01*
X53473279Y-42840900D01*
X39627000Y-42840900D01*
X39627000Y-40340899D01*
X50973280Y-40340899D01*
X50973280Y-40553541D01*
X51014765Y-40762098D01*
X51096140Y-40958555D01*
X51214278Y-41135361D01*
X51364639Y-41285722D01*
X51541445Y-41403860D01*
X51737902Y-41485235D01*
X51946459Y-41526720D01*
X52159101Y-41526720D01*
X52367658Y-41485235D01*
X52564115Y-41403860D01*
X52740921Y-41285722D01*
X52891282Y-41135361D01*
X53009420Y-40958555D01*
X53090795Y-40762098D01*
X53132280Y-40553541D01*
X53132280Y-40340899D01*
X53090795Y-40132342D01*
X53009420Y-39935885D01*
X52891282Y-39759079D01*
X52740921Y-39608718D01*
X52564115Y-39490580D01*
X52367658Y-39409205D01*
X52159101Y-39367720D01*
X51946459Y-39367720D01*
X51737902Y-39409205D01*
X51541445Y-39490580D01*
X51364639Y-39608718D01*
X51214278Y-39759079D01*
X51096140Y-39935885D01*
X51014765Y-40132342D01*
X50973280Y-40340899D01*
X39627000Y-40340899D01*
X39627000Y-35136511D01*
X39661498Y-35188141D01*
X39811859Y-35338502D01*
X39988665Y-35456640D01*
X40185122Y-35538015D01*
X40393679Y-35579500D01*
X40606321Y-35579500D01*
X40814878Y-35538015D01*
X41011335Y-35456640D01*
X41188141Y-35338502D01*
X41338502Y-35188141D01*
X41379355Y-35127000D01*
X46277345Y-35127000D01*
X46174880Y-35229465D01*
G37*
G04 #@! TD.AperFunction*
M02*
