G04 #@! TF.GenerationSoftware,KiCad,Pcbnew,5.1.10-88a1d61d58~90~ubuntu20.04.1*
G04 #@! TF.CreationDate,2021-11-04T10:14:28-04:00*
G04 #@! TF.ProjectId,psu_control,7073755f-636f-46e7-9472-6f6c2e6b6963,rev?*
G04 #@! TF.SameCoordinates,Original*
G04 #@! TF.FileFunction,Legend,Top*
G04 #@! TF.FilePolarity,Positive*
%FSLAX46Y46*%
G04 Gerber Fmt 4.6, Leading zero omitted, Abs format (unit mm)*
G04 Created by KiCad (PCBNEW 5.1.10-88a1d61d58~90~ubuntu20.04.1) date 2021-11-04 10:14:28*
%MOMM*%
%LPD*%
G01*
G04 APERTURE LIST*
%ADD10C,0.150000*%
%ADD11C,0.120000*%
%ADD12C,1.750000*%
%ADD13C,1.524000*%
%ADD14O,2.000000X1.700000*%
%ADD15O,1.950000X1.700000*%
%ADD16R,0.300000X1.400000*%
%ADD17C,3.200000*%
%ADD18R,0.900000X0.800000*%
%ADD19C,2.600000*%
%ADD20C,1.500000*%
%ADD21O,1.700000X2.000000*%
%ADD22C,1.600000*%
%ADD23R,0.800000X0.900000*%
%ADD24R,10.800000X9.400000*%
%ADD25R,1.100000X4.600000*%
%ADD26O,1.700000X1.950000*%
%ADD27C,3.000000*%
%ADD28R,1.100000X1.100000*%
%ADD29R,1.200000X0.900000*%
%ADD30R,0.900000X1.200000*%
%ADD31R,1.600000X1.600000*%
G04 APERTURE END LIST*
D10*
X93404761Y-22000000D02*
X93309523Y-21952380D01*
X93166666Y-21952380D01*
X93023809Y-22000000D01*
X92928571Y-22095238D01*
X92880952Y-22190476D01*
X92833333Y-22380952D01*
X92833333Y-22523809D01*
X92880952Y-22714285D01*
X92928571Y-22809523D01*
X93023809Y-22904761D01*
X93166666Y-22952380D01*
X93261904Y-22952380D01*
X93404761Y-22904761D01*
X93452380Y-22857142D01*
X93452380Y-22523809D01*
X93261904Y-22523809D01*
X95214285Y-22952380D02*
X94880952Y-22476190D01*
X94642857Y-22952380D02*
X94642857Y-21952380D01*
X95023809Y-21952380D01*
X95119047Y-22000000D01*
X95166666Y-22047619D01*
X95214285Y-22142857D01*
X95214285Y-22285714D01*
X95166666Y-22380952D01*
X95119047Y-22428571D01*
X95023809Y-22476190D01*
X94642857Y-22476190D01*
X95547619Y-21952380D02*
X96214285Y-22952380D01*
X96214285Y-21952380D02*
X95547619Y-22952380D01*
X97214285Y-21952380D02*
X97785714Y-21952380D01*
X97500000Y-22952380D02*
X97500000Y-21952380D01*
X98023809Y-21952380D02*
X98690476Y-22952380D01*
X98690476Y-21952380D02*
X98023809Y-22952380D01*
X99738095Y-21952380D02*
X100357142Y-21952380D01*
X100023809Y-22333333D01*
X100166666Y-22333333D01*
X100261904Y-22380952D01*
X100309523Y-22428571D01*
X100357142Y-22523809D01*
X100357142Y-22761904D01*
X100309523Y-22857142D01*
X100261904Y-22904761D01*
X100166666Y-22952380D01*
X99880952Y-22952380D01*
X99785714Y-22904761D01*
X99738095Y-22857142D01*
X100642857Y-21952380D02*
X100976190Y-22952380D01*
X101309523Y-21952380D01*
X101547619Y-21952380D02*
X102166666Y-21952380D01*
X101833333Y-22333333D01*
X101976190Y-22333333D01*
X102071428Y-22380952D01*
X102119047Y-22428571D01*
X102166666Y-22523809D01*
X102166666Y-22761904D01*
X102119047Y-22857142D01*
X102071428Y-22904761D01*
X101976190Y-22952380D01*
X101690476Y-22952380D01*
X101595238Y-22904761D01*
X101547619Y-22857142D01*
X84404761Y-48857142D02*
X84452380Y-48714285D01*
X84452380Y-48476190D01*
X84404761Y-48380952D01*
X84357142Y-48333333D01*
X84261904Y-48285714D01*
X84166666Y-48285714D01*
X84071428Y-48333333D01*
X84023809Y-48380952D01*
X83976190Y-48476190D01*
X83928571Y-48666666D01*
X83880952Y-48761904D01*
X83833333Y-48809523D01*
X83738095Y-48857142D01*
X83642857Y-48857142D01*
X83547619Y-48809523D01*
X83500000Y-48761904D01*
X83452380Y-48666666D01*
X83452380Y-48428571D01*
X83500000Y-48285714D01*
X84452380Y-47857142D02*
X83452380Y-47857142D01*
X83452380Y-47619047D01*
X83500000Y-47476190D01*
X83595238Y-47380952D01*
X83690476Y-47333333D01*
X83880952Y-47285714D01*
X84023809Y-47285714D01*
X84214285Y-47333333D01*
X84309523Y-47380952D01*
X84404761Y-47476190D01*
X84452380Y-47619047D01*
X84452380Y-47857142D01*
X84166666Y-46904761D02*
X84166666Y-46428571D01*
X84452380Y-47000000D02*
X83452380Y-46666666D01*
X84452380Y-46333333D01*
X84404761Y-45285714D02*
X84452380Y-45142857D01*
X84452380Y-44904761D01*
X84404761Y-44809523D01*
X84357142Y-44761904D01*
X84261904Y-44714285D01*
X84166666Y-44714285D01*
X84071428Y-44761904D01*
X84023809Y-44809523D01*
X83976190Y-44904761D01*
X83928571Y-45095238D01*
X83880952Y-45190476D01*
X83833333Y-45238095D01*
X83738095Y-45285714D01*
X83642857Y-45285714D01*
X83547619Y-45238095D01*
X83500000Y-45190476D01*
X83452380Y-45095238D01*
X83452380Y-44857142D01*
X83500000Y-44714285D01*
X84357142Y-43714285D02*
X84404761Y-43761904D01*
X84452380Y-43904761D01*
X84452380Y-44000000D01*
X84404761Y-44142857D01*
X84309523Y-44238095D01*
X84214285Y-44285714D01*
X84023809Y-44333333D01*
X83880952Y-44333333D01*
X83690476Y-44285714D01*
X83595238Y-44238095D01*
X83500000Y-44142857D01*
X83452380Y-44000000D01*
X83452380Y-43904761D01*
X83500000Y-43761904D01*
X83547619Y-43714285D01*
X84452380Y-42809523D02*
X84452380Y-43285714D01*
X83452380Y-43285714D01*
X83500000Y-41190476D02*
X83452380Y-41285714D01*
X83452380Y-41428571D01*
X83500000Y-41571428D01*
X83595238Y-41666666D01*
X83690476Y-41714285D01*
X83880952Y-41761904D01*
X84023809Y-41761904D01*
X84214285Y-41714285D01*
X84309523Y-41666666D01*
X84404761Y-41571428D01*
X84452380Y-41428571D01*
X84452380Y-41333333D01*
X84404761Y-41190476D01*
X84357142Y-41142857D01*
X84023809Y-41142857D01*
X84023809Y-41333333D01*
X47642857Y-49500000D02*
X47547619Y-49452380D01*
X47404761Y-49452380D01*
X47261904Y-49500000D01*
X47166666Y-49595238D01*
X47119047Y-49690476D01*
X47071428Y-49880952D01*
X47071428Y-50023809D01*
X47119047Y-50214285D01*
X47166666Y-50309523D01*
X47261904Y-50404761D01*
X47404761Y-50452380D01*
X47500000Y-50452380D01*
X47642857Y-50404761D01*
X47690476Y-50357142D01*
X47690476Y-50023809D01*
X47500000Y-50023809D01*
X48880952Y-50452380D02*
X48880952Y-49452380D01*
X49261904Y-49452380D01*
X49357142Y-49500000D01*
X49404761Y-49547619D01*
X49452380Y-49642857D01*
X49452380Y-49785714D01*
X49404761Y-49880952D01*
X49357142Y-49928571D01*
X49261904Y-49976190D01*
X48880952Y-49976190D01*
X49833333Y-50404761D02*
X49976190Y-50452380D01*
X50214285Y-50452380D01*
X50309523Y-50404761D01*
X50357142Y-50357142D01*
X50404761Y-50261904D01*
X50404761Y-50166666D01*
X50357142Y-50071428D01*
X50309523Y-50023809D01*
X50214285Y-49976190D01*
X50023809Y-49928571D01*
X49928571Y-49880952D01*
X49880952Y-49833333D01*
X49833333Y-49738095D01*
X49833333Y-49642857D01*
X49880952Y-49547619D01*
X49928571Y-49500000D01*
X50023809Y-49452380D01*
X50261904Y-49452380D01*
X50404761Y-49500000D01*
X50833333Y-49452380D02*
X50833333Y-50261904D01*
X50880952Y-50357142D01*
X50928571Y-50404761D01*
X51023809Y-50452380D01*
X51214285Y-50452380D01*
X51309523Y-50404761D01*
X51357142Y-50357142D01*
X51404761Y-50261904D01*
X51404761Y-49452380D01*
X52976190Y-49928571D02*
X53119047Y-49976190D01*
X53166666Y-50023809D01*
X53214285Y-50119047D01*
X53214285Y-50261904D01*
X53166666Y-50357142D01*
X53119047Y-50404761D01*
X53023809Y-50452380D01*
X52642857Y-50452380D01*
X52642857Y-49452380D01*
X52976190Y-49452380D01*
X53071428Y-49500000D01*
X53119047Y-49547619D01*
X53166666Y-49642857D01*
X53166666Y-49738095D01*
X53119047Y-49833333D01*
X53071428Y-49880952D01*
X52976190Y-49928571D01*
X52642857Y-49928571D01*
X53595238Y-50166666D02*
X54071428Y-50166666D01*
X53500000Y-50452380D02*
X53833333Y-49452380D01*
X54166666Y-50452380D01*
X54357142Y-49452380D02*
X54928571Y-49452380D01*
X54642857Y-50452380D02*
X54642857Y-49452380D01*
X55976190Y-50404761D02*
X56119047Y-50452380D01*
X56357142Y-50452380D01*
X56452380Y-50404761D01*
X56500000Y-50357142D01*
X56547619Y-50261904D01*
X56547619Y-50166666D01*
X56500000Y-50071428D01*
X56452380Y-50023809D01*
X56357142Y-49976190D01*
X56166666Y-49928571D01*
X56071428Y-49880952D01*
X56023809Y-49833333D01*
X55976190Y-49738095D01*
X55976190Y-49642857D01*
X56023809Y-49547619D01*
X56071428Y-49500000D01*
X56166666Y-49452380D01*
X56404761Y-49452380D01*
X56547619Y-49500000D01*
X57547619Y-50357142D02*
X57500000Y-50404761D01*
X57357142Y-50452380D01*
X57261904Y-50452380D01*
X57119047Y-50404761D01*
X57023809Y-50309523D01*
X56976190Y-50214285D01*
X56928571Y-50023809D01*
X56928571Y-49880952D01*
X56976190Y-49690476D01*
X57023809Y-49595238D01*
X57119047Y-49500000D01*
X57261904Y-49452380D01*
X57357142Y-49452380D01*
X57500000Y-49500000D01*
X57547619Y-49547619D01*
X58452380Y-50452380D02*
X57976190Y-50452380D01*
X57976190Y-49452380D01*
X59500000Y-50404761D02*
X59642857Y-50452380D01*
X59880952Y-50452380D01*
X59976190Y-50404761D01*
X60023809Y-50357142D01*
X60071428Y-50261904D01*
X60071428Y-50166666D01*
X60023809Y-50071428D01*
X59976190Y-50023809D01*
X59880952Y-49976190D01*
X59690476Y-49928571D01*
X59595238Y-49880952D01*
X59547619Y-49833333D01*
X59500000Y-49738095D01*
X59500000Y-49642857D01*
X59547619Y-49547619D01*
X59595238Y-49500000D01*
X59690476Y-49452380D01*
X59928571Y-49452380D01*
X60071428Y-49500000D01*
X60500000Y-50452380D02*
X60500000Y-49452380D01*
X60738095Y-49452380D01*
X60880952Y-49500000D01*
X60976190Y-49595238D01*
X61023809Y-49690476D01*
X61071428Y-49880952D01*
X61071428Y-50023809D01*
X61023809Y-50214285D01*
X60976190Y-50309523D01*
X60880952Y-50404761D01*
X60738095Y-50452380D01*
X60500000Y-50452380D01*
X61452380Y-50166666D02*
X61928571Y-50166666D01*
X61357142Y-50452380D02*
X61690476Y-49452380D01*
X62023809Y-50452380D01*
X94619047Y-78921428D02*
X95380952Y-78921428D01*
X95000000Y-79302380D02*
X95000000Y-78540476D01*
X94619047Y-82221428D02*
X95380952Y-82221428D01*
X22119047Y-50746428D02*
X22880952Y-50746428D01*
X22500000Y-51127380D02*
X22500000Y-50365476D01*
X22119047Y-52396428D02*
X22880952Y-52396428D01*
X62261904Y-75452380D02*
X61690476Y-75452380D01*
X61976190Y-75452380D02*
X61976190Y-74452380D01*
X61880952Y-74595238D01*
X61785714Y-74690476D01*
X61690476Y-74738095D01*
X62880952Y-74452380D02*
X62976190Y-74452380D01*
X63071428Y-74500000D01*
X63119047Y-74547619D01*
X63166666Y-74642857D01*
X63214285Y-74833333D01*
X63214285Y-75071428D01*
X63166666Y-75261904D01*
X63119047Y-75357142D01*
X63071428Y-75404761D01*
X62976190Y-75452380D01*
X62880952Y-75452380D01*
X62785714Y-75404761D01*
X62738095Y-75357142D01*
X62690476Y-75261904D01*
X62642857Y-75071428D01*
X62642857Y-74833333D01*
X62690476Y-74642857D01*
X62738095Y-74547619D01*
X62785714Y-74500000D01*
X62880952Y-74452380D01*
X63833333Y-74452380D02*
X63928571Y-74452380D01*
X64023809Y-74500000D01*
X64071428Y-74547619D01*
X64119047Y-74642857D01*
X64166666Y-74833333D01*
X64166666Y-75071428D01*
X64119047Y-75261904D01*
X64071428Y-75357142D01*
X64023809Y-75404761D01*
X63928571Y-75452380D01*
X63833333Y-75452380D01*
X63738095Y-75404761D01*
X63690476Y-75357142D01*
X63642857Y-75261904D01*
X63595238Y-75071428D01*
X63595238Y-74833333D01*
X63642857Y-74642857D01*
X63690476Y-74547619D01*
X63738095Y-74500000D01*
X63833333Y-74452380D01*
X64547619Y-75452380D02*
X65309523Y-74452380D01*
X64690476Y-74452380D02*
X64785714Y-74500000D01*
X64833333Y-74595238D01*
X64785714Y-74690476D01*
X64690476Y-74738095D01*
X64595238Y-74690476D01*
X64547619Y-74595238D01*
X64595238Y-74500000D01*
X64690476Y-74452380D01*
X65261904Y-75404761D02*
X65309523Y-75309523D01*
X65261904Y-75214285D01*
X65166666Y-75166666D01*
X65071428Y-75214285D01*
X65023809Y-75309523D01*
X65071428Y-75404761D01*
X65166666Y-75452380D01*
X65261904Y-75404761D01*
X48119047Y-79452380D02*
X48785714Y-79452380D01*
X48357142Y-80452380D01*
X49642857Y-79452380D02*
X49166666Y-79452380D01*
X49119047Y-79928571D01*
X49166666Y-79880952D01*
X49261904Y-79833333D01*
X49500000Y-79833333D01*
X49595238Y-79880952D01*
X49642857Y-79928571D01*
X49690476Y-80023809D01*
X49690476Y-80261904D01*
X49642857Y-80357142D01*
X49595238Y-80404761D01*
X49500000Y-80452380D01*
X49261904Y-80452380D01*
X49166666Y-80404761D01*
X49119047Y-80357142D01*
X50071428Y-80452380D02*
X50833333Y-79452380D01*
X50214285Y-79452380D02*
X50309523Y-79500000D01*
X50357142Y-79595238D01*
X50309523Y-79690476D01*
X50214285Y-79738095D01*
X50119047Y-79690476D01*
X50071428Y-79595238D01*
X50119047Y-79500000D01*
X50214285Y-79452380D01*
X50785714Y-80404761D02*
X50833333Y-80309523D01*
X50785714Y-80214285D01*
X50690476Y-80166666D01*
X50595238Y-80214285D01*
X50547619Y-80309523D01*
X50595238Y-80404761D01*
X50690476Y-80452380D01*
X50785714Y-80404761D01*
X41690476Y-72952380D02*
X41214285Y-72952380D01*
X41166666Y-73428571D01*
X41214285Y-73380952D01*
X41309523Y-73333333D01*
X41547619Y-73333333D01*
X41642857Y-73380952D01*
X41690476Y-73428571D01*
X41738095Y-73523809D01*
X41738095Y-73761904D01*
X41690476Y-73857142D01*
X41642857Y-73904761D01*
X41547619Y-73952380D01*
X41309523Y-73952380D01*
X41214285Y-73904761D01*
X41166666Y-73857142D01*
X42357142Y-72952380D02*
X42452380Y-72952380D01*
X42547619Y-73000000D01*
X42595238Y-73047619D01*
X42642857Y-73142857D01*
X42690476Y-73333333D01*
X42690476Y-73571428D01*
X42642857Y-73761904D01*
X42595238Y-73857142D01*
X42547619Y-73904761D01*
X42452380Y-73952380D01*
X42357142Y-73952380D01*
X42261904Y-73904761D01*
X42214285Y-73857142D01*
X42166666Y-73761904D01*
X42119047Y-73571428D01*
X42119047Y-73333333D01*
X42166666Y-73142857D01*
X42214285Y-73047619D01*
X42261904Y-73000000D01*
X42357142Y-72952380D01*
X43071428Y-73952380D02*
X43833333Y-72952380D01*
X43214285Y-72952380D02*
X43309523Y-73000000D01*
X43357142Y-73095238D01*
X43309523Y-73190476D01*
X43214285Y-73238095D01*
X43119047Y-73190476D01*
X43071428Y-73095238D01*
X43119047Y-73000000D01*
X43214285Y-72952380D01*
X43785714Y-73904761D02*
X43833333Y-73809523D01*
X43785714Y-73714285D01*
X43690476Y-73666666D01*
X43595238Y-73714285D01*
X43547619Y-73809523D01*
X43595238Y-73904761D01*
X43690476Y-73952380D01*
X43785714Y-73904761D01*
X34166666Y-66047619D02*
X34214285Y-66000000D01*
X34309523Y-65952380D01*
X34547619Y-65952380D01*
X34642857Y-66000000D01*
X34690476Y-66047619D01*
X34738095Y-66142857D01*
X34738095Y-66238095D01*
X34690476Y-66380952D01*
X34119047Y-66952380D01*
X34738095Y-66952380D01*
X35642857Y-65952380D02*
X35166666Y-65952380D01*
X35119047Y-66428571D01*
X35166666Y-66380952D01*
X35261904Y-66333333D01*
X35500000Y-66333333D01*
X35595238Y-66380952D01*
X35642857Y-66428571D01*
X35690476Y-66523809D01*
X35690476Y-66761904D01*
X35642857Y-66857142D01*
X35595238Y-66904761D01*
X35500000Y-66952380D01*
X35261904Y-66952380D01*
X35166666Y-66904761D01*
X35119047Y-66857142D01*
X36071428Y-66952380D02*
X36833333Y-65952380D01*
X36214285Y-65952380D02*
X36309523Y-66000000D01*
X36357142Y-66095238D01*
X36309523Y-66190476D01*
X36214285Y-66238095D01*
X36119047Y-66190476D01*
X36071428Y-66095238D01*
X36119047Y-66000000D01*
X36214285Y-65952380D01*
X36785714Y-66904761D02*
X36833333Y-66809523D01*
X36785714Y-66714285D01*
X36690476Y-66666666D01*
X36595238Y-66714285D01*
X36547619Y-66809523D01*
X36595238Y-66904761D01*
X36690476Y-66952380D01*
X36785714Y-66904761D01*
X27785714Y-59857142D02*
X27738095Y-59904761D01*
X27595238Y-59952380D01*
X27500000Y-59952380D01*
X27357142Y-59904761D01*
X27261904Y-59809523D01*
X27214285Y-59714285D01*
X27166666Y-59523809D01*
X27166666Y-59380952D01*
X27214285Y-59190476D01*
X27261904Y-59095238D01*
X27357142Y-59000000D01*
X27500000Y-58952380D01*
X27595238Y-58952380D01*
X27738095Y-59000000D01*
X27785714Y-59047619D01*
X28214285Y-59952380D02*
X28214285Y-58952380D01*
X28214285Y-59428571D02*
X28785714Y-59428571D01*
X28785714Y-59952380D02*
X28785714Y-58952380D01*
X29785714Y-59000000D02*
X29690476Y-58952380D01*
X29547619Y-58952380D01*
X29404761Y-59000000D01*
X29309523Y-59095238D01*
X29261904Y-59190476D01*
X29214285Y-59380952D01*
X29214285Y-59523809D01*
X29261904Y-59714285D01*
X29309523Y-59809523D01*
X29404761Y-59904761D01*
X29547619Y-59952380D01*
X29642857Y-59952380D01*
X29785714Y-59904761D01*
X29833333Y-59857142D01*
X29833333Y-59523809D01*
X29642857Y-59523809D01*
X20238095Y-53952380D02*
X20238095Y-52952380D01*
X20619047Y-52952380D01*
X20714285Y-53000000D01*
X20761904Y-53047619D01*
X20809523Y-53142857D01*
X20809523Y-53285714D01*
X20761904Y-53380952D01*
X20714285Y-53428571D01*
X20619047Y-53476190D01*
X20238095Y-53476190D01*
X21190476Y-53904761D02*
X21333333Y-53952380D01*
X21571428Y-53952380D01*
X21666666Y-53904761D01*
X21714285Y-53857142D01*
X21761904Y-53761904D01*
X21761904Y-53666666D01*
X21714285Y-53571428D01*
X21666666Y-53523809D01*
X21571428Y-53476190D01*
X21380952Y-53428571D01*
X21285714Y-53380952D01*
X21238095Y-53333333D01*
X21190476Y-53238095D01*
X21190476Y-53142857D01*
X21238095Y-53047619D01*
X21285714Y-53000000D01*
X21380952Y-52952380D01*
X21619047Y-52952380D01*
X21761904Y-53000000D01*
X22190476Y-52952380D02*
X22190476Y-53761904D01*
X22238095Y-53857142D01*
X22285714Y-53904761D01*
X22380952Y-53952380D01*
X22571428Y-53952380D01*
X22666666Y-53904761D01*
X22714285Y-53857142D01*
X22761904Y-53761904D01*
X22761904Y-52952380D01*
X84904761Y-75428571D02*
X84571428Y-75428571D01*
X84571428Y-75952380D02*
X84571428Y-74952380D01*
X85047619Y-74952380D01*
X85380952Y-75666666D02*
X85857142Y-75666666D01*
X85285714Y-75952380D02*
X85619047Y-74952380D01*
X85952380Y-75952380D01*
X86285714Y-75952380D02*
X86285714Y-74952380D01*
X86857142Y-75952380D01*
X86857142Y-74952380D01*
X88571428Y-74952380D02*
X88095238Y-74952380D01*
X88047619Y-75428571D01*
X88095238Y-75380952D01*
X88190476Y-75333333D01*
X88428571Y-75333333D01*
X88523809Y-75380952D01*
X88571428Y-75428571D01*
X88619047Y-75523809D01*
X88619047Y-75761904D01*
X88571428Y-75857142D01*
X88523809Y-75904761D01*
X88428571Y-75952380D01*
X88190476Y-75952380D01*
X88095238Y-75904761D01*
X88047619Y-75857142D01*
X88904761Y-74952380D02*
X89238095Y-75952380D01*
X89571428Y-74952380D01*
X89952380Y-22095238D02*
X90761904Y-22095238D01*
X90857142Y-22047619D01*
X90904761Y-22000000D01*
X90952380Y-21904761D01*
X90952380Y-21714285D01*
X90904761Y-21619047D01*
X90857142Y-21571428D01*
X90761904Y-21523809D01*
X89952380Y-21523809D01*
X90666666Y-21095238D02*
X90666666Y-20619047D01*
X90952380Y-21190476D02*
X89952380Y-20857142D01*
X90952380Y-20523809D01*
X90952380Y-19619047D02*
X90476190Y-19952380D01*
X90952380Y-20190476D02*
X89952380Y-20190476D01*
X89952380Y-19809523D01*
X90000000Y-19714285D01*
X90047619Y-19666666D01*
X90142857Y-19619047D01*
X90285714Y-19619047D01*
X90380952Y-19666666D01*
X90428571Y-19714285D01*
X90476190Y-19809523D01*
X90476190Y-20190476D01*
X89952380Y-19333333D02*
X89952380Y-18761904D01*
X90952380Y-19047619D02*
X89952380Y-19047619D01*
X69023809Y-73452380D02*
X69357142Y-74452380D01*
X69690476Y-73452380D01*
X70166666Y-74452380D02*
X70071428Y-74404761D01*
X70023809Y-74357142D01*
X69976190Y-74261904D01*
X69976190Y-73976190D01*
X70023809Y-73880952D01*
X70071428Y-73833333D01*
X70166666Y-73785714D01*
X70309523Y-73785714D01*
X70404761Y-73833333D01*
X70452380Y-73880952D01*
X70500000Y-73976190D01*
X70500000Y-74261904D01*
X70452380Y-74357142D01*
X70404761Y-74404761D01*
X70309523Y-74452380D01*
X70166666Y-74452380D01*
X71357142Y-73785714D02*
X71357142Y-74452380D01*
X70928571Y-73785714D02*
X70928571Y-74309523D01*
X70976190Y-74404761D01*
X71071428Y-74452380D01*
X71214285Y-74452380D01*
X71309523Y-74404761D01*
X71357142Y-74357142D01*
X71690476Y-73785714D02*
X72071428Y-73785714D01*
X71833333Y-73452380D02*
X71833333Y-74309523D01*
X71880952Y-74404761D01*
X71976190Y-74452380D01*
X72071428Y-74452380D01*
X73452380Y-74833333D02*
X73404761Y-74785714D01*
X73309523Y-74642857D01*
X73261904Y-74547619D01*
X73214285Y-74404761D01*
X73166666Y-74166666D01*
X73166666Y-73976190D01*
X73214285Y-73738095D01*
X73261904Y-73595238D01*
X73309523Y-73500000D01*
X73404761Y-73357142D01*
X73452380Y-73309523D01*
X74309523Y-73452380D02*
X73833333Y-73452380D01*
X73785714Y-73928571D01*
X73833333Y-73880952D01*
X73928571Y-73833333D01*
X74166666Y-73833333D01*
X74261904Y-73880952D01*
X74309523Y-73928571D01*
X74357142Y-74023809D01*
X74357142Y-74261904D01*
X74309523Y-74357142D01*
X74261904Y-74404761D01*
X74166666Y-74452380D01*
X73928571Y-74452380D01*
X73833333Y-74404761D01*
X73785714Y-74357142D01*
X74642857Y-73452380D02*
X74976190Y-74452380D01*
X75309523Y-73452380D01*
X75547619Y-74833333D02*
X75595238Y-74785714D01*
X75690476Y-74642857D01*
X75738095Y-74547619D01*
X75785714Y-74404761D01*
X75833333Y-74166666D01*
X75833333Y-73976190D01*
X75785714Y-73738095D01*
X75738095Y-73595238D01*
X75690476Y-73500000D01*
X75595238Y-73357142D01*
X75547619Y-73309523D01*
X92127380Y-50523809D02*
X93127380Y-50190476D01*
X92127380Y-49857142D01*
X93127380Y-49380952D02*
X93079761Y-49476190D01*
X93032142Y-49523809D01*
X92936904Y-49571428D01*
X92651190Y-49571428D01*
X92555952Y-49523809D01*
X92508333Y-49476190D01*
X92460714Y-49380952D01*
X92460714Y-49238095D01*
X92508333Y-49142857D01*
X92555952Y-49095238D01*
X92651190Y-49047619D01*
X92936904Y-49047619D01*
X93032142Y-49095238D01*
X93079761Y-49142857D01*
X93127380Y-49238095D01*
X93127380Y-49380952D01*
X92460714Y-48190476D02*
X93127380Y-48190476D01*
X92460714Y-48619047D02*
X92984523Y-48619047D01*
X93079761Y-48571428D01*
X93127380Y-48476190D01*
X93127380Y-48333333D01*
X93079761Y-48238095D01*
X93032142Y-48190476D01*
X92460714Y-47857142D02*
X92460714Y-47476190D01*
X92127380Y-47714285D02*
X92984523Y-47714285D01*
X93079761Y-47666666D01*
X93127380Y-47571428D01*
X93127380Y-47476190D01*
X93508333Y-46095238D02*
X93460714Y-46142857D01*
X93317857Y-46238095D01*
X93222619Y-46285714D01*
X93079761Y-46333333D01*
X92841666Y-46380952D01*
X92651190Y-46380952D01*
X92413095Y-46333333D01*
X92270238Y-46285714D01*
X92175000Y-46238095D01*
X92032142Y-46142857D01*
X91984523Y-46095238D01*
X93127380Y-45190476D02*
X93127380Y-45761904D01*
X93127380Y-45476190D02*
X92127380Y-45476190D01*
X92270238Y-45571428D01*
X92365476Y-45666666D01*
X92413095Y-45761904D01*
X92127380Y-44571428D02*
X92127380Y-44476190D01*
X92175000Y-44380952D01*
X92222619Y-44333333D01*
X92317857Y-44285714D01*
X92508333Y-44238095D01*
X92746428Y-44238095D01*
X92936904Y-44285714D01*
X93032142Y-44333333D01*
X93079761Y-44380952D01*
X93127380Y-44476190D01*
X93127380Y-44571428D01*
X93079761Y-44666666D01*
X93032142Y-44714285D01*
X92936904Y-44761904D01*
X92746428Y-44809523D01*
X92508333Y-44809523D01*
X92317857Y-44761904D01*
X92222619Y-44714285D01*
X92175000Y-44666666D01*
X92127380Y-44571428D01*
X92746428Y-43809523D02*
X92746428Y-43047619D01*
X92222619Y-42619047D02*
X92175000Y-42571428D01*
X92127380Y-42476190D01*
X92127380Y-42238095D01*
X92175000Y-42142857D01*
X92222619Y-42095238D01*
X92317857Y-42047619D01*
X92413095Y-42047619D01*
X92555952Y-42095238D01*
X93127380Y-42666666D01*
X93127380Y-42047619D01*
X92555952Y-41476190D02*
X92508333Y-41571428D01*
X92460714Y-41619047D01*
X92365476Y-41666666D01*
X92317857Y-41666666D01*
X92222619Y-41619047D01*
X92175000Y-41571428D01*
X92127380Y-41476190D01*
X92127380Y-41285714D01*
X92175000Y-41190476D01*
X92222619Y-41142857D01*
X92317857Y-41095238D01*
X92365476Y-41095238D01*
X92460714Y-41142857D01*
X92508333Y-41190476D01*
X92555952Y-41285714D01*
X92555952Y-41476190D01*
X92603571Y-41571428D01*
X92651190Y-41619047D01*
X92746428Y-41666666D01*
X92936904Y-41666666D01*
X93032142Y-41619047D01*
X93079761Y-41571428D01*
X93127380Y-41476190D01*
X93127380Y-41285714D01*
X93079761Y-41190476D01*
X93032142Y-41142857D01*
X92936904Y-41095238D01*
X92746428Y-41095238D01*
X92651190Y-41142857D01*
X92603571Y-41190476D01*
X92555952Y-41285714D01*
X92127380Y-40809523D02*
X93127380Y-40476190D01*
X92127380Y-40142857D01*
X93508333Y-39904761D02*
X93460714Y-39857142D01*
X93317857Y-39761904D01*
X93222619Y-39714285D01*
X93079761Y-39666666D01*
X92841666Y-39619047D01*
X92651190Y-39619047D01*
X92413095Y-39666666D01*
X92270238Y-39714285D01*
X92175000Y-39761904D01*
X92032142Y-39857142D01*
X91984523Y-39904761D01*
X94396428Y-48666666D02*
X94396428Y-47904761D01*
X94396428Y-42095238D02*
X94396428Y-41333333D01*
X94777380Y-41714285D02*
X94015476Y-41714285D01*
X92127380Y-63023809D02*
X93127380Y-62690476D01*
X92127380Y-62357142D01*
X93127380Y-61880952D02*
X93079761Y-61976190D01*
X93032142Y-62023809D01*
X92936904Y-62071428D01*
X92651190Y-62071428D01*
X92555952Y-62023809D01*
X92508333Y-61976190D01*
X92460714Y-61880952D01*
X92460714Y-61738095D01*
X92508333Y-61642857D01*
X92555952Y-61595238D01*
X92651190Y-61547619D01*
X92936904Y-61547619D01*
X93032142Y-61595238D01*
X93079761Y-61642857D01*
X93127380Y-61738095D01*
X93127380Y-61880952D01*
X92460714Y-60690476D02*
X93127380Y-60690476D01*
X92460714Y-61119047D02*
X92984523Y-61119047D01*
X93079761Y-61071428D01*
X93127380Y-60976190D01*
X93127380Y-60833333D01*
X93079761Y-60738095D01*
X93032142Y-60690476D01*
X92460714Y-60357142D02*
X92460714Y-59976190D01*
X92127380Y-60214285D02*
X92984523Y-60214285D01*
X93079761Y-60166666D01*
X93127380Y-60071428D01*
X93127380Y-59976190D01*
X93508333Y-58595238D02*
X93460714Y-58642857D01*
X93317857Y-58738095D01*
X93222619Y-58785714D01*
X93079761Y-58833333D01*
X92841666Y-58880952D01*
X92651190Y-58880952D01*
X92413095Y-58833333D01*
X92270238Y-58785714D01*
X92175000Y-58738095D01*
X92032142Y-58642857D01*
X91984523Y-58595238D01*
X93127380Y-57690476D02*
X93127380Y-58261904D01*
X93127380Y-57976190D02*
X92127380Y-57976190D01*
X92270238Y-58071428D01*
X92365476Y-58166666D01*
X92413095Y-58261904D01*
X92127380Y-57071428D02*
X92127380Y-56976190D01*
X92175000Y-56880952D01*
X92222619Y-56833333D01*
X92317857Y-56785714D01*
X92508333Y-56738095D01*
X92746428Y-56738095D01*
X92936904Y-56785714D01*
X93032142Y-56833333D01*
X93079761Y-56880952D01*
X93127380Y-56976190D01*
X93127380Y-57071428D01*
X93079761Y-57166666D01*
X93032142Y-57214285D01*
X92936904Y-57261904D01*
X92746428Y-57309523D01*
X92508333Y-57309523D01*
X92317857Y-57261904D01*
X92222619Y-57214285D01*
X92175000Y-57166666D01*
X92127380Y-57071428D01*
X92746428Y-56309523D02*
X92746428Y-55547619D01*
X92222619Y-55119047D02*
X92175000Y-55071428D01*
X92127380Y-54976190D01*
X92127380Y-54738095D01*
X92175000Y-54642857D01*
X92222619Y-54595238D01*
X92317857Y-54547619D01*
X92413095Y-54547619D01*
X92555952Y-54595238D01*
X93127380Y-55166666D01*
X93127380Y-54547619D01*
X92555952Y-53976190D02*
X92508333Y-54071428D01*
X92460714Y-54119047D01*
X92365476Y-54166666D01*
X92317857Y-54166666D01*
X92222619Y-54119047D01*
X92175000Y-54071428D01*
X92127380Y-53976190D01*
X92127380Y-53785714D01*
X92175000Y-53690476D01*
X92222619Y-53642857D01*
X92317857Y-53595238D01*
X92365476Y-53595238D01*
X92460714Y-53642857D01*
X92508333Y-53690476D01*
X92555952Y-53785714D01*
X92555952Y-53976190D01*
X92603571Y-54071428D01*
X92651190Y-54119047D01*
X92746428Y-54166666D01*
X92936904Y-54166666D01*
X93032142Y-54119047D01*
X93079761Y-54071428D01*
X93127380Y-53976190D01*
X93127380Y-53785714D01*
X93079761Y-53690476D01*
X93032142Y-53642857D01*
X92936904Y-53595238D01*
X92746428Y-53595238D01*
X92651190Y-53642857D01*
X92603571Y-53690476D01*
X92555952Y-53785714D01*
X92127380Y-53309523D02*
X93127380Y-52976190D01*
X92127380Y-52642857D01*
X93508333Y-52404761D02*
X93460714Y-52357142D01*
X93317857Y-52261904D01*
X93222619Y-52214285D01*
X93079761Y-52166666D01*
X92841666Y-52119047D01*
X92651190Y-52119047D01*
X92413095Y-52166666D01*
X92270238Y-52214285D01*
X92175000Y-52261904D01*
X92032142Y-52357142D01*
X91984523Y-52404761D01*
X94396428Y-61166666D02*
X94396428Y-60404761D01*
X94396428Y-54595238D02*
X94396428Y-53833333D01*
X94777380Y-54214285D02*
X94015476Y-54214285D01*
X92127380Y-75523809D02*
X93127380Y-75190476D01*
X92127380Y-74857142D01*
X93127380Y-74380952D02*
X93079761Y-74476190D01*
X93032142Y-74523809D01*
X92936904Y-74571428D01*
X92651190Y-74571428D01*
X92555952Y-74523809D01*
X92508333Y-74476190D01*
X92460714Y-74380952D01*
X92460714Y-74238095D01*
X92508333Y-74142857D01*
X92555952Y-74095238D01*
X92651190Y-74047619D01*
X92936904Y-74047619D01*
X93032142Y-74095238D01*
X93079761Y-74142857D01*
X93127380Y-74238095D01*
X93127380Y-74380952D01*
X92460714Y-73190476D02*
X93127380Y-73190476D01*
X92460714Y-73619047D02*
X92984523Y-73619047D01*
X93079761Y-73571428D01*
X93127380Y-73476190D01*
X93127380Y-73333333D01*
X93079761Y-73238095D01*
X93032142Y-73190476D01*
X92460714Y-72857142D02*
X92460714Y-72476190D01*
X92127380Y-72714285D02*
X92984523Y-72714285D01*
X93079761Y-72666666D01*
X93127380Y-72571428D01*
X93127380Y-72476190D01*
X93508333Y-71095238D02*
X93460714Y-71142857D01*
X93317857Y-71238095D01*
X93222619Y-71285714D01*
X93079761Y-71333333D01*
X92841666Y-71380952D01*
X92651190Y-71380952D01*
X92413095Y-71333333D01*
X92270238Y-71285714D01*
X92175000Y-71238095D01*
X92032142Y-71142857D01*
X91984523Y-71095238D01*
X93127380Y-70190476D02*
X93127380Y-70761904D01*
X93127380Y-70476190D02*
X92127380Y-70476190D01*
X92270238Y-70571428D01*
X92365476Y-70666666D01*
X92413095Y-70761904D01*
X92127380Y-69571428D02*
X92127380Y-69476190D01*
X92175000Y-69380952D01*
X92222619Y-69333333D01*
X92317857Y-69285714D01*
X92508333Y-69238095D01*
X92746428Y-69238095D01*
X92936904Y-69285714D01*
X93032142Y-69333333D01*
X93079761Y-69380952D01*
X93127380Y-69476190D01*
X93127380Y-69571428D01*
X93079761Y-69666666D01*
X93032142Y-69714285D01*
X92936904Y-69761904D01*
X92746428Y-69809523D01*
X92508333Y-69809523D01*
X92317857Y-69761904D01*
X92222619Y-69714285D01*
X92175000Y-69666666D01*
X92127380Y-69571428D01*
X92746428Y-68809523D02*
X92746428Y-68047619D01*
X92222619Y-67619047D02*
X92175000Y-67571428D01*
X92127380Y-67476190D01*
X92127380Y-67238095D01*
X92175000Y-67142857D01*
X92222619Y-67095238D01*
X92317857Y-67047619D01*
X92413095Y-67047619D01*
X92555952Y-67095238D01*
X93127380Y-67666666D01*
X93127380Y-67047619D01*
X92555952Y-66476190D02*
X92508333Y-66571428D01*
X92460714Y-66619047D01*
X92365476Y-66666666D01*
X92317857Y-66666666D01*
X92222619Y-66619047D01*
X92175000Y-66571428D01*
X92127380Y-66476190D01*
X92127380Y-66285714D01*
X92175000Y-66190476D01*
X92222619Y-66142857D01*
X92317857Y-66095238D01*
X92365476Y-66095238D01*
X92460714Y-66142857D01*
X92508333Y-66190476D01*
X92555952Y-66285714D01*
X92555952Y-66476190D01*
X92603571Y-66571428D01*
X92651190Y-66619047D01*
X92746428Y-66666666D01*
X92936904Y-66666666D01*
X93032142Y-66619047D01*
X93079761Y-66571428D01*
X93127380Y-66476190D01*
X93127380Y-66285714D01*
X93079761Y-66190476D01*
X93032142Y-66142857D01*
X92936904Y-66095238D01*
X92746428Y-66095238D01*
X92651190Y-66142857D01*
X92603571Y-66190476D01*
X92555952Y-66285714D01*
X92127380Y-65809523D02*
X93127380Y-65476190D01*
X92127380Y-65142857D01*
X93508333Y-64904761D02*
X93460714Y-64857142D01*
X93317857Y-64761904D01*
X93222619Y-64714285D01*
X93079761Y-64666666D01*
X92841666Y-64619047D01*
X92651190Y-64619047D01*
X92413095Y-64666666D01*
X92270238Y-64714285D01*
X92175000Y-64761904D01*
X92032142Y-64857142D01*
X91984523Y-64904761D01*
X94396428Y-73666666D02*
X94396428Y-72904761D01*
X94396428Y-67095238D02*
X94396428Y-66333333D01*
X94777380Y-66714285D02*
X94015476Y-66714285D01*
X24976190Y-25127380D02*
X25309523Y-26127380D01*
X25642857Y-25127380D01*
X25976190Y-26127380D02*
X25976190Y-25460714D01*
X25976190Y-25127380D02*
X25928571Y-25175000D01*
X25976190Y-25222619D01*
X26023809Y-25175000D01*
X25976190Y-25127380D01*
X25976190Y-25222619D01*
X26452380Y-25460714D02*
X26452380Y-26127380D01*
X26452380Y-25555952D02*
X26500000Y-25508333D01*
X26595238Y-25460714D01*
X26738095Y-25460714D01*
X26833333Y-25508333D01*
X26880952Y-25603571D01*
X26880952Y-26127380D01*
X28404761Y-26508333D02*
X28357142Y-26460714D01*
X28261904Y-26317857D01*
X28214285Y-26222619D01*
X28166666Y-26079761D01*
X28119047Y-25841666D01*
X28119047Y-25651190D01*
X28166666Y-25413095D01*
X28214285Y-25270238D01*
X28261904Y-25175000D01*
X28357142Y-25032142D01*
X28404761Y-24984523D01*
X29309523Y-26127380D02*
X28738095Y-26127380D01*
X29023809Y-26127380D02*
X29023809Y-25127380D01*
X28928571Y-25270238D01*
X28833333Y-25365476D01*
X28738095Y-25413095D01*
X29928571Y-25127380D02*
X30023809Y-25127380D01*
X30119047Y-25175000D01*
X30166666Y-25222619D01*
X30214285Y-25317857D01*
X30261904Y-25508333D01*
X30261904Y-25746428D01*
X30214285Y-25936904D01*
X30166666Y-26032142D01*
X30119047Y-26079761D01*
X30023809Y-26127380D01*
X29928571Y-26127380D01*
X29833333Y-26079761D01*
X29785714Y-26032142D01*
X29738095Y-25936904D01*
X29690476Y-25746428D01*
X29690476Y-25508333D01*
X29738095Y-25317857D01*
X29785714Y-25222619D01*
X29833333Y-25175000D01*
X29928571Y-25127380D01*
X30690476Y-25746428D02*
X31452380Y-25746428D01*
X31880952Y-25222619D02*
X31928571Y-25175000D01*
X32023809Y-25127380D01*
X32261904Y-25127380D01*
X32357142Y-25175000D01*
X32404761Y-25222619D01*
X32452380Y-25317857D01*
X32452380Y-25413095D01*
X32404761Y-25555952D01*
X31833333Y-26127380D01*
X32452380Y-26127380D01*
X33023809Y-25555952D02*
X32928571Y-25508333D01*
X32880952Y-25460714D01*
X32833333Y-25365476D01*
X32833333Y-25317857D01*
X32880952Y-25222619D01*
X32928571Y-25175000D01*
X33023809Y-25127380D01*
X33214285Y-25127380D01*
X33309523Y-25175000D01*
X33357142Y-25222619D01*
X33404761Y-25317857D01*
X33404761Y-25365476D01*
X33357142Y-25460714D01*
X33309523Y-25508333D01*
X33214285Y-25555952D01*
X33023809Y-25555952D01*
X32928571Y-25603571D01*
X32880952Y-25651190D01*
X32833333Y-25746428D01*
X32833333Y-25936904D01*
X32880952Y-26032142D01*
X32928571Y-26079761D01*
X33023809Y-26127380D01*
X33214285Y-26127380D01*
X33309523Y-26079761D01*
X33357142Y-26032142D01*
X33404761Y-25936904D01*
X33404761Y-25746428D01*
X33357142Y-25651190D01*
X33309523Y-25603571D01*
X33214285Y-25555952D01*
X33690476Y-25127380D02*
X34023809Y-26127380D01*
X34357142Y-25127380D01*
X34595238Y-26508333D02*
X34642857Y-26460714D01*
X34738095Y-26317857D01*
X34785714Y-26222619D01*
X34833333Y-26079761D01*
X34880952Y-25841666D01*
X34880952Y-25651190D01*
X34833333Y-25413095D01*
X34785714Y-25270238D01*
X34738095Y-25175000D01*
X34642857Y-25032142D01*
X34595238Y-24984523D01*
X26333333Y-27396428D02*
X27095238Y-27396428D01*
X26714285Y-27777380D02*
X26714285Y-27015476D01*
X32904761Y-27396428D02*
X33666666Y-27396428D01*
D11*
X91000000Y-56500000D02*
G75*
G03*
X91000000Y-56500000I-6000000J0D01*
G01*
X83238748Y-71765000D02*
X83761252Y-71765000D01*
X83238748Y-73235000D02*
X83761252Y-73235000D01*
X82820000Y-32500000D02*
X77740000Y-32500000D01*
X77740000Y-32500000D02*
X77740000Y-24500000D01*
X77740000Y-24500000D02*
X82820000Y-24500000D01*
X45750000Y-37750000D02*
X45750000Y-19250000D01*
X81750000Y-19250000D02*
X81750000Y-37750000D01*
X45750000Y-19250000D02*
X81750000Y-19250000D01*
X81750000Y-37750000D02*
X45750000Y-37750000D01*
X82820000Y-32500000D02*
X82820000Y-24500000D01*
X81500000Y-22500000D02*
X80500000Y-22500000D01*
X80000000Y-22500000D02*
X79000000Y-22500000D01*
X78500000Y-22500000D02*
X77500000Y-22500000D01*
X81500000Y-34500000D02*
X80500000Y-34500000D01*
X80000000Y-34500000D02*
X79000000Y-34500000D01*
X78500000Y-34500000D02*
X77500000Y-34500000D01*
X62250000Y-39150000D02*
X61000000Y-39150000D01*
X62250000Y-40400000D02*
X62250000Y-39150000D01*
X56750000Y-46300000D02*
X56750000Y-43250000D01*
X59700000Y-46300000D02*
X56750000Y-46300000D01*
X59700000Y-47050000D02*
X59700000Y-46300000D01*
X56750000Y-40200000D02*
X56750000Y-43250000D01*
X59700000Y-40200000D02*
X56750000Y-40200000D01*
X59700000Y-39450000D02*
X59700000Y-40200000D01*
X61950000Y-47050000D02*
X61950000Y-45250000D01*
X61200000Y-47050000D02*
X61950000Y-47050000D01*
X61200000Y-45250000D02*
X61200000Y-47050000D01*
X61950000Y-45250000D02*
X61200000Y-45250000D01*
X61950000Y-41250000D02*
X61950000Y-39450000D01*
X61200000Y-41250000D02*
X61950000Y-41250000D01*
X61200000Y-39450000D02*
X61200000Y-41250000D01*
X61950000Y-39450000D02*
X61200000Y-39450000D01*
X61950000Y-43750000D02*
X61950000Y-42750000D01*
X61200000Y-43750000D02*
X61950000Y-43750000D01*
X61200000Y-42750000D02*
X61200000Y-43750000D01*
X61950000Y-42750000D02*
X61200000Y-42750000D01*
X61960000Y-47060000D02*
X61960000Y-39440000D01*
X55990000Y-47060000D02*
X61960000Y-47060000D01*
X55990000Y-39440000D02*
X55990000Y-47060000D01*
X61960000Y-39440000D02*
X55990000Y-39440000D01*
X69250000Y-39150000D02*
X68000000Y-39150000D01*
X69250000Y-40400000D02*
X69250000Y-39150000D01*
X63750000Y-48800000D02*
X63750000Y-44500000D01*
X66700000Y-48800000D02*
X63750000Y-48800000D01*
X66700000Y-49550000D02*
X66700000Y-48800000D01*
X63750000Y-40200000D02*
X63750000Y-44500000D01*
X66700000Y-40200000D02*
X63750000Y-40200000D01*
X66700000Y-39450000D02*
X66700000Y-40200000D01*
X68950000Y-49550000D02*
X68950000Y-47750000D01*
X68200000Y-49550000D02*
X68950000Y-49550000D01*
X68200000Y-47750000D02*
X68200000Y-49550000D01*
X68950000Y-47750000D02*
X68200000Y-47750000D01*
X68950000Y-41250000D02*
X68950000Y-39450000D01*
X68200000Y-41250000D02*
X68950000Y-41250000D01*
X68200000Y-39450000D02*
X68200000Y-41250000D01*
X68950000Y-39450000D02*
X68200000Y-39450000D01*
X68950000Y-46250000D02*
X68950000Y-42750000D01*
X68200000Y-46250000D02*
X68950000Y-46250000D01*
X68200000Y-42750000D02*
X68200000Y-46250000D01*
X68950000Y-42750000D02*
X68200000Y-42750000D01*
X68960000Y-49560000D02*
X68960000Y-39440000D01*
X62990000Y-49560000D02*
X68960000Y-49560000D01*
X62990000Y-39440000D02*
X62990000Y-49560000D01*
X68960000Y-39440000D02*
X62990000Y-39440000D01*
X76250000Y-39150000D02*
X75000000Y-39150000D01*
X76250000Y-40400000D02*
X76250000Y-39150000D01*
X70750000Y-48800000D02*
X70750000Y-44500000D01*
X73700000Y-48800000D02*
X70750000Y-48800000D01*
X73700000Y-49550000D02*
X73700000Y-48800000D01*
X70750000Y-40200000D02*
X70750000Y-44500000D01*
X73700000Y-40200000D02*
X70750000Y-40200000D01*
X73700000Y-39450000D02*
X73700000Y-40200000D01*
X75950000Y-49550000D02*
X75950000Y-47750000D01*
X75200000Y-49550000D02*
X75950000Y-49550000D01*
X75200000Y-47750000D02*
X75200000Y-49550000D01*
X75950000Y-47750000D02*
X75200000Y-47750000D01*
X75950000Y-41250000D02*
X75950000Y-39450000D01*
X75200000Y-41250000D02*
X75950000Y-41250000D01*
X75200000Y-39450000D02*
X75200000Y-41250000D01*
X75950000Y-39450000D02*
X75200000Y-39450000D01*
X75950000Y-46250000D02*
X75950000Y-42750000D01*
X75200000Y-46250000D02*
X75950000Y-46250000D01*
X75200000Y-42750000D02*
X75200000Y-46250000D01*
X75950000Y-42750000D02*
X75200000Y-42750000D01*
X75960000Y-49560000D02*
X75960000Y-39440000D01*
X69990000Y-49560000D02*
X75960000Y-49560000D01*
X69990000Y-39440000D02*
X69990000Y-49560000D01*
X75960000Y-39440000D02*
X69990000Y-39440000D01*
X83250000Y-39150000D02*
X82000000Y-39150000D01*
X83250000Y-40400000D02*
X83250000Y-39150000D01*
X77750000Y-48800000D02*
X77750000Y-44500000D01*
X80700000Y-48800000D02*
X77750000Y-48800000D01*
X80700000Y-49550000D02*
X80700000Y-48800000D01*
X77750000Y-40200000D02*
X77750000Y-44500000D01*
X80700000Y-40200000D02*
X77750000Y-40200000D01*
X80700000Y-39450000D02*
X80700000Y-40200000D01*
X82950000Y-49550000D02*
X82950000Y-47750000D01*
X82200000Y-49550000D02*
X82950000Y-49550000D01*
X82200000Y-47750000D02*
X82200000Y-49550000D01*
X82950000Y-47750000D02*
X82200000Y-47750000D01*
X82950000Y-41250000D02*
X82950000Y-39450000D01*
X82200000Y-41250000D02*
X82950000Y-41250000D01*
X82200000Y-39450000D02*
X82200000Y-41250000D01*
X82950000Y-39450000D02*
X82200000Y-39450000D01*
X82950000Y-46250000D02*
X82950000Y-42750000D01*
X82200000Y-46250000D02*
X82950000Y-46250000D01*
X82200000Y-42750000D02*
X82200000Y-46250000D01*
X82950000Y-42750000D02*
X82200000Y-42750000D01*
X82960000Y-49560000D02*
X82960000Y-39440000D01*
X76990000Y-49560000D02*
X82960000Y-49560000D01*
X76990000Y-39440000D02*
X76990000Y-49560000D01*
X82960000Y-39440000D02*
X76990000Y-39440000D01*
D10*
X40950000Y-27825000D02*
X40950000Y-26600000D01*
X37825000Y-27825000D02*
X37825000Y-31175000D01*
X41175000Y-27825000D02*
X41175000Y-31175000D01*
X37825000Y-27825000D02*
X38125000Y-27825000D01*
X37825000Y-31175000D02*
X38125000Y-31175000D01*
X41175000Y-31175000D02*
X40875000Y-31175000D01*
X41175000Y-27825000D02*
X40950000Y-27825000D01*
D11*
X88990000Y-71170000D02*
X88990000Y-72100000D01*
X88990000Y-74330000D02*
X88990000Y-73400000D01*
X88990000Y-74330000D02*
X91150000Y-74330000D01*
X88990000Y-71170000D02*
X90450000Y-71170000D01*
X93740000Y-31500000D02*
X93740000Y-35360000D01*
X93740000Y-35360000D02*
X93995000Y-35360000D01*
X93740000Y-31500000D02*
X93740000Y-27640000D01*
X93740000Y-27640000D02*
X93995000Y-27640000D01*
X104260000Y-31500000D02*
X104260000Y-35360000D01*
X104260000Y-35360000D02*
X104005000Y-35360000D01*
X104260000Y-31500000D02*
X104260000Y-27640000D01*
X104260000Y-27640000D02*
X104005000Y-27640000D01*
X104005000Y-27640000D02*
X104005000Y-25825000D01*
X66900000Y-84400000D02*
X78100000Y-84400000D01*
X66900000Y-84400000D02*
X66900000Y-75400000D01*
X78100000Y-84400000D02*
X78100000Y-75400000D01*
X66900000Y-75400000D02*
X78100000Y-75400000D01*
X69000000Y-82500000D02*
X69000000Y-84000000D01*
X69000000Y-84000000D02*
X69000000Y-82500000D01*
X69000000Y-82500000D02*
X71000000Y-82500000D01*
X71000000Y-82500000D02*
X71000000Y-84000000D01*
X71000000Y-84000000D02*
X74000000Y-84000000D01*
X74000000Y-84000000D02*
X74000000Y-82500000D01*
X74000000Y-82500000D02*
X76000000Y-82500000D01*
X76000000Y-82500000D02*
X76000000Y-84000000D01*
X59420000Y-62325000D02*
X69580000Y-62325000D01*
X59420000Y-72485000D02*
X59420000Y-62325000D01*
X69580000Y-72485000D02*
X59420000Y-72485000D01*
X69580000Y-62325000D02*
X69580000Y-72485000D01*
X87260000Y-49080000D02*
X85800000Y-49080000D01*
X87260000Y-45920000D02*
X85100000Y-45920000D01*
X87260000Y-45920000D02*
X87260000Y-46850000D01*
X87260000Y-49080000D02*
X87260000Y-48150000D01*
X49765000Y-40860436D02*
X49765000Y-41314564D01*
X51235000Y-40860436D02*
X51235000Y-41314564D01*
X36650000Y-15750000D02*
X36650000Y-17000000D01*
X37900000Y-15750000D02*
X36650000Y-15750000D01*
X43800000Y-21250000D02*
X40750000Y-21250000D01*
X43800000Y-18300000D02*
X43800000Y-21250000D01*
X44550000Y-18300000D02*
X43800000Y-18300000D01*
X37700000Y-21250000D02*
X40750000Y-21250000D01*
X37700000Y-18300000D02*
X37700000Y-21250000D01*
X36950000Y-18300000D02*
X37700000Y-18300000D01*
X44550000Y-16050000D02*
X42750000Y-16050000D01*
X44550000Y-16800000D02*
X44550000Y-16050000D01*
X42750000Y-16800000D02*
X44550000Y-16800000D01*
X42750000Y-16050000D02*
X42750000Y-16800000D01*
X38750000Y-16050000D02*
X36950000Y-16050000D01*
X38750000Y-16800000D02*
X38750000Y-16050000D01*
X36950000Y-16800000D02*
X38750000Y-16800000D01*
X36950000Y-16050000D02*
X36950000Y-16800000D01*
X41250000Y-16050000D02*
X40250000Y-16050000D01*
X41250000Y-16800000D02*
X41250000Y-16050000D01*
X40250000Y-16800000D02*
X41250000Y-16800000D01*
X40250000Y-16050000D02*
X40250000Y-16800000D01*
X44560000Y-16040000D02*
X36940000Y-16040000D01*
X44560000Y-22010000D02*
X44560000Y-16040000D01*
X36940000Y-22010000D02*
X44560000Y-22010000D01*
X36940000Y-16040000D02*
X36940000Y-22010000D01*
D10*
X71150000Y-72500000D02*
X76350000Y-72500000D01*
X71150000Y-63500000D02*
X76350000Y-63500000D01*
X71150000Y-72500000D02*
X71150000Y-63500000D01*
X76350000Y-72500000D02*
X76350000Y-63500000D01*
D11*
X51235000Y-45139564D02*
X51235000Y-44685436D01*
X49765000Y-45139564D02*
X49765000Y-44685436D01*
X89435436Y-68985000D02*
X89889564Y-68985000D01*
X89435436Y-67515000D02*
X89889564Y-67515000D01*
X89522936Y-65485000D02*
X89977064Y-65485000D01*
X89522936Y-64015000D02*
X89977064Y-64015000D01*
X54235000Y-41314564D02*
X54235000Y-40860436D01*
X52765000Y-41314564D02*
X52765000Y-40860436D01*
X65765000Y-30360436D02*
X65765000Y-30814564D01*
X67235000Y-30360436D02*
X67235000Y-30814564D01*
X68765000Y-30360436D02*
X68765000Y-30814564D01*
X70235000Y-30360436D02*
X70235000Y-30814564D01*
X71765000Y-30360436D02*
X71765000Y-30814564D01*
X73235000Y-30360436D02*
X73235000Y-30814564D01*
X86360436Y-41235000D02*
X86814564Y-41235000D01*
X86360436Y-39765000D02*
X86814564Y-39765000D01*
X86272936Y-44735000D02*
X86727064Y-44735000D01*
X86272936Y-43265000D02*
X86727064Y-43265000D01*
X76314564Y-52765000D02*
X75860436Y-52765000D01*
X76314564Y-54235000D02*
X75860436Y-54235000D01*
X75860436Y-51735000D02*
X76314564Y-51735000D01*
X75860436Y-50265000D02*
X76314564Y-50265000D01*
X54235000Y-60139564D02*
X54235000Y-59685436D01*
X52765000Y-60139564D02*
X52765000Y-59685436D01*
X57735000Y-60139564D02*
X57735000Y-59685436D01*
X56265000Y-60139564D02*
X56265000Y-59685436D01*
X48639564Y-26265000D02*
X48185436Y-26265000D01*
X48639564Y-27735000D02*
X48185436Y-27735000D01*
X48639564Y-28765000D02*
X48185436Y-28765000D01*
X48639564Y-30235000D02*
X48185436Y-30235000D01*
X56265000Y-72860436D02*
X56265000Y-73314564D01*
X57735000Y-72860436D02*
X57735000Y-73314564D01*
X44814564Y-26265000D02*
X44360436Y-26265000D01*
X44814564Y-27735000D02*
X44360436Y-27735000D01*
X44814564Y-28765000D02*
X44360436Y-28765000D01*
X44814564Y-30235000D02*
X44360436Y-30235000D01*
X52765000Y-72860436D02*
X52765000Y-73314564D01*
X54235000Y-72860436D02*
X54235000Y-73314564D01*
X47235000Y-60139564D02*
X47235000Y-59685436D01*
X45765000Y-60139564D02*
X45765000Y-59685436D01*
X50735000Y-60139564D02*
X50735000Y-59685436D01*
X49265000Y-60139564D02*
X49265000Y-59685436D01*
X37735436Y-43410000D02*
X39189564Y-43410000D01*
X37735436Y-41590000D02*
X39189564Y-41590000D01*
X41235000Y-38814564D02*
X41235000Y-38360436D01*
X39765000Y-38814564D02*
X39765000Y-38360436D01*
X37735000Y-38814564D02*
X37735000Y-38360436D01*
X36265000Y-38814564D02*
X36265000Y-38360436D01*
X42265000Y-61185436D02*
X42265000Y-61639564D01*
X43735000Y-61185436D02*
X43735000Y-61639564D01*
X38765000Y-61185436D02*
X38765000Y-61639564D01*
X40235000Y-61185436D02*
X40235000Y-61639564D01*
X28735000Y-30314564D02*
X28735000Y-29860436D01*
X27265000Y-30314564D02*
X27265000Y-29860436D01*
X24765000Y-29860436D02*
X24765000Y-30314564D01*
X26235000Y-29860436D02*
X26235000Y-30314564D01*
X35265000Y-54185436D02*
X35265000Y-54639564D01*
X36735000Y-54185436D02*
X36735000Y-54639564D01*
X31765000Y-54185436D02*
X31765000Y-54639564D01*
X33235000Y-54185436D02*
X33235000Y-54639564D01*
X83240000Y-34920000D02*
X84700000Y-34920000D01*
X83240000Y-38080000D02*
X85400000Y-38080000D01*
X83240000Y-38080000D02*
X83240000Y-37150000D01*
X83240000Y-34920000D02*
X83240000Y-35850000D01*
X74420000Y-57260000D02*
X74420000Y-55800000D01*
X77580000Y-57260000D02*
X77580000Y-55100000D01*
X77580000Y-57260000D02*
X76650000Y-57260000D01*
X74420000Y-57260000D02*
X75350000Y-57260000D01*
X57560000Y-66000000D02*
X57560000Y-62550000D01*
X57560000Y-66000000D02*
X57560000Y-67950000D01*
X52440000Y-66000000D02*
X52440000Y-64050000D01*
X52440000Y-66000000D02*
X52440000Y-67950000D01*
X26335000Y-37600000D02*
X26335000Y-36500000D01*
X24525000Y-37600000D02*
X26335000Y-37600000D01*
X24525000Y-39100000D02*
X24525000Y-37600000D01*
X33115000Y-37600000D02*
X33115000Y-32475000D01*
X34925000Y-37600000D02*
X33115000Y-37600000D01*
X34925000Y-39100000D02*
X34925000Y-37600000D01*
X50560000Y-66000000D02*
X50560000Y-62550000D01*
X50560000Y-66000000D02*
X50560000Y-67950000D01*
X45440000Y-66000000D02*
X45440000Y-64050000D01*
X45440000Y-66000000D02*
X45440000Y-67950000D01*
X86750000Y-76150000D02*
X85500000Y-76150000D01*
X86750000Y-77400000D02*
X86750000Y-76150000D01*
X81250000Y-83300000D02*
X81250000Y-80250000D01*
X84200000Y-83300000D02*
X81250000Y-83300000D01*
X84200000Y-84050000D02*
X84200000Y-83300000D01*
X81250000Y-77200000D02*
X81250000Y-80250000D01*
X84200000Y-77200000D02*
X81250000Y-77200000D01*
X84200000Y-76450000D02*
X84200000Y-77200000D01*
X86450000Y-84050000D02*
X86450000Y-82250000D01*
X85700000Y-84050000D02*
X86450000Y-84050000D01*
X85700000Y-82250000D02*
X85700000Y-84050000D01*
X86450000Y-82250000D02*
X85700000Y-82250000D01*
X86450000Y-78250000D02*
X86450000Y-76450000D01*
X85700000Y-78250000D02*
X86450000Y-78250000D01*
X85700000Y-76450000D02*
X85700000Y-78250000D01*
X86450000Y-76450000D02*
X85700000Y-76450000D01*
X86450000Y-80750000D02*
X86450000Y-79750000D01*
X85700000Y-80750000D02*
X86450000Y-80750000D01*
X85700000Y-79750000D02*
X85700000Y-80750000D01*
X86450000Y-79750000D02*
X85700000Y-79750000D01*
X86460000Y-84060000D02*
X86460000Y-76440000D01*
X80490000Y-84060000D02*
X86460000Y-84060000D01*
X80490000Y-76440000D02*
X80490000Y-84060000D01*
X86460000Y-76440000D02*
X80490000Y-76440000D01*
X94250000Y-76150000D02*
X93000000Y-76150000D01*
X94250000Y-77400000D02*
X94250000Y-76150000D01*
X88750000Y-83300000D02*
X88750000Y-80250000D01*
X91700000Y-83300000D02*
X88750000Y-83300000D01*
X91700000Y-84050000D02*
X91700000Y-83300000D01*
X88750000Y-77200000D02*
X88750000Y-80250000D01*
X91700000Y-77200000D02*
X88750000Y-77200000D01*
X91700000Y-76450000D02*
X91700000Y-77200000D01*
X93950000Y-84050000D02*
X93950000Y-82250000D01*
X93200000Y-84050000D02*
X93950000Y-84050000D01*
X93200000Y-82250000D02*
X93200000Y-84050000D01*
X93950000Y-82250000D02*
X93200000Y-82250000D01*
X93950000Y-78250000D02*
X93950000Y-76450000D01*
X93200000Y-78250000D02*
X93950000Y-78250000D01*
X93200000Y-76450000D02*
X93200000Y-78250000D01*
X93950000Y-76450000D02*
X93200000Y-76450000D01*
X93950000Y-80750000D02*
X93950000Y-79750000D01*
X93200000Y-80750000D02*
X93950000Y-80750000D01*
X93200000Y-79750000D02*
X93200000Y-80750000D01*
X93950000Y-79750000D02*
X93200000Y-79750000D01*
X93960000Y-84060000D02*
X93960000Y-76440000D01*
X87990000Y-84060000D02*
X93960000Y-84060000D01*
X87990000Y-76440000D02*
X87990000Y-84060000D01*
X93960000Y-76440000D02*
X87990000Y-76440000D01*
X65350000Y-57250000D02*
X65350000Y-56000000D01*
X64100000Y-57250000D02*
X65350000Y-57250000D01*
X48200000Y-51750000D02*
X56250000Y-51750000D01*
X48200000Y-54700000D02*
X48200000Y-51750000D01*
X47450000Y-54700000D02*
X48200000Y-54700000D01*
X64300000Y-51750000D02*
X56250000Y-51750000D01*
X64300000Y-54700000D02*
X64300000Y-51750000D01*
X65050000Y-54700000D02*
X64300000Y-54700000D01*
X47450000Y-56950000D02*
X49250000Y-56950000D01*
X47450000Y-56200000D02*
X47450000Y-56950000D01*
X49250000Y-56200000D02*
X47450000Y-56200000D01*
X49250000Y-56950000D02*
X49250000Y-56200000D01*
X63250000Y-56950000D02*
X65050000Y-56950000D01*
X63250000Y-56200000D02*
X63250000Y-56950000D01*
X65050000Y-56200000D02*
X63250000Y-56200000D01*
X65050000Y-56950000D02*
X65050000Y-56200000D01*
X50750000Y-56950000D02*
X61750000Y-56950000D01*
X50750000Y-56200000D02*
X50750000Y-56950000D01*
X61750000Y-56200000D02*
X50750000Y-56200000D01*
X61750000Y-56950000D02*
X61750000Y-56200000D01*
X47440000Y-56960000D02*
X65060000Y-56960000D01*
X47440000Y-50990000D02*
X47440000Y-56960000D01*
X65060000Y-50990000D02*
X47440000Y-50990000D01*
X65060000Y-56960000D02*
X65060000Y-50990000D01*
X104400000Y-50100000D02*
X104400000Y-38900000D01*
X104400000Y-50100000D02*
X95400000Y-50100000D01*
X104400000Y-38900000D02*
X95400000Y-38900000D01*
X95400000Y-50100000D02*
X95400000Y-38900000D01*
X102500000Y-48000000D02*
X104000000Y-48000000D01*
X104000000Y-48000000D02*
X102500000Y-48000000D01*
X102500000Y-48000000D02*
X102500000Y-46000000D01*
X102500000Y-46000000D02*
X104000000Y-46000000D01*
X104000000Y-46000000D02*
X104000000Y-43000000D01*
X104000000Y-43000000D02*
X102500000Y-43000000D01*
X102500000Y-43000000D02*
X102500000Y-41000000D01*
X102500000Y-41000000D02*
X104000000Y-41000000D01*
X91150000Y-15250000D02*
X91150000Y-16500000D01*
X92400000Y-15250000D02*
X91150000Y-15250000D01*
X103300000Y-20750000D02*
X97750000Y-20750000D01*
X103300000Y-17800000D02*
X103300000Y-20750000D01*
X104050000Y-17800000D02*
X103300000Y-17800000D01*
X92200000Y-20750000D02*
X97750000Y-20750000D01*
X92200000Y-17800000D02*
X92200000Y-20750000D01*
X91450000Y-17800000D02*
X92200000Y-17800000D01*
X104050000Y-15550000D02*
X102250000Y-15550000D01*
X104050000Y-16300000D02*
X104050000Y-15550000D01*
X102250000Y-16300000D02*
X104050000Y-16300000D01*
X102250000Y-15550000D02*
X102250000Y-16300000D01*
X93250000Y-15550000D02*
X91450000Y-15550000D01*
X93250000Y-16300000D02*
X93250000Y-15550000D01*
X91450000Y-16300000D02*
X93250000Y-16300000D01*
X91450000Y-15550000D02*
X91450000Y-16300000D01*
X100750000Y-15550000D02*
X94750000Y-15550000D01*
X100750000Y-16300000D02*
X100750000Y-15550000D01*
X94750000Y-16300000D02*
X100750000Y-16300000D01*
X94750000Y-15550000D02*
X94750000Y-16300000D01*
X104060000Y-15540000D02*
X91440000Y-15540000D01*
X104060000Y-21510000D02*
X104060000Y-15540000D01*
X91440000Y-21510000D02*
X104060000Y-21510000D01*
X91440000Y-15540000D02*
X91440000Y-21510000D01*
X104400000Y-63100000D02*
X104400000Y-51900000D01*
X104400000Y-63100000D02*
X95400000Y-63100000D01*
X104400000Y-51900000D02*
X95400000Y-51900000D01*
X95400000Y-63100000D02*
X95400000Y-51900000D01*
X102500000Y-61000000D02*
X104000000Y-61000000D01*
X104000000Y-61000000D02*
X102500000Y-61000000D01*
X102500000Y-61000000D02*
X102500000Y-59000000D01*
X102500000Y-59000000D02*
X104000000Y-59000000D01*
X104000000Y-59000000D02*
X104000000Y-56000000D01*
X104000000Y-56000000D02*
X102500000Y-56000000D01*
X102500000Y-56000000D02*
X102500000Y-54000000D01*
X102500000Y-54000000D02*
X104000000Y-54000000D01*
X104400000Y-76100000D02*
X104400000Y-64900000D01*
X104400000Y-76100000D02*
X95400000Y-76100000D01*
X104400000Y-64900000D02*
X95400000Y-64900000D01*
X95400000Y-76100000D02*
X95400000Y-64900000D01*
X102500000Y-74000000D02*
X104000000Y-74000000D01*
X104000000Y-74000000D02*
X102500000Y-74000000D01*
X102500000Y-74000000D02*
X102500000Y-72000000D01*
X102500000Y-72000000D02*
X104000000Y-72000000D01*
X104000000Y-72000000D02*
X104000000Y-69000000D01*
X104000000Y-69000000D02*
X102500000Y-69000000D01*
X102500000Y-69000000D02*
X102500000Y-67000000D01*
X102500000Y-67000000D02*
X104000000Y-67000000D01*
X35600000Y-15600000D02*
X24400000Y-15600000D01*
X35600000Y-15600000D02*
X35600000Y-24600000D01*
X24400000Y-15600000D02*
X24400000Y-24600000D01*
X35600000Y-24600000D02*
X24400000Y-24600000D01*
X33500000Y-17500000D02*
X33500000Y-16000000D01*
X33500000Y-16000000D02*
X33500000Y-17500000D01*
X33500000Y-17500000D02*
X31500000Y-17500000D01*
X31500000Y-17500000D02*
X31500000Y-16000000D01*
X31500000Y-16000000D02*
X28500000Y-16000000D01*
X28500000Y-16000000D02*
X28500000Y-17500000D01*
X28500000Y-17500000D02*
X26500000Y-17500000D01*
X26500000Y-17500000D02*
X26500000Y-16000000D01*
X23500000Y-22500000D02*
X23500000Y-49500000D01*
X15500000Y-22500000D02*
X23500000Y-22500000D01*
X15500000Y-49500000D02*
X15500000Y-22500000D01*
X23500000Y-49500000D02*
X15500000Y-49500000D01*
X79250000Y-69300000D02*
X79250000Y-73150000D01*
X77250000Y-69300000D02*
X77250000Y-73150000D01*
X79250000Y-69300000D02*
X77250000Y-69300000D01*
X77250000Y-67250000D02*
X77250000Y-63350000D01*
X79250000Y-67250000D02*
X79250000Y-63350000D01*
X77250000Y-67250000D02*
X79250000Y-67250000D01*
X74100000Y-59000000D02*
X78000000Y-59000000D01*
X74100000Y-61000000D02*
X78000000Y-61000000D01*
X74100000Y-59000000D02*
X74100000Y-61000000D01*
X58250000Y-83850000D02*
X59500000Y-83850000D01*
X58250000Y-82600000D02*
X58250000Y-83850000D01*
X63750000Y-76700000D02*
X63750000Y-79750000D01*
X60800000Y-76700000D02*
X63750000Y-76700000D01*
X60800000Y-75950000D02*
X60800000Y-76700000D01*
X63750000Y-82800000D02*
X63750000Y-79750000D01*
X60800000Y-82800000D02*
X63750000Y-82800000D01*
X60800000Y-83550000D02*
X60800000Y-82800000D01*
X58550000Y-75950000D02*
X58550000Y-77750000D01*
X59300000Y-75950000D02*
X58550000Y-75950000D01*
X59300000Y-77750000D02*
X59300000Y-75950000D01*
X58550000Y-77750000D02*
X59300000Y-77750000D01*
X58550000Y-81750000D02*
X58550000Y-83550000D01*
X59300000Y-81750000D02*
X58550000Y-81750000D01*
X59300000Y-83550000D02*
X59300000Y-81750000D01*
X58550000Y-83550000D02*
X59300000Y-83550000D01*
X58550000Y-79250000D02*
X58550000Y-80250000D01*
X59300000Y-79250000D02*
X58550000Y-79250000D01*
X59300000Y-80250000D02*
X59300000Y-79250000D01*
X58550000Y-80250000D02*
X59300000Y-80250000D01*
X58540000Y-75940000D02*
X58540000Y-83560000D01*
X64510000Y-75940000D02*
X58540000Y-75940000D01*
X64510000Y-83560000D02*
X64510000Y-75940000D01*
X58540000Y-83560000D02*
X64510000Y-83560000D01*
X51250000Y-83850000D02*
X52500000Y-83850000D01*
X51250000Y-82600000D02*
X51250000Y-83850000D01*
X56750000Y-76700000D02*
X56750000Y-79750000D01*
X53800000Y-76700000D02*
X56750000Y-76700000D01*
X53800000Y-75950000D02*
X53800000Y-76700000D01*
X56750000Y-82800000D02*
X56750000Y-79750000D01*
X53800000Y-82800000D02*
X56750000Y-82800000D01*
X53800000Y-83550000D02*
X53800000Y-82800000D01*
X51550000Y-75950000D02*
X51550000Y-77750000D01*
X52300000Y-75950000D02*
X51550000Y-75950000D01*
X52300000Y-77750000D02*
X52300000Y-75950000D01*
X51550000Y-77750000D02*
X52300000Y-77750000D01*
X51550000Y-81750000D02*
X51550000Y-83550000D01*
X52300000Y-81750000D02*
X51550000Y-81750000D01*
X52300000Y-83550000D02*
X52300000Y-81750000D01*
X51550000Y-83550000D02*
X52300000Y-83550000D01*
X51550000Y-79250000D02*
X51550000Y-80250000D01*
X52300000Y-79250000D02*
X51550000Y-79250000D01*
X52300000Y-80250000D02*
X52300000Y-79250000D01*
X51550000Y-80250000D02*
X52300000Y-80250000D01*
X51540000Y-75940000D02*
X51540000Y-83560000D01*
X57510000Y-75940000D02*
X51540000Y-75940000D01*
X57510000Y-83560000D02*
X57510000Y-75940000D01*
X51540000Y-83560000D02*
X57510000Y-83560000D01*
X44250000Y-78850000D02*
X45500000Y-78850000D01*
X44250000Y-77600000D02*
X44250000Y-78850000D01*
X49750000Y-71700000D02*
X49750000Y-74750000D01*
X46800000Y-71700000D02*
X49750000Y-71700000D01*
X46800000Y-70950000D02*
X46800000Y-71700000D01*
X49750000Y-77800000D02*
X49750000Y-74750000D01*
X46800000Y-77800000D02*
X49750000Y-77800000D01*
X46800000Y-78550000D02*
X46800000Y-77800000D01*
X44550000Y-70950000D02*
X44550000Y-72750000D01*
X45300000Y-70950000D02*
X44550000Y-70950000D01*
X45300000Y-72750000D02*
X45300000Y-70950000D01*
X44550000Y-72750000D02*
X45300000Y-72750000D01*
X44550000Y-76750000D02*
X44550000Y-78550000D01*
X45300000Y-76750000D02*
X44550000Y-76750000D01*
X45300000Y-78550000D02*
X45300000Y-76750000D01*
X44550000Y-78550000D02*
X45300000Y-78550000D01*
X44550000Y-74250000D02*
X44550000Y-75250000D01*
X45300000Y-74250000D02*
X44550000Y-74250000D01*
X45300000Y-75250000D02*
X45300000Y-74250000D01*
X44550000Y-75250000D02*
X45300000Y-75250000D01*
X44540000Y-70940000D02*
X44540000Y-78560000D01*
X50510000Y-70940000D02*
X44540000Y-70940000D01*
X50510000Y-78560000D02*
X50510000Y-70940000D01*
X44540000Y-78560000D02*
X50510000Y-78560000D01*
X37250000Y-71850000D02*
X38500000Y-71850000D01*
X37250000Y-70600000D02*
X37250000Y-71850000D01*
X42750000Y-64700000D02*
X42750000Y-67750000D01*
X39800000Y-64700000D02*
X42750000Y-64700000D01*
X39800000Y-63950000D02*
X39800000Y-64700000D01*
X42750000Y-70800000D02*
X42750000Y-67750000D01*
X39800000Y-70800000D02*
X42750000Y-70800000D01*
X39800000Y-71550000D02*
X39800000Y-70800000D01*
X37550000Y-63950000D02*
X37550000Y-65750000D01*
X38300000Y-63950000D02*
X37550000Y-63950000D01*
X38300000Y-65750000D02*
X38300000Y-63950000D01*
X37550000Y-65750000D02*
X38300000Y-65750000D01*
X37550000Y-69750000D02*
X37550000Y-71550000D01*
X38300000Y-69750000D02*
X37550000Y-69750000D01*
X38300000Y-71550000D02*
X38300000Y-69750000D01*
X37550000Y-71550000D02*
X38300000Y-71550000D01*
X37550000Y-67250000D02*
X37550000Y-68250000D01*
X38300000Y-67250000D02*
X37550000Y-67250000D01*
X38300000Y-68250000D02*
X38300000Y-67250000D01*
X37550000Y-68250000D02*
X38300000Y-68250000D01*
X37540000Y-63940000D02*
X37540000Y-71560000D01*
X43510000Y-63940000D02*
X37540000Y-63940000D01*
X43510000Y-71560000D02*
X43510000Y-63940000D01*
X37540000Y-71560000D02*
X43510000Y-71560000D01*
X30250000Y-64850000D02*
X31500000Y-64850000D01*
X30250000Y-63600000D02*
X30250000Y-64850000D01*
X35750000Y-57700000D02*
X35750000Y-60750000D01*
X32800000Y-57700000D02*
X35750000Y-57700000D01*
X32800000Y-56950000D02*
X32800000Y-57700000D01*
X35750000Y-63800000D02*
X35750000Y-60750000D01*
X32800000Y-63800000D02*
X35750000Y-63800000D01*
X32800000Y-64550000D02*
X32800000Y-63800000D01*
X30550000Y-56950000D02*
X30550000Y-58750000D01*
X31300000Y-56950000D02*
X30550000Y-56950000D01*
X31300000Y-58750000D02*
X31300000Y-56950000D01*
X30550000Y-58750000D02*
X31300000Y-58750000D01*
X30550000Y-62750000D02*
X30550000Y-64550000D01*
X31300000Y-62750000D02*
X30550000Y-62750000D01*
X31300000Y-64550000D02*
X31300000Y-62750000D01*
X30550000Y-64550000D02*
X31300000Y-64550000D01*
X30550000Y-60250000D02*
X30550000Y-61250000D01*
X31300000Y-60250000D02*
X30550000Y-60250000D01*
X31300000Y-61250000D02*
X31300000Y-60250000D01*
X30550000Y-61250000D02*
X31300000Y-61250000D01*
X30540000Y-56940000D02*
X30540000Y-64560000D01*
X36510000Y-56940000D02*
X30540000Y-56940000D01*
X36510000Y-64560000D02*
X36510000Y-56940000D01*
X30540000Y-64560000D02*
X36510000Y-64560000D01*
X23250000Y-57850000D02*
X24500000Y-57850000D01*
X23250000Y-56600000D02*
X23250000Y-57850000D01*
X28750000Y-50700000D02*
X28750000Y-53750000D01*
X25800000Y-50700000D02*
X28750000Y-50700000D01*
X25800000Y-49950000D02*
X25800000Y-50700000D01*
X28750000Y-56800000D02*
X28750000Y-53750000D01*
X25800000Y-56800000D02*
X28750000Y-56800000D01*
X25800000Y-57550000D02*
X25800000Y-56800000D01*
X23550000Y-49950000D02*
X23550000Y-51750000D01*
X24300000Y-49950000D02*
X23550000Y-49950000D01*
X24300000Y-51750000D02*
X24300000Y-49950000D01*
X23550000Y-51750000D02*
X24300000Y-51750000D01*
X23550000Y-55750000D02*
X23550000Y-57550000D01*
X24300000Y-55750000D02*
X23550000Y-55750000D01*
X24300000Y-57550000D02*
X24300000Y-55750000D01*
X23550000Y-57550000D02*
X24300000Y-57550000D01*
X23550000Y-53250000D02*
X23550000Y-54250000D01*
X24300000Y-53250000D02*
X23550000Y-53250000D01*
X24300000Y-54250000D02*
X24300000Y-53250000D01*
X23550000Y-54250000D02*
X24300000Y-54250000D01*
X23540000Y-49940000D02*
X23540000Y-57560000D01*
X29510000Y-49940000D02*
X23540000Y-49940000D01*
X29510000Y-57560000D02*
X29510000Y-49940000D01*
X23540000Y-57560000D02*
X29510000Y-57560000D01*
X80564759Y-64346000D02*
X80564759Y-64976000D01*
X80249759Y-64661000D02*
X80879759Y-64661000D01*
X86991000Y-66098000D02*
X86991000Y-66902000D01*
X86951000Y-65867000D02*
X86951000Y-67133000D01*
X86911000Y-65698000D02*
X86911000Y-67302000D01*
X86871000Y-65560000D02*
X86871000Y-67440000D01*
X86831000Y-65441000D02*
X86831000Y-67559000D01*
X86791000Y-65335000D02*
X86791000Y-67665000D01*
X86751000Y-65238000D02*
X86751000Y-67762000D01*
X86711000Y-65150000D02*
X86711000Y-67850000D01*
X86671000Y-65068000D02*
X86671000Y-67932000D01*
X86631000Y-64991000D02*
X86631000Y-68009000D01*
X86591000Y-64919000D02*
X86591000Y-68081000D01*
X86551000Y-64850000D02*
X86551000Y-68150000D01*
X86511000Y-64786000D02*
X86511000Y-68214000D01*
X86471000Y-64724000D02*
X86471000Y-68276000D01*
X86431000Y-64666000D02*
X86431000Y-68334000D01*
X86391000Y-64610000D02*
X86391000Y-68390000D01*
X86351000Y-64556000D02*
X86351000Y-68444000D01*
X86311000Y-64505000D02*
X86311000Y-68495000D01*
X86271000Y-64456000D02*
X86271000Y-68544000D01*
X86231000Y-64408000D02*
X86231000Y-68592000D01*
X86191000Y-64363000D02*
X86191000Y-68637000D01*
X86151000Y-64318000D02*
X86151000Y-68682000D01*
X86111000Y-64276000D02*
X86111000Y-68724000D01*
X86071000Y-64235000D02*
X86071000Y-68765000D01*
X86031000Y-67540000D02*
X86031000Y-68805000D01*
X86031000Y-64195000D02*
X86031000Y-65460000D01*
X85991000Y-67540000D02*
X85991000Y-68843000D01*
X85991000Y-64157000D02*
X85991000Y-65460000D01*
X85951000Y-67540000D02*
X85951000Y-68880000D01*
X85951000Y-64120000D02*
X85951000Y-65460000D01*
X85911000Y-67540000D02*
X85911000Y-68916000D01*
X85911000Y-64084000D02*
X85911000Y-65460000D01*
X85871000Y-67540000D02*
X85871000Y-68950000D01*
X85871000Y-64050000D02*
X85871000Y-65460000D01*
X85831000Y-67540000D02*
X85831000Y-68984000D01*
X85831000Y-64016000D02*
X85831000Y-65460000D01*
X85791000Y-67540000D02*
X85791000Y-69016000D01*
X85791000Y-63984000D02*
X85791000Y-65460000D01*
X85751000Y-67540000D02*
X85751000Y-69048000D01*
X85751000Y-63952000D02*
X85751000Y-65460000D01*
X85711000Y-67540000D02*
X85711000Y-69078000D01*
X85711000Y-63922000D02*
X85711000Y-65460000D01*
X85671000Y-67540000D02*
X85671000Y-69107000D01*
X85671000Y-63893000D02*
X85671000Y-65460000D01*
X85631000Y-67540000D02*
X85631000Y-69136000D01*
X85631000Y-63864000D02*
X85631000Y-65460000D01*
X85591000Y-67540000D02*
X85591000Y-69164000D01*
X85591000Y-63836000D02*
X85591000Y-65460000D01*
X85551000Y-67540000D02*
X85551000Y-69190000D01*
X85551000Y-63810000D02*
X85551000Y-65460000D01*
X85511000Y-67540000D02*
X85511000Y-69216000D01*
X85511000Y-63784000D02*
X85511000Y-65460000D01*
X85471000Y-67540000D02*
X85471000Y-69242000D01*
X85471000Y-63758000D02*
X85471000Y-65460000D01*
X85431000Y-67540000D02*
X85431000Y-69266000D01*
X85431000Y-63734000D02*
X85431000Y-65460000D01*
X85391000Y-67540000D02*
X85391000Y-69290000D01*
X85391000Y-63710000D02*
X85391000Y-65460000D01*
X85351000Y-67540000D02*
X85351000Y-69312000D01*
X85351000Y-63688000D02*
X85351000Y-65460000D01*
X85311000Y-67540000D02*
X85311000Y-69334000D01*
X85311000Y-63666000D02*
X85311000Y-65460000D01*
X85271000Y-67540000D02*
X85271000Y-69356000D01*
X85271000Y-63644000D02*
X85271000Y-65460000D01*
X85231000Y-67540000D02*
X85231000Y-69376000D01*
X85231000Y-63624000D02*
X85231000Y-65460000D01*
X85191000Y-67540000D02*
X85191000Y-69396000D01*
X85191000Y-63604000D02*
X85191000Y-65460000D01*
X85151000Y-67540000D02*
X85151000Y-69416000D01*
X85151000Y-63584000D02*
X85151000Y-65460000D01*
X85111000Y-67540000D02*
X85111000Y-69434000D01*
X85111000Y-63566000D02*
X85111000Y-65460000D01*
X85071000Y-67540000D02*
X85071000Y-69452000D01*
X85071000Y-63548000D02*
X85071000Y-65460000D01*
X85031000Y-67540000D02*
X85031000Y-69470000D01*
X85031000Y-63530000D02*
X85031000Y-65460000D01*
X84991000Y-67540000D02*
X84991000Y-69486000D01*
X84991000Y-63514000D02*
X84991000Y-65460000D01*
X84951000Y-67540000D02*
X84951000Y-69502000D01*
X84951000Y-63498000D02*
X84951000Y-65460000D01*
X84911000Y-67540000D02*
X84911000Y-69518000D01*
X84911000Y-63482000D02*
X84911000Y-65460000D01*
X84871000Y-67540000D02*
X84871000Y-69533000D01*
X84871000Y-63467000D02*
X84871000Y-65460000D01*
X84831000Y-67540000D02*
X84831000Y-69547000D01*
X84831000Y-63453000D02*
X84831000Y-65460000D01*
X84791000Y-67540000D02*
X84791000Y-69561000D01*
X84791000Y-63439000D02*
X84791000Y-65460000D01*
X84751000Y-67540000D02*
X84751000Y-69574000D01*
X84751000Y-63426000D02*
X84751000Y-65460000D01*
X84711000Y-67540000D02*
X84711000Y-69586000D01*
X84711000Y-63414000D02*
X84711000Y-65460000D01*
X84671000Y-67540000D02*
X84671000Y-69598000D01*
X84671000Y-63402000D02*
X84671000Y-65460000D01*
X84631000Y-67540000D02*
X84631000Y-69610000D01*
X84631000Y-63390000D02*
X84631000Y-65460000D01*
X84591000Y-67540000D02*
X84591000Y-69621000D01*
X84591000Y-63379000D02*
X84591000Y-65460000D01*
X84551000Y-67540000D02*
X84551000Y-69631000D01*
X84551000Y-63369000D02*
X84551000Y-65460000D01*
X84511000Y-67540000D02*
X84511000Y-69641000D01*
X84511000Y-63359000D02*
X84511000Y-65460000D01*
X84471000Y-67540000D02*
X84471000Y-69650000D01*
X84471000Y-63350000D02*
X84471000Y-65460000D01*
X84430000Y-67540000D02*
X84430000Y-69659000D01*
X84430000Y-63341000D02*
X84430000Y-65460000D01*
X84390000Y-67540000D02*
X84390000Y-69667000D01*
X84390000Y-63333000D02*
X84390000Y-65460000D01*
X84350000Y-67540000D02*
X84350000Y-69675000D01*
X84350000Y-63325000D02*
X84350000Y-65460000D01*
X84310000Y-67540000D02*
X84310000Y-69682000D01*
X84310000Y-63318000D02*
X84310000Y-65460000D01*
X84270000Y-67540000D02*
X84270000Y-69689000D01*
X84270000Y-63311000D02*
X84270000Y-65460000D01*
X84230000Y-67540000D02*
X84230000Y-69695000D01*
X84230000Y-63305000D02*
X84230000Y-65460000D01*
X84190000Y-67540000D02*
X84190000Y-69701000D01*
X84190000Y-63299000D02*
X84190000Y-65460000D01*
X84150000Y-67540000D02*
X84150000Y-69706000D01*
X84150000Y-63294000D02*
X84150000Y-65460000D01*
X84110000Y-67540000D02*
X84110000Y-69711000D01*
X84110000Y-63289000D02*
X84110000Y-65460000D01*
X84070000Y-67540000D02*
X84070000Y-69715000D01*
X84070000Y-63285000D02*
X84070000Y-65460000D01*
X84030000Y-67540000D02*
X84030000Y-69718000D01*
X84030000Y-63282000D02*
X84030000Y-65460000D01*
X83990000Y-67540000D02*
X83990000Y-69722000D01*
X83990000Y-63278000D02*
X83990000Y-65460000D01*
X83950000Y-63276000D02*
X83950000Y-69724000D01*
X83910000Y-63273000D02*
X83910000Y-69727000D01*
X83870000Y-63272000D02*
X83870000Y-69728000D01*
X83830000Y-63270000D02*
X83830000Y-69730000D01*
X83790000Y-63270000D02*
X83790000Y-69730000D01*
X83750000Y-63270000D02*
X83750000Y-69730000D01*
X87020000Y-66500000D02*
G75*
G03*
X87020000Y-66500000I-3270000J0D01*
G01*
X67263748Y-61360000D02*
X68686252Y-61360000D01*
X67263748Y-58640000D02*
X68686252Y-58640000D01*
X62238748Y-61235000D02*
X62761252Y-61235000D01*
X62238748Y-59765000D02*
X62761252Y-59765000D01*
X35265000Y-29288748D02*
X35265000Y-29811252D01*
X36735000Y-29288748D02*
X36735000Y-29811252D01*
X89765000Y-40188748D02*
X89765000Y-40711252D01*
X91235000Y-40188748D02*
X91235000Y-40711252D01*
X37738748Y-35235000D02*
X38261252Y-35235000D01*
X37738748Y-33765000D02*
X38261252Y-33765000D01*
X31263748Y-31360000D02*
X32686252Y-31360000D01*
X31263748Y-28640000D02*
X32686252Y-28640000D01*
X102288748Y-24735000D02*
X102811252Y-24735000D01*
X102288748Y-23265000D02*
X102811252Y-23265000D01*
D10*
X90357142Y-61952380D02*
X89880952Y-61952380D01*
X89880952Y-60952380D01*
X90642857Y-61904761D02*
X90785714Y-61952380D01*
X91023809Y-61952380D01*
X91119047Y-61904761D01*
X91166666Y-61857142D01*
X91214285Y-61761904D01*
X91214285Y-61666666D01*
X91166666Y-61571428D01*
X91119047Y-61523809D01*
X91023809Y-61476190D01*
X90833333Y-61428571D01*
X90738095Y-61380952D01*
X90690476Y-61333333D01*
X90642857Y-61238095D01*
X90642857Y-61142857D01*
X90690476Y-61047619D01*
X90738095Y-61000000D01*
X90833333Y-60952380D01*
X91071428Y-60952380D01*
X91214285Y-61000000D01*
X92166666Y-61952380D02*
X91595238Y-61952380D01*
X91880952Y-61952380D02*
X91880952Y-60952380D01*
X91785714Y-61095238D01*
X91690476Y-61190476D01*
X91595238Y-61238095D01*
X83333333Y-71177142D02*
X83285714Y-71224761D01*
X83142857Y-71272380D01*
X83047619Y-71272380D01*
X82904761Y-71224761D01*
X82809523Y-71129523D01*
X82761904Y-71034285D01*
X82714285Y-70843809D01*
X82714285Y-70700952D01*
X82761904Y-70510476D01*
X82809523Y-70415238D01*
X82904761Y-70320000D01*
X83047619Y-70272380D01*
X83142857Y-70272380D01*
X83285714Y-70320000D01*
X83333333Y-70367619D01*
X83809523Y-71272380D02*
X84000000Y-71272380D01*
X84095238Y-71224761D01*
X84142857Y-71177142D01*
X84238095Y-71034285D01*
X84285714Y-70843809D01*
X84285714Y-70462857D01*
X84238095Y-70367619D01*
X84190476Y-70320000D01*
X84095238Y-70272380D01*
X83904761Y-70272380D01*
X83809523Y-70320000D01*
X83761904Y-70367619D01*
X83714285Y-70462857D01*
X83714285Y-70700952D01*
X83761904Y-70796190D01*
X83809523Y-70843809D01*
X83904761Y-70891428D01*
X84095238Y-70891428D01*
X84190476Y-70843809D01*
X84238095Y-70796190D01*
X84285714Y-70700952D01*
X61738095Y-27452380D02*
X61738095Y-28261904D01*
X61785714Y-28357142D01*
X61833333Y-28404761D01*
X61928571Y-28452380D01*
X62119047Y-28452380D01*
X62214285Y-28404761D01*
X62261904Y-28357142D01*
X62309523Y-28261904D01*
X62309523Y-27452380D01*
X62690476Y-27452380D02*
X63309523Y-27452380D01*
X62976190Y-27833333D01*
X63119047Y-27833333D01*
X63214285Y-27880952D01*
X63261904Y-27928571D01*
X63309523Y-28023809D01*
X63309523Y-28261904D01*
X63261904Y-28357142D01*
X63214285Y-28404761D01*
X63119047Y-28452380D01*
X62833333Y-28452380D01*
X62738095Y-28404761D01*
X62690476Y-28357142D01*
X78488095Y-27952380D02*
X78488095Y-28761904D01*
X78535714Y-28857142D01*
X78583333Y-28904761D01*
X78678571Y-28952380D01*
X78869047Y-28952380D01*
X78964285Y-28904761D01*
X79011904Y-28857142D01*
X79059523Y-28761904D01*
X79059523Y-27952380D01*
X79488095Y-28904761D02*
X79630952Y-28952380D01*
X79869047Y-28952380D01*
X79964285Y-28904761D01*
X80011904Y-28857142D01*
X80059523Y-28761904D01*
X80059523Y-28666666D01*
X80011904Y-28571428D01*
X79964285Y-28523809D01*
X79869047Y-28476190D01*
X79678571Y-28428571D01*
X79583333Y-28380952D01*
X79535714Y-28333333D01*
X79488095Y-28238095D01*
X79488095Y-28142857D01*
X79535714Y-28047619D01*
X79583333Y-28000000D01*
X79678571Y-27952380D01*
X79916666Y-27952380D01*
X80059523Y-28000000D01*
X80821428Y-28428571D02*
X80964285Y-28476190D01*
X81011904Y-28523809D01*
X81059523Y-28619047D01*
X81059523Y-28761904D01*
X81011904Y-28857142D01*
X80964285Y-28904761D01*
X80869047Y-28952380D01*
X80488095Y-28952380D01*
X80488095Y-27952380D01*
X80821428Y-27952380D01*
X80916666Y-28000000D01*
X80964285Y-28047619D01*
X81011904Y-28142857D01*
X81011904Y-28238095D01*
X80964285Y-28333333D01*
X80916666Y-28380952D01*
X80821428Y-28428571D01*
X80488095Y-28428571D01*
X52714285Y-46452380D02*
X53285714Y-46452380D01*
X53000000Y-47452380D02*
X53000000Y-46452380D01*
X53619047Y-47452380D02*
X53619047Y-46452380D01*
X53619047Y-46928571D02*
X54190476Y-46928571D01*
X54190476Y-47452380D02*
X54190476Y-46452380D01*
X55190476Y-47452380D02*
X54619047Y-47452380D01*
X54904761Y-47452380D02*
X54904761Y-46452380D01*
X54809523Y-46595238D01*
X54714285Y-46690476D01*
X54619047Y-46738095D01*
X68166666Y-49952380D02*
X68166666Y-50666666D01*
X68119047Y-50809523D01*
X68023809Y-50904761D01*
X67880952Y-50952380D01*
X67785714Y-50952380D01*
X68690476Y-50952380D02*
X68880952Y-50952380D01*
X68976190Y-50904761D01*
X69023809Y-50857142D01*
X69119047Y-50714285D01*
X69166666Y-50523809D01*
X69166666Y-50142857D01*
X69119047Y-50047619D01*
X69071428Y-50000000D01*
X68976190Y-49952380D01*
X68785714Y-49952380D01*
X68690476Y-50000000D01*
X68642857Y-50047619D01*
X68595238Y-50142857D01*
X68595238Y-50380952D01*
X68642857Y-50476190D01*
X68690476Y-50523809D01*
X68785714Y-50571428D01*
X68976190Y-50571428D01*
X69071428Y-50523809D01*
X69119047Y-50476190D01*
X69166666Y-50380952D01*
X70166666Y-49952380D02*
X70166666Y-50666666D01*
X70119047Y-50809523D01*
X70023809Y-50904761D01*
X69880952Y-50952380D01*
X69785714Y-50952380D01*
X70785714Y-50380952D02*
X70690476Y-50333333D01*
X70642857Y-50285714D01*
X70595238Y-50190476D01*
X70595238Y-50142857D01*
X70642857Y-50047619D01*
X70690476Y-50000000D01*
X70785714Y-49952380D01*
X70976190Y-49952380D01*
X71071428Y-50000000D01*
X71119047Y-50047619D01*
X71166666Y-50142857D01*
X71166666Y-50190476D01*
X71119047Y-50285714D01*
X71071428Y-50333333D01*
X70976190Y-50380952D01*
X70785714Y-50380952D01*
X70690476Y-50428571D01*
X70642857Y-50476190D01*
X70595238Y-50571428D01*
X70595238Y-50761904D01*
X70642857Y-50857142D01*
X70690476Y-50904761D01*
X70785714Y-50952380D01*
X70976190Y-50952380D01*
X71071428Y-50904761D01*
X71119047Y-50857142D01*
X71166666Y-50761904D01*
X71166666Y-50571428D01*
X71119047Y-50476190D01*
X71071428Y-50428571D01*
X70976190Y-50380952D01*
X79166666Y-49952380D02*
X79166666Y-50666666D01*
X79119047Y-50809523D01*
X79023809Y-50904761D01*
X78880952Y-50952380D01*
X78785714Y-50952380D01*
X79547619Y-49952380D02*
X80214285Y-49952380D01*
X79785714Y-50952380D01*
X39952380Y-25761904D02*
X40761904Y-25761904D01*
X40857142Y-25714285D01*
X40904761Y-25666666D01*
X40952380Y-25571428D01*
X40952380Y-25380952D01*
X40904761Y-25285714D01*
X40857142Y-25238095D01*
X40761904Y-25190476D01*
X39952380Y-25190476D01*
X40047619Y-24761904D02*
X40000000Y-24714285D01*
X39952380Y-24619047D01*
X39952380Y-24380952D01*
X40000000Y-24285714D01*
X40047619Y-24238095D01*
X40142857Y-24190476D01*
X40238095Y-24190476D01*
X40380952Y-24238095D01*
X40952380Y-24809523D01*
X40952380Y-24190476D01*
X89654761Y-70797619D02*
X89559523Y-70750000D01*
X89464285Y-70654761D01*
X89321428Y-70511904D01*
X89226190Y-70464285D01*
X89130952Y-70464285D01*
X89178571Y-70702380D02*
X89083333Y-70654761D01*
X88988095Y-70559523D01*
X88940476Y-70369047D01*
X88940476Y-70035714D01*
X88988095Y-69845238D01*
X89083333Y-69750000D01*
X89178571Y-69702380D01*
X89369047Y-69702380D01*
X89464285Y-69750000D01*
X89559523Y-69845238D01*
X89607142Y-70035714D01*
X89607142Y-70369047D01*
X89559523Y-70559523D01*
X89464285Y-70654761D01*
X89369047Y-70702380D01*
X89178571Y-70702380D01*
X90464285Y-69702380D02*
X90273809Y-69702380D01*
X90178571Y-69750000D01*
X90130952Y-69797619D01*
X90035714Y-69940476D01*
X89988095Y-70130952D01*
X89988095Y-70511904D01*
X90035714Y-70607142D01*
X90083333Y-70654761D01*
X90178571Y-70702380D01*
X90369047Y-70702380D01*
X90464285Y-70654761D01*
X90511904Y-70607142D01*
X90559523Y-70511904D01*
X90559523Y-70273809D01*
X90511904Y-70178571D01*
X90464285Y-70130952D01*
X90369047Y-70083333D01*
X90178571Y-70083333D01*
X90083333Y-70130952D01*
X90035714Y-70178571D01*
X89988095Y-70273809D01*
X92452380Y-32761904D02*
X93261904Y-32761904D01*
X93357142Y-32714285D01*
X93404761Y-32666666D01*
X93452380Y-32571428D01*
X93452380Y-32380952D01*
X93404761Y-32285714D01*
X93357142Y-32238095D01*
X93261904Y-32190476D01*
X92452380Y-32190476D01*
X93452380Y-31190476D02*
X93452380Y-31761904D01*
X93452380Y-31476190D02*
X92452380Y-31476190D01*
X92595238Y-31571428D01*
X92690476Y-31666666D01*
X92738095Y-31761904D01*
X71690476Y-76952380D02*
X71690476Y-77666666D01*
X71642857Y-77809523D01*
X71547619Y-77904761D01*
X71404761Y-77952380D01*
X71309523Y-77952380D01*
X72690476Y-77952380D02*
X72119047Y-77952380D01*
X72404761Y-77952380D02*
X72404761Y-76952380D01*
X72309523Y-77095238D01*
X72214285Y-77190476D01*
X72119047Y-77238095D01*
X73309523Y-76952380D02*
X73404761Y-76952380D01*
X73500000Y-77000000D01*
X73547619Y-77047619D01*
X73595238Y-77142857D01*
X73642857Y-77333333D01*
X73642857Y-77571428D01*
X73595238Y-77761904D01*
X73547619Y-77857142D01*
X73500000Y-77904761D01*
X73404761Y-77952380D01*
X73309523Y-77952380D01*
X73214285Y-77904761D01*
X73166666Y-77857142D01*
X73119047Y-77761904D01*
X73071428Y-77571428D01*
X73071428Y-77333333D01*
X73119047Y-77142857D01*
X73166666Y-77047619D01*
X73214285Y-77000000D01*
X73309523Y-76952380D01*
X63738095Y-72952380D02*
X63738095Y-73761904D01*
X63785714Y-73857142D01*
X63833333Y-73904761D01*
X63928571Y-73952380D01*
X64119047Y-73952380D01*
X64214285Y-73904761D01*
X64261904Y-73857142D01*
X64309523Y-73761904D01*
X64309523Y-72952380D01*
X65261904Y-72952380D02*
X64785714Y-72952380D01*
X64738095Y-73428571D01*
X64785714Y-73380952D01*
X64880952Y-73333333D01*
X65119047Y-73333333D01*
X65214285Y-73380952D01*
X65261904Y-73428571D01*
X65309523Y-73523809D01*
X65309523Y-73761904D01*
X65261904Y-73857142D01*
X65214285Y-73904761D01*
X65119047Y-73952380D01*
X64880952Y-73952380D01*
X64785714Y-73904761D01*
X64738095Y-73857142D01*
X88452380Y-48261904D02*
X89261904Y-48261904D01*
X89357142Y-48214285D01*
X89404761Y-48166666D01*
X89452380Y-48071428D01*
X89452380Y-47880952D01*
X89404761Y-47785714D01*
X89357142Y-47738095D01*
X89261904Y-47690476D01*
X88452380Y-47690476D01*
X88785714Y-46785714D02*
X89452380Y-46785714D01*
X88404761Y-47023809D02*
X89119047Y-47261904D01*
X89119047Y-46642857D01*
X48452380Y-42460714D02*
X48452380Y-41889285D01*
X49452380Y-42175000D02*
X48452380Y-42175000D01*
X49452380Y-41555952D02*
X48452380Y-41555952D01*
X48928571Y-41555952D02*
X48928571Y-40984523D01*
X49452380Y-40984523D02*
X48452380Y-40984523D01*
X48547619Y-40555952D02*
X48500000Y-40508333D01*
X48452380Y-40413095D01*
X48452380Y-40175000D01*
X48500000Y-40079761D01*
X48547619Y-40032142D01*
X48642857Y-39984523D01*
X48738095Y-39984523D01*
X48880952Y-40032142D01*
X49452380Y-40603571D01*
X49452380Y-39984523D01*
X37904761Y-25333333D02*
X37952380Y-25190476D01*
X37952380Y-24952380D01*
X37904761Y-24857142D01*
X37857142Y-24809523D01*
X37761904Y-24761904D01*
X37666666Y-24761904D01*
X37571428Y-24809523D01*
X37523809Y-24857142D01*
X37476190Y-24952380D01*
X37428571Y-25142857D01*
X37380952Y-25238095D01*
X37333333Y-25285714D01*
X37238095Y-25333333D01*
X37142857Y-25333333D01*
X37047619Y-25285714D01*
X37000000Y-25238095D01*
X36952380Y-25142857D01*
X36952380Y-24904761D01*
X37000000Y-24761904D01*
X36952380Y-24428571D02*
X37952380Y-24190476D01*
X37238095Y-24000000D01*
X37952380Y-23809523D01*
X36952380Y-23571428D01*
X37952380Y-22666666D02*
X37952380Y-23238095D01*
X37952380Y-22952380D02*
X36952380Y-22952380D01*
X37095238Y-23047619D01*
X37190476Y-23142857D01*
X37238095Y-23238095D01*
X73154761Y-62952380D02*
X72821428Y-62476190D01*
X72583333Y-62952380D02*
X72583333Y-61952380D01*
X72964285Y-61952380D01*
X73059523Y-62000000D01*
X73107142Y-62047619D01*
X73154761Y-62142857D01*
X73154761Y-62285714D01*
X73107142Y-62380952D01*
X73059523Y-62428571D01*
X72964285Y-62476190D01*
X72583333Y-62476190D01*
X73440476Y-61952380D02*
X73773809Y-62952380D01*
X74107142Y-61952380D01*
X74964285Y-62952380D02*
X74392857Y-62952380D01*
X74678571Y-62952380D02*
X74678571Y-61952380D01*
X74583333Y-62095238D01*
X74488095Y-62190476D01*
X74392857Y-62238095D01*
X49452380Y-45467857D02*
X48976190Y-45801190D01*
X49452380Y-46039285D02*
X48452380Y-46039285D01*
X48452380Y-45658333D01*
X48500000Y-45563095D01*
X48547619Y-45515476D01*
X48642857Y-45467857D01*
X48785714Y-45467857D01*
X48880952Y-45515476D01*
X48928571Y-45563095D01*
X48976190Y-45658333D01*
X48976190Y-46039285D01*
X48452380Y-45134523D02*
X48452380Y-44515476D01*
X48833333Y-44848809D01*
X48833333Y-44705952D01*
X48880952Y-44610714D01*
X48928571Y-44563095D01*
X49023809Y-44515476D01*
X49261904Y-44515476D01*
X49357142Y-44563095D01*
X49404761Y-44610714D01*
X49452380Y-44705952D01*
X49452380Y-44991666D01*
X49404761Y-45086904D01*
X49357142Y-45134523D01*
X48452380Y-43896428D02*
X48452380Y-43801190D01*
X48500000Y-43705952D01*
X48547619Y-43658333D01*
X48642857Y-43610714D01*
X48833333Y-43563095D01*
X49071428Y-43563095D01*
X49261904Y-43610714D01*
X49357142Y-43658333D01*
X49404761Y-43705952D01*
X49452380Y-43801190D01*
X49452380Y-43896428D01*
X49404761Y-43991666D01*
X49357142Y-44039285D01*
X49261904Y-44086904D01*
X49071428Y-44134523D01*
X48833333Y-44134523D01*
X48642857Y-44086904D01*
X48547619Y-44039285D01*
X48500000Y-43991666D01*
X48452380Y-43896428D01*
X88932142Y-67202380D02*
X88598809Y-66726190D01*
X88360714Y-67202380D02*
X88360714Y-66202380D01*
X88741666Y-66202380D01*
X88836904Y-66250000D01*
X88884523Y-66297619D01*
X88932142Y-66392857D01*
X88932142Y-66535714D01*
X88884523Y-66630952D01*
X88836904Y-66678571D01*
X88741666Y-66726190D01*
X88360714Y-66726190D01*
X89313095Y-66297619D02*
X89360714Y-66250000D01*
X89455952Y-66202380D01*
X89694047Y-66202380D01*
X89789285Y-66250000D01*
X89836904Y-66297619D01*
X89884523Y-66392857D01*
X89884523Y-66488095D01*
X89836904Y-66630952D01*
X89265476Y-67202380D01*
X89884523Y-67202380D01*
X90360714Y-67202380D02*
X90551190Y-67202380D01*
X90646428Y-67154761D01*
X90694047Y-67107142D01*
X90789285Y-66964285D01*
X90836904Y-66773809D01*
X90836904Y-66392857D01*
X90789285Y-66297619D01*
X90741666Y-66250000D01*
X90646428Y-66202380D01*
X90455952Y-66202380D01*
X90360714Y-66250000D01*
X90313095Y-66297619D01*
X90265476Y-66392857D01*
X90265476Y-66630952D01*
X90313095Y-66726190D01*
X90360714Y-66773809D01*
X90455952Y-66821428D01*
X90646428Y-66821428D01*
X90741666Y-66773809D01*
X90789285Y-66726190D01*
X90836904Y-66630952D01*
X89019642Y-63702380D02*
X88686309Y-63226190D01*
X88448214Y-63702380D02*
X88448214Y-62702380D01*
X88829166Y-62702380D01*
X88924404Y-62750000D01*
X88972023Y-62797619D01*
X89019642Y-62892857D01*
X89019642Y-63035714D01*
X88972023Y-63130952D01*
X88924404Y-63178571D01*
X88829166Y-63226190D01*
X88448214Y-63226190D01*
X89400595Y-62797619D02*
X89448214Y-62750000D01*
X89543452Y-62702380D01*
X89781547Y-62702380D01*
X89876785Y-62750000D01*
X89924404Y-62797619D01*
X89972023Y-62892857D01*
X89972023Y-62988095D01*
X89924404Y-63130952D01*
X89352976Y-63702380D01*
X89972023Y-63702380D01*
X90543452Y-63130952D02*
X90448214Y-63083333D01*
X90400595Y-63035714D01*
X90352976Y-62940476D01*
X90352976Y-62892857D01*
X90400595Y-62797619D01*
X90448214Y-62750000D01*
X90543452Y-62702380D01*
X90733928Y-62702380D01*
X90829166Y-62750000D01*
X90876785Y-62797619D01*
X90924404Y-62892857D01*
X90924404Y-62940476D01*
X90876785Y-63035714D01*
X90829166Y-63083333D01*
X90733928Y-63130952D01*
X90543452Y-63130952D01*
X90448214Y-63178571D01*
X90400595Y-63226190D01*
X90352976Y-63321428D01*
X90352976Y-63511904D01*
X90400595Y-63607142D01*
X90448214Y-63654761D01*
X90543452Y-63702380D01*
X90733928Y-63702380D01*
X90829166Y-63654761D01*
X90876785Y-63607142D01*
X90924404Y-63511904D01*
X90924404Y-63321428D01*
X90876785Y-63226190D01*
X90829166Y-63178571D01*
X90733928Y-63130952D01*
X53952380Y-45317857D02*
X53476190Y-45651190D01*
X53952380Y-45889285D02*
X52952380Y-45889285D01*
X52952380Y-45508333D01*
X53000000Y-45413095D01*
X53047619Y-45365476D01*
X53142857Y-45317857D01*
X53285714Y-45317857D01*
X53380952Y-45365476D01*
X53428571Y-45413095D01*
X53476190Y-45508333D01*
X53476190Y-45889285D01*
X53047619Y-44936904D02*
X53000000Y-44889285D01*
X52952380Y-44794047D01*
X52952380Y-44555952D01*
X53000000Y-44460714D01*
X53047619Y-44413095D01*
X53142857Y-44365476D01*
X53238095Y-44365476D01*
X53380952Y-44413095D01*
X53952380Y-44984523D01*
X53952380Y-44365476D01*
X52952380Y-44032142D02*
X52952380Y-43365476D01*
X53952380Y-43794047D01*
X66952380Y-28142857D02*
X66476190Y-28476190D01*
X66952380Y-28714285D02*
X65952380Y-28714285D01*
X65952380Y-28333333D01*
X66000000Y-28238095D01*
X66047619Y-28190476D01*
X66142857Y-28142857D01*
X66285714Y-28142857D01*
X66380952Y-28190476D01*
X66428571Y-28238095D01*
X66476190Y-28333333D01*
X66476190Y-28714285D01*
X66047619Y-27761904D02*
X66000000Y-27714285D01*
X65952380Y-27619047D01*
X65952380Y-27380952D01*
X66000000Y-27285714D01*
X66047619Y-27238095D01*
X66142857Y-27190476D01*
X66238095Y-27190476D01*
X66380952Y-27238095D01*
X66952380Y-27809523D01*
X66952380Y-27190476D01*
X65952380Y-26333333D02*
X65952380Y-26523809D01*
X66000000Y-26619047D01*
X66047619Y-26666666D01*
X66190476Y-26761904D01*
X66380952Y-26809523D01*
X66761904Y-26809523D01*
X66857142Y-26761904D01*
X66904761Y-26714285D01*
X66952380Y-26619047D01*
X66952380Y-26428571D01*
X66904761Y-26333333D01*
X66857142Y-26285714D01*
X66761904Y-26238095D01*
X66523809Y-26238095D01*
X66428571Y-26285714D01*
X66380952Y-26333333D01*
X66333333Y-26428571D01*
X66333333Y-26619047D01*
X66380952Y-26714285D01*
X66428571Y-26761904D01*
X66523809Y-26809523D01*
X69952380Y-28142857D02*
X69476190Y-28476190D01*
X69952380Y-28714285D02*
X68952380Y-28714285D01*
X68952380Y-28333333D01*
X69000000Y-28238095D01*
X69047619Y-28190476D01*
X69142857Y-28142857D01*
X69285714Y-28142857D01*
X69380952Y-28190476D01*
X69428571Y-28238095D01*
X69476190Y-28333333D01*
X69476190Y-28714285D01*
X69047619Y-27761904D02*
X69000000Y-27714285D01*
X68952380Y-27619047D01*
X68952380Y-27380952D01*
X69000000Y-27285714D01*
X69047619Y-27238095D01*
X69142857Y-27190476D01*
X69238095Y-27190476D01*
X69380952Y-27238095D01*
X69952380Y-27809523D01*
X69952380Y-27190476D01*
X68952380Y-26285714D02*
X68952380Y-26761904D01*
X69428571Y-26809523D01*
X69380952Y-26761904D01*
X69333333Y-26666666D01*
X69333333Y-26428571D01*
X69380952Y-26333333D01*
X69428571Y-26285714D01*
X69523809Y-26238095D01*
X69761904Y-26238095D01*
X69857142Y-26285714D01*
X69904761Y-26333333D01*
X69952380Y-26428571D01*
X69952380Y-26666666D01*
X69904761Y-26761904D01*
X69857142Y-26809523D01*
X72952380Y-28142857D02*
X72476190Y-28476190D01*
X72952380Y-28714285D02*
X71952380Y-28714285D01*
X71952380Y-28333333D01*
X72000000Y-28238095D01*
X72047619Y-28190476D01*
X72142857Y-28142857D01*
X72285714Y-28142857D01*
X72380952Y-28190476D01*
X72428571Y-28238095D01*
X72476190Y-28333333D01*
X72476190Y-28714285D01*
X72047619Y-27761904D02*
X72000000Y-27714285D01*
X71952380Y-27619047D01*
X71952380Y-27380952D01*
X72000000Y-27285714D01*
X72047619Y-27238095D01*
X72142857Y-27190476D01*
X72238095Y-27190476D01*
X72380952Y-27238095D01*
X72952380Y-27809523D01*
X72952380Y-27190476D01*
X72285714Y-26333333D02*
X72952380Y-26333333D01*
X71904761Y-26571428D02*
X72619047Y-26809523D01*
X72619047Y-26190476D01*
X85857142Y-39452380D02*
X85523809Y-38976190D01*
X85285714Y-39452380D02*
X85285714Y-38452380D01*
X85666666Y-38452380D01*
X85761904Y-38500000D01*
X85809523Y-38547619D01*
X85857142Y-38642857D01*
X85857142Y-38785714D01*
X85809523Y-38880952D01*
X85761904Y-38928571D01*
X85666666Y-38976190D01*
X85285714Y-38976190D01*
X86238095Y-38547619D02*
X86285714Y-38500000D01*
X86380952Y-38452380D01*
X86619047Y-38452380D01*
X86714285Y-38500000D01*
X86761904Y-38547619D01*
X86809523Y-38642857D01*
X86809523Y-38738095D01*
X86761904Y-38880952D01*
X86190476Y-39452380D01*
X86809523Y-39452380D01*
X87142857Y-38452380D02*
X87761904Y-38452380D01*
X87428571Y-38833333D01*
X87571428Y-38833333D01*
X87666666Y-38880952D01*
X87714285Y-38928571D01*
X87761904Y-39023809D01*
X87761904Y-39261904D01*
X87714285Y-39357142D01*
X87666666Y-39404761D01*
X87571428Y-39452380D01*
X87285714Y-39452380D01*
X87190476Y-39404761D01*
X87142857Y-39357142D01*
X85769642Y-42952380D02*
X85436309Y-42476190D01*
X85198214Y-42952380D02*
X85198214Y-41952380D01*
X85579166Y-41952380D01*
X85674404Y-42000000D01*
X85722023Y-42047619D01*
X85769642Y-42142857D01*
X85769642Y-42285714D01*
X85722023Y-42380952D01*
X85674404Y-42428571D01*
X85579166Y-42476190D01*
X85198214Y-42476190D01*
X86150595Y-42047619D02*
X86198214Y-42000000D01*
X86293452Y-41952380D01*
X86531547Y-41952380D01*
X86626785Y-42000000D01*
X86674404Y-42047619D01*
X86722023Y-42142857D01*
X86722023Y-42238095D01*
X86674404Y-42380952D01*
X86102976Y-42952380D01*
X86722023Y-42952380D01*
X87102976Y-42047619D02*
X87150595Y-42000000D01*
X87245833Y-41952380D01*
X87483928Y-41952380D01*
X87579166Y-42000000D01*
X87626785Y-42047619D01*
X87674404Y-42142857D01*
X87674404Y-42238095D01*
X87626785Y-42380952D01*
X87055357Y-42952380D01*
X87674404Y-42952380D01*
X72357142Y-53952380D02*
X72023809Y-53476190D01*
X71785714Y-53952380D02*
X71785714Y-52952380D01*
X72166666Y-52952380D01*
X72261904Y-53000000D01*
X72309523Y-53047619D01*
X72357142Y-53142857D01*
X72357142Y-53285714D01*
X72309523Y-53380952D01*
X72261904Y-53428571D01*
X72166666Y-53476190D01*
X71785714Y-53476190D01*
X72738095Y-53047619D02*
X72785714Y-53000000D01*
X72880952Y-52952380D01*
X73119047Y-52952380D01*
X73214285Y-53000000D01*
X73261904Y-53047619D01*
X73309523Y-53142857D01*
X73309523Y-53238095D01*
X73261904Y-53380952D01*
X72690476Y-53952380D01*
X73309523Y-53952380D01*
X74261904Y-53952380D02*
X73690476Y-53952380D01*
X73976190Y-53952380D02*
X73976190Y-52952380D01*
X73880952Y-53095238D01*
X73785714Y-53190476D01*
X73690476Y-53238095D01*
X72357142Y-51952380D02*
X72023809Y-51476190D01*
X71785714Y-51952380D02*
X71785714Y-50952380D01*
X72166666Y-50952380D01*
X72261904Y-51000000D01*
X72309523Y-51047619D01*
X72357142Y-51142857D01*
X72357142Y-51285714D01*
X72309523Y-51380952D01*
X72261904Y-51428571D01*
X72166666Y-51476190D01*
X71785714Y-51476190D01*
X72738095Y-51047619D02*
X72785714Y-51000000D01*
X72880952Y-50952380D01*
X73119047Y-50952380D01*
X73214285Y-51000000D01*
X73261904Y-51047619D01*
X73309523Y-51142857D01*
X73309523Y-51238095D01*
X73261904Y-51380952D01*
X72690476Y-51952380D01*
X73309523Y-51952380D01*
X73928571Y-50952380D02*
X74023809Y-50952380D01*
X74119047Y-51000000D01*
X74166666Y-51047619D01*
X74214285Y-51142857D01*
X74261904Y-51333333D01*
X74261904Y-51571428D01*
X74214285Y-51761904D01*
X74166666Y-51857142D01*
X74119047Y-51904761D01*
X74023809Y-51952380D01*
X73928571Y-51952380D01*
X73833333Y-51904761D01*
X73785714Y-51857142D01*
X73738095Y-51761904D01*
X73690476Y-51571428D01*
X73690476Y-51333333D01*
X73738095Y-51142857D01*
X73785714Y-51047619D01*
X73833333Y-51000000D01*
X73928571Y-50952380D01*
X52302380Y-60555357D02*
X51826190Y-60888690D01*
X52302380Y-61126785D02*
X51302380Y-61126785D01*
X51302380Y-60745833D01*
X51350000Y-60650595D01*
X51397619Y-60602976D01*
X51492857Y-60555357D01*
X51635714Y-60555357D01*
X51730952Y-60602976D01*
X51778571Y-60650595D01*
X51826190Y-60745833D01*
X51826190Y-61126785D01*
X52302380Y-59602976D02*
X52302380Y-60174404D01*
X52302380Y-59888690D02*
X51302380Y-59888690D01*
X51445238Y-59983928D01*
X51540476Y-60079166D01*
X51588095Y-60174404D01*
X52302380Y-59126785D02*
X52302380Y-58936309D01*
X52254761Y-58841071D01*
X52207142Y-58793452D01*
X52064285Y-58698214D01*
X51873809Y-58650595D01*
X51492857Y-58650595D01*
X51397619Y-58698214D01*
X51350000Y-58745833D01*
X51302380Y-58841071D01*
X51302380Y-59031547D01*
X51350000Y-59126785D01*
X51397619Y-59174404D01*
X51492857Y-59222023D01*
X51730952Y-59222023D01*
X51826190Y-59174404D01*
X51873809Y-59126785D01*
X51921428Y-59031547D01*
X51921428Y-58841071D01*
X51873809Y-58745833D01*
X51826190Y-58698214D01*
X51730952Y-58650595D01*
X55802380Y-60555357D02*
X55326190Y-60888690D01*
X55802380Y-61126785D02*
X54802380Y-61126785D01*
X54802380Y-60745833D01*
X54850000Y-60650595D01*
X54897619Y-60602976D01*
X54992857Y-60555357D01*
X55135714Y-60555357D01*
X55230952Y-60602976D01*
X55278571Y-60650595D01*
X55326190Y-60745833D01*
X55326190Y-61126785D01*
X55802380Y-59602976D02*
X55802380Y-60174404D01*
X55802380Y-59888690D02*
X54802380Y-59888690D01*
X54945238Y-59983928D01*
X55040476Y-60079166D01*
X55088095Y-60174404D01*
X55230952Y-59031547D02*
X55183333Y-59126785D01*
X55135714Y-59174404D01*
X55040476Y-59222023D01*
X54992857Y-59222023D01*
X54897619Y-59174404D01*
X54850000Y-59126785D01*
X54802380Y-59031547D01*
X54802380Y-58841071D01*
X54850000Y-58745833D01*
X54897619Y-58698214D01*
X54992857Y-58650595D01*
X55040476Y-58650595D01*
X55135714Y-58698214D01*
X55183333Y-58745833D01*
X55230952Y-58841071D01*
X55230952Y-59031547D01*
X55278571Y-59126785D01*
X55326190Y-59174404D01*
X55421428Y-59222023D01*
X55611904Y-59222023D01*
X55707142Y-59174404D01*
X55754761Y-59126785D01*
X55802380Y-59031547D01*
X55802380Y-58841071D01*
X55754761Y-58745833D01*
X55707142Y-58698214D01*
X55611904Y-58650595D01*
X55421428Y-58650595D01*
X55326190Y-58698214D01*
X55278571Y-58745833D01*
X55230952Y-58841071D01*
X47857142Y-25952380D02*
X47523809Y-25476190D01*
X47285714Y-25952380D02*
X47285714Y-24952380D01*
X47666666Y-24952380D01*
X47761904Y-25000000D01*
X47809523Y-25047619D01*
X47857142Y-25142857D01*
X47857142Y-25285714D01*
X47809523Y-25380952D01*
X47761904Y-25428571D01*
X47666666Y-25476190D01*
X47285714Y-25476190D01*
X48809523Y-25952380D02*
X48238095Y-25952380D01*
X48523809Y-25952380D02*
X48523809Y-24952380D01*
X48428571Y-25095238D01*
X48333333Y-25190476D01*
X48238095Y-25238095D01*
X49142857Y-24952380D02*
X49809523Y-24952380D01*
X49380952Y-25952380D01*
X47857142Y-31452380D02*
X47523809Y-30976190D01*
X47285714Y-31452380D02*
X47285714Y-30452380D01*
X47666666Y-30452380D01*
X47761904Y-30500000D01*
X47809523Y-30547619D01*
X47857142Y-30642857D01*
X47857142Y-30785714D01*
X47809523Y-30880952D01*
X47761904Y-30928571D01*
X47666666Y-30976190D01*
X47285714Y-30976190D01*
X48809523Y-31452380D02*
X48238095Y-31452380D01*
X48523809Y-31452380D02*
X48523809Y-30452380D01*
X48428571Y-30595238D01*
X48333333Y-30690476D01*
X48238095Y-30738095D01*
X49666666Y-30452380D02*
X49476190Y-30452380D01*
X49380952Y-30500000D01*
X49333333Y-30547619D01*
X49238095Y-30690476D01*
X49190476Y-30880952D01*
X49190476Y-31261904D01*
X49238095Y-31357142D01*
X49285714Y-31404761D01*
X49380952Y-31452380D01*
X49571428Y-31452380D01*
X49666666Y-31404761D01*
X49714285Y-31357142D01*
X49761904Y-31261904D01*
X49761904Y-31023809D01*
X49714285Y-30928571D01*
X49666666Y-30880952D01*
X49571428Y-30833333D01*
X49380952Y-30833333D01*
X49285714Y-30880952D01*
X49238095Y-30928571D01*
X49190476Y-31023809D01*
X55952380Y-73730357D02*
X55476190Y-74063690D01*
X55952380Y-74301785D02*
X54952380Y-74301785D01*
X54952380Y-73920833D01*
X55000000Y-73825595D01*
X55047619Y-73777976D01*
X55142857Y-73730357D01*
X55285714Y-73730357D01*
X55380952Y-73777976D01*
X55428571Y-73825595D01*
X55476190Y-73920833D01*
X55476190Y-74301785D01*
X55952380Y-72777976D02*
X55952380Y-73349404D01*
X55952380Y-73063690D02*
X54952380Y-73063690D01*
X55095238Y-73158928D01*
X55190476Y-73254166D01*
X55238095Y-73349404D01*
X54952380Y-71873214D02*
X54952380Y-72349404D01*
X55428571Y-72397023D01*
X55380952Y-72349404D01*
X55333333Y-72254166D01*
X55333333Y-72016071D01*
X55380952Y-71920833D01*
X55428571Y-71873214D01*
X55523809Y-71825595D01*
X55761904Y-71825595D01*
X55857142Y-71873214D01*
X55904761Y-71920833D01*
X55952380Y-72016071D01*
X55952380Y-72254166D01*
X55904761Y-72349404D01*
X55857142Y-72397023D01*
X43857142Y-25952380D02*
X43523809Y-25476190D01*
X43285714Y-25952380D02*
X43285714Y-24952380D01*
X43666666Y-24952380D01*
X43761904Y-25000000D01*
X43809523Y-25047619D01*
X43857142Y-25142857D01*
X43857142Y-25285714D01*
X43809523Y-25380952D01*
X43761904Y-25428571D01*
X43666666Y-25476190D01*
X43285714Y-25476190D01*
X44809523Y-25952380D02*
X44238095Y-25952380D01*
X44523809Y-25952380D02*
X44523809Y-24952380D01*
X44428571Y-25095238D01*
X44333333Y-25190476D01*
X44238095Y-25238095D01*
X45666666Y-25285714D02*
X45666666Y-25952380D01*
X45428571Y-24904761D02*
X45190476Y-25619047D01*
X45809523Y-25619047D01*
X43857142Y-31452380D02*
X43523809Y-30976190D01*
X43285714Y-31452380D02*
X43285714Y-30452380D01*
X43666666Y-30452380D01*
X43761904Y-30500000D01*
X43809523Y-30547619D01*
X43857142Y-30642857D01*
X43857142Y-30785714D01*
X43809523Y-30880952D01*
X43761904Y-30928571D01*
X43666666Y-30976190D01*
X43285714Y-30976190D01*
X44809523Y-31452380D02*
X44238095Y-31452380D01*
X44523809Y-31452380D02*
X44523809Y-30452380D01*
X44428571Y-30595238D01*
X44333333Y-30690476D01*
X44238095Y-30738095D01*
X45142857Y-30452380D02*
X45761904Y-30452380D01*
X45428571Y-30833333D01*
X45571428Y-30833333D01*
X45666666Y-30880952D01*
X45714285Y-30928571D01*
X45761904Y-31023809D01*
X45761904Y-31261904D01*
X45714285Y-31357142D01*
X45666666Y-31404761D01*
X45571428Y-31452380D01*
X45285714Y-31452380D01*
X45190476Y-31404761D01*
X45142857Y-31357142D01*
X52452380Y-73730357D02*
X51976190Y-74063690D01*
X52452380Y-74301785D02*
X51452380Y-74301785D01*
X51452380Y-73920833D01*
X51500000Y-73825595D01*
X51547619Y-73777976D01*
X51642857Y-73730357D01*
X51785714Y-73730357D01*
X51880952Y-73777976D01*
X51928571Y-73825595D01*
X51976190Y-73920833D01*
X51976190Y-74301785D01*
X52452380Y-72777976D02*
X52452380Y-73349404D01*
X52452380Y-73063690D02*
X51452380Y-73063690D01*
X51595238Y-73158928D01*
X51690476Y-73254166D01*
X51738095Y-73349404D01*
X51547619Y-72397023D02*
X51500000Y-72349404D01*
X51452380Y-72254166D01*
X51452380Y-72016071D01*
X51500000Y-71920833D01*
X51547619Y-71873214D01*
X51642857Y-71825595D01*
X51738095Y-71825595D01*
X51880952Y-71873214D01*
X52452380Y-72444642D01*
X52452380Y-71825595D01*
X45302380Y-60555357D02*
X44826190Y-60888690D01*
X45302380Y-61126785D02*
X44302380Y-61126785D01*
X44302380Y-60745833D01*
X44350000Y-60650595D01*
X44397619Y-60602976D01*
X44492857Y-60555357D01*
X44635714Y-60555357D01*
X44730952Y-60602976D01*
X44778571Y-60650595D01*
X44826190Y-60745833D01*
X44826190Y-61126785D01*
X45302380Y-59602976D02*
X45302380Y-60174404D01*
X45302380Y-59888690D02*
X44302380Y-59888690D01*
X44445238Y-59983928D01*
X44540476Y-60079166D01*
X44588095Y-60174404D01*
X45302380Y-58650595D02*
X45302380Y-59222023D01*
X45302380Y-58936309D02*
X44302380Y-58936309D01*
X44445238Y-59031547D01*
X44540476Y-59126785D01*
X44588095Y-59222023D01*
X48802380Y-60555357D02*
X48326190Y-60888690D01*
X48802380Y-61126785D02*
X47802380Y-61126785D01*
X47802380Y-60745833D01*
X47850000Y-60650595D01*
X47897619Y-60602976D01*
X47992857Y-60555357D01*
X48135714Y-60555357D01*
X48230952Y-60602976D01*
X48278571Y-60650595D01*
X48326190Y-60745833D01*
X48326190Y-61126785D01*
X48802380Y-59602976D02*
X48802380Y-60174404D01*
X48802380Y-59888690D02*
X47802380Y-59888690D01*
X47945238Y-59983928D01*
X48040476Y-60079166D01*
X48088095Y-60174404D01*
X47802380Y-58983928D02*
X47802380Y-58888690D01*
X47850000Y-58793452D01*
X47897619Y-58745833D01*
X47992857Y-58698214D01*
X48183333Y-58650595D01*
X48421428Y-58650595D01*
X48611904Y-58698214D01*
X48707142Y-58745833D01*
X48754761Y-58793452D01*
X48802380Y-58888690D01*
X48802380Y-58983928D01*
X48754761Y-59079166D01*
X48707142Y-59126785D01*
X48611904Y-59174404D01*
X48421428Y-59222023D01*
X48183333Y-59222023D01*
X47992857Y-59174404D01*
X47897619Y-59126785D01*
X47850000Y-59079166D01*
X47802380Y-58983928D01*
X41833333Y-42952380D02*
X41500000Y-42476190D01*
X41261904Y-42952380D02*
X41261904Y-41952380D01*
X41642857Y-41952380D01*
X41738095Y-42000000D01*
X41785714Y-42047619D01*
X41833333Y-42142857D01*
X41833333Y-42285714D01*
X41785714Y-42380952D01*
X41738095Y-42428571D01*
X41642857Y-42476190D01*
X41261904Y-42476190D01*
X42309523Y-42952380D02*
X42500000Y-42952380D01*
X42595238Y-42904761D01*
X42642857Y-42857142D01*
X42738095Y-42714285D01*
X42785714Y-42523809D01*
X42785714Y-42142857D01*
X42738095Y-42047619D01*
X42690476Y-42000000D01*
X42595238Y-41952380D01*
X42404761Y-41952380D01*
X42309523Y-42000000D01*
X42261904Y-42047619D01*
X42214285Y-42142857D01*
X42214285Y-42380952D01*
X42261904Y-42476190D01*
X42309523Y-42523809D01*
X42404761Y-42571428D01*
X42595238Y-42571428D01*
X42690476Y-42523809D01*
X42738095Y-42476190D01*
X42785714Y-42380952D01*
X39452380Y-38666666D02*
X38976190Y-39000000D01*
X39452380Y-39238095D02*
X38452380Y-39238095D01*
X38452380Y-38857142D01*
X38500000Y-38761904D01*
X38547619Y-38714285D01*
X38642857Y-38666666D01*
X38785714Y-38666666D01*
X38880952Y-38714285D01*
X38928571Y-38761904D01*
X38976190Y-38857142D01*
X38976190Y-39238095D01*
X38880952Y-38095238D02*
X38833333Y-38190476D01*
X38785714Y-38238095D01*
X38690476Y-38285714D01*
X38642857Y-38285714D01*
X38547619Y-38238095D01*
X38500000Y-38190476D01*
X38452380Y-38095238D01*
X38452380Y-37904761D01*
X38500000Y-37809523D01*
X38547619Y-37761904D01*
X38642857Y-37714285D01*
X38690476Y-37714285D01*
X38785714Y-37761904D01*
X38833333Y-37809523D01*
X38880952Y-37904761D01*
X38880952Y-38095238D01*
X38928571Y-38190476D01*
X38976190Y-38238095D01*
X39071428Y-38285714D01*
X39261904Y-38285714D01*
X39357142Y-38238095D01*
X39404761Y-38190476D01*
X39452380Y-38095238D01*
X39452380Y-37904761D01*
X39404761Y-37809523D01*
X39357142Y-37761904D01*
X39261904Y-37714285D01*
X39071428Y-37714285D01*
X38976190Y-37761904D01*
X38928571Y-37809523D01*
X38880952Y-37904761D01*
X35952380Y-36666666D02*
X35476190Y-37000000D01*
X35952380Y-37238095D02*
X34952380Y-37238095D01*
X34952380Y-36857142D01*
X35000000Y-36761904D01*
X35047619Y-36714285D01*
X35142857Y-36666666D01*
X35285714Y-36666666D01*
X35380952Y-36714285D01*
X35428571Y-36761904D01*
X35476190Y-36857142D01*
X35476190Y-37238095D01*
X34952380Y-36333333D02*
X34952380Y-35666666D01*
X35952380Y-36095238D01*
X41952380Y-61579166D02*
X41476190Y-61912500D01*
X41952380Y-62150595D02*
X40952380Y-62150595D01*
X40952380Y-61769642D01*
X41000000Y-61674404D01*
X41047619Y-61626785D01*
X41142857Y-61579166D01*
X41285714Y-61579166D01*
X41380952Y-61626785D01*
X41428571Y-61674404D01*
X41476190Y-61769642D01*
X41476190Y-62150595D01*
X40952380Y-60722023D02*
X40952380Y-60912500D01*
X41000000Y-61007738D01*
X41047619Y-61055357D01*
X41190476Y-61150595D01*
X41380952Y-61198214D01*
X41761904Y-61198214D01*
X41857142Y-61150595D01*
X41904761Y-61102976D01*
X41952380Y-61007738D01*
X41952380Y-60817261D01*
X41904761Y-60722023D01*
X41857142Y-60674404D01*
X41761904Y-60626785D01*
X41523809Y-60626785D01*
X41428571Y-60674404D01*
X41380952Y-60722023D01*
X41333333Y-60817261D01*
X41333333Y-61007738D01*
X41380952Y-61102976D01*
X41428571Y-61150595D01*
X41523809Y-61198214D01*
X38452380Y-61579166D02*
X37976190Y-61912500D01*
X38452380Y-62150595D02*
X37452380Y-62150595D01*
X37452380Y-61769642D01*
X37500000Y-61674404D01*
X37547619Y-61626785D01*
X37642857Y-61579166D01*
X37785714Y-61579166D01*
X37880952Y-61626785D01*
X37928571Y-61674404D01*
X37976190Y-61769642D01*
X37976190Y-62150595D01*
X37452380Y-60674404D02*
X37452380Y-61150595D01*
X37928571Y-61198214D01*
X37880952Y-61150595D01*
X37833333Y-61055357D01*
X37833333Y-60817261D01*
X37880952Y-60722023D01*
X37928571Y-60674404D01*
X38023809Y-60626785D01*
X38261904Y-60626785D01*
X38357142Y-60674404D01*
X38404761Y-60722023D01*
X38452380Y-60817261D01*
X38452380Y-61055357D01*
X38404761Y-61150595D01*
X38357142Y-61198214D01*
X29452380Y-33166666D02*
X28976190Y-33500000D01*
X29452380Y-33738095D02*
X28452380Y-33738095D01*
X28452380Y-33357142D01*
X28500000Y-33261904D01*
X28547619Y-33214285D01*
X28642857Y-33166666D01*
X28785714Y-33166666D01*
X28880952Y-33214285D01*
X28928571Y-33261904D01*
X28976190Y-33357142D01*
X28976190Y-33738095D01*
X28785714Y-32309523D02*
X29452380Y-32309523D01*
X28404761Y-32547619D02*
X29119047Y-32785714D01*
X29119047Y-32166666D01*
X25952380Y-33166666D02*
X25476190Y-33500000D01*
X25952380Y-33738095D02*
X24952380Y-33738095D01*
X24952380Y-33357142D01*
X25000000Y-33261904D01*
X25047619Y-33214285D01*
X25142857Y-33166666D01*
X25285714Y-33166666D01*
X25380952Y-33214285D01*
X25428571Y-33261904D01*
X25476190Y-33357142D01*
X25476190Y-33738095D01*
X24952380Y-32833333D02*
X24952380Y-32214285D01*
X25333333Y-32547619D01*
X25333333Y-32404761D01*
X25380952Y-32309523D01*
X25428571Y-32261904D01*
X25523809Y-32214285D01*
X25761904Y-32214285D01*
X25857142Y-32261904D01*
X25904761Y-32309523D01*
X25952380Y-32404761D01*
X25952380Y-32690476D01*
X25904761Y-32785714D01*
X25857142Y-32833333D01*
X34952380Y-54579166D02*
X34476190Y-54912500D01*
X34952380Y-55150595D02*
X33952380Y-55150595D01*
X33952380Y-54769642D01*
X34000000Y-54674404D01*
X34047619Y-54626785D01*
X34142857Y-54579166D01*
X34285714Y-54579166D01*
X34380952Y-54626785D01*
X34428571Y-54674404D01*
X34476190Y-54769642D01*
X34476190Y-55150595D01*
X34047619Y-54198214D02*
X34000000Y-54150595D01*
X33952380Y-54055357D01*
X33952380Y-53817261D01*
X34000000Y-53722023D01*
X34047619Y-53674404D01*
X34142857Y-53626785D01*
X34238095Y-53626785D01*
X34380952Y-53674404D01*
X34952380Y-54245833D01*
X34952380Y-53626785D01*
X31452380Y-54579166D02*
X30976190Y-54912500D01*
X31452380Y-55150595D02*
X30452380Y-55150595D01*
X30452380Y-54769642D01*
X30500000Y-54674404D01*
X30547619Y-54626785D01*
X30642857Y-54579166D01*
X30785714Y-54579166D01*
X30880952Y-54626785D01*
X30928571Y-54674404D01*
X30976190Y-54769642D01*
X30976190Y-55150595D01*
X31452380Y-53626785D02*
X31452380Y-54198214D01*
X31452380Y-53912500D02*
X30452380Y-53912500D01*
X30595238Y-54007738D01*
X30690476Y-54102976D01*
X30738095Y-54198214D01*
X83904761Y-34547619D02*
X83809523Y-34500000D01*
X83714285Y-34404761D01*
X83571428Y-34261904D01*
X83476190Y-34214285D01*
X83380952Y-34214285D01*
X83428571Y-34452380D02*
X83333333Y-34404761D01*
X83238095Y-34309523D01*
X83190476Y-34119047D01*
X83190476Y-33785714D01*
X83238095Y-33595238D01*
X83333333Y-33500000D01*
X83428571Y-33452380D01*
X83619047Y-33452380D01*
X83714285Y-33500000D01*
X83809523Y-33595238D01*
X83857142Y-33785714D01*
X83857142Y-34119047D01*
X83809523Y-34309523D01*
X83714285Y-34404761D01*
X83619047Y-34452380D01*
X83428571Y-34452380D01*
X84761904Y-33452380D02*
X84285714Y-33452380D01*
X84238095Y-33928571D01*
X84285714Y-33880952D01*
X84380952Y-33833333D01*
X84619047Y-33833333D01*
X84714285Y-33880952D01*
X84761904Y-33928571D01*
X84809523Y-34023809D01*
X84809523Y-34261904D01*
X84761904Y-34357142D01*
X84714285Y-34404761D01*
X84619047Y-34452380D01*
X84380952Y-34452380D01*
X84285714Y-34404761D01*
X84238095Y-34357142D01*
X72904761Y-57047619D02*
X72809523Y-57000000D01*
X72714285Y-56904761D01*
X72571428Y-56761904D01*
X72476190Y-56714285D01*
X72380952Y-56714285D01*
X72428571Y-56952380D02*
X72333333Y-56904761D01*
X72238095Y-56809523D01*
X72190476Y-56619047D01*
X72190476Y-56285714D01*
X72238095Y-56095238D01*
X72333333Y-56000000D01*
X72428571Y-55952380D01*
X72619047Y-55952380D01*
X72714285Y-56000000D01*
X72809523Y-56095238D01*
X72857142Y-56285714D01*
X72857142Y-56619047D01*
X72809523Y-56809523D01*
X72714285Y-56904761D01*
X72619047Y-56952380D01*
X72428571Y-56952380D01*
X73714285Y-56285714D02*
X73714285Y-56952380D01*
X73476190Y-55904761D02*
X73238095Y-56619047D01*
X73857142Y-56619047D01*
X52047619Y-66095238D02*
X52000000Y-66190476D01*
X51904761Y-66285714D01*
X51761904Y-66428571D01*
X51714285Y-66523809D01*
X51714285Y-66619047D01*
X51952380Y-66571428D02*
X51904761Y-66666666D01*
X51809523Y-66761904D01*
X51619047Y-66809523D01*
X51285714Y-66809523D01*
X51095238Y-66761904D01*
X51000000Y-66666666D01*
X50952380Y-66571428D01*
X50952380Y-66380952D01*
X51000000Y-66285714D01*
X51095238Y-66190476D01*
X51285714Y-66142857D01*
X51619047Y-66142857D01*
X51809523Y-66190476D01*
X51904761Y-66285714D01*
X51952380Y-66380952D01*
X51952380Y-66571428D01*
X50952380Y-65809523D02*
X50952380Y-65190476D01*
X51333333Y-65523809D01*
X51333333Y-65380952D01*
X51380952Y-65285714D01*
X51428571Y-65238095D01*
X51523809Y-65190476D01*
X51761904Y-65190476D01*
X51857142Y-65238095D01*
X51904761Y-65285714D01*
X51952380Y-65380952D01*
X51952380Y-65666666D01*
X51904761Y-65761904D01*
X51857142Y-65809523D01*
X31404761Y-50547619D02*
X31309523Y-50500000D01*
X31214285Y-50404761D01*
X31071428Y-50261904D01*
X30976190Y-50214285D01*
X30880952Y-50214285D01*
X30928571Y-50452380D02*
X30833333Y-50404761D01*
X30738095Y-50309523D01*
X30690476Y-50119047D01*
X30690476Y-49785714D01*
X30738095Y-49595238D01*
X30833333Y-49500000D01*
X30928571Y-49452380D01*
X31119047Y-49452380D01*
X31214285Y-49500000D01*
X31309523Y-49595238D01*
X31357142Y-49785714D01*
X31357142Y-50119047D01*
X31309523Y-50309523D01*
X31214285Y-50404761D01*
X31119047Y-50452380D01*
X30928571Y-50452380D01*
X31738095Y-49547619D02*
X31785714Y-49500000D01*
X31880952Y-49452380D01*
X32119047Y-49452380D01*
X32214285Y-49500000D01*
X32261904Y-49547619D01*
X32309523Y-49642857D01*
X32309523Y-49738095D01*
X32261904Y-49880952D01*
X31690476Y-50452380D01*
X32309523Y-50452380D01*
X45047619Y-66095238D02*
X45000000Y-66190476D01*
X44904761Y-66285714D01*
X44761904Y-66428571D01*
X44714285Y-66523809D01*
X44714285Y-66619047D01*
X44952380Y-66571428D02*
X44904761Y-66666666D01*
X44809523Y-66761904D01*
X44619047Y-66809523D01*
X44285714Y-66809523D01*
X44095238Y-66761904D01*
X44000000Y-66666666D01*
X43952380Y-66571428D01*
X43952380Y-66380952D01*
X44000000Y-66285714D01*
X44095238Y-66190476D01*
X44285714Y-66142857D01*
X44619047Y-66142857D01*
X44809523Y-66190476D01*
X44904761Y-66285714D01*
X44952380Y-66380952D01*
X44952380Y-66571428D01*
X44952380Y-65190476D02*
X44952380Y-65761904D01*
X44952380Y-65476190D02*
X43952380Y-65476190D01*
X44095238Y-65571428D01*
X44190476Y-65666666D01*
X44238095Y-65761904D01*
X80190476Y-75952380D02*
X80190476Y-74952380D01*
X80523809Y-75666666D01*
X80857142Y-74952380D01*
X80857142Y-75952380D01*
X81285714Y-75047619D02*
X81333333Y-75000000D01*
X81428571Y-74952380D01*
X81666666Y-74952380D01*
X81761904Y-75000000D01*
X81809523Y-75047619D01*
X81857142Y-75142857D01*
X81857142Y-75238095D01*
X81809523Y-75380952D01*
X81238095Y-75952380D01*
X81857142Y-75952380D01*
X94690476Y-84452380D02*
X94690476Y-83452380D01*
X95023809Y-84166666D01*
X95357142Y-83452380D01*
X95357142Y-84452380D01*
X96357142Y-84452380D02*
X95785714Y-84452380D01*
X96071428Y-84452380D02*
X96071428Y-83452380D01*
X95976190Y-83595238D01*
X95880952Y-83690476D01*
X95785714Y-83738095D01*
X45666666Y-53452380D02*
X45666666Y-54166666D01*
X45619047Y-54309523D01*
X45523809Y-54404761D01*
X45380952Y-54452380D01*
X45285714Y-54452380D01*
X46571428Y-53452380D02*
X46380952Y-53452380D01*
X46285714Y-53500000D01*
X46238095Y-53547619D01*
X46142857Y-53690476D01*
X46095238Y-53880952D01*
X46095238Y-54261904D01*
X46142857Y-54357142D01*
X46190476Y-54404761D01*
X46285714Y-54452380D01*
X46476190Y-54452380D01*
X46571428Y-54404761D01*
X46619047Y-54357142D01*
X46666666Y-54261904D01*
X46666666Y-54023809D01*
X46619047Y-53928571D01*
X46571428Y-53880952D01*
X46476190Y-53833333D01*
X46285714Y-53833333D01*
X46190476Y-53880952D01*
X46142857Y-53928571D01*
X46095238Y-54023809D01*
X96952380Y-44833333D02*
X97666666Y-44833333D01*
X97809523Y-44880952D01*
X97904761Y-44976190D01*
X97952380Y-45119047D01*
X97952380Y-45214285D01*
X96952380Y-43880952D02*
X96952380Y-44357142D01*
X97428571Y-44404761D01*
X97380952Y-44357142D01*
X97333333Y-44261904D01*
X97333333Y-44023809D01*
X97380952Y-43928571D01*
X97428571Y-43880952D01*
X97523809Y-43833333D01*
X97761904Y-43833333D01*
X97857142Y-43880952D01*
X97904761Y-43928571D01*
X97952380Y-44023809D01*
X97952380Y-44261904D01*
X97904761Y-44357142D01*
X97857142Y-44404761D01*
X89952380Y-16333333D02*
X90666666Y-16333333D01*
X90809523Y-16380952D01*
X90904761Y-16476190D01*
X90952380Y-16619047D01*
X90952380Y-16714285D01*
X90285714Y-15428571D02*
X90952380Y-15428571D01*
X89904761Y-15666666D02*
X90619047Y-15904761D01*
X90619047Y-15285714D01*
X96952380Y-57833333D02*
X97666666Y-57833333D01*
X97809523Y-57880952D01*
X97904761Y-57976190D01*
X97952380Y-58119047D01*
X97952380Y-58214285D01*
X96952380Y-57452380D02*
X96952380Y-56833333D01*
X97333333Y-57166666D01*
X97333333Y-57023809D01*
X97380952Y-56928571D01*
X97428571Y-56880952D01*
X97523809Y-56833333D01*
X97761904Y-56833333D01*
X97857142Y-56880952D01*
X97904761Y-56928571D01*
X97952380Y-57023809D01*
X97952380Y-57309523D01*
X97904761Y-57404761D01*
X97857142Y-57452380D01*
X96952380Y-70833333D02*
X97666666Y-70833333D01*
X97809523Y-70880952D01*
X97904761Y-70976190D01*
X97952380Y-71119047D01*
X97952380Y-71214285D01*
X97047619Y-70404761D02*
X97000000Y-70357142D01*
X96952380Y-70261904D01*
X96952380Y-70023809D01*
X97000000Y-69928571D01*
X97047619Y-69880952D01*
X97142857Y-69833333D01*
X97238095Y-69833333D01*
X97380952Y-69880952D01*
X97952380Y-70452380D01*
X97952380Y-69833333D01*
X22666666Y-15952380D02*
X22666666Y-16666666D01*
X22619047Y-16809523D01*
X22523809Y-16904761D01*
X22380952Y-16952380D01*
X22285714Y-16952380D01*
X23666666Y-16952380D02*
X23095238Y-16952380D01*
X23380952Y-16952380D02*
X23380952Y-15952380D01*
X23285714Y-16095238D01*
X23190476Y-16190476D01*
X23095238Y-16238095D01*
X22666666Y-21428571D02*
X22333333Y-21428571D01*
X22333333Y-21952380D02*
X22333333Y-20952380D01*
X22809523Y-20952380D01*
X23714285Y-21952380D02*
X23142857Y-21952380D01*
X23428571Y-21952380D02*
X23428571Y-20952380D01*
X23333333Y-21095238D01*
X23238095Y-21190476D01*
X23142857Y-21238095D01*
X77511904Y-68952380D02*
X77511904Y-67952380D01*
X77750000Y-67952380D01*
X77892857Y-68000000D01*
X77988095Y-68095238D01*
X78035714Y-68190476D01*
X78083333Y-68380952D01*
X78083333Y-68523809D01*
X78035714Y-68714285D01*
X77988095Y-68809523D01*
X77892857Y-68904761D01*
X77750000Y-68952380D01*
X77511904Y-68952380D01*
X78559523Y-68952380D02*
X78750000Y-68952380D01*
X78845238Y-68904761D01*
X78892857Y-68857142D01*
X78988095Y-68714285D01*
X79035714Y-68523809D01*
X79035714Y-68142857D01*
X78988095Y-68047619D01*
X78940476Y-68000000D01*
X78845238Y-67952380D01*
X78654761Y-67952380D01*
X78559523Y-68000000D01*
X78511904Y-68047619D01*
X78464285Y-68142857D01*
X78464285Y-68380952D01*
X78511904Y-68476190D01*
X78559523Y-68523809D01*
X78654761Y-68571428D01*
X78845238Y-68571428D01*
X78940476Y-68523809D01*
X78988095Y-68476190D01*
X79035714Y-68380952D01*
X77511904Y-62452380D02*
X77511904Y-61452380D01*
X77750000Y-61452380D01*
X77892857Y-61500000D01*
X77988095Y-61595238D01*
X78035714Y-61690476D01*
X78083333Y-61880952D01*
X78083333Y-62023809D01*
X78035714Y-62214285D01*
X77988095Y-62309523D01*
X77892857Y-62404761D01*
X77750000Y-62452380D01*
X77511904Y-62452380D01*
X78654761Y-61880952D02*
X78559523Y-61833333D01*
X78511904Y-61785714D01*
X78464285Y-61690476D01*
X78464285Y-61642857D01*
X78511904Y-61547619D01*
X78559523Y-61500000D01*
X78654761Y-61452380D01*
X78845238Y-61452380D01*
X78940476Y-61500000D01*
X78988095Y-61547619D01*
X79035714Y-61642857D01*
X79035714Y-61690476D01*
X78988095Y-61785714D01*
X78940476Y-61833333D01*
X78845238Y-61880952D01*
X78654761Y-61880952D01*
X78559523Y-61928571D01*
X78511904Y-61976190D01*
X78464285Y-62071428D01*
X78464285Y-62261904D01*
X78511904Y-62357142D01*
X78559523Y-62404761D01*
X78654761Y-62452380D01*
X78845238Y-62452380D01*
X78940476Y-62404761D01*
X78988095Y-62357142D01*
X79035714Y-62261904D01*
X79035714Y-62071428D01*
X78988095Y-61976190D01*
X78940476Y-61928571D01*
X78845238Y-61880952D01*
X72261904Y-60452380D02*
X72261904Y-59452380D01*
X72500000Y-59452380D01*
X72642857Y-59500000D01*
X72738095Y-59595238D01*
X72785714Y-59690476D01*
X72833333Y-59880952D01*
X72833333Y-60023809D01*
X72785714Y-60214285D01*
X72738095Y-60309523D01*
X72642857Y-60404761D01*
X72500000Y-60452380D01*
X72261904Y-60452380D01*
X73166666Y-59452380D02*
X73833333Y-59452380D01*
X73404761Y-60452380D01*
X59261904Y-75452380D02*
X59261904Y-74452380D01*
X59500000Y-74452380D01*
X59642857Y-74500000D01*
X59738095Y-74595238D01*
X59785714Y-74690476D01*
X59833333Y-74880952D01*
X59833333Y-75023809D01*
X59785714Y-75214285D01*
X59738095Y-75309523D01*
X59642857Y-75404761D01*
X59500000Y-75452380D01*
X59261904Y-75452380D01*
X60690476Y-74452380D02*
X60500000Y-74452380D01*
X60404761Y-74500000D01*
X60357142Y-74547619D01*
X60261904Y-74690476D01*
X60214285Y-74880952D01*
X60214285Y-75261904D01*
X60261904Y-75357142D01*
X60309523Y-75404761D01*
X60404761Y-75452380D01*
X60595238Y-75452380D01*
X60690476Y-75404761D01*
X60738095Y-75357142D01*
X60785714Y-75261904D01*
X60785714Y-75023809D01*
X60738095Y-74928571D01*
X60690476Y-74880952D01*
X60595238Y-74833333D01*
X60404761Y-74833333D01*
X60309523Y-74880952D01*
X60261904Y-74928571D01*
X60214285Y-75023809D01*
X49261904Y-81952380D02*
X49261904Y-80952380D01*
X49500000Y-80952380D01*
X49642857Y-81000000D01*
X49738095Y-81095238D01*
X49785714Y-81190476D01*
X49833333Y-81380952D01*
X49833333Y-81523809D01*
X49785714Y-81714285D01*
X49738095Y-81809523D01*
X49642857Y-81904761D01*
X49500000Y-81952380D01*
X49261904Y-81952380D01*
X50738095Y-80952380D02*
X50261904Y-80952380D01*
X50214285Y-81428571D01*
X50261904Y-81380952D01*
X50357142Y-81333333D01*
X50595238Y-81333333D01*
X50690476Y-81380952D01*
X50738095Y-81428571D01*
X50785714Y-81523809D01*
X50785714Y-81761904D01*
X50738095Y-81857142D01*
X50690476Y-81904761D01*
X50595238Y-81952380D01*
X50357142Y-81952380D01*
X50261904Y-81904761D01*
X50214285Y-81857142D01*
X42261904Y-75452380D02*
X42261904Y-74452380D01*
X42500000Y-74452380D01*
X42642857Y-74500000D01*
X42738095Y-74595238D01*
X42785714Y-74690476D01*
X42833333Y-74880952D01*
X42833333Y-75023809D01*
X42785714Y-75214285D01*
X42738095Y-75309523D01*
X42642857Y-75404761D01*
X42500000Y-75452380D01*
X42261904Y-75452380D01*
X43690476Y-74785714D02*
X43690476Y-75452380D01*
X43452380Y-74404761D02*
X43214285Y-75119047D01*
X43833333Y-75119047D01*
X35261904Y-68452380D02*
X35261904Y-67452380D01*
X35500000Y-67452380D01*
X35642857Y-67500000D01*
X35738095Y-67595238D01*
X35785714Y-67690476D01*
X35833333Y-67880952D01*
X35833333Y-68023809D01*
X35785714Y-68214285D01*
X35738095Y-68309523D01*
X35642857Y-68404761D01*
X35500000Y-68452380D01*
X35261904Y-68452380D01*
X36166666Y-67452380D02*
X36785714Y-67452380D01*
X36452380Y-67833333D01*
X36595238Y-67833333D01*
X36690476Y-67880952D01*
X36738095Y-67928571D01*
X36785714Y-68023809D01*
X36785714Y-68261904D01*
X36738095Y-68357142D01*
X36690476Y-68404761D01*
X36595238Y-68452380D01*
X36309523Y-68452380D01*
X36214285Y-68404761D01*
X36166666Y-68357142D01*
X28261904Y-61452380D02*
X28261904Y-60452380D01*
X28500000Y-60452380D01*
X28642857Y-60500000D01*
X28738095Y-60595238D01*
X28785714Y-60690476D01*
X28833333Y-60880952D01*
X28833333Y-61023809D01*
X28785714Y-61214285D01*
X28738095Y-61309523D01*
X28642857Y-61404761D01*
X28500000Y-61452380D01*
X28261904Y-61452380D01*
X29214285Y-60547619D02*
X29261904Y-60500000D01*
X29357142Y-60452380D01*
X29595238Y-60452380D01*
X29690476Y-60500000D01*
X29738095Y-60547619D01*
X29785714Y-60642857D01*
X29785714Y-60738095D01*
X29738095Y-60880952D01*
X29166666Y-61452380D01*
X29785714Y-61452380D01*
X21261904Y-55452380D02*
X21261904Y-54452380D01*
X21500000Y-54452380D01*
X21642857Y-54500000D01*
X21738095Y-54595238D01*
X21785714Y-54690476D01*
X21833333Y-54880952D01*
X21833333Y-55023809D01*
X21785714Y-55214285D01*
X21738095Y-55309523D01*
X21642857Y-55404761D01*
X21500000Y-55452380D01*
X21261904Y-55452380D01*
X22785714Y-55452380D02*
X22214285Y-55452380D01*
X22500000Y-55452380D02*
X22500000Y-54452380D01*
X22404761Y-54595238D01*
X22309523Y-54690476D01*
X22214285Y-54738095D01*
X86833333Y-70357142D02*
X86785714Y-70404761D01*
X86642857Y-70452380D01*
X86547619Y-70452380D01*
X86404761Y-70404761D01*
X86309523Y-70309523D01*
X86261904Y-70214285D01*
X86214285Y-70023809D01*
X86214285Y-69880952D01*
X86261904Y-69690476D01*
X86309523Y-69595238D01*
X86404761Y-69500000D01*
X86547619Y-69452380D01*
X86642857Y-69452380D01*
X86785714Y-69500000D01*
X86833333Y-69547619D01*
X87404761Y-69880952D02*
X87309523Y-69833333D01*
X87261904Y-69785714D01*
X87214285Y-69690476D01*
X87214285Y-69642857D01*
X87261904Y-69547619D01*
X87309523Y-69500000D01*
X87404761Y-69452380D01*
X87595238Y-69452380D01*
X87690476Y-69500000D01*
X87738095Y-69547619D01*
X87785714Y-69642857D01*
X87785714Y-69690476D01*
X87738095Y-69785714D01*
X87690476Y-69833333D01*
X87595238Y-69880952D01*
X87404761Y-69880952D01*
X87309523Y-69928571D01*
X87261904Y-69976190D01*
X87214285Y-70071428D01*
X87214285Y-70261904D01*
X87261904Y-70357142D01*
X87309523Y-70404761D01*
X87404761Y-70452380D01*
X87595238Y-70452380D01*
X87690476Y-70404761D01*
X87738095Y-70357142D01*
X87785714Y-70261904D01*
X87785714Y-70071428D01*
X87738095Y-69976190D01*
X87690476Y-69928571D01*
X87595238Y-69880952D01*
X67833333Y-57857142D02*
X67785714Y-57904761D01*
X67642857Y-57952380D01*
X67547619Y-57952380D01*
X67404761Y-57904761D01*
X67309523Y-57809523D01*
X67261904Y-57714285D01*
X67214285Y-57523809D01*
X67214285Y-57380952D01*
X67261904Y-57190476D01*
X67309523Y-57095238D01*
X67404761Y-57000000D01*
X67547619Y-56952380D01*
X67642857Y-56952380D01*
X67785714Y-57000000D01*
X67833333Y-57047619D01*
X68166666Y-56952380D02*
X68833333Y-56952380D01*
X68404761Y-57952380D01*
X59383333Y-60857142D02*
X59335714Y-60904761D01*
X59192857Y-60952380D01*
X59097619Y-60952380D01*
X58954761Y-60904761D01*
X58859523Y-60809523D01*
X58811904Y-60714285D01*
X58764285Y-60523809D01*
X58764285Y-60380952D01*
X58811904Y-60190476D01*
X58859523Y-60095238D01*
X58954761Y-60000000D01*
X59097619Y-59952380D01*
X59192857Y-59952380D01*
X59335714Y-60000000D01*
X59383333Y-60047619D01*
X60240476Y-59952380D02*
X60050000Y-59952380D01*
X59954761Y-60000000D01*
X59907142Y-60047619D01*
X59811904Y-60190476D01*
X59764285Y-60380952D01*
X59764285Y-60761904D01*
X59811904Y-60857142D01*
X59859523Y-60904761D01*
X59954761Y-60952380D01*
X60145238Y-60952380D01*
X60240476Y-60904761D01*
X60288095Y-60857142D01*
X60335714Y-60761904D01*
X60335714Y-60523809D01*
X60288095Y-60428571D01*
X60240476Y-60380952D01*
X60145238Y-60333333D01*
X59954761Y-60333333D01*
X59859523Y-60380952D01*
X59811904Y-60428571D01*
X59764285Y-60523809D01*
X36357142Y-32166666D02*
X36404761Y-32214285D01*
X36452380Y-32357142D01*
X36452380Y-32452380D01*
X36404761Y-32595238D01*
X36309523Y-32690476D01*
X36214285Y-32738095D01*
X36023809Y-32785714D01*
X35880952Y-32785714D01*
X35690476Y-32738095D01*
X35595238Y-32690476D01*
X35500000Y-32595238D01*
X35452380Y-32452380D01*
X35452380Y-32357142D01*
X35500000Y-32214285D01*
X35547619Y-32166666D01*
X35452380Y-31261904D02*
X35452380Y-31738095D01*
X35928571Y-31785714D01*
X35880952Y-31738095D01*
X35833333Y-31642857D01*
X35833333Y-31404761D01*
X35880952Y-31309523D01*
X35928571Y-31261904D01*
X36023809Y-31214285D01*
X36261904Y-31214285D01*
X36357142Y-31261904D01*
X36404761Y-31309523D01*
X36452380Y-31404761D01*
X36452380Y-31642857D01*
X36404761Y-31738095D01*
X36357142Y-31785714D01*
X90857142Y-38066666D02*
X90904761Y-38114285D01*
X90952380Y-38257142D01*
X90952380Y-38352380D01*
X90904761Y-38495238D01*
X90809523Y-38590476D01*
X90714285Y-38638095D01*
X90523809Y-38685714D01*
X90380952Y-38685714D01*
X90190476Y-38638095D01*
X90095238Y-38590476D01*
X90000000Y-38495238D01*
X89952380Y-38352380D01*
X89952380Y-38257142D01*
X90000000Y-38114285D01*
X90047619Y-38066666D01*
X90285714Y-37209523D02*
X90952380Y-37209523D01*
X89904761Y-37447619D02*
X90619047Y-37685714D01*
X90619047Y-37066666D01*
X35333333Y-34857142D02*
X35285714Y-34904761D01*
X35142857Y-34952380D01*
X35047619Y-34952380D01*
X34904761Y-34904761D01*
X34809523Y-34809523D01*
X34761904Y-34714285D01*
X34714285Y-34523809D01*
X34714285Y-34380952D01*
X34761904Y-34190476D01*
X34809523Y-34095238D01*
X34904761Y-34000000D01*
X35047619Y-33952380D01*
X35142857Y-33952380D01*
X35285714Y-34000000D01*
X35333333Y-34047619D01*
X35666666Y-33952380D02*
X36285714Y-33952380D01*
X35952380Y-34333333D01*
X36095238Y-34333333D01*
X36190476Y-34380952D01*
X36238095Y-34428571D01*
X36285714Y-34523809D01*
X36285714Y-34761904D01*
X36238095Y-34857142D01*
X36190476Y-34904761D01*
X36095238Y-34952380D01*
X35809523Y-34952380D01*
X35714285Y-34904761D01*
X35666666Y-34857142D01*
X31357142Y-33166666D02*
X31404761Y-33214285D01*
X31452380Y-33357142D01*
X31452380Y-33452380D01*
X31404761Y-33595238D01*
X31309523Y-33690476D01*
X31214285Y-33738095D01*
X31023809Y-33785714D01*
X30880952Y-33785714D01*
X30690476Y-33738095D01*
X30595238Y-33690476D01*
X30500000Y-33595238D01*
X30452380Y-33452380D01*
X30452380Y-33357142D01*
X30500000Y-33214285D01*
X30547619Y-33166666D01*
X30547619Y-32785714D02*
X30500000Y-32738095D01*
X30452380Y-32642857D01*
X30452380Y-32404761D01*
X30500000Y-32309523D01*
X30547619Y-32261904D01*
X30642857Y-32214285D01*
X30738095Y-32214285D01*
X30880952Y-32261904D01*
X31452380Y-32833333D01*
X31452380Y-32214285D01*
X99833333Y-24357142D02*
X99785714Y-24404761D01*
X99642857Y-24452380D01*
X99547619Y-24452380D01*
X99404761Y-24404761D01*
X99309523Y-24309523D01*
X99261904Y-24214285D01*
X99214285Y-24023809D01*
X99214285Y-23880952D01*
X99261904Y-23690476D01*
X99309523Y-23595238D01*
X99404761Y-23500000D01*
X99547619Y-23452380D01*
X99642857Y-23452380D01*
X99785714Y-23500000D01*
X99833333Y-23547619D01*
X100785714Y-24452380D02*
X100214285Y-24452380D01*
X100500000Y-24452380D02*
X100500000Y-23452380D01*
X100404761Y-23595238D01*
X100309523Y-23690476D01*
X100214285Y-23738095D01*
%LPC*%
D12*
X85000000Y-53250000D03*
X85000000Y-59750000D03*
G36*
G01*
X83950000Y-72975000D02*
X83950000Y-72025000D01*
G75*
G02*
X84200000Y-71775000I250000J0D01*
G01*
X84700000Y-71775000D01*
G75*
G02*
X84950000Y-72025000I0J-250000D01*
G01*
X84950000Y-72975000D01*
G75*
G02*
X84700000Y-73225000I-250000J0D01*
G01*
X84200000Y-73225000D01*
G75*
G02*
X83950000Y-72975000I0J250000D01*
G01*
G37*
G36*
G01*
X82050000Y-72975000D02*
X82050000Y-72025000D01*
G75*
G02*
X82300000Y-71775000I250000J0D01*
G01*
X82800000Y-71775000D01*
G75*
G02*
X83050000Y-72025000I0J-250000D01*
G01*
X83050000Y-72975000D01*
G75*
G02*
X82800000Y-73225000I-250000J0D01*
G01*
X82300000Y-73225000D01*
G75*
G02*
X82050000Y-72975000I0J250000D01*
G01*
G37*
D13*
X80280000Y-20880000D03*
X77740000Y-20880000D03*
X75200000Y-20880000D03*
X72660000Y-20880000D03*
X70120000Y-20880000D03*
X67580000Y-20880000D03*
X65040000Y-20880000D03*
X62500000Y-20880000D03*
X59960000Y-20880000D03*
X57420000Y-20880000D03*
X54880000Y-20880000D03*
X52340000Y-20880000D03*
X49800000Y-20880000D03*
X47260000Y-20880000D03*
X47260000Y-36120000D03*
X49800000Y-36120000D03*
X52340000Y-36120000D03*
X54880000Y-36120000D03*
X57420000Y-36120000D03*
X59960000Y-36120000D03*
X62500000Y-36120000D03*
X65040000Y-36120000D03*
X67580000Y-36120000D03*
X70120000Y-36120000D03*
X72660000Y-36120000D03*
X75200000Y-36120000D03*
X77740000Y-36120000D03*
X80280000Y-36120000D03*
D14*
X59500000Y-44500000D03*
G36*
G01*
X58750000Y-41150000D02*
X60250000Y-41150000D01*
G75*
G02*
X60500000Y-41400000I0J-250000D01*
G01*
X60500000Y-42600000D01*
G75*
G02*
X60250000Y-42850000I-250000J0D01*
G01*
X58750000Y-42850000D01*
G75*
G02*
X58500000Y-42600000I0J250000D01*
G01*
X58500000Y-41400000D01*
G75*
G02*
X58750000Y-41150000I250000J0D01*
G01*
G37*
D15*
X66500000Y-47000000D03*
X66500000Y-44500000D03*
G36*
G01*
X65775000Y-41150000D02*
X67225000Y-41150000D01*
G75*
G02*
X67475000Y-41400000I0J-250000D01*
G01*
X67475000Y-42600000D01*
G75*
G02*
X67225000Y-42850000I-250000J0D01*
G01*
X65775000Y-42850000D01*
G75*
G02*
X65525000Y-42600000I0J250000D01*
G01*
X65525000Y-41400000D01*
G75*
G02*
X65775000Y-41150000I250000J0D01*
G01*
G37*
X73500000Y-47000000D03*
X73500000Y-44500000D03*
G36*
G01*
X72775000Y-41150000D02*
X74225000Y-41150000D01*
G75*
G02*
X74475000Y-41400000I0J-250000D01*
G01*
X74475000Y-42600000D01*
G75*
G02*
X74225000Y-42850000I-250000J0D01*
G01*
X72775000Y-42850000D01*
G75*
G02*
X72525000Y-42600000I0J250000D01*
G01*
X72525000Y-41400000D01*
G75*
G02*
X72775000Y-41150000I250000J0D01*
G01*
G37*
X80500000Y-47000000D03*
X80500000Y-44500000D03*
G36*
G01*
X79775000Y-41150000D02*
X81225000Y-41150000D01*
G75*
G02*
X81475000Y-41400000I0J-250000D01*
G01*
X81475000Y-42600000D01*
G75*
G02*
X81225000Y-42850000I-250000J0D01*
G01*
X79775000Y-42850000D01*
G75*
G02*
X79525000Y-42600000I0J250000D01*
G01*
X79525000Y-41400000D01*
G75*
G02*
X79775000Y-41150000I250000J0D01*
G01*
G37*
D16*
X40500000Y-31700000D03*
X40000000Y-31700000D03*
X39500000Y-31700000D03*
X39000000Y-31700000D03*
X38500000Y-31700000D03*
X38500000Y-27300000D03*
X39000000Y-27300000D03*
X39500000Y-27300000D03*
X40000000Y-27300000D03*
X40500000Y-27300000D03*
D17*
X42500000Y-55000000D03*
D18*
X88750000Y-72750000D03*
X90750000Y-71800000D03*
X90750000Y-73700000D03*
G36*
G01*
X103295000Y-35125000D02*
X103595000Y-35125000D01*
G75*
G02*
X103745000Y-35275000I0J-150000D01*
G01*
X103745000Y-37025000D01*
G75*
G02*
X103595000Y-37175000I-150000J0D01*
G01*
X103295000Y-37175000D01*
G75*
G02*
X103145000Y-37025000I0J150000D01*
G01*
X103145000Y-35275000D01*
G75*
G02*
X103295000Y-35125000I150000J0D01*
G01*
G37*
G36*
G01*
X102025000Y-35125000D02*
X102325000Y-35125000D01*
G75*
G02*
X102475000Y-35275000I0J-150000D01*
G01*
X102475000Y-37025000D01*
G75*
G02*
X102325000Y-37175000I-150000J0D01*
G01*
X102025000Y-37175000D01*
G75*
G02*
X101875000Y-37025000I0J150000D01*
G01*
X101875000Y-35275000D01*
G75*
G02*
X102025000Y-35125000I150000J0D01*
G01*
G37*
G36*
G01*
X100755000Y-35125000D02*
X101055000Y-35125000D01*
G75*
G02*
X101205000Y-35275000I0J-150000D01*
G01*
X101205000Y-37025000D01*
G75*
G02*
X101055000Y-37175000I-150000J0D01*
G01*
X100755000Y-37175000D01*
G75*
G02*
X100605000Y-37025000I0J150000D01*
G01*
X100605000Y-35275000D01*
G75*
G02*
X100755000Y-35125000I150000J0D01*
G01*
G37*
G36*
G01*
X99485000Y-35125000D02*
X99785000Y-35125000D01*
G75*
G02*
X99935000Y-35275000I0J-150000D01*
G01*
X99935000Y-37025000D01*
G75*
G02*
X99785000Y-37175000I-150000J0D01*
G01*
X99485000Y-37175000D01*
G75*
G02*
X99335000Y-37025000I0J150000D01*
G01*
X99335000Y-35275000D01*
G75*
G02*
X99485000Y-35125000I150000J0D01*
G01*
G37*
G36*
G01*
X98215000Y-35125000D02*
X98515000Y-35125000D01*
G75*
G02*
X98665000Y-35275000I0J-150000D01*
G01*
X98665000Y-37025000D01*
G75*
G02*
X98515000Y-37175000I-150000J0D01*
G01*
X98215000Y-37175000D01*
G75*
G02*
X98065000Y-37025000I0J150000D01*
G01*
X98065000Y-35275000D01*
G75*
G02*
X98215000Y-35125000I150000J0D01*
G01*
G37*
G36*
G01*
X96945000Y-35125000D02*
X97245000Y-35125000D01*
G75*
G02*
X97395000Y-35275000I0J-150000D01*
G01*
X97395000Y-37025000D01*
G75*
G02*
X97245000Y-37175000I-150000J0D01*
G01*
X96945000Y-37175000D01*
G75*
G02*
X96795000Y-37025000I0J150000D01*
G01*
X96795000Y-35275000D01*
G75*
G02*
X96945000Y-35125000I150000J0D01*
G01*
G37*
G36*
G01*
X95675000Y-35125000D02*
X95975000Y-35125000D01*
G75*
G02*
X96125000Y-35275000I0J-150000D01*
G01*
X96125000Y-37025000D01*
G75*
G02*
X95975000Y-37175000I-150000J0D01*
G01*
X95675000Y-37175000D01*
G75*
G02*
X95525000Y-37025000I0J150000D01*
G01*
X95525000Y-35275000D01*
G75*
G02*
X95675000Y-35125000I150000J0D01*
G01*
G37*
G36*
G01*
X94405000Y-35125000D02*
X94705000Y-35125000D01*
G75*
G02*
X94855000Y-35275000I0J-150000D01*
G01*
X94855000Y-37025000D01*
G75*
G02*
X94705000Y-37175000I-150000J0D01*
G01*
X94405000Y-37175000D01*
G75*
G02*
X94255000Y-37025000I0J150000D01*
G01*
X94255000Y-35275000D01*
G75*
G02*
X94405000Y-35125000I150000J0D01*
G01*
G37*
G36*
G01*
X94405000Y-25825000D02*
X94705000Y-25825000D01*
G75*
G02*
X94855000Y-25975000I0J-150000D01*
G01*
X94855000Y-27725000D01*
G75*
G02*
X94705000Y-27875000I-150000J0D01*
G01*
X94405000Y-27875000D01*
G75*
G02*
X94255000Y-27725000I0J150000D01*
G01*
X94255000Y-25975000D01*
G75*
G02*
X94405000Y-25825000I150000J0D01*
G01*
G37*
G36*
G01*
X95675000Y-25825000D02*
X95975000Y-25825000D01*
G75*
G02*
X96125000Y-25975000I0J-150000D01*
G01*
X96125000Y-27725000D01*
G75*
G02*
X95975000Y-27875000I-150000J0D01*
G01*
X95675000Y-27875000D01*
G75*
G02*
X95525000Y-27725000I0J150000D01*
G01*
X95525000Y-25975000D01*
G75*
G02*
X95675000Y-25825000I150000J0D01*
G01*
G37*
G36*
G01*
X96945000Y-25825000D02*
X97245000Y-25825000D01*
G75*
G02*
X97395000Y-25975000I0J-150000D01*
G01*
X97395000Y-27725000D01*
G75*
G02*
X97245000Y-27875000I-150000J0D01*
G01*
X96945000Y-27875000D01*
G75*
G02*
X96795000Y-27725000I0J150000D01*
G01*
X96795000Y-25975000D01*
G75*
G02*
X96945000Y-25825000I150000J0D01*
G01*
G37*
G36*
G01*
X98215000Y-25825000D02*
X98515000Y-25825000D01*
G75*
G02*
X98665000Y-25975000I0J-150000D01*
G01*
X98665000Y-27725000D01*
G75*
G02*
X98515000Y-27875000I-150000J0D01*
G01*
X98215000Y-27875000D01*
G75*
G02*
X98065000Y-27725000I0J150000D01*
G01*
X98065000Y-25975000D01*
G75*
G02*
X98215000Y-25825000I150000J0D01*
G01*
G37*
G36*
G01*
X99485000Y-25825000D02*
X99785000Y-25825000D01*
G75*
G02*
X99935000Y-25975000I0J-150000D01*
G01*
X99935000Y-27725000D01*
G75*
G02*
X99785000Y-27875000I-150000J0D01*
G01*
X99485000Y-27875000D01*
G75*
G02*
X99335000Y-27725000I0J150000D01*
G01*
X99335000Y-25975000D01*
G75*
G02*
X99485000Y-25825000I150000J0D01*
G01*
G37*
G36*
G01*
X100755000Y-25825000D02*
X101055000Y-25825000D01*
G75*
G02*
X101205000Y-25975000I0J-150000D01*
G01*
X101205000Y-27725000D01*
G75*
G02*
X101055000Y-27875000I-150000J0D01*
G01*
X100755000Y-27875000D01*
G75*
G02*
X100605000Y-27725000I0J150000D01*
G01*
X100605000Y-25975000D01*
G75*
G02*
X100755000Y-25825000I150000J0D01*
G01*
G37*
G36*
G01*
X102025000Y-25825000D02*
X102325000Y-25825000D01*
G75*
G02*
X102475000Y-25975000I0J-150000D01*
G01*
X102475000Y-27725000D01*
G75*
G02*
X102325000Y-27875000I-150000J0D01*
G01*
X102025000Y-27875000D01*
G75*
G02*
X101875000Y-27725000I0J150000D01*
G01*
X101875000Y-25975000D01*
G75*
G02*
X102025000Y-25825000I150000J0D01*
G01*
G37*
G36*
G01*
X103295000Y-25825000D02*
X103595000Y-25825000D01*
G75*
G02*
X103745000Y-25975000I0J-150000D01*
G01*
X103745000Y-27725000D01*
G75*
G02*
X103595000Y-27875000I-150000J0D01*
G01*
X103295000Y-27875000D01*
G75*
G02*
X103145000Y-27725000I0J150000D01*
G01*
X103145000Y-25975000D01*
G75*
G02*
X103295000Y-25825000I150000J0D01*
G01*
G37*
D19*
X75000000Y-80500000D03*
X70000000Y-80500000D03*
D17*
X101000000Y-81000000D03*
X19000000Y-19000000D03*
X87000000Y-19000000D03*
D20*
X67040000Y-65500000D03*
X64500000Y-65500000D03*
X61960000Y-65500000D03*
D18*
X87500000Y-47500000D03*
X85500000Y-48450000D03*
X85500000Y-46550000D03*
G36*
G01*
X50049998Y-41487500D02*
X50950002Y-41487500D01*
G75*
G02*
X51200000Y-41737498I0J-249998D01*
G01*
X51200000Y-42262502D01*
G75*
G02*
X50950002Y-42512500I-249998J0D01*
G01*
X50049998Y-42512500D01*
G75*
G02*
X49800000Y-42262502I0J249998D01*
G01*
X49800000Y-41737498D01*
G75*
G02*
X50049998Y-41487500I249998J0D01*
G01*
G37*
G36*
G01*
X50049998Y-39662500D02*
X50950002Y-39662500D01*
G75*
G02*
X51200000Y-39912498I0J-249998D01*
G01*
X51200000Y-40437502D01*
G75*
G02*
X50950002Y-40687500I-249998J0D01*
G01*
X50049998Y-40687500D01*
G75*
G02*
X49800000Y-40437502I0J249998D01*
G01*
X49800000Y-39912498D01*
G75*
G02*
X50049998Y-39662500I249998J0D01*
G01*
G37*
D21*
X42000000Y-18500000D03*
G36*
G01*
X38650000Y-19250000D02*
X38650000Y-17750000D01*
G75*
G02*
X38900000Y-17500000I250000J0D01*
G01*
X40100000Y-17500000D01*
G75*
G02*
X40350000Y-17750000I0J-250000D01*
G01*
X40350000Y-19250000D01*
G75*
G02*
X40100000Y-19500000I-250000J0D01*
G01*
X38900000Y-19500000D01*
G75*
G02*
X38650000Y-19250000I0J250000D01*
G01*
G37*
D22*
X75000000Y-65500000D03*
X72500000Y-70500000D03*
G36*
G01*
X50950002Y-44512500D02*
X50049998Y-44512500D01*
G75*
G02*
X49800000Y-44262502I0J249998D01*
G01*
X49800000Y-43737498D01*
G75*
G02*
X50049998Y-43487500I249998J0D01*
G01*
X50950002Y-43487500D01*
G75*
G02*
X51200000Y-43737498I0J-249998D01*
G01*
X51200000Y-44262502D01*
G75*
G02*
X50950002Y-44512500I-249998J0D01*
G01*
G37*
G36*
G01*
X50950002Y-46337500D02*
X50049998Y-46337500D01*
G75*
G02*
X49800000Y-46087502I0J249998D01*
G01*
X49800000Y-45562498D01*
G75*
G02*
X50049998Y-45312500I249998J0D01*
G01*
X50950002Y-45312500D01*
G75*
G02*
X51200000Y-45562498I0J-249998D01*
G01*
X51200000Y-46087502D01*
G75*
G02*
X50950002Y-46337500I-249998J0D01*
G01*
G37*
G36*
G01*
X90062500Y-68700002D02*
X90062500Y-67799998D01*
G75*
G02*
X90312498Y-67550000I249998J0D01*
G01*
X90837502Y-67550000D01*
G75*
G02*
X91087500Y-67799998I0J-249998D01*
G01*
X91087500Y-68700002D01*
G75*
G02*
X90837502Y-68950000I-249998J0D01*
G01*
X90312498Y-68950000D01*
G75*
G02*
X90062500Y-68700002I0J249998D01*
G01*
G37*
G36*
G01*
X88237500Y-68700002D02*
X88237500Y-67799998D01*
G75*
G02*
X88487498Y-67550000I249998J0D01*
G01*
X89012502Y-67550000D01*
G75*
G02*
X89262500Y-67799998I0J-249998D01*
G01*
X89262500Y-68700002D01*
G75*
G02*
X89012502Y-68950000I-249998J0D01*
G01*
X88487498Y-68950000D01*
G75*
G02*
X88237500Y-68700002I0J249998D01*
G01*
G37*
G36*
G01*
X90150000Y-65200002D02*
X90150000Y-64299998D01*
G75*
G02*
X90399998Y-64050000I249998J0D01*
G01*
X90925002Y-64050000D01*
G75*
G02*
X91175000Y-64299998I0J-249998D01*
G01*
X91175000Y-65200002D01*
G75*
G02*
X90925002Y-65450000I-249998J0D01*
G01*
X90399998Y-65450000D01*
G75*
G02*
X90150000Y-65200002I0J249998D01*
G01*
G37*
G36*
G01*
X88325000Y-65200002D02*
X88325000Y-64299998D01*
G75*
G02*
X88574998Y-64050000I249998J0D01*
G01*
X89100002Y-64050000D01*
G75*
G02*
X89350000Y-64299998I0J-249998D01*
G01*
X89350000Y-65200002D01*
G75*
G02*
X89100002Y-65450000I-249998J0D01*
G01*
X88574998Y-65450000D01*
G75*
G02*
X88325000Y-65200002I0J249998D01*
G01*
G37*
G36*
G01*
X53950002Y-40687500D02*
X53049998Y-40687500D01*
G75*
G02*
X52800000Y-40437502I0J249998D01*
G01*
X52800000Y-39912498D01*
G75*
G02*
X53049998Y-39662500I249998J0D01*
G01*
X53950002Y-39662500D01*
G75*
G02*
X54200000Y-39912498I0J-249998D01*
G01*
X54200000Y-40437502D01*
G75*
G02*
X53950002Y-40687500I-249998J0D01*
G01*
G37*
G36*
G01*
X53950002Y-42512500D02*
X53049998Y-42512500D01*
G75*
G02*
X52800000Y-42262502I0J249998D01*
G01*
X52800000Y-41737498D01*
G75*
G02*
X53049998Y-41487500I249998J0D01*
G01*
X53950002Y-41487500D01*
G75*
G02*
X54200000Y-41737498I0J-249998D01*
G01*
X54200000Y-42262502D01*
G75*
G02*
X53950002Y-42512500I-249998J0D01*
G01*
G37*
G36*
G01*
X66049998Y-30987500D02*
X66950002Y-30987500D01*
G75*
G02*
X67200000Y-31237498I0J-249998D01*
G01*
X67200000Y-31762502D01*
G75*
G02*
X66950002Y-32012500I-249998J0D01*
G01*
X66049998Y-32012500D01*
G75*
G02*
X65800000Y-31762502I0J249998D01*
G01*
X65800000Y-31237498D01*
G75*
G02*
X66049998Y-30987500I249998J0D01*
G01*
G37*
G36*
G01*
X66049998Y-29162500D02*
X66950002Y-29162500D01*
G75*
G02*
X67200000Y-29412498I0J-249998D01*
G01*
X67200000Y-29937502D01*
G75*
G02*
X66950002Y-30187500I-249998J0D01*
G01*
X66049998Y-30187500D01*
G75*
G02*
X65800000Y-29937502I0J249998D01*
G01*
X65800000Y-29412498D01*
G75*
G02*
X66049998Y-29162500I249998J0D01*
G01*
G37*
G36*
G01*
X69049998Y-30987500D02*
X69950002Y-30987500D01*
G75*
G02*
X70200000Y-31237498I0J-249998D01*
G01*
X70200000Y-31762502D01*
G75*
G02*
X69950002Y-32012500I-249998J0D01*
G01*
X69049998Y-32012500D01*
G75*
G02*
X68800000Y-31762502I0J249998D01*
G01*
X68800000Y-31237498D01*
G75*
G02*
X69049998Y-30987500I249998J0D01*
G01*
G37*
G36*
G01*
X69049998Y-29162500D02*
X69950002Y-29162500D01*
G75*
G02*
X70200000Y-29412498I0J-249998D01*
G01*
X70200000Y-29937502D01*
G75*
G02*
X69950002Y-30187500I-249998J0D01*
G01*
X69049998Y-30187500D01*
G75*
G02*
X68800000Y-29937502I0J249998D01*
G01*
X68800000Y-29412498D01*
G75*
G02*
X69049998Y-29162500I249998J0D01*
G01*
G37*
G36*
G01*
X72049998Y-30987500D02*
X72950002Y-30987500D01*
G75*
G02*
X73200000Y-31237498I0J-249998D01*
G01*
X73200000Y-31762502D01*
G75*
G02*
X72950002Y-32012500I-249998J0D01*
G01*
X72049998Y-32012500D01*
G75*
G02*
X71800000Y-31762502I0J249998D01*
G01*
X71800000Y-31237498D01*
G75*
G02*
X72049998Y-30987500I249998J0D01*
G01*
G37*
G36*
G01*
X72049998Y-29162500D02*
X72950002Y-29162500D01*
G75*
G02*
X73200000Y-29412498I0J-249998D01*
G01*
X73200000Y-29937502D01*
G75*
G02*
X72950002Y-30187500I-249998J0D01*
G01*
X72049998Y-30187500D01*
G75*
G02*
X71800000Y-29937502I0J249998D01*
G01*
X71800000Y-29412498D01*
G75*
G02*
X72049998Y-29162500I249998J0D01*
G01*
G37*
G36*
G01*
X86987500Y-40950002D02*
X86987500Y-40049998D01*
G75*
G02*
X87237498Y-39800000I249998J0D01*
G01*
X87762502Y-39800000D01*
G75*
G02*
X88012500Y-40049998I0J-249998D01*
G01*
X88012500Y-40950002D01*
G75*
G02*
X87762502Y-41200000I-249998J0D01*
G01*
X87237498Y-41200000D01*
G75*
G02*
X86987500Y-40950002I0J249998D01*
G01*
G37*
G36*
G01*
X85162500Y-40950002D02*
X85162500Y-40049998D01*
G75*
G02*
X85412498Y-39800000I249998J0D01*
G01*
X85937502Y-39800000D01*
G75*
G02*
X86187500Y-40049998I0J-249998D01*
G01*
X86187500Y-40950002D01*
G75*
G02*
X85937502Y-41200000I-249998J0D01*
G01*
X85412498Y-41200000D01*
G75*
G02*
X85162500Y-40950002I0J249998D01*
G01*
G37*
G36*
G01*
X86900000Y-44450002D02*
X86900000Y-43549998D01*
G75*
G02*
X87149998Y-43300000I249998J0D01*
G01*
X87675002Y-43300000D01*
G75*
G02*
X87925000Y-43549998I0J-249998D01*
G01*
X87925000Y-44450002D01*
G75*
G02*
X87675002Y-44700000I-249998J0D01*
G01*
X87149998Y-44700000D01*
G75*
G02*
X86900000Y-44450002I0J249998D01*
G01*
G37*
G36*
G01*
X85075000Y-44450002D02*
X85075000Y-43549998D01*
G75*
G02*
X85324998Y-43300000I249998J0D01*
G01*
X85850002Y-43300000D01*
G75*
G02*
X86100000Y-43549998I0J-249998D01*
G01*
X86100000Y-44450002D01*
G75*
G02*
X85850002Y-44700000I-249998J0D01*
G01*
X85324998Y-44700000D01*
G75*
G02*
X85075000Y-44450002I0J249998D01*
G01*
G37*
G36*
G01*
X75687500Y-53049998D02*
X75687500Y-53950002D01*
G75*
G02*
X75437502Y-54200000I-249998J0D01*
G01*
X74912498Y-54200000D01*
G75*
G02*
X74662500Y-53950002I0J249998D01*
G01*
X74662500Y-53049998D01*
G75*
G02*
X74912498Y-52800000I249998J0D01*
G01*
X75437502Y-52800000D01*
G75*
G02*
X75687500Y-53049998I0J-249998D01*
G01*
G37*
G36*
G01*
X77512500Y-53049998D02*
X77512500Y-53950002D01*
G75*
G02*
X77262502Y-54200000I-249998J0D01*
G01*
X76737498Y-54200000D01*
G75*
G02*
X76487500Y-53950002I0J249998D01*
G01*
X76487500Y-53049998D01*
G75*
G02*
X76737498Y-52800000I249998J0D01*
G01*
X77262502Y-52800000D01*
G75*
G02*
X77512500Y-53049998I0J-249998D01*
G01*
G37*
G36*
G01*
X76487500Y-51450002D02*
X76487500Y-50549998D01*
G75*
G02*
X76737498Y-50300000I249998J0D01*
G01*
X77262502Y-50300000D01*
G75*
G02*
X77512500Y-50549998I0J-249998D01*
G01*
X77512500Y-51450002D01*
G75*
G02*
X77262502Y-51700000I-249998J0D01*
G01*
X76737498Y-51700000D01*
G75*
G02*
X76487500Y-51450002I0J249998D01*
G01*
G37*
G36*
G01*
X74662500Y-51450002D02*
X74662500Y-50549998D01*
G75*
G02*
X74912498Y-50300000I249998J0D01*
G01*
X75437502Y-50300000D01*
G75*
G02*
X75687500Y-50549998I0J-249998D01*
G01*
X75687500Y-51450002D01*
G75*
G02*
X75437502Y-51700000I-249998J0D01*
G01*
X74912498Y-51700000D01*
G75*
G02*
X74662500Y-51450002I0J249998D01*
G01*
G37*
G36*
G01*
X53950002Y-59512500D02*
X53049998Y-59512500D01*
G75*
G02*
X52800000Y-59262502I0J249998D01*
G01*
X52800000Y-58737498D01*
G75*
G02*
X53049998Y-58487500I249998J0D01*
G01*
X53950002Y-58487500D01*
G75*
G02*
X54200000Y-58737498I0J-249998D01*
G01*
X54200000Y-59262502D01*
G75*
G02*
X53950002Y-59512500I-249998J0D01*
G01*
G37*
G36*
G01*
X53950002Y-61337500D02*
X53049998Y-61337500D01*
G75*
G02*
X52800000Y-61087502I0J249998D01*
G01*
X52800000Y-60562498D01*
G75*
G02*
X53049998Y-60312500I249998J0D01*
G01*
X53950002Y-60312500D01*
G75*
G02*
X54200000Y-60562498I0J-249998D01*
G01*
X54200000Y-61087502D01*
G75*
G02*
X53950002Y-61337500I-249998J0D01*
G01*
G37*
G36*
G01*
X57450002Y-59512500D02*
X56549998Y-59512500D01*
G75*
G02*
X56300000Y-59262502I0J249998D01*
G01*
X56300000Y-58737498D01*
G75*
G02*
X56549998Y-58487500I249998J0D01*
G01*
X57450002Y-58487500D01*
G75*
G02*
X57700000Y-58737498I0J-249998D01*
G01*
X57700000Y-59262502D01*
G75*
G02*
X57450002Y-59512500I-249998J0D01*
G01*
G37*
G36*
G01*
X57450002Y-61337500D02*
X56549998Y-61337500D01*
G75*
G02*
X56300000Y-61087502I0J249998D01*
G01*
X56300000Y-60562498D01*
G75*
G02*
X56549998Y-60312500I249998J0D01*
G01*
X57450002Y-60312500D01*
G75*
G02*
X57700000Y-60562498I0J-249998D01*
G01*
X57700000Y-61087502D01*
G75*
G02*
X57450002Y-61337500I-249998J0D01*
G01*
G37*
G36*
G01*
X48012500Y-26549998D02*
X48012500Y-27450002D01*
G75*
G02*
X47762502Y-27700000I-249998J0D01*
G01*
X47237498Y-27700000D01*
G75*
G02*
X46987500Y-27450002I0J249998D01*
G01*
X46987500Y-26549998D01*
G75*
G02*
X47237498Y-26300000I249998J0D01*
G01*
X47762502Y-26300000D01*
G75*
G02*
X48012500Y-26549998I0J-249998D01*
G01*
G37*
G36*
G01*
X49837500Y-26549998D02*
X49837500Y-27450002D01*
G75*
G02*
X49587502Y-27700000I-249998J0D01*
G01*
X49062498Y-27700000D01*
G75*
G02*
X48812500Y-27450002I0J249998D01*
G01*
X48812500Y-26549998D01*
G75*
G02*
X49062498Y-26300000I249998J0D01*
G01*
X49587502Y-26300000D01*
G75*
G02*
X49837500Y-26549998I0J-249998D01*
G01*
G37*
G36*
G01*
X48012500Y-29049998D02*
X48012500Y-29950002D01*
G75*
G02*
X47762502Y-30200000I-249998J0D01*
G01*
X47237498Y-30200000D01*
G75*
G02*
X46987500Y-29950002I0J249998D01*
G01*
X46987500Y-29049998D01*
G75*
G02*
X47237498Y-28800000I249998J0D01*
G01*
X47762502Y-28800000D01*
G75*
G02*
X48012500Y-29049998I0J-249998D01*
G01*
G37*
G36*
G01*
X49837500Y-29049998D02*
X49837500Y-29950002D01*
G75*
G02*
X49587502Y-30200000I-249998J0D01*
G01*
X49062498Y-30200000D01*
G75*
G02*
X48812500Y-29950002I0J249998D01*
G01*
X48812500Y-29049998D01*
G75*
G02*
X49062498Y-28800000I249998J0D01*
G01*
X49587502Y-28800000D01*
G75*
G02*
X49837500Y-29049998I0J-249998D01*
G01*
G37*
G36*
G01*
X56549998Y-73487500D02*
X57450002Y-73487500D01*
G75*
G02*
X57700000Y-73737498I0J-249998D01*
G01*
X57700000Y-74262502D01*
G75*
G02*
X57450002Y-74512500I-249998J0D01*
G01*
X56549998Y-74512500D01*
G75*
G02*
X56300000Y-74262502I0J249998D01*
G01*
X56300000Y-73737498D01*
G75*
G02*
X56549998Y-73487500I249998J0D01*
G01*
G37*
G36*
G01*
X56549998Y-71662500D02*
X57450002Y-71662500D01*
G75*
G02*
X57700000Y-71912498I0J-249998D01*
G01*
X57700000Y-72437502D01*
G75*
G02*
X57450002Y-72687500I-249998J0D01*
G01*
X56549998Y-72687500D01*
G75*
G02*
X56300000Y-72437502I0J249998D01*
G01*
X56300000Y-71912498D01*
G75*
G02*
X56549998Y-71662500I249998J0D01*
G01*
G37*
G36*
G01*
X44187500Y-26549998D02*
X44187500Y-27450002D01*
G75*
G02*
X43937502Y-27700000I-249998J0D01*
G01*
X43412498Y-27700000D01*
G75*
G02*
X43162500Y-27450002I0J249998D01*
G01*
X43162500Y-26549998D01*
G75*
G02*
X43412498Y-26300000I249998J0D01*
G01*
X43937502Y-26300000D01*
G75*
G02*
X44187500Y-26549998I0J-249998D01*
G01*
G37*
G36*
G01*
X46012500Y-26549998D02*
X46012500Y-27450002D01*
G75*
G02*
X45762502Y-27700000I-249998J0D01*
G01*
X45237498Y-27700000D01*
G75*
G02*
X44987500Y-27450002I0J249998D01*
G01*
X44987500Y-26549998D01*
G75*
G02*
X45237498Y-26300000I249998J0D01*
G01*
X45762502Y-26300000D01*
G75*
G02*
X46012500Y-26549998I0J-249998D01*
G01*
G37*
G36*
G01*
X44187500Y-29049998D02*
X44187500Y-29950002D01*
G75*
G02*
X43937502Y-30200000I-249998J0D01*
G01*
X43412498Y-30200000D01*
G75*
G02*
X43162500Y-29950002I0J249998D01*
G01*
X43162500Y-29049998D01*
G75*
G02*
X43412498Y-28800000I249998J0D01*
G01*
X43937502Y-28800000D01*
G75*
G02*
X44187500Y-29049998I0J-249998D01*
G01*
G37*
G36*
G01*
X46012500Y-29049998D02*
X46012500Y-29950002D01*
G75*
G02*
X45762502Y-30200000I-249998J0D01*
G01*
X45237498Y-30200000D01*
G75*
G02*
X44987500Y-29950002I0J249998D01*
G01*
X44987500Y-29049998D01*
G75*
G02*
X45237498Y-28800000I249998J0D01*
G01*
X45762502Y-28800000D01*
G75*
G02*
X46012500Y-29049998I0J-249998D01*
G01*
G37*
G36*
G01*
X53049998Y-73487500D02*
X53950002Y-73487500D01*
G75*
G02*
X54200000Y-73737498I0J-249998D01*
G01*
X54200000Y-74262502D01*
G75*
G02*
X53950002Y-74512500I-249998J0D01*
G01*
X53049998Y-74512500D01*
G75*
G02*
X52800000Y-74262502I0J249998D01*
G01*
X52800000Y-73737498D01*
G75*
G02*
X53049998Y-73487500I249998J0D01*
G01*
G37*
G36*
G01*
X53049998Y-71662500D02*
X53950002Y-71662500D01*
G75*
G02*
X54200000Y-71912498I0J-249998D01*
G01*
X54200000Y-72437502D01*
G75*
G02*
X53950002Y-72687500I-249998J0D01*
G01*
X53049998Y-72687500D01*
G75*
G02*
X52800000Y-72437502I0J249998D01*
G01*
X52800000Y-71912498D01*
G75*
G02*
X53049998Y-71662500I249998J0D01*
G01*
G37*
G36*
G01*
X46950002Y-59512500D02*
X46049998Y-59512500D01*
G75*
G02*
X45800000Y-59262502I0J249998D01*
G01*
X45800000Y-58737498D01*
G75*
G02*
X46049998Y-58487500I249998J0D01*
G01*
X46950002Y-58487500D01*
G75*
G02*
X47200000Y-58737498I0J-249998D01*
G01*
X47200000Y-59262502D01*
G75*
G02*
X46950002Y-59512500I-249998J0D01*
G01*
G37*
G36*
G01*
X46950002Y-61337500D02*
X46049998Y-61337500D01*
G75*
G02*
X45800000Y-61087502I0J249998D01*
G01*
X45800000Y-60562498D01*
G75*
G02*
X46049998Y-60312500I249998J0D01*
G01*
X46950002Y-60312500D01*
G75*
G02*
X47200000Y-60562498I0J-249998D01*
G01*
X47200000Y-61087502D01*
G75*
G02*
X46950002Y-61337500I-249998J0D01*
G01*
G37*
G36*
G01*
X50450002Y-59512500D02*
X49549998Y-59512500D01*
G75*
G02*
X49300000Y-59262502I0J249998D01*
G01*
X49300000Y-58737498D01*
G75*
G02*
X49549998Y-58487500I249998J0D01*
G01*
X50450002Y-58487500D01*
G75*
G02*
X50700000Y-58737498I0J-249998D01*
G01*
X50700000Y-59262502D01*
G75*
G02*
X50450002Y-59512500I-249998J0D01*
G01*
G37*
G36*
G01*
X50450002Y-61337500D02*
X49549998Y-61337500D01*
G75*
G02*
X49300000Y-61087502I0J249998D01*
G01*
X49300000Y-60562498D01*
G75*
G02*
X49549998Y-60312500I249998J0D01*
G01*
X50450002Y-60312500D01*
G75*
G02*
X50700000Y-60562498I0J-249998D01*
G01*
X50700000Y-61087502D01*
G75*
G02*
X50450002Y-61337500I-249998J0D01*
G01*
G37*
G36*
G01*
X39362500Y-43125003D02*
X39362500Y-41874997D01*
G75*
G02*
X39612497Y-41625000I249997J0D01*
G01*
X40237503Y-41625000D01*
G75*
G02*
X40487500Y-41874997I0J-249997D01*
G01*
X40487500Y-43125003D01*
G75*
G02*
X40237503Y-43375000I-249997J0D01*
G01*
X39612497Y-43375000D01*
G75*
G02*
X39362500Y-43125003I0J249997D01*
G01*
G37*
G36*
G01*
X36437500Y-43125003D02*
X36437500Y-41874997D01*
G75*
G02*
X36687497Y-41625000I249997J0D01*
G01*
X37312503Y-41625000D01*
G75*
G02*
X37562500Y-41874997I0J-249997D01*
G01*
X37562500Y-43125003D01*
G75*
G02*
X37312503Y-43375000I-249997J0D01*
G01*
X36687497Y-43375000D01*
G75*
G02*
X36437500Y-43125003I0J249997D01*
G01*
G37*
G36*
G01*
X40950002Y-38187500D02*
X40049998Y-38187500D01*
G75*
G02*
X39800000Y-37937502I0J249998D01*
G01*
X39800000Y-37412498D01*
G75*
G02*
X40049998Y-37162500I249998J0D01*
G01*
X40950002Y-37162500D01*
G75*
G02*
X41200000Y-37412498I0J-249998D01*
G01*
X41200000Y-37937502D01*
G75*
G02*
X40950002Y-38187500I-249998J0D01*
G01*
G37*
G36*
G01*
X40950002Y-40012500D02*
X40049998Y-40012500D01*
G75*
G02*
X39800000Y-39762502I0J249998D01*
G01*
X39800000Y-39237498D01*
G75*
G02*
X40049998Y-38987500I249998J0D01*
G01*
X40950002Y-38987500D01*
G75*
G02*
X41200000Y-39237498I0J-249998D01*
G01*
X41200000Y-39762502D01*
G75*
G02*
X40950002Y-40012500I-249998J0D01*
G01*
G37*
G36*
G01*
X37450002Y-38187500D02*
X36549998Y-38187500D01*
G75*
G02*
X36300000Y-37937502I0J249998D01*
G01*
X36300000Y-37412498D01*
G75*
G02*
X36549998Y-37162500I249998J0D01*
G01*
X37450002Y-37162500D01*
G75*
G02*
X37700000Y-37412498I0J-249998D01*
G01*
X37700000Y-37937502D01*
G75*
G02*
X37450002Y-38187500I-249998J0D01*
G01*
G37*
G36*
G01*
X37450002Y-40012500D02*
X36549998Y-40012500D01*
G75*
G02*
X36300000Y-39762502I0J249998D01*
G01*
X36300000Y-39237498D01*
G75*
G02*
X36549998Y-38987500I249998J0D01*
G01*
X37450002Y-38987500D01*
G75*
G02*
X37700000Y-39237498I0J-249998D01*
G01*
X37700000Y-39762502D01*
G75*
G02*
X37450002Y-40012500I-249998J0D01*
G01*
G37*
G36*
G01*
X42549998Y-61812500D02*
X43450002Y-61812500D01*
G75*
G02*
X43700000Y-62062498I0J-249998D01*
G01*
X43700000Y-62587502D01*
G75*
G02*
X43450002Y-62837500I-249998J0D01*
G01*
X42549998Y-62837500D01*
G75*
G02*
X42300000Y-62587502I0J249998D01*
G01*
X42300000Y-62062498D01*
G75*
G02*
X42549998Y-61812500I249998J0D01*
G01*
G37*
G36*
G01*
X42549998Y-59987500D02*
X43450002Y-59987500D01*
G75*
G02*
X43700000Y-60237498I0J-249998D01*
G01*
X43700000Y-60762502D01*
G75*
G02*
X43450002Y-61012500I-249998J0D01*
G01*
X42549998Y-61012500D01*
G75*
G02*
X42300000Y-60762502I0J249998D01*
G01*
X42300000Y-60237498D01*
G75*
G02*
X42549998Y-59987500I249998J0D01*
G01*
G37*
G36*
G01*
X39049998Y-61812500D02*
X39950002Y-61812500D01*
G75*
G02*
X40200000Y-62062498I0J-249998D01*
G01*
X40200000Y-62587502D01*
G75*
G02*
X39950002Y-62837500I-249998J0D01*
G01*
X39049998Y-62837500D01*
G75*
G02*
X38800000Y-62587502I0J249998D01*
G01*
X38800000Y-62062498D01*
G75*
G02*
X39049998Y-61812500I249998J0D01*
G01*
G37*
G36*
G01*
X39049998Y-59987500D02*
X39950002Y-59987500D01*
G75*
G02*
X40200000Y-60237498I0J-249998D01*
G01*
X40200000Y-60762502D01*
G75*
G02*
X39950002Y-61012500I-249998J0D01*
G01*
X39049998Y-61012500D01*
G75*
G02*
X38800000Y-60762502I0J249998D01*
G01*
X38800000Y-60237498D01*
G75*
G02*
X39049998Y-59987500I249998J0D01*
G01*
G37*
G36*
G01*
X28450002Y-29687500D02*
X27549998Y-29687500D01*
G75*
G02*
X27300000Y-29437502I0J249998D01*
G01*
X27300000Y-28912498D01*
G75*
G02*
X27549998Y-28662500I249998J0D01*
G01*
X28450002Y-28662500D01*
G75*
G02*
X28700000Y-28912498I0J-249998D01*
G01*
X28700000Y-29437502D01*
G75*
G02*
X28450002Y-29687500I-249998J0D01*
G01*
G37*
G36*
G01*
X28450002Y-31512500D02*
X27549998Y-31512500D01*
G75*
G02*
X27300000Y-31262502I0J249998D01*
G01*
X27300000Y-30737498D01*
G75*
G02*
X27549998Y-30487500I249998J0D01*
G01*
X28450002Y-30487500D01*
G75*
G02*
X28700000Y-30737498I0J-249998D01*
G01*
X28700000Y-31262502D01*
G75*
G02*
X28450002Y-31512500I-249998J0D01*
G01*
G37*
G36*
G01*
X25049998Y-30487500D02*
X25950002Y-30487500D01*
G75*
G02*
X26200000Y-30737498I0J-249998D01*
G01*
X26200000Y-31262502D01*
G75*
G02*
X25950002Y-31512500I-249998J0D01*
G01*
X25049998Y-31512500D01*
G75*
G02*
X24800000Y-31262502I0J249998D01*
G01*
X24800000Y-30737498D01*
G75*
G02*
X25049998Y-30487500I249998J0D01*
G01*
G37*
G36*
G01*
X25049998Y-28662500D02*
X25950002Y-28662500D01*
G75*
G02*
X26200000Y-28912498I0J-249998D01*
G01*
X26200000Y-29437502D01*
G75*
G02*
X25950002Y-29687500I-249998J0D01*
G01*
X25049998Y-29687500D01*
G75*
G02*
X24800000Y-29437502I0J249998D01*
G01*
X24800000Y-28912498D01*
G75*
G02*
X25049998Y-28662500I249998J0D01*
G01*
G37*
G36*
G01*
X35549998Y-54812500D02*
X36450002Y-54812500D01*
G75*
G02*
X36700000Y-55062498I0J-249998D01*
G01*
X36700000Y-55587502D01*
G75*
G02*
X36450002Y-55837500I-249998J0D01*
G01*
X35549998Y-55837500D01*
G75*
G02*
X35300000Y-55587502I0J249998D01*
G01*
X35300000Y-55062498D01*
G75*
G02*
X35549998Y-54812500I249998J0D01*
G01*
G37*
G36*
G01*
X35549998Y-52987500D02*
X36450002Y-52987500D01*
G75*
G02*
X36700000Y-53237498I0J-249998D01*
G01*
X36700000Y-53762502D01*
G75*
G02*
X36450002Y-54012500I-249998J0D01*
G01*
X35549998Y-54012500D01*
G75*
G02*
X35300000Y-53762502I0J249998D01*
G01*
X35300000Y-53237498D01*
G75*
G02*
X35549998Y-52987500I249998J0D01*
G01*
G37*
G36*
G01*
X32049998Y-54812500D02*
X32950002Y-54812500D01*
G75*
G02*
X33200000Y-55062498I0J-249998D01*
G01*
X33200000Y-55587502D01*
G75*
G02*
X32950002Y-55837500I-249998J0D01*
G01*
X32049998Y-55837500D01*
G75*
G02*
X31800000Y-55587502I0J249998D01*
G01*
X31800000Y-55062498D01*
G75*
G02*
X32049998Y-54812500I249998J0D01*
G01*
G37*
G36*
G01*
X32049998Y-52987500D02*
X32950002Y-52987500D01*
G75*
G02*
X33200000Y-53237498I0J-249998D01*
G01*
X33200000Y-53762502D01*
G75*
G02*
X32950002Y-54012500I-249998J0D01*
G01*
X32049998Y-54012500D01*
G75*
G02*
X31800000Y-53762502I0J249998D01*
G01*
X31800000Y-53237498D01*
G75*
G02*
X32049998Y-52987500I249998J0D01*
G01*
G37*
D18*
X83000000Y-36500000D03*
X85000000Y-35550000D03*
X85000000Y-37450000D03*
D23*
X76000000Y-57500000D03*
X75050000Y-55500000D03*
X76950000Y-55500000D03*
G36*
G01*
X56755000Y-67500000D02*
X57055000Y-67500000D01*
G75*
G02*
X57205000Y-67650000I0J-150000D01*
G01*
X57205000Y-69300000D01*
G75*
G02*
X57055000Y-69450000I-150000J0D01*
G01*
X56755000Y-69450000D01*
G75*
G02*
X56605000Y-69300000I0J150000D01*
G01*
X56605000Y-67650000D01*
G75*
G02*
X56755000Y-67500000I150000J0D01*
G01*
G37*
G36*
G01*
X55485000Y-67500000D02*
X55785000Y-67500000D01*
G75*
G02*
X55935000Y-67650000I0J-150000D01*
G01*
X55935000Y-69300000D01*
G75*
G02*
X55785000Y-69450000I-150000J0D01*
G01*
X55485000Y-69450000D01*
G75*
G02*
X55335000Y-69300000I0J150000D01*
G01*
X55335000Y-67650000D01*
G75*
G02*
X55485000Y-67500000I150000J0D01*
G01*
G37*
G36*
G01*
X54215000Y-67500000D02*
X54515000Y-67500000D01*
G75*
G02*
X54665000Y-67650000I0J-150000D01*
G01*
X54665000Y-69300000D01*
G75*
G02*
X54515000Y-69450000I-150000J0D01*
G01*
X54215000Y-69450000D01*
G75*
G02*
X54065000Y-69300000I0J150000D01*
G01*
X54065000Y-67650000D01*
G75*
G02*
X54215000Y-67500000I150000J0D01*
G01*
G37*
G36*
G01*
X52945000Y-67500000D02*
X53245000Y-67500000D01*
G75*
G02*
X53395000Y-67650000I0J-150000D01*
G01*
X53395000Y-69300000D01*
G75*
G02*
X53245000Y-69450000I-150000J0D01*
G01*
X52945000Y-69450000D01*
G75*
G02*
X52795000Y-69300000I0J150000D01*
G01*
X52795000Y-67650000D01*
G75*
G02*
X52945000Y-67500000I150000J0D01*
G01*
G37*
G36*
G01*
X52945000Y-62550000D02*
X53245000Y-62550000D01*
G75*
G02*
X53395000Y-62700000I0J-150000D01*
G01*
X53395000Y-64350000D01*
G75*
G02*
X53245000Y-64500000I-150000J0D01*
G01*
X52945000Y-64500000D01*
G75*
G02*
X52795000Y-64350000I0J150000D01*
G01*
X52795000Y-62700000D01*
G75*
G02*
X52945000Y-62550000I150000J0D01*
G01*
G37*
G36*
G01*
X54215000Y-62550000D02*
X54515000Y-62550000D01*
G75*
G02*
X54665000Y-62700000I0J-150000D01*
G01*
X54665000Y-64350000D01*
G75*
G02*
X54515000Y-64500000I-150000J0D01*
G01*
X54215000Y-64500000D01*
G75*
G02*
X54065000Y-64350000I0J150000D01*
G01*
X54065000Y-62700000D01*
G75*
G02*
X54215000Y-62550000I150000J0D01*
G01*
G37*
G36*
G01*
X55485000Y-62550000D02*
X55785000Y-62550000D01*
G75*
G02*
X55935000Y-62700000I0J-150000D01*
G01*
X55935000Y-64350000D01*
G75*
G02*
X55785000Y-64500000I-150000J0D01*
G01*
X55485000Y-64500000D01*
G75*
G02*
X55335000Y-64350000I0J150000D01*
G01*
X55335000Y-62700000D01*
G75*
G02*
X55485000Y-62550000I150000J0D01*
G01*
G37*
G36*
G01*
X56755000Y-62550000D02*
X57055000Y-62550000D01*
G75*
G02*
X57205000Y-62700000I0J-150000D01*
G01*
X57205000Y-64350000D01*
G75*
G02*
X57055000Y-64500000I-150000J0D01*
G01*
X56755000Y-64500000D01*
G75*
G02*
X56605000Y-64350000I0J150000D01*
G01*
X56605000Y-62700000D01*
G75*
G02*
X56755000Y-62550000I150000J0D01*
G01*
G37*
D24*
X29725000Y-43925000D03*
D25*
X27185000Y-34775000D03*
X32265000Y-34775000D03*
G36*
G01*
X49755000Y-67500000D02*
X50055000Y-67500000D01*
G75*
G02*
X50205000Y-67650000I0J-150000D01*
G01*
X50205000Y-69300000D01*
G75*
G02*
X50055000Y-69450000I-150000J0D01*
G01*
X49755000Y-69450000D01*
G75*
G02*
X49605000Y-69300000I0J150000D01*
G01*
X49605000Y-67650000D01*
G75*
G02*
X49755000Y-67500000I150000J0D01*
G01*
G37*
G36*
G01*
X48485000Y-67500000D02*
X48785000Y-67500000D01*
G75*
G02*
X48935000Y-67650000I0J-150000D01*
G01*
X48935000Y-69300000D01*
G75*
G02*
X48785000Y-69450000I-150000J0D01*
G01*
X48485000Y-69450000D01*
G75*
G02*
X48335000Y-69300000I0J150000D01*
G01*
X48335000Y-67650000D01*
G75*
G02*
X48485000Y-67500000I150000J0D01*
G01*
G37*
G36*
G01*
X47215000Y-67500000D02*
X47515000Y-67500000D01*
G75*
G02*
X47665000Y-67650000I0J-150000D01*
G01*
X47665000Y-69300000D01*
G75*
G02*
X47515000Y-69450000I-150000J0D01*
G01*
X47215000Y-69450000D01*
G75*
G02*
X47065000Y-69300000I0J150000D01*
G01*
X47065000Y-67650000D01*
G75*
G02*
X47215000Y-67500000I150000J0D01*
G01*
G37*
G36*
G01*
X45945000Y-67500000D02*
X46245000Y-67500000D01*
G75*
G02*
X46395000Y-67650000I0J-150000D01*
G01*
X46395000Y-69300000D01*
G75*
G02*
X46245000Y-69450000I-150000J0D01*
G01*
X45945000Y-69450000D01*
G75*
G02*
X45795000Y-69300000I0J150000D01*
G01*
X45795000Y-67650000D01*
G75*
G02*
X45945000Y-67500000I150000J0D01*
G01*
G37*
G36*
G01*
X45945000Y-62550000D02*
X46245000Y-62550000D01*
G75*
G02*
X46395000Y-62700000I0J-150000D01*
G01*
X46395000Y-64350000D01*
G75*
G02*
X46245000Y-64500000I-150000J0D01*
G01*
X45945000Y-64500000D01*
G75*
G02*
X45795000Y-64350000I0J150000D01*
G01*
X45795000Y-62700000D01*
G75*
G02*
X45945000Y-62550000I150000J0D01*
G01*
G37*
G36*
G01*
X47215000Y-62550000D02*
X47515000Y-62550000D01*
G75*
G02*
X47665000Y-62700000I0J-150000D01*
G01*
X47665000Y-64350000D01*
G75*
G02*
X47515000Y-64500000I-150000J0D01*
G01*
X47215000Y-64500000D01*
G75*
G02*
X47065000Y-64350000I0J150000D01*
G01*
X47065000Y-62700000D01*
G75*
G02*
X47215000Y-62550000I150000J0D01*
G01*
G37*
G36*
G01*
X48485000Y-62550000D02*
X48785000Y-62550000D01*
G75*
G02*
X48935000Y-62700000I0J-150000D01*
G01*
X48935000Y-64350000D01*
G75*
G02*
X48785000Y-64500000I-150000J0D01*
G01*
X48485000Y-64500000D01*
G75*
G02*
X48335000Y-64350000I0J150000D01*
G01*
X48335000Y-62700000D01*
G75*
G02*
X48485000Y-62550000I150000J0D01*
G01*
G37*
G36*
G01*
X49755000Y-62550000D02*
X50055000Y-62550000D01*
G75*
G02*
X50205000Y-62700000I0J-150000D01*
G01*
X50205000Y-64350000D01*
G75*
G02*
X50055000Y-64500000I-150000J0D01*
G01*
X49755000Y-64500000D01*
G75*
G02*
X49605000Y-64350000I0J150000D01*
G01*
X49605000Y-62700000D01*
G75*
G02*
X49755000Y-62550000I150000J0D01*
G01*
G37*
D14*
X84000000Y-81500000D03*
G36*
G01*
X83250000Y-78150000D02*
X84750000Y-78150000D01*
G75*
G02*
X85000000Y-78400000I0J-250000D01*
G01*
X85000000Y-79600000D01*
G75*
G02*
X84750000Y-79850000I-250000J0D01*
G01*
X83250000Y-79850000D01*
G75*
G02*
X83000000Y-79600000I0J250000D01*
G01*
X83000000Y-78400000D01*
G75*
G02*
X83250000Y-78150000I250000J0D01*
G01*
G37*
X91500000Y-81500000D03*
G36*
G01*
X90750000Y-78150000D02*
X92250000Y-78150000D01*
G75*
G02*
X92500000Y-78400000I0J-250000D01*
G01*
X92500000Y-79600000D01*
G75*
G02*
X92250000Y-79850000I-250000J0D01*
G01*
X90750000Y-79850000D01*
G75*
G02*
X90500000Y-79600000I0J250000D01*
G01*
X90500000Y-78400000D01*
G75*
G02*
X90750000Y-78150000I250000J0D01*
G01*
G37*
D26*
X50000000Y-54500000D03*
X52500000Y-54500000D03*
X55000000Y-54500000D03*
X57500000Y-54500000D03*
X60000000Y-54500000D03*
G36*
G01*
X63350000Y-53775000D02*
X63350000Y-55225000D01*
G75*
G02*
X63100000Y-55475000I-250000J0D01*
G01*
X61900000Y-55475000D01*
G75*
G02*
X61650000Y-55225000I0J250000D01*
G01*
X61650000Y-53775000D01*
G75*
G02*
X61900000Y-53525000I250000J0D01*
G01*
X63100000Y-53525000D01*
G75*
G02*
X63350000Y-53775000I0J-250000D01*
G01*
G37*
D19*
X100500000Y-42000000D03*
X100500000Y-47000000D03*
D26*
X101500000Y-18000000D03*
X99000000Y-18000000D03*
X96500000Y-18000000D03*
G36*
G01*
X93150000Y-18725000D02*
X93150000Y-17275000D01*
G75*
G02*
X93400000Y-17025000I250000J0D01*
G01*
X94600000Y-17025000D01*
G75*
G02*
X94850000Y-17275000I0J-250000D01*
G01*
X94850000Y-18725000D01*
G75*
G02*
X94600000Y-18975000I-250000J0D01*
G01*
X93400000Y-18975000D01*
G75*
G02*
X93150000Y-18725000I0J250000D01*
G01*
G37*
D19*
X100500000Y-55000000D03*
X100500000Y-60000000D03*
X100500000Y-68000000D03*
X100500000Y-73000000D03*
X27500000Y-19500000D03*
X32500000Y-19500000D03*
D27*
X19500000Y-40795000D03*
X19500000Y-31205000D03*
X19500000Y-24445000D03*
X19500000Y-47555000D03*
D28*
X78250000Y-72900000D03*
X78250000Y-70100000D03*
D29*
X78250000Y-63350000D03*
X78250000Y-66650000D03*
D30*
X78000000Y-60000000D03*
X74700000Y-60000000D03*
D14*
X61000000Y-78500000D03*
G36*
G01*
X61750000Y-81850000D02*
X60250000Y-81850000D01*
G75*
G02*
X60000000Y-81600000I0J250000D01*
G01*
X60000000Y-80400000D01*
G75*
G02*
X60250000Y-80150000I250000J0D01*
G01*
X61750000Y-80150000D01*
G75*
G02*
X62000000Y-80400000I0J-250000D01*
G01*
X62000000Y-81600000D01*
G75*
G02*
X61750000Y-81850000I-250000J0D01*
G01*
G37*
X54000000Y-78500000D03*
G36*
G01*
X54750000Y-81850000D02*
X53250000Y-81850000D01*
G75*
G02*
X53000000Y-81600000I0J250000D01*
G01*
X53000000Y-80400000D01*
G75*
G02*
X53250000Y-80150000I250000J0D01*
G01*
X54750000Y-80150000D01*
G75*
G02*
X55000000Y-80400000I0J-250000D01*
G01*
X55000000Y-81600000D01*
G75*
G02*
X54750000Y-81850000I-250000J0D01*
G01*
G37*
X47000000Y-73500000D03*
G36*
G01*
X47750000Y-76850000D02*
X46250000Y-76850000D01*
G75*
G02*
X46000000Y-76600000I0J250000D01*
G01*
X46000000Y-75400000D01*
G75*
G02*
X46250000Y-75150000I250000J0D01*
G01*
X47750000Y-75150000D01*
G75*
G02*
X48000000Y-75400000I0J-250000D01*
G01*
X48000000Y-76600000D01*
G75*
G02*
X47750000Y-76850000I-250000J0D01*
G01*
G37*
X40000000Y-66500000D03*
G36*
G01*
X40750000Y-69850000D02*
X39250000Y-69850000D01*
G75*
G02*
X39000000Y-69600000I0J250000D01*
G01*
X39000000Y-68400000D01*
G75*
G02*
X39250000Y-68150000I250000J0D01*
G01*
X40750000Y-68150000D01*
G75*
G02*
X41000000Y-68400000I0J-250000D01*
G01*
X41000000Y-69600000D01*
G75*
G02*
X40750000Y-69850000I-250000J0D01*
G01*
G37*
X33000000Y-59500000D03*
G36*
G01*
X33750000Y-62850000D02*
X32250000Y-62850000D01*
G75*
G02*
X32000000Y-62600000I0J250000D01*
G01*
X32000000Y-61400000D01*
G75*
G02*
X32250000Y-61150000I250000J0D01*
G01*
X33750000Y-61150000D01*
G75*
G02*
X34000000Y-61400000I0J-250000D01*
G01*
X34000000Y-62600000D01*
G75*
G02*
X33750000Y-62850000I-250000J0D01*
G01*
G37*
X26000000Y-52500000D03*
G36*
G01*
X26750000Y-55850000D02*
X25250000Y-55850000D01*
G75*
G02*
X25000000Y-55600000I0J250000D01*
G01*
X25000000Y-54400000D01*
G75*
G02*
X25250000Y-54150000I250000J0D01*
G01*
X26750000Y-54150000D01*
G75*
G02*
X27000000Y-54400000I0J-250000D01*
G01*
X27000000Y-55600000D01*
G75*
G02*
X26750000Y-55850000I-250000J0D01*
G01*
G37*
D22*
X85000000Y-66500000D03*
D31*
X82500000Y-66500000D03*
G36*
G01*
X68875000Y-61100001D02*
X68875000Y-58899999D01*
G75*
G02*
X69124999Y-58650000I249999J0D01*
G01*
X69775001Y-58650000D01*
G75*
G02*
X70025000Y-58899999I0J-249999D01*
G01*
X70025000Y-61100001D01*
G75*
G02*
X69775001Y-61350000I-249999J0D01*
G01*
X69124999Y-61350000D01*
G75*
G02*
X68875000Y-61100001I0J249999D01*
G01*
G37*
G36*
G01*
X65925000Y-61100001D02*
X65925000Y-58899999D01*
G75*
G02*
X66174999Y-58650000I249999J0D01*
G01*
X66825001Y-58650000D01*
G75*
G02*
X67075000Y-58899999I0J-249999D01*
G01*
X67075000Y-61100001D01*
G75*
G02*
X66825001Y-61350000I-249999J0D01*
G01*
X66174999Y-61350000D01*
G75*
G02*
X65925000Y-61100001I0J249999D01*
G01*
G37*
G36*
G01*
X62950000Y-60975000D02*
X62950000Y-60025000D01*
G75*
G02*
X63200000Y-59775000I250000J0D01*
G01*
X63700000Y-59775000D01*
G75*
G02*
X63950000Y-60025000I0J-250000D01*
G01*
X63950000Y-60975000D01*
G75*
G02*
X63700000Y-61225000I-250000J0D01*
G01*
X63200000Y-61225000D01*
G75*
G02*
X62950000Y-60975000I0J250000D01*
G01*
G37*
G36*
G01*
X61050000Y-60975000D02*
X61050000Y-60025000D01*
G75*
G02*
X61300000Y-59775000I250000J0D01*
G01*
X61800000Y-59775000D01*
G75*
G02*
X62050000Y-60025000I0J-250000D01*
G01*
X62050000Y-60975000D01*
G75*
G02*
X61800000Y-61225000I-250000J0D01*
G01*
X61300000Y-61225000D01*
G75*
G02*
X61050000Y-60975000I0J250000D01*
G01*
G37*
G36*
G01*
X35525000Y-30000000D02*
X36475000Y-30000000D01*
G75*
G02*
X36725000Y-30250000I0J-250000D01*
G01*
X36725000Y-30750000D01*
G75*
G02*
X36475000Y-31000000I-250000J0D01*
G01*
X35525000Y-31000000D01*
G75*
G02*
X35275000Y-30750000I0J250000D01*
G01*
X35275000Y-30250000D01*
G75*
G02*
X35525000Y-30000000I250000J0D01*
G01*
G37*
G36*
G01*
X35525000Y-28100000D02*
X36475000Y-28100000D01*
G75*
G02*
X36725000Y-28350000I0J-250000D01*
G01*
X36725000Y-28850000D01*
G75*
G02*
X36475000Y-29100000I-250000J0D01*
G01*
X35525000Y-29100000D01*
G75*
G02*
X35275000Y-28850000I0J250000D01*
G01*
X35275000Y-28350000D01*
G75*
G02*
X35525000Y-28100000I250000J0D01*
G01*
G37*
G36*
G01*
X90025000Y-40900000D02*
X90975000Y-40900000D01*
G75*
G02*
X91225000Y-41150000I0J-250000D01*
G01*
X91225000Y-41650000D01*
G75*
G02*
X90975000Y-41900000I-250000J0D01*
G01*
X90025000Y-41900000D01*
G75*
G02*
X89775000Y-41650000I0J250000D01*
G01*
X89775000Y-41150000D01*
G75*
G02*
X90025000Y-40900000I250000J0D01*
G01*
G37*
G36*
G01*
X90025000Y-39000000D02*
X90975000Y-39000000D01*
G75*
G02*
X91225000Y-39250000I0J-250000D01*
G01*
X91225000Y-39750000D01*
G75*
G02*
X90975000Y-40000000I-250000J0D01*
G01*
X90025000Y-40000000D01*
G75*
G02*
X89775000Y-39750000I0J250000D01*
G01*
X89775000Y-39250000D01*
G75*
G02*
X90025000Y-39000000I250000J0D01*
G01*
G37*
G36*
G01*
X38450000Y-34975000D02*
X38450000Y-34025000D01*
G75*
G02*
X38700000Y-33775000I250000J0D01*
G01*
X39200000Y-33775000D01*
G75*
G02*
X39450000Y-34025000I0J-250000D01*
G01*
X39450000Y-34975000D01*
G75*
G02*
X39200000Y-35225000I-250000J0D01*
G01*
X38700000Y-35225000D01*
G75*
G02*
X38450000Y-34975000I0J250000D01*
G01*
G37*
G36*
G01*
X36550000Y-34975000D02*
X36550000Y-34025000D01*
G75*
G02*
X36800000Y-33775000I250000J0D01*
G01*
X37300000Y-33775000D01*
G75*
G02*
X37550000Y-34025000I0J-250000D01*
G01*
X37550000Y-34975000D01*
G75*
G02*
X37300000Y-35225000I-250000J0D01*
G01*
X36800000Y-35225000D01*
G75*
G02*
X36550000Y-34975000I0J250000D01*
G01*
G37*
G36*
G01*
X32875000Y-31100001D02*
X32875000Y-28899999D01*
G75*
G02*
X33124999Y-28650000I249999J0D01*
G01*
X33775001Y-28650000D01*
G75*
G02*
X34025000Y-28899999I0J-249999D01*
G01*
X34025000Y-31100001D01*
G75*
G02*
X33775001Y-31350000I-249999J0D01*
G01*
X33124999Y-31350000D01*
G75*
G02*
X32875000Y-31100001I0J249999D01*
G01*
G37*
G36*
G01*
X29925000Y-31100001D02*
X29925000Y-28899999D01*
G75*
G02*
X30174999Y-28650000I249999J0D01*
G01*
X30825001Y-28650000D01*
G75*
G02*
X31075000Y-28899999I0J-249999D01*
G01*
X31075000Y-31100001D01*
G75*
G02*
X30825001Y-31350000I-249999J0D01*
G01*
X30174999Y-31350000D01*
G75*
G02*
X29925000Y-31100001I0J249999D01*
G01*
G37*
G36*
G01*
X103000000Y-24475000D02*
X103000000Y-23525000D01*
G75*
G02*
X103250000Y-23275000I250000J0D01*
G01*
X103750000Y-23275000D01*
G75*
G02*
X104000000Y-23525000I0J-250000D01*
G01*
X104000000Y-24475000D01*
G75*
G02*
X103750000Y-24725000I-250000J0D01*
G01*
X103250000Y-24725000D01*
G75*
G02*
X103000000Y-24475000I0J250000D01*
G01*
G37*
G36*
G01*
X101100000Y-24475000D02*
X101100000Y-23525000D01*
G75*
G02*
X101350000Y-23275000I250000J0D01*
G01*
X101850000Y-23275000D01*
G75*
G02*
X102100000Y-23525000I0J-250000D01*
G01*
X102100000Y-24475000D01*
G75*
G02*
X101850000Y-24725000I-250000J0D01*
G01*
X101350000Y-24725000D01*
G75*
G02*
X101100000Y-24475000I0J250000D01*
G01*
G37*
M02*
