M48
; DRILL file {KiCad 6.0.9-8da3e8f707~116~ubuntu20.04.1} date jeu 17 nov 2022 15:41:20
; FORMAT={-:-/ absolute / metric / decimal}
; #@! TF.CreationDate,2022-11-17T15:41:20-05:00
; #@! TF.GenerationSoftware,Kicad,Pcbnew,6.0.9-8da3e8f707~116~ubuntu20.04.1
; #@! TF.FileFunction,Plated,1,4,PTH
FMAT,2
METRIC
; #@! TA.AperFunction,Plated,PTH,ViaDrill
T1C0.330
; #@! TA.AperFunction,Plated,PTH,ViaDrill
T2C0.381
; #@! TA.AperFunction,Plated,PTH,ComponentDrill
T3C0.750
; #@! TA.AperFunction,Plated,PTH,ComponentDrill
T4C0.800
; #@! TA.AperFunction,Plated,PTH,ComponentDrill
T5C0.950
; #@! TA.AperFunction,Plated,PTH,ComponentDrill
T6C1.000
; #@! TA.AperFunction,Plated,PTH,ComponentDrill
T7C1.200
; #@! TA.AperFunction,Plated,PTH,ComponentDrill
T8C1.300
; #@! TA.AperFunction,Plated,PTH,ComponentDrill
T9C1.750
%
G90
G05
T1
X29.0Y-45.0
X36.0Y-50.0
X37.0Y-46.5
X38.75Y-42.75
X39.0Y-39.0
X42.0Y-47.0
X44.75Y-49.5
X44.75Y-52.5
X44.75Y-55.5
X44.75Y-58.5
X44.75Y-61.5
X46.0Y-65.75
X53.0Y-47.75
X57.0Y-49.5
X57.0Y-52.5
X57.0Y-55.5
X57.0Y-58.5
X57.0Y-61.5
X57.75Y-64.5
X59.5Y-62.75
X60.0Y-50.75
X60.75Y-24.5
X62.5Y-51.75
X62.5Y-70.0
X64.5Y-75.75
X65.5Y-70.0
X69.0Y-41.5
X69.0Y-44.5
X70.0Y-69.0
X72.25Y-65.5
X74.5Y-70.0
X75.25Y-55.5
X75.5Y-54.5
X76.0Y-56.75
X76.008Y-61.008
X77.25Y-44.5
X77.5Y-70.0
X78.0Y-56.75
X78.25Y-61.0
X80.5Y-65.25
X81.25Y-66.5
X81.5Y-58.0
X83.75Y-56.0
X85.415Y-70.676
X87.5Y-56.0
X96.5Y-21.0
X102.0Y-51.5
X108.0Y-55.0
X109.133Y-56.421
X110.0Y-62.0
X110.5Y-56.0
X110.5Y-57.0
X111.0Y-62.0
X111.5Y-56.0
X111.5Y-57.0
T2
X27.5Y-36.0
X27.5Y-37.0
X27.5Y-38.0
X27.5Y-39.0
X28.5Y-36.0
X28.5Y-37.0
X28.5Y-38.0
X28.5Y-39.0
X29.5Y-36.0
X29.5Y-37.0
X29.5Y-38.0
X29.5Y-39.0
X30.5Y-36.0
X30.5Y-37.0
X30.5Y-38.0
X30.5Y-39.0
X34.564Y-39.186
X38.5Y-37.5
X63.25Y-42.25
X63.75Y-53.75
X65.5Y-42.25
X65.75Y-52.5
X72.75Y-61.0
X82.486Y-59.65
X85.25Y-69.25
X89.0Y-69.25
X95.5Y-33.75
X97.5Y-57.0
X97.5Y-58.0
X101.0Y-45.5
X101.0Y-46.5
X103.0Y-41.0
X104.0Y-35.0
X104.0Y-60.0
X107.0Y-47.75
X113.75Y-60.75
T3
X25.0Y-52.95
X25.0Y-58.95
X27.0Y-52.95
X27.0Y-58.95
X29.0Y-52.95
X30.5Y-64.45
X31.0Y-52.95
X32.5Y-64.45
X36.0Y-69.95
X38.0Y-69.95
X41.5Y-75.45
X43.5Y-75.45
X49.0Y-81.45
X51.0Y-81.45
X56.5Y-73.0
X56.5Y-81.5
X58.5Y-73.0
X58.5Y-81.5
X60.5Y-81.5
X66.0Y-81.5
X68.0Y-81.5
X70.0Y-81.5
X75.5Y-81.5
X77.5Y-81.5
X79.5Y-81.5
X81.5Y-42.0
X82.5Y-73.5
X83.5Y-42.0
X84.5Y-73.5
X85.0Y-81.5
X86.5Y-73.5
X87.0Y-81.5
X88.5Y-73.5
X89.0Y-42.0
X89.0Y-81.5
X90.5Y-73.5
X91.0Y-42.0
X94.5Y-81.5
X96.5Y-81.5
X99.0Y-73.45
X101.0Y-73.45
X102.0Y-81.5
X103.0Y-73.45
X104.0Y-81.5
X108.0Y-73.45
X108.5Y-66.0
X110.0Y-73.45
X110.5Y-66.0
X112.0Y-73.45
X112.5Y-66.0
T4
X42.0Y-30.818
X42.0Y-33.318
X88.0Y-29.0
X90.5Y-29.0
X109.818Y-28.0
X112.318Y-28.0
T5
X111.525Y-36.5
X111.525Y-39.0
X111.525Y-41.5
T6
X64.1Y-48.38
X64.1Y-63.62
X65.0Y-28.632
X65.0Y-33.632
X66.64Y-48.38
X66.64Y-63.62
X69.18Y-48.38
X69.18Y-63.62
X71.72Y-48.38
X71.72Y-63.62
X73.75Y-32.5
X74.26Y-48.38
X74.26Y-63.62
X76.8Y-48.38
X76.8Y-63.62
X79.34Y-48.38
X79.34Y-63.62
X80.25Y-32.5
X81.88Y-48.38
X81.88Y-63.62
X84.42Y-48.38
X84.42Y-61.08
X84.42Y-63.62
X86.96Y-48.38
X86.96Y-61.08
X86.96Y-63.62
X89.5Y-48.38
X89.5Y-61.08
X89.5Y-63.62
X92.04Y-48.38
X92.04Y-63.62
X94.58Y-48.38
X94.58Y-63.62
X97.12Y-48.38
X97.12Y-63.62
T7
X62.03Y-17.75
X64.57Y-17.75
X67.11Y-17.75
X69.65Y-17.75
X72.19Y-17.75
X74.73Y-17.75
X77.27Y-17.75
X79.81Y-17.75
X82.35Y-17.75
X84.89Y-17.75
X87.43Y-17.75
X89.97Y-17.75
T8
X26.5Y-19.0
X31.5Y-19.0
X38.5Y-19.0
X43.5Y-19.0
X50.5Y-19.0
X55.5Y-19.0
T9
X19.1Y-24.445
X19.1Y-31.205
X19.1Y-40.795
X19.1Y-47.555
T0
M30
