G04 #@! TF.GenerationSoftware,KiCad,Pcbnew,6.0.9-8da3e8f707~116~ubuntu20.04.1*
G04 #@! TF.CreationDate,2022-11-14T19:44:17-05:00*
G04 #@! TF.ProjectId,psu_control,7073755f-636f-46e7-9472-6f6c2e6b6963,rev?*
G04 #@! TF.SameCoordinates,Original*
G04 #@! TF.FileFunction,Paste,Top*
G04 #@! TF.FilePolarity,Positive*
%FSLAX46Y46*%
G04 Gerber Fmt 4.6, Leading zero omitted, Abs format (unit mm)*
G04 Created by KiCad (PCBNEW 6.0.9-8da3e8f707~116~ubuntu20.04.1) date 2022-11-14 19:44:17*
%MOMM*%
%LPD*%
G01*
G04 APERTURE LIST*
G04 Aperture macros list*
%AMRoundRect*
0 Rectangle with rounded corners*
0 $1 Rounding radius*
0 $2 $3 $4 $5 $6 $7 $8 $9 X,Y pos of 4 corners*
0 Add a 4 corners polygon primitive as box body*
4,1,4,$2,$3,$4,$5,$6,$7,$8,$9,$2,$3,0*
0 Add four circle primitives for the rounded corners*
1,1,$1+$1,$2,$3*
1,1,$1+$1,$4,$5*
1,1,$1+$1,$6,$7*
1,1,$1+$1,$8,$9*
0 Add four rect primitives between the rounded corners*
20,1,$1+$1,$2,$3,$4,$5,0*
20,1,$1+$1,$4,$5,$6,$7,0*
20,1,$1+$1,$6,$7,$8,$9,0*
20,1,$1+$1,$8,$9,$2,$3,0*%
G04 Aperture macros list end*
%ADD10RoundRect,0.250000X0.262500X0.450000X-0.262500X0.450000X-0.262500X-0.450000X0.262500X-0.450000X0*%
%ADD11RoundRect,0.250000X0.450000X-0.262500X0.450000X0.262500X-0.450000X0.262500X-0.450000X-0.262500X0*%
%ADD12RoundRect,0.150000X0.150000X-0.587500X0.150000X0.587500X-0.150000X0.587500X-0.150000X-0.587500X0*%
%ADD13RoundRect,0.250000X-0.450000X0.262500X-0.450000X-0.262500X0.450000X-0.262500X0.450000X0.262500X0*%
%ADD14RoundRect,0.075000X0.075000X-0.650000X0.075000X0.650000X-0.075000X0.650000X-0.075000X-0.650000X0*%
%ADD15RoundRect,0.250000X0.250000X0.475000X-0.250000X0.475000X-0.250000X-0.475000X0.250000X-0.475000X0*%
%ADD16R,1.100000X1.100000*%
%ADD17RoundRect,0.250000X-0.262500X-0.450000X0.262500X-0.450000X0.262500X0.450000X-0.262500X0.450000X0*%
%ADD18RoundRect,0.150000X0.150000X-0.512500X0.150000X0.512500X-0.150000X0.512500X-0.150000X-0.512500X0*%
%ADD19RoundRect,0.100000X-0.100000X0.637500X-0.100000X-0.637500X0.100000X-0.637500X0.100000X0.637500X0*%
%ADD20R,2.500000X3.200000*%
%ADD21RoundRect,0.150000X0.587500X0.150000X-0.587500X0.150000X-0.587500X-0.150000X0.587500X-0.150000X0*%
%ADD22R,2.750000X3.050000*%
%ADD23R,1.200000X2.200000*%
%ADD24RoundRect,0.250000X-0.250000X-0.475000X0.250000X-0.475000X0.250000X0.475000X-0.250000X0.475000X0*%
%ADD25RoundRect,0.100000X0.100000X-0.637500X0.100000X0.637500X-0.100000X0.637500X-0.100000X-0.637500X0*%
%ADD26RoundRect,0.250000X0.475000X-0.250000X0.475000X0.250000X-0.475000X0.250000X-0.475000X-0.250000X0*%
%ADD27R,0.510000X0.700000*%
%ADD28RoundRect,0.250000X-0.475000X0.250000X-0.475000X-0.250000X0.475000X-0.250000X0.475000X0.250000X0*%
%ADD29RoundRect,0.150000X0.825000X0.150000X-0.825000X0.150000X-0.825000X-0.150000X0.825000X-0.150000X0*%
%ADD30RoundRect,0.250000X-0.312500X-0.625000X0.312500X-0.625000X0.312500X0.625000X-0.312500X0.625000X0*%
G04 APERTURE END LIST*
D10*
X106912500Y-20000000D03*
X105087500Y-20000000D03*
X41825000Y-45500000D03*
X40000000Y-45500000D03*
D11*
X95000000Y-39737500D03*
X95000000Y-37912500D03*
D12*
X100050000Y-44437500D03*
X101950000Y-44437500D03*
X101000000Y-42562500D03*
D13*
X89500000Y-63087500D03*
X89500000Y-64912500D03*
D14*
X33000000Y-41950000D03*
X33500000Y-41950000D03*
X34000000Y-41950000D03*
X34500000Y-41950000D03*
X35000000Y-41950000D03*
X35000000Y-37550000D03*
X34500000Y-37550000D03*
X34000000Y-37550000D03*
X33500000Y-37550000D03*
X33000000Y-37550000D03*
D11*
X39550000Y-66500000D03*
X39550000Y-64675000D03*
D15*
X29662500Y-43000000D03*
X27762500Y-43000000D03*
D16*
X63500000Y-37100000D03*
X63500000Y-39900000D03*
D17*
X44675000Y-45500000D03*
X46500000Y-45500000D03*
D15*
X112500000Y-58250000D03*
X110600000Y-58250000D03*
D17*
X85000000Y-69950000D03*
X86825000Y-69950000D03*
D18*
X100950000Y-39637500D03*
X101900000Y-39637500D03*
X102850000Y-39637500D03*
X102850000Y-37362500D03*
X100950000Y-37362500D03*
D10*
X68250000Y-17500000D03*
X66425000Y-17500000D03*
X38000000Y-48500000D03*
X36175000Y-48500000D03*
D19*
X112725000Y-50387500D03*
X112075000Y-50387500D03*
X111425000Y-50387500D03*
X110775000Y-50387500D03*
X110125000Y-50387500D03*
X109475000Y-50387500D03*
X108825000Y-50387500D03*
X108175000Y-50387500D03*
X108175000Y-56112500D03*
X108825000Y-56112500D03*
X109475000Y-56112500D03*
X110125000Y-56112500D03*
X110775000Y-56112500D03*
X111425000Y-56112500D03*
X112075000Y-56112500D03*
X112725000Y-56112500D03*
D17*
X36000000Y-54000000D03*
X37825000Y-54000000D03*
D20*
X39950000Y-34500000D03*
X51050000Y-34500000D03*
D21*
X27437500Y-46950000D03*
X27437500Y-45050000D03*
X25562500Y-46000000D03*
D13*
X42050000Y-70175000D03*
X42050000Y-72000000D03*
D17*
X44675000Y-48500000D03*
X46500000Y-48500000D03*
D13*
X57500000Y-65587500D03*
X57500000Y-67412500D03*
X94000000Y-63175000D03*
X94000000Y-65000000D03*
D11*
X33412500Y-32825000D03*
X33412500Y-31000000D03*
D22*
X25950000Y-29500000D03*
X29000000Y-29500000D03*
X25950000Y-32850000D03*
X29000000Y-32850000D03*
D23*
X25195000Y-37475000D03*
X29755000Y-37475000D03*
D17*
X100500000Y-52500000D03*
X102325000Y-52500000D03*
D24*
X32600000Y-57000000D03*
X34500000Y-57000000D03*
D10*
X38000000Y-45500000D03*
X36175000Y-45500000D03*
X63825000Y-17500000D03*
X62000000Y-17500000D03*
D13*
X33437500Y-45925000D03*
X33437500Y-47750000D03*
X34000000Y-59175000D03*
X34000000Y-61000000D03*
D25*
X55050000Y-54362500D03*
X55700000Y-54362500D03*
X56350000Y-54362500D03*
X57000000Y-54362500D03*
X57650000Y-54362500D03*
X58300000Y-54362500D03*
X58950000Y-54362500D03*
X58950000Y-48637500D03*
X58300000Y-48637500D03*
X57650000Y-48637500D03*
X57000000Y-48637500D03*
X56350000Y-48637500D03*
X55700000Y-48637500D03*
X55050000Y-48637500D03*
D13*
X31000000Y-59175000D03*
X31000000Y-61000000D03*
D26*
X40000000Y-54000000D03*
X40000000Y-52100000D03*
D11*
X98500000Y-35912500D03*
X98500000Y-34087500D03*
D21*
X101937500Y-59950000D03*
X101937500Y-58050000D03*
X100062500Y-59000000D03*
D15*
X50000000Y-74000000D03*
X48100000Y-74000000D03*
D24*
X101000000Y-35000000D03*
X102900000Y-35000000D03*
D27*
X78800000Y-65160000D03*
X79750000Y-65160000D03*
X80700000Y-65160000D03*
X80700000Y-62840000D03*
X79750000Y-62840000D03*
X78800000Y-62840000D03*
D15*
X44500000Y-68000000D03*
X42600000Y-68000000D03*
D13*
X36550000Y-64675000D03*
X36550000Y-66500000D03*
D11*
X35912500Y-32825000D03*
X35912500Y-31000000D03*
D13*
X25500000Y-41175000D03*
X25500000Y-43000000D03*
D17*
X100500000Y-49500000D03*
X102325000Y-49500000D03*
D10*
X37825000Y-51000000D03*
X36000000Y-51000000D03*
D17*
X24587500Y-55500000D03*
X26412500Y-55500000D03*
D15*
X39000000Y-60000000D03*
X37100000Y-60000000D03*
D24*
X111300000Y-48250000D03*
X113200000Y-48250000D03*
X82750000Y-63250000D03*
X84650000Y-63250000D03*
D11*
X50550000Y-78000000D03*
X50550000Y-76175000D03*
D13*
X105000000Y-37175000D03*
X105000000Y-39000000D03*
D26*
X55050000Y-46400000D03*
X55050000Y-44500000D03*
D15*
X113200000Y-46250000D03*
X111300000Y-46250000D03*
D17*
X28412500Y-55500000D03*
X30237500Y-55500000D03*
D10*
X106912500Y-17500000D03*
X105087500Y-17500000D03*
D15*
X80400000Y-32000000D03*
X78500000Y-32000000D03*
D11*
X30437500Y-46912500D03*
X30437500Y-45087500D03*
D26*
X109250000Y-48000000D03*
X109250000Y-46100000D03*
D11*
X61000000Y-67412500D03*
X61000000Y-65587500D03*
X64500000Y-67412500D03*
X64500000Y-65587500D03*
D28*
X37000000Y-37500000D03*
X37000000Y-39400000D03*
D16*
X79800000Y-28500000D03*
X77000000Y-28500000D03*
D26*
X107000000Y-48450000D03*
X107000000Y-46550000D03*
D11*
X98500000Y-39737500D03*
X98500000Y-37912500D03*
D17*
X85000000Y-72950000D03*
X86825000Y-72950000D03*
D10*
X29662500Y-40500000D03*
X27837500Y-40500000D03*
D29*
X90975000Y-39405000D03*
X90975000Y-38135000D03*
X90975000Y-36865000D03*
X90975000Y-35595000D03*
X86025000Y-35595000D03*
X86025000Y-36865000D03*
X86025000Y-38135000D03*
X86025000Y-39405000D03*
D13*
X47500000Y-76175000D03*
X47500000Y-78000000D03*
D10*
X41825000Y-48500000D03*
X40000000Y-48500000D03*
D16*
X106300000Y-32500000D03*
X103500000Y-32500000D03*
D24*
X33512500Y-35000000D03*
X35412500Y-35000000D03*
D15*
X39000000Y-62500000D03*
X37100000Y-62500000D03*
D30*
X33037500Y-27000000D03*
X35962500Y-27000000D03*
D11*
X95000000Y-35912500D03*
X95000000Y-34087500D03*
X45050000Y-72000000D03*
X45050000Y-70175000D03*
D28*
X104000000Y-27000000D03*
X104000000Y-28900000D03*
M02*
